<?xml version="1.0" encoding="UTF-8" standalone="no"?>
<!DOCTYPE svg PUBLIC "-//W3C//DTD SVG 1.1//EN" "http://www.w3.org/Graphics/SVG/1.1/DTD/svg11.dtd">
<svg width="100%" height="100%" viewBox="0 0 142 142" version="1.1" xmlns="http://www.w3.org/2000/svg" xmlns:xlink="http://www.w3.org/1999/xlink" xml:space="preserve" xmlns:serif="http://www.serif.com/" style="fill-rule:evenodd;clip-rule:evenodd;stroke-linejoin:round;stroke-miterlimit:2;">
    <path d="M70.985,7.224C72.956,7.224 74.949,7.317 76.908,7.501C77.305,7.538 77.707,7.62 78.103,7.745L78.388,7.835L78.685,7.868C80.376,8.055 82.246,8.08 83.687,8.08C84.505,8.08 85.346,8.07 86.198,8.062C87.054,8.052 87.922,8.043 88.792,8.043C92.206,8.043 96.042,8.186 98.61,9.241C101.235,10.319 102.888,12.502 104.803,15.028C106.312,17.022 107.875,19.083 110.079,20.816L110.29,20.982L110.529,21.109C110.889,21.301 111.208,21.51 111.475,21.73C114.54,24.25 117.378,27.076 119.912,30.127C120.133,30.395 120.343,30.711 120.536,31.068L120.667,31.312L120.84,31.527C122.438,33.518 124.467,35.26 126.43,36.944C129.314,39.419 132.038,41.757 133.221,44.591C134.429,47.485 134.185,51.368 133.947,55.124C133.781,57.754 133.61,60.473 133.913,63.009L136.716,62.678L133.997,63.447C134.077,63.735 134.173,64.106 134.203,64.42C134.583,68.361 134.585,72.353 134.212,76.283C134.179,76.631 134.101,77.004 133.983,77.393L133.902,77.657L133.871,77.931C133.601,80.306 133.69,82.875 133.785,85.594C133.929,89.738 134.08,94.023 132.832,97.018C131.685,99.771 129.156,101.814 126.477,103.978C124.466,105.603 122.386,107.283 120.704,109.404L120.554,109.594L120.436,109.805C120.244,110.148 120.085,110.383 119.887,110.621C117.353,113.661 114.509,116.48 111.433,119.003C111.158,119.227 110.983,119.346 110.683,119.511L110.466,119.63L110.272,119.783C108.254,121.365 106.449,123.401 104.704,125.37C102.215,128.178 99.642,131.081 96.729,132.281C95.225,132.901 93.382,133.189 90.927,133.189C89.418,133.189 87.811,133.082 86.257,132.978C84.652,132.871 82.992,132.759 81.375,132.759C80.254,132.759 79.257,132.813 78.328,132.92L78.085,132.949L77.85,133.015C77.483,133.119 77.23,133.168 76.914,133.198C74.92,133.388 72.894,133.484 70.894,133.484C68.923,133.484 66.931,133.391 64.972,133.207C64.584,133.17 64.362,133.131 64.059,133.045L63.823,132.979L63.58,132.951C62.43,132.815 61.153,132.752 59.56,132.752C58.335,132.752 57.06,132.79 55.763,132.828C54.487,132.867 53.188,132.906 51.902,132.906C49.48,132.906 46.402,132.783 44.083,131.831C41.296,130.686 39.253,128.183 37.091,125.534C35.464,123.542 33.781,121.481 31.64,119.801L31.442,119.646L31.219,119.523C30.897,119.348 30.676,119.2 30.404,118.976C27.343,116.459 24.505,113.634 21.966,110.576C21.757,110.325 21.624,110.134 21.466,109.854L21.348,109.642L21.197,109.452C19.582,107.419 17.522,105.652 15.531,103.941C12.641,101.46 9.911,99.116 8.717,96.257C7.494,93.326 7.727,89.392 7.953,85.587C8.109,82.96 8.27,80.245 7.971,77.72L7.943,77.483L7.878,77.254C7.762,76.844 7.702,76.555 7.676,76.289C7.297,72.345 7.294,68.353 7.668,64.425C7.698,64.105 7.772,63.816 7.856,63.509L7.915,63.292L7.942,63.069C8.253,60.446 8.019,57.771 7.793,55.184C7.479,51.576 7.181,48.168 8.352,45.357C9.584,42.398 12.634,39.638 15.584,36.969C17.531,35.207 19.544,33.385 21.088,31.45L21.253,31.243L21.38,31.01C21.579,30.644 21.78,30.342 21.992,30.087C24.529,27.043 27.374,24.223 30.45,21.704C30.695,21.502 30.994,21.307 31.364,21.108L31.6,20.981L31.809,20.815C33.802,19.237 35.572,17.221 37.283,15.272C39.719,12.496 42.239,9.627 45.113,8.441C46.596,7.831 48.421,7.547 50.859,7.547C52.372,7.547 53.984,7.654 55.542,7.76C57.15,7.868 58.813,7.979 60.429,7.979C61.546,7.979 62.538,7.927 63.461,7.818L63.706,7.789L63.944,7.721C64.36,7.603 64.684,7.535 64.965,7.509C66.96,7.319 68.985,7.224 70.985,7.224M70.985,4.198C68.871,4.198 66.765,4.299 64.675,4.498C64.14,4.548 63.617,4.668 63.104,4.814C62.241,4.915 61.346,4.954 60.429,4.954C57.369,4.954 54.055,4.521 50.859,4.521C48.433,4.521 46.075,4.771 43.947,5.647C38.215,8.009 34.548,14.78 29.911,18.45C29.42,18.714 28.946,19.015 28.51,19.371C25.309,21.994 22.337,24.93 19.647,28.158C19.281,28.596 18.971,29.075 18.701,29.571C14.997,34.215 7.927,38.463 5.538,44.201C3.142,49.954 5.616,56.822 4.917,62.715C4.787,63.192 4.684,63.643 4.637,64.139C4.24,68.31 4.25,72.473 4.645,76.576C4.694,77.094 4.806,77.576 4.946,78.073C5.647,83.993 3.491,91.636 5.905,97.415C8.306,103.166 15.105,106.668 18.806,111.326C19.062,111.784 19.279,112.095 19.618,112.503C22.259,115.683 25.213,118.635 28.463,121.306C28.891,121.659 29.271,121.912 29.753,122.175C34.463,125.87 37.1,132.234 42.919,134.626C45.517,135.693 48.675,135.931 51.902,135.931C54.493,135.931 57.13,135.778 59.56,135.778C60.853,135.778 62.086,135.821 63.224,135.954C63.737,136.1 64.149,136.168 64.685,136.219C66.759,136.413 68.831,136.509 70.894,136.509C73.008,136.509 75.114,136.408 77.204,136.209C77.737,136.16 78.173,136.07 78.683,135.925C79.552,135.824 80.453,135.784 81.375,135.784C84.436,135.784 87.737,136.214 90.927,136.214C93.367,136.214 95.742,135.963 97.895,135.076C103.685,132.691 107.47,125.833 112.158,122.157C112.624,121.901 112.955,121.676 113.371,121.336C116.571,118.713 119.543,115.777 122.233,112.55C122.577,112.137 122.836,111.739 123.095,111.277C126.792,106.615 133.25,103.928 135.646,98.174C138.019,92.477 136.23,84.123 136.897,78.271C137.066,77.718 137.188,77.148 137.243,76.567C137.64,72.397 137.63,68.233 137.235,64.132C137.186,63.622 137.067,63.126 136.93,62.637L136.93,62.636L136.93,62.637C136.932,62.643 136.936,62.648 136.937,62.651C136.232,56.76 138.436,49.184 136.034,43.432C133.66,37.746 126.912,34.241 123.221,29.642C122.949,29.137 122.633,28.652 122.262,28.204C119.621,25.024 116.666,22.073 113.417,19.4C112.967,19.031 112.478,18.715 111.969,18.444C107.323,14.792 105.508,8.801 99.774,6.446C96.76,5.207 92.759,5.018 88.792,5.018C87.056,5.018 85.326,5.054 83.687,5.054C82.003,5.054 80.419,5.016 79.023,4.861C78.432,4.675 77.82,4.548 77.196,4.489C75.121,4.294 73.049,4.198 70.985,4.198ZM32.418,17.602L32.42,17.602L32.418,17.602Z" style="fill:rgb(148,94,20);fill-opacity:0.29;fill-rule:nonzero;"/>
    <path d="M141.352,63.182C141.063,60.416 139.385,58.103 137.142,56.44C134.705,54.635 131.988,50.567 129.823,45.51C127.656,40.449 126.592,35.678 126.976,32.682C127.329,29.925 126.817,27.12 125.014,24.994C122.195,21.668 119.049,18.584 115.598,15.795C113.423,14.037 110.581,13.571 107.806,13.974C104.798,14.412 99.975,13.443 94.839,11.386C89.7,9.327 85.549,6.699 83.688,4.309C81.972,2.104 79.602,0.481 76.807,0.247C72.374,-0.125 67.955,-0.073 63.603,0.377C60.819,0.665 58.49,2.332 56.816,4.561C54.998,6.981 50.904,9.681 45.813,11.83C40.718,13.982 35.917,15.04 32.901,14.659C30.125,14.309 27.3,14.817 25.16,16.607C21.813,19.409 18.708,22.534 15.9,25.961C14.131,28.122 13.661,30.945 14.067,33.7C14.508,36.689 13.534,41.481 11.462,46.583C9.389,51.688 6.742,55.813 4.336,57.661C2.118,59.364 0.484,61.718 0.249,64.494C-0.126,68.897 -0.074,73.288 0.38,77.612C0.67,80.377 2.348,82.691 4.591,84.354C7.027,86.16 9.745,90.227 11.909,95.284C14.076,100.345 15.14,105.116 14.757,108.112C14.405,110.869 14.916,113.674 16.718,115.8C19.537,119.126 22.683,122.21 26.134,124.998C28.31,126.757 31.151,127.223 33.926,126.819C36.934,126.382 41.757,127.35 46.894,129.407C52.034,131.467 56.186,134.097 58.046,136.486C59.76,138.689 62.13,140.313 64.924,140.548C69.357,140.918 73.776,140.867 78.13,140.416C80.913,140.128 83.242,138.462 84.916,136.234C86.734,133.813 90.829,131.114 95.92,128.963C101.014,126.811 105.815,125.754 108.831,126.134C111.609,126.484 114.433,125.977 116.573,124.186C119.921,121.385 123.026,118.259 125.833,114.831C127.603,112.671 128.071,109.848 127.665,107.092C127.225,104.104 128.199,99.313 130.27,94.212C132.343,89.106 134.99,84.981 137.395,83.133C139.614,81.429 141.249,79.074 141.485,76.298C141.858,71.896 141.806,67.506 141.352,63.182ZM138.366,76.09C138.216,77.826 137.335,79.4 136.006,80.3C132.976,82.349 129.83,86.995 127.372,93.049C124.916,99.097 123.937,104.61 124.685,108.175C125.013,109.737 124.549,111.478 123.442,112.83C120.772,116.097 117.768,119.13 114.515,121.848C113.453,122.735 112.154,123.231 110.855,123.242C110.527,123.246 110.199,123.216 109.88,123.157C109.123,123.013 108.279,122.946 107.371,122.954C103.933,122.986 99.432,124.105 94.697,126.106C88.655,128.656 84.039,131.867 82.032,134.914C81.158,136.24 79.6,137.14 77.865,137.322C75.741,137.544 73.584,137.666 71.452,137.686C69.351,137.706 67.226,137.626 65.135,137.449C63.387,137.301 61.803,136.425 60.898,135.105C58.833,132.094 54.155,128.968 48.062,126.528C43.289,124.615 38.768,123.579 35.331,123.611C34.427,123.62 33.588,123.703 32.837,123.859C32.52,123.925 32.192,123.958 31.862,123.962C30.553,123.974 29.234,123.5 28.149,122.624C24.861,119.97 21.806,116.987 19.071,113.755C17.949,112.429 17.457,110.709 17.754,109.153C18.44,105.575 17.357,100.077 14.786,94.068C12.216,88.066 8.984,83.481 5.918,81.487C4.583,80.618 3.677,79.072 3.495,77.349C3.051,73.151 3.009,68.896 3.368,64.703C3.516,62.966 4.398,61.392 5.727,60.493C8.756,58.443 11.904,53.796 14.361,47.743C16.816,41.696 17.795,36.183 17.048,32.619C16.72,31.056 17.185,29.315 18.291,27.962C20.964,24.692 23.968,21.659 27.219,18.945C28.28,18.057 29.58,17.563 30.877,17.55C31.207,17.548 31.534,17.577 31.853,17.637C32.609,17.779 33.453,17.848 34.361,17.839C37.797,17.808 42.299,16.688 47.035,14.688C53.078,12.135 57.694,8.924 59.701,5.88C60.575,4.552 62.133,3.652 63.867,3.471C65.991,3.25 68.15,3.127 70.281,3.107C72.382,3.088 74.507,3.167 76.598,3.343C78.346,3.493 79.93,4.368 80.836,5.689C82.899,8.697 87.577,11.824 93.67,14.265C98.443,16.177 102.965,17.213 106.401,17.182C107.306,17.173 108.146,17.09 108.896,16.935C109.213,16.869 109.54,16.834 109.87,16.831C111.18,16.819 112.499,17.294 113.583,18.168C116.871,20.822 119.926,23.805 122.662,27.037C123.784,28.362 124.277,30.085 123.978,31.641C123.293,35.218 124.375,40.716 126.947,46.724C129.515,52.725 132.747,57.311 135.814,59.305C137.15,60.173 138.056,61.72 138.238,63.444C138.681,67.643 138.725,71.897 138.366,76.09Z" style="fill:rgb(111,66,20);fill-opacity:0.23;fill-rule:nonzero;"/>
    <path d="M134.103,61.903C130.479,59.547 126.917,54.588 124.071,47.939C121.221,41.283 120.098,35.289 120.908,31.061C121.03,30.421 120.785,29.646 120.269,29.035C117.662,25.956 114.749,23.11 111.612,20.578C111.093,20.16 110.484,19.931 109.899,19.936C109.775,19.937 109.653,19.95 109.534,19.974C108.582,20.171 107.538,20.276 106.431,20.286C102.594,20.322 97.647,19.206 92.501,17.144C85.751,14.441 80.691,10.992 78.252,7.437C77.877,6.889 77.141,6.507 76.331,6.437C74.341,6.27 72.316,6.194 70.311,6.212C68.275,6.232 66.217,6.348 64.193,6.559C63.395,6.643 62.676,7.033 62.317,7.579C59.945,11.178 54.952,14.717 48.259,17.545C43.153,19.702 38.227,20.909 34.39,20.944C33.274,20.955 32.222,20.867 31.266,20.686C31.153,20.665 31.03,20.653 30.906,20.655C30.334,20.66 29.738,20.897 29.231,21.321C26.13,23.909 23.266,26.801 20.717,29.92C20.205,30.546 19.972,31.337 20.107,31.985C20.991,36.196 19.98,42.204 17.259,48.905C14.537,55.611 11.066,60.638 7.485,63.06C6.934,63.432 6.55,64.162 6.481,64.966C6.139,68.964 6.18,73.02 6.603,77.025C6.687,77.818 7.08,78.532 7.629,78.889C11.253,81.245 14.816,86.204 17.662,92.852C20.511,99.511 21.635,105.506 20.825,109.733C20.702,110.372 20.947,111.147 21.463,111.756C24.072,114.839 26.984,117.684 30.119,120.214C30.641,120.634 31.249,120.863 31.833,120.857C31.957,120.856 32.08,120.844 32.199,120.82C33.151,120.623 34.195,120.517 35.302,120.506C39.14,120.471 44.087,121.587 49.231,123.648C55.981,126.352 61.041,129.8 63.481,133.356C63.856,133.904 64.592,134.287 65.402,134.356C67.392,134.524 69.418,134.6 71.423,134.581C73.458,134.562 75.516,134.445 77.538,134.235C78.336,134.15 79.056,133.759 79.416,133.214C81.789,129.613 86.781,126.074 93.474,123.249C98.577,121.092 103.501,119.885 107.341,119.849C108.457,119.839 109.509,119.926 110.466,120.107C110.58,120.128 110.703,120.139 110.826,120.138C111.4,120.133 111.995,119.897 112.502,119.473C115.606,116.879 118.47,113.987 121.016,110.873C121.528,110.247 121.761,109.456 121.625,108.808C120.742,104.596 121.754,98.587 124.473,91.888C127.195,85.183 130.666,80.156 134.246,77.734C134.797,77.36 135.182,76.629 135.251,75.826C135.593,71.828 135.553,67.771 135.129,63.768C135.045,62.974 134.652,62.261 134.103,61.903Z" style="fill:rgb(148,94,20);fill-opacity:0.64;fill-rule:nonzero;"/>
    <path d="M70.31,6.212C72.316,6.193 74.341,6.27 76.331,6.437C77.141,6.507 77.877,6.889 78.252,7.437C80.691,10.992 85.751,14.441 92.501,17.144C97.647,19.206 102.594,20.322 106.431,20.286C107.538,20.276 108.582,20.171 109.534,19.974C109.653,19.95 109.775,19.937 109.899,19.936C110.484,19.931 111.093,20.16 111.612,20.578C114.749,23.11 117.662,25.956 120.269,29.035C120.785,29.646 121.03,30.421 120.908,31.061C120.098,35.289 121.221,41.283 124.071,47.939C126.917,54.588 130.479,59.547 134.103,61.903C134.652,62.261 135.045,62.974 135.129,63.768C135.553,67.771 135.593,71.828 135.251,75.826C135.182,76.629 134.797,77.36 134.246,77.734C130.666,80.156 127.195,85.183 124.473,91.887C121.753,98.587 120.742,104.596 121.625,108.808C121.761,109.456 121.528,110.247 121.016,110.873C118.47,113.987 115.606,116.879 112.502,119.473C111.995,119.897 111.4,120.133 110.826,120.138C110.702,120.139 110.58,120.128 110.466,120.107C109.509,119.926 108.457,119.839 107.341,119.849C103.501,119.885 98.577,121.092 93.474,123.249C86.781,126.074 81.789,129.613 79.416,133.214C79.056,133.759 78.336,134.15 77.538,134.234C75.515,134.445 73.458,134.562 71.423,134.581C69.418,134.6 67.392,134.524 65.402,134.356C64.592,134.287 63.856,133.904 63.48,133.356C61.041,129.8 55.981,126.351 49.231,123.648C44.086,121.587 39.14,120.471 35.302,120.506C34.195,120.517 33.151,120.623 32.199,120.82C32.08,120.844 31.957,120.856 31.833,120.857C31.249,120.863 30.641,120.634 30.119,120.214C26.984,117.684 24.072,114.839 21.463,111.756C20.947,111.147 20.702,110.372 20.825,109.733C21.635,105.506 20.511,99.511 17.662,92.852C14.816,86.204 11.253,81.245 7.629,78.889C7.08,78.532 6.687,77.818 6.603,77.025C6.18,73.02 6.139,68.964 6.481,64.966C6.55,64.162 6.934,63.432 7.485,63.06C11.066,60.638 14.537,55.611 17.259,48.905C19.98,42.204 20.991,36.196 20.107,31.985C19.971,31.337 20.205,30.546 20.717,29.92C23.266,26.801 26.13,23.909 29.231,21.321C29.738,20.897 30.334,20.66 30.906,20.655C31.03,20.653 31.153,20.665 31.266,20.686C32.223,20.867 33.274,20.955 34.39,20.944C38.228,20.909 43.153,19.702 48.259,17.545C54.952,14.717 59.945,11.178 62.316,7.579C62.676,7.033 63.395,6.643 64.193,6.559C66.217,6.348 68.274,6.231 70.31,6.212M70.281,3.108C68.15,3.127 65.991,3.25 63.867,3.471C62.133,3.652 60.575,4.552 59.7,5.88C57.694,8.924 53.078,12.135 47.035,14.688C42.299,16.688 37.797,17.808 34.361,17.839C33.453,17.848 32.609,17.779 31.852,17.637C31.534,17.577 31.207,17.548 30.877,17.55C29.58,17.563 28.28,18.057 27.219,18.945C23.968,21.659 20.964,24.692 18.291,27.962C17.185,29.315 16.72,31.056 17.048,32.619C17.795,36.183 16.816,41.696 14.36,47.743C11.904,53.796 8.756,58.443 5.726,60.493C4.397,61.392 3.516,62.966 3.367,64.703C3.008,68.896 3.051,73.151 3.495,77.349C3.677,79.072 4.583,80.618 5.918,81.487C8.984,83.481 12.216,88.066 14.786,94.068C17.357,100.077 18.44,105.575 17.754,109.153C17.457,110.709 17.949,112.429 19.071,113.755C21.806,116.987 24.861,119.971 28.149,122.624C29.234,123.5 30.553,123.974 31.862,123.962C32.192,123.958 32.52,123.925 32.837,123.859C33.588,123.703 34.427,123.62 35.331,123.611C38.768,123.579 43.289,124.615 48.062,126.528C54.155,128.968 58.833,132.094 60.898,135.105C61.803,136.425 63.387,137.301 65.135,137.449C67.226,137.626 69.351,137.706 71.452,137.686C73.583,137.666 75.741,137.544 77.865,137.322C79.6,137.141 81.158,136.24 82.032,134.914C84.039,131.867 88.655,128.656 94.697,126.106C99.432,124.105 103.932,122.986 107.371,122.954C108.279,122.946 109.123,123.013 109.88,123.157C110.199,123.217 110.527,123.246 110.855,123.243C112.154,123.231 113.453,122.735 114.515,121.848C117.768,119.13 120.772,116.097 123.442,112.83C124.549,111.478 125.013,109.737 124.685,108.175C123.937,104.61 124.916,99.097 127.372,93.049C129.829,86.996 132.976,82.349 136.005,80.3C137.334,79.4 138.216,77.826 138.366,76.09C138.725,71.897 138.681,67.643 138.237,63.444C138.056,61.72 137.15,60.173 135.814,59.305C132.747,57.311 129.515,52.725 126.947,46.724C124.375,40.716 123.293,35.218 123.978,31.641C124.276,30.085 123.784,28.363 122.662,27.037C119.926,23.806 116.871,20.822 113.583,18.168C112.499,17.294 111.18,16.819 109.87,16.831C109.54,16.834 109.213,16.869 108.896,16.935C108.145,17.09 107.306,17.174 106.401,17.182C102.965,17.214 98.443,16.177 93.67,14.265C87.577,11.824 82.899,8.698 80.836,5.689C79.93,4.368 78.346,3.493 76.597,3.344C74.507,3.167 72.382,3.088 70.281,3.108Z" style="fill:rgb(148,94,20);fill-opacity:0.39;fill-rule:nonzero;"/>
    <path d="M70.801,9.832L70.316,9.832C68.801,9.832 67.572,11.052 67.572,12.558L67.572,68.916C67.572,70.421 68.801,71.641 70.316,71.641L70.801,71.641C72.316,71.641 73.545,70.421 73.545,68.916L73.545,12.558C73.545,11.052 72.316,9.832 70.801,9.832Z" style="fill:rgb(227,227,227);fill-rule:nonzero;"/>
</svg>
