<?xml version="1.0" encoding="utf-8"?>
<!DOCTYPE svg PUBLIC "-//W3C//DTD SVG 1.0//EN" "http://www.w3.org/TR/2001/REC-SVG-20010904/DTD/svg10.dtd">
<svg version="1.0" xmlns="http://www.w3.org/2000/svg" width="1693px" height="674px" viewBox="0 0 1693 674" preserveAspectRatio="xMidYMid meet">
 <g fill="#000000">
  <path d="M459.5 627.9 c-20.3 -0.5 -55 -1.4 -77 -2 -24.1 -0.6 -84.3 -1 -151 -0.7 -120.2 0.3 -124.6 0.2 -129.4 -4.6 -2.1 -2.2 -2.4 -3.7 -3.3 -16.2 -0.9 -14 0.1 -52.5 2.3 -81.9 2.4 -33.9 9.1 -93.6 17.4 -154.5 2.5 -17.9 6.5 -48.7 9 -68.5 7 -55.5 10.7 -77.6 19.1 -114 11.8 -51.1 27.6 -86.6 45.8 -103.2 20.2 -18.2 50.5 -18.7 68.7 -1 10.3 10.2 18.4 25.2 23.4 43.8 1.3 5 2.6 9.3 2.8 9.5 0.5 0.5 19.4 -2.3 20.6 -3 0.5 -0.3 1.1 -2.1 1.4 -4 0.9 -5.7 6.6 -18.6 11.3 -25.7 6.6 -10.1 18.9 -21 28.7 -25.9 18.6 -9.1 34.4 -6.5 48.8 8 8.3 8.4 14.2 19.8 20 38.4 2.2 7.2 4.4 13.7 4.7 14.5 0.4 0.7 5.5 3 11.2 5.1 25.9 9.1 48.7 24.6 67.2 45.6 7.4 8.4 17.5 22.8 19.7 28.2 0.7 1.7 1.8 3.2 2.3 3.2 0.5 0 4.6 -2.9 9.1 -6.4 18.7 -14.5 36.2 -24.6 42.6 -24.6 8 0 12.2 7.7 7.8 14.3 -0.9 1.4 -6 5.1 -11.4 8.3 -12 7 -25.8 16.5 -34.2 23.5 l-6.3 5.2 0.8 4.6 c0.4 2.5 1 7.7 1.3 11.5 l0.6 7 9.5 1.8 c10.2 2 29.7 5.2 41.2 6.8 8.6 1.2 12.4 3.4 13.9 7.7 2.4 7.3 -2.9 13.3 -11.8 13.3 -4.1 0 -32.4 -4.8 -43.6 -7.4 -11.2 -2.6 -11 -2.7 -13.1 5.7 -4 15.9 -12 32.8 -22.2 46.7 -15.2 20.9 -46.8 42.3 -76.9 52 -5.5 1.8 -10.4 3.6 -10.9 4 -0.5 0.5 -0.3 8.2 0.3 17.7 2.3 32.4 11.4 119.9 12.6 121.1 0.3 0.3 3.5 -0.9 7.3 -2.6 38.6 -17.8 81.5 -2.4 107.3 38.7 14.7 23.4 19.6 55 9.2 59.3 -3.7 1.5 -48.2 1.8 -96.8 0.7z m76.5 -19.3 c0 -0.8 -1 -4.5 -2.1 -8.2 -5.5 -17.9 -17.3 -33.5 -33.6 -44.4 -17.6 -11.8 -33.1 -13 -51.2 -3.9 -9.8 4.9 -21.8 17 -26.9 27 -3.4 6.8 -6.2 17.6 -6.2 24.7 l0 4.2 4.8 0 c2.6 0 9.7 0.3 15.8 0.7 l11.2 0.6 -1.3 -7.5 c-3.3 -18.8 -2.9 -27.5 1.5 -29.8 1 -0.6 4.4 -1 7.5 -1 4.8 0 6.1 0.4 8.4 2.8 2.7 2.7 3.4 4.9 8.1 29.5 l1.1 5.7 10 0 9.9 0 0 -15.5 c0 -21.6 1.4 -24.5 12 -24.5 4 0 5.6 0.5 7.4 2.3 2.8 2.8 3.3 5.7 4.2 23.9 l0.6 13.7 7.2 0.4 c3.9 0.1 8.1 0.4 9.4 0.5 1.3 0.1 2.2 -0.4 2.2 -1.2z m-147 -9.5 c0 -17.3 3.9 -30.2 13.4 -44.5 l5.5 -8.2 -3 -25.9 c-9.7 -87 -13.1 -139.9 -9.3 -145.3 1.8 -2.5 6.1 -4.5 14.6 -6.7 12 -3.2 11.8 -2.7 4.5 -9.4 -3.5 -3.3 -7.2 -7.6 -8.2 -9.6 -1.5 -2.7 -2.9 -3.8 -6 -4.5 -10.4 -2.6 -22.3 -11 -25.1 -17.7 -0.8 -1.8 -1.4 -5.7 -1.4 -8.8 0 -4.8 0.4 -6 2.6 -8 2.2 -2.1 3.7 -2.5 8.6 -2.5 5.7 0 6 0.1 10.6 4.9 7.2 7.4 12 9.4 20.9 8.9 5.8 -0.4 8.8 -1.3 14.6 -4.1 6.5 -3.2 19.7 -13.7 19.7 -15.7 0 -0.4 -1.9 -1.5 -4.2 -2.4 -6.1 -2.5 -17.2 -10 -22.2 -15 -7.1 -7.1 -9 -11.6 -9.1 -21.6 0 -7.5 0.3 -9 2.7 -13.2 3.4 -5.7 10.7 -10.5 22.4 -14.7 13.1 -4.8 23.9 -6.4 41.6 -6.5 8.7 -0.1 15.8 -0.4 15.8 -0.7 0 -1.4 -7.5 -12.6 -12.9 -19.3 -12.5 -15.2 -31.6 -30.4 -48.2 -38 -9.1 -4.2 -27.7 -9.9 -39 -12 -24.7 -4.6 -73.4 -4.6 -104.3 -0.1 -5.5 0.8 -12.7 1.5 -16.1 1.5 -5.4 0 -6.4 -0.3 -8.7 -2.7 -3.3 -3.5 -4.2 -5.8 -8.4 -21.6 -5.9 -22.8 -15.8 -38 -26.7 -41.2 -22.3 -6.6 -44.5 25.1 -59.7 85.7 -9.6 38.1 -14.8 68.4 -23.5 136.8 -2.4 19.5 -6.1 47.2 -8 61.5 -12.2 89.4 -18.2 151.2 -20.1 207.8 l-0.7 19.7 9.9 0 c5.4 0 13.6 0.3 18.2 0.7 l8.2 0.6 0 -7.4 c0 -24.5 16.4 -48.6 44.5 -65.4 16.9 -10.1 30.4 -13.7 51.5 -13.8 15.1 0 22.9 1.2 33.2 5 13.5 5 29.6 17.6 39.8 31.2 10.2 13.5 19 34.3 19 44.8 0 2.4 0.1 4.4 0.3 4.5 0.1 0.1 9.2 0.5 20.2 0.8 11 0.3 20.6 0.7 21.3 0.8 0.9 0.1 1.2 -2.1 1.2 -8.7z m-176 6.7 c0 -0.7 -0.7 -5.1 -1.5 -9.8 -2.8 -15.7 -1.6 -23.3 4 -25.8 5.2 -2.4 14 -0.8 16.4 3 0.7 1.1 2.6 8.5 4.2 16.6 1.7 8 3.3 15 3.5 15.4 0.3 0.4 6.7 0.8 14.2 0.8 l13.7 0 -0.3 -17.5 -0.3 -17.5 2.5 -2.5 c2.1 -2 3.5 -2.5 7.8 -2.5 11.9 0 12.7 1.5 14.1 23.7 l1 16.3 12.4 0 12.3 0 -0.6 -2.7 c-3.8 -16.1 -17.5 -34.9 -32.8 -45.1 -21.6 -14.4 -48.8 -11.5 -74.7 8 -8.8 6.6 -18.9 18.4 -22.2 25.8 -2.5 5.5 -4.7 13.7 -3.9 14.4 0.3 0.3 7.2 0.6 15.4 0.6 11.2 0 14.8 -0.3 14.8 -1.2z m247.5 -260.2 c4.4 -3 10.6 -7.9 13.8 -10.8 l5.8 -5.3 -5.3 -4.2 -5.2 -4.2 -5.1 4.8 c-7 6.6 -16.5 12.8 -23.6 15.5 l-6.1 2.3 3.4 2.1 c4.8 3 9.9 5.1 12.3 5.2 1.1 0 5.6 -2.4 10 -5.4z m38.5 -45.8 c2.1 -4.6 4.2 -9.6 4.6 -11.3 l0.7 -3 -4.8 4.3 c-2.6 2.3 -6.7 5.4 -9.1 6.9 -2.4 1.6 -4.4 3.3 -4.4 4 0 1.2 6.9 7.2 8.3 7.3 0.5 0 2.6 -3.7 4.7 -8.2z m-106.5 -174 c-0.4 -1.3 -2.4 -6 -4.5 -10.5 -4.4 -9.4 -11.5 -17.7 -16.6 -19.3 -8.1 -2.7 -24.8 9.8 -31.9 24 l-3.5 7 23.7 0.3 c13.1 0.1 26 0.3 28.6 0.5 4.6 0.2 4.8 0.1 4.2 -2z"/>
  <path d="M180.4 511.6 c-1.6 -1.2 -2 -2.9 -2.3 -10 -0.2 -5.8 0.1 -9.1 0.9 -10.1 1.3 -1.6 9.5 -2.1 11.7 -0.7 3.9 2.5 5.9 17.5 2.7 20.6 -2 2 -10.3 2.1 -13 0.2z"/>
  <path d="M161.6 509.4 c-3.1 -3 -1.6 -16.2 2.2 -20.6 2.2 -2.6 8.6 -2.4 11.3 0.3 1.9 1.9 2.1 3 1.7 9.5 -0.7 10 -2.3 12.4 -8.8 12.4 -3.1 0 -5.4 -0.6 -6.4 -1.6z"/>
  <path d="M216.6 440.5 c-3.6 -3.6 -5 -18 -2 -20.9 1 -1.1 3.3 -1.6 6.7 -1.6 6.7 0 7.9 1.8 8.5 12.6 0.4 6.6 0.1 8.3 -1.3 9.7 -2.1 2.2 -9.8 2.3 -11.9 0.2z"/>
  <path d="M196.2 438.4 c-1.9 -1.3 -2.2 -2.4 -2.2 -8.4 0 -7 1.2 -11.9 3.3 -13.2 2 -1.3 8.2 -0.9 10.3 0.6 1.6 1.2 1.9 2.7 1.9 10.1 0 7.9 -0.2 8.8 -2.4 10.6 -2.8 2.3 -7.8 2.5 -10.9 0.3z"/>
  <path d="M175.6 436.4 c-1 -1 -1.6 -3.3 -1.6 -6.4 0 -9.2 3.5 -14 10.1 -14 6.3 0 7.9 1.3 7.9 6.4 0 5.2 -2.4 12.6 -4.7 14.4 -2.4 1.7 -9.8 1.5 -11.7 -0.4z"/>
  <path d="M184.5 355.5 c-2 -1.9 -2.5 -3.5 -2.6 -7.7 l0 -5.3 -1.4 4.9 c-1.6 6.2 -3.5 7.6 -10.1 7.6 -4.3 0 -5.6 -0.4 -6.8 -2.2 -3.1 -4.4 -1 -18.8 3.4 -23.6 1.6 -1.7 3.2 -2.2 7 -2.2 6.5 0 8 1.6 8.1 8.8 l0.1 5.7 0.9 -4 c1.2 -4.9 3.1 -6.5 8.1 -6.5 5.4 0 7.3 2.4 8.1 9.9 1.3 12.6 -0.9 17.1 -8.6 17.1 -2.7 0 -4.5 -0.7 -6.2 -2.5z"/>
  <path d="M280.9 301.7 c-11.5 -3.9 -19.3 -10.8 -24.7 -21.7 -2.5 -5.1 -2.7 -6.4 -2.7 -18 0 -11.5 0.2 -13 2.7 -18.3 7.6 -16.2 26.8 -26.6 49 -26.7 23.2 0 38.7 9.8 43.3 27.5 4 15.6 0.1 32.3 -10.4 43.7 -10.8 11.8 -20.7 15.8 -38.9 15.8 -9.5 0 -13 -0.5 -18.3 -2.3z"/>
  <path d="M1374.5 581.1 c-5.8 -2.6 -10.1 -8 -11.5 -14.3 -0.8 -3.8 -1 -29 -0.8 -90.8 0.3 -95.1 -0.2 -88.3 7.2 -94.7 10 -8.8 26 -6.1 32.4 5.5 l2.4 4.2 4.6 -4.1 c9.5 -8.3 20.5 -12.1 35.2 -12.1 17.1 0 29.1 5 41 17.1 8.8 8.8 14.4 18.8 18.6 32.6 3.6 12.1 4.5 33 1.9 45.6 -4.4 21.7 -14.8 38.6 -30.1 48.7 -10.4 7 -25.8 10.3 -38.6 8.5 -10.8 -1.6 -17.6 -4.6 -25.7 -11.3 l-7.1 -6 0 27.2 c0 16 -0.4 28.9 -1.1 31.1 -2.2 8.1 -11.1 14.7 -19.9 14.7 -2.5 0 -6.3 -0.9 -8.5 -1.9z m72.1 -93.5 c6.1 -2.8 11.6 -9 14.6 -16.5 2 -4.9 2.3 -7.3 2.3 -20.6 0 -14.5 -0.1 -15.2 -2.9 -21.3 -3.4 -7.4 -10.4 -14.2 -16.4 -16 -5.1 -1.6 -16.4 -1.5 -21.6 0 -2.4 0.7 -6 3.1 -8.7 5.8 -6.5 6.3 -9 13.5 -9.7 27.3 -0.8 17.9 2.9 30.1 11.3 37.5 5.5 4.8 9 6 18.5 6.1 5.9 0.1 8.6 -0.4 12.6 -2.3z"/>
  <path d="M1568.5 527.9 c-21.2 -2.8 -40 -13.2 -46.9 -25.9 -5.1 -9.4 -2.4 -19.3 7.1 -25.1 2.8 -1.7 5.1 -2.3 9.7 -2.2 7.7 0 11.6 1.7 19.1 8.2 9.3 8 14.9 10.4 24.8 10.5 9.4 0 14.1 -1.8 15.8 -6.1 2.4 -6.4 -2.3 -10.2 -23.6 -18.8 -20.8 -8.5 -30.9 -14 -37.7 -20.6 -21.4 -20.9 -14.6 -54.1 13.7 -67.6 23.3 -11.1 56.1 -6.9 72 9.1 6.3 6.4 8.8 11.4 9.2 19.1 0.6 10.6 -5.7 17.5 -16 17.5 -6.4 0 -10.7 -2 -18.7 -8.5 -3.7 -3 -8.3 -6.2 -10.3 -7 -7.1 -3 -18.4 -1.3 -20.1 3 -0.3 0.9 -0.6 3 -0.6 4.5 0 4.4 4.3 7 26.6 16.3 30.2 12.5 38.3 17.7 43.9 27.8 2.9 5.2 3 5.9 3 17.9 0 12.3 -0.1 12.6 -3.6 20.1 -8.4 17.5 -25.4 27 -50.9 28.3 -5.2 0.2 -12.6 0 -16.5 -0.5z"/>
  <path d="M1234.8 525 c-4.9 -2.6 -9.4 -8.3 -10.7 -13.6 -1.5 -6 -1.5 -170.8 0 -176.8 3.1 -12.2 17 -18.9 28.4 -13.7 5.1 2.3 10.1 7.9 11.4 12.8 1.5 5.3 1.5 173.4 0 178.6 -1.3 4.6 -6.7 10.9 -11.3 13.1 -4.6 2.2 -13.2 2 -17.8 -0.4z"/>
  <path d="M1301.5 525.3 c-4.4 -2.3 -7.4 -5.3 -9.8 -9.8 -2.2 -4 -2.2 -4.5 -2.2 -63.5 l0 -59.5 2.5 -4.5 c6.7 -11.8 21.6 -14.5 31.7 -5.7 7.5 6.6 7.3 4.2 7.3 69.7 0 54.9 -0.2 58.7 -1.9 62.5 -2.2 4.7 -7.4 9.9 -11.4 11.4 -4.1 1.6 -12.7 1.3 -16.2 -0.6z"/>
  <path d="M1066.1 523.9 c-6 -1.2 -11.7 -5.3 -14.9 -10.8 l-2.7 -4.6 0 -82.5 0 -82.5 2.7 -4.6 c3.2 -5.4 8.6 -9.4 14.8 -10.8 6 -1.4 57.7 -1.4 67.7 0 32.5 4.4 53.8 26.9 53.6 56.4 -0.1 13.6 -4.8 25.9 -13.1 34.8 l-2.7 2.8 4.5 3.7 c22.6 18.3 28.9 42.7 17.1 66.7 -8.8 17.9 -25.8 28.8 -49 31.5 -10.4 1.2 -71.8 1.1 -78 -0.1z m74.2 -39 c8.2 -2.2 14.6 -11.1 14.7 -20.2 0 -8.4 -4 -15.1 -11.2 -18.8 -3.4 -1.7 -6.1 -1.9 -28.3 -1.9 l-24.5 0 0 21 0 21 22.8 0 c12.7 0 24.4 -0.5 26.5 -1.1z m-13.2 -78.9 c10 -1.9 15.9 -9 15.9 -19.1 0 -7.7 -3.2 -13.5 -9.5 -17.4 l-4.8 -3 -18.9 -0.3 -18.8 -0.4 0 20.6 0 20.6 15.4 0 c8.4 0 17.7 -0.5 20.7 -1z"/>
  <path d="M1300.5 360.1 c-11.5 -5.2 -15.8 -20.7 -9.4 -33.8 3 -6.1 8.4 -9.6 16 -10.1 8.8 -0.7 12.5 0.4 17.5 5 11.7 10.8 8.9 32.6 -5 38.9 -5.3 2.4 -13.9 2.4 -19.1 0z"/>
 </g>
 <g fill="#9a6938">
  <path d="M118.5 601 c0.3 -4.7 1 -19.1 1.5 -32 2.4 -55 8.2 -111.6 21 -205.3 2.2 -15.8 5.6 -41.5 7.5 -57 7.4 -58.8 13.2 -92.6 22.5 -129.5 11.2 -44.6 27.3 -75.7 43.2 -83.8 6.5 -3.3 14.9 -4.1 22 -2 11.4 3.3 21.1 18.1 27.2 41.3 4.2 15.8 5.1 18.1 8.4 21.6 3 3.2 4.8 3.3 18.8 1.2 31.4 -4.6 85.2 -4.6 110.3 0.1 11.3 2.1 29.9 7.8 39 12 24.4 11.3 49.4 34.8 61.1 57.6 2.8 5.3 5 10.1 5 10.7 0 0.5 -2.6 -0.2 -5.7 -1.7 -5.4 -2.5 -6.7 -2.7 -18.3 -2.6 -27.4 0.2 -53.8 9.4 -60.7 21.1 -3.5 5.9 -3.6 13.9 -0.4 20.1 4.5 8.7 18.6 19.8 31.2 24.6 l6 2.3 -4 5.1 c-11.3 14.2 -29.2 22.4 -44.6 20.3 -6.6 -0.9 -11 -3.4 -16.7 -9.2 -3.5 -3.6 -5.5 -4.9 -7.6 -4.9 -3.1 0 -8.2 3.9 -8.2 6.2 0 0.8 -3.4 2.2 -8.7 3.6 -34.7 8.9 -60.7 36.2 -78.8 82.7 -11.5 29.2 -20.8 70.2 -24.5 108.1 l-1.3 12.2 -10.1 0 c-17.7 0.1 -32.3 4.2 -48.1 13.7 -28 16.7 -44.5 40.9 -44.5 65.2 l0 7.3 -21.5 -0.3 -21.5 -0.2 0.5 -8.5z m71.9 -92.6 c2 -2 2 -5.3 0 -10.4 -1.8 -4.5 -5.3 -6.2 -8 -3.9 -2.3 1.9 -1.5 12.6 1.1 14.5 2.5 1.8 5 1.8 6.9 -0.2z m-19 -2.6 c1.9 -2.9 3 -9 2.1 -11.7 -1 -3.3 -4.3 -4.6 -6.4 -2.7 -1.9 1.7 -4.1 7.9 -4.1 11.4 0 4.8 5.9 6.9 8.4 3z m54.1 -68.5 c1.4 -1.3 1.6 -2.8 1.2 -6.9 -0.6 -6.2 -2.4 -9.4 -5.4 -9.4 -4.7 0 -6.3 4 -4.3 11.2 1.8 6.4 5.2 8.4 8.5 5.1z m-19.1 -6.1 c2.6 -9.2 -5.3 -16.8 -8.3 -8 -1.9 5.3 -1.4 10.5 1.1 12.2 1.9 1.3 2.5 1.4 4.3 0.2 1.1 -0.7 2.4 -2.7 2.9 -4.4z m-22.1 2.6 c1.6 -1.3 4.7 -8.7 4.7 -11.4 0 -0.7 -1 -1.8 -2.1 -2.5 -3 -1.6 -6.2 0.1 -8.2 4.4 -2.1 4.4 -2.1 7.1 -0.1 9.1 1.9 1.9 3.5 2 5.7 0.4z m9.7 -80.6 c1.8 -1.5 2.2 -2.8 2.1 -7.6 0 -7.2 -0.7 -9.3 -3.2 -10.6 -3.2 -1.8 -5.6 0.4 -6.8 6 -1.6 7.3 -1.4 8.8 1.4 11.5 2.9 3 3.6 3 6.5 0.7z m-19.1 -3.1 c1.8 -1.8 4.1 -9.8 4.1 -14.6 0 -5.2 -5.4 -7.2 -9 -3.3 -2 2.1 -5 10.4 -5 13.8 0 5.1 6.2 7.8 9.9 4.1z m139 -51 c8 -2.5 14.9 -7 21.2 -13.9 6.1 -6.7 9.5 -13.7 11.1 -23.1 1.5 -8.8 -0.6 -18.2 -5.7 -25.7 -11.5 -16.7 -38.1 -21.2 -60.5 -10.2 -8.3 4 -17.2 12.8 -20.8 20.5 -2.3 5 -2.7 7.1 -2.7 15.3 0 8.3 0.3 10.2 2.7 15 7.7 15.6 21.5 23.9 40 24 5.7 0 10.7 -0.6 14.7 -1.9z"/>
  <path d="M180.5 598.4 c2.9 -15.8 21.1 -35.4 41.8 -45.3 21.7 -10.3 46.9 -9.5 64.3 2.1 12.1 8.1 24.5 23 29.9 36.2 l1.6 3.9 -4.8 -0.7 c-2.6 -0.4 -8.4 -0.9 -12.8 -1.2 -13 -0.9 -12.1 -0.2 -12.8 -9.2 -0.2 -4.4 -1.2 -9.3 -2.1 -10.9 -2.5 -4.9 -9.2 -5.8 -13.1 -1.8 -2.3 2.2 -2.5 3.2 -2.5 11.5 l0 9 -14.7 0 c-8.2 0 -16.4 0.3 -18.4 0.6 l-3.6 0.6 -1.7 -7.8 c-1.9 -9 -2.8 -10.5 -7.2 -12.3 -4.1 -1.6 -8.6 0.4 -10.4 4.8 -1.1 2.8 -0.8 11.9 0.6 15.6 0.4 0.8 -2 1.6 -7.3 2.5 -4.3 0.7 -11.5 2.3 -16.1 3.6 -11.2 3.3 -11.6 3.2 -10.7 -1.2z"/>
  <path d="M413.4 595.4 c2 -14.2 6.5 -23.2 17.4 -34.6 8.4 -8.8 18.6 -14.7 28.9 -16.8 8.3 -1.8 23.4 -0.8 30.6 2 15.9 6 33.3 22.4 41.7 39 3.2 6.5 5.4 12.9 4.6 13.7 -0.3 0.3 -5.7 -0.1 -12.1 -0.8 l-11.5 -1.3 -0.1 -7.6 c0 -4.1 -0.5 -9.1 -1.2 -11 -1.6 -4.5 -5.5 -6.8 -9.4 -5.5 -4.2 1.5 -6.3 6.6 -6.3 15.3 l0 7.2 -14.5 0 -14.5 0 -0.6 -2.7 c-2.5 -11.3 -3.5 -14 -5.9 -16 -2.8 -2.4 -6.4 -2.9 -9.5 -1.3 -2.9 1.5 -4.1 6.7 -3.1 13.5 0.5 3.3 0.7 6.3 0.4 6.8 -0.2 0.4 -2.5 0.7 -5.1 0.7 -4.4 0 -19.2 2 -27.1 3.6 l-3.4 0.7 0.7 -4.9z"/>
  <path d="M489.7 310 c-4.8 -3.5 -10.6 -10.4 -9.6 -11.5 0.2 -0.1 3.8 -2.6 8 -5.4 8.3 -5.5 17.7 -15 20.9 -20.9 1.7 -3.4 1.9 -3.5 2 -1.2 0 5.5 -5.3 23.9 -9.7 33.2 -2.5 5.4 -4.9 9.8 -5.3 9.8 -0.4 0 -3.2 -1.8 -6.3 -4z"/>
 </g>
 <g fill="#498d34">
  <path d="M941.5 527.9 c-21.2 -2.8 -40 -13.2 -46.9 -25.9 -5.1 -9.4 -2.4 -19.3 7.1 -25.1 2.8 -1.7 5.1 -2.3 9.7 -2.2 7.7 0 11.6 1.7 19.1 8.2 9.3 8 14.9 10.4 24.8 10.5 9.4 0 14.1 -1.8 15.8 -6.1 2.4 -6.4 -2.3 -10.2 -23.6 -18.8 -20.8 -8.5 -30.9 -14 -37.7 -20.6 -21.4 -20.9 -14.6 -54.1 13.7 -67.6 23.3 -11.1 56.1 -6.9 72 9.1 6.3 6.4 8.8 11.4 9.2 19.1 0.6 10.6 -5.7 17.5 -16 17.5 -6.4 0 -10.7 -2 -18.7 -8.5 -3.7 -3 -8.3 -6.2 -10.3 -7 -7.1 -3 -18.4 -1.3 -20.1 3 -0.3 0.9 -0.6 3 -0.6 4.5 0 4.4 4.3 7 26.6 16.3 30.2 12.5 38.3 17.7 43.9 27.8 2.9 5.2 3 5.9 3 17.9 0 12.3 -0.1 12.6 -3.6 20.1 -8.4 17.5 -25.4 27 -50.9 28.3 -5.2 0.2 -12.6 0 -16.5 -0.5z"/>
  <path d="M564.5 525.7 c-4.3 -2 -10.2 -9 -11.5 -13.6 -0.7 -2.7 -1 -30.4 -0.8 -88.3 l0.3 -84.3 2.4 -4.2 c3.9 -6.8 9 -9.7 17.6 -10.1 7.8 -0.4 12.9 1.3 17.2 6 4.9 5.2 5.3 7.9 5.3 35.9 0 16.8 0.4 25.9 1 25.7 0.5 -0.2 15.4 -14 33.1 -30.8 17.7 -16.8 34.4 -31.8 37.1 -33.4 9.9 -5.8 22.3 -2.9 28.5 6.6 2.2 3.2 2.8 5.5 3.1 10.7 0.3 5.8 0 7.2 -2.5 11.2 -1.6 2.6 -13.2 14.5 -26.8 27.4 -13.5 12.7 -24 23.4 -23.9 24.3 0 1 13.1 21.1 29.1 44.7 15.9 23.7 29.5 44.5 30.2 46.4 1.7 5.3 1.3 9.3 -1.6 15.2 -3.9 7.6 -9.3 11.2 -17.7 11.7 -7.1 0.5 -12.1 -1.5 -16.7 -6.5 -1.5 -1.5 -14.5 -20.1 -28.9 -41.3 -14.4 -21.2 -26.6 -38.9 -27.1 -39.5 -0.6 -0.6 -3.9 2.1 -8.9 7 l-8 8 0 28.6 c0 28 0 28.7 -2.3 33 -1.3 2.4 -4.3 5.7 -6.6 7.4 -3.6 2.5 -5.3 3 -11.4 3.2 -4.5 0.2 -8.3 -0.2 -10.2 -1z"/>
  <path d="M733.5 525.3 c-4.4 -2.3 -7.4 -5.3 -9.8 -9.8 -2.2 -4 -2.2 -4.5 -2.2 -63.5 l0 -59.5 2.5 -4.5 c6.7 -11.8 21.6 -14.5 31.7 -5.7 7.5 6.6 7.3 4.2 7.3 69.7 0 54.9 -0.2 58.7 -1.9 62.5 -2.2 4.7 -7.4 9.9 -11.4 11.4 -4.1 1.6 -12.7 1.3 -16.2 -0.6z"/>
  <path d="M834 525.4 c-14.4 -3.9 -25.5 -15.6 -28.9 -30.5 -0.6 -2.5 -1.1 -20.1 -1.1 -41.5 l0 -37.1 -4.7 -0.7 c-15.8 -2.1 -22.8 -18.9 -12.5 -30 3.4 -3.6 8 -5.6 13.1 -5.6 l3.9 0 0.4 -8.9 c0.3 -8 0.6 -9.4 3.3 -13.3 4.3 -6.1 9.5 -8.8 17 -8.8 7.5 0 12.7 2.7 17 8.8 2.7 3.9 3 5.3 3.3 13.2 l0.4 8.9 16.2 0.3 c16.2 0.3 16.3 0.3 20 3.2 4.2 3.2 7.6 9.5 7.6 14.1 0 7.3 -6.5 15.4 -13.8 17.5 -2 0.5 -9.7 1 -16.9 1 l-13.3 0 0 32.8 c0 18 0.3 33.7 0.6 34.9 0.9 3.5 3.8 3.7 10.1 0.6 7.8 -3.7 14.3 -3.7 20.5 0 5.4 3.1 8.1 6.5 9.8 12.4 3.8 12.6 -5.4 24.3 -22.5 28.8 -7.4 1.9 -22.2 1.9 -29.5 -0.1z"/>
  <path d="M732.5 360.1 c-11.5 -5.2 -15.8 -20.7 -9.4 -33.8 3 -6.1 8.4 -9.6 16 -10.1 8.8 -0.7 12.5 0.4 17.5 5 11.7 10.8 8.9 32.6 -5 38.9 -5.3 2.4 -13.9 2.4 -19.1 0z"/>
 </g>
 <g fill="#ffffff">
  <path d="M521.3 612.3 l-7.3 -0.4 -0.2 -6.4 c-0.4 -13.4 -0.8 -12 3.7 -11.7 2.2 0.2 7.4 0.8 11.7 1.3 l7.6 1.1 1 4.2 c0.6 2.2 1.3 6 1.7 8.4 l0.7 4.2 -5.9 -0.2 c-3.2 -0.1 -9.1 -0.4 -13 -0.5z"/>
  <path d="M421.8 611.3 l-8.8 -0.4 0 -6.9 c0 -3.8 0.4 -7.1 0.8 -7.4 1.2 -0.7 21.1 -3.4 28.2 -3.8 l6.4 -0.3 1.3 7 c0.6 3.9 1.2 8.2 1.2 9.8 l0.1 2.7 -10.2 -0.2 c-5.7 -0.1 -14.2 -0.4 -19 -0.5z"/>
  <path d="M469 606.3 c-0.6 -3.2 -1.5 -7.7 -1.9 -10 l-0.9 -4.3 14.9 0 14.9 0 0 10 0 10 -12.9 0 -13 0 -1.1 -5.7z"/>
  <path d="M363.5 610 c-11 -0.3 -20.1 -0.7 -20.2 -0.8 -0.2 -0.1 -0.3 -2.1 -0.3 -4.5 0 -6.6 -3.7 -18.2 -9.1 -28.7 -14.7 -28.4 -38.6 -47.2 -65.5 -51.4 l-7.9 -1.2 0.3 -3.4 c4 -45.1 13.5 -89 26.3 -121.3 17.7 -44.5 43.4 -71.5 76.9 -80.7 10.4 -2.8 13 -2.7 13 0.5 0 9 12.4 20 26.6 23.5 2.8 0.7 4.4 1.8 5.2 3.5 1.7 3.8 9 11.3 15.5 16.2 l5.9 4.3 -2.9 1.1 c-1.5 0.6 -6.8 2.2 -11.8 3.6 -18.2 5.3 -18.5 5.6 -18.5 19.9 0 16.6 4 63 10.6 124 l3.8 34 -5.8 8.6 c-9.7 14.7 -13.6 27.5 -13.6 44.9 l0 8.9 -4.2 -0.2 c-2.4 -0.1 -13.3 -0.5 -24.3 -0.8z"/>
  <path d="M179.7 609.3 c-0.9 -0.8 -0.9 -5 -0.1 -8 0.7 -2.6 7.9 -5.2 21.9 -7.8 12.5 -2.4 12.7 -2.3 14.1 5.8 0.7 3.7 1.6 7.7 1.9 8.7 0.6 1.9 0.1 2 -18.3 2 -10.4 0 -19.2 -0.3 -19.5 -0.7z"/>
  <path d="M236.7 608.3 c-0.3 -0.5 -1.3 -4.5 -2.3 -9.1 -1.5 -7.2 -1.6 -8.5 -0.3 -9.3 0.8 -0.5 9.2 -0.9 18.7 -0.9 l17.2 0 0 4.8 c0 2.6 0.3 7.1 0.6 10 l0.7 5.2 -17.1 0 c-9.4 0 -17.3 -0.3 -17.5 -0.7z"/>
  <path d="M288.7 599.3 c-0.3 -5.4 -0.5 -9.9 -0.3 -10 0.3 -0.4 25 1.7 26.8 2.3 1.7 0.5 4 6.4 5.4 14 l0.6 3.4 -15.9 0 -16 0 -0.6 -9.7z"/>
 </g>
 <g fill="#6f4214">
  <path d="M446.7 353.9 c-2.1 -0.5 -5.2 -1.6 -7 -2.5 -4.4 -2.3 -12.9 -8.5 -12.3 -9.1 0.2 -0.3 4 -1.7 8.4 -3.2 9.5 -3.3 21.2 -11.1 28.7 -19.3 4.8 -5.1 5.5 -5.6 6.4 -4 0.8 1.5 7.1 6.9 13.6 11.7 1.9 1.4 1.7 1.7 -5.2 8.3 -7.7 7.5 -24.4 19.3 -27.1 19.1 -0.9 -0.1 -3.4 -0.5 -5.5 -1z"/>
  <path d="M385 131 c-3.6 -0.4 -17.2 -0.8 -30.2 -0.9 l-23.7 -0.1 1.3 -3.8 c5 -14.1 14.8 -26 25.7 -31.2 10.5 -4.9 17.2 -3.8 24.6 4.3 2.3 2.5 5.6 7.4 7.4 10.9 2.9 5.8 7.9 19 7.9 21 0 0.9 -3.4 0.8 -13 -0.2z"/>
 </g>
</svg>