<?xml version="1.0" standalone="no"?>
 <!DOCTYPE svg PUBLIC "-//W3C//DTD SVG 1.1//EN" 
 "http://www.w3.org/Graphics/SVG/1.1/DTD/svg11.dtd"> 
<svg
  xmlns:svg="http://www.w3.org/2000/svg"
  xmlns="http://www.w3.org/2000/svg"
  xmlns:xlink="http://www.w3.org/1999/xlink"
  version="1.1"
  width="20.0660mm" height="100.0760mm" viewBox="0.0000 0.0000 20.0660 100.0760">
<title>SVG Image created as noise-brd.svg date 2024/08/12 11:43:09 </title>
  <desc>Image generated by PCBNEW </desc>
<g style="fill:#000000; fill-opacity:1.0000;stroke:#000000; stroke-opacity:1.0000;
stroke-linecap:round; stroke-linejoin:round;"
 transform="translate(0 0) scale(1 1)">
<path style="fill:#D864FF; fill-opacity:0.4000; stroke:none;fill-rule:evenodd;"
d="M 10.6800,55.8700
11.2800,55.8700
11.2800,57.4200
10.6800,57.4200
Z" /> 
<path style="fill:#D864FF; fill-opacity:0.4000; stroke:none;fill-rule:evenodd;"
d="M 9.4100,55.8700
10.0100,55.8700
10.0100,57.4200
9.4100,57.4200
Z" /> 
<path style="fill:#D864FF; fill-opacity:0.4000; stroke:none;fill-rule:evenodd;"
d="M 8.1400,55.8700
8.7400,55.8700
8.7400,57.4200
8.1400,57.4200
Z" /> 
<path style="fill:#D864FF; fill-opacity:0.4000; stroke:none;fill-rule:evenodd;"
d="M 6.8700,55.8700
7.4700,55.8700
7.4700,57.4200
6.8700,57.4200
Z" /> 
<path style="fill:#D864FF; fill-opacity:0.4000; stroke:none;fill-rule:evenodd;"
d="M 6.8700,61.2700
7.4700,61.2700
7.4700,62.8200
6.8700,62.8200
Z" /> 
<path style="fill:#D864FF; fill-opacity:0.4000; stroke:none;fill-rule:evenodd;"
d="M 8.1400,61.2700
8.7400,61.2700
8.7400,62.8200
8.1400,62.8200
Z" /> 
<path style="fill:#D864FF; fill-opacity:0.4000; stroke:none;fill-rule:evenodd;"
d="M 9.4100,61.2700
10.0100,61.2700
10.0100,62.8200
9.4100,62.8200
Z" /> 
<path style="fill:#D864FF; fill-opacity:0.4000; stroke:none;fill-rule:evenodd;"
d="M 10.6800,61.2700
11.2800,61.2700
11.2800,62.8200
10.6800,62.8200
Z" /> 
<path style="fill:#D864FF; fill-opacity:0.4000; stroke:none;fill-rule:evenodd;"
d="M 8.0750,50.3650
7.0750,50.3650
7.0750,49.3650
8.0750,49.3650
Z" /> 
<path style="fill:#D864FF; fill-opacity:0.4000; stroke:none;fill-rule:evenodd;"
d="M 8.0750,52.0650
7.0750,52.0650
7.0750,51.0650
8.0750,51.0650
Z" /> 
<path style="fill:#D864FF; fill-opacity:0.4000; stroke:none;fill-rule:evenodd;"
d="M 5.0750,78.7750
4.0750,78.7750
4.0750,77.7750
5.0750,77.7750
Z" /> 
<path style="fill:#D864FF; fill-opacity:0.4000; stroke:none;fill-rule:evenodd;"
d="M 5.0750,80.4750
4.0750,80.4750
4.0750,79.4750
5.0750,79.4750
Z" /> 
<path style="fill:#D864FF; fill-opacity:0.4000; stroke:none;fill-rule:evenodd;"
d="M 4.8250,33.3450
5.8250,33.3450
5.8250,34.3450
4.8250,34.3450
Z" /> 
<path style="fill:#D864FF; fill-opacity:0.4000; stroke:none;fill-rule:evenodd;"
d="M 4.8250,31.6450
5.8250,31.6450
5.8250,32.6450
4.8250,32.6450
Z" /> 
<path style="fill:#D864FF; fill-opacity:0.4000; stroke:none;fill-rule:evenodd;"
d="M 3.7150,51.2450
3.7150,50.2450
4.7150,50.2450
4.7150,51.2450
Z" /> 
<path style="fill:#D864FF; fill-opacity:0.4000; stroke:none;fill-rule:evenodd;"
d="M 2.0150,51.2450
2.0150,50.2450
3.0150,50.2450
3.0150,51.2450
Z" /> 
<path style="fill:#D864FF; fill-opacity:0.4000; stroke:none;fill-rule:evenodd;"
d="M 16.0750,51.3150
17.0750,51.3150
17.0750,52.3150
16.0750,52.3150
Z" /> 
<path style="fill:#D864FF; fill-opacity:0.4000; stroke:none;fill-rule:evenodd;"
d="M 16.0750,49.6150
17.0750,49.6150
17.0750,50.6150
16.0750,50.6150
Z" /> 
<path style="fill:#D864FF; fill-opacity:0.4000; stroke:none;fill-rule:evenodd;"
d="M 11.5750,51.2350
12.5750,51.2350
12.5750,52.2350
11.5750,52.2350
Z" /> 
<path style="fill:#D864FF; fill-opacity:0.4000; stroke:none;fill-rule:evenodd;"
d="M 11.5750,49.5350
12.5750,49.5350
12.5750,50.5350
11.5750,50.5350
Z" /> 
<path style="fill:#D864FF; fill-opacity:0.4000; stroke:none;fill-rule:evenodd;"
d="M 15.2250,38.2150
15.2250,39.2150
14.2250,39.2150
14.2250,38.2150
Z" /> 
<path style="fill:#D864FF; fill-opacity:0.4000; stroke:none;fill-rule:evenodd;"
d="M 16.9250,38.2150
16.9250,39.2150
15.9250,39.2150
15.9250,38.2150
Z" /> 
</g>
<g style="fill:#D864FF; fill-opacity:0.4000; stroke:none;">
<circle cx="2.3250" cy="96.0950" r="0.8000" /> 
</g>
<g style="fill:#D864FF; fill-opacity:0.4000; stroke:none;">
<circle cx="12.3250" cy="96.0950" r="0.8000" /> 
</g>
<g style="fill:#D864FF; fill-opacity:0.4000; stroke:none;">
<circle cx="2.3250" cy="84.0950" r="0.8000" /> 
<circle cx="9.8250" cy="84.0950" r="0.8000" /> 
<path style="fill:#D864FF; fill-opacity:0.4000; stroke:none;fill-rule:evenodd;"
d="M 14.0350,17.8550
12.4350,17.8550
12.4350,16.2550
14.0350,16.2550
Z" /> 
</g>
<g style="fill:#D864FF; fill-opacity:0.4000; stroke:none;">
<circle cx="13.2350" cy="14.5550" r="0.8000" /> 
<path style="fill:#D864FF; fill-opacity:0.4000; stroke:none;fill-rule:evenodd;"
d="M 3.7750,8.8950
3.7750,7.2950
5.3750,7.2950
5.3750,8.8950
Z" /> 
</g>
<g style="fill:#D864FF; fill-opacity:0.4000; stroke:none;">
<circle cx="14.7350" cy="8.0950" r="0.8000" /> 
<path style="fill:#D864FF; fill-opacity:0.4000; stroke:none;fill-rule:evenodd;"
d="M 5.5250,11.6050
5.5250,10.0050
7.1250,10.0050
7.1250,11.6050
Z" /> 
<circle cx="16.4850" cy="10.8050" r="0.8000" /> 
<path style="fill:#D864FF; fill-opacity:0.4000; stroke:none;fill-rule:evenodd;"
d="M 0.7950,73.6250
0.7950,72.0650
2.3550,72.0650
2.3550,73.6250
Z" /> 
<circle cx="4.0750" cy="67.8450" r="0.7800" /> 
</g>
<g style="fill:#D864FF; fill-opacity:0.4000; stroke:none;">
<circle cx="6.5750" cy="72.8450" r="0.7800" /> 
</g>
<g style="fill:#D864FF; fill-opacity:0.4000; stroke:none;">
<circle cx="13.3250" cy="45.7150" r="0.8000" /> 
</g>
<g style="fill:#D864FF; fill-opacity:0.4000; stroke:none;">
<circle cx="3.3250" cy="45.7150" r="0.8000" /> 
<path style="fill:#D864FF; fill-opacity:0.4000; stroke:none;fill-rule:evenodd;"
d="M 14.0400,66.4000
14.0400,68.2300
12.1100,68.2300
12.1100,66.4000
Z" /> 
</g>
<g style="fill:#D864FF; fill-opacity:0.4000; stroke:none;">
<circle cx="13.0750" cy="78.7150" r="1.0650" /> 
</g>
<g style="fill:#D864FF; fill-opacity:0.4000; stroke:none;">
<circle cx="13.0750" cy="70.4150" r="1.0650" /> 
<path style="fill:#D864FF; fill-opacity:0.4000; stroke:none;fill-rule:evenodd;"
d="M 14.0400,21.9000
14.0400,23.7300
12.1100,23.7300
12.1100,21.9000
Z" /> 
</g>
<g style="fill:#D864FF; fill-opacity:0.4000; stroke:none;">
<circle cx="13.0750" cy="34.2150" r="1.0650" /> 
</g>
<g style="fill:#D864FF; fill-opacity:0.4000; stroke:none;">
<circle cx="13.0750" cy="25.9150" r="1.0650" /> 
<path style="fill:#D864FF; fill-opacity:0.4000; stroke:none;fill-rule:evenodd;"
d="M 4.9350,13.7550
6.5350,13.7550
6.5350,15.3550
4.9350,15.3550
Z" /> 
</g>
<g style="fill:#D864FF; fill-opacity:0.4000; stroke:none;">
<circle cx="5.7350" cy="17.0550" r="0.8000" /> 
</g>
<g style="fill:#D864FF; fill-opacity:0.4000; stroke:none;">
<circle cx="12.3250" cy="89.6950" r="0.8000" /> 
</g>
<g style="fill:#D864FF; fill-opacity:0.4000; stroke:none;">
<circle cx="2.3250" cy="89.6950" r="0.8000" /> 
<path style="fill:#D864FF; fill-opacity:0.4000; stroke:none;fill-rule:evenodd;"
d="M 6.4650,41.0100
4.9650,41.0100
4.9650,39.9600
6.4650,39.9600
Z" /> 
</g>
<g style="fill:none; 
stroke:#D864FF; stroke-width:1.0500; stroke-opacity:1; 
stroke-linecap:round; stroke-linejoin:round;">
<path d="M5.4900 39.2150
L5.9400 39.2150
" />
<path d="M5.4900 37.9450
L5.9400 37.9450
" />
</g>
<g style="fill:#D864FF; fill-opacity:0.4000; stroke:none;">
<circle cx="15.0750" cy="4.8850" r="0.8500" /> 
<circle cx="15.0750" cy="2.3450" r="0.8500" /> 
<circle cx="12.5350" cy="4.8850" r="0.8500" /> 
<circle cx="12.5350" cy="2.3450" r="0.8500" /> 
<circle cx="9.9950" cy="4.8850" r="0.8500" /> 
<circle cx="9.9950" cy="2.3450" r="0.8500" /> 
<circle cx="7.4550" cy="4.8850" r="0.8500" /> 
<circle cx="7.4550" cy="2.3450" r="0.8500" /> 
<circle cx="4.9150" cy="4.8850" r="0.8500" /> 
<circle cx="4.9150" cy="2.3450" r="0.8500" /> 
</g>
<g style="fill:none; 
stroke:#F2EDA1; stroke-width:0.1650; stroke-opacity:1; 
stroke-linecap:round; stroke-linejoin:round;">
<text x="3.8250" y="93.3450"
textLength="9.1968" font-size="0.8800" lengthAdjust="spacingAndGlyphs"
text-anchor="start" opacity="0" stroke-opacity="0">CC BY-SA 4.0 2024</text>
<g class="stroked-text"><desc>CC BY-SA 4.0 2024</desc>
<path style="fill:#F2EDA1; fill-opacity:1.0000; stroke:none;fill-rule:evenodd;"
d="M 4.1642,93.2431
4.1278,93.2418
4.0938,93.2379
4.0622,93.2315
4.0191,93.2169
3.9813,93.1966
3.9487,93.1704
3.9215,93.1384
3.8995,93.1005
3.8828,93.0569
3.8746,93.0245
3.8687,92.9896
3.8652,92.9521
3.8640,92.9120
3.8652,92.8739
3.8687,92.8380
3.8746,92.8043
3.8829,92.7729
3.8966,92.7366
3.9139,92.7039
3.9350,92.6745
3.9396,92.6691
3.9648,92.6442
3.9930,92.6236
4.0243,92.6072
4.0586,92.5950
4.0959,92.5870
4.1362,92.5832
4.1532,92.5828
4.1855,92.5842
4.2192,92.5888
4.2534,92.5979
4.2693,92.6040
4.3001,92.6205
4.3265,92.6433
4.3413,92.6638
4.2743,92.7303
4.2527,92.7043
4.2263,92.6845
4.2224,92.6823
4.1917,92.6702
4.1587,92.6654
4.1542,92.6654
4.1175,92.6684
4.0842,92.6774
4.0542,92.6925
4.0275,92.7136
4.0138,92.7284
3.9932,92.7585
3.9796,92.7884
3.9698,92.8219
3.9636,92.8593
3.9613,92.8932
3.9611,92.9075
3.9630,92.9527
3.9687,92.9935
3.9783,93.0298
3.9918,93.0617
4.0090,93.0892
4.0381,93.1188
4.0739,93.1406
4.1052,93.1517
4.1404,93.1584
4.1795,93.1606
4.2123,93.1589
4.2448,93.1538
4.2771,93.1453
4.3092,93.1333
4.3300,93.2126
4.2952,93.2245
4.2595,93.2335
4.2230,93.2395
4.1858,93.2426
Z" /> 
<path style="fill:#F2EDA1; fill-opacity:1.0000; stroke:none;fill-rule:evenodd;"
d="M 4.7052,93.2431
4.6688,93.2418
4.6348,93.2379
4.6031,93.2315
4.5601,93.2169
4.5222,93.1966
4.4897,93.1704
4.4624,93.1384
4.4405,93.1005
4.4238,93.0569
4.4155,93.0245
4.4097,92.9896
4.4062,92.9521
4.4050,92.9120
4.4062,92.8739
4.4097,92.8380
4.4156,92.8043
4.4239,92.7729
4.4376,92.7366
4.4549,92.7039
4.4760,92.6745
4.4806,92.6691
4.5058,92.6442
4.5340,92.6236
4.5653,92.6072
4.5995,92.5950
4.6369,92.5870
4.6772,92.5832
4.6942,92.5828
4.7265,92.5842
4.7602,92.5888
4.7944,92.5979
4.8103,92.6040
4.8411,92.6205
4.8675,92.6433
4.8823,92.6638
4.8153,92.7303
4.7937,92.7043
4.7673,92.6845
4.7633,92.6823
4.7327,92.6702
4.6997,92.6654
4.6952,92.6654
4.6585,92.6684
4.6252,92.6774
4.5952,92.6925
4.5685,92.7136
4.5548,92.7284
4.5342,92.7585
4.5206,92.7884
4.5107,92.8219
4.5046,92.8593
4.5022,92.8932
4.5020,92.9075
4.5040,92.9527
4.5097,92.9935
4.5193,93.0298
4.5328,93.0617
4.5500,93.0892
4.5790,93.1188
4.6149,93.1406
4.6462,93.1517
4.6814,93.1584
4.7205,93.1606
4.7532,93.1589
4.7858,93.1538
4.8181,93.1453
4.8502,93.1333
4.8710,93.2126
4.8361,93.2245
4.8005,93.2335
4.7640,93.2395
4.7268,93.2426
Z" /> 
<path style="fill:#F2EDA1; fill-opacity:1.0000; stroke:none;fill-rule:evenodd;"
d="M 5.6048,93.2328
5.6048,93.1477
5.7409,93.1477
5.7756,93.1450
5.8078,93.1357
5.8337,93.1198
5.8552,93.0935
5.8653,93.0626
5.8669,93.0418
5.8628,93.0091
5.8491,92.9797
5.8324,92.9620
5.8025,92.9447
5.7679,92.9359
5.7346,92.9336
5.6066,92.9336
5.5958,92.8928
5.7571,92.8928
5.7923,92.8943
5.8244,92.8988
5.8578,92.9078
5.8907,92.9230
5.9085,92.9352
5.9319,92.9586
5.9487,92.9864
5.9587,93.0185
5.9620,93.0550
5.9596,93.0903
5.9523,93.1219
5.9380,93.1535
5.9174,93.1804
5.9113,93.1864
5.8832,93.2067
5.8498,93.2212
5.8163,93.2291
5.7786,93.2326
5.7671,93.2328
Z" /> 
<path style="fill:#F2EDA1; fill-opacity:1.0000; stroke:none;fill-rule:evenodd;"
d="M 5.5205,93.2328
5.5205,92.5932
5.6113,92.5932
5.6113,93.2328
Z" /> 
<path style="fill:#F2EDA1; fill-opacity:1.0000; stroke:none;fill-rule:evenodd;"
d="M 5.5740,92.9144
5.5740,92.8709
5.7626,92.8709
5.7626,92.9144
Z" /> 
<path style="fill:#F2EDA1; fill-opacity:1.0000; stroke:none;fill-rule:evenodd;"
d="M 5.6048,92.8893
5.6048,92.8485
5.7136,92.8485
5.7462,92.8459
5.7776,92.8360
5.7933,92.8263
5.8136,92.8010
5.8215,92.7674
5.8216,92.7623
5.8159,92.7304
5.7954,92.7028
5.7918,92.7000
5.7610,92.6852
5.7270,92.6790
5.7073,92.6783
5.6066,92.6783
5.5958,92.5932
5.7118,92.5932
5.7470,92.5946
5.7790,92.5990
5.8124,92.6078
5.8454,92.6228
5.8632,92.6347
5.8866,92.6577
5.9050,92.6889
5.9142,92.7213
5.9167,92.7532
5.9127,92.7876
5.8988,92.8202
5.8750,92.8471
5.8660,92.8540
5.8340,92.8710
5.8000,92.8815
5.7659,92.8871
5.7333,92.8891
5.7218,92.8893
Z" /> 
<path style="fill:#F2EDA1; fill-opacity:1.0000; stroke:none;fill-rule:evenodd;"
d="M 6.2224,93.0192
6.0002,92.5932
6.1000,92.5932
6.2569,92.9130
6.2651,92.9130
6.4219,92.5932
6.5217,92.5932
6.2996,93.0192
Z" /> 
<path style="fill:#F2EDA1; fill-opacity:1.0000; stroke:none;fill-rule:evenodd;"
d="M 6.2156,93.2328
6.2156,92.9175
6.3064,92.9175
6.3064,93.2328
Z" /> 
<path style="fill:#F2EDA1; fill-opacity:1.0000; stroke:none;fill-rule:evenodd;"
d="M 6.5752,92.9568
6.5752,92.8717
7.0287,92.8717
7.0287,92.9568
Z" /> 
<path style="fill:#F2EDA1; fill-opacity:1.0000; stroke:none;fill-rule:evenodd;"
d="M 7.3208,93.2431
7.2871,93.2422
7.2548,93.2397
7.2209,93.2348
7.2179,93.2342
7.1860,93.2272
7.1529,93.2172
7.1294,93.2081
7.1412,93.1171
7.1720,93.1294
7.2051,93.1406
7.2374,93.1495
7.2692,93.1558
7.3031,93.1597
7.3280,93.1606
7.3611,93.1588
7.3945,93.1519
7.4222,93.1383
7.4444,93.1122
7.4529,93.0787
7.4531,93.0703
7.4474,93.0374
7.4277,93.0082
7.4013,92.9896
7.3941,92.9862
7.2826,92.9355
7.2517,92.9199
7.2215,92.9004
7.1961,92.8790
7.1818,92.8637
7.1633,92.8354
7.1516,92.8031
7.1470,92.7707
7.1467,92.7592
7.1491,92.7242
7.1578,92.6887
7.1729,92.6579
7.1943,92.6319
7.1975,92.6289
7.2255,92.6088
7.2588,92.5944
7.2922,92.5865
7.3297,92.5830
7.3411,92.5828
7.3764,92.5843
7.4093,92.5889
7.4430,92.5974
7.4557,92.6019
7.4866,92.6161
7.5167,92.6350
7.5432,92.6559
7.5519,92.6638
7.4884,92.7281
7.4617,92.7076
7.4339,92.6901
7.4140,92.6804
7.3830,92.6701
7.3510,92.6656
7.3416,92.6654
7.3095,92.6685
7.2777,92.6814
7.2692,92.6879
7.2501,92.7159
7.2438,92.7492
7.2437,92.7547
7.2496,92.7877
7.2605,92.8056
7.2860,92.8274
7.3098,92.8406
7.4041,92.8849
7.4339,92.9000
7.4638,92.9182
7.4922,92.9400
7.5129,92.9605
7.5326,92.9891
7.5449,93.0224
7.5498,93.0564
7.5502,93.0685
7.5475,93.1047
7.5393,93.1366
7.5233,93.1680
7.5002,93.1940
7.4933,93.1996
7.4656,93.2166
7.4323,93.2293
7.3992,93.2370
7.3621,93.2416
7.3280,93.2431
Z" /> 
<path style="fill:#F2EDA1; fill-opacity:1.0000; stroke:none;fill-rule:evenodd;"
d="M 7.6324,93.2328
7.8183,92.5932
7.9496,92.5932
8.1355,93.2328
8.0404,93.2328
7.8881,92.6707
7.8798,92.6707
7.7275,93.2328
Z" /> 
<path style="fill:#F2EDA1; fill-opacity:1.0000; stroke:none;fill-rule:evenodd;"
d="M 7.7185,93.0780
7.7185,92.9929
8.0449,92.9929
8.0449,93.0780
Z" /> 
<path style="fill:#F2EDA1; fill-opacity:1.0000; stroke:none;fill-rule:evenodd;"
d="M 8.7274,93.0884
8.8182,92.6294
8.9115,92.6294
8.8200,93.0884
Z" /> 
<path style="fill:#F2EDA1; fill-opacity:1.0000; stroke:none;fill-rule:evenodd;"
d="M 8.7274,93.0884
8.7909,93.0032
9.0584,93.0032
9.0584,93.0884
Z" /> 
<path style="fill:#F2EDA1; fill-opacity:1.0000; stroke:none;fill-rule:evenodd;"
d="M 9.1319,93.0884
9.1319,93.0032
9.2017,93.0032
9.2017,93.0884
Z" /> 
<path style="fill:#F2EDA1; fill-opacity:1.0000; stroke:none;fill-rule:evenodd;"
d="M 9.0493,93.2328
9.0493,92.5932
9.1409,92.5932
9.1409,93.2328
Z" /> 
<path style="fill:#F2EDA1; fill-opacity:1.0000; stroke:none;fill-rule:evenodd;"
d="M 9.5070,93.2431
9.4754,93.2354
9.4594,93.2234
9.4425,93.1956
9.4398,93.1761
9.4474,93.1443
9.4594,93.1285
9.4873,93.1117
9.5070,93.1090
9.5387,93.1166
9.5545,93.1285
9.5713,93.1562
9.5740,93.1761
9.5664,93.2075
9.5545,93.2234
9.5268,93.2404
Z" /> 
<path style="fill:#F2EDA1; fill-opacity:1.0000; stroke:none;fill-rule:evenodd;"
d="M 10.0802,92.8553
10.0973,92.8674
10.1132,92.8955
10.1158,92.9170
10.1093,92.9492
10.0973,92.9665
10.0693,92.9827
10.0480,92.9854
10.0159,92.9787
9.9986,92.9665
9.9826,92.9382
9.9799,92.9170
9.9865,92.8846
9.9986,92.8674
10.0268,92.8513
10.0480,92.8487
Z" /> 
<path style="fill:#F2EDA1; fill-opacity:1.0000; stroke:none;fill-rule:evenodd;"
d="M 10.0872,92.5858
10.1225,92.5946
10.1540,92.6093
10.1817,92.6299
10.2054,92.6564
10.2254,92.6887
10.2414,92.7270
10.2537,92.7711
10.2597,92.8038
10.2639,92.8391
10.2665,92.8770
10.2674,92.9175
10.2665,92.9569
10.2639,92.9938
10.2597,93.0282
10.2537,93.0600
10.2414,93.1029
10.2254,93.1401
10.2054,93.1716
10.1817,93.1973
10.1540,93.2174
10.1225,93.2317
10.0872,93.2403
10.0480,93.2431
10.0087,93.2403
9.9734,93.2317
9.9418,93.2174
9.9142,93.1973
9.8904,93.1716
9.8704,93.1401
9.8544,93.1029
9.8421,93.0600
9.8361,93.0282
9.8319,92.9938
9.8293,92.9569
9.8284,92.9175
9.9255,92.9175
9.9265,92.9609
9.9298,93.0001
9.9352,93.0350
9.9457,93.0749
9.9600,93.1072
9.9834,93.1368
10.0127,93.1546
10.0480,93.1606
10.0832,93.1546
10.1125,93.1368
10.1358,93.1072
10.1501,93.0749
10.1606,93.0350
10.1660,93.0001
10.1693,92.9609
10.1703,92.9175
10.1693,92.8724
10.1660,92.8318
10.1606,92.7956
10.1531,92.7639
10.1397,92.7284
10.1225,92.7008
10.0956,92.6774
10.0628,92.6664
10.0480,92.6654
10.0127,92.6715
9.9834,92.6900
9.9600,92.7208
9.9457,92.7543
9.9352,92.7956
9.9298,92.8318
9.9265,92.8724
9.9255,92.9175
9.8284,92.9175
9.8293,92.8770
9.8319,92.8391
9.8361,92.8038
9.8421,92.7711
9.8544,92.7270
9.8704,92.6887
9.8904,92.6564
9.9142,92.6299
9.9418,92.6093
9.9734,92.5946
10.0087,92.5858
10.0480,92.5828
Z" /> 
<path style="fill:#F2EDA1; fill-opacity:1.0000; stroke:none;fill-rule:evenodd;"
d="M 10.9268,93.2328
10.9268,93.1322
10.9629,93.1115
10.9967,93.0906
11.0281,93.0694
11.0571,93.0481
11.0838,93.0265
11.1081,93.0047
11.1351,92.9771
11.1496,92.9604
11.1708,92.9322
11.1885,92.9038
11.2049,92.8694
11.2161,92.8346
11.2221,92.7994
11.2233,92.7758
11.2201,92.7411
11.2092,92.7106
11.1960,92.6929
11.1668,92.6741
11.1333,92.6663
11.1135,92.6654
11.0807,92.6695
11.0492,92.6806
11.0368,92.6868
11.0085,92.7048
10.9834,92.7267
10.9684,92.7436
10.9059,92.6817
10.9280,92.6555
10.9552,92.6327
10.9841,92.6152
10.9947,92.6099
11.0276,92.5968
11.0613,92.5880
11.0959,92.5835
11.1154,92.5828
11.1518,92.5845
11.1846,92.5896
11.2184,92.5998
11.2472,92.6147
11.2679,92.6310
11.2901,92.6581
11.3059,92.6913
11.3146,92.7254
11.3181,92.7584
11.3186,92.7761
11.3164,92.8125
11.3099,92.8483
11.2990,92.8835
11.2837,92.9181
11.2677,92.9466
11.2567,92.9634
11.2357,92.9913
11.2117,93.0188
11.1844,93.0459
11.1604,93.0674
11.1343,93.0887
11.1062,93.1097
11.0761,93.1306
11.0682,93.1358
11.0682,93.2328
Z" /> 
<path style="fill:#F2EDA1; fill-opacity:1.0000; stroke:none;fill-rule:evenodd;"
d="M 10.9539,93.2328
10.9539,93.1477
11.3456,93.1477
11.3456,93.2328
Z" /> 
<path style="fill:#F2EDA1; fill-opacity:1.0000; stroke:none;fill-rule:evenodd;"
d="M 11.7032,92.8553
11.7203,92.8674
11.7362,92.8955
11.7388,92.9170
11.7323,92.9492
11.7203,92.9665
11.6923,92.9827
11.6709,92.9854
11.6389,92.9787
11.6216,92.9665
11.6055,92.9382
11.6029,92.9170
11.6095,92.8846
11.6216,92.8674
11.6497,92.8513
11.6709,92.8487
Z" /> 
<path style="fill:#F2EDA1; fill-opacity:1.0000; stroke:none;fill-rule:evenodd;"
d="M 11.7101,92.5858
11.7455,92.5946
11.7770,92.6093
11.8046,92.6299
11.8284,92.6564
11.8483,92.6887
11.8644,92.7270
11.8766,92.7711
11.8826,92.8038
11.8869,92.8391
11.8895,92.8770
11.8903,92.9175
11.8895,92.9569
11.8869,92.9938
11.8826,93.0282
11.8766,93.0600
11.8644,93.1029
11.8483,93.1401
11.8284,93.1716
11.8046,93.1973
11.7770,93.2174
11.7455,93.2317
11.7101,93.2403
11.6709,93.2431
11.6317,93.2403
11.5963,93.2317
11.5648,93.2174
11.5371,93.1973
11.5133,93.1716
11.4934,93.1401
11.4773,93.1029
11.4651,93.0600
11.4591,93.0282
11.4548,92.9938
11.4522,92.9569
11.4514,92.9175
11.5484,92.9175
11.5495,92.9609
11.5527,93.0001
11.5581,93.0350
11.5686,93.0749
11.5830,93.1072
11.6063,93.1368
11.6356,93.1546
11.6709,93.1606
11.7062,93.1546
11.7355,93.1368
11.7588,93.1072
11.7731,93.0749
11.7836,93.0350
11.7890,93.0001
11.7922,92.9609
11.7933,92.9175
11.7922,92.8724
11.7890,92.8318
11.7836,92.7956
11.7761,92.7639
11.7627,92.7284
11.7455,92.7008
11.7186,92.6774
11.6858,92.6664
11.6709,92.6654
11.6356,92.6715
11.6063,92.6900
11.5830,92.7208
11.5686,92.7543
11.5581,92.7956
11.5527,92.8318
11.5495,92.8724
11.5484,92.9175
11.4514,92.9175
11.4522,92.8770
11.4548,92.8391
11.4591,92.8038
11.4651,92.7711
11.4773,92.7270
11.4934,92.6887
11.5133,92.6564
11.5371,92.6299
11.5648,92.6093
11.5963,92.5946
11.6317,92.5858
11.6709,92.5828
Z" /> 
<path style="fill:#F2EDA1; fill-opacity:1.0000; stroke:none;fill-rule:evenodd;"
d="M 12.0088,93.2328
12.0088,93.1322
12.0449,93.1115
12.0787,93.0906
12.1100,93.0694
12.1391,93.0481
12.1657,93.0265
12.1900,93.0047
12.2171,92.9771
12.2316,92.9604
12.2528,92.9322
12.2704,92.9038
12.2868,92.8694
12.2981,92.8346
12.3041,92.7994
12.3053,92.7758
12.3020,92.7411
12.2912,92.7106
12.2780,92.6929
12.2488,92.6741
12.2152,92.6663
12.1955,92.6654
12.1627,92.6695
12.1312,92.6806
12.1188,92.6868
12.0905,92.7048
12.0654,92.7267
12.0504,92.7436
11.9879,92.6817
12.0100,92.6555
12.0372,92.6327
12.0661,92.6152
12.0767,92.6099
12.1096,92.5968
12.1433,92.5880
12.1779,92.5835
12.1974,92.5828
12.2338,92.5845
12.2666,92.5896
12.3003,92.5998
12.3291,92.6147
12.3499,92.6310
12.3721,92.6581
12.3879,92.6913
12.3965,92.7254
12.4001,92.7584
12.4005,92.7761
12.3984,92.8125
12.3918,92.8483
12.3809,92.8835
12.3657,92.9181
12.3497,92.9466
12.3386,92.9634
12.3177,92.9913
12.2936,93.0188
12.2664,93.0459
12.2423,93.0674
12.2163,93.0887
12.1882,93.1097
12.1580,93.1306
12.1502,93.1358
12.1502,93.2328
Z" /> 
<path style="fill:#F2EDA1; fill-opacity:1.0000; stroke:none;fill-rule:evenodd;"
d="M 12.0359,93.2328
12.0359,93.1477
12.4276,93.1477
12.4276,93.2328
Z" /> 
<path style="fill:#F2EDA1; fill-opacity:1.0000; stroke:none;fill-rule:evenodd;"
d="M 12.5143,93.0884
12.6051,92.6294
12.6984,92.6294
12.6069,93.0884
Z" /> 
<path style="fill:#F2EDA1; fill-opacity:1.0000; stroke:none;fill-rule:evenodd;"
d="M 12.5143,93.0884
12.5779,93.0032
12.8453,93.0032
12.8453,93.0884
Z" /> 
<path style="fill:#F2EDA1; fill-opacity:1.0000; stroke:none;fill-rule:evenodd;"
d="M 12.9188,93.0884
12.9188,93.0032
12.9886,93.0032
12.9886,93.0884
Z" /> 
<path style="fill:#F2EDA1; fill-opacity:1.0000; stroke:none;fill-rule:evenodd;"
d="M 12.8363,93.2328
12.8363,92.5932
12.9278,92.5932
12.9278,93.2328
Z" /> 
</g></g>
<g style="fill:none; 
stroke:#F2EDA1; stroke-width:0.1000; stroke-opacity:1; 
stroke-linecap:round; stroke-linejoin:round;">
<text x="8.8250" y="77.0950"
textLength="8.3686" font-size="1.0667" lengthAdjust="spacingAndGlyphs"
text-anchor="start" opacity="0" stroke-opacity="0">JLCJLCJLCJLC</text>
<g class="stroked-text"><desc>JLCJLCJLCJLC</desc>
<path d="M9.3098 76.1919
L9.3098 76.7633
" />
<path d="M9.3098 76.7633
L9.2717 76.8776
" />
<path d="M9.2717 76.8776
L9.1955 76.9538
" />
<path d="M9.1955 76.9538
L9.0813 76.9919
" />
<path d="M9.0813 76.9919
L9.0051 76.9919
" />
<path d="M10.0717 76.9919
L9.6908 76.9919
" />
<path d="M9.6908 76.9919
L9.6908 76.1919
" />
<path d="M10.7956 76.9157
L10.7575 76.9538
" />
<path d="M10.7575 76.9538
L10.6432 76.9919
" />
<path d="M10.6432 76.9919
L10.5670 76.9919
" />
<path d="M10.5670 76.9919
L10.4527 76.9538
" />
<path d="M10.4527 76.9538
L10.3765 76.8776
" />
<path d="M10.3765 76.8776
L10.3384 76.8014
" />
<path d="M10.3384 76.8014
L10.3003 76.6490
" />
<path d="M10.3003 76.6490
L10.3003 76.5348
" />
<path d="M10.3003 76.5348
L10.3384 76.3824
" />
<path d="M10.3384 76.3824
L10.3765 76.3062
" />
<path d="M10.3765 76.3062
L10.4527 76.2300
" />
<path d="M10.4527 76.2300
L10.5670 76.1919
" />
<path d="M10.5670 76.1919
L10.6432 76.1919
" />
<path d="M10.6432 76.1919
L10.7575 76.2300
" />
<path d="M10.7575 76.2300
L10.7956 76.2681
" />
<path d="M11.3670 76.1919
L11.3670 76.7633
" />
<path d="M11.3670 76.7633
L11.3289 76.8776
" />
<path d="M11.3289 76.8776
L11.2527 76.9538
" />
<path d="M11.2527 76.9538
L11.1384 76.9919
" />
<path d="M11.1384 76.9919
L11.0622 76.9919
" />
<path d="M12.1289 76.9919
L11.7479 76.9919
" />
<path d="M11.7479 76.9919
L11.7479 76.1919
" />
<path d="M12.8527 76.9157
L12.8146 76.9538
" />
<path d="M12.8146 76.9538
L12.7003 76.9919
" />
<path d="M12.7003 76.9919
L12.6241 76.9919
" />
<path d="M12.6241 76.9919
L12.5098 76.9538
" />
<path d="M12.5098 76.9538
L12.4336 76.8776
" />
<path d="M12.4336 76.8776
L12.3956 76.8014
" />
<path d="M12.3956 76.8014
L12.3575 76.6490
" />
<path d="M12.3575 76.6490
L12.3575 76.5348
" />
<path d="M12.3575 76.5348
L12.3956 76.3824
" />
<path d="M12.3956 76.3824
L12.4336 76.3062
" />
<path d="M12.4336 76.3062
L12.5098 76.2300
" />
<path d="M12.5098 76.2300
L12.6241 76.1919
" />
<path d="M12.6241 76.1919
L12.7003 76.1919
" />
<path d="M12.7003 76.1919
L12.8146 76.2300
" />
<path d="M12.8146 76.2300
L12.8527 76.2681
" />
<path d="M13.4241 76.1919
L13.4241 76.7633
" />
<path d="M13.4241 76.7633
L13.3860 76.8776
" />
<path d="M13.3860 76.8776
L13.3098 76.9538
" />
<path d="M13.3098 76.9538
L13.1956 76.9919
" />
<path d="M13.1956 76.9919
L13.1194 76.9919
" />
<path d="M14.1860 76.9919
L13.8051 76.9919
" />
<path d="M13.8051 76.9919
L13.8051 76.1919
" />
<path d="M14.9098 76.9157
L14.8717 76.9538
" />
<path d="M14.8717 76.9538
L14.7575 76.9919
" />
<path d="M14.7575 76.9919
L14.6813 76.9919
" />
<path d="M14.6813 76.9919
L14.5670 76.9538
" />
<path d="M14.5670 76.9538
L14.4908 76.8776
" />
<path d="M14.4908 76.8776
L14.4527 76.8014
" />
<path d="M14.4527 76.8014
L14.4146 76.6490
" />
<path d="M14.4146 76.6490
L14.4146 76.5348
" />
<path d="M14.4146 76.5348
L14.4527 76.3824
" />
<path d="M14.4527 76.3824
L14.4908 76.3062
" />
<path d="M14.4908 76.3062
L14.5670 76.2300
" />
<path d="M14.5670 76.2300
L14.6813 76.1919
" />
<path d="M14.6813 76.1919
L14.7575 76.1919
" />
<path d="M14.7575 76.1919
L14.8717 76.2300
" />
<path d="M14.8717 76.2300
L14.9098 76.2681
" />
<path d="M15.4813 76.1919
L15.4813 76.7633
" />
<path d="M15.4813 76.7633
L15.4432 76.8776
" />
<path d="M15.4432 76.8776
L15.3670 76.9538
" />
<path d="M15.3670 76.9538
L15.2527 76.9919
" />
<path d="M15.2527 76.9919
L15.1765 76.9919
" />
<path d="M16.2432 76.9919
L15.8622 76.9919
" />
<path d="M15.8622 76.9919
L15.8622 76.1919
" />
<path d="M16.9670 76.9157
L16.9289 76.9538
" />
<path d="M16.9289 76.9538
L16.8146 76.9919
" />
<path d="M16.8146 76.9919
L16.7384 76.9919
" />
<path d="M16.7384 76.9919
L16.6241 76.9538
" />
<path d="M16.6241 76.9538
L16.5479 76.8776
" />
<path d="M16.5479 76.8776
L16.5098 76.8014
" />
<path d="M16.5098 76.8014
L16.4717 76.6490
" />
<path d="M16.4717 76.6490
L16.4717 76.5348
" />
<path d="M16.4717 76.5348
L16.5098 76.3824
" />
<path d="M16.5098 76.3824
L16.5479 76.3062
" />
<path d="M16.5479 76.3062
L16.6241 76.2300
" />
<path d="M16.6241 76.2300
L16.7384 76.1919
" />
<path d="M16.7384 76.1919
L16.8146 76.1919
" />
<path d="M16.8146 76.1919
L16.9289 76.2300
" />
<path d="M16.9289 76.2300
L16.9670 76.2681
" />
</g></g>
<g style="fill:none; 
stroke:#F2EDA1; stroke-width:0.1650; stroke-opacity:1; 
stroke-linecap:round; stroke-linejoin:round;">
<text x="3.5750" y="87.3450"
textLength="9.7378" font-size="0.8800" lengthAdjust="spacingAndGlyphs"
text-anchor="start" opacity="0" stroke-opacity="0">https://alloyed.me</text>
<g class="stroked-text"><desc>https://alloyed.me</desc>
<path style="fill:#F2EDA1; fill-opacity:1.0000; stroke:none;fill-rule:evenodd;"
d="M 3.9467,87.2328
3.9467,86.9164
3.9430,86.8823
3.9293,86.8517
3.9240,86.8451
3.8969,86.8264
3.8632,86.8202
3.8606,86.8201
3.8280,86.8235
3.7961,86.8366
3.7722,86.8595
3.7563,86.8922
3.7491,86.9269
3.7473,86.9596
3.7191,86.8348
3.7563,86.8348
3.7632,86.8016
3.7793,86.7735
3.7917,86.7618
3.8219,86.7461
3.8550,86.7391
3.8834,86.7376
3.9193,86.7405
3.9509,86.7493
3.9813,86.7661
4.0012,86.7843
4.0214,86.8137
4.0338,86.8449
4.0410,86.8809
4.0430,86.9164
4.0430,87.2328
Z" /> 
<path style="fill:#F2EDA1; fill-opacity:1.0000; stroke:none;fill-rule:evenodd;"
d="M 3.6512,87.2328
3.6512,86.5519
3.7473,86.5519
3.7473,87.2328
Z" /> 
<path style="fill:#F2EDA1; fill-opacity:1.0000; stroke:none;fill-rule:evenodd;"
d="M 4.4751,87.2431
4.4425,87.2420
4.4071,87.2377
4.3713,87.2287
4.3413,87.2153
4.3170,87.1975
4.2957,87.1712
4.2805,87.1380
4.2722,87.1034
4.2687,87.0695
4.2683,87.0511
4.2683,86.9689
4.3644,86.9689
4.3644,87.0473
4.3671,87.0805
4.3776,87.1122
4.3923,87.1317
4.4209,87.1487
4.4544,87.1564
4.4842,87.1580
4.5165,87.1569
4.5320,87.1556
4.5648,87.1520
4.5902,87.1490
4.6010,87.2323
4.5678,87.2373
4.5391,87.2404
4.5061,87.2425
Z" /> 
<path style="fill:#F2EDA1; fill-opacity:1.0000; stroke:none;fill-rule:evenodd;"
d="M 4.2683,87.0058
4.2683,86.6035
4.3644,86.6035
4.3644,87.0058
Z" /> 
<path style="fill:#F2EDA1; fill-opacity:1.0000; stroke:none;fill-rule:evenodd;"
d="M 4.1477,86.8279
4.1477,86.7479
4.5830,86.7479
4.5830,86.8279
Z" /> 
<path style="fill:#F2EDA1; fill-opacity:1.0000; stroke:none;fill-rule:evenodd;"
d="M 5.0161,87.2431
4.9835,87.2420
4.9481,87.2377
4.9123,87.2287
4.8823,87.2153
4.8580,87.1975
4.8367,87.1712
4.8215,87.1380
4.8132,87.1034
4.8097,87.0695
4.8093,87.0511
4.8093,86.9689
4.9054,86.9689
4.9054,87.0473
4.9081,87.0805
4.9186,87.1122
4.9333,87.1317
4.9619,87.1487
4.9954,87.1564
5.0252,87.1580
5.0575,87.1569
5.0730,87.1556
5.1058,87.1520
5.1312,87.1490
5.1420,87.2323
5.1088,87.2373
5.0801,87.2404
5.0471,87.2425
Z" /> 
<path style="fill:#F2EDA1; fill-opacity:1.0000; stroke:none;fill-rule:evenodd;"
d="M 4.8093,87.0058
4.8093,86.6035
4.9054,86.6035
4.9054,87.0058
Z" /> 
<path style="fill:#F2EDA1; fill-opacity:1.0000; stroke:none;fill-rule:evenodd;"
d="M 4.6887,86.8279
4.6887,86.7479
5.1240,86.7479
5.1240,86.8279
Z" /> 
<path style="fill:#F2EDA1; fill-opacity:1.0000; stroke:none;fill-rule:evenodd;"
d="M 5.2742,87.4391
5.2742,86.7479
5.3613,86.7479
5.3703,86.8498
5.3703,87.4391
Z" /> 
<path style="fill:#F2EDA1; fill-opacity:1.0000; stroke:none;fill-rule:evenodd;"
d="M 5.5067,87.2431
5.4742,87.2406
5.4408,87.2310
5.4175,87.2175
5.3950,87.1932
5.3820,87.1623
5.3793,87.1458
5.3376,87.1458
5.3703,87.0070
5.3721,87.0424
5.3785,87.0769
5.3911,87.1084
5.3995,87.1216
5.4229,87.1438
5.4527,87.1568
5.4854,87.1606
5.5189,87.1565
5.5494,87.1426
5.5732,87.1188
5.5890,87.0887
5.5983,87.0550
5.6025,87.0196
5.6032,86.9950
5.6018,86.9592
5.5966,86.9232
5.5864,86.8890
5.5732,86.8643
5.5494,86.8391
5.5189,86.8244
5.4854,86.8201
5.4527,86.8240
5.4229,86.8370
5.3995,86.8593
5.3829,86.8904
5.3744,86.9223
5.3707,86.9555
5.3703,86.9738
5.3376,86.8350
5.3748,86.8350
5.3835,86.8034
5.4019,86.7756
5.4157,86.7634
5.4449,86.7477
5.4768,86.7396
5.5067,86.7376
5.5406,86.7399
5.5760,86.7484
5.6071,86.7631
5.6337,86.7841
5.6500,86.8029
5.6689,86.8344
5.6814,86.8661
5.6905,86.9021
5.6955,86.9354
5.6981,86.9718
5.6985,86.9950
5.6973,87.0318
5.6938,87.0656
5.6864,87.1024
5.6756,87.1351
5.6586,87.1679
5.6500,87.1802
5.6265,87.2047
5.5987,87.2232
5.5664,87.2357
5.5296,87.2421
Z" /> 
<path style="fill:#F2EDA1; fill-opacity:1.0000; stroke:none;fill-rule:evenodd;"
d="M 5.9738,87.2431
5.9413,87.2428
5.9090,87.2417
5.8805,87.2399
5.8479,87.2364
5.8158,87.2310
5.8097,87.2297
5.8205,87.1435
5.8547,87.1484
5.8882,87.1527
5.9047,87.1545
5.9380,87.1570
5.9718,87.1580
5.9738,87.1580
6.0078,87.1571
6.0401,87.1538
6.0732,87.1457
6.0797,87.1430
6.1054,87.1220
6.1126,87.0951
6.1024,87.0636
6.1010,87.0622
6.0712,87.0471
6.0654,87.0455
5.9548,87.0170
5.9215,87.0072
5.8898,86.9950
5.8591,86.9781
5.8502,86.9715
5.8287,86.9449
5.8186,86.9121
5.8170,86.8893
5.8199,86.8564
5.8303,86.8240
5.8482,86.7972
5.8737,86.7758
5.8774,86.7735
5.9075,86.7595
5.9389,86.7503
5.9755,86.7435
6.0100,86.7398
6.0480,86.7379
6.0726,86.7376
6.1064,86.7381
6.1378,86.7397
6.1702,86.7426
6.1997,86.7466
6.1897,86.8290
6.1571,86.8262
6.1247,86.8242
6.0919,86.8229
6.0699,86.8227
6.0368,86.8234
6.0041,86.8259
5.9710,86.8316
5.9530,86.8372
5.9258,86.8563
5.9168,86.8846
5.9307,86.9146
5.9316,86.9152
5.9613,86.9279
5.9774,86.9325
6.0663,86.9546
6.0975,86.9632
6.1283,86.9745
6.1598,86.9909
6.1771,87.0037
6.1985,87.0308
6.2095,87.0625
6.2122,87.0934
6.2095,87.1257
6.1998,87.1575
6.1803,87.1870
6.1555,87.2075
6.1229,87.2231
6.0874,87.2331
6.0517,87.2389
6.0183,87.2419
5.9816,87.2431
Z" /> 
<path style="fill:#F2EDA1; fill-opacity:1.0000; stroke:none;fill-rule:evenodd;"
d="M 6.6019,86.8717
6.5703,86.8640
6.5543,86.8520
6.5374,86.8242
6.5346,86.8047
6.5423,86.7729
6.5543,86.7571
6.5822,86.7403
6.6019,86.7376
6.6336,86.7452
6.6494,86.7571
6.6662,86.7848
6.6689,86.8047
6.6613,86.8361
6.6494,86.8520
6.6217,86.8689
Z" /> 
<path style="fill:#F2EDA1; fill-opacity:1.0000; stroke:none;fill-rule:evenodd;"
d="M 6.6019,87.2431
6.5703,87.2354
6.5543,87.2234
6.5374,87.1956
6.5346,87.1761
6.5423,87.1443
6.5543,87.1285
6.5822,87.1117
6.6019,87.1090
6.6336,87.1166
6.6494,87.1285
6.6662,87.1562
6.6689,87.1761
6.6613,87.2075
6.6494,87.2234
6.6217,87.2404
Z" /> 
<path style="fill:#F2EDA1; fill-opacity:1.0000; stroke:none;fill-rule:evenodd;"
d="M 7.2747,87.3179
7.6392,86.5029
7.7353,86.5029
7.3708,87.3179
Z" /> 
<path style="fill:#F2EDA1; fill-opacity:1.0000; stroke:none;fill-rule:evenodd;"
d="M 6.8395,87.3179
7.2039,86.5029
7.3000,86.5029
6.9355,87.3179
Z" /> 
<path style="fill:#F2EDA1; fill-opacity:1.0000; stroke:none;fill-rule:evenodd;"
d="M 8.2738,87.2373
8.2674,87.0929
8.2548,87.0518
8.2548,86.9236
8.2500,86.8902
8.2325,86.8607
8.2210,86.8511
8.1910,86.8367
8.1589,86.8292
8.1247,86.8261
8.1205,86.8259
8.0054,86.8227
8.0145,86.7376
8.1115,86.7390
8.1472,86.7408
8.1800,86.7450
8.2153,86.7531
8.2463,86.7647
8.2771,86.7826
8.2885,86.7918
8.3110,86.8162
8.3281,86.8451
8.3395,86.8785
8.3450,86.9106
8.3464,86.9399
8.3464,87.1451
8.4279,87.1551
8.4279,87.2328
Z" /> 
<path style="fill:#F2EDA1; fill-opacity:1.0000; stroke:none;fill-rule:evenodd;"
d="M 8.1042,87.2431
8.0687,87.2408
8.0339,87.2327
8.0044,87.2186
7.9877,87.2060
7.9659,87.1799
7.9522,87.1477
7.9468,87.1136
7.9464,87.1011
7.9492,87.0688
7.9589,87.0360
7.9758,87.0078
7.9998,86.9841
8.0033,86.9815
8.0347,86.9632
8.0670,86.9515
8.1037,86.9438
8.1388,86.9404
8.1640,86.9397
8.1975,86.9406
8.2300,86.9435
8.2408,86.9451
8.2727,86.9515
8.3009,86.9607
8.2811,87.0261
8.2491,87.0205
8.2216,87.0182
8.1885,87.0173
8.1623,87.0171
8.1262,87.0191
8.0911,87.0265
8.0611,87.0423
8.0416,87.0696
8.0372,87.0966
8.0440,87.1291
8.0586,87.1478
8.0885,87.1623
8.1196,87.1657
8.1537,87.1631
8.1849,87.1544
8.1947,87.1498
8.2224,87.1304
8.2398,87.1092
8.2523,87.0792
8.2548,87.0581
8.2548,87.0037
8.2829,87.1300
8.2448,87.1300
8.2601,87.1151
8.2569,87.1475
8.2453,87.1790
8.2408,87.1864
8.2176,87.2113
8.1888,87.2282
8.1866,87.2291
8.1537,87.2387
8.1216,87.2426
Z" /> 
<path style="fill:#F2EDA1; fill-opacity:1.0000; stroke:none;fill-rule:evenodd;"
d="M 8.7876,87.2431
8.7533,87.2409
8.7195,87.2331
8.6883,87.2175
8.6668,87.1977
8.6489,87.1678
8.6379,87.1339
8.6321,87.0987
8.6299,87.0644
8.6298,87.0521
8.6298,86.5519
8.7258,86.5519
8.7258,87.0487
8.7274,87.0814
8.7331,87.1111
8.7507,87.1393
8.7615,87.1467
8.7936,87.1561
8.8238,87.1580
8.8578,87.1552
8.8920,87.1483
8.9199,87.1408
8.9309,87.2243
8.8993,87.2318
8.8666,87.2377
8.8603,87.2386
8.8275,87.2418
8.7948,87.2431
Z" /> 
<path style="fill:#F2EDA1; fill-opacity:1.0000; stroke:none;fill-rule:evenodd;"
d="M 8.4884,86.6318
8.4884,86.5519
8.6380,86.5519
8.6380,86.6318
Z" /> 
<path style="fill:#F2EDA1; fill-opacity:1.0000; stroke:none;fill-rule:evenodd;"
d="M 9.3286,87.2431
9.2942,87.2409
9.2604,87.2331
9.2293,87.2175
9.2078,87.1977
9.1899,87.1678
9.1789,87.1339
9.1731,87.0987
9.1709,87.0644
9.1707,87.0521
9.1707,86.5519
9.2668,86.5519
9.2668,87.0487
9.2684,87.0814
9.2741,87.1111
9.2917,87.1393
9.3024,87.1467
9.3346,87.1561
9.3648,87.1580
9.3988,87.1552
9.4330,87.1483
9.4609,87.1408
9.4719,87.2243
9.4403,87.2318
9.4076,87.2377
9.4013,87.2386
9.3685,87.2418
9.3358,87.2431
Z" /> 
<path style="fill:#F2EDA1; fill-opacity:1.0000; stroke:none;fill-rule:evenodd;"
d="M 9.0294,86.6318
9.0294,86.5519
9.1790,86.5519
9.1790,86.6318
Z" /> 
<path style="fill:#F2EDA1; fill-opacity:1.0000; stroke:none;fill-rule:evenodd;"
d="M 9.8339,86.7399
9.8667,86.7469
9.9010,86.7608
9.9310,86.7811
9.9532,86.8035
9.9719,86.8302
9.9868,86.8607
9.9978,86.8951
10.0049,86.9333
10.0079,86.9682
10.0083,86.9904
10.0070,87.0267
10.0030,87.0603
9.9946,87.0972
9.9823,87.1303
9.9661,87.1596
9.9532,87.1770
9.9269,87.2028
9.8964,87.2222
9.8615,87.2353
9.8282,87.2415
9.7980,87.2431
9.7621,87.2408
9.7294,87.2338
9.6952,87.2198
9.6652,87.1995
9.6429,87.1770
9.6241,87.1503
9.6092,87.1197
9.5982,87.0854
9.5911,87.0472
9.5881,87.0125
9.5876,86.9904
9.6872,86.9904
9.6886,87.0237
9.6935,87.0575
9.7034,87.0901
9.7159,87.1143
9.7386,87.1392
9.7700,87.1545
9.7980,87.1580
9.8316,87.1528
9.8616,87.1354
9.8797,87.1143
9.8949,87.0834
9.9038,87.0495
9.9079,87.0145
9.9086,86.9904
9.9072,86.9569
9.9022,86.9229
9.8923,86.8903
9.8797,86.8662
9.8571,86.8414
9.8259,86.8261
9.7980,86.8227
9.7643,86.8278
9.7341,86.8452
9.7159,86.8662
9.7008,86.8971
9.6920,86.9310
9.6879,86.9661
9.6872,86.9904
9.5876,86.9904
9.5890,86.9539
9.5930,86.9202
9.6014,86.8832
9.6137,86.8501
9.6299,86.8209
9.6429,86.8035
9.6692,86.7778
9.6998,86.7585
9.7346,86.7454
9.7679,86.7392
9.7980,86.7376
Z" /> 
<path style="fill:#F2EDA1; fill-opacity:1.0000; stroke:none;fill-rule:evenodd;"
d="M 10.1009,87.4469
10.0964,87.3618
10.1716,87.3527
10.2054,87.3463
10.2375,87.3349
10.2529,87.3268
10.2788,87.3073
10.3014,87.2815
10.3108,87.2675
10.3266,87.2375
10.3398,87.2053
10.3507,87.1723
10.3530,87.1645
10.4726,86.7479
10.5724,86.7479
10.4336,87.1864
10.4232,87.2175
10.4105,87.2509
10.3971,87.2810
10.3810,87.3115
10.3727,87.3252
10.3527,87.3527
10.3283,87.3784
10.3014,87.3990
10.2929,87.4042
10.2623,87.4188
10.2282,87.4297
10.1944,87.4363
10.1824,87.4378
Z" /> 
<path style="fill:#F2EDA1; fill-opacity:1.0000; stroke:none;fill-rule:evenodd;"
d="M 10.2832,87.2328
10.0918,86.7479
10.1915,86.7479
10.3485,87.1606
10.3630,87.1606
10.3630,87.2328
Z" /> 
<path style="fill:#F2EDA1; fill-opacity:1.0000; stroke:none;fill-rule:evenodd;"
d="M 10.9261,87.2431
10.8890,87.2415
10.8547,87.2367
10.8232,87.2287
10.7889,87.2149
10.7586,87.1965
10.7363,87.1777
10.7136,87.1511
10.6957,87.1204
10.6824,87.0858
10.6749,87.0539
10.6706,87.0192
10.6696,86.9894
10.6710,86.9534
10.6751,86.9199
10.6837,86.8833
10.6963,86.8504
10.7129,86.8212
10.7262,86.8038
10.7532,86.7780
10.7847,86.7586
10.8153,86.7469
10.8491,86.7399
10.8862,86.7376
10.9213,86.7397
10.9531,86.7459
10.9864,86.7583
11.0155,86.7764
11.0370,86.7964
11.0578,86.8247
11.0734,86.8581
11.0828,86.8908
11.0884,86.9273
11.0903,86.9605
11.0903,86.9675
11.0895,87.0013
11.0876,87.0290
10.7502,87.0290
10.7502,86.9542
11.0033,86.9542
11.0008,86.9209
10.9924,86.8892
10.9761,86.8611
10.9723,86.8567
10.9459,86.8360
10.9129,86.8248
10.8872,86.8227
10.8549,86.8261
10.8241,86.8377
10.7987,86.8575
10.7921,86.8651
10.7743,86.8950
10.7640,86.9278
10.7592,86.9615
10.7584,86.9849
10.7606,87.0200
10.7686,87.0554
10.7824,87.0857
10.8048,87.1138
10.8341,87.1352
10.8653,87.1483
10.9014,87.1559
10.9370,87.1580
10.9704,87.1569
10.9960,87.1546
11.0289,87.1500
11.0549,87.1453
11.0666,87.2304
11.0332,87.2361
10.9999,87.2400
10.9886,87.2409
10.9553,87.2426
Z" /> 
<path style="fill:#F2EDA1; fill-opacity:1.0000; stroke:none;fill-rule:evenodd;"
d="M 11.3842,87.2431
11.3504,87.2409
11.3151,87.2327
11.2841,87.2186
11.2574,87.1984
11.2410,87.1802
11.2221,87.1498
11.2095,87.1193
11.2004,87.0845
11.1954,87.0524
11.1928,87.0174
11.1924,86.9950
11.1935,86.9569
11.1971,86.9218
11.2031,86.8896
11.2133,86.8550
11.2270,86.8248
11.2410,86.8029
11.2646,86.7774
11.2925,86.7582
11.3247,86.7453
11.3613,86.7386
11.3842,86.7376
11.4188,86.7406
11.4512,86.7509
11.4717,86.7634
11.4946,86.7876
11.5083,86.8184
11.5115,86.8350
11.5488,86.8350
11.5206,86.9738
11.5187,86.9383
11.5123,86.9039
11.4997,86.8724
11.4912,86.8593
11.4679,86.8370
11.4382,86.8240
11.4055,86.8201
11.3719,86.8244
11.3414,86.8391
11.3174,86.8643
11.3017,86.8960
11.2933,86.9274
11.2887,86.9641
11.2876,86.9950
11.2891,87.0289
11.2942,87.0630
11.3044,87.0954
11.3174,87.1188
11.3414,87.1426
11.3719,87.1565
11.4055,87.1606
11.4382,87.1568
11.4679,87.1438
11.4912,87.1216
11.5079,87.0904
11.5164,87.0584
11.5201,87.0253
11.5206,87.0070
11.5533,87.1458
11.5115,87.1458
11.5040,87.1774
11.4866,87.2052
11.4732,87.2175
11.4449,87.2331
11.4136,87.2411
Z" /> 
<path style="fill:#F2EDA1; fill-opacity:1.0000; stroke:none;fill-rule:evenodd;"
d="M 11.5306,87.2373
11.5206,87.1430
11.5206,86.5519
11.6168,86.5519
11.6168,87.2328
Z" /> 
<path style="fill:#F2EDA1; fill-opacity:1.0000; stroke:none;fill-rule:evenodd;"
d="M 11.9619,87.2431
11.9304,87.2354
11.9144,87.2234
11.8975,87.1956
11.8947,87.1761
11.9024,87.1443
11.9144,87.1285
11.9422,87.1117
11.9619,87.1090
11.9937,87.1166
12.0095,87.1285
12.0262,87.1562
12.0290,87.1761
12.0214,87.2075
12.0095,87.2234
11.9818,87.2404
Z" /> 
<path style="fill:#F2EDA1; fill-opacity:1.0000; stroke:none;fill-rule:evenodd;"
d="M 12.6280,87.2328
12.6280,86.8604
12.6219,86.8277
12.5931,86.8099
12.5908,86.8098
12.5603,86.8209
12.5460,86.8508
12.5437,86.8770
12.5110,86.8072
12.5482,86.8072
12.5572,86.7763
12.5706,86.7582
12.5990,86.7415
12.6288,86.7376
12.6624,86.7414
12.6919,86.7555
12.7014,86.7647
12.7169,86.7948
12.7230,86.8274
12.7241,86.8522
12.7241,87.2328
Z" /> 
<path style="fill:#F2EDA1; fill-opacity:1.0000; stroke:none;fill-rule:evenodd;"
d="M 12.2816,87.2328
12.2816,86.7479
12.3669,86.7479
12.3777,86.8504
12.3777,87.2328
Z" /> 
<path style="fill:#F2EDA1; fill-opacity:1.0000; stroke:none;fill-rule:evenodd;"
d="M 12.4620,87.2328
12.4620,86.8512
12.4525,86.8202
12.4239,86.8098
12.3923,86.8227
12.3793,86.8542
12.3777,86.8770
12.3496,86.8072
12.3804,86.8072
12.3891,86.7736
12.4121,86.7491
12.4448,86.7387
12.4629,86.7376
12.4965,86.7441
12.5221,86.7637
12.5376,86.7941
12.5432,86.8271
12.5437,86.8430
12.5437,87.2328
Z" /> 
<path style="fill:#F2EDA1; fill-opacity:1.0000; stroke:none;fill-rule:evenodd;"
d="M 13.0900,87.2431
13.0530,87.2415
13.0187,87.2367
12.9871,87.2287
12.9529,87.2149
12.9225,87.1965
12.9003,87.1777
12.8776,87.1511
12.8596,87.1204
12.8463,87.0858
12.8388,87.0539
12.8346,87.0192
12.8335,86.9894
12.8349,86.9534
12.8391,86.9199
12.8477,86.8833
12.8603,86.8504
12.8769,86.8212
12.8901,86.8038
12.9172,86.7780
12.9487,86.7586
12.9792,86.7469
13.0131,86.7399
13.0502,86.7376
13.0852,86.7397
13.1171,86.7459
13.1504,86.7583
13.1794,86.7764
13.2009,86.7964
13.2217,86.8247
13.2374,86.8581
13.2468,86.8908
13.2524,86.9273
13.2542,86.9605
13.2543,86.9675
13.2535,87.0013
13.2515,87.0290
12.9141,87.0290
12.9141,86.9542
13.1672,86.9542
13.1648,86.9209
13.1563,86.8892
13.1400,86.8611
13.1363,86.8567
13.1099,86.8360
13.0768,86.8248
13.0512,86.8227
13.0189,86.8261
12.9881,86.8377
12.9626,86.8575
12.9560,86.8651
12.9383,86.8950
12.9279,86.9278
12.9232,86.9615
12.9224,86.9849
12.9246,87.0200
12.9326,87.0554
12.9463,87.0857
12.9688,87.1138
12.9980,87.1352
13.0292,87.1483
13.0653,87.1559
13.1010,87.1580
13.1344,87.1569
13.1600,87.1546
13.1929,87.1500
13.2188,87.1453
13.2306,87.2304
13.1972,87.2361
13.1638,87.2400
13.1526,87.2409
13.1193,87.2426
Z" /> 
</g></g>
<g style="fill:none; 
stroke:#F2EDA1; stroke-width:0.1500; stroke-opacity:1; 
stroke-linecap:round; stroke-linejoin:round;">
<g transform="rotate(-90.000000 12.5750 59.3450)">
<text x="12.5750" y="59.8450"
textLength="2.2500" font-size="1.3333" lengthAdjust="spacingAndGlyphs"
text-anchor="middle" opacity="0" stroke-opacity="0">U1</text>
</g>
<g class="stroked-text"><desc>U1</desc>
<path d="M12.0298 60.1069
L12.8393 60.1069
" />
<path d="M12.8393 60.1069
L12.9346 60.0593
" />
<path d="M12.9346 60.0593
L12.9822 60.0117
" />
<path d="M12.9822 60.0117
L13.0298 59.9164
" />
<path d="M13.0298 59.9164
L13.0298 59.7260
" />
<path d="M13.0298 59.7260
L12.9822 59.6307
" />
<path d="M12.9822 59.6307
L12.9346 59.5831
" />
<path d="M12.9346 59.5831
L12.8393 59.5355
" />
<path d="M12.8393 59.5355
L12.0298 59.5355
" />
<path d="M13.0298 58.5355
L13.0298 59.1069
" />
<path d="M13.0298 58.8212
L12.0298 58.8212
" />
<path d="M12.0298 58.8212
L12.1727 58.9164
" />
<path d="M12.1727 58.9164
L12.2679 59.0117
" />
<path d="M12.2679 59.0117
L12.3155 59.1069
" />
</g><g transform="rotate(-90.000000 5.5750 59.3450)">
<text x="5.5750" y="59.8450"
textLength="4.6786" font-size="1.3333" lengthAdjust="spacingAndGlyphs"
text-anchor="middle" opacity="0" stroke-opacity="0">TL072</text>
</g>
<g class="stroked-text"><desc>TL072</desc>
<path d="M5.0298 61.4640
L5.0298 60.8926
" />
<path d="M6.0298 61.1783
L5.0298 61.1783
" />
<path d="M6.0298 60.0831
L6.0298 60.5593
" />
<path d="M6.0298 60.5593
L5.0298 60.5593
" />
<path d="M5.0298 59.5593
L5.0298 59.4640
" />
<path d="M5.0298 59.4640
L5.0774 59.3688
" />
<path d="M5.0774 59.3688
L5.1251 59.3212
" />
<path d="M5.1251 59.3212
L5.2203 59.2736
" />
<path d="M5.2203 59.2736
L5.4108 59.2260
" />
<path d="M5.4108 59.2260
L5.6489 59.2260
" />
<path d="M5.6489 59.2260
L5.8393 59.2736
" />
<path d="M5.8393 59.2736
L5.9346 59.3212
" />
<path d="M5.9346 59.3212
L5.9822 59.3688
" />
<path d="M5.9822 59.3688
L6.0298 59.4640
" />
<path d="M6.0298 59.4640
L6.0298 59.5593
" />
<path d="M6.0298 59.5593
L5.9822 59.6545
" />
<path d="M5.9822 59.6545
L5.9346 59.7021
" />
<path d="M5.9346 59.7021
L5.8393 59.7498
" />
<path d="M5.8393 59.7498
L5.6489 59.7974
" />
<path d="M5.6489 59.7974
L5.4108 59.7974
" />
<path d="M5.4108 59.7974
L5.2203 59.7498
" />
<path d="M5.2203 59.7498
L5.1251 59.7021
" />
<path d="M5.1251 59.7021
L5.0774 59.6545
" />
<path d="M5.0774 59.6545
L5.0298 59.5593
" />
<path d="M5.0298 58.8926
L5.0298 58.2260
" />
<path d="M5.0298 58.2260
L6.0298 58.6545
" />
<path d="M5.1251 57.8926
L5.0774 57.8450
" />
<path d="M5.0774 57.8450
L5.0298 57.7498
" />
<path d="M5.0298 57.7498
L5.0298 57.5117
" />
<path d="M5.0298 57.5117
L5.0774 57.4164
" />
<path d="M5.0774 57.4164
L5.1251 57.3688
" />
<path d="M5.1251 57.3688
L5.2203 57.3212
" />
<path d="M5.2203 57.3212
L5.3155 57.3212
" />
<path d="M5.3155 57.3212
L5.4584 57.3688
" />
<path d="M5.4584 57.3688
L6.0298 57.9402
" />
<path d="M6.0298 57.9402
L6.0298 57.3212
" />
</g><g transform="rotate(-90.000000 9.3150 50.7550)">
<text x="9.3150" y="51.0800"
textLength="1.5890" font-size="0.8667" lengthAdjust="spacingAndGlyphs"
text-anchor="middle" opacity="0" stroke-opacity="0">R7</text>
</g>
<g class="stroked-text"><desc>R7</desc>
<path d="M9.6079 50.8633
L9.2984 51.0800
" />
<path d="M9.6079 51.2348
L8.9579 51.2348
" />
<path d="M8.9579 51.2348
L8.9579 50.9871
" />
<path d="M8.9579 50.9871
L8.9889 50.9252
" />
<path d="M8.9889 50.9252
L9.0198 50.8943
" />
<path d="M9.0198 50.8943
L9.0817 50.8633
" />
<path d="M9.0817 50.8633
L9.1746 50.8633
" />
<path d="M9.1746 50.8633
L9.2365 50.8943
" />
<path d="M9.2365 50.8943
L9.2674 50.9252
" />
<path d="M9.2674 50.9252
L9.2984 50.9871
" />
<path d="M9.2984 50.9871
L9.2984 51.2348
" />
<path d="M8.9579 50.6467
L8.9579 50.2133
" />
<path d="M8.9579 50.2133
L9.6079 50.4919
" />
</g><g transform="rotate(-90.000000 5.9650 50.6250)">
<text x="5.9650" y="50.9250"
textLength="2.5300" font-size="0.8000" lengthAdjust="spacingAndGlyphs"
text-anchor="middle" opacity="0" stroke-opacity="0">100k</text>
</g>
<g class="stroked-text"><desc>100k</desc>
<path d="M6.2348 51.2679
L6.2348 51.6107
" />
<path d="M6.2348 51.4393
L5.6348 51.4393
" />
<path d="M5.6348 51.4393
L5.7205 51.4964
" />
<path d="M5.7205 51.4964
L5.7776 51.5536
" />
<path d="M5.7776 51.5536
L5.8062 51.6107
" />
<path d="M5.6348 50.8964
L5.6348 50.8393
" />
<path d="M5.6348 50.8393
L5.6633 50.7821
" />
<path d="M5.6633 50.7821
L5.6919 50.7536
" />
<path d="M5.6919 50.7536
L5.7491 50.7250
" />
<path d="M5.7491 50.7250
L5.8633 50.6964
" />
<path d="M5.8633 50.6964
L6.0062 50.6964
" />
<path d="M6.0062 50.6964
L6.1205 50.7250
" />
<path d="M6.1205 50.7250
L6.1776 50.7536
" />
<path d="M6.1776 50.7536
L6.2062 50.7821
" />
<path d="M6.2062 50.7821
L6.2348 50.8393
" />
<path d="M6.2348 50.8393
L6.2348 50.8964
" />
<path d="M6.2348 50.8964
L6.2062 50.9536
" />
<path d="M6.2062 50.9536
L6.1776 50.9821
" />
<path d="M6.1776 50.9821
L6.1205 51.0107
" />
<path d="M6.1205 51.0107
L6.0062 51.0393
" />
<path d="M6.0062 51.0393
L5.8633 51.0393
" />
<path d="M5.8633 51.0393
L5.7491 51.0107
" />
<path d="M5.7491 51.0107
L5.6919 50.9821
" />
<path d="M5.6919 50.9821
L5.6633 50.9536
" />
<path d="M5.6633 50.9536
L5.6348 50.8964
" />
<path d="M5.6348 50.3250
L5.6348 50.2679
" />
<path d="M5.6348 50.2679
L5.6633 50.2107
" />
<path d="M5.6633 50.2107
L5.6919 50.1821
" />
<path d="M5.6919 50.1821
L5.7491 50.1536
" />
<path d="M5.7491 50.1536
L5.8633 50.1250
" />
<path d="M5.8633 50.1250
L6.0062 50.1250
" />
<path d="M6.0062 50.1250
L6.1205 50.1536
" />
<path d="M6.1205 50.1536
L6.1776 50.1821
" />
<path d="M6.1776 50.1821
L6.2062 50.2107
" />
<path d="M6.2062 50.2107
L6.2348 50.2679
" />
<path d="M6.2348 50.2679
L6.2348 50.3250
" />
<path d="M6.2348 50.3250
L6.2062 50.3821
" />
<path d="M6.2062 50.3821
L6.1776 50.4107
" />
<path d="M6.1776 50.4107
L6.1205 50.4393
" />
<path d="M6.1205 50.4393
L6.0062 50.4679
" />
<path d="M6.0062 50.4679
L5.8633 50.4679
" />
<path d="M5.8633 50.4679
L5.7491 50.4393
" />
<path d="M5.7491 50.4393
L5.6919 50.4107
" />
<path d="M5.6919 50.4107
L5.6633 50.3821
" />
<path d="M5.6633 50.3821
L5.6348 50.3250
" />
<path d="M6.2348 49.8679
L5.6348 49.8679
" />
<path d="M6.0062 49.8107
L6.2348 49.6393
" />
<path d="M5.8348 49.6393
L6.0633 49.8679
" />
</g><g transform="rotate(-90.000000 6.3150 79.1650)">
<text x="6.3150" y="79.4900"
textLength="1.5890" font-size="0.8667" lengthAdjust="spacingAndGlyphs"
text-anchor="middle" opacity="0" stroke-opacity="0">R6</text>
</g>
<g class="stroked-text"><desc>R6</desc>
<path d="M6.6079 79.2733
L6.2984 79.4900
" />
<path d="M6.6079 79.6448
L5.9579 79.6448
" />
<path d="M5.9579 79.6448
L5.9579 79.3971
" />
<path d="M5.9579 79.3971
L5.9889 79.3352
" />
<path d="M5.9889 79.3352
L6.0198 79.3043
" />
<path d="M6.0198 79.3043
L6.0817 79.2733
" />
<path d="M6.0817 79.2733
L6.1746 79.2733
" />
<path d="M6.1746 79.2733
L6.2365 79.3043
" />
<path d="M6.2365 79.3043
L6.2674 79.3352
" />
<path d="M6.2674 79.3352
L6.2984 79.3971
" />
<path d="M6.2984 79.3971
L6.2984 79.6448
" />
<path d="M5.9579 78.7162
L5.9579 78.8400
" />
<path d="M5.9579 78.8400
L5.9889 78.9019
" />
<path d="M5.9889 78.9019
L6.0198 78.9329
" />
<path d="M6.0198 78.9329
L6.1127 78.9948
" />
<path d="M6.1127 78.9948
L6.2365 79.0257
" />
<path d="M6.2365 79.0257
L6.4841 79.0257
" />
<path d="M6.4841 79.0257
L6.5460 78.9948
" />
<path d="M6.5460 78.9948
L6.5770 78.9638
" />
<path d="M6.5770 78.9638
L6.6079 78.9019
" />
<path d="M6.6079 78.9019
L6.6079 78.7781
" />
<path d="M6.6079 78.7781
L6.5770 78.7162
" />
<path d="M6.5770 78.7162
L6.5460 78.6852
" />
<path d="M6.5460 78.6852
L6.4841 78.6543
" />
<path d="M6.4841 78.6543
L6.3293 78.6543
" />
<path d="M6.3293 78.6543
L6.2674 78.6852
" />
<path d="M6.2674 78.6852
L6.2365 78.7162
" />
<path d="M6.2365 78.7162
L6.2055 78.7781
" />
<path d="M6.2055 78.7781
L6.2055 78.9019
" />
<path d="M6.2055 78.9019
L6.2365 78.9638
" />
<path d="M6.2365 78.9638
L6.2674 78.9948
" />
<path d="M6.2674 78.9948
L6.3293 79.0257
" />
</g><g transform="rotate(-90.000000 2.9650 79.0350)">
<text x="2.9650" y="79.3350"
textLength="1.3871" font-size="0.8000" lengthAdjust="spacingAndGlyphs"
text-anchor="middle" opacity="0" stroke-opacity="0">1k</text>
</g>
<g class="stroked-text"><desc>1k</desc>
<path d="M3.2348 79.1064
L3.2348 79.4493
" />
<path d="M3.2348 79.2779
L2.6348 79.2779
" />
<path d="M2.6348 79.2779
L2.7205 79.3350
" />
<path d="M2.7205 79.3350
L2.7776 79.3921
" />
<path d="M2.7776 79.3921
L2.8062 79.4493
" />
<path d="M3.2348 78.8493
L2.6348 78.8493
" />
<path d="M3.0062 78.7921
L3.2348 78.6207
" />
<path d="M2.8348 78.6207
L3.0633 78.8493
" />
</g><g transform="rotate(-90.000000 3.5850 32.9550)">
<text x="3.5850" y="33.2800"
textLength="1.5890" font-size="0.8667" lengthAdjust="spacingAndGlyphs"
text-anchor="middle" opacity="0" stroke-opacity="0">R5</text>
</g>
<g class="stroked-text"><desc>R5</desc>
<path d="M3.8779 33.0633
L3.5684 33.2800
" />
<path d="M3.8779 33.4348
L3.2279 33.4348
" />
<path d="M3.2279 33.4348
L3.2279 33.1871
" />
<path d="M3.2279 33.1871
L3.2589 33.1252
" />
<path d="M3.2589 33.1252
L3.2898 33.0943
" />
<path d="M3.2898 33.0943
L3.3517 33.0633
" />
<path d="M3.3517 33.0633
L3.4446 33.0633
" />
<path d="M3.4446 33.0633
L3.5065 33.0943
" />
<path d="M3.5065 33.0943
L3.5374 33.1252
" />
<path d="M3.5374 33.1252
L3.5684 33.1871
" />
<path d="M3.5684 33.1871
L3.5684 33.4348
" />
<path d="M3.2279 32.4752
L3.2279 32.7848
" />
<path d="M3.2279 32.7848
L3.5374 32.8157
" />
<path d="M3.5374 32.8157
L3.5065 32.7848
" />
<path d="M3.5065 32.7848
L3.4755 32.7229
" />
<path d="M3.4755 32.7229
L3.4755 32.5681
" />
<path d="M3.4755 32.5681
L3.5065 32.5062
" />
<path d="M3.5065 32.5062
L3.5374 32.4752
" />
<path d="M3.5374 32.4752
L3.5993 32.4443
" />
<path d="M3.5993 32.4443
L3.7541 32.4443
" />
<path d="M3.7541 32.4443
L3.8160 32.4752
" />
<path d="M3.8160 32.4752
L3.8469 32.5062
" />
<path d="M3.8469 32.5062
L3.8779 32.5681
" />
<path d="M3.8779 32.5681
L3.8779 32.7229
" />
<path d="M3.8779 32.7229
L3.8469 32.7848
" />
<path d="M3.8469 32.7848
L3.8160 32.8157
" />
</g><g transform="rotate(-90.000000 6.9350 33.0850)">
<text x="6.9350" y="33.3850"
textLength="1.3871" font-size="0.8000" lengthAdjust="spacingAndGlyphs"
text-anchor="middle" opacity="0" stroke-opacity="0">1k</text>
</g>
<g class="stroked-text"><desc>1k</desc>
<path d="M7.2048 33.1564
L7.2048 33.4993
" />
<path d="M7.2048 33.3279
L6.6048 33.3279
" />
<path d="M6.6048 33.3279
L6.6905 33.3850
" />
<path d="M6.6905 33.3850
L6.7476 33.4421
" />
<path d="M6.7476 33.4421
L6.7762 33.4993
" />
<path d="M7.2048 32.8993
L6.6048 32.8993
" />
<path d="M6.9762 32.8421
L7.2048 32.6707
" />
<path d="M6.8048 32.6707
L7.0333 32.8993
" />
</g><text x="3.3250" y="52.8100"
textLength="1.5890" font-size="0.8667" lengthAdjust="spacingAndGlyphs"
text-anchor="middle" opacity="0" stroke-opacity="0">R4</text>
<g class="stroked-text"><desc>R4</desc>
<path d="M3.2167 52.7779
L3.0000 52.4684
" />
<path d="M2.8452 52.7779
L2.8452 52.1279
" />
<path d="M2.8452 52.1279
L3.0929 52.1279
" />
<path d="M3.0929 52.1279
L3.1548 52.1589
" />
<path d="M3.1548 52.1589
L3.1857 52.1898
" />
<path d="M3.1857 52.1898
L3.2167 52.2517
" />
<path d="M3.2167 52.2517
L3.2167 52.3446
" />
<path d="M3.2167 52.3446
L3.1857 52.4065
" />
<path d="M3.1857 52.4065
L3.1548 52.4374
" />
<path d="M3.1548 52.4374
L3.0929 52.4684
" />
<path d="M3.0929 52.4684
L2.8452 52.4684
" />
<path d="M3.7738 52.3446
L3.7738 52.7779
" />
<path d="M3.6190 52.0969
L3.4643 52.5612
" />
<path d="M3.4643 52.5612
L3.8667 52.5612
" />
</g><text x="3.4550" y="49.4350"
textLength="2.5300" font-size="0.8000" lengthAdjust="spacingAndGlyphs"
text-anchor="middle" opacity="0" stroke-opacity="0">100k</text>
<g class="stroked-text"><desc>100k</desc>
<path d="M2.8121 49.4048
L2.4693 49.4048
" />
<path d="M2.6407 49.4048
L2.6407 48.8048
" />
<path d="M2.6407 48.8048
L2.5836 48.8905
" />
<path d="M2.5836 48.8905
L2.5264 48.9476
" />
<path d="M2.5264 48.9476
L2.4693 48.9762
" />
<path d="M3.1836 48.8048
L3.2407 48.8048
" />
<path d="M3.2407 48.8048
L3.2979 48.8333
" />
<path d="M3.2979 48.8333
L3.3264 48.8619
" />
<path d="M3.3264 48.8619
L3.3550 48.9191
" />
<path d="M3.3550 48.9191
L3.3836 49.0333
" />
<path d="M3.3836 49.0333
L3.3836 49.1762
" />
<path d="M3.3836 49.1762
L3.3550 49.2905
" />
<path d="M3.3550 49.2905
L3.3264 49.3476
" />
<path d="M3.3264 49.3476
L3.2979 49.3762
" />
<path d="M3.2979 49.3762
L3.2407 49.4048
" />
<path d="M3.2407 49.4048
L3.1836 49.4048
" />
<path d="M3.1836 49.4048
L3.1264 49.3762
" />
<path d="M3.1264 49.3762
L3.0979 49.3476
" />
<path d="M3.0979 49.3476
L3.0693 49.2905
" />
<path d="M3.0693 49.2905
L3.0407 49.1762
" />
<path d="M3.0407 49.1762
L3.0407 49.0333
" />
<path d="M3.0407 49.0333
L3.0693 48.9191
" />
<path d="M3.0693 48.9191
L3.0979 48.8619
" />
<path d="M3.0979 48.8619
L3.1264 48.8333
" />
<path d="M3.1264 48.8333
L3.1836 48.8048
" />
<path d="M3.7550 48.8048
L3.8121 48.8048
" />
<path d="M3.8121 48.8048
L3.8693 48.8333
" />
<path d="M3.8693 48.8333
L3.8979 48.8619
" />
<path d="M3.8979 48.8619
L3.9264 48.9191
" />
<path d="M3.9264 48.9191
L3.9550 49.0333
" />
<path d="M3.9550 49.0333
L3.9550 49.1762
" />
<path d="M3.9550 49.1762
L3.9264 49.2905
" />
<path d="M3.9264 49.2905
L3.8979 49.3476
" />
<path d="M3.8979 49.3476
L3.8693 49.3762
" />
<path d="M3.8693 49.3762
L3.8121 49.4048
" />
<path d="M3.8121 49.4048
L3.7550 49.4048
" />
<path d="M3.7550 49.4048
L3.6979 49.3762
" />
<path d="M3.6979 49.3762
L3.6693 49.3476
" />
<path d="M3.6693 49.3476
L3.6407 49.2905
" />
<path d="M3.6407 49.2905
L3.6121 49.1762
" />
<path d="M3.6121 49.1762
L3.6121 49.0333
" />
<path d="M3.6121 49.0333
L3.6407 48.9191
" />
<path d="M3.6407 48.9191
L3.6693 48.8619
" />
<path d="M3.6693 48.8619
L3.6979 48.8333
" />
<path d="M3.6979 48.8333
L3.7550 48.8048
" />
<path d="M4.2121 49.4048
L4.2121 48.8048
" />
<path d="M4.2693 49.1762
L4.4407 49.4048
" />
<path d="M4.4407 49.0048
L4.2121 49.2333
" />
</g><g transform="rotate(-90.000000 14.8350 50.9250)">
<text x="14.8350" y="51.2500"
textLength="1.5890" font-size="0.8667" lengthAdjust="spacingAndGlyphs"
text-anchor="middle" opacity="0" stroke-opacity="0">R3</text>
</g>
<g class="stroked-text"><desc>R3</desc>
<path d="M15.1279 51.0333
L14.8184 51.2500
" />
<path d="M15.1279 51.4048
L14.4779 51.4048
" />
<path d="M14.4779 51.4048
L14.4779 51.1571
" />
<path d="M14.4779 51.1571
L14.5089 51.0952
" />
<path d="M14.5089 51.0952
L14.5398 51.0643
" />
<path d="M14.5398 51.0643
L14.6017 51.0333
" />
<path d="M14.6017 51.0333
L14.6946 51.0333
" />
<path d="M14.6946 51.0333
L14.7565 51.0643
" />
<path d="M14.7565 51.0643
L14.7874 51.0952
" />
<path d="M14.7874 51.0952
L14.8184 51.1571
" />
<path d="M14.8184 51.1571
L14.8184 51.4048
" />
<path d="M14.4779 50.8167
L14.4779 50.4143
" />
<path d="M14.4779 50.4143
L14.7255 50.6310
" />
<path d="M14.7255 50.6310
L14.7255 50.5381
" />
<path d="M14.7255 50.5381
L14.7565 50.4762
" />
<path d="M14.7565 50.4762
L14.7874 50.4452
" />
<path d="M14.7874 50.4452
L14.8493 50.4143
" />
<path d="M14.8493 50.4143
L15.0041 50.4143
" />
<path d="M15.0041 50.4143
L15.0660 50.4452
" />
<path d="M15.0660 50.4452
L15.0969 50.4762
" />
<path d="M15.0969 50.4762
L15.1279 50.5381
" />
<path d="M15.1279 50.5381
L15.1279 50.7238
" />
<path d="M15.1279 50.7238
L15.0969 50.7857
" />
<path d="M15.0969 50.7857
L15.0660 50.8167
" />
</g><g transform="rotate(-90.000000 18.1850 51.0550)">
<text x="18.1850" y="51.3550"
textLength="2.0443" font-size="0.8000" lengthAdjust="spacingAndGlyphs"
text-anchor="middle" opacity="0" stroke-opacity="0">680</text>
</g>
<g class="stroked-text"><desc>680</desc>
<path d="M17.8548 51.5121
L17.8548 51.6264
" />
<path d="M17.8548 51.6264
L17.8833 51.6836
" />
<path d="M17.8833 51.6836
L17.9119 51.7121
" />
<path d="M17.9119 51.7121
L17.9976 51.7693
" />
<path d="M17.9976 51.7693
L18.1119 51.7979
" />
<path d="M18.1119 51.7979
L18.3405 51.7979
" />
<path d="M18.3405 51.7979
L18.3976 51.7693
" />
<path d="M18.3976 51.7693
L18.4262 51.7407
" />
<path d="M18.4262 51.7407
L18.4548 51.6836
" />
<path d="M18.4548 51.6836
L18.4548 51.5693
" />
<path d="M18.4548 51.5693
L18.4262 51.5121
" />
<path d="M18.4262 51.5121
L18.3976 51.4836
" />
<path d="M18.3976 51.4836
L18.3405 51.4550
" />
<path d="M18.3405 51.4550
L18.1976 51.4550
" />
<path d="M18.1976 51.4550
L18.1405 51.4836
" />
<path d="M18.1405 51.4836
L18.1119 51.5121
" />
<path d="M18.1119 51.5121
L18.0833 51.5693
" />
<path d="M18.0833 51.5693
L18.0833 51.6836
" />
<path d="M18.0833 51.6836
L18.1119 51.7407
" />
<path d="M18.1119 51.7407
L18.1405 51.7693
" />
<path d="M18.1405 51.7693
L18.1976 51.7979
" />
<path d="M18.1119 51.1121
L18.0833 51.1693
" />
<path d="M18.0833 51.1693
L18.0548 51.1979
" />
<path d="M18.0548 51.1979
L17.9976 51.2264
" />
<path d="M17.9976 51.2264
L17.9691 51.2264
" />
<path d="M17.9691 51.2264
L17.9119 51.1979
" />
<path d="M17.9119 51.1979
L17.8833 51.1693
" />
<path d="M17.8833 51.1693
L17.8548 51.1121
" />
<path d="M17.8548 51.1121
L17.8548 50.9979
" />
<path d="M17.8548 50.9979
L17.8833 50.9407
" />
<path d="M17.8833 50.9407
L17.9119 50.9121
" />
<path d="M17.9119 50.9121
L17.9691 50.8836
" />
<path d="M17.9691 50.8836
L17.9976 50.8836
" />
<path d="M17.9976 50.8836
L18.0548 50.9121
" />
<path d="M18.0548 50.9121
L18.0833 50.9407
" />
<path d="M18.0833 50.9407
L18.1119 50.9979
" />
<path d="M18.1119 50.9979
L18.1119 51.1121
" />
<path d="M18.1119 51.1121
L18.1405 51.1693
" />
<path d="M18.1405 51.1693
L18.1691 51.1979
" />
<path d="M18.1691 51.1979
L18.2262 51.2264
" />
<path d="M18.2262 51.2264
L18.3405 51.2264
" />
<path d="M18.3405 51.2264
L18.3976 51.1979
" />
<path d="M18.3976 51.1979
L18.4262 51.1693
" />
<path d="M18.4262 51.1693
L18.4548 51.1121
" />
<path d="M18.4548 51.1121
L18.4548 50.9979
" />
<path d="M18.4548 50.9979
L18.4262 50.9407
" />
<path d="M18.4262 50.9407
L18.3976 50.9121
" />
<path d="M18.3976 50.9121
L18.3405 50.8836
" />
<path d="M18.3405 50.8836
L18.2262 50.8836
" />
<path d="M18.2262 50.8836
L18.1691 50.9121
" />
<path d="M18.1691 50.9121
L18.1405 50.9407
" />
<path d="M18.1405 50.9407
L18.1119 50.9979
" />
<path d="M17.8548 50.5121
L17.8548 50.4550
" />
<path d="M17.8548 50.4550
L17.8833 50.3979
" />
<path d="M17.8833 50.3979
L17.9119 50.3693
" />
<path d="M17.9119 50.3693
L17.9691 50.3407
" />
<path d="M17.9691 50.3407
L18.0833 50.3121
" />
<path d="M18.0833 50.3121
L18.2262 50.3121
" />
<path d="M18.2262 50.3121
L18.3405 50.3407
" />
<path d="M18.3405 50.3407
L18.3976 50.3693
" />
<path d="M18.3976 50.3693
L18.4262 50.3979
" />
<path d="M18.4262 50.3979
L18.4548 50.4550
" />
<path d="M18.4548 50.4550
L18.4548 50.5121
" />
<path d="M18.4548 50.5121
L18.4262 50.5693
" />
<path d="M18.4262 50.5693
L18.3976 50.5979
" />
<path d="M18.3976 50.5979
L18.3405 50.6264
" />
<path d="M18.3405 50.6264
L18.2262 50.6550
" />
<path d="M18.2262 50.6550
L18.0833 50.6550
" />
<path d="M18.0833 50.6550
L17.9691 50.6264
" />
<path d="M17.9691 50.6264
L17.9119 50.5979
" />
<path d="M17.9119 50.5979
L17.8833 50.5693
" />
<path d="M17.8833 50.5693
L17.8548 50.5121
" />
</g><g transform="rotate(-90.000000 10.3350 50.8450)">
<text x="10.3350" y="51.1700"
textLength="1.5890" font-size="0.8667" lengthAdjust="spacingAndGlyphs"
text-anchor="middle" opacity="0" stroke-opacity="0">R2</text>
</g>
<g class="stroked-text"><desc>R2</desc>
<path d="M10.6279 50.9533
L10.3184 51.1700
" />
<path d="M10.6279 51.3248
L9.9779 51.3248
" />
<path d="M9.9779 51.3248
L9.9779 51.0771
" />
<path d="M9.9779 51.0771
L10.0089 51.0152
" />
<path d="M10.0089 51.0152
L10.0398 50.9843
" />
<path d="M10.0398 50.9843
L10.1017 50.9533
" />
<path d="M10.1017 50.9533
L10.1946 50.9533
" />
<path d="M10.1946 50.9533
L10.2565 50.9843
" />
<path d="M10.2565 50.9843
L10.2874 51.0152
" />
<path d="M10.2874 51.0152
L10.3184 51.0771
" />
<path d="M10.3184 51.0771
L10.3184 51.3248
" />
<path d="M10.0398 50.7057
L10.0089 50.6748
" />
<path d="M10.0089 50.6748
L9.9779 50.6129
" />
<path d="M9.9779 50.6129
L9.9779 50.4581
" />
<path d="M9.9779 50.4581
L10.0089 50.3962
" />
<path d="M10.0089 50.3962
L10.0398 50.3652
" />
<path d="M10.0398 50.3652
L10.1017 50.3343
" />
<path d="M10.1017 50.3343
L10.1636 50.3343
" />
<path d="M10.1636 50.3343
L10.2565 50.3652
" />
<path d="M10.2565 50.3652
L10.6279 50.7367
" />
<path d="M10.6279 50.7367
L10.6279 50.3343
" />
</g><g transform="rotate(-90.000000 13.6850 50.9750)">
<text x="13.6850" y="51.2750"
textLength="2.5300" font-size="0.8000" lengthAdjust="spacingAndGlyphs"
text-anchor="middle" opacity="0" stroke-opacity="0">100k</text>
</g>
<g class="stroked-text"><desc>100k</desc>
<path d="M13.9548 51.6179
L13.9548 51.9607
" />
<path d="M13.9548 51.7893
L13.3548 51.7893
" />
<path d="M13.3548 51.7893
L13.4405 51.8464
" />
<path d="M13.4405 51.8464
L13.4976 51.9036
" />
<path d="M13.4976 51.9036
L13.5262 51.9607
" />
<path d="M13.3548 51.2464
L13.3548 51.1893
" />
<path d="M13.3548 51.1893
L13.3833 51.1321
" />
<path d="M13.3833 51.1321
L13.4119 51.1036
" />
<path d="M13.4119 51.1036
L13.4691 51.0750
" />
<path d="M13.4691 51.0750
L13.5833 51.0464
" />
<path d="M13.5833 51.0464
L13.7262 51.0464
" />
<path d="M13.7262 51.0464
L13.8405 51.0750
" />
<path d="M13.8405 51.0750
L13.8976 51.1036
" />
<path d="M13.8976 51.1036
L13.9262 51.1321
" />
<path d="M13.9262 51.1321
L13.9548 51.1893
" />
<path d="M13.9548 51.1893
L13.9548 51.2464
" />
<path d="M13.9548 51.2464
L13.9262 51.3036
" />
<path d="M13.9262 51.3036
L13.8976 51.3321
" />
<path d="M13.8976 51.3321
L13.8405 51.3607
" />
<path d="M13.8405 51.3607
L13.7262 51.3893
" />
<path d="M13.7262 51.3893
L13.5833 51.3893
" />
<path d="M13.5833 51.3893
L13.4691 51.3607
" />
<path d="M13.4691 51.3607
L13.4119 51.3321
" />
<path d="M13.4119 51.3321
L13.3833 51.3036
" />
<path d="M13.3833 51.3036
L13.3548 51.2464
" />
<path d="M13.3548 50.6750
L13.3548 50.6179
" />
<path d="M13.3548 50.6179
L13.3833 50.5607
" />
<path d="M13.3833 50.5607
L13.4119 50.5321
" />
<path d="M13.4119 50.5321
L13.4691 50.5036
" />
<path d="M13.4691 50.5036
L13.5833 50.4750
" />
<path d="M13.5833 50.4750
L13.7262 50.4750
" />
<path d="M13.7262 50.4750
L13.8405 50.5036
" />
<path d="M13.8405 50.5036
L13.8976 50.5321
" />
<path d="M13.8976 50.5321
L13.9262 50.5607
" />
<path d="M13.9262 50.5607
L13.9548 50.6179
" />
<path d="M13.9548 50.6179
L13.9548 50.6750
" />
<path d="M13.9548 50.6750
L13.9262 50.7321
" />
<path d="M13.9262 50.7321
L13.8976 50.7607
" />
<path d="M13.8976 50.7607
L13.8405 50.7893
" />
<path d="M13.8405 50.7893
L13.7262 50.8179
" />
<path d="M13.7262 50.8179
L13.5833 50.8179
" />
<path d="M13.5833 50.8179
L13.4691 50.7893
" />
<path d="M13.4691 50.7893
L13.4119 50.7607
" />
<path d="M13.4119 50.7607
L13.3833 50.7321
" />
<path d="M13.3833 50.7321
L13.3548 50.6750
" />
<path d="M13.9548 50.2179
L13.3548 50.2179
" />
<path d="M13.7262 50.1607
L13.9548 49.9893
" />
<path d="M13.5548 49.9893
L13.7833 50.2179
" />
</g><text x="15.6150" y="37.3000"
textLength="1.5890" font-size="0.8667" lengthAdjust="spacingAndGlyphs"
text-anchor="middle" opacity="0" stroke-opacity="0">R1</text>
<g class="stroked-text"><desc>R1</desc>
<path d="M15.5067 37.2679
L15.2900 36.9584
" />
<path d="M15.1352 37.2679
L15.1352 36.6179
" />
<path d="M15.1352 36.6179
L15.3829 36.6179
" />
<path d="M15.3829 36.6179
L15.4448 36.6489
" />
<path d="M15.4448 36.6489
L15.4757 36.6798
" />
<path d="M15.4757 36.6798
L15.5067 36.7417
" />
<path d="M15.5067 36.7417
L15.5067 36.8346
" />
<path d="M15.5067 36.8346
L15.4757 36.8965
" />
<path d="M15.4757 36.8965
L15.4448 36.9274
" />
<path d="M15.4448 36.9274
L15.3829 36.9584
" />
<path d="M15.3829 36.9584
L15.1352 36.9584
" />
<path d="M16.1257 37.2679
L15.7543 37.2679
" />
<path d="M15.9400 37.2679
L15.9400 36.6179
" />
<path d="M15.9400 36.6179
L15.8781 36.7108
" />
<path d="M15.8781 36.7108
L15.8162 36.7727
" />
<path d="M15.8162 36.7727
L15.7543 36.8036
" />
</g><text x="15.4850" y="40.6250"
textLength="2.5300" font-size="0.8000" lengthAdjust="spacingAndGlyphs"
text-anchor="middle" opacity="0" stroke-opacity="0">100k</text>
<g class="stroked-text"><desc>100k</desc>
<path d="M14.8421 40.5948
L14.4993 40.5948
" />
<path d="M14.6707 40.5948
L14.6707 39.9948
" />
<path d="M14.6707 39.9948
L14.6136 40.0805
" />
<path d="M14.6136 40.0805
L14.5564 40.1376
" />
<path d="M14.5564 40.1376
L14.4993 40.1662
" />
<path d="M15.2136 39.9948
L15.2707 39.9948
" />
<path d="M15.2707 39.9948
L15.3279 40.0233
" />
<path d="M15.3279 40.0233
L15.3564 40.0519
" />
<path d="M15.3564 40.0519
L15.3850 40.1091
" />
<path d="M15.3850 40.1091
L15.4136 40.2233
" />
<path d="M15.4136 40.2233
L15.4136 40.3662
" />
<path d="M15.4136 40.3662
L15.3850 40.4805
" />
<path d="M15.3850 40.4805
L15.3564 40.5376
" />
<path d="M15.3564 40.5376
L15.3279 40.5662
" />
<path d="M15.3279 40.5662
L15.2707 40.5948
" />
<path d="M15.2707 40.5948
L15.2136 40.5948
" />
<path d="M15.2136 40.5948
L15.1564 40.5662
" />
<path d="M15.1564 40.5662
L15.1279 40.5376
" />
<path d="M15.1279 40.5376
L15.0993 40.4805
" />
<path d="M15.0993 40.4805
L15.0707 40.3662
" />
<path d="M15.0707 40.3662
L15.0707 40.2233
" />
<path d="M15.0707 40.2233
L15.0993 40.1091
" />
<path d="M15.0993 40.1091
L15.1279 40.0519
" />
<path d="M15.1279 40.0519
L15.1564 40.0233
" />
<path d="M15.1564 40.0233
L15.2136 39.9948
" />
<path d="M15.7850 39.9948
L15.8421 39.9948
" />
<path d="M15.8421 39.9948
L15.8993 40.0233
" />
<path d="M15.8993 40.0233
L15.9279 40.0519
" />
<path d="M15.9279 40.0519
L15.9564 40.1091
" />
<path d="M15.9564 40.1091
L15.9850 40.2233
" />
<path d="M15.9850 40.2233
L15.9850 40.3662
" />
<path d="M15.9850 40.3662
L15.9564 40.4805
" />
<path d="M15.9564 40.4805
L15.9279 40.5376
" />
<path d="M15.9279 40.5376
L15.8993 40.5662
" />
<path d="M15.8993 40.5662
L15.8421 40.5948
" />
<path d="M15.8421 40.5948
L15.7850 40.5948
" />
<path d="M15.7850 40.5948
L15.7279 40.5662
" />
<path d="M15.7279 40.5662
L15.6993 40.5376
" />
<path d="M15.6993 40.5376
L15.6707 40.4805
" />
<path d="M15.6707 40.4805
L15.6421 40.3662
" />
<path d="M15.6421 40.3662
L15.6421 40.2233
" />
<path d="M15.6421 40.2233
L15.6707 40.1091
" />
<path d="M15.6707 40.1091
L15.6993 40.0519
" />
<path d="M15.6993 40.0519
L15.7279 40.0233
" />
<path d="M15.7279 40.0233
L15.7850 39.9948
" />
<path d="M16.2421 40.5948
L16.2421 39.9948
" />
<path d="M16.2993 40.3662
L16.4707 40.5948
" />
<path d="M16.4707 40.1948
L16.2421 40.4233
" />
</g><text x="16.0750" y="68.3450"
textLength="1.9643" font-size="1.3333" lengthAdjust="spacingAndGlyphs"
text-anchor="middle" opacity="0" stroke-opacity="0">J3</text>
<g class="stroked-text"><desc>J3</desc>
<path d="M15.7417 67.2998
L15.7417 68.0141
" />
<path d="M15.7417 68.0141
L15.6940 68.1570
" />
<path d="M15.6940 68.1570
L15.5988 68.2522
" />
<path d="M15.5988 68.2522
L15.4560 68.2998
" />
<path d="M15.4560 68.2998
L15.3607 68.2998
" />
<path d="M16.1226 67.2998
L16.7417 67.2998
" />
<path d="M16.7417 67.2998
L16.4083 67.6808
" />
<path d="M16.4083 67.6808
L16.5512 67.6808
" />
<path d="M16.5512 67.6808
L16.6464 67.7284
" />
<path d="M16.6464 67.7284
L16.6940 67.7760
" />
<path d="M16.6940 67.7760
L16.7417 67.8712
" />
<path d="M16.7417 67.8712
L16.7417 68.1093
" />
<path d="M16.7417 68.1093
L16.6940 68.2046
" />
<path d="M16.6940 68.2046
L16.6464 68.2522
" />
<path d="M16.6464 68.2522
L16.5512 68.2998
" />
<path d="M16.5512 68.2998
L16.2655 68.2998
" />
<path d="M16.2655 68.2998
L16.1702 68.2522
" />
<path d="M16.1702 68.2522
L16.1226 68.2046
" />
</g><text x="9.0450" y="24.3950"
textLength="1.9643" font-size="1.3333" lengthAdjust="spacingAndGlyphs"
text-anchor="middle" opacity="0" stroke-opacity="0">J2</text>
<g class="stroked-text"><desc>J2</desc>
<path d="M8.7117 23.3498
L8.7117 24.0641
" />
<path d="M8.7117 24.0641
L8.6640 24.2070
" />
<path d="M8.6640 24.2070
L8.5688 24.3022
" />
<path d="M8.5688 24.3022
L8.4260 24.3498
" />
<path d="M8.4260 24.3498
L8.3307 24.3498
" />
<path d="M9.1402 23.4451
L9.1879 23.3974
" />
<path d="M9.1879 23.3974
L9.2831 23.3498
" />
<path d="M9.2831 23.3498
L9.5212 23.3498
" />
<path d="M9.5212 23.3498
L9.6164 23.3974
" />
<path d="M9.6164 23.3974
L9.6640 23.4451
" />
<path d="M9.6640 23.4451
L9.7117 23.5403
" />
<path d="M9.7117 23.5403
L9.7117 23.6355
" />
<path d="M9.7117 23.6355
L9.6640 23.7784
" />
<path d="M9.6640 23.7784
L9.0926 24.3498
" />
<path d="M9.0926 24.3498
L9.7117 24.3498
" />
</g><path d="M11.0054 55.1794
L11.4118 55.1794
" />
<path d="M11.2086 55.4080
L11.0054 55.1794
" />
<path d="M11.4372 55.1794
L11.2086 55.4080
" />
<circle cx="11.0054" cy="58.1766" r="0.2615" /> 
<path d="M11.6500 57.2700
L11.5350 57.2700
" />
<path d="M11.6500 61.4200
L11.5350 61.4200
" />
<path d="M6.5000 61.4200
L6.6150 61.4200
" />
<path d="M6.5000 57.2700
L6.6150 57.2700
" />
<path d="M11.6500 57.2700
L11.6500 61.4200
" />
<path d="M6.5000 57.2700
L6.5000 61.4200
" />
<path d="M11.5350 57.2700
L11.5350 55.8700
" />
<path d="M6.8750 51.5650
L6.8750 49.8650
" />
<path d="M8.2750 49.8650
L8.2750 51.5650
" />
<path d="M3.8750 79.9750
L3.8750 78.2750
" />
<path d="M5.2750 78.2750
L5.2750 79.9750
" />
<path d="M6.0250 32.1450
L6.0250 33.8450
" />
<path d="M4.6250 33.8450
L4.6250 32.1450
" />
<path d="M2.5150 50.0450
L4.2150 50.0450
" />
<path d="M4.2150 51.4450
L2.5150 51.4450
" />
<path d="M17.2750 50.1150
L17.2750 51.8150
" />
<path d="M15.8750 51.8150
L15.8750 50.1150
" />
<path d="M12.7750 50.0350
L12.7750 51.7350
" />
<path d="M11.3750 51.7350
L11.3750 50.0350
" />
<path d="M16.4250 39.4150
L14.7250 39.4150
" />
<path d="M14.7250 38.0150
L16.4250 38.0150
" />
</g>
<g style="fill:none; 
stroke:#F2EDA1; stroke-width:0.1200; stroke-opacity:1; 
stroke-linecap:round; stroke-linejoin:round;">
<path d="M8.5750 69.2950
L8.5750 79.7950
" />
<path d="M11.8450 66.1450
L11.8450 66.9450
" />
<path d="M11.8450 66.1450
L12.7050 66.1450
" />
<path d="M12.2750 79.7950
L8.5750 79.7950
" />
<path d="M12.3550 69.2950
L8.5750 69.2950
" />
<path d="M17.5750 69.2950
L13.7950 69.2950
" />
<path d="M17.5750 69.2950
L17.5750 79.7950
" />
<path d="M17.5750 79.7950
L13.8750 79.7950
" />
<circle cx="13.0750" cy="73.7950" r="1.8000" /> 
<path d="M8.5750 24.7950
L8.5750 35.2950
" />
<path d="M11.8450 21.6450
L11.8450 22.4450
" />
<path d="M11.8450 21.6450
L12.7050 21.6450
" />
<path d="M12.2750 35.2950
L8.5750 35.2950
" />
<path d="M12.3550 24.7950
L8.5750 24.7950
" />
<path d="M17.5750 24.7950
L13.7950 24.7950
" />
<path d="M17.5750 24.7950
L17.5750 35.2950
" />
<path d="M17.5750 35.2950
L13.8750 35.2950
" />
<circle cx="13.0750" cy="29.2950" r="1.8000" /> 
</g>
<g style="fill:none; 
stroke:#FF26E2; stroke-width:0.0500; stroke-opacity:1; 
stroke-linecap:round; stroke-linejoin:round;">
<path d="M11.8250 55.5950
L6.3250 55.5950
" />
<path d="M11.8250 63.0950
L6.3250 63.0950
" />
<path d="M11.8250 55.5950
L11.8250 63.0950
" />
<path d="M6.3250 55.5950
L6.3250 63.0950
" />
<path d="M6.8250 49.1150
L8.3250 49.1150
" />
<path d="M6.8250 52.3150
L8.3250 52.3150
" />
<path d="M8.3250 52.3150
L8.3250 49.1150
" />
<path d="M6.8250 52.3150
L6.8250 49.1150
" />
<path d="M3.8250 77.5250
L5.3250 77.5250
" />
<path d="M3.8250 80.7250
L5.3250 80.7250
" />
<path d="M5.3250 80.7250
L5.3250 77.5250
" />
<path d="M3.8250 80.7250
L3.8250 77.5250
" />
<path d="M6.0750 34.5950
L4.5750 34.5950
" />
<path d="M6.0750 31.3950
L4.5750 31.3950
" />
<path d="M4.5750 31.3950
L4.5750 34.5950
" />
<path d="M6.0750 31.3950
L6.0750 34.5950
" />
<path d="M4.9650 49.9950
L4.9650 51.4950
" />
<path d="M1.7650 49.9950
L1.7650 51.4950
" />
<path d="M1.7650 51.4950
L4.9650 51.4950
" />
<path d="M1.7650 49.9950
L4.9650 49.9950
" />
<path d="M17.3250 52.5650
L15.8250 52.5650
" />
<path d="M17.3250 49.3650
L15.8250 49.3650
" />
<path d="M15.8250 49.3650
L15.8250 52.5650
" />
<path d="M17.3250 49.3650
L17.3250 52.5650
" />
<path d="M12.8250 52.4850
L11.3250 52.4850
" />
<path d="M12.8250 49.2850
L11.3250 49.2850
" />
<path d="M11.3250 49.2850
L11.3250 52.4850
" />
<path d="M12.8250 49.2850
L12.8250 52.4850
" />
<path d="M13.9750 39.4650
L13.9750 37.9650
" />
<path d="M17.1750 39.4650
L17.1750 37.9650
" />
<path d="M17.1750 37.9650
L13.9750 37.9650
" />
<path d="M17.1750 39.4650
L13.9750 39.4650
" />
<path d="M8.0750 80.2950
L8.0750 65.8950
" />
<path d="M18.0750 65.8950
L8.0750 65.8950
" />
<path d="M18.0750 80.2950
L8.0750 80.2950
" />
<path d="M18.0750 80.2950
L18.0750 65.8950
" />
<path d="M8.0750 35.7950
L8.0750 21.3950
" />
<path d="M18.0750 21.3950
L8.0750 21.3950
" />
<path d="M18.0750 35.7950
L8.0750 35.7950
" />
<path d="M18.0750 35.7950
L18.0750 21.3950
" />
<path style="fill:none; 
stroke:#D0D2CD; stroke-width:0.0500; stroke-opacity:1; 
stroke-linecap:round; stroke-linejoin:round;fill:none"
d="M 0.0250,0.0250
19.9250,0.0250
19.9250,100.0250
0.0250,100.0250
Z" /> 
</g> 
</svg>
