<?xml version="1.0" standalone="no"?>
 <!DOCTYPE svg PUBLIC "-//W3C//DTD SVG 1.1//EN" 
 "http://www.w3.org/Graphics/SVG/1.1/DTD/svg11.dtd"> 
<svg
  xmlns:svg="http://www.w3.org/2000/svg"
  xmlns="http://www.w3.org/2000/svg"
  xmlns:xlink="http://www.w3.org/1999/xlink"
  version="1.1"
  width="100.5586mm" height="100.0252mm" viewBox="0.0000 0.0000 100.5586 100.0252">
<title>SVG Image created as mixer-F_Silkscreen.svg date 2024/12/23 12:17:46 </title>
  <desc>Image generated by PCBNEW </desc>
<g style="fill:#000000; fill-opacity:1.0000;stroke:#000000; stroke-opacity:1.0000;
stroke-linecap:round; stroke-linejoin:round;"
 transform="translate(0 0) scale(1 1)">
</g>
<g style="fill:none; 
stroke:#F2EDA1; stroke-width:0.1500; stroke-opacity:1; 
stroke-linecap:round; stroke-linejoin:round;">
<g transform="rotate(-90.000000 47.8850 89.2900)">
<text x="47.8850" y="89.7900"
textLength="4.0119" font-size="1.3333" lengthAdjust="spacingAndGlyphs"
text-anchor="middle" opacity="0" stroke-opacity="0">RV16</text>
</g>
<g class="stroked-text"><desc>RV16</desc>
<path d="M48.3398 90.3614
L47.8636 90.6948
" />
<path d="M48.3398 90.9329
L47.3398 90.9329
" />
<path d="M47.3398 90.9329
L47.3398 90.5519
" />
<path d="M47.3398 90.5519
L47.3874 90.4567
" />
<path d="M47.3874 90.4567
L47.4351 90.4090
" />
<path d="M47.4351 90.4090
L47.5303 90.3614
" />
<path d="M47.5303 90.3614
L47.6732 90.3614
" />
<path d="M47.6732 90.3614
L47.7684 90.4090
" />
<path d="M47.7684 90.4090
L47.8160 90.4567
" />
<path d="M47.8160 90.4567
L47.8636 90.5519
" />
<path d="M47.8636 90.5519
L47.8636 90.9329
" />
<path d="M47.3398 90.0757
L48.3398 89.7424
" />
<path d="M48.3398 89.7424
L47.3398 89.4090
" />
<path d="M48.3398 88.5519
L48.3398 89.1233
" />
<path d="M48.3398 88.8376
L47.3398 88.8376
" />
<path d="M47.3398 88.8376
L47.4827 88.9329
" />
<path d="M47.4827 88.9329
L47.5779 89.0281
" />
<path d="M47.5779 89.0281
L47.6255 89.1233
" />
<path d="M47.3398 87.6948
L47.3398 87.8852
" />
<path d="M47.3398 87.8852
L47.3874 87.9805
" />
<path d="M47.3874 87.9805
L47.4351 88.0281
" />
<path d="M47.4351 88.0281
L47.5779 88.1233
" />
<path d="M47.5779 88.1233
L47.7684 88.1710
" />
<path d="M47.7684 88.1710
L48.1493 88.1710
" />
<path d="M48.1493 88.1710
L48.2446 88.1233
" />
<path d="M48.2446 88.1233
L48.2922 88.0757
" />
<path d="M48.2922 88.0757
L48.3398 87.9805
" />
<path d="M48.3398 87.9805
L48.3398 87.7900
" />
<path d="M48.3398 87.7900
L48.2922 87.6948
" />
<path d="M48.2922 87.6948
L48.2446 87.6471
" />
<path d="M48.2446 87.6471
L48.1493 87.5995
" />
<path d="M48.1493 87.5995
L47.9112 87.5995
" />
<path d="M47.9112 87.5995
L47.8160 87.6471
" />
<path d="M47.8160 87.6471
L47.7684 87.6948
" />
<path d="M47.7684 87.6948
L47.7208 87.7900
" />
<path d="M47.7208 87.7900
L47.7208 87.9805
" />
<path d="M47.7208 87.9805
L47.7684 88.0757
" />
<path d="M47.7684 88.0757
L47.8160 88.1233
" />
<path d="M47.8160 88.1233
L47.9112 88.1710
" />
</g><g transform="rotate(-90.000000 27.8850 89.2900)">
<text x="27.8850" y="89.7900"
textLength="4.0119" font-size="1.3333" lengthAdjust="spacingAndGlyphs"
text-anchor="middle" opacity="0" stroke-opacity="0">RV15</text>
</g>
<g class="stroked-text"><desc>RV15</desc>
<path d="M28.3398 90.3614
L27.8636 90.6948
" />
<path d="M28.3398 90.9329
L27.3398 90.9329
" />
<path d="M27.3398 90.9329
L27.3398 90.5519
" />
<path d="M27.3398 90.5519
L27.3874 90.4567
" />
<path d="M27.3874 90.4567
L27.4351 90.4090
" />
<path d="M27.4351 90.4090
L27.5303 90.3614
" />
<path d="M27.5303 90.3614
L27.6732 90.3614
" />
<path d="M27.6732 90.3614
L27.7684 90.4090
" />
<path d="M27.7684 90.4090
L27.8160 90.4567
" />
<path d="M27.8160 90.4567
L27.8636 90.5519
" />
<path d="M27.8636 90.5519
L27.8636 90.9329
" />
<path d="M27.3398 90.0757
L28.3398 89.7424
" />
<path d="M28.3398 89.7424
L27.3398 89.4090
" />
<path d="M28.3398 88.5519
L28.3398 89.1233
" />
<path d="M28.3398 88.8376
L27.3398 88.8376
" />
<path d="M27.3398 88.8376
L27.4827 88.9329
" />
<path d="M27.4827 88.9329
L27.5779 89.0281
" />
<path d="M27.5779 89.0281
L27.6255 89.1233
" />
<path d="M27.3398 87.6471
L27.3398 88.1233
" />
<path d="M27.3398 88.1233
L27.8160 88.1710
" />
<path d="M27.8160 88.1710
L27.7684 88.1233
" />
<path d="M27.7684 88.1233
L27.7208 88.0281
" />
<path d="M27.7208 88.0281
L27.7208 87.7900
" />
<path d="M27.7208 87.7900
L27.7684 87.6948
" />
<path d="M27.7684 87.6948
L27.8160 87.6471
" />
<path d="M27.8160 87.6471
L27.9112 87.5995
" />
<path d="M27.9112 87.5995
L28.1493 87.5995
" />
<path d="M28.1493 87.5995
L28.2446 87.6471
" />
<path d="M28.2446 87.6471
L28.2922 87.6948
" />
<path d="M28.2922 87.6948
L28.3398 87.7900
" />
<path d="M28.3398 87.7900
L28.3398 88.0281
" />
<path d="M28.3398 88.0281
L28.2922 88.1233
" />
<path d="M28.2922 88.1233
L28.2446 88.1710
" />
</g><g transform="rotate(-90.000000 36.8850 72.2900)">
<text x="36.8850" y="72.7900"
textLength="4.0119" font-size="1.3333" lengthAdjust="spacingAndGlyphs"
text-anchor="middle" opacity="0" stroke-opacity="0">RV12</text>
</g>
<g class="stroked-text"><desc>RV12</desc>
<path d="M37.3398 73.3614
L36.8636 73.6948
" />
<path d="M37.3398 73.9329
L36.3398 73.9329
" />
<path d="M36.3398 73.9329
L36.3398 73.5519
" />
<path d="M36.3398 73.5519
L36.3874 73.4567
" />
<path d="M36.3874 73.4567
L36.4351 73.4090
" />
<path d="M36.4351 73.4090
L36.5303 73.3614
" />
<path d="M36.5303 73.3614
L36.6732 73.3614
" />
<path d="M36.6732 73.3614
L36.7684 73.4090
" />
<path d="M36.7684 73.4090
L36.8160 73.4567
" />
<path d="M36.8160 73.4567
L36.8636 73.5519
" />
<path d="M36.8636 73.5519
L36.8636 73.9329
" />
<path d="M36.3398 73.0757
L37.3398 72.7424
" />
<path d="M37.3398 72.7424
L36.3398 72.4090
" />
<path d="M37.3398 71.5519
L37.3398 72.1233
" />
<path d="M37.3398 71.8376
L36.3398 71.8376
" />
<path d="M36.3398 71.8376
L36.4827 71.9329
" />
<path d="M36.4827 71.9329
L36.5779 72.0281
" />
<path d="M36.5779 72.0281
L36.6255 72.1233
" />
<path d="M36.4351 71.1710
L36.3874 71.1233
" />
<path d="M36.3874 71.1233
L36.3398 71.0281
" />
<path d="M36.3398 71.0281
L36.3398 70.7900
" />
<path d="M36.3398 70.7900
L36.3874 70.6948
" />
<path d="M36.3874 70.6948
L36.4351 70.6471
" />
<path d="M36.4351 70.6471
L36.5303 70.5995
" />
<path d="M36.5303 70.5995
L36.6255 70.5995
" />
<path d="M36.6255 70.5995
L36.7684 70.6471
" />
<path d="M36.7684 70.6471
L37.3398 71.2186
" />
<path d="M37.3398 71.2186
L37.3398 70.5995
" />
</g><g transform="rotate(-90.000000 17.8850 72.2900)">
<text x="17.8850" y="72.7900"
textLength="4.0119" font-size="1.3333" lengthAdjust="spacingAndGlyphs"
text-anchor="middle" opacity="0" stroke-opacity="0">RV11</text>
</g>
<g class="stroked-text"><desc>RV11</desc>
<path d="M18.3398 73.3614
L17.8636 73.6948
" />
<path d="M18.3398 73.9329
L17.3398 73.9329
" />
<path d="M17.3398 73.9329
L17.3398 73.5519
" />
<path d="M17.3398 73.5519
L17.3874 73.4567
" />
<path d="M17.3874 73.4567
L17.4351 73.4090
" />
<path d="M17.4351 73.4090
L17.5303 73.3614
" />
<path d="M17.5303 73.3614
L17.6732 73.3614
" />
<path d="M17.6732 73.3614
L17.7684 73.4090
" />
<path d="M17.7684 73.4090
L17.8160 73.4567
" />
<path d="M17.8160 73.4567
L17.8636 73.5519
" />
<path d="M17.8636 73.5519
L17.8636 73.9329
" />
<path d="M17.3398 73.0757
L18.3398 72.7424
" />
<path d="M18.3398 72.7424
L17.3398 72.4090
" />
<path d="M18.3398 71.5519
L18.3398 72.1233
" />
<path d="M18.3398 71.8376
L17.3398 71.8376
" />
<path d="M17.3398 71.8376
L17.4827 71.9329
" />
<path d="M17.4827 71.9329
L17.5779 72.0281
" />
<path d="M17.5779 72.0281
L17.6255 72.1233
" />
<path d="M18.3398 70.5995
L18.3398 71.1710
" />
<path d="M18.3398 70.8852
L17.3398 70.8852
" />
<path d="M17.3398 70.8852
L17.4827 70.9805
" />
<path d="M17.4827 70.9805
L17.5779 71.0757
" />
<path d="M17.5779 71.0757
L17.6255 71.1710
" />
</g><g transform="rotate(-90.000000 47.8850 55.2900)">
<text x="47.8850" y="55.7900"
textLength="3.0595" font-size="1.3333" lengthAdjust="spacingAndGlyphs"
text-anchor="middle" opacity="0" stroke-opacity="0">RV9</text>
</g>
<g class="stroked-text"><desc>RV9</desc>
<path d="M48.3398 55.8852
L47.8636 56.2186
" />
<path d="M48.3398 56.4567
L47.3398 56.4567
" />
<path d="M47.3398 56.4567
L47.3398 56.0757
" />
<path d="M47.3398 56.0757
L47.3874 55.9805
" />
<path d="M47.3874 55.9805
L47.4351 55.9329
" />
<path d="M47.4351 55.9329
L47.5303 55.8852
" />
<path d="M47.5303 55.8852
L47.6732 55.8852
" />
<path d="M47.6732 55.8852
L47.7684 55.9329
" />
<path d="M47.7684 55.9329
L47.8160 55.9805
" />
<path d="M47.8160 55.9805
L47.8636 56.0757
" />
<path d="M47.8636 56.0757
L47.8636 56.4567
" />
<path d="M47.3398 55.5995
L48.3398 55.2662
" />
<path d="M48.3398 55.2662
L47.3398 54.9329
" />
<path d="M48.3398 54.5519
L48.3398 54.3614
" />
<path d="M48.3398 54.3614
L48.2922 54.2662
" />
<path d="M48.2922 54.2662
L48.2446 54.2186
" />
<path d="M48.2446 54.2186
L48.1017 54.1233
" />
<path d="M48.1017 54.1233
L47.9112 54.0757
" />
<path d="M47.9112 54.0757
L47.5303 54.0757
" />
<path d="M47.5303 54.0757
L47.4351 54.1233
" />
<path d="M47.4351 54.1233
L47.3874 54.1710
" />
<path d="M47.3874 54.1710
L47.3398 54.2662
" />
<path d="M47.3398 54.2662
L47.3398 54.4567
" />
<path d="M47.3398 54.4567
L47.3874 54.5519
" />
<path d="M47.3874 54.5519
L47.4351 54.5995
" />
<path d="M47.4351 54.5995
L47.5303 54.6471
" />
<path d="M47.5303 54.6471
L47.7684 54.6471
" />
<path d="M47.7684 54.6471
L47.8636 54.5995
" />
<path d="M47.8636 54.5995
L47.9112 54.5519
" />
<path d="M47.9112 54.5519
L47.9589 54.4567
" />
<path d="M47.9589 54.4567
L47.9589 54.2662
" />
<path d="M47.9589 54.2662
L47.9112 54.1710
" />
<path d="M47.9112 54.1710
L47.8636 54.1233
" />
<path d="M47.8636 54.1233
L47.7684 54.0757
" />
</g><g transform="rotate(-90.000000 27.8850 55.2900)">
<text x="27.8850" y="55.7900"
textLength="3.0595" font-size="1.3333" lengthAdjust="spacingAndGlyphs"
text-anchor="middle" opacity="0" stroke-opacity="0">RV8</text>
</g>
<g class="stroked-text"><desc>RV8</desc>
<path d="M28.3398 55.8852
L27.8636 56.2186
" />
<path d="M28.3398 56.4567
L27.3398 56.4567
" />
<path d="M27.3398 56.4567
L27.3398 56.0757
" />
<path d="M27.3398 56.0757
L27.3874 55.9805
" />
<path d="M27.3874 55.9805
L27.4351 55.9329
" />
<path d="M27.4351 55.9329
L27.5303 55.8852
" />
<path d="M27.5303 55.8852
L27.6732 55.8852
" />
<path d="M27.6732 55.8852
L27.7684 55.9329
" />
<path d="M27.7684 55.9329
L27.8160 55.9805
" />
<path d="M27.8160 55.9805
L27.8636 56.0757
" />
<path d="M27.8636 56.0757
L27.8636 56.4567
" />
<path d="M27.3398 55.5995
L28.3398 55.2662
" />
<path d="M28.3398 55.2662
L27.3398 54.9329
" />
<path d="M27.7684 54.4567
L27.7208 54.5519
" />
<path d="M27.7208 54.5519
L27.6732 54.5995
" />
<path d="M27.6732 54.5995
L27.5779 54.6471
" />
<path d="M27.5779 54.6471
L27.5303 54.6471
" />
<path d="M27.5303 54.6471
L27.4351 54.5995
" />
<path d="M27.4351 54.5995
L27.3874 54.5519
" />
<path d="M27.3874 54.5519
L27.3398 54.4567
" />
<path d="M27.3398 54.4567
L27.3398 54.2662
" />
<path d="M27.3398 54.2662
L27.3874 54.1710
" />
<path d="M27.3874 54.1710
L27.4351 54.1233
" />
<path d="M27.4351 54.1233
L27.5303 54.0757
" />
<path d="M27.5303 54.0757
L27.5779 54.0757
" />
<path d="M27.5779 54.0757
L27.6732 54.1233
" />
<path d="M27.6732 54.1233
L27.7208 54.1710
" />
<path d="M27.7208 54.1710
L27.7684 54.2662
" />
<path d="M27.7684 54.2662
L27.7684 54.4567
" />
<path d="M27.7684 54.4567
L27.8160 54.5519
" />
<path d="M27.8160 54.5519
L27.8636 54.5995
" />
<path d="M27.8636 54.5995
L27.9589 54.6471
" />
<path d="M27.9589 54.6471
L28.1493 54.6471
" />
<path d="M28.1493 54.6471
L28.2446 54.5995
" />
<path d="M28.2446 54.5995
L28.2922 54.5519
" />
<path d="M28.2922 54.5519
L28.3398 54.4567
" />
<path d="M28.3398 54.4567
L28.3398 54.2662
" />
<path d="M28.3398 54.2662
L28.2922 54.1710
" />
<path d="M28.2922 54.1710
L28.2446 54.1233
" />
<path d="M28.2446 54.1233
L28.1493 54.0757
" />
<path d="M28.1493 54.0757
L27.9589 54.0757
" />
<path d="M27.9589 54.0757
L27.8636 54.1233
" />
<path d="M27.8636 54.1233
L27.8160 54.1710
" />
<path d="M27.8160 54.1710
L27.7684 54.2662
" />
</g><g transform="rotate(-90.000000 36.8850 39.2900)">
<text x="36.8850" y="39.7900"
textLength="3.0595" font-size="1.3333" lengthAdjust="spacingAndGlyphs"
text-anchor="middle" opacity="0" stroke-opacity="0">RV5</text>
</g>
<g class="stroked-text"><desc>RV5</desc>
<path d="M37.3398 39.8852
L36.8636 40.2186
" />
<path d="M37.3398 40.4567
L36.3398 40.4567
" />
<path d="M36.3398 40.4567
L36.3398 40.0757
" />
<path d="M36.3398 40.0757
L36.3874 39.9805
" />
<path d="M36.3874 39.9805
L36.4351 39.9329
" />
<path d="M36.4351 39.9329
L36.5303 39.8852
" />
<path d="M36.5303 39.8852
L36.6732 39.8852
" />
<path d="M36.6732 39.8852
L36.7684 39.9329
" />
<path d="M36.7684 39.9329
L36.8160 39.9805
" />
<path d="M36.8160 39.9805
L36.8636 40.0757
" />
<path d="M36.8636 40.0757
L36.8636 40.4567
" />
<path d="M36.3398 39.5995
L37.3398 39.2662
" />
<path d="M37.3398 39.2662
L36.3398 38.9329
" />
<path d="M36.3398 38.1233
L36.3398 38.5995
" />
<path d="M36.3398 38.5995
L36.8160 38.6471
" />
<path d="M36.8160 38.6471
L36.7684 38.5995
" />
<path d="M36.7684 38.5995
L36.7208 38.5043
" />
<path d="M36.7208 38.5043
L36.7208 38.2662
" />
<path d="M36.7208 38.2662
L36.7684 38.1710
" />
<path d="M36.7684 38.1710
L36.8160 38.1233
" />
<path d="M36.8160 38.1233
L36.9112 38.0757
" />
<path d="M36.9112 38.0757
L37.1493 38.0757
" />
<path d="M37.1493 38.0757
L37.2446 38.1233
" />
<path d="M37.2446 38.1233
L37.2922 38.1710
" />
<path d="M37.2922 38.1710
L37.3398 38.2662
" />
<path d="M37.3398 38.2662
L37.3398 38.5043
" />
<path d="M37.3398 38.5043
L37.2922 38.5995
" />
<path d="M37.2922 38.5995
L37.2446 38.6471
" />
</g><g transform="rotate(-90.000000 17.8850 39.2900)">
<text x="17.8850" y="39.7900"
textLength="3.0595" font-size="1.3333" lengthAdjust="spacingAndGlyphs"
text-anchor="middle" opacity="0" stroke-opacity="0">RV4</text>
</g>
<g class="stroked-text"><desc>RV4</desc>
<path d="M18.3398 39.8852
L17.8636 40.2186
" />
<path d="M18.3398 40.4567
L17.3398 40.4567
" />
<path d="M17.3398 40.4567
L17.3398 40.0757
" />
<path d="M17.3398 40.0757
L17.3874 39.9805
" />
<path d="M17.3874 39.9805
L17.4351 39.9329
" />
<path d="M17.4351 39.9329
L17.5303 39.8852
" />
<path d="M17.5303 39.8852
L17.6732 39.8852
" />
<path d="M17.6732 39.8852
L17.7684 39.9329
" />
<path d="M17.7684 39.9329
L17.8160 39.9805
" />
<path d="M17.8160 39.9805
L17.8636 40.0757
" />
<path d="M17.8636 40.0757
L17.8636 40.4567
" />
<path d="M17.3398 39.5995
L18.3398 39.2662
" />
<path d="M18.3398 39.2662
L17.3398 38.9329
" />
<path d="M17.6732 38.1710
L18.3398 38.1710
" />
<path d="M17.2922 38.4090
L18.0065 38.6471
" />
<path d="M18.0065 38.6471
L18.0065 38.0281
" />
</g><g transform="rotate(-90.000000 47.8850 22.2900)">
<text x="47.8850" y="22.7900"
textLength="3.0595" font-size="1.3333" lengthAdjust="spacingAndGlyphs"
text-anchor="middle" opacity="0" stroke-opacity="0">RV2</text>
</g>
<g class="stroked-text"><desc>RV2</desc>
<path d="M48.3398 22.8852
L47.8636 23.2186
" />
<path d="M48.3398 23.4567
L47.3398 23.4567
" />
<path d="M47.3398 23.4567
L47.3398 23.0757
" />
<path d="M47.3398 23.0757
L47.3874 22.9805
" />
<path d="M47.3874 22.9805
L47.4351 22.9329
" />
<path d="M47.4351 22.9329
L47.5303 22.8852
" />
<path d="M47.5303 22.8852
L47.6732 22.8852
" />
<path d="M47.6732 22.8852
L47.7684 22.9329
" />
<path d="M47.7684 22.9329
L47.8160 22.9805
" />
<path d="M47.8160 22.9805
L47.8636 23.0757
" />
<path d="M47.8636 23.0757
L47.8636 23.4567
" />
<path d="M47.3398 22.5995
L48.3398 22.2662
" />
<path d="M48.3398 22.2662
L47.3398 21.9329
" />
<path d="M47.4351 21.6471
L47.3874 21.5995
" />
<path d="M47.3874 21.5995
L47.3398 21.5043
" />
<path d="M47.3398 21.5043
L47.3398 21.2662
" />
<path d="M47.3398 21.2662
L47.3874 21.1710
" />
<path d="M47.3874 21.1710
L47.4351 21.1233
" />
<path d="M47.4351 21.1233
L47.5303 21.0757
" />
<path d="M47.5303 21.0757
L47.6255 21.0757
" />
<path d="M47.6255 21.0757
L47.7684 21.1233
" />
<path d="M47.7684 21.1233
L48.3398 21.6948
" />
<path d="M48.3398 21.6948
L48.3398 21.0757
" />
</g><g transform="rotate(-90.000000 27.8850 22.2900)">
<text x="27.8850" y="22.7900"
textLength="3.0595" font-size="1.3333" lengthAdjust="spacingAndGlyphs"
text-anchor="middle" opacity="0" stroke-opacity="0">RV1</text>
</g>
<g class="stroked-text"><desc>RV1</desc>
<path d="M28.3398 22.8852
L27.8636 23.2186
" />
<path d="M28.3398 23.4567
L27.3398 23.4567
" />
<path d="M27.3398 23.4567
L27.3398 23.0757
" />
<path d="M27.3398 23.0757
L27.3874 22.9805
" />
<path d="M27.3874 22.9805
L27.4351 22.9329
" />
<path d="M27.4351 22.9329
L27.5303 22.8852
" />
<path d="M27.5303 22.8852
L27.6732 22.8852
" />
<path d="M27.6732 22.8852
L27.7684 22.9329
" />
<path d="M27.7684 22.9329
L27.8160 22.9805
" />
<path d="M27.8160 22.9805
L27.8636 23.0757
" />
<path d="M27.8636 23.0757
L27.8636 23.4567
" />
<path d="M27.3398 22.5995
L28.3398 22.2662
" />
<path d="M28.3398 22.2662
L27.3398 21.9329
" />
<path d="M28.3398 21.0757
L28.3398 21.6471
" />
<path d="M28.3398 21.3614
L27.3398 21.3614
" />
<path d="M27.3398 21.3614
L27.4827 21.4567
" />
<path d="M27.4827 21.4567
L27.5779 21.5519
" />
<path d="M27.5779 21.5519
L27.6255 21.6471
" />
</g><g transform="rotate(-90.000000 66.9650 22.6500)">
<text x="66.9650" y="23.1500"
textLength="3.0595" font-size="1.3333" lengthAdjust="spacingAndGlyphs"
text-anchor="middle" opacity="0" stroke-opacity="0">RV3</text>
</g>
<g class="stroked-text"><desc>RV3</desc>
<path d="M67.4198 23.2452
L66.9436 23.5786
" />
<path d="M67.4198 23.8167
L66.4198 23.8167
" />
<path d="M66.4198 23.8167
L66.4198 23.4357
" />
<path d="M66.4198 23.4357
L66.4674 23.3405
" />
<path d="M66.4674 23.3405
L66.5151 23.2929
" />
<path d="M66.5151 23.2929
L66.6103 23.2452
" />
<path d="M66.6103 23.2452
L66.7532 23.2452
" />
<path d="M66.7532 23.2452
L66.8484 23.2929
" />
<path d="M66.8484 23.2929
L66.8960 23.3405
" />
<path d="M66.8960 23.3405
L66.9436 23.4357
" />
<path d="M66.9436 23.4357
L66.9436 23.8167
" />
<path d="M66.4198 22.9595
L67.4198 22.6262
" />
<path d="M67.4198 22.6262
L66.4198 22.2929
" />
<path d="M66.4198 22.0548
L66.4198 21.4357
" />
<path d="M66.4198 21.4357
L66.8008 21.7690
" />
<path d="M66.8008 21.7690
L66.8008 21.6262
" />
<path d="M66.8008 21.6262
L66.8484 21.5310
" />
<path d="M66.8484 21.5310
L66.8960 21.4833
" />
<path d="M66.8960 21.4833
L66.9912 21.4357
" />
<path d="M66.9912 21.4357
L67.2293 21.4357
" />
<path d="M67.2293 21.4357
L67.3246 21.4833
" />
<path d="M67.3246 21.4833
L67.3722 21.5310
" />
<path d="M67.3722 21.5310
L67.4198 21.6262
" />
<path d="M67.4198 21.6262
L67.4198 21.9119
" />
<path d="M67.4198 21.9119
L67.3722 22.0071
" />
<path d="M67.3722 22.0071
L67.3246 22.0548
" />
</g><text x="60.0550" y="12.7250"
textLength="1.9643" font-size="1.3333" lengthAdjust="spacingAndGlyphs"
text-anchor="middle" opacity="0" stroke-opacity="0">J5</text>
<g class="stroked-text"><desc>J5</desc>
<path d="M59.7217 11.6798
L59.7217 12.3941
" />
<path d="M59.7217 12.3941
L59.6740 12.5370
" />
<path d="M59.6740 12.5370
L59.5788 12.6322
" />
<path d="M59.5788 12.6322
L59.4360 12.6798
" />
<path d="M59.4360 12.6798
L59.3407 12.6798
" />
<path d="M60.6740 11.6798
L60.1979 11.6798
" />
<path d="M60.1979 11.6798
L60.1502 12.1560
" />
<path d="M60.1502 12.1560
L60.1979 12.1084
" />
<path d="M60.1979 12.1084
L60.2931 12.0608
" />
<path d="M60.2931 12.0608
L60.5312 12.0608
" />
<path d="M60.5312 12.0608
L60.6264 12.1084
" />
<path d="M60.6264 12.1084
L60.6740 12.1560
" />
<path d="M60.6740 12.1560
L60.7217 12.2512
" />
<path d="M60.7217 12.2512
L60.7217 12.4893
" />
<path d="M60.7217 12.4893
L60.6740 12.5846
" />
<path d="M60.6740 12.5846
L60.6264 12.6322
" />
<path d="M60.6264 12.6322
L60.5312 12.6798
" />
<path d="M60.5312 12.6798
L60.2931 12.6798
" />
<path d="M60.2931 12.6798
L60.1979 12.6322
" />
<path d="M60.1979 12.6322
L60.1502 12.5846
" />
</g><g transform="rotate(-90.000000 56.4650 72.4000)">
<text x="56.4650" y="72.9000"
textLength="4.0119" font-size="1.3333" lengthAdjust="spacingAndGlyphs"
text-anchor="middle" opacity="0" stroke-opacity="0">RV13</text>
</g>
<g class="stroked-text"><desc>RV13</desc>
<path d="M56.9198 73.4714
L56.4436 73.8048
" />
<path d="M56.9198 74.0429
L55.9198 74.0429
" />
<path d="M55.9198 74.0429
L55.9198 73.6619
" />
<path d="M55.9198 73.6619
L55.9674 73.5667
" />
<path d="M55.9674 73.5667
L56.0151 73.5190
" />
<path d="M56.0151 73.5190
L56.1103 73.4714
" />
<path d="M56.1103 73.4714
L56.2532 73.4714
" />
<path d="M56.2532 73.4714
L56.3484 73.5190
" />
<path d="M56.3484 73.5190
L56.3960 73.5667
" />
<path d="M56.3960 73.5667
L56.4436 73.6619
" />
<path d="M56.4436 73.6619
L56.4436 74.0429
" />
<path d="M55.9198 73.1857
L56.9198 72.8524
" />
<path d="M56.9198 72.8524
L55.9198 72.5190
" />
<path d="M56.9198 71.6619
L56.9198 72.2333
" />
<path d="M56.9198 71.9476
L55.9198 71.9476
" />
<path d="M55.9198 71.9476
L56.0627 72.0429
" />
<path d="M56.0627 72.0429
L56.1579 72.1381
" />
<path d="M56.1579 72.1381
L56.2055 72.2333
" />
<path d="M55.9198 71.3286
L55.9198 70.7095
" />
<path d="M55.9198 70.7095
L56.3008 71.0429
" />
<path d="M56.3008 71.0429
L56.3008 70.9000
" />
<path d="M56.3008 70.9000
L56.3484 70.8048
" />
<path d="M56.3484 70.8048
L56.3960 70.7571
" />
<path d="M56.3960 70.7571
L56.4912 70.7095
" />
<path d="M56.4912 70.7095
L56.7293 70.7095
" />
<path d="M56.7293 70.7095
L56.8246 70.7571
" />
<path d="M56.8246 70.7571
L56.8722 70.8048
" />
<path d="M56.8722 70.8048
L56.9198 70.9000
" />
<path d="M56.9198 70.9000
L56.9198 71.1857
" />
<path d="M56.9198 71.1857
L56.8722 71.2810
" />
<path d="M56.8722 71.2810
L56.8246 71.3286
" />
</g><g transform="rotate(-90.000000 56.4650 39.4000)">
<text x="56.4650" y="39.9000"
textLength="3.0595" font-size="1.3333" lengthAdjust="spacingAndGlyphs"
text-anchor="middle" opacity="0" stroke-opacity="0">RV6</text>
</g>
<g class="stroked-text"><desc>RV6</desc>
<path d="M56.9198 39.9952
L56.4436 40.3286
" />
<path d="M56.9198 40.5667
L55.9198 40.5667
" />
<path d="M55.9198 40.5667
L55.9198 40.1857
" />
<path d="M55.9198 40.1857
L55.9674 40.0905
" />
<path d="M55.9674 40.0905
L56.0151 40.0429
" />
<path d="M56.0151 40.0429
L56.1103 39.9952
" />
<path d="M56.1103 39.9952
L56.2532 39.9952
" />
<path d="M56.2532 39.9952
L56.3484 40.0429
" />
<path d="M56.3484 40.0429
L56.3960 40.0905
" />
<path d="M56.3960 40.0905
L56.4436 40.1857
" />
<path d="M56.4436 40.1857
L56.4436 40.5667
" />
<path d="M55.9198 39.7095
L56.9198 39.3762
" />
<path d="M56.9198 39.3762
L55.9198 39.0429
" />
<path d="M55.9198 38.2810
L55.9198 38.4714
" />
<path d="M55.9198 38.4714
L55.9674 38.5667
" />
<path d="M55.9674 38.5667
L56.0151 38.6143
" />
<path d="M56.0151 38.6143
L56.1579 38.7095
" />
<path d="M56.1579 38.7095
L56.3484 38.7571
" />
<path d="M56.3484 38.7571
L56.7293 38.7571
" />
<path d="M56.7293 38.7571
L56.8246 38.7095
" />
<path d="M56.8246 38.7095
L56.8722 38.6619
" />
<path d="M56.8722 38.6619
L56.9198 38.5667
" />
<path d="M56.9198 38.5667
L56.9198 38.3762
" />
<path d="M56.9198 38.3762
L56.8722 38.2810
" />
<path d="M56.8722 38.2810
L56.8246 38.2333
" />
<path d="M56.8246 38.2333
L56.7293 38.1857
" />
<path d="M56.7293 38.1857
L56.4912 38.1857
" />
<path d="M56.4912 38.1857
L56.3960 38.2333
" />
<path d="M56.3960 38.2333
L56.3484 38.2810
" />
<path d="M56.3484 38.2810
L56.3008 38.3762
" />
<path d="M56.3008 38.3762
L56.3008 38.5667
" />
<path d="M56.3008 38.5667
L56.3484 38.6619
" />
<path d="M56.3484 38.6619
L56.3960 38.7095
" />
<path d="M56.3960 38.7095
L56.4912 38.7571
" />
</g><text x="10.0550" y="60.7250"
textLength="1.9643" font-size="1.3333" lengthAdjust="spacingAndGlyphs"
text-anchor="middle" opacity="0" stroke-opacity="0">J9</text>
<g class="stroked-text"><desc>J9</desc>
<path d="M9.7217 59.6798
L9.7217 60.3941
" />
<path d="M9.7217 60.3941
L9.6740 60.5370
" />
<path d="M9.6740 60.5370
L9.5788 60.6322
" />
<path d="M9.5788 60.6322
L9.4360 60.6798
" />
<path d="M9.4360 60.6798
L9.3407 60.6798
" />
<path d="M10.2455 60.6798
L10.4360 60.6798
" />
<path d="M10.4360 60.6798
L10.5312 60.6322
" />
<path d="M10.5312 60.6322
L10.5788 60.5846
" />
<path d="M10.5788 60.5846
L10.6740 60.4417
" />
<path d="M10.6740 60.4417
L10.7217 60.2512
" />
<path d="M10.7217 60.2512
L10.7217 59.8703
" />
<path d="M10.7217 59.8703
L10.6740 59.7751
" />
<path d="M10.6740 59.7751
L10.6264 59.7274
" />
<path d="M10.6264 59.7274
L10.5312 59.6798
" />
<path d="M10.5312 59.6798
L10.3407 59.6798
" />
<path d="M10.3407 59.6798
L10.2455 59.7274
" />
<path d="M10.2455 59.7274
L10.1979 59.7751
" />
<path d="M10.1979 59.7751
L10.1502 59.8703
" />
<path d="M10.1502 59.8703
L10.1502 60.1084
" />
<path d="M10.1502 60.1084
L10.1979 60.2036
" />
<path d="M10.1979 60.2036
L10.2455 60.2512
" />
<path d="M10.2455 60.2512
L10.3407 60.2989
" />
<path d="M10.3407 60.2989
L10.5312 60.2989
" />
<path d="M10.5312 60.2989
L10.6264 60.2512
" />
<path d="M10.6264 60.2512
L10.6740 60.2036
" />
<path d="M10.6740 60.2036
L10.7217 60.1084
" />
</g><text x="35.0550" y="12.7250"
textLength="1.9643" font-size="1.3333" lengthAdjust="spacingAndGlyphs"
text-anchor="middle" opacity="0" stroke-opacity="0">J3</text>
<g class="stroked-text"><desc>J3</desc>
<path d="M34.7217 11.6798
L34.7217 12.3941
" />
<path d="M34.7217 12.3941
L34.6740 12.5370
" />
<path d="M34.6740 12.5370
L34.5788 12.6322
" />
<path d="M34.5788 12.6322
L34.4360 12.6798
" />
<path d="M34.4360 12.6798
L34.3407 12.6798
" />
<path d="M35.1026 11.6798
L35.7217 11.6798
" />
<path d="M35.7217 11.6798
L35.3883 12.0608
" />
<path d="M35.3883 12.0608
L35.5312 12.0608
" />
<path d="M35.5312 12.0608
L35.6264 12.1084
" />
<path d="M35.6264 12.1084
L35.6740 12.1560
" />
<path d="M35.6740 12.1560
L35.7217 12.2512
" />
<path d="M35.7217 12.2512
L35.7217 12.4893
" />
<path d="M35.7217 12.4893
L35.6740 12.5846
" />
<path d="M35.6740 12.5846
L35.6264 12.6322
" />
<path d="M35.6264 12.6322
L35.5312 12.6798
" />
<path d="M35.5312 12.6798
L35.2455 12.6798
" />
<path d="M35.2455 12.6798
L35.1502 12.6322
" />
<path d="M35.1502 12.6322
L35.1026 12.5846
" />
</g><text x="1.9950" y="69.1050"
textLength="2.9167" font-size="1.3333" lengthAdjust="spacingAndGlyphs"
text-anchor="middle" opacity="0" stroke-opacity="0">J10</text>
<g class="stroked-text"><desc>J10</desc>
<path d="M1.1855 68.0598
L1.1855 68.7741
" />
<path d="M1.1855 68.7741
L1.1379 68.9170
" />
<path d="M1.1379 68.9170
L1.0426 69.0122
" />
<path d="M1.0426 69.0122
L0.8998 69.0598
" />
<path d="M0.8998 69.0598
L0.8045 69.0598
" />
<path d="M2.1855 69.0598
L1.6140 69.0598
" />
<path d="M1.8998 69.0598
L1.8998 68.0598
" />
<path d="M1.8998 68.0598
L1.8045 68.2027
" />
<path d="M1.8045 68.2027
L1.7093 68.2979
" />
<path d="M1.7093 68.2979
L1.6140 68.3455
" />
<path d="M2.8045 68.0598
L2.8998 68.0598
" />
<path d="M2.8998 68.0598
L2.9950 68.1074
" />
<path d="M2.9950 68.1074
L3.0426 68.1551
" />
<path d="M3.0426 68.1551
L3.0902 68.2503
" />
<path d="M3.0902 68.2503
L3.1379 68.4408
" />
<path d="M3.1379 68.4408
L3.1379 68.6789
" />
<path d="M3.1379 68.6789
L3.0902 68.8693
" />
<path d="M3.0902 68.8693
L3.0426 68.9646
" />
<path d="M3.0426 68.9646
L2.9950 69.0122
" />
<path d="M2.9950 69.0122
L2.8998 69.0598
" />
<path d="M2.8998 69.0598
L2.8045 69.0598
" />
<path d="M2.8045 69.0598
L2.7093 69.0122
" />
<path d="M2.7093 69.0122
L2.6617 68.9646
" />
<path d="M2.6617 68.9646
L2.6140 68.8693
" />
<path d="M2.6140 68.8693
L2.5664 68.6789
" />
<path d="M2.5664 68.6789
L2.5664 68.4408
" />
<path d="M2.5664 68.4408
L2.6140 68.2503
" />
<path d="M2.6140 68.2503
L2.6617 68.1551
" />
<path d="M2.6617 68.1551
L2.7093 68.1074
" />
<path d="M2.7093 68.1074
L2.8045 68.0598
" />
</g><g transform="rotate(-90.000000 66.9650 89.4000)">
<text x="66.9650" y="89.9000"
textLength="4.0119" font-size="1.3333" lengthAdjust="spacingAndGlyphs"
text-anchor="middle" opacity="0" stroke-opacity="0">RV17</text>
</g>
<g class="stroked-text"><desc>RV17</desc>
<path d="M67.4198 90.4714
L66.9436 90.8048
" />
<path d="M67.4198 91.0429
L66.4198 91.0429
" />
<path d="M66.4198 91.0429
L66.4198 90.6619
" />
<path d="M66.4198 90.6619
L66.4674 90.5667
" />
<path d="M66.4674 90.5667
L66.5151 90.5190
" />
<path d="M66.5151 90.5190
L66.6103 90.4714
" />
<path d="M66.6103 90.4714
L66.7532 90.4714
" />
<path d="M66.7532 90.4714
L66.8484 90.5190
" />
<path d="M66.8484 90.5190
L66.8960 90.5667
" />
<path d="M66.8960 90.5667
L66.9436 90.6619
" />
<path d="M66.9436 90.6619
L66.9436 91.0429
" />
<path d="M66.4198 90.1857
L67.4198 89.8524
" />
<path d="M67.4198 89.8524
L66.4198 89.5190
" />
<path d="M67.4198 88.6619
L67.4198 89.2333
" />
<path d="M67.4198 88.9476
L66.4198 88.9476
" />
<path d="M66.4198 88.9476
L66.5627 89.0429
" />
<path d="M66.5627 89.0429
L66.6579 89.1381
" />
<path d="M66.6579 89.1381
L66.7055 89.2333
" />
<path d="M66.4198 88.3286
L66.4198 87.6619
" />
<path d="M66.4198 87.6619
L67.4198 88.0905
" />
</g><g transform="rotate(-90.000000 83.4650 41.8000)">
<text x="83.4650" y="42.3000"
textLength="3.0595" font-size="1.3333" lengthAdjust="spacingAndGlyphs"
text-anchor="middle" opacity="0" stroke-opacity="0">RV7</text>
</g>
<g class="stroked-text"><desc>RV7</desc>
<path d="M83.9198 42.3952
L83.4436 42.7286
" />
<path d="M83.9198 42.9667
L82.9198 42.9667
" />
<path d="M82.9198 42.9667
L82.9198 42.5857
" />
<path d="M82.9198 42.5857
L82.9674 42.4905
" />
<path d="M82.9674 42.4905
L83.0151 42.4429
" />
<path d="M83.0151 42.4429
L83.1103 42.3952
" />
<path d="M83.1103 42.3952
L83.2532 42.3952
" />
<path d="M83.2532 42.3952
L83.3484 42.4429
" />
<path d="M83.3484 42.4429
L83.3960 42.4905
" />
<path d="M83.3960 42.4905
L83.4436 42.5857
" />
<path d="M83.4436 42.5857
L83.4436 42.9667
" />
<path d="M82.9198 42.1095
L83.9198 41.7762
" />
<path d="M83.9198 41.7762
L82.9198 41.4429
" />
<path d="M82.9198 41.2048
L82.9198 40.5381
" />
<path d="M82.9198 40.5381
L83.9198 40.9667
" />
</g><text x="23.0550" y="12.7250"
textLength="1.9643" font-size="1.3333" lengthAdjust="spacingAndGlyphs"
text-anchor="middle" opacity="0" stroke-opacity="0">J2</text>
<g class="stroked-text"><desc>J2</desc>
<path d="M22.7217 11.6798
L22.7217 12.3941
" />
<path d="M22.7217 12.3941
L22.6740 12.5370
" />
<path d="M22.6740 12.5370
L22.5788 12.6322
" />
<path d="M22.5788 12.6322
L22.4360 12.6798
" />
<path d="M22.4360 12.6798
L22.3407 12.6798
" />
<path d="M23.1502 11.7751
L23.1979 11.7274
" />
<path d="M23.1979 11.7274
L23.2931 11.6798
" />
<path d="M23.2931 11.6798
L23.5312 11.6798
" />
<path d="M23.5312 11.6798
L23.6264 11.7274
" />
<path d="M23.6264 11.7274
L23.6740 11.7751
" />
<path d="M23.6740 11.7751
L23.7217 11.8703
" />
<path d="M23.7217 11.8703
L23.7217 11.9655
" />
<path d="M23.7217 11.9655
L23.6740 12.1084
" />
<path d="M23.6740 12.1084
L23.1026 12.6798
" />
<path d="M23.1026 12.6798
L23.7217 12.6798
" />
</g><text x="10.0550" y="28.7250"
textLength="1.9643" font-size="1.3333" lengthAdjust="spacingAndGlyphs"
text-anchor="middle" opacity="0" stroke-opacity="0">J7</text>
<g class="stroked-text"><desc>J7</desc>
<path d="M9.7217 27.6798
L9.7217 28.3941
" />
<path d="M9.7217 28.3941
L9.6740 28.5370
" />
<path d="M9.6740 28.5370
L9.5788 28.6322
" />
<path d="M9.5788 28.6322
L9.4360 28.6798
" />
<path d="M9.4360 28.6798
L9.3407 28.6798
" />
<path d="M10.1026 27.6798
L10.7693 27.6798
" />
<path d="M10.7693 27.6798
L10.3407 28.6798
" />
</g><g transform="rotate(-90.000000 66.9650 55.9250)">
<text x="66.9650" y="56.4250"
textLength="4.0119" font-size="1.3333" lengthAdjust="spacingAndGlyphs"
text-anchor="middle" opacity="0" stroke-opacity="0">RV10</text>
</g>
<g class="stroked-text"><desc>RV10</desc>
<path d="M67.4198 56.9964
L66.9436 57.3298
" />
<path d="M67.4198 57.5679
L66.4198 57.5679
" />
<path d="M66.4198 57.5679
L66.4198 57.1869
" />
<path d="M66.4198 57.1869
L66.4674 57.0917
" />
<path d="M66.4674 57.0917
L66.5151 57.0440
" />
<path d="M66.5151 57.0440
L66.6103 56.9964
" />
<path d="M66.6103 56.9964
L66.7532 56.9964
" />
<path d="M66.7532 56.9964
L66.8484 57.0440
" />
<path d="M66.8484 57.0440
L66.8960 57.0917
" />
<path d="M66.8960 57.0917
L66.9436 57.1869
" />
<path d="M66.9436 57.1869
L66.9436 57.5679
" />
<path d="M66.4198 56.7107
L67.4198 56.3774
" />
<path d="M67.4198 56.3774
L66.4198 56.0440
" />
<path d="M67.4198 55.1869
L67.4198 55.7583
" />
<path d="M67.4198 55.4726
L66.4198 55.4726
" />
<path d="M66.4198 55.4726
L66.5627 55.5679
" />
<path d="M66.5627 55.5679
L66.6579 55.6631
" />
<path d="M66.6579 55.6631
L66.7055 55.7583
" />
<path d="M66.4198 54.5679
L66.4198 54.4726
" />
<path d="M66.4198 54.4726
L66.4674 54.3774
" />
<path d="M66.4674 54.3774
L66.5151 54.3298
" />
<path d="M66.5151 54.3298
L66.6103 54.2821
" />
<path d="M66.6103 54.2821
L66.8008 54.2345
" />
<path d="M66.8008 54.2345
L67.0389 54.2345
" />
<path d="M67.0389 54.2345
L67.2293 54.2821
" />
<path d="M67.2293 54.2821
L67.3246 54.3298
" />
<path d="M67.3246 54.3298
L67.3722 54.3774
" />
<path d="M67.3722 54.3774
L67.4198 54.4726
" />
<path d="M67.4198 54.4726
L67.4198 54.5679
" />
<path d="M67.4198 54.5679
L67.3722 54.6631
" />
<path d="M67.3722 54.6631
L67.3246 54.7107
" />
<path d="M67.3246 54.7107
L67.2293 54.7583
" />
<path d="M67.2293 54.7583
L67.0389 54.8060
" />
<path d="M67.0389 54.8060
L66.8008 54.8060
" />
<path d="M66.8008 54.8060
L66.6103 54.7583
" />
<path d="M66.6103 54.7583
L66.5151 54.7107
" />
<path d="M66.5151 54.7107
L66.4674 54.6631
" />
<path d="M66.4674 54.6631
L66.4198 54.5679
" />
</g><text x="10.0550" y="95.7250"
textLength="2.9167" font-size="1.3333" lengthAdjust="spacingAndGlyphs"
text-anchor="middle" opacity="0" stroke-opacity="0">J11</text>
<g class="stroked-text"><desc>J11</desc>
<path d="M9.2455 94.6798
L9.2455 95.3941
" />
<path d="M9.2455 95.3941
L9.1979 95.5370
" />
<path d="M9.1979 95.5370
L9.1026 95.6322
" />
<path d="M9.1026 95.6322
L8.9598 95.6798
" />
<path d="M8.9598 95.6798
L8.8645 95.6798
" />
<path d="M10.2455 95.6798
L9.6740 95.6798
" />
<path d="M9.9598 95.6798
L9.9598 94.6798
" />
<path d="M9.9598 94.6798
L9.8645 94.8227
" />
<path d="M9.8645 94.8227
L9.7693 94.9179
" />
<path d="M9.7693 94.9179
L9.6740 94.9655
" />
<path d="M11.1979 95.6798
L10.6264 95.6798
" />
<path d="M10.9121 95.6798
L10.9121 94.6798
" />
<path d="M10.9121 94.6798
L10.8169 94.8227
" />
<path d="M10.8169 94.8227
L10.7217 94.9179
" />
<path d="M10.7217 94.9179
L10.6264 94.9655
" />
</g><text x="10.0550" y="12.7250"
textLength="1.9643" font-size="1.3333" lengthAdjust="spacingAndGlyphs"
text-anchor="middle" opacity="0" stroke-opacity="0">J1</text>
<g class="stroked-text"><desc>J1</desc>
<path d="M9.7217 11.6798
L9.7217 12.3941
" />
<path d="M9.7217 12.3941
L9.6740 12.5370
" />
<path d="M9.6740 12.5370
L9.5788 12.6322
" />
<path d="M9.5788 12.6322
L9.4360 12.6798
" />
<path d="M9.4360 12.6798
L9.3407 12.6798
" />
<path d="M10.7217 12.6798
L10.1502 12.6798
" />
<path d="M10.4360 12.6798
L10.4360 11.6798
" />
<path d="M10.4360 11.6798
L10.3407 11.8227
" />
<path d="M10.3407 11.8227
L10.2455 11.9179
" />
<path d="M10.2455 11.9179
L10.1502 11.9655
" />
</g><text x="48.0550" y="12.7250"
textLength="1.9643" font-size="1.3333" lengthAdjust="spacingAndGlyphs"
text-anchor="middle" opacity="0" stroke-opacity="0">J4</text>
<g class="stroked-text"><desc>J4</desc>
<path d="M47.7217 11.6798
L47.7217 12.3941
" />
<path d="M47.7217 12.3941
L47.6740 12.5370
" />
<path d="M47.6740 12.5370
L47.5788 12.6322
" />
<path d="M47.5788 12.6322
L47.4360 12.6798
" />
<path d="M47.4360 12.6798
L47.3407 12.6798
" />
<path d="M48.6264 12.0132
L48.6264 12.6798
" />
<path d="M48.3883 11.6322
L48.1502 12.3465
" />
<path d="M48.1502 12.3465
L48.7693 12.3465
" />
</g><text x="1.9950" y="36.1050"
textLength="1.9643" font-size="1.3333" lengthAdjust="spacingAndGlyphs"
text-anchor="middle" opacity="0" stroke-opacity="0">J8</text>
<g class="stroked-text"><desc>J8</desc>
<path d="M1.6617 35.0598
L1.6617 35.7741
" />
<path d="M1.6617 35.7741
L1.6140 35.9170
" />
<path d="M1.6140 35.9170
L1.5188 36.0122
" />
<path d="M1.5188 36.0122
L1.3760 36.0598
" />
<path d="M1.3760 36.0598
L1.2807 36.0598
" />
<path d="M2.2807 35.4884
L2.1855 35.4408
" />
<path d="M2.1855 35.4408
L2.1379 35.3932
" />
<path d="M2.1379 35.3932
L2.0902 35.2979
" />
<path d="M2.0902 35.2979
L2.0902 35.2503
" />
<path d="M2.0902 35.2503
L2.1379 35.1551
" />
<path d="M2.1379 35.1551
L2.1855 35.1074
" />
<path d="M2.1855 35.1074
L2.2807 35.0598
" />
<path d="M2.2807 35.0598
L2.4712 35.0598
" />
<path d="M2.4712 35.0598
L2.5664 35.1074
" />
<path d="M2.5664 35.1074
L2.6140 35.1551
" />
<path d="M2.6140 35.1551
L2.6617 35.2503
" />
<path d="M2.6617 35.2503
L2.6617 35.2979
" />
<path d="M2.6617 35.2979
L2.6140 35.3932
" />
<path d="M2.6140 35.3932
L2.5664 35.4408
" />
<path d="M2.5664 35.4408
L2.4712 35.4884
" />
<path d="M2.4712 35.4884
L2.2807 35.4884
" />
<path d="M2.2807 35.4884
L2.1855 35.5360
" />
<path d="M2.1855 35.5360
L2.1379 35.5836
" />
<path d="M2.1379 35.5836
L2.0902 35.6789
" />
<path d="M2.0902 35.6789
L2.0902 35.8693
" />
<path d="M2.0902 35.8693
L2.1379 35.9646
" />
<path d="M2.1379 35.9646
L2.1855 36.0122
" />
<path d="M2.1855 36.0122
L2.2807 36.0598
" />
<path d="M2.2807 36.0598
L2.4712 36.0598
" />
<path d="M2.4712 36.0598
L2.5664 36.0122
" />
<path d="M2.5664 36.0122
L2.6140 35.9646
" />
<path d="M2.6140 35.9646
L2.6617 35.8693
" />
<path d="M2.6617 35.8693
L2.6617 35.6789
" />
<path d="M2.6617 35.6789
L2.6140 35.5836
" />
<path d="M2.6140 35.5836
L2.5664 35.5360
" />
<path d="M2.5664 35.5360
L2.4712 35.4884
" />
</g><g transform="rotate(-90.000000 83.4650 75.5200)">
<text x="83.4650" y="76.0200"
textLength="4.0119" font-size="1.3333" lengthAdjust="spacingAndGlyphs"
text-anchor="middle" opacity="0" stroke-opacity="0">RV14</text>
</g>
<g class="stroked-text"><desc>RV14</desc>
<path d="M83.9198 76.5914
L83.4436 76.9248
" />
<path d="M83.9198 77.1629
L82.9198 77.1629
" />
<path d="M82.9198 77.1629
L82.9198 76.7819
" />
<path d="M82.9198 76.7819
L82.9674 76.6867
" />
<path d="M82.9674 76.6867
L83.0151 76.6390
" />
<path d="M83.0151 76.6390
L83.1103 76.5914
" />
<path d="M83.1103 76.5914
L83.2532 76.5914
" />
<path d="M83.2532 76.5914
L83.3484 76.6390
" />
<path d="M83.3484 76.6390
L83.3960 76.6867
" />
<path d="M83.3960 76.6867
L83.4436 76.7819
" />
<path d="M83.4436 76.7819
L83.4436 77.1629
" />
<path d="M82.9198 76.3057
L83.9198 75.9724
" />
<path d="M83.9198 75.9724
L82.9198 75.6390
" />
<path d="M83.9198 74.7819
L83.9198 75.3533
" />
<path d="M83.9198 75.0676
L82.9198 75.0676
" />
<path d="M82.9198 75.0676
L83.0627 75.1629
" />
<path d="M83.0627 75.1629
L83.1579 75.2581
" />
<path d="M83.1579 75.2581
L83.2055 75.3533
" />
<path d="M83.2532 73.9248
L83.9198 73.9248
" />
<path d="M82.8722 74.1629
L83.5865 74.4010
" />
<path d="M83.5865 74.4010
L83.5865 73.7819
" />
</g><text x="72.0550" y="12.7250"
textLength="1.9643" font-size="1.3333" lengthAdjust="spacingAndGlyphs"
text-anchor="middle" opacity="0" stroke-opacity="0">J6</text>
<g class="stroked-text"><desc>J6</desc>
<path d="M71.7217 11.6798
L71.7217 12.3941
" />
<path d="M71.7217 12.3941
L71.6740 12.5370
" />
<path d="M71.6740 12.5370
L71.5788 12.6322
" />
<path d="M71.5788 12.6322
L71.4360 12.6798
" />
<path d="M71.4360 12.6798
L71.3407 12.6798
" />
<path d="M72.6264 11.6798
L72.4360 11.6798
" />
<path d="M72.4360 11.6798
L72.3407 11.7274
" />
<path d="M72.3407 11.7274
L72.2931 11.7751
" />
<path d="M72.2931 11.7751
L72.1979 11.9179
" />
<path d="M72.1979 11.9179
L72.1502 12.1084
" />
<path d="M72.1502 12.1084
L72.1502 12.4893
" />
<path d="M72.1502 12.4893
L72.1979 12.5846
" />
<path d="M72.1979 12.5846
L72.2455 12.6322
" />
<path d="M72.2455 12.6322
L72.3407 12.6798
" />
<path d="M72.3407 12.6798
L72.5312 12.6798
" />
<path d="M72.5312 12.6798
L72.6264 12.6322
" />
<path d="M72.6264 12.6322
L72.6740 12.5846
" />
<path d="M72.6740 12.5846
L72.7217 12.4893
" />
<path d="M72.7217 12.4893
L72.7217 12.2512
" />
<path d="M72.7217 12.2512
L72.6740 12.1560
" />
<path d="M72.6740 12.1560
L72.6264 12.1084
" />
<path d="M72.6264 12.1084
L72.5312 12.0608
" />
<path d="M72.5312 12.0608
L72.3407 12.0608
" />
<path d="M72.3407 12.0608
L72.2455 12.1084
" />
<path d="M72.2455 12.1084
L72.1979 12.1560
" />
<path d="M72.1979 12.1560
L72.1502 12.2512
" />
</g></g>
<g style="fill:none; 
stroke:#F2EDA1; stroke-width:0.1200; stroke-opacity:1; 
stroke-linecap:round; stroke-linejoin:round;">
<path d="M50.1450 95.1200
L50.1450 90.4000
" />
<path d="M51.3350 95.1200
L50.1550 95.1200
" />
<path d="M54.2350 95.1200
L53.7050 95.1200
" />
<path d="M56.6850 95.1200
L55.8550 95.1200
" />
<path d="M59.8950 95.1200
L58.4050 95.1200
" />
<path d="M59.8950 95.1200
L59.8950 90.4000
" />
<path d="M50.1550 86.5900
L50.1550 83.5300
" />
<path d="M59.8950 86.5900
L59.8950 83.5300
" />
<path d="M59.8950 83.5300
L50.1550 83.5300
" />
<path d="M30.1450 95.1200
L30.1450 90.4000
" />
<path d="M31.3350 95.1200
L30.1550 95.1200
" />
<path d="M34.2350 95.1200
L33.7050 95.1200
" />
<path d="M36.6850 95.1200
L35.8550 95.1200
" />
<path d="M39.8950 95.1200
L38.4050 95.1200
" />
<path d="M39.8950 95.1200
L39.8950 90.4000
" />
<path d="M30.1550 86.5900
L30.1550 83.5300
" />
<path d="M39.8950 86.5900
L39.8950 83.5300
" />
<path d="M39.8950 83.5300
L30.1550 83.5300
" />
<path d="M39.1450 78.1200
L39.1450 73.4000
" />
<path d="M40.3350 78.1200
L39.1550 78.1200
" />
<path d="M43.2350 78.1200
L42.7050 78.1200
" />
<path d="M45.6850 78.1200
L44.8550 78.1200
" />
<path d="M48.8950 78.1200
L47.4050 78.1200
" />
<path d="M48.8950 78.1200
L48.8950 73.4000
" />
<path d="M39.1550 69.5900
L39.1550 66.5300
" />
<path d="M48.8950 69.5900
L48.8950 66.5300
" />
<path d="M48.8950 66.5300
L39.1550 66.5300
" />
<path d="M20.1450 78.1200
L20.1450 73.4000
" />
<path d="M21.3350 78.1200
L20.1550 78.1200
" />
<path d="M24.2350 78.1200
L23.7050 78.1200
" />
<path d="M26.6850 78.1200
L25.8550 78.1200
" />
<path d="M29.8950 78.1200
L28.4050 78.1200
" />
<path d="M29.8950 78.1200
L29.8950 73.4000
" />
<path d="M20.1550 69.5900
L20.1550 66.5300
" />
<path d="M29.8950 69.5900
L29.8950 66.5300
" />
<path d="M29.8950 66.5300
L20.1550 66.5300
" />
<path d="M50.1450 61.1200
L50.1450 56.4000
" />
<path d="M51.3350 61.1200
L50.1550 61.1200
" />
<path d="M54.2350 61.1200
L53.7050 61.1200
" />
<path d="M56.6850 61.1200
L55.8550 61.1200
" />
<path d="M59.8950 61.1200
L58.4050 61.1200
" />
<path d="M59.8950 61.1200
L59.8950 56.4000
" />
<path d="M50.1550 52.5900
L50.1550 49.5300
" />
<path d="M59.8950 52.5900
L59.8950 49.5300
" />
<path d="M59.8950 49.5300
L50.1550 49.5300
" />
<path d="M30.1450 61.1200
L30.1450 56.4000
" />
<path d="M31.3350 61.1200
L30.1550 61.1200
" />
<path d="M34.2350 61.1200
L33.7050 61.1200
" />
<path d="M36.6850 61.1200
L35.8550 61.1200
" />
<path d="M39.8950 61.1200
L38.4050 61.1200
" />
<path d="M39.8950 61.1200
L39.8950 56.4000
" />
<path d="M30.1550 52.5900
L30.1550 49.5300
" />
<path d="M39.8950 52.5900
L39.8950 49.5300
" />
<path d="M39.8950 49.5300
L30.1550 49.5300
" />
<path d="M39.1450 45.1200
L39.1450 40.4000
" />
<path d="M40.3350 45.1200
L39.1550 45.1200
" />
<path d="M43.2350 45.1200
L42.7050 45.1200
" />
<path d="M45.6850 45.1200
L44.8550 45.1200
" />
<path d="M48.8950 45.1200
L47.4050 45.1200
" />
<path d="M48.8950 45.1200
L48.8950 40.4000
" />
<path d="M39.1550 36.5900
L39.1550 33.5300
" />
<path d="M48.8950 36.5900
L48.8950 33.5300
" />
<path d="M48.8950 33.5300
L39.1550 33.5300
" />
<path d="M20.1450 45.1200
L20.1450 40.4000
" />
<path d="M21.3350 45.1200
L20.1550 45.1200
" />
<path d="M24.2350 45.1200
L23.7050 45.1200
" />
<path d="M26.6850 45.1200
L25.8550 45.1200
" />
<path d="M29.8950 45.1200
L28.4050 45.1200
" />
<path d="M29.8950 45.1200
L29.8950 40.4000
" />
<path d="M20.1550 36.5900
L20.1550 33.5300
" />
<path d="M29.8950 36.5900
L29.8950 33.5300
" />
<path d="M29.8950 33.5300
L20.1550 33.5300
" />
<path d="M50.1450 28.1200
L50.1450 23.4000
" />
<path d="M51.3350 28.1200
L50.1550 28.1200
" />
<path d="M54.2350 28.1200
L53.7050 28.1200
" />
<path d="M56.6850 28.1200
L55.8550 28.1200
" />
<path d="M59.8950 28.1200
L58.4050 28.1200
" />
<path d="M59.8950 28.1200
L59.8950 23.4000
" />
<path d="M50.1550 19.5900
L50.1550 16.5300
" />
<path d="M59.8950 19.5900
L59.8950 16.5300
" />
<path d="M59.8950 16.5300
L50.1550 16.5300
" />
<path d="M30.1450 28.1200
L30.1450 23.4000
" />
<path d="M31.3350 28.1200
L30.1550 28.1200
" />
<path d="M34.2350 28.1200
L33.7050 28.1200
" />
<path d="M36.6850 28.1200
L35.8550 28.1200
" />
<path d="M39.8950 28.1200
L38.4050 28.1200
" />
<path d="M39.8950 28.1200
L39.8950 23.4000
" />
<path d="M30.1550 19.5900
L30.1550 16.5300
" />
<path d="M39.8950 19.5900
L39.8950 16.5300
" />
<path d="M39.8950 16.5300
L30.1550 16.5300
" />
<path d="M69.6550 19.5900
L69.6550 16.5300
" />
<path d="M69.6550 28.1200
L69.6550 23.4000
" />
<path d="M70.8350 28.1200
L69.6550 28.1200
" />
<path d="M73.7350 28.1200
L73.2050 28.1200
" />
<path d="M76.1850 28.1200
L75.3550 28.1200
" />
<path d="M79.3950 16.5300
L69.6550 16.5300
" />
<path d="M79.3950 19.5900
L79.3950 16.5300
" />
<path d="M79.3950 28.1200
L77.9050 28.1200
" />
<path d="M79.3950 28.1200
L79.3950 23.4000
" />
<path d="M51.5250 0.8250
L55.2250 0.8250
" />
<path d="M51.5250 11.3250
L51.5250 0.8250
" />
<path d="M51.5250 11.3250
L55.3050 11.3250
" />
<path d="M56.7450 11.3250
L60.5250 11.3250
" />
<path d="M56.8250 0.8250
L60.5250 0.8250
" />
<path d="M57.2550 14.4750
L56.3950 14.4750
" />
<path d="M57.2550 14.4750
L57.2550 13.6750
" />
<path d="M60.5250 11.3250
L60.5250 0.8250
" />
<circle cx="56.0250" cy="6.8250" r="1.8000" /> 
<path d="M59.1550 69.3400
L59.1550 66.2800
" />
<path d="M59.1550 77.8700
L59.1550 73.1500
" />
<path d="M60.3350 77.8700
L59.1550 77.8700
" />
<path d="M63.2350 77.8700
L62.7050 77.8700
" />
<path d="M65.6850 77.8700
L64.8550 77.8700
" />
<path d="M68.8950 66.2800
L59.1550 66.2800
" />
<path d="M68.8950 69.3400
L68.8950 66.2800
" />
<path d="M68.8950 77.8700
L67.4050 77.8700
" />
<path d="M68.8950 77.8700
L68.8950 73.1500
" />
<path d="M59.1550 36.3400
L59.1550 33.2800
" />
<path d="M59.1550 44.8700
L59.1550 40.1500
" />
<path d="M60.3350 44.8700
L59.1550 44.8700
" />
<path d="M63.2350 44.8700
L62.7050 44.8700
" />
<path d="M65.6850 44.8700
L64.8550 44.8700
" />
<path d="M68.8950 33.2800
L59.1550 33.2800
" />
<path d="M68.8950 36.3400
L68.8950 33.2800
" />
<path d="M68.8950 44.8700
L67.4050 44.8700
" />
<path d="M68.8950 44.8700
L68.8950 40.1500
" />
<path d="M1.5250 48.8250
L5.2250 48.8250
" />
<path d="M1.5250 59.3250
L1.5250 48.8250
" />
<path d="M1.5250 59.3250
L5.3050 59.3250
" />
<path d="M6.7450 59.3250
L10.5250 59.3250
" />
<path d="M6.8250 48.8250
L10.5250 48.8250
" />
<path d="M7.2550 62.4750
L6.3950 62.4750
" />
<path d="M7.2550 62.4750
L7.2550 61.6750
" />
<path d="M10.5250 59.3250
L10.5250 48.8250
" />
<circle cx="6.0250" cy="54.8250" r="1.8000" /> 
<path d="M26.5250 0.8250
L30.2250 0.8250
" />
<path d="M26.5250 11.3250
L26.5250 0.8250
" />
<path d="M26.5250 11.3250
L30.3050 11.3250
" />
<path d="M31.7450 11.3250
L35.5250 11.3250
" />
<path d="M31.8250 0.8250
L35.5250 0.8250
" />
<path d="M32.2550 14.4750
L31.3950 14.4750
" />
<path d="M32.2550 14.4750
L32.2550 13.6750
" />
<path d="M35.5250 11.3250
L35.5250 0.8250
" />
<circle cx="31.0250" cy="6.8250" r="1.8000" /> 
<path d="M1.5250 69.5050
L1.5250 80.0050
" />
<path d="M4.7950 66.3550
L4.7950 67.1550
" />
<path d="M4.7950 66.3550
L5.6550 66.3550
" />
<path d="M5.2250 80.0050
L1.5250 80.0050
" />
<path d="M5.3050 69.5050
L1.5250 69.5050
" />
<path d="M10.5250 69.5050
L6.7450 69.5050
" />
<path d="M10.5250 69.5050
L10.5250 80.0050
" />
<path d="M10.5250 80.0050
L6.8250 80.0050
" />
<circle cx="6.0250" cy="74.0050" r="1.8000" /> 
<path d="M69.6550 86.3400
L69.6550 83.2800
" />
<path d="M69.6550 94.8700
L69.6550 90.1500
" />
<path d="M70.8350 94.8700
L69.6550 94.8700
" />
<path d="M73.7350 94.8700
L73.2050 94.8700
" />
<path d="M76.1850 94.8700
L75.3550 94.8700
" />
<path d="M79.3950 83.2800
L69.6550 83.2800
" />
<path d="M79.3950 86.3400
L79.3950 83.2800
" />
<path d="M79.3950 94.8700
L77.9050 94.8700
" />
<path d="M79.3950 94.8700
L79.3950 90.1500
" />
<path d="M86.1550 38.7400
L86.1550 35.6800
" />
<path d="M86.1550 47.2700
L86.1550 42.5500
" />
<path d="M87.3350 47.2700
L86.1550 47.2700
" />
<path d="M90.2350 47.2700
L89.7050 47.2700
" />
<path d="M92.6850 47.2700
L91.8550 47.2700
" />
<path d="M95.8950 35.6800
L86.1550 35.6800
" />
<path d="M95.8950 38.7400
L95.8950 35.6800
" />
<path d="M95.8950 47.2700
L94.4050 47.2700
" />
<path d="M95.8950 47.2700
L95.8950 42.5500
" />
<path d="M14.5250 0.8250
L18.2250 0.8250
" />
<path d="M14.5250 11.3250
L14.5250 0.8250
" />
<path d="M14.5250 11.3250
L18.3050 11.3250
" />
<path d="M19.7450 11.3250
L23.5250 11.3250
" />
<path d="M19.8250 0.8250
L23.5250 0.8250
" />
<path d="M20.2550 14.4750
L19.3950 14.4750
" />
<path d="M20.2550 14.4750
L20.2550 13.6750
" />
<path d="M23.5250 11.3250
L23.5250 0.8250
" />
<circle cx="19.0250" cy="6.8250" r="1.8000" /> 
<path d="M1.5250 16.8250
L5.2250 16.8250
" />
<path d="M1.5250 27.3250
L1.5250 16.8250
" />
<path d="M1.5250 27.3250
L5.3050 27.3250
" />
<path d="M6.7450 27.3250
L10.5250 27.3250
" />
<path d="M6.8250 16.8250
L10.5250 16.8250
" />
<path d="M7.2550 30.4750
L6.3950 30.4750
" />
<path d="M7.2550 30.4750
L7.2550 29.6750
" />
<path d="M10.5250 27.3250
L10.5250 16.8250
" />
<circle cx="6.0250" cy="22.8250" r="1.8000" /> 
<path d="M69.6550 52.8650
L69.6550 49.8050
" />
<path d="M69.6550 61.3950
L69.6550 56.6750
" />
<path d="M70.8350 61.3950
L69.6550 61.3950
" />
<path d="M73.7350 61.3950
L73.2050 61.3950
" />
<path d="M76.1850 61.3950
L75.3550 61.3950
" />
<path d="M79.3950 49.8050
L69.6550 49.8050
" />
<path d="M79.3950 52.8650
L79.3950 49.8050
" />
<path d="M79.3950 61.3950
L77.9050 61.3950
" />
<path d="M79.3950 61.3950
L79.3950 56.6750
" />
<path d="M1.5250 83.8250
L5.2250 83.8250
" />
<path d="M1.5250 94.3250
L1.5250 83.8250
" />
<path d="M1.5250 94.3250
L5.3050 94.3250
" />
<path d="M6.7450 94.3250
L10.5250 94.3250
" />
<path d="M6.8250 83.8250
L10.5250 83.8250
" />
<path d="M7.2550 97.4750
L6.3950 97.4750
" />
<path d="M7.2550 97.4750
L7.2550 96.6750
" />
<path d="M10.5250 94.3250
L10.5250 83.8250
" />
<circle cx="6.0250" cy="89.8250" r="1.8000" /> 
<path d="M1.5250 0.8250
L5.2250 0.8250
" />
<path d="M1.5250 11.3250
L1.5250 0.8250
" />
<path d="M1.5250 11.3250
L5.3050 11.3250
" />
<path d="M6.7450 11.3250
L10.5250 11.3250
" />
<path d="M6.8250 0.8250
L10.5250 0.8250
" />
<path d="M7.2550 14.4750
L6.3950 14.4750
" />
<path d="M7.2550 14.4750
L7.2550 13.6750
" />
<path d="M10.5250 11.3250
L10.5250 0.8250
" />
<circle cx="6.0250" cy="6.8250" r="1.8000" /> 
<path d="M39.5250 0.8250
L43.2250 0.8250
" />
<path d="M39.5250 11.3250
L39.5250 0.8250
" />
<path d="M39.5250 11.3250
L43.3050 11.3250
" />
<path d="M44.7450 11.3250
L48.5250 11.3250
" />
<path d="M44.8250 0.8250
L48.5250 0.8250
" />
<path d="M45.2550 14.4750
L44.3950 14.4750
" />
<path d="M45.2550 14.4750
L45.2550 13.6750
" />
<path d="M48.5250 11.3250
L48.5250 0.8250
" />
<circle cx="44.0250" cy="6.8250" r="1.8000" /> 
<path d="M1.5250 36.5050
L1.5250 47.0050
" />
<path d="M4.7950 33.3550
L4.7950 34.1550
" />
<path d="M4.7950 33.3550
L5.6550 33.3550
" />
<path d="M5.2250 47.0050
L1.5250 47.0050
" />
<path d="M5.3050 36.5050
L1.5250 36.5050
" />
<path d="M10.5250 36.5050
L6.7450 36.5050
" />
<path d="M10.5250 36.5050
L10.5250 47.0050
" />
<path d="M10.5250 47.0050
L6.8250 47.0050
" />
<circle cx="6.0250" cy="41.0050" r="1.8000" /> 
<path d="M86.1550 72.4600
L86.1550 69.4000
" />
<path d="M86.1550 80.9900
L86.1550 76.2700
" />
<path d="M87.3350 80.9900
L86.1550 80.9900
" />
<path d="M90.2350 80.9900
L89.7050 80.9900
" />
<path d="M92.6850 80.9900
L91.8550 80.9900
" />
<path d="M95.8950 69.4000
L86.1550 69.4000
" />
<path d="M95.8950 72.4600
L95.8950 69.4000
" />
<path d="M95.8950 80.9900
L94.4050 80.9900
" />
<path d="M95.8950 80.9900
L95.8950 76.2700
" />
<path d="M63.5250 0.8250
L67.2250 0.8250
" />
<path d="M63.5250 11.3250
L63.5250 0.8250
" />
<path d="M63.5250 11.3250
L67.3050 11.3250
" />
<path d="M68.7450 11.3250
L72.5250 11.3250
" />
<path d="M68.8250 0.8250
L72.5250 0.8250
" />
<path d="M69.2550 14.4750
L68.3950 14.4750
" />
<path d="M69.2550 14.4750
L69.2550 13.6750
" />
<path d="M72.5250 11.3250
L72.5250 0.8250
" />
<circle cx="68.0250" cy="6.8250" r="1.8000" /> 
<path style="fill:none; 
stroke:#D0D2CD; stroke-width:0.0500; stroke-opacity:1; 
stroke-linecap:round; stroke-linejoin:round;fill:none"
d="M 0.0250,0.0250
100.0250,0.0250
100.0250,100.0250
0.0250,100.0250
Z" /> 
</g> 
</svg>
