<svg xmlns="http://www.w3.org/2000/svg" width="840" height="1517.7166">
    <defs />
    <g transform="matrix(11.811024 0 0 11.811024 0 0.00006104)">
        <g id="layer2">
            <g id="g721">
                <path id="rect711" fill="#e6e6e6" stroke="none" d="M 0 0 L 70.76 0 L 70.76 128.5 L 0 128.5 Z" />
                <path id="rect713" fill="#ffffff" stroke="none" d="M 6.35 123.90001 L 8.65 123.90001 L 10.25 123.90001 L 10.25 127.1 L 8.65 127.1 L 6.35 127.1 L 4.75 127.1 L 4.75 123.90001 L 6.35 123.90001 Z" />
                <path id="rect715" fill="#ffffff" stroke="none" d="M 6.35 1.4 L 8.65 1.4 L 10.25 1.4 L 10.25 4.6 L 8.65 4.6 L 6.35 4.6 L 4.75 4.6 L 4.75 1.4 L 6.35 1.4 Z" />
                <path id="rect717" fill="#ffffff" stroke="none" d="M 62.23 123.90001 L 64.53001 123.90001 L 66.130005 123.90001 L 66.130005 127.1 L 64.53001 127.1 L 62.23 127.1 L 60.63 127.1 L 60.63 123.90001 L 62.23 123.90001 Z" />
                <path id="rect719" fill="#ffffff" stroke="none" d="M 62.23 1.4 L 64.53001 1.4 L 66.130005 1.4 L 66.130005 4.6 L 64.53001 4.6 L 62.23 4.6 L 60.63 4.6 L 60.63 1.4 L 62.23 1.4 Z" />
            </g>
        </g>
        <g id="layer1">
            <path id="path355-3" fill="#ffff00" stroke="none" d="M 34.163162 100.03734 C 34.163162 100.86576 33.49159 101.53733 32.663162 101.53733 C 31.834736 101.53733 31.163162 100.86576 31.163162 100.03734 C 31.163162 99.2089 31.834736 98.53733 32.663162 98.53733 C 33.49159 98.53733 34.163162 99.2089 34.163162 100.03734 Z" />
            <path id="path355-2" fill="#ffff00" stroke="none" d="M 38.75589 100.03734 C 38.75589 100.86576 38.084316 101.53733 37.25589 101.53733 C 36.427464 101.53733 35.75589 100.86576 35.75589 100.03734 C 35.75589 99.2089 36.427464 98.53733 37.25589 98.53733 C 38.084316 98.53733 38.75589 99.2089 38.75589 100.03734 Z" />
            <path id="path355-8" fill="#ffff00" stroke="none" d="M 29.570435 100.03734 C 29.570435 100.86576 28.898863 101.53733 28.070436 101.53733 C 27.242006 101.53733 26.570435 100.86576 26.570435 100.03734 C 26.570435 99.2089 27.242006 98.53733 28.070436 98.53733 C 28.898863 98.53733 29.570435 99.2089 29.570435 100.03734 Z" />
            <path id="path355-1" fill="#ffff00" stroke="none" d="M 24.977703 100.03734 C 24.977703 100.86576 24.30613 101.53733 23.477703 101.53733 C 22.649277 101.53733 21.977703 100.86576 21.977703 100.03734 C 21.977703 99.2089 22.649277 98.53733 23.477703 98.53733 C 24.30613 98.53733 24.977703 99.2089 24.977703 100.03734 Z" />
            <path id="rect5959" fill="#000000" stroke="none" d="M 17.715393 110.57463 L 50.676796 110.57463 L 50.676796 119.61631 L 17.715393 119.61631 Z" />
            <path id="path355" fill="#ffff00" stroke="none" d="M 20.384975 100.03734 C 20.384975 100.86576 19.713402 101.53733 18.884975 101.53733 C 18.05655 101.53733 17.384975 100.86576 17.384975 100.03734 C 17.384975 99.2089 18.05655 98.53733 18.884975 98.53733 C 19.713402 98.53733 20.384975 99.2089 20.384975 100.03734 Z" />
            <path id="rect5959-3" fill="#000000" stroke="none" d="M 35.996357 22.011229 L 56.976936 22.011229 L 56.976936 31.0529 L 35.996357 31.0529 Z" />
            <path id="path355-82" fill="#ffff00" stroke="none" d="M 29.590528 78.30066 C 29.590528 79.12909 28.918955 79.80066 28.090528 79.80066 C 27.262102 79.80066 26.590528 79.12909 26.590528 78.30066 C 26.590528 77.47223 27.262102 76.80066 28.090528 76.80066 C 28.918955 76.80066 29.590528 77.47223 29.590528 78.30066 Z" />
            <path id="path355-1-9-7" fill="#ffff00" stroke="none" d="M 29.590528 74.497734 C 29.590528 75.326164 28.918955 75.997734 28.090528 75.997734 C 27.262102 75.997734 26.590528 75.326164 26.590528 74.497734 C 26.590528 73.669304 27.262102 72.997734 28.090528 72.997734 C 28.918955 72.997734 29.590528 73.669304 29.590528 74.497734 Z" />
            <path id="path355-82-7" fill="#ffff00" stroke="none" d="M 29.978085 89.19937 C 29.978085 90.027794 29.30651 90.69936 28.478085 90.69936 C 27.649658 90.69936 26.978085 90.027794 26.978085 89.19937 C 26.978085 88.37094 27.649658 87.69937 28.478085 87.69937 C 29.30651 87.69937 29.978085 88.37094 29.978085 89.19937 Z" />
            <path id="path355-1-9-7-0" fill="#ffff00" stroke="none" d="M 25.557936 89.19937 C 25.557936 90.027794 24.886364 90.69936 24.057938 90.69936 C 23.229511 90.69936 22.557936 90.027794 22.557936 89.19937 C 22.557936 88.37094 23.229511 87.69937 24.057938 87.69937 C 24.886364 87.69937 25.557936 88.37094 25.557936 89.19937 Z" />
            <path id="path355-82-7-2" fill="#ffff00" stroke="none" d="M 38.58331 89.19937 C 38.58331 90.027794 37.911736 90.69936 37.08331 90.69936 C 36.254883 90.69936 35.58331 90.027794 35.58331 89.19937 C 35.58331 88.37094 36.254883 87.69937 37.08331 87.69937 C 37.911736 87.69937 38.58331 88.37094 38.58331 89.19937 Z" />
            <path id="path355-1-9-7-0-6" fill="#ffff00" stroke="none" d="M 34.163162 89.19937 C 34.163162 90.027794 33.49159 90.69936 32.663162 90.69936 C 31.834736 90.69936 31.163162 90.027794 31.163162 89.19937 C 31.163162 88.37094 31.834736 87.69937 32.663162 87.69937 C 33.49159 87.69937 34.163162 88.37094 34.163162 89.19937 Z" />
            <path id="path355-82-7-2-5" fill="#ffff00" stroke="none" d="M 43.08331 89.19937 C 43.08331 90.027794 42.411736 90.69936 41.58331 90.69936 C 40.754883 90.69936 40.08331 90.027794 40.08331 89.19937 C 40.08331 88.37094 40.754883 87.69937 41.58331 87.69937 C 42.411736 87.69937 43.08331 88.37094 43.08331 89.19937 Z" />
            <path id="path355-82-7-2-5-6" fill="#ffff00" stroke="none" d="M 55.410007 107.60739 C 55.410007 108.43582 54.738434 109.10739 53.910007 109.10739 C 53.08158 109.10739 52.41001 108.43582 52.41001 107.60739 C 52.41001 106.77896 53.08158 106.10739 53.910007 106.10739 C 54.738434 106.10739 55.410007 106.77896 55.410007 107.60739 Z" />
            <path id="rect5959-4" fill="#000000" stroke="none" d="M 18.90053 94.69077 L 29.215347 94.69077 L 29.215347 97.935905 L 18.90053 97.935905 Z" />
            <path id="rect5959-4-0" fill="#000000" stroke="none" d="M 33.353462 94.69077 L 46.511246 94.69077 L 46.511246 97.935905 L 33.353462 97.935905 Z" />
        </g>
        <g id="layer3">
            <path id="circle13473" fill="#ff0000" stroke="none" d="M 23.573826 76.453766 C 23.573826 78.99428 21.514336 81.053764 18.973825 81.053764 C 16.433315 81.053764 14.373827 78.99428 14.373825 76.453766 C 14.373827 73.91325 16.433315 71.85377 18.973825 71.85377 C 21.514336 71.85377 23.573826 73.91325 23.573826 76.453766 Z" />
            <path id="path13156-4-87" fill="#0000ff" stroke="none" d="M 38.80589 114.94242 C 38.80589 115.751335 38.48455 116.527115 37.912567 117.0991 C 37.34058 117.67109 36.5648 117.992424 35.75589 117.992424 C 34.94698 117.992424 34.1712 117.67109 33.599213 117.0991 C 33.02723 116.527115 32.70589 115.751335 32.70589 114.94242 C 32.70589 114.13351 33.02723 113.357735 33.599213 112.78574 C 34.1712 112.21376 34.94698 111.89242 35.75589 111.89242 C 36.5648 111.89242 37.34058 112.21376 37.912567 112.78574 C 38.48455 113.357735 38.80589 114.13351 38.80589 114.94242 Z" />
            <path id="path13156-4-2" fill="#0000ff" stroke="none" d="M 26.639187 114.94242 C 26.639187 115.751335 26.31785 116.527115 25.745863 117.0991 C 25.173878 117.67109 24.398098 117.992424 23.589186 117.992424 C 22.780277 117.992424 22.004498 117.67109 21.432512 117.0991 C 20.860525 116.527115 20.539188 115.751335 20.539188 114.94242 C 20.539188 114.13351 20.860525 113.357735 21.432512 112.78574 C 22.004498 112.21376 22.780277 111.89242 23.589186 111.89242 C 24.398098 111.89242 25.173878 112.21376 25.745863 112.78574 C 26.31785 113.357735 26.639187 114.13351 26.639187 114.94242 Z" />
            <path id="path13156-4-87-6" fill="#0000ff" stroke="none" d="M 33.923653 43.518925 C 33.923653 45.203396 32.55812 46.568924 30.873653 46.568924 C 29.189186 46.568924 27.823654 45.203396 27.823654 43.518925 C 27.823654 41.834457 29.189186 40.468925 30.873653 40.468925 C 32.55812 40.468925 33.923653 41.834457 33.923653 43.518925 Z" />
            <path id="path13156-4-2-9" fill="#0000ff" stroke="none" d="M 21.75695 43.518925 C 21.75695 45.203396 20.391418 46.568924 18.706951 46.568924 C 17.022482 46.568924 15.656951 45.203396 15.656951 43.518925 C 15.656951 41.834457 17.022482 40.468925 18.706951 40.468925 C 20.391418 40.468925 21.75695 41.834457 21.75695 43.518925 Z" />
            <g id="text1062-60">
                <path fill="#000000" stroke="none" d="M 33.183353 74.61579 Q 33.28739 74.9166 33.506775 75.06814 Q 33.726162 75.219666 34.05637 75.219666 Q 34.14684 75.219666 34.248615 75.20158 L 34.248615 75.33954 Q 33.907097 75.42548 33.637955 75.42548 Q 33.217278 75.42548 32.88594 75.219666 Q 32.5546 75.013855 32.387234 74.61579 Q 31.830856 74.498184 31.490467 74.070724 Q 31.150082 73.643265 31.150082 73.0507 Q 31.150082 72.36314 31.61147 71.9074 Q 32.072857 71.45167 32.78303 71.45167 Q 33.490944 71.45167 33.95007 71.90853 Q 34.409195 72.3654 34.409195 73.0507 Q 34.409195 73.64778 34.049587 74.08881 Q 33.689976 74.52985 33.183353 74.61579 Z M 32.78077 71.62356 Q 32.373665 71.62356 32.152016 72.0465 Q 31.966557 72.40159 31.966557 73.05748 Q 31.966557 73.84455 32.244747 74.22452 Q 32.43925 74.489136 32.78077 74.489136 Q 33.12455 74.489136 33.316795 74.22904 Q 33.594982 73.85586 33.594982 73.10724 Q 33.594982 72.36992 33.420834 72.03971 Q 33.20371 71.62356 32.78077 71.62356 Z M 36.770416 72.47396 L 36.770416 74.129524 Q 36.770416 74.37153 36.81565 74.431465 Q 36.860886 74.4914 36.998848 74.50723 L 36.998848 74.58865 L 36.13714 74.58865 L 36.13714 74.30594 Q 35.985607 74.48688 35.834072 74.56943 Q 35.682537 74.65198 35.494816 74.65198 Q 35.316143 74.65198 35.177048 74.54229 Q 35.037952 74.432594 34.990456 74.28558 Q 34.94296 74.13857 34.94296 73.77218 L 34.94296 72.93308 Q 34.94296 72.693344 34.898857 72.634544 Q 34.854755 72.57574 34.714527 72.55764 L 34.714527 72.47396 L 35.576237 72.47396 L 35.576237 73.91919 Q 35.576237 74.14536 35.597725 74.21095 Q 35.61921 74.276535 35.665573 74.31046 Q 35.71194 74.34439 35.773006 74.34439 Q 35.854427 74.34439 35.920017 74.301414 Q 36.010483 74.242615 36.13714 74.06394 L 36.13714 72.93308 Q 36.13714 72.693344 36.093037 72.634544 Q 36.048935 72.57574 35.908707 72.55764 L 35.908707 72.47396 L 36.770416 72.47396 Z M 38.47122 74.276535 Q 38.084465 74.61806 37.776875 74.61806 Q 37.59594 74.61806 37.476067 74.49931 Q 37.356197 74.38058 37.356197 74.201904 Q 37.356197 73.9599 37.564274 73.766525 Q 37.77235 73.57315 38.47122 73.25198 L 38.47122 73.03938 Q 38.47122 72.799644 38.44521 72.73745 Q 38.419197 72.675255 38.346825 72.62888 Q 38.27445 72.58252 38.183983 72.58252 Q 38.036972 72.58252 37.94198 72.64811 Q 37.883175 72.68882 37.883175 72.7431 Q 37.883175 72.790596 37.946503 72.86071 Q 38.032448 72.95796 38.032448 73.04843 Q 38.032448 73.159256 37.949894 73.23728 Q 37.867344 73.315315 37.733902 73.315315 Q 37.591415 73.315315 37.495293 73.22937 Q 37.39917 73.143425 37.39917 73.028076 Q 37.39917 72.865234 37.528088 72.717094 Q 37.657005 72.568954 37.8877 72.48979 Q 38.118393 72.41063 38.36718 72.41063 Q 38.667988 72.41063 38.84327 72.53842 Q 39.01855 72.66621 39.070568 72.815475 Q 39.102234 72.91047 39.102234 73.25198 L 39.102234 74.07298 Q 39.102234 74.217735 39.11354 74.25505 Q 39.12485 74.29237 39.14747 74.31046 Q 39.170086 74.32856 39.199486 74.32856 Q 39.25829 74.32856 39.319355 74.24487 L 39.387207 74.29916 Q 39.274124 74.46652 39.153122 74.54229 Q 39.03212 74.61806 38.878326 74.61806 Q 38.697388 74.61806 38.59561 74.53324 Q 38.493835 74.448425 38.47122 74.276535 Z M 38.47122 74.111435 L 38.47122 73.40352 Q 38.19755 73.5641 38.06411 73.7473 Q 37.975906 73.86943 37.975906 73.99383 Q 37.975906 74.09786 38.05054 74.177025 Q 38.107082 74.23809 38.20886 74.23809 Q 38.321945 74.23809 38.47122 74.111435 Z M 40.48413 72.47396 L 40.48413 72.74763 Q 40.646976 72.57121 40.796246 72.49092 Q 40.94552 72.41063 41.11741 72.41063 Q 41.323223 72.41063 41.458927 72.52485 Q 41.594627 72.63906 41.639862 72.80869 Q 41.67605 72.93761 41.67605 73.30401 L 41.67605 74.127266 Q 41.67605 74.37153 41.720154 74.431465 Q 41.764256 74.4914 41.904484 74.50723 L 41.904484 74.58865 L 40.834698 74.58865 L 40.834698 74.50723 Q 40.954567 74.4914 41.006584 74.407715 Q 41.042774 74.35117 41.042774 74.127266 L 41.042774 73.18639 Q 41.042774 72.9263 41.02242 72.85845 Q 41.002064 72.790596 40.953434 72.75328 Q 40.904808 72.715965 40.846004 72.715965 Q 40.651497 72.715965 40.48413 72.994156 L 40.48413 74.127266 Q 40.48413 74.364746 40.528236 74.42807 Q 40.57234 74.4914 40.692207 74.50723 L 40.692207 74.58865 L 39.62242 74.58865 L 39.62242 74.50723 Q 39.755863 74.49366 39.812405 74.42129 Q 39.850857 74.37153 39.850857 74.127266 L 39.850857 72.93308 Q 39.850857 72.693344 39.80675 72.634544 Q 39.76265 72.57574 39.62242 72.55764 L 39.62242 72.47396 L 40.48413 72.47396 Z M 43.03534 71.700455 L 43.03534 72.47396 L 43.537437 72.47396 L 43.537437 72.69787 L 43.03534 72.69787 L 43.03534 74.00287 Q 43.03534 74.18607 43.0523 74.23922 Q 43.069267 74.29237 43.11224 74.325165 Q 43.15521 74.357956 43.191395 74.357956 Q 43.338406 74.357956 43.46958 74.13405 L 43.537437 74.18381 Q 43.354237 74.61806 42.942608 74.61806 Q 42.741318 74.61806 42.602222 74.5061 Q 42.463127 74.39415 42.42468 74.25618 Q 42.40206 74.17928 42.40206 73.84003 L 42.40206 72.69787 L 42.126133 72.69787 L 42.126133 72.618706 Q 42.411106 72.41742 42.611267 72.19577 Q 42.811428 71.97412 42.9607 71.700455 L 43.03534 71.700455 Z M 44.24761 71.44941 Q 44.39462 71.44941 44.496395 71.552315 Q 44.598175 71.65522 44.598175 71.79997 Q 44.598175 71.944725 44.495266 72.0465 Q 44.392357 72.14828 44.24761 72.14828 Q 44.10286 72.14828 44.001087 72.0465 Q 43.899303 71.944725 43.899303 71.79997 Q 43.899303 71.65522 44.001087 71.552315 Q 44.10286 71.44941 44.24761 71.44941 Z M 44.56425 72.47396 L 44.56425 74.14988 Q 44.56425 74.373795 44.61627 74.43599 Q 44.66828 74.498184 44.81982 74.50723 L 44.81982 74.58865 L 43.67766 74.58865 L 43.67766 74.50723 Q 43.817886 74.50271 43.88574 74.42581 Q 43.930965 74.373795 43.930965 74.14988 L 43.930965 72.91499 Q 43.930965 72.691086 43.878952 72.62888 Q 43.826927 72.56669 43.67766 72.55764 L 43.67766 72.47396 L 44.56425 72.47396 Z M 46.758102 74.58865 L 44.917072 74.58865 L 44.917072 74.538895 L 46.07959 72.61192 L 45.740334 72.61192 Q 45.520954 72.61192 45.425957 72.651505 Q 45.330963 72.691086 45.27216 72.77816 Q 45.21336 72.865234 45.150032 73.08914 L 45.07087 73.08914 L 45.07087 72.47396 L 46.85083 72.47396 L 46.85083 72.53503 L 45.69737 74.4439 L 45.842113 74.4439 Q 46.276356 74.4439 46.4686 74.31951 Q 46.66085 74.195114 46.758102 73.86491 L 46.821434 73.86491 L 46.758102 74.58865 Z M 48.872795 73.45554 L 47.712536 73.45554 Q 47.732895 73.87621 47.93645 74.12048 Q 48.092506 74.308205 48.311893 74.308205 Q 48.447594 74.308205 48.55842 74.23244 Q 48.66924 74.15667 48.7959 73.9599 L 48.872795 74.00966 Q 48.7009 74.36022 48.492832 74.5061 Q 48.284756 74.65198 48.011086 74.65198 Q 47.540653 74.65198 47.29865 74.29011 Q 47.104145 73.99835 47.104145 73.56636 Q 47.104145 73.037125 47.390247 72.72388 Q 47.676353 72.41063 48.060844 72.41063 Q 48.382008 72.41063 48.61835 72.67412 Q 48.854702 72.93761 48.872795 73.45554 Z M 48.316418 73.30401 Q 48.316418 72.93987 48.27684 72.80417 Q 48.237255 72.668465 48.153576 72.59835 Q 48.106083 72.55764 48.026917 72.55764 Q 47.90931 72.55764 47.834675 72.67299 Q 47.701233 72.87428 47.701233 73.224846 L 47.701233 73.30401 L 48.316418 73.30401 Z" />
                <path fill="#000000" stroke="none" d="M 33.144905 77.24163 L 33.169785 78.26392 L 33.077053 78.26392 Q 33.011463 77.87943 32.75476 77.64535 Q 32.49806 77.41126 32.199512 77.41126 Q 31.968819 77.41126 31.834248 77.53452 Q 31.699673 77.65778 31.699673 77.81837 Q 31.699673 77.92014 31.747171 77.999306 Q 31.812761 78.105606 31.95751 78.20964 Q 32.06381 78.28428 32.4483 78.47426 Q 32.986584 78.738884 33.174305 78.9741 Q 33.359764 79.20931 33.359764 79.51238 Q 33.359764 79.89687 33.06009 80.173935 Q 32.760414 80.45099 32.299026 80.45099 Q 32.154278 80.45099 32.02536 80.421585 Q 31.896446 80.39219 31.701937 80.31077 Q 31.593374 80.26553 31.523262 80.26553 Q 31.464458 80.26553 31.398869 80.31077 Q 31.333279 80.356 31.292566 80.44873 L 31.208885 80.44873 L 31.208885 79.29073 L 31.292566 79.29073 Q 31.392084 79.77927 31.675926 80.035965 Q 31.959772 80.29267 32.28772 80.29267 Q 32.54103 80.29267 32.691433 80.15471 Q 32.841835 80.01675 32.841835 79.83354 Q 32.841835 79.72498 32.78416 79.62321 Q 32.72649 79.52143 32.60888 79.42983 Q 32.491272 79.338234 32.192726 79.19122 Q 31.774311 78.985405 31.591114 78.84066 Q 31.407915 78.69591 31.309532 78.517235 Q 31.211145 78.33856 31.211145 78.123695 Q 31.211145 77.7573 31.48029 77.499466 Q 31.749432 77.24163 32.158802 77.24163 Q 32.308075 77.24163 32.4483 77.27782 Q 32.5546 77.30496 32.707264 77.37846 Q 32.85993 77.45197 32.920994 77.45197 Q 32.9798 77.45197 33.013725 77.41579 Q 33.04765 77.37959 33.077053 77.24163 L 33.144905 77.24163 Z M 35.492554 79.24551 L 34.3323 79.24551 Q 34.352654 79.666176 34.55621 79.910446 Q 34.712265 80.09817 34.931652 80.09817 Q 35.067352 80.09817 35.178177 80.0224 Q 35.289 79.94663 35.415657 79.74986 L 35.492554 79.79962 Q 35.320663 80.150185 35.112587 80.29607 Q 34.90451 80.44194 34.630844 80.44194 Q 34.16041 80.44194 33.918407 80.08007 Q 33.7239 79.788315 33.7239 79.35632 Q 33.7239 78.82709 34.010006 78.51384 Q 34.296112 78.20059 34.680603 78.20059 Q 35.001766 78.20059 35.238113 78.46408 Q 35.47446 78.72757 35.492554 79.24551 Z M 34.936176 79.09397 Q 34.936176 78.729836 34.896595 78.59413 Q 34.857014 78.45843 34.77333 78.38831 Q 34.725838 78.3476 34.646675 78.3476 Q 34.529068 78.3476 34.454433 78.46295 Q 34.32099 78.664246 34.32099 79.01481 L 34.32099 79.09397 L 34.936176 79.09397 Z M 37.177525 80.15697 Q 37.03956 80.30172 36.91969 80.36052 Q 36.76137 80.44194 36.58948 80.44194 Q 36.19142 80.44194 35.960728 80.08685 Q 35.77753 79.804146 35.77753 79.41061 Q 35.77753 79.08266 35.916622 78.7943 Q 36.055717 78.50593 36.29885 78.353264 Q 36.541985 78.20059 36.81339 78.20059 Q 36.994328 78.20059 37.13568 78.26166 Q 37.27704 78.32273 37.378815 78.44712 L 37.733902 78.20059 L 37.810802 78.20059 L 37.810802 80.93952 Q 37.810802 81.1476 37.84699 81.199615 Q 37.905792 81.283295 38.08447 81.28556 L 38.08447 81.36924 L 36.863148 81.36924 L 36.863148 81.28556 Q 37.003372 81.28556 37.0667 81.2539 Q 37.130028 81.22223 37.153774 81.17021 Q 37.177525 81.118195 37.177525 80.95761 L 37.177525 80.15697 Z M 37.177525 79.95116 L 37.177525 79.0804 Q 37.177525 78.71626 37.137943 78.598656 Q 37.098366 78.48105 36.992065 78.3951 Q 36.937782 78.35213 36.8541 78.35213 Q 36.68221 78.35213 36.58722 78.50366 Q 36.437946 78.73662 36.437946 79.369896 Q 36.437946 79.85616 36.566864 80.05293 Q 36.65507 80.18637 36.795296 80.18637 Q 36.876717 80.18637 36.979626 80.12983 Q 37.08253 80.07329 37.177525 79.95116 Z M 40.375572 78.26392 L 40.375572 79.91949 Q 40.375572 80.16149 40.420807 80.22143 Q 40.46604 80.281364 40.604004 80.297195 L 40.604004 80.37862 L 39.742294 80.37862 L 39.742294 80.0959 Q 39.590763 80.27684 39.439228 80.35939 Q 39.287693 80.44194 39.09997 80.44194 Q 38.9213 80.44194 38.782204 80.33225 Q 38.64311 80.22256 38.59561 80.07555 Q 38.548115 79.928535 38.548115 79.56214 L 38.548115 78.723045 Q 38.548115 78.48331 38.504013 78.42451 Q 38.45991 78.3657 38.319683 78.3476 L 38.319683 78.26392 L 39.181393 78.26392 L 39.181393 79.70915 Q 39.181393 79.935326 39.20288 80.000916 Q 39.224365 80.0665 39.27073 80.100426 Q 39.317097 80.13435 39.378162 80.13435 Q 39.459583 80.13435 39.525173 80.09138 Q 39.61564 80.03258 39.742294 79.853905 L 39.742294 78.723045 Q 39.742294 78.48331 39.698193 78.42451 Q 39.65409 78.3657 39.513863 78.3476 L 39.513863 78.26392 L 40.375572 78.26392 Z M 42.700603 79.24551 L 41.540348 79.24551 Q 41.560707 79.666176 41.76426 79.910446 Q 41.920315 80.09817 42.1397 80.09817 Q 42.275402 80.09817 42.386227 80.0224 Q 42.49705 79.94663 42.623707 79.74986 L 42.700603 79.79962 Q 42.528713 80.150185 42.320637 80.29607 Q 42.11256 80.44194 41.838894 80.44194 Q 41.36846 80.44194 41.126457 80.08007 Q 40.93195 79.788315 40.93195 79.35632 Q 40.93195 78.82709 41.218056 78.51384 Q 41.50416 78.20059 41.888653 78.20059 Q 42.209816 78.20059 42.446163 78.46408 Q 42.68251 78.72757 42.700603 79.24551 Z M 42.144226 79.09397 Q 42.144226 78.729836 42.104645 78.59413 Q 42.065063 78.45843 41.98138 78.38831 Q 41.933887 78.3476 41.854725 78.3476 Q 41.737118 78.3476 41.662483 78.46295 Q 41.52904 78.664246 41.52904 79.01481 L 41.52904 79.09397 L 42.144226 79.09397 Z M 43.829193 78.26392 L 43.829193 78.53759 Q 43.99204 78.361176 44.141308 78.28088 Q 44.29058 78.20059 44.46247 78.20059 Q 44.66828 78.20059 44.80399 78.31481 Q 44.93969 78.42902 44.984924 78.598656 Q 45.02111 78.72757 45.02111 79.09397 L 45.02111 79.91723 Q 45.02111 80.16149 45.065216 80.22143 Q 45.109318 80.281364 45.249546 80.297195 L 45.249546 80.37862 L 44.17976 80.37862 L 44.17976 80.297195 Q 44.29963 80.281364 44.351646 80.19768 Q 44.387836 80.141136 44.387836 79.91723 L 44.387836 78.97636 Q 44.387836 78.71626 44.36748 78.648415 Q 44.347126 78.58056 44.298496 78.54324 Q 44.24987 78.50593 44.191067 78.50593 Q 43.99656 78.50593 43.829193 78.78412 L 43.829193 79.91723 Q 43.829193 80.15471 43.8733 80.21803 Q 43.9174 80.281364 44.03727 80.297195 L 44.03727 80.37862 L 42.967487 80.37862 L 42.967487 80.297195 Q 43.10093 80.28362 43.157467 80.21125 Q 43.19592 80.16149 43.19592 79.91723 L 43.19592 78.723045 Q 43.19592 78.48331 43.151817 78.42451 Q 43.10771 78.3657 42.967487 78.3476 L 42.967487 78.26392 L 43.829193 78.26392 Z M 47.266987 79.83354 L 47.337097 79.887825 Q 47.187824 80.16828 46.96505 80.305115 Q 46.742268 80.44194 46.49122 80.44194 Q 46.06828 80.44194 45.814972 80.12305 Q 45.56166 79.804146 45.56166 79.35632 Q 45.56166 78.92434 45.792355 78.59639 Q 46.070545 78.20059 46.559067 78.20059 Q 46.887016 78.20059 47.0804 78.3657 Q 47.27377 78.53081 47.27377 78.73436 Q 47.27377 78.86327 47.19574 78.94017 Q 47.11771 79.01707 46.991055 79.01707 Q 46.857616 79.01707 46.77054 78.92886 Q 46.683464 78.84066 46.663105 78.61449 Q 46.64954 78.472 46.59752 78.41546 Q 46.5455 78.35892 46.475388 78.35892 Q 46.36683 78.35892 46.28993 78.47426 Q 46.172318 78.648415 46.172318 79.008026 Q 46.172318 79.30657 46.26731 79.5791 Q 46.3623 79.85164 46.527405 79.98508 Q 46.651802 80.08234 46.821434 80.08234 Q 46.93225 80.08234 47.03177 80.03031 Q 47.131283 79.978294 47.266987 79.83354 Z M 49.388462 79.24551 L 48.22821 79.24551 Q 48.248566 79.666176 48.452118 79.910446 Q 48.608173 80.09817 48.82756 80.09817 Q 48.96326 80.09817 49.074085 80.0224 Q 49.18491 79.94663 49.311565 79.74986 L 49.388462 79.79962 Q 49.21657 80.150185 49.008495 80.29607 Q 48.80042 80.44194 48.526752 80.44194 Q 48.05632 80.44194 47.81432 80.08007 Q 47.61981 79.788315 47.61981 79.35632 Q 47.61981 78.82709 47.905914 78.51384 Q 48.19202 78.20059 48.57651 78.20059 Q 48.897675 78.20059 49.134026 78.46408 Q 49.37037 78.72757 49.388462 79.24551 Z M 48.83209 79.09397 Q 48.83209 78.729836 48.792503 78.59413 Q 48.752922 78.45843 48.66924 78.38831 Q 48.621746 78.3476 48.542583 78.3476 Q 48.424976 78.3476 48.35034 78.46295 Q 48.2169 78.664246 48.2169 79.01481 L 48.2169 79.09397 L 48.83209 79.09397 Z" />
            </g>
            <g id="text1062-4-5">
                <path fill="#000000" stroke="none" d="M 18.272522 37.482986 L 18.272522 37.56667 L 16.668974 37.56667 L 16.668974 37.482986 L 16.77075 37.482986 Q 16.904192 37.482986 16.985613 37.43549 Q 17.044416 37.403828 17.07608 37.326927 Q 17.10096 37.272648 17.10096 37.041954 L 17.10096 35.024513 Q 17.10096 34.789295 17.07608 34.73049 Q 17.051203 34.671688 16.975435 34.627586 Q 16.899668 34.58348 16.77075 34.58348 L 16.668974 34.58348 L 16.668974 34.499798 L 18.272522 34.499798 L 18.272522 34.58348 L 18.170746 34.58348 Q 18.037306 34.58348 17.955883 34.630978 Q 17.89708 34.662643 17.863153 34.73954 Q 17.838276 34.79382 17.838276 35.024513 L 17.838276 37.041954 Q 17.838276 37.277172 17.864285 37.335976 Q 17.890295 37.39478 17.96606 37.438885 Q 18.041828 37.482986 18.170746 37.482986 L 18.272522 37.482986 Z M 19.398851 35.451977 L 19.398851 35.725643 Q 19.561693 35.54923 19.710966 35.46894 Q 19.860239 35.38865 20.032127 35.38865 Q 20.237944 35.38865 20.373646 35.502865 Q 20.509348 35.61708 20.55458 35.78671 Q 20.590769 35.915627 20.590769 36.28202 L 20.590769 37.10528 Q 20.590769 37.349545 20.634872 37.40948 Q 20.678976 37.469418 20.8192 37.48525 L 20.8192 37.56667 L 19.749414 37.56667 L 19.749414 37.48525 Q 19.869286 37.469418 19.921305 37.385735 Q 19.95749 37.32919 19.95749 37.10528 L 19.95749 36.164413 Q 19.95749 35.904316 19.937136 35.836464 Q 19.91678 35.768616 19.868155 35.731297 Q 19.819529 35.693977 19.760723 35.693977 Q 19.566217 35.693977 19.398851 35.972168 L 19.398851 37.10528 Q 19.398851 37.342762 19.442955 37.40609 Q 19.487057 37.469418 19.606928 37.48525 L 19.606928 37.56667 L 18.537142 37.56667 L 18.537142 37.48525 Q 18.670582 37.47168 18.727125 37.399303 Q 18.765574 37.349545 18.765574 37.10528 L 18.765574 35.911102 Q 18.765574 35.67136 18.72147 35.612556 Q 18.677368 35.553753 18.537142 35.53566 L 18.537142 35.451977 L 19.398851 35.451977 Z" />
            </g>
            <g id="text1062-4-5-4">
                <path fill="#000000" stroke="none" d="M 23.368582 108.33936 L 22.285225 108.33936 L 22.15631 108.63791 Q 22.09298 108.78718 22.09298 108.88443 Q 22.09298 109.01335 22.197018 109.074425 Q 22.258083 109.1106 22.497822 109.12869 L 22.497822 109.21237 L 21.477797 109.21237 L 21.477797 109.12869 Q 21.6429 109.10382 21.749203 108.99187 Q 21.855501 108.879906 22.011559 108.52935 L 23.108484 106.082184 L 23.151457 106.082184 L 24.257431 108.5972 Q 24.415749 108.954544 24.517527 109.04727 Q 24.594425 109.117386 24.734652 109.12869 L 24.734652 109.21237 L 23.250969 109.21237 L 23.250969 109.12869 L 23.312038 109.12869 Q 23.490713 109.12869 23.563087 109.07894 Q 23.612844 109.04276 23.612844 108.9749 Q 23.612844 108.93418 23.599274 108.89122 Q 23.594751 108.87086 23.531424 108.721596 L 23.368582 108.33936 Z M 23.291683 108.172005 L 22.834818 107.11578 L 22.364382 108.172005 L 23.291683 108.172005 Z" />
            </g>
            <g id="text1062-1">
                <path fill="#000000" stroke="none" d="M 27.757833 12.193636 Q 28.194342 12.295412 28.370758 12.440162 Q 28.624067 12.645978 28.624067 12.973926 Q 28.624067 13.319965 28.345877 13.546136 Q 28.00436 13.819803 27.352987 13.819803 L 25.794672 13.819803 L 25.794672 13.736119 Q 26.007275 13.736119 26.083042 13.696539 Q 26.158808 13.65696 26.18934 13.593632 Q 26.219873 13.530304 26.219873 13.281515 L 26.219873 11.291215 Q 26.219873 11.042428 26.18934 10.97797 Q 26.158808 10.913511 26.08191 10.875062 Q 26.005013 10.836613 25.794672 10.836613 L 25.794672 10.75293 L 27.26478 10.75293 Q 27.79176 10.75293 28.011143 10.84679 Q 28.23053 10.940652 28.357187 11.127242 Q 28.48384 11.313833 28.48384 11.524172 Q 28.48384 11.745819 28.32326 11.918839 Q 28.162678 12.091859 27.757833 12.193636 Z M 26.934572 12.132571 Q 27.255735 12.132571 27.4084 12.060196 Q 27.561066 11.987823 27.642487 11.856641 Q 27.723907 11.725463 27.723907 11.52191 Q 27.723907 11.3183565 27.643618 11.188309 Q 27.563328 11.058261 27.414055 10.990409 Q 27.26478 10.922558 26.934572 10.924821 L 26.934572 12.132571 Z M 26.934572 12.308983 L 26.934572 13.292825 L 26.93231 13.405911 Q 26.93231 13.528042 26.994509 13.59024 Q 27.056707 13.652436 27.178837 13.652436 Q 27.359776 13.652436 27.512438 13.572145 Q 27.665104 13.491854 27.746525 13.33919 Q 27.827946 13.186524 27.827946 12.998803 Q 27.827946 12.783941 27.728432 12.613181 Q 27.628916 12.442425 27.454765 12.374573 Q 27.280611 12.306722 26.934572 12.308983 Z M 29.913239 13.905747 L 29.230204 12.338386 Q 29.076406 11.983297 29.002901 11.901876 Q 28.929396 11.820455 28.825357 11.788791 L 28.825357 11.705107 L 29.949425 11.705107 L 29.949425 11.788791 Q 29.838602 11.793315 29.793367 11.831763 Q 29.748135 11.8702135 29.748135 11.924494 Q 29.748135 12.010438 29.86122 12.263749 L 30.223091 13.091534 L 30.469616 12.45147 Q 30.603056 12.109953 30.603056 11.976513 Q 30.603056 11.89283 30.547647 11.843072 Q 30.492235 11.793315 30.352007 11.788791 L 30.352007 11.705107 L 31.059921 11.705107 L 31.059921 11.788791 Q 30.955887 11.800099 30.890293 11.8690815 Q 30.824703 11.938064 30.67091 12.338386 L 30.067034 13.905747 Q 29.838602 14.493791 29.72778 14.629493 Q 29.57172 14.819476 29.336504 14.819476 Q 29.148783 14.819476 29.032305 14.712045 Q 28.915827 14.604614 28.915827 14.45308 Q 28.915827 14.3219 28.996117 14.235956 Q 29.076406 14.150011 29.194016 14.150011 Q 29.307102 14.150011 29.376085 14.222386 Q 29.445065 14.294761 29.447327 14.446295 Q 29.44959 14.532239 29.467682 14.557118 Q 29.485779 14.581997 29.519701 14.581997 Q 29.573982 14.581997 29.63505 14.516407 Q 29.725517 14.421415 29.847649 14.082159 L 29.913239 13.905747 Z M 32.136494 11.705107 L 32.136494 12.184588 Q 32.346832 11.856641 32.505154 11.749211 Q 32.66347 11.641781 32.810482 11.641781 Q 32.937138 11.641781 33.012905 11.719808 Q 33.088673 11.797838 33.088673 11.940325 Q 33.088673 12.091859 33.015167 12.175543 Q 32.94166 12.259226 32.837624 12.259226 Q 32.717754 12.259226 32.629547 12.182327 Q 32.54134 12.10543 32.52551 12.096383 Q 32.50289 12.082812 32.473488 12.082812 Q 32.407898 12.082812 32.349094 12.132571 Q 32.256367 12.209468 32.20887 12.351955 Q 32.136494 12.571341 32.136494 12.83596 L 32.136494 13.3222275 L 32.138756 13.448883 Q 32.138756 13.5778 32.154587 13.613987 Q 32.18173 13.675055 32.23488 13.703324 Q 32.28803 13.731596 32.414684 13.73838 L 32.414684 13.819803 L 31.272524 13.819803 L 31.272524 13.73838 Q 31.410488 13.727074 31.459112 13.662614 Q 31.50774 13.598156 31.50774 13.3222275 L 31.50774 12.1529255 Q 31.50774 11.971989 31.489647 11.922231 Q 31.467028 11.858904 31.424057 11.829503 Q 31.381086 11.800099 31.272524 11.788791 L 31.272524 11.705107 L 32.136494 11.705107 Z M 35.370735 10.75293 L 35.370735 13.186524 Q 35.370735 13.433051 35.384304 13.478285 Q 35.402397 13.552921 35.453285 13.589108 Q 35.504173 13.625296 35.63083 13.634342 L 35.63083 13.70898 L 34.737457 13.88313 L 34.737457 13.548398 Q 34.576878 13.742905 34.45135 13.813016 Q 34.32583 13.88313 34.167507 13.88313 Q 33.76266 13.88313 33.527443 13.521257 Q 33.337463 13.227236 33.337463 12.799773 Q 33.337463 12.458256 33.45507 12.187982 Q 33.572678 11.917708 33.777363 11.779744 Q 33.982048 11.641781 34.217266 11.641781 Q 34.368797 11.641781 34.48641 11.700585 Q 34.604015 11.75939 34.737457 11.9064 L 34.737457 11.2685995 Q 34.737457 11.026596 34.717102 10.97684 Q 34.68996 10.911248 34.63568 10.879585 Q 34.581398 10.847922 34.432125 10.847922 L 34.432125 10.75293 L 35.370735 10.75293 Z M 34.737457 12.1868515 Q 34.57009 11.865689 34.328087 11.865689 Q 34.244404 11.865689 34.190125 11.910924 Q 34.10644 11.981037 34.05329 12.157449 Q 34.00014 12.333862 34.00014 12.697995 Q 34.00014 13.098318 34.058945 13.290564 Q 34.11775 13.482808 34.21953 13.568752 Q 34.271545 13.611726 34.362015 13.611726 Q 34.561043 13.611726 34.737457 13.299609 L 34.737457 12.1868515 Z" />
            </g>
            <path id="path355-1-1" fill="#ffff00" stroke="none" d="M 48.01125 100.03734 C 48.01125 100.86576 47.339672 101.53733 46.511246 101.53733 C 45.68282 101.53733 45.01125 100.86576 45.01125 100.03734 C 45.01125 99.2089 45.68282 98.53733 46.511246 98.53733 C 47.339672 98.53733 48.01125 99.2089 48.01125 100.03734 Z" />
            <path id="path355-5" fill="#ffff00" stroke="none" d="M 43.41852 100.03734 C 43.41852 100.86576 42.74695 101.53733 41.91852 101.53733 C 41.090096 101.53733 40.41852 100.86576 40.41852 100.03734 C 40.41852 99.2089 41.090096 98.53733 41.91852 98.53733 C 42.74695 98.53733 43.41852 99.2089 43.41852 100.03734 Z" />
            <path id="path355-2-6" fill="#ffff00" stroke="none" d="M 36.84824 96.31335 C 36.84824 97.14177 36.176666 97.81334 35.34824 97.81334 C 34.519814 97.81334 33.84824 97.14177 33.84824 96.31335 C 33.84824 95.48491 34.519814 94.81334 35.34824 94.81334 C 36.176666 94.81334 36.84824 95.48491 36.84824 96.31335 Z" />
            <path id="path355-8-0" fill="#ffff00" stroke="none" d="M 27.66278 96.31335 C 27.66278 97.14177 26.991209 97.81334 26.162783 97.81334 C 25.334356 97.81334 24.66278 97.14177 24.66278 96.31335 C 24.66278 95.48491 25.334356 94.81334 26.162783 94.81334 C 26.991209 94.81334 27.66278 95.48491 27.66278 96.31335 Z" />
            <path id="path355-1-9" fill="#ffff00" stroke="none" d="M 23.070051 96.31335 C 23.070051 97.14177 22.398478 97.81334 21.570051 97.81334 C 20.741625 97.81334 20.070051 97.14177 20.070051 96.31335 C 20.070051 95.48491 20.741625 94.81334 21.570051 94.81334 C 22.398478 94.81334 23.070051 95.48491 23.070051 96.31335 Z" />
            <path id="path355-1-1-7" fill="#ffff00" stroke="none" d="M 46.1036 96.31335 C 46.1036 97.14177 45.43203 97.81334 44.603603 97.81334 C 43.775177 97.81334 43.1036 97.14177 43.1036 96.31335 C 43.1036 95.48491 43.775177 94.81334 44.603603 94.81334 C 45.43203 94.81334 46.1036 95.48491 46.1036 96.31335 Z" />
            <path id="path355-5-8" fill="#ffff00" stroke="none" d="M 41.51087 96.31335 C 41.51087 97.14177 40.8393 97.81334 40.01087 97.81334 C 39.182446 97.81334 38.51087 97.14177 38.51087 96.31335 C 38.51087 95.48491 39.182446 94.81334 40.01087 94.81334 C 40.8393 94.81334 41.51087 95.48491 41.51087 96.31335 Z" />
            <path id="path13156-4-87-8" fill="#0000ff" stroke="none" d="M 48.780983 114.94242 C 48.780983 115.751335 48.45965 116.527115 47.88767 117.0991 C 47.315678 117.67109 46.539898 117.992424 45.73099 117.992424 C 44.922077 117.992424 44.146297 117.67109 43.574306 117.0991 C 43.002327 116.527115 42.68099 115.751335 42.68099 114.94242 C 42.68099 114.13351 43.002327 113.357735 43.574306 112.78574 C 44.146297 112.21376 44.922077 111.89242 45.73099 111.89242 C 46.539898 111.89242 47.315678 112.21376 47.88767 112.78574 C 48.45965 113.357735 48.780983 114.13351 48.780983 114.94242 Z" />
            <g id="text1062-4-5-4-9">
                <path fill="#000000" stroke="none" d="M 35.60586 107.5839 Q 36.04237 107.68568 36.21878 107.83043 Q 36.47209 108.03623 36.47209 108.36419 Q 36.47209 108.71021 36.193905 108.93639 Q 35.852386 109.21006 35.201015 109.21006 L 33.6427 109.21006 L 33.6427 109.126366 Q 33.8553 109.126366 33.93107 109.0868 Q 34.006836 109.04721 34.03737 108.98389 Q 34.0679 108.92056 34.0679 108.671776 L 34.0679 106.68148 Q 34.0679 106.432686 34.03737 106.368225 Q 34.006836 106.30377 33.92994 106.26532 Q 33.85304 106.226875 33.6427 106.226875 L 33.6427 106.14319 L 35.11281 106.14319 Q 35.639786 106.14319 35.859173 106.23705 Q 36.078556 106.33091 36.20521 106.5175 Q 36.331867 106.704094 36.331867 106.91443 Q 36.331867 107.136086 36.171288 107.3091 Q 36.010704 107.48211 35.60586 107.5839 Z M 34.7826 107.52283 Q 35.103764 107.52283 35.256428 107.45045 Q 35.409092 107.37808 35.490513 107.2469 Q 35.571934 107.11572 35.571934 106.91217 Q 35.571934 106.70861 35.491646 106.57857 Q 35.411354 106.44852 35.26208 106.38067 Q 35.11281 106.31282 34.7826 106.31508 L 34.7826 107.52283 Z M 34.7826 107.69924 L 34.7826 108.68308 L 34.78034 108.79617 Q 34.78034 108.91829 34.842537 108.9805 Q 34.90473 109.0427 35.026863 109.0427 Q 35.2078 109.0427 35.360466 108.96241 Q 35.51313 108.88212 35.59455 108.72945 Q 35.675972 108.576775 35.675972 108.38906 Q 35.675972 108.1742 35.576458 108.00344 Q 35.476944 107.83268 35.30279 107.76483 Q 35.12864 107.69699 34.7826 107.69924 Z" />
            </g>
            <g id="text1062-4-5-4-9-9">
                <path fill="#000000" stroke="none" d="M 45.354015 105.879166 L 45.354015 106.709206 L 45.2726 106.709206 Q 45.200222 106.42197 45.11201 106.29644 Q 45.023804 106.17092 44.87001 106.09628 Q 44.784065 106.05558 44.569202 106.05558 L 44.34077 106.05558 L 44.34077 108.42132 Q 44.34077 108.656525 44.366783 108.71533 Q 44.39279 108.77415 44.468555 108.818245 Q 44.544323 108.86234 44.675503 108.86234 L 44.77728 108.86234 L 44.77728 108.94603 L 43.17147 108.94603 L 43.17147 108.86234 L 43.273247 108.86234 Q 43.40669 108.86234 43.488106 108.81485 Q 43.54691 108.78319 43.580837 108.70629 Q 43.60572 108.65201 43.60572 108.42132 L 43.60572 106.05558 L 43.384068 106.05558 Q 43.07422 106.05558 42.93399 106.18675 Q 42.73722 106.36995 42.685204 106.709206 L 42.59926 106.709206 L 42.59926 105.879166 L 45.354015 105.879166 Z M 46.2112 106.83134 L 46.2112 107.310814 Q 46.42154 106.98287 46.579857 106.87544 Q 46.738174 106.768005 46.885185 106.768005 Q 47.011845 106.768005 47.087612 106.84603 Q 47.163376 106.924065 47.163376 107.06655 Q 47.163376 107.21809 47.08987 107.30177 Q 47.016365 107.38546 46.912327 107.38546 Q 46.792458 107.38546 46.70425 107.308556 Q 46.616043 107.23166 46.600212 107.22261 Q 46.57759 107.209045 46.548195 107.209045 Q 46.482605 107.209045 46.4238 107.2588 Q 46.33107 107.33569 46.28357 107.47818 Q 46.2112 107.69757 46.2112 107.96218 L 46.2112 108.44846 L 46.213463 108.57511 Q 46.213463 108.70402 46.229294 108.74021 Q 46.256435 108.80128 46.309586 108.82955 Q 46.362732 108.85783 46.489384 108.8646 L 46.489384 108.94603 L 45.34723 108.94603 L 45.34723 108.8646 Q 45.485188 108.8533 45.533817 108.78884 Q 45.582447 108.72438 45.582447 108.44846 L 45.582447 107.27915 Q 45.582447 107.09823 45.564354 107.04846 Q 45.541733 106.98513 45.498764 106.95573 Q 45.45579 106.92632 45.34723 106.91502 L 45.34723 106.83134 L 46.2112 106.83134 Z M 47.89843 105.806786 Q 48.04544 105.806786 48.147217 105.90969 Q 48.248997 106.0126 48.248997 106.15736 Q 48.248997 106.30211 48.146088 106.40388 Q 48.04318 106.50565 47.89843 106.50565 Q 47.75368 106.50565 47.651905 106.40388 Q 47.550133 106.30211 47.550133 106.15736 Q 47.550133 106.0126 47.651905 105.90969 Q 47.75368 105.806786 47.89843 105.806786 Z M 48.21507 106.83134 L 48.21507 108.507256 Q 48.21507 108.73116 48.26709 108.793365 Q 48.31911 108.85556 48.470642 108.8646 L 48.470642 108.94603 L 47.32848 108.94603 L 47.32848 108.8646 Q 47.468708 108.860085 47.536556 108.78319 Q 47.581795 108.73116 47.581795 108.507256 L 47.581795 107.27237 Q 47.581795 107.04846 47.529774 106.98626 Q 47.477757 106.924065 47.32848 106.91502 L 47.32848 106.83134 L 48.21507 106.83134 Z M 50.033478 106.85621 L 50.74592 106.85621 L 50.74592 107.105 L 50.341072 107.105 Q 50.451897 107.21583 50.49487 107.306305 Q 50.549152 107.42842 50.549152 107.561874 Q 50.549152 107.78804 50.423622 107.95427 Q 50.298103 108.12051 50.082108 108.21437 Q 49.866116 108.30823 49.69875 108.30823 Q 49.685177 108.30823 49.42734 108.29692 Q 49.32557 108.29692 49.256588 108.36364 Q 49.187603 108.43036 49.187603 108.52309 Q 49.187603 108.604515 49.2498 108.656525 Q 49.311996 108.70855 49.452225 108.70855 L 49.8435 108.70402 Q 50.318455 108.70402 50.49713 108.80807 Q 50.75271 108.95281 50.75271 109.253624 Q 50.75271 109.44587 50.635094 109.603065 Q 50.51749 109.76025 50.32524 109.83488 Q 50.033478 109.9457 49.653515 109.9457 Q 49.36854 109.9457 49.133324 109.8903 Q 48.898106 109.83488 48.79633 109.736496 Q 48.694553 109.6381 48.694553 109.52955 Q 48.694553 109.42551 48.772575 109.34296 Q 48.850613 109.260414 49.06321 109.203865 Q 48.769188 109.05911 48.769188 108.80128 Q 48.769188 108.645226 48.889057 108.498215 Q 49.00893 108.351204 49.269024 108.24264 Q 48.96596 108.13181 48.830254 107.95088 Q 48.694553 107.76995 48.694553 107.53246 Q 48.694553 107.22261 48.947865 106.995316 Q 49.20118 106.768005 49.599236 106.768005 Q 49.80957 106.768005 50.033478 106.85621 Z M 49.642204 106.90823 Q 49.51103 106.90823 49.42056 107.04054 Q 49.33009 107.17285 49.33009 107.589005 Q 49.33009 107.926 49.419426 108.05153 Q 49.508766 108.17705 49.630898 108.17705 Q 49.7666 108.17705 49.857063 108.05265 Q 49.947536 107.92826 49.947536 107.56865 Q 49.947536 107.1638 49.84576 107.0168 Q 49.773384 106.90823 49.642204 106.90823 Z M 49.508766 109.25815 Q 49.278076 109.25815 49.203434 109.296585 Q 49.07452 109.3667 49.07452 109.48658 Q 49.07452 109.60193 49.20796 109.695786 Q 49.3414 109.78964 49.710056 109.78964 Q 50.024433 109.78964 50.204235 109.70596 Q 50.384045 109.62227 50.384045 109.47074 Q 50.384045 109.41419 50.35012 109.375755 Q 50.289055 109.30791 50.16579 109.28302 Q 50.042526 109.25815 49.508766 109.25815 Z" />
            </g>
            <g id="text1062-4-5-8">
                <path fill="#000000" stroke="none" d="M 27.491405 36.68157 L 28.323715 34.659603 L 29.572172 34.659603 L 29.572172 34.743286 L 29.47266 34.743286 Q 29.336954 34.743286 29.255533 34.790783 Q 29.198994 34.82245 29.16507 34.897083 Q 29.140188 34.951363 29.140188 35.179794 L 29.140188 37.20176 Q 29.140188 37.436977 29.16507 37.49578 Q 29.189945 37.554585 29.266844 37.59869 Q 29.343742 37.64279 29.47266 37.64279 L 29.572172 37.64279 L 29.572172 37.726475 L 27.970888 37.726475 L 27.970888 37.64279 L 28.070402 37.64279 Q 28.206102 37.64279 28.287527 37.595295 Q 28.344069 37.563633 28.377995 37.486732 Q 28.402874 37.432453 28.402874 37.20176 L 28.402874 34.928745 L 27.226788 37.726475 L 27.172506 37.726475 L 25.978327 34.9491 L 25.978327 37.109028 Q 25.978327 37.3352 25.989635 37.38722 Q 26.019035 37.500305 26.11742 37.57155 Q 26.215805 37.64279 26.426144 37.64279 L 26.426144 37.726475 L 25.37671 37.726475 L 25.37671 37.64279 L 25.408377 37.64279 Q 25.51015 37.645054 25.598358 37.609997 Q 25.686567 37.57494 25.731798 37.516136 Q 25.777035 37.457333 25.801914 37.351032 Q 25.806437 37.326153 25.806437 37.12034 L 25.806437 35.179794 Q 25.806437 34.946842 25.781557 34.889168 Q 25.75668 34.831493 25.67978 34.78739 Q 25.602884 34.743286 25.473967 34.743286 L 25.37671 34.743286 L 25.37671 34.659603 L 26.629698 34.659603 L 27.491405 36.68157 Z M 30.809326 35.548454 Q 31.085257 35.548454 31.322735 35.69094 Q 31.56021 35.833427 31.683477 36.095787 Q 31.806738 36.358143 31.806738 36.670258 Q 31.806738 37.12034 31.578306 37.423405 Q 31.302378 37.789803 30.81611 37.789803 Q 30.338892 37.789803 30.081057 37.45507 Q 29.823225 37.12034 29.823225 36.679306 Q 29.823225 36.224705 30.086712 35.886578 Q 30.3502 35.548454 30.809326 35.548454 Z M 30.818373 35.709034 Q 30.703024 35.709034 30.620476 35.796112 Q 30.537922 35.883186 30.51191 36.13989 Q 30.485903 36.39659 30.485903 36.85346 Q 30.485903 37.09546 30.517565 37.305798 Q 30.542444 37.466377 30.623867 37.55006 Q 30.705288 37.633743 30.809326 37.633743 Q 30.911102 37.633743 30.978954 37.5772 Q 31.06716 37.500305 31.096563 37.36234 Q 31.141796 37.14748 31.141796 36.493847 Q 31.141796 36.109356 31.098824 35.965736 Q 31.055851 35.82212 30.972168 35.75653 Q 30.913364 35.709034 30.818373 35.709034 Z M 34.18379 34.659603 L 34.18379 37.093197 Q 34.18379 37.33972 34.197357 37.384956 Q 34.215454 37.459595 34.266342 37.49578 Q 34.31723 37.531967 34.443886 37.541016 L 34.443886 37.61565 L 33.55051 37.789803 L 33.55051 37.45507 Q 33.38993 37.64958 33.264404 37.71969 Q 33.13888 37.789803 32.98056 37.789803 Q 32.575718 37.789803 32.3405 37.42793 Q 32.150517 37.133907 32.150517 36.706448 Q 32.150517 36.36493 32.268124 36.094654 Q 32.385735 35.824383 32.590416 35.686417 Q 32.7951 35.548454 33.03032 35.548454 Q 33.181854 35.548454 33.29946 35.607258 Q 33.417072 35.66606 33.55051 35.813072 L 33.55051 35.175274 Q 33.55051 34.93327 33.530155 34.883514 Q 33.503014 34.817924 33.448734 34.78626 Q 33.394455 34.754597 33.245182 34.754597 L 33.245182 34.659603 L 34.18379 34.659603 Z M 33.55051 36.093525 Q 33.383144 35.77236 33.141144 35.77236 Q 33.05746 35.77236 33.003178 35.817596 Q 32.919495 35.88771 32.866344 36.06412 Q 32.813194 36.240536 32.813194 36.604668 Q 32.813194 37.00499 32.872 37.197235 Q 32.930805 37.38948 33.03258 37.475426 Q 33.0846 37.5184 33.175068 37.5184 Q 33.3741 37.5184 33.55051 37.206284 L 33.55051 36.093525 Z" />
            </g>
            <path id="path13156-4-87-6-5" fill="#0000ff" stroke="none" d="M 44.973034 43.518925 C 44.973034 45.203396 43.607506 46.568924 41.92304 46.568924 C 40.23857 46.568924 38.87304 45.203396 38.87304 43.518925 C 38.87304 41.834457 40.23857 40.468925 41.92304 40.468925 C 43.607506 40.468925 44.973034 41.834457 44.973034 43.518925 Z" />
            <g id="text1062-4-5-8-3">
                <path fill="#000000" stroke="none" d="M 39.986225 34.659603 L 39.986225 35.48965 L 39.904804 35.48965 Q 39.832428 35.20241 39.74422 35.07689 Q 39.656013 34.951363 39.50222 34.876728 Q 39.416275 34.836018 39.201412 34.836018 L 38.97298 34.836018 L 38.97298 37.20176 Q 38.97298 37.436977 38.99899 37.49578 Q 39.025 37.554585 39.100765 37.59869 Q 39.176533 37.64279 39.307713 37.64279 L 39.40949 37.64279 L 39.40949 37.726475 L 37.80368 37.726475 L 37.80368 37.64279 L 37.905457 37.64279 Q 38.0389 37.64279 38.12032 37.595295 Q 38.179123 37.563633 38.213047 37.486732 Q 38.237926 37.432453 38.237926 37.20176 L 38.237926 34.836018 L 38.01628 34.836018 Q 37.706425 34.836018 37.5662 34.967197 Q 37.36943 35.150394 37.317413 35.48965 L 37.23147 35.48965 L 37.23147 34.659603 L 39.986225 34.659603 Z M 40.84341 35.611782 L 40.84341 36.091263 Q 41.05375 35.763317 41.212067 35.655884 Q 41.370388 35.548454 41.5174 35.548454 Q 41.644054 35.548454 41.71982 35.626484 Q 41.795586 35.70451 41.795586 35.847 Q 41.795586 35.99853 41.72208 36.082214 Q 41.648575 36.165897 41.544537 36.165897 Q 41.424667 36.165897 41.33646 36.089 Q 41.248253 36.012104 41.23242 36.003056 Q 41.209805 35.989487 41.180405 35.989487 Q 41.114815 35.989487 41.05601 36.03924 Q 40.96328 36.116142 40.915783 36.25863 Q 40.84341 36.478016 40.84341 36.742634 L 40.84341 37.2289 L 40.845673 37.355556 Q 40.845673 37.484474 40.861504 37.52066 Q 40.888645 37.581726 40.941795 37.609997 Q 40.99494 37.638268 41.121597 37.645054 L 41.121597 37.726475 L 39.97944 37.726475 L 39.97944 37.645054 Q 40.1174 37.633743 40.16603 37.569286 Q 40.214657 37.50483 40.214657 37.2289 L 40.214657 36.0596 Q 40.214657 35.878662 40.196564 35.828903 Q 40.173946 35.76558 40.130974 35.736176 Q 40.088 35.70677 39.97944 35.695465 L 39.97944 35.611782 L 40.84341 35.611782 Z M 42.53064 34.58723 Q 42.67765 34.58723 42.779427 34.690136 Q 42.881207 34.793045 42.881207 34.937794 Q 42.881207 35.082542 42.778297 35.18432 Q 42.67539 35.286095 42.53064 35.286095 Q 42.38589 35.286095 42.284115 35.18432 Q 42.18234 35.082542 42.18234 34.937794 Q 42.18234 34.793045 42.284115 34.690136 Q 42.38589 34.58723 42.53064 34.58723 Z M 42.84728 35.611782 L 42.84728 37.287704 Q 42.84728 37.511612 42.8993 37.57381 Q 42.951317 37.636005 43.10285 37.645054 L 43.10285 37.726475 L 41.96069 37.726475 L 41.96069 37.645054 Q 42.100918 37.64053 42.16877 37.563633 Q 42.214 37.511612 42.214 37.287704 L 42.214 36.052814 Q 42.214 35.828903 42.161983 35.76671 Q 42.109962 35.70451 41.96069 35.695465 L 41.96069 35.611782 L 42.84728 35.611782 Z M 44.66569 35.63666 L 45.378128 35.63666 L 45.378128 35.88545 L 44.97328 35.88545 Q 45.08411 35.99627 45.127083 36.08674 Q 45.18136 36.20887 45.18136 36.34231 Q 45.18136 36.56848 45.055836 36.73472 Q 44.93031 36.90095 44.714317 36.994812 Q 44.498325 37.088673 44.330956 37.088673 Q 44.31739 37.088673 44.059555 37.077366 Q 43.95778 37.077366 43.888794 37.144085 Q 43.819813 37.210808 43.819813 37.303535 Q 43.819813 37.384956 43.88201 37.436977 Q 43.944206 37.488995 44.084435 37.488995 L 44.475708 37.484474 Q 44.950665 37.484474 45.129337 37.588512 Q 45.384914 37.73326 45.384914 38.034065 Q 45.384914 38.22631 45.267303 38.3835 Q 45.149696 38.540688 44.95745 38.615326 Q 44.66569 38.726147 44.28573 38.726147 Q 44.00075 38.726147 43.765533 38.670734 Q 43.530315 38.615326 43.428543 38.51694 Q 43.32676 38.418556 43.32676 38.309994 Q 43.32676 38.205956 43.40479 38.123405 Q 43.48282 38.04085 43.695423 37.98431 Q 43.401394 37.83956 43.401394 37.581726 Q 43.401394 37.425667 43.521263 37.278656 Q 43.64114 37.131645 43.901234 37.023087 Q 43.598167 36.912262 43.46246 36.731323 Q 43.32676 36.55039 43.32676 36.31291 Q 43.32676 36.003056 43.580074 35.775757 Q 43.833385 35.548454 44.231445 35.548454 Q 44.441784 35.548454 44.66569 35.63666 Z M 44.27441 35.68868 Q 44.143238 35.68868 44.052765 35.820988 Q 43.962303 35.9533 43.962303 36.369453 Q 43.962303 36.706448 44.05164 36.83197 Q 44.140976 36.957497 44.263107 36.957497 Q 44.39881 36.957497 44.489277 36.833103 Q 44.579746 36.70871 44.579746 36.3491 Q 44.579746 35.944252 44.477974 35.79724 Q 44.405598 35.68868 44.27441 35.68868 Z M 44.140976 38.03859 Q 43.910282 38.03859 43.835644 38.077038 Q 43.70673 38.147152 43.70673 38.26702 Q 43.70673 38.38237 43.840168 38.47623 Q 43.97361 38.57009 44.342266 38.57009 Q 44.656647 38.57009 44.83645 38.48641 Q 45.016254 38.402725 45.016254 38.25119 Q 45.016254 38.19465 44.982327 38.1562 Q 44.92127 38.08835 44.797997 38.06347 Q 44.674732 38.03859 44.140976 38.03859 Z" />
            </g>
            <path id="path13156-4-2-9-9" fill="#0000ff" stroke="none" d="M 21.756947 26.532064 C 21.756947 28.216532 20.391415 29.582066 18.706947 29.582066 C 17.022478 29.582066 15.656947 28.216532 15.656947 26.532064 C 15.656947 24.847595 17.022478 23.482065 18.706947 23.482065 C 20.391415 23.482065 21.756947 24.847599 21.756947 26.532064 Z" />
            <g id="text1062-4-5-0">
                <path fill="#000000" stroke="none" d="M 17.33716 19.68776 L 18.169468 17.665794 L 19.417927 17.665794 L 19.417927 17.749477 L 19.318413 17.749477 Q 19.18271 17.749477 19.10129 17.796974 Q 19.044746 17.828638 19.01082 17.903275 Q 18.985943 17.957556 18.985943 18.185987 L 18.985943 20.20795 Q 18.985943 20.443169 19.01082 20.501972 Q 19.0357 20.560776 19.112598 20.60488 Q 19.189495 20.648983 19.318413 20.648983 L 19.417927 20.648983 L 19.417927 20.732666 L 17.81664 20.732666 L 17.81664 20.648983 L 17.916157 20.648983 Q 18.051859 20.648983 18.13328 20.601488 Q 18.189823 20.569824 18.223747 20.492926 Q 18.248627 20.438644 18.248627 20.20795 L 18.248627 17.934938 L 17.07254 20.732666 L 17.01826 20.732666 L 15.82408 17.955294 L 15.82408 20.115221 Q 15.82408 20.34139 15.835388 20.39341 Q 15.864791 20.506496 15.963175 20.57774 Q 16.06156 20.648983 16.271898 20.648983 L 16.271898 20.732666 L 15.222466 20.732666 L 15.222466 20.648983 L 15.25413 20.648983 Q 15.355907 20.651245 15.444114 20.616188 Q 15.53232 20.581131 15.577556 20.522327 Q 15.622787 20.463524 15.647667 20.357224 Q 15.652191 20.332344 15.652191 20.12653 L 15.652191 18.185987 Q 15.652191 17.953032 15.627312 17.895359 Q 15.602433 17.837685 15.525536 17.793581 Q 15.448637 17.749477 15.319719 17.749477 L 15.222466 17.749477 L 15.222466 17.665794 L 16.47545 17.665794 L 17.33716 19.68776 Z M 21.197887 20.648983 L 21.197887 20.732666 L 19.59434 20.732666 L 19.59434 20.648983 L 19.696115 20.648983 Q 19.829557 20.648983 19.910978 20.601488 Q 19.969782 20.569824 20.001446 20.492926 Q 20.026325 20.438644 20.026325 20.20795 L 20.026325 18.19051 Q 20.026325 17.955294 20.001446 17.896488 Q 19.976568 17.837685 19.9008 17.793581 Q 19.825033 17.749477 19.696115 17.749477 L 19.59434 17.749477 L 19.59434 17.665794 L 21.197887 17.665794 L 21.197887 17.749477 L 21.096111 17.749477 Q 20.962671 17.749477 20.881248 17.796974 Q 20.822445 17.828638 20.788519 17.905537 Q 20.763641 17.959816 20.763641 18.19051 L 20.763641 20.20795 Q 20.763641 20.443169 20.78965 20.501972 Q 20.81566 20.560776 20.891426 20.60488 Q 20.967194 20.648983 21.096111 20.648983 L 21.197887 20.648983 Z M 21.365253 20.732666 L 21.365253 20.648983 L 21.46703 20.648983 Q 21.600471 20.648983 21.671717 20.607141 Q 21.742958 20.5653 21.776884 20.492926 Q 21.797241 20.445429 21.797241 20.20795 L 21.797241 18.19051 Q 21.797241 17.955294 21.77236 17.896488 Q 21.747482 17.837685 21.671717 17.793581 Q 21.595947 17.749477 21.46703 17.749477 L 21.365253 17.749477 L 21.365253 17.665794 L 22.738108 17.665794 Q 23.287703 17.665794 23.622437 17.815067 Q 24.031803 17.998266 24.24327 18.369184 Q 24.454742 18.740105 24.454742 19.208277 Q 24.454742 19.531702 24.350704 19.804237 Q 24.246664 20.076773 24.081558 20.254316 Q 23.916456 20.43186 23.700462 20.53929 Q 23.48447 20.64672 23.172354 20.705526 Q 23.034391 20.732666 22.738108 20.732666 L 21.365253 20.732666 Z M 22.534555 17.839947 L 22.534555 20.23283 Q 22.534555 20.422813 22.552649 20.465784 Q 22.570742 20.508757 22.613714 20.531374 Q 22.67478 20.5653 22.790127 20.5653 Q 23.167831 20.5653 23.366861 20.307467 Q 23.638268 19.959164 23.638268 19.226372 Q 23.638268 18.636066 23.452808 18.283241 Q 23.305794 18.007313 23.075102 17.907797 Q 22.912262 17.837685 22.534555 17.839947 Z M 26.345528 20.648983 L 26.345528 20.732666 L 24.74198 20.732666 L 24.74198 20.648983 L 24.843756 20.648983 Q 24.977198 20.648983 25.058619 20.601488 Q 25.117422 20.569824 25.149086 20.492926 Q 25.173965 20.438644 25.173965 20.20795 L 25.173965 18.19051 Q 25.173965 17.955294 25.149086 17.896488 Q 25.124208 17.837685 25.04844 17.793581 Q 24.972675 17.749477 24.843756 17.749477 L 24.74198 17.749477 L 24.74198 17.665794 L 26.345528 17.665794 L 26.345528 17.749477 L 26.24375 17.749477 Q 26.11031 17.749477 26.028889 17.796974 Q 25.970087 17.828638 25.93616 17.905537 Q 25.911282 17.959816 25.911282 18.19051 L 25.911282 20.20795 Q 25.911282 20.443169 25.93729 20.501972 Q 25.9633 20.560776 26.039066 20.60488 Q 26.114834 20.648983 26.24375 20.648983 L 26.345528 20.648983 Z M 29.306097 20.648983 L 29.306097 20.732666 L 27.702549 20.732666 L 27.702549 20.648983 L 27.804323 20.648983 Q 27.937767 20.648983 28.019188 20.601488 Q 28.07799 20.569824 28.109655 20.492926 Q 28.134535 20.438644 28.134535 20.20795 L 28.134535 18.19051 Q 28.134535 17.955294 28.109655 17.896488 Q 28.084778 17.837685 28.00901 17.793581 Q 27.933243 17.749477 27.804323 17.749477 L 27.702549 17.749477 L 27.702549 17.665794 L 29.306097 17.665794 L 29.306097 17.749477 L 29.20432 17.749477 Q 29.07088 17.749477 28.989458 17.796974 Q 28.930655 17.828638 28.89673 17.905537 Q 28.871851 17.959816 28.871851 18.19051 L 28.871851 20.20795 Q 28.871851 20.443169 28.897858 20.501972 Q 28.92387 20.560776 28.999636 20.60488 Q 29.075401 20.648983 29.20432 20.648983 L 29.306097 20.648983 Z M 30.432428 18.617973 L 30.432428 18.89164 Q 30.595268 18.715225 30.74454 18.634935 Q 30.893814 18.554646 31.065702 18.554646 Q 31.271519 18.554646 31.40722 18.668861 Q 31.542923 18.783077 31.588158 18.952705 Q 31.624344 19.081621 31.624344 19.448017 L 31.624344 20.271278 Q 31.624344 20.515543 31.668447 20.575478 Q 31.712551 20.635412 31.852774 20.651245 L 31.852774 20.732666 L 30.78299 20.732666 L 30.78299 20.651245 Q 30.90286 20.635412 30.95488 20.55173 Q 30.991066 20.495188 30.991066 20.271278 L 30.991066 19.33041 Q 30.991066 19.070314 30.97071 19.002462 Q 30.950356 18.934612 30.90173 18.897293 Q 30.853106 18.859976 30.794298 18.859976 Q 30.599792 18.859976 30.432428 19.138165 L 30.432428 20.271278 Q 30.432428 20.508757 30.476528 20.572084 Q 30.520632 20.635412 30.640501 20.651245 L 30.640501 20.732666 L 29.570717 20.732666 L 29.570717 20.651245 Q 29.704157 20.637674 29.760702 20.5653 Q 29.799147 20.515543 29.799147 20.271278 L 29.799147 19.077099 Q 29.799147 18.837358 29.755043 18.778553 Q 29.710943 18.71975 29.570717 18.701656 L 29.570717 18.617973 L 30.432428 18.617973 Z" />
            </g>
            <path id="path13156-4-87-6-5-0" fill="#0000ff" stroke="none" d="M 44.973034 26.532064 C 44.973034 28.216532 43.607506 29.582066 41.92304 29.582066 C 40.23857 29.582066 38.87304 28.216532 38.87304 26.532064 C 38.87304 24.847599 40.23857 23.482065 41.92304 23.482065 C 43.607506 23.482065 44.973034 24.847599 44.973034 26.532064 Z" />
            <g id="text1062-4-5-8-3-2">
                <path fill="#000000" stroke="none" d="M 39.271523 19.694708 L 40.10383 17.672745 L 41.352287 17.672745 L 41.352287 17.756428 L 41.252773 17.756428 Q 41.117073 17.756428 41.035652 17.803923 Q 40.979107 17.835587 40.945183 17.910223 Q 40.920303 17.964504 40.920303 18.192936 L 40.920303 20.2149 Q 40.920303 20.450117 40.945183 20.50892 Q 40.970062 20.567724 41.04696 20.611828 Q 41.123856 20.655931 41.252773 20.655931 L 41.352287 20.655931 L 41.352287 20.739614 L 39.751003 20.739614 L 39.751003 20.655931 L 39.850517 20.655931 Q 39.98622 20.655931 40.067642 20.608437 Q 40.124184 20.576773 40.158108 20.499874 Q 40.182987 20.445593 40.182987 20.2149 L 40.182987 17.941887 L 39.0069 20.739614 L 38.95262 20.739614 L 37.758442 17.962242 L 37.758442 20.12217 Q 37.758442 20.34834 37.76975 20.400358 Q 37.799152 20.513445 37.897537 20.584688 Q 37.995922 20.655931 38.20626 20.655931 L 38.20626 20.739614 L 37.15683 20.739614 L 37.15683 20.655931 L 37.18849 20.655931 Q 37.290268 20.658194 37.378475 20.623137 Q 37.466682 20.58808 37.511917 20.529276 Q 37.557148 20.470472 37.582027 20.364172 Q 37.58655 20.339293 37.58655 20.133478 L 37.58655 18.192936 Q 37.58655 17.95998 37.561672 17.902308 Q 37.536793 17.844633 37.459896 17.80053 Q 37.383 17.756428 37.25408 17.756428 L 37.15683 17.756428 L 37.15683 17.672745 L 38.409813 17.672745 L 39.271523 19.694708 Z M 43.13225 20.655931 L 43.13225 20.739614 L 41.528706 20.739614 L 41.528706 20.655931 L 41.63048 20.655931 Q 41.76392 20.655931 41.84534 20.608437 Q 41.90415 20.576773 41.93581 20.499874 Q 41.96069 20.445593 41.96069 20.2149 L 41.96069 18.19746 Q 41.96069 17.962242 41.93581 17.903439 Q 41.91093 17.844633 41.835163 17.80053 Q 41.7594 17.756428 41.63048 17.756428 L 41.528706 17.756428 L 41.528706 17.672745 L 43.13225 17.672745 L 43.13225 17.756428 L 43.030476 17.756428 Q 42.897034 17.756428 42.815613 17.803923 Q 42.75681 17.835587 42.722885 17.912485 Q 42.698006 17.966766 42.698006 18.19746 L 42.698006 20.2149 Q 42.698006 20.450117 42.724014 20.50892 Q 42.750023 20.567724 42.82579 20.611828 Q 42.901558 20.655931 43.030476 20.655931 L 43.13225 20.655931 Z M 43.299614 20.739614 L 43.299614 20.655931 L 43.40139 20.655931 Q 43.534832 20.655931 43.60608 20.61409 Q 43.67732 20.572248 43.711243 20.499874 Q 43.731598 20.452377 43.731598 20.2149 L 43.731598 18.19746 Q 43.731598 17.962242 43.706722 17.903439 Q 43.681843 17.844633 43.60608 17.80053 Q 43.530308 17.756428 43.40139 17.756428 L 43.299614 17.756428 L 43.299614 17.672745 L 44.67247 17.672745 Q 45.22206 17.672745 45.556793 17.822016 Q 45.966164 18.005215 46.17763 18.376133 Q 46.389103 18.747053 46.389103 19.215225 Q 46.389103 19.53865 46.285065 19.811186 Q 46.181026 20.083721 46.015923 20.261265 Q 45.850815 20.438808 45.634823 20.546238 Q 45.418827 20.65367 45.106712 20.712475 Q 44.96875 20.739614 44.67247 20.739614 L 43.299614 20.739614 Z M 44.468914 17.846895 L 44.468914 20.239779 Q 44.468914 20.429762 44.48701 20.472733 Q 44.505104 20.515705 44.548077 20.538322 Q 44.609142 20.572248 44.724483 20.572248 Q 45.102192 20.572248 45.301224 20.314415 Q 45.572628 19.966112 45.572628 19.23332 Q 45.572628 18.643015 45.387165 18.29019 Q 45.240154 18.014261 45.009464 17.914745 Q 44.84662 17.844633 44.468914 17.846895 Z M 48.27989 20.655931 L 48.27989 20.739614 L 46.676342 20.739614 L 46.676342 20.655931 L 46.77812 20.655931 Q 46.911556 20.655931 46.992977 20.608437 Q 47.051785 20.576773 47.083447 20.499874 Q 47.108326 20.445593 47.108326 20.2149 L 47.108326 18.19746 Q 47.108326 17.962242 47.083447 17.903439 Q 47.058563 17.844633 46.9828 17.80053 Q 46.907032 17.756428 46.77812 17.756428 L 46.676342 17.756428 L 46.676342 17.672745 L 48.27989 17.672745 L 48.27989 17.756428 L 48.178116 17.756428 Q 48.04467 17.756428 47.96325 17.803923 Q 47.904446 17.835587 47.87052 17.912485 Q 47.845642 17.966766 47.845642 18.19746 L 47.845642 20.2149 Q 47.845642 20.450117 47.87165 20.50892 Q 47.897663 20.567724 47.973427 20.611828 Q 48.049194 20.655931 48.178116 20.655931 L 48.27989 20.655931 Z M 51.33319 17.629772 Q 52.065983 17.60263 52.523975 18.057234 Q 52.98197 18.511837 52.98197 19.19487 Q 52.98197 19.77839 52.640457 20.221684 Q 52.188114 20.809727 51.36259 20.809727 Q 50.53481 20.809727 50.082466 20.248825 Q 49.725117 19.80553 49.725117 19.197132 Q 49.725117 18.514097 50.1899 18.058365 Q 50.65468 17.60263 51.33319 17.629772 Z M 51.36033 17.77452 Q 50.93965 17.77452 50.720264 18.204245 Q 50.541595 18.55707 50.541595 19.217487 Q 50.541595 20.002298 50.81752 20.377743 Q 51.009766 20.640099 51.35581 20.640099 Q 51.58876 20.640099 51.74482 20.527014 Q 51.943848 20.382265 52.054672 20.064495 Q 52.1655 19.746727 52.1655 19.23558 Q 52.1655 18.627182 52.05241 18.325245 Q 51.939327 18.023308 51.764046 17.898914 Q 51.58876 17.77452 51.36033 17.77452 Z M 55.345448 18.624922 L 55.345448 20.280489 Q 55.345448 20.522491 55.390686 20.582426 Q 55.43592 20.64236 55.573883 20.658194 L 55.573883 20.739614 L 54.71217 20.739614 L 54.71217 20.456902 Q 54.56064 20.637838 54.409107 20.72039 Q 54.257572 20.802942 54.06985 20.802942 Q 53.89118 20.802942 53.752083 20.693249 Q 53.61299 20.583557 53.56549 20.436546 Q 53.517994 20.289536 53.517994 19.92314 L 53.517994 19.084047 Q 53.517994 18.844307 53.473896 18.785501 Q 53.42979 18.726698 53.289566 18.708605 L 53.289566 18.624922 L 54.15127 18.624922 L 54.15127 20.07015 Q 54.15127 20.29632 54.17276 20.36191 Q 54.194244 20.4275 54.24061 20.461426 Q 54.286976 20.49535 54.34804 20.49535 Q 54.42946 20.49535 54.495052 20.452377 Q 54.585518 20.393574 54.71217 20.2149 L 54.71217 19.084047 Q 54.71217 18.844307 54.66807 18.785501 Q 54.62397 18.726698 54.48374 18.708605 L 54.48374 18.624922 L 55.345448 18.624922 Z M 56.718304 17.851418 L 56.718304 18.624922 L 57.2204 18.624922 L 57.2204 18.84883 L 56.718304 18.84883 L 56.718304 20.153833 Q 56.718304 20.33703 56.735268 20.39018 Q 56.75223 20.44333 56.795204 20.476126 Q 56.838173 20.50892 56.874363 20.50892 Q 57.021374 20.50892 57.152554 20.285011 L 57.2204 20.33477 Q 57.037205 20.769016 56.625576 20.769016 Q 56.424286 20.769016 56.28519 20.657063 Q 56.146095 20.545109 56.107647 20.407145 Q 56.08503 20.330246 56.08503 19.99099 L 56.08503 18.84883 L 55.8091 18.84883 L 55.8091 18.76967 Q 56.094074 18.568378 56.294235 18.346731 Q 56.494396 18.125084 56.643673 17.851418 L 56.718304 17.851418 Z" />
            </g>
            <path id="path13156-4-87-6-5-2" fill="#0000ff" stroke="none" d="M 29.117977 26.532064 C 29.117977 28.216532 27.752445 29.582066 26.067978 29.582066 C 24.38351 29.582066 23.017979 28.216532 23.017979 26.532064 C 23.017979 24.847599 24.38351 23.482065 26.067978 23.482065 C 27.752445 23.482065 29.117977 24.847599 29.117977 26.532064 Z" />
            <path id="path13156-4-87-6-5-2-6" fill="#0000ff" stroke="none" d="M 54.010845 26.532064 C 54.010845 28.216532 52.645313 29.582066 50.960846 29.582066 C 49.27638 29.582066 47.910847 28.216532 47.910847 26.532064 C 47.910847 24.847599 49.27638 23.482065 50.960846 23.482065 C 52.645313 23.482065 54.010845 24.847599 54.010845 26.532064 Z" />
            <path id="circle13473-2" fill="#ff0000" stroke="none" d="M 23.306952 58.482903 C 23.306952 61.02341 21.247461 63.0829 18.706951 63.0829 C 16.166441 63.0829 14.106952 61.02341 14.106951 58.482903 C 14.106952 55.942394 16.166441 53.882904 18.706951 53.882904 C 21.247461 53.882904 23.306952 55.942394 23.306952 58.482903 Z" />
            <g id="text1062-60-0">
                <path fill="#000000" stroke="none" d="M 15.967522 51.6095 L 14.648947 51.6095 L 14.648947 51.141323 L 15.967522 51.141323 L 15.967522 51.6095 Z M 18.536816 49.302563 L 17.530357 52.50966 L 17.24086 52.50966 L 18.25184 49.302563 L 18.536816 49.302563 Z M 19.771706 50.75684 L 20.859587 50.75684 L 20.859587 49.67122 L 21.155869 49.67122 L 21.155869 50.75684 L 22.24375 50.75684 L 22.24375 51.05538 L 21.155869 51.05538 L 21.155869 52.131954 L 20.859587 52.131954 L 20.859587 51.05538 L 19.771706 51.05538 L 19.771706 50.75684 Z" />
            </g>
            <path id="circle13473-2-1" fill="#ff0000" stroke="none" d="M 43.473038 58.482903 C 43.473038 61.02341 41.413548 63.0829 38.87304 63.0829 C 36.33253 63.0829 34.27304 61.02341 34.27304 58.482903 C 34.27304 55.942394 36.33253 53.882904 38.87304 53.882904 C 41.413548 53.882904 43.473038 55.942394 43.473038 58.482903 Z" />
            <g id="text1062-60-0-5">
                <path fill="#000000" stroke="none" d="M 36.13361 51.6095 L 34.815037 51.6095 L 34.815037 51.141323 L 36.13361 51.141323 L 36.13361 51.6095 Z M 38.702904 49.302563 L 37.696445 52.50966 L 37.406948 52.50966 L 38.41793 49.302563 L 38.702904 49.302563 Z M 39.937798 50.75684 L 41.025677 50.75684 L 41.025677 49.67122 L 41.32196 49.67122 L 41.32196 50.75684 L 42.40984 50.75684 L 42.40984 51.05538 L 41.32196 51.05538 L 41.32196 52.131954 L 41.025677 52.131954 L 41.025677 51.05538 L 39.937798 51.05538 L 39.937798 50.75684 Z" />
            </g>
            <path id="path3973" fill="#000000" stroke="none" d="M 29.335995 50.07335 C 29.335995 51.805103 29.335995 53.53686 29.335995 55.26862 C 29.364103 56.051468 29.295713 56.839016 29.355095 57.62127 C 29.377424 57.91544 29.424673 58.326603 29.591658 58.587856 C 29.691229 58.743645 29.84419 58.857975 29.970457 58.993034 C 30.563871 59.33926 31.246756 59.406284 31.909494 59.522984 C 32.605946 59.645267 32.778877 58.66033 32.082424 58.538044 L 32.082424 58.538044 C 31.598759 58.453384 31.109058 58.382614 30.636162 58.246815 C 30.596231 58.233616 30.544542 58.23841 30.516375 58.207195 C 30.385437 58.062004 30.366434 57.7443 30.354631 57.59083 C 30.295252 56.818756 30.36474 56.04128 30.335981 55.268612 C 30.335981 53.53686 30.335981 51.805096 30.335981 50.073345 C 30.335981 49.366238 29.335981 49.366238 29.335981 50.073345 Z" />
            <path id="path3977" fill="#000000" stroke="none" d="M 39.281322 65.52498 C 39.267673 66.425095 39.13656 67.46682 39.63097 68.27843 C 39.75396 68.48031 39.93097 68.64385 40.080967 68.82657 C 40.305775 68.98243 40.51439 69.16474 40.75539 69.29417 C 41.98732 69.95576 43.47276 70.10403 44.83396 70.26118 C 46.08246 70.40532 47.505753 70.493576 48.756195 70.583466 C 50.383812 70.7249 52.019558 70.76591 53.646183 70.92023 C 54.250843 70.977585 54.794636 71.03309 55.371693 71.2109 C 55.53417 71.26097 55.685287 71.34234 55.84209 71.408066 C 55.924072 71.48147 56.020943 71.54106 56.088024 71.62829 C 56.32139 71.93174 56.365032 72.609436 56.40281 72.94444 C 56.48744 73.69496 56.540924 74.39198 56.60557 75.148796 C 56.7902 77.56525 57.14485 79.963905 57.402218 82.37277 C 57.622524 84.43467 57.63701 84.78898 57.80351 86.86553 C 58.10708 90.53225 58.26969 94.20751 58.34936 97.88521 C 58.417347 100.370895 58.376667 102.85602 58.318283 105.34119 C 58.263004 107.44298 58.242985 109.54538 58.230995 111.64777 C 58.22349 113.1622 58.223595 114.67665 58.223797 116.191086 C 58.267796 117.37246 58.195625 118.54317 58.001053 119.70796 C 57.800766 120.56629 57.5574 121.41547 57.170574 122.20933 C 57.03337 122.45603 56.912304 122.76327 56.654278 122.91597 C 56.35239 123.09462 55.722008 123.14855 55.40676 123.20664 C 55.13355 123.24065 54.86137 123.28445 54.587124 123.30878 C 53.05177 123.44529 51.505806 123.45667 49.966812 123.52357 C 48.198166 123.60048 47.758797 123.63398 45.98819 123.73983 C 42.710476 123.974045 39.431618 124.21226 36.14557 124.28301 C 35.640293 124.2416 34.227676 124.29901 33.779484 123.95155 C 33.734303 123.91656 33.682434 123.67144 33.675503 123.64447 C 33.545483 122.90007 33.586414 122.13719 33.608112 121.38516 C 33.621235 120.99186 33.614815 121.18175 33.627323 120.81545 C 33.6514 120.10875 32.651974 120.074715 32.627903 120.78145 L 32.627903 120.78145 C 32.61536 121.14999 32.621803 120.95832 32.608532 121.356445 C 32.582844 122.251205 32.525703 123.16655 32.75709 124.04014 C 32.968613 124.46473 32.966522 124.59951 33.38905 124.87222 C 34.04634 125.29646 35.437763 125.23384 36.1672 125.28283 C 39.46593 125.21111 42.757534 124.97402 46.047886 124.7381 C 47.80441 124.63303 48.249752 124.59918 50.004215 124.52292 C 51.572376 124.45472 53.147575 124.44312 54.711815 124.30103 C 55.005497 124.27433 55.29693 124.22693 55.589478 124.18986 C 56.84704 123.954384 57.48621 123.868614 58.07124 122.64391 C 58.4934 121.76165 58.776016 120.82617 58.987534 119.87195 C 59.189167 118.6528 59.269676 117.42733 59.223804 116.19104 C 59.22364 114.67853 59.223537 113.166016 59.231003 111.65352 C 59.24296 109.55706 59.262882 107.46058 59.31803 105.36472 C 59.37675 102.86451 59.417404 100.36431 59.34915 97.86358 C 59.268963 94.166435 59.105484 90.47173 58.80033 86.78562 C 58.632107 84.68949 58.618 84.33901 58.395634 82.25804 C 58.139286 79.85905 57.78602 77.47022 57.60196 75.06368 C 57.55302 74.4914 57.46679 73.40783 57.393013 72.80471 C 57.3084 72.11305 57.21704 71.375145 56.708523 70.84412 C 56.567745 70.697105 56.381126 70.60218 56.217438 70.48122 C 56.01059 70.39969 55.809906 70.30037 55.5969 70.23663 C 54.970177 70.049095 54.37378 69.98496 53.721146 69.92309 C 52.09341 69.76876 50.456585 69.72745 48.82787 69.58608 C 47.58882 69.497154 46.209507 69.41175 44.972046 69.270805 C 43.56172 69.11017 42.0432 68.977 40.83216 68.16651 C 40.73733 68.07061 40.62558 67.98891 40.54766 67.87882 C 40.13471 67.29543 40.273716 66.20472 40.281345 65.52503 C 40.281345 64.817924 39.281345 64.817924 39.281345 65.52503 Z" />
            <path id="path3979" fill="#000000" stroke="none" d="M 16.549139 64.29985 C 16.493368 64.97982 16.699053 65.9082 16.389523 66.52294 C 16.359432 66.55631 16.335764 66.59684 16.299263 66.62304 C 16.237923 66.66708 15.74312 66.73802 15.738996 66.73872 C 15.432726 66.790924 14.948764 66.85913 14.655682 66.9018 C 13.300299 67.08459 11.940144 67.22342 10.584361 67.40395 C 10.305524 67.46927 10.064962 67.5012 9.815486 67.65381 C 9.0925665 68.09606 9.023995 69.008965 8.890382 69.758354 C 8.405632 73.338104 8.285334 76.95352 8.196164 80.560646 C 8.09874 84.61533 8.167458 88.67007 8.301812 92.72274 C 8.402314 95.359604 8.457834 97.99764 8.484341 100.63617 C 8.460239 102.6952 8.515977 104.749146 8.752994 106.79506 C 9.002637 108.50186 9.298096 110.20133 9.582402 111.90251 C 9.715579 112.80274 9.898406 113.70686 9.88825 114.62062 C 9.844319 115.0562 9.849444 115.49183 10.259875 115.77116 C 10.539192 115.961266 10.783777 115.93022 11.099076 115.9465 C 11.864944 115.8812 12.621312 115.73985 13.383895 115.646255 C 13.705505 115.60666 14.029072 115.59065 14.352763 115.58245 C 15.059638 115.56436 15.034033 114.56469 14.327152 114.58279 L 14.327152 114.58279 C 13.971242 114.59178 13.615487 114.61009 13.26188 114.6538 C 12.545484 114.74198 11.834157 114.866234 11.116814 114.94673 C 11.038914 114.95173 10.902807 114.91603 10.887219 114.99243 C 10.880719 115.02403 10.902849 115.05673 10.898169 115.08873 C 10.896369 115.10082 10.871659 115.12424 10.869699 115.11213 C 10.859289 115.04763 10.887729 114.6349 10.888229 114.62609 C 10.889181 113.65491 10.721258 112.69425 10.568715 111.73774 C 10.287121 110.05293 9.994851 108.36977 9.746292 106.67961 C 9.5115185 104.66881 9.462057 102.64979 9.484289 100.62611 C 9.457682 97.97987 9.402034 95.334145 9.301262 92.68959 C 9.167511 88.656166 9.098912 84.62072 9.195859 80.585304 C 9.28353 77.02741 9.401848 73.4616 9.875504 69.9302 C 9.90012 69.7854 10.014268 68.724556 10.227639 68.56491 C 10.370098 68.45833 10.550585 68.43669 10.716357 68.395195 C 12.076184 68.21411 13.440454 68.07532 14.799807 67.89134 C 15.348605 67.811386 16.298994 67.744255 16.784649 67.4701 C 17.094643 67.29511 17.123001 67.18882 17.31045 66.91266 C 17.35984 66.7853 17.422747 66.66239 17.45863 66.530594 C 17.655191 65.80859 17.49913 65.03482 17.54914 64.299835 C 17.54914 63.59273 16.54914 63.59273 16.54914 64.299835 Z" />
            <path id="circle13473-6" fill="#ff0000" stroke="none" d="M 58.61084 43.518925 C 58.61084 46.059433 56.551353 48.118923 54.010845 48.118923 C 51.470337 48.118923 49.410847 46.059433 49.410847 43.518925 C 49.410847 40.978416 51.470337 38.918926 54.010845 38.918926 C 56.551353 38.918926 58.61084 40.978416 58.61084 43.518925 Z" />
            <g id="text1062-60-4">
                <path fill="#000000" stroke="none" d="M 51.188873 36.94341 L 51.073524 38.01998 L 48.350433 38.01998 L 48.350433 37.9363 L 48.45221 37.9363 Q 48.58565 37.9363 48.667076 37.8888 Q 48.725876 37.85714 48.75754 37.78024 Q 48.782417 37.72596 48.782417 37.495266 L 48.782417 35.477825 Q 48.782417 35.242607 48.75754 35.183804 Q 48.732662 35.125 48.656895 35.0809 Q 48.581123 35.036793 48.45221 35.036793 L 48.350433 35.036793 L 48.350433 34.95311 L 49.985645 34.95311 L 49.985645 35.036793 L 49.8522 35.036793 Q 49.718765 35.036793 49.637344 35.08429 Q 49.578537 35.11595 49.544613 35.192852 Q 49.519733 35.24713 49.519733 35.477825 L 49.519733 37.43194 Q 49.519733 37.667156 49.546875 37.731613 Q 49.574017 37.796074 49.653175 37.827736 Q 49.709717 37.84809 49.92684 37.84809 L 50.182415 37.84809 Q 50.426674 37.84809 50.589523 37.762146 Q 50.752365 37.6762 50.8711 37.49074 Q 50.989838 37.305283 51.09614 36.94341 L 51.188873 36.94341 Z M 53.301304 36.886868 L 52.141052 36.886868 Q 52.161407 37.307545 52.36496 37.551807 Q 52.521015 37.73953 52.740402 37.73953 Q 52.876102 37.73953 52.986927 37.66376 Q 53.097755 37.587997 53.224407 37.391228 L 53.301304 37.440987 Q 53.129417 37.79155 52.921337 37.937428 Q 52.71326 38.08331 52.439594 38.08331 Q 51.969162 38.08331 51.727154 37.721436 Q 51.53265 37.429676 51.53265 36.997692 Q 51.53265 36.468452 51.818756 36.155205 Q 52.104862 35.84196 52.489353 35.84196 Q 52.810516 35.84196 53.046867 36.10545 Q 53.28321 36.36894 53.301304 36.886868 Z M 52.744923 36.735332 Q 52.744923 36.3712 52.705345 36.235497 Q 52.665764 36.099796 52.58208 36.029682 Q 52.534588 35.98897 52.455425 35.98897 Q 52.33782 35.98897 52.263184 36.104317 Q 52.12974 36.30561 52.12974 36.656174 L 52.12974 36.735332 L 52.744923 36.735332 Z M 54.732964 37.707867 Q 54.34621 38.049385 54.03862 38.049385 Q 53.857685 38.049385 53.73781 37.930645 Q 53.61794 37.811905 53.61794 37.63323 Q 53.61794 37.391228 53.826015 37.197853 Q 54.034096 37.004475 54.732964 36.683315 L 54.732964 36.470715 Q 54.732964 36.230972 54.706955 36.168777 Q 54.680946 36.10658 54.60857 36.060215 Q 54.536194 36.01385 54.44573 36.01385 Q 54.298717 36.01385 54.203724 36.07944 Q 54.14492 36.12015 54.14492 36.17443 Q 54.14492 36.221928 54.208244 36.292038 Q 54.294197 36.389294 54.294197 36.47976 Q 54.294197 36.590584 54.21164 36.668613 Q 54.12909 36.746643 53.995647 36.746643 Q 53.853157 36.746643 53.757042 36.660698 Q 53.66092 36.574753 53.66092 36.459404 Q 53.66092 36.296562 53.789833 36.148422 Q 53.91875 36.00028 54.14944 35.92112 Q 54.38014 35.84196 54.628925 35.84196 Q 54.929737 35.84196 55.105015 35.969746 Q 55.280296 36.097534 55.33231 36.246807 Q 55.36398 36.341797 55.36398 36.683315 L 55.36398 37.504314 Q 55.36398 37.649063 55.37529 37.68638 Q 55.386597 37.723698 55.409214 37.74179 Q 55.431835 37.759884 55.46123 37.759884 Q 55.520035 37.759884 55.5811 37.6762 L 55.648952 37.730484 Q 55.535873 37.89785 55.414867 37.973618 Q 55.293865 38.049385 55.14007 38.049385 Q 54.959133 38.049385 54.85736 37.96457 Q 54.755577 37.879757 54.732964 37.707867 Z M 54.732964 37.542763 L 54.732964 36.834846 Q 54.459293 36.99543 54.32586 37.178627 Q 54.23765 37.30076 54.23765 37.42515 Q 54.23765 37.52919 54.312283 37.608353 Q 54.368828 37.66942 54.470604 37.66942 Q 54.58369 37.66942 54.732964 37.542763 Z M 56.75945 35.90529 L 56.75945 36.38477 Q 56.969788 36.056824 57.128105 35.94939 Q 57.286427 35.84196 57.433437 35.84196 Q 57.560093 35.84196 57.635857 35.91999 Q 57.711628 35.998016 57.711628 36.140507 Q 57.711628 36.292038 57.63812 36.37572 Q 57.564617 36.459404 57.46058 36.459404 Q 57.34071 36.459404 57.2525 36.382507 Q 57.16429 36.30561 57.14846 36.296562 Q 57.125843 36.282993 57.096443 36.282993 Q 57.030857 36.282993 56.972046 36.33275 Q 56.87932 36.40965 56.83182 36.552135 Q 56.75945 36.771523 56.75945 37.03614 L 56.75945 37.522408 L 56.76171 37.649063 Q 56.76171 37.77798 56.777542 37.814167 Q 56.804684 37.875233 56.857834 37.903503 Q 56.91098 37.931774 57.037636 37.93856 L 57.037636 38.01998 L 55.895473 38.01998 L 55.895473 37.93856 Q 56.03344 37.92725 56.08207 37.862793 Q 56.13069 37.798336 56.13069 37.522408 L 56.13069 36.353104 Q 56.13069 36.17217 56.112606 36.122414 Q 56.089985 36.059082 56.047012 36.029682 Q 56.00404 36.00028 55.895473 35.98897 L 55.895473 35.90529 L 56.75945 35.90529 Z M 58.801765 35.90529 L 58.801765 36.178955 Q 58.964615 36.00254 59.11388 35.92225 Q 59.263157 35.84196 59.435043 35.84196 Q 59.640858 35.84196 59.77656 35.956177 Q 59.912262 36.070393 59.9575 36.24002 Q 59.993683 36.36894 59.993683 36.735332 L 59.993683 37.558594 Q 59.993683 37.802856 60.037792 37.862793 Q 60.08189 37.92273 60.222115 37.93856 L 60.222115 38.01998 L 59.152332 38.01998 L 59.152332 37.93856 Q 59.2722 37.92273 59.324215 37.839046 Q 59.36041 37.7825 59.36041 37.558594 L 59.36041 36.617725 Q 59.36041 36.357628 59.340054 36.28978 Q 59.319702 36.221928 59.271072 36.18461 Q 59.222443 36.14729 59.16364 36.14729 Q 58.969128 36.14729 58.801765 36.42548 L 58.801765 37.558594 Q 58.801765 37.796074 58.84587 37.8594 Q 58.889973 37.92273 59.009842 37.93856 L 59.009842 38.01998 L 57.940056 38.01998 L 57.940056 37.93856 Q 58.073498 37.92499 58.13004 37.852615 Q 58.168488 37.802856 58.168488 37.558594 L 58.168488 36.364414 Q 58.168488 36.124672 58.124386 36.06587 Q 58.08028 36.007065 57.940056 35.98897 L 57.940056 35.90529 L 58.801765 35.90529 Z" />
            </g>
        </g>
    </g>
</svg>