<?xml version="1.0" encoding="UTF-8" standalone="no"?>
<svg
   version="1.1"
   width="71.120003mm"
   height="128.5mm"
   viewBox="0 0 71.120003 128.5"
   id="svg8664"
   sodipodi:docname="byrd_svg.svg"
   inkscape:version="1.2.2 (732a01da63, 2022-12-09)"
   xmlns:inkscape="http://www.inkscape.org/namespaces/inkscape"
   xmlns:sodipodi="http://sodipodi.sourceforge.net/DTD/sodipodi-0.dtd"
   xmlns="http://www.w3.org/2000/svg"
   xmlns:svg="http://www.w3.org/2000/svg"
   xmlns:rdf="http://www.w3.org/1999/02/22-rdf-syntax-ns#"
   xmlns:cc="http://creativecommons.org/ns#"
   xmlns:dc="http://purl.org/dc/elements/1.1/">
  <defs
     id="defs8668" />
  <sodipodi:namedview
     id="namedview8666"
     pagecolor="#ffffff"
     bordercolor="#000000"
     borderopacity="0.25"
     inkscape:showpageshadow="2"
     inkscape:pageopacity="0.0"
     inkscape:pagecheckerboard="0"
     inkscape:deskcolor="#d1d1d1"
     inkscape:document-units="mm"
     showgrid="false"
     showguides="true"
     inkscape:zoom="1.1851376"
     inkscape:cx="69.190278"
     inkscape:cy="283.51138"
     inkscape:window-width="1920"
     inkscape:window-height="1017"
     inkscape:window-x="-8"
     inkscape:window-y="-8"
     inkscape:window-maximized="1"
     inkscape:current-layer="layer1">
    <inkscape:grid
       type="xygrid"
       id="grid13701"
       originx="0"
       originy="0" />
  </sodipodi:namedview>
  <title
     id="title2">SVG Image created as ES_Daisy_Patch_SM_FB_Rev1-brd.svg date 2024/04/30 13:34:42 </title>
  <desc
     id="desc4">Image generated by PCBNEW </desc>
  <g
     style="display:none;fill:#000000;fill-opacity:1;stroke:#000000;stroke-linecap:round;stroke-linejoin:round;stroke-opacity:1"
     id="g6" />
  <g
     inkscape:groupmode="layer"
     id="layer2"
     inkscape:label="holes"
     style="fill:#280b0b"
     sodipodi:insensitive="true">
    <g
       inkscape:label="EuroPanel"
       id="g721">
      <rect
         style="fill:#e6e6e6;stroke:none;stroke-width:0mm"
         height="128.5"
         width="70.760002"
         x="0"
         y="0"
         rx="0"
         ry="0"
         id="rect711" />
      <rect
         style="fill:#ffffff;stroke:none;stroke-width:0mm"
         height="3.2"
         width="5.5"
         x="4.75"
         y="123.9"
         rx="1.6"
         ry="0"
         id="rect713" />
      <rect
         style="fill:#ffffff;stroke:none;stroke-width:0mm"
         height="3.2"
         width="5.5"
         x="4.75"
         y="1.4"
         rx="1.6"
         ry="0"
         id="rect715" />
      <rect
         style="fill:#ffffff;stroke:none;stroke-width:0mm"
         height="3.2"
         width="5.5"
         x="60.630001"
         y="123.9"
         rx="1.6"
         ry="0"
         id="rect717" />
      <rect
         style="fill:#ffffff;stroke:none;stroke-width:0mm"
         height="3.2"
         width="5.5"
         x="60.630001"
         y="1.4"
         rx="1.6"
         ry="0"
         id="rect719" />
    </g>
  </g>
  <g
     inkscape:groupmode="layer"
     id="layer1"
     inkscape:label="bg"
     style="display:inline">
    <circle
       style="fill:#ffff00;stroke:none;stroke-width:0.323397"
       id="path355-3"
       cx="32.663162"
       cy="100.03733"
       r="1.5" />
    <circle
       style="fill:#ffff00;stroke:none;stroke-width:0.323397"
       id="path355-2"
       cx="37.25589"
       cy="100.03733"
       r="1.5" />
    <circle
       style="fill:#ffff00;stroke:none;stroke-width:0.323397"
       id="path355-8"
       cx="28.070435"
       cy="100.03733"
       r="1.5" />
    <circle
       style="fill:#ffff00;stroke:none;stroke-width:0.323397"
       id="path355-1"
       cx="23.477703"
       cy="100.03733"
       r="1.5" />
    <rect
       style="fill:#000000;stroke:none;stroke-width:0;stroke-dasharray:none"
       id="rect5959"
       width="32.961407"
       height="9.0416718"
       x="17.715393"
       y="110.57463" />
    <circle
       style="fill:#ffff00;stroke:none;stroke-width:0.323397"
       id="path355"
       cx="18.884975"
       cy="100.03733"
       r="1.5" />
    <rect
       style="display:inline;fill:#000000;stroke:none;stroke-width:0;stroke-dasharray:none"
       id="rect5959-3"
       width="20.980581"
       height="9.0416718"
       x="35.996357"
       y="22.011229" />
    <circle
       style="display:inline;fill:#ffff00;stroke:none;stroke-width:0.323397"
       id="path355-82"
       cx="28.090528"
       cy="78.300659"
       r="1.5" />
    <circle
       style="display:inline;fill:#ffff00;stroke:none;stroke-width:0.323397"
       id="path355-1-9-7"
       cx="28.090528"
       cy="74.497734"
       r="1.5" />
    <circle
       style="display:inline;fill:#ffff00;stroke:none;stroke-width:0.323397"
       id="path355-82-7"
       cx="28.478085"
       cy="89.199371"
       r="1.5" />
    <circle
       style="display:inline;fill:#ffff00;stroke:none;stroke-width:0.323397"
       id="path355-1-9-7-0"
       cx="24.057938"
       cy="89.199371"
       r="1.5" />
    <circle
       style="display:inline;fill:#ffff00;stroke:none;stroke-width:0.323397"
       id="path355-82-7-2"
       cx="37.083309"
       cy="89.199371"
       r="1.5" />
    <circle
       style="display:inline;fill:#ffff00;stroke:none;stroke-width:0.323397"
       id="path355-1-9-7-0-6"
       cx="32.663162"
       cy="89.199371"
       r="1.5" />
    <circle
       style="display:inline;fill:#ffff00;stroke:none;stroke-width:0.323397"
       id="path355-82-7-2-5"
       cx="41.583309"
       cy="89.199371"
       r="1.5" />
    <circle
       style="display:inline;fill:#ffff00;stroke:none;stroke-width:0.323397"
       id="path355-82-7-2-5-6"
       cx="53.910007"
       cy="107.60739"
       r="1.5" />
    <rect
       style="display:inline;fill:#000000;stroke:none;stroke-width:0;stroke-dasharray:none"
       id="rect5959-4"
       width="10.314816"
       height="3.2451324"
       x="18.90053"
       y="94.690773" />
    <rect
       style="display:inline;fill:#000000;stroke:none;stroke-width:0;stroke-dasharray:none"
       id="rect5959-4-0"
       width="13.157787"
       height="3.2451324"
       x="33.353462"
       y="94.690773" />
  </g>
  <metadata
     id="metadata13212">
    <rdf:RDF>
      <cc:Work
         rdf:about="">
        <dc:title>SVG Image created as ES_Daisy_Patch_SM_FB_Rev1-brd.svg date 2024/04/30 13:34:42 </dc:title>
      </cc:Work>
    </rdf:RDF>
  </metadata>
  <g
     inkscape:groupmode="layer"
     id="layer3"
     inkscape:label="components"
     style="display:inline">
    <circle
       style="fill:#ff0000;stroke-width:0.264583"
       id="circle13473"
       cx="18.973825"
       cy="76.453766"
       r="4.5999999"
       inkscape:label="feedback" />
    <circle
       style="fill:#0000ff;stroke-width:0.264583"
       id="path13156-4-87"
       cx="35.75589"
       cy="114.94242"
       r="3.05"
       inkscape:label="audio R" />
    <circle
       style="fill:#0000ff;stroke-width:0.264583"
       id="path13156-4-2"
       cx="23.589188"
       cy="114.94242"
       r="3.05"
       inkscape:label="audio L" />
    <circle
       style="display:inline;fill:#0000ff;stroke-width:0.264583"
       id="path13156-4-87-6"
       cx="30.873653"
       cy="43.518925"
       r="3.05"
       inkscape:label="audio R" />
    <circle
       style="display:inline;fill:#0000ff;stroke-width:0.264583"
       id="path13156-4-2-9"
       cx="18.706951"
       cy="43.518925"
       r="3.05"
       inkscape:label="audio L" />
    <text
       xml:space="preserve"
       style="font-style:normal;font-variant:normal;font-weight:bold;font-stretch:normal;font-size:4.63197px;font-family:Ubuntu;-inkscape-font-specification:'Ubuntu Bold';display:inline;fill:#ffff00;stroke:none;stroke-width:0.264583"
       x="30.969145"
       y="74.588654"
       id="text1062-60"><tspan
         sodipodi:role="line"
         id="tspan1060-2"
         style="font-style:normal;font-variant:normal;font-weight:bold;font-stretch:normal;font-size:4.63197px;font-family:Ubuntu;-inkscape-font-specification:'Ubuntu Bold';fill:#000000;stroke-width:0.264583"
         x="30.969145"
         y="74.588654">Quantize</tspan><tspan
         sodipodi:role="line"
         style="font-style:normal;font-variant:normal;font-weight:bold;font-stretch:normal;font-size:4.63197px;font-family:Ubuntu;-inkscape-font-specification:'Ubuntu Bold';fill:#000000;stroke-width:0.264583"
         x="30.969145"
         y="80.378616"
         id="tspan3581">Sequence</tspan></text>
    <text
       xml:space="preserve"
       style="font-style:normal;font-variant:normal;font-weight:bold;font-stretch:normal;font-size:4.63197px;font-family:Ubuntu;-inkscape-font-specification:'Ubuntu Bold';display:inline;fill:#ffff00;stroke:none;stroke-width:0.264583"
       x="16.576244"
       y="37.566669"
       id="text1062-4-5"><tspan
         sodipodi:role="line"
         id="tspan1060-6-2"
         style="font-style:normal;font-variant:normal;font-weight:bold;font-stretch:normal;font-size:4.63197px;font-family:Ubuntu;-inkscape-font-specification:'Ubuntu Bold';fill:#000000;stroke-width:0.264583"
         x="16.576244"
         y="37.566669">In</tspan><tspan
         sodipodi:role="line"
         style="font-style:normal;font-variant:normal;font-weight:bold;font-stretch:normal;font-size:4.63197px;font-family:Ubuntu;-inkscape-font-specification:'Ubuntu Bold';fill:#000000;stroke-width:0.264583"
         x="16.576244"
         y="43.356632"
         id="tspan1432" /></text>
    <text
       xml:space="preserve"
       style="font-style:normal;font-variant:normal;font-weight:bold;font-stretch:normal;font-size:4.63197px;font-family:Ubuntu;-inkscape-font-specification:'Ubuntu Bold';display:inline;fill:#ffff00;stroke:none;stroke-width:0.264583"
       x="20.539188"
       y="109.21238"
       id="text1062-4-5-4"><tspan
         sodipodi:role="line"
         id="tspan1060-6-2-8"
         style="font-style:normal;font-variant:normal;font-weight:bold;font-stretch:normal;font-size:4.63197px;font-family:Ubuntu;-inkscape-font-specification:'Ubuntu Bold';fill:#000000;stroke-width:0.264583"
         x="20.539188"
         y="109.21238"> A</tspan><tspan
         sodipodi:role="line"
         style="font-style:normal;font-variant:normal;font-weight:bold;font-stretch:normal;font-size:4.63197px;font-family:Ubuntu;-inkscape-font-specification:'Ubuntu Bold';fill:#000000;stroke-width:0.264583"
         x="20.539188"
         y="115.00234"
         id="tspan1432-6" /></text>
    <text
       xml:space="preserve"
       style="font-weight:bold;font-size:4.63197222px;font-family:Ubuntu;-inkscape-font-specification:'Ubuntu Bold';display:inline;fill:#ffff00;stroke:none;stroke-width:0.264583;font-style:normal;font-stretch:normal;font-variant:normal"
       x="25.69742"
       y="13.819802"
       id="text1062-1"><tspan
         sodipodi:role="line"
         id="tspan1060-26"
         style="fill:#000000;stroke-width:0.264583;-inkscape-font-specification:'Ubuntu Bold';font-family:Ubuntu;font-weight:bold;font-style:normal;font-stretch:normal;font-variant:normal;font-size:4.63197222px"
         x="25.69742"
         y="13.819802">Byrd</tspan></text>
    <circle
       style="display:inline;fill:#ffff00;stroke:none;stroke-width:0.323397"
       id="path355-1-1"
       cx="46.51125"
       cy="100.03733"
       r="1.5" />
    <circle
       style="display:inline;fill:#ffff00;stroke:none;stroke-width:0.323397"
       id="path355-5"
       cx="41.918522"
       cy="100.03733"
       r="1.5" />
    <circle
       style="display:inline;fill:#ffff00;stroke:none;stroke-width:0.323397"
       id="path355-2-6"
       cx="35.34824"
       cy="96.313339"
       r="1.5" />
    <circle
       style="display:inline;fill:#ffff00;stroke:none;stroke-width:0.323397"
       id="path355-8-0"
       cx="26.162783"
       cy="96.313339"
       r="1.5" />
    <circle
       style="display:inline;fill:#ffff00;stroke:none;stroke-width:0.323397"
       id="path355-1-9"
       cx="21.570051"
       cy="96.313339"
       r="1.5" />
    <circle
       style="display:inline;fill:#ffff00;stroke:none;stroke-width:0.323397"
       id="path355-1-1-7"
       cx="44.6036"
       cy="96.313339"
       r="1.5" />
    <circle
       style="display:inline;fill:#ffff00;stroke:none;stroke-width:0.323397"
       id="path355-5-8"
       cx="40.010872"
       cy="96.313339"
       r="1.5" />
    <circle
       style="display:inline;fill:#0000ff;stroke-width:0.264583"
       id="path13156-4-87-8"
       cx="45.730988"
       cy="114.94242"
       r="3.05"
       inkscape:label="audio R" />
    <text
       xml:space="preserve"
       style="font-style:normal;font-variant:normal;font-weight:bold;font-stretch:normal;font-size:4.63197px;font-family:Ubuntu;-inkscape-font-specification:'Ubuntu Bold';display:inline;fill:#ffff00;stroke:none;stroke-width:0.264583"
       x="33.545448"
       y="109.21006"
       id="text1062-4-5-4-9"><tspan
         sodipodi:role="line"
         id="tspan1060-6-2-8-4"
         style="font-style:normal;font-variant:normal;font-weight:bold;font-stretch:normal;font-size:4.63197px;font-family:Ubuntu;-inkscape-font-specification:'Ubuntu Bold';fill:#000000;stroke-width:0.264583"
         x="33.545448"
         y="109.21006">B</tspan><tspan
         sodipodi:role="line"
         style="font-style:normal;font-variant:normal;font-weight:bold;font-stretch:normal;font-size:4.63197px;font-family:Ubuntu;-inkscape-font-specification:'Ubuntu Bold';fill:#000000;stroke-width:0.264583"
         x="33.545448"
         y="115.00002"
         id="tspan3313" /><tspan
         sodipodi:role="line"
         style="font-style:normal;font-variant:normal;font-weight:bold;font-stretch:normal;font-size:4.63197px;font-family:Ubuntu;-inkscape-font-specification:'Ubuntu Bold';fill:#000000;stroke-width:0.264583"
         x="33.545448"
         y="120.78999"
         id="tspan1432-6-2" /></text>
    <text
       xml:space="preserve"
       style="font-style:normal;font-variant:normal;font-weight:bold;font-stretch:normal;font-size:4.63197px;font-family:Ubuntu;-inkscape-font-specification:'Ubuntu Bold';display:inline;fill:#ffff00;stroke:none;stroke-width:0.264583"
       x="42.431892"
       y="108.94603"
       id="text1062-4-5-4-9-9"><tspan
         sodipodi:role="line"
         id="tspan1060-6-2-8-4-1"
         style="font-style:normal;font-variant:normal;font-weight:bold;font-stretch:normal;font-size:4.63197px;font-family:Ubuntu;-inkscape-font-specification:'Ubuntu Bold';fill:#000000;stroke-width:0.264583"
         x="42.431892"
         y="108.94603">Trig</tspan><tspan
         sodipodi:role="line"
         style="font-style:normal;font-variant:normal;font-weight:bold;font-stretch:normal;font-size:4.63197px;font-family:Ubuntu;-inkscape-font-specification:'Ubuntu Bold';fill:#000000;stroke-width:0.264583"
         x="42.431892"
         y="114.73599"
         id="tspan3313-5" /><tspan
         sodipodi:role="line"
         style="font-style:normal;font-variant:normal;font-weight:bold;font-stretch:normal;font-size:4.63197px;font-family:Ubuntu;-inkscape-font-specification:'Ubuntu Bold';fill:#000000;stroke-width:0.264583"
         x="42.431892"
         y="120.52596"
         id="tspan1432-6-2-4" /></text>
    <text
       xml:space="preserve"
       style="font-style:normal;font-variant:normal;font-weight:bold;font-stretch:normal;font-size:4.63197px;font-family:Ubuntu;-inkscape-font-specification:'Ubuntu Bold';display:inline;fill:#ffff00;stroke:none;stroke-width:0.264583"
       x="25.283983"
       y="37.726475"
       id="text1062-4-5-8"><tspan
         sodipodi:role="line"
         id="tspan1060-6-2-7"
         style="font-style:normal;font-variant:normal;font-weight:bold;font-stretch:normal;font-size:4.63197px;font-family:Ubuntu;-inkscape-font-specification:'Ubuntu Bold';fill:#000000;stroke-width:0.264583"
         x="25.283983"
         y="37.726475">Mod</tspan><tspan
         sodipodi:role="line"
         style="font-style:normal;font-variant:normal;font-weight:bold;font-stretch:normal;font-size:4.63197px;font-family:Ubuntu;-inkscape-font-specification:'Ubuntu Bold';fill:#000000;stroke-width:0.264583"
         x="25.283983"
         y="43.516438"
         id="tspan1432-9" /></text>
    <circle
       style="display:inline;fill:#0000ff;stroke-width:0.264583"
       id="path13156-4-87-6-5"
       cx="41.923038"
       cy="43.518925"
       r="3.05"
       inkscape:label="audio R" />
    <text
       xml:space="preserve"
       style="font-style:normal;font-variant:normal;font-weight:bold;font-stretch:normal;font-size:4.63197px;font-family:Ubuntu;-inkscape-font-specification:'Ubuntu Bold';display:inline;fill:#ffff00;stroke:none;stroke-width:0.264583"
       x="37.064102"
       y="37.726475"
       id="text1062-4-5-8-3"><tspan
         sodipodi:role="line"
         id="tspan1060-6-2-7-3"
         style="font-style:normal;font-variant:normal;font-weight:bold;font-stretch:normal;font-size:4.63197px;font-family:Ubuntu;-inkscape-font-specification:'Ubuntu Bold';fill:#000000;stroke-width:0.264583"
         x="37.064102"
         y="37.726475">Trig</tspan><tspan
         sodipodi:role="line"
         style="font-style:normal;font-variant:normal;font-weight:bold;font-stretch:normal;font-size:4.63197px;font-family:Ubuntu;-inkscape-font-specification:'Ubuntu Bold';fill:#000000;stroke-width:0.264583"
         x="37.064102"
         y="43.516438"
         id="tspan1432-9-1" /></text>
    <circle
       style="display:inline;fill:#0000ff;stroke-width:0.264583"
       id="path13156-4-2-9-9"
       cx="18.706947"
       cy="26.532064"
       r="3.05"
       inkscape:label="audio L" />
    <text
       xml:space="preserve"
       style="font-style:normal;font-variant:normal;font-weight:bold;font-stretch:normal;font-size:4.63197px;font-family:Ubuntu;-inkscape-font-specification:'Ubuntu Bold';display:inline;fill:#ffff00;stroke:none;stroke-width:0.264583"
       x="15.129737"
       y="20.732666"
       id="text1062-4-5-0"><tspan
         sodipodi:role="line"
         id="tspan1060-6-2-3"
         style="font-style:normal;font-variant:normal;font-weight:bold;font-stretch:normal;font-size:4.63197px;font-family:Ubuntu;-inkscape-font-specification:'Ubuntu Bold';fill:#000000;stroke-width:0.264583"
         x="15.129737"
         y="20.732666">MIDI In</tspan><tspan
         sodipodi:role="line"
         style="font-style:normal;font-variant:normal;font-weight:bold;font-stretch:normal;font-size:4.63197px;font-family:Ubuntu;-inkscape-font-specification:'Ubuntu Bold';fill:#000000;stroke-width:0.264583"
         x="15.129737"
         y="26.522629"
         id="tspan1432-0" /></text>
    <circle
       style="display:inline;fill:#0000ff;stroke-width:0.264583"
       id="path13156-4-87-6-5-0"
       cx="41.923038"
       cy="26.532064"
       r="3.05"
       inkscape:label="audio R" />
    <text
       xml:space="preserve"
       style="font-style:normal;font-variant:normal;font-weight:bold;font-stretch:normal;font-size:4.63197px;font-family:Ubuntu;-inkscape-font-specification:'Ubuntu Bold';display:inline;fill:#ffff00;stroke:none;stroke-width:0.264583"
       x="37.064098"
       y="20.739614"
       id="text1062-4-5-8-3-2"><tspan
         sodipodi:role="line"
         id="tspan1060-6-2-7-3-1"
         style="font-style:normal;font-variant:normal;font-weight:bold;font-stretch:normal;font-size:4.63197px;font-family:Ubuntu;-inkscape-font-specification:'Ubuntu Bold';fill:#000000;stroke-width:0.264583"
         x="37.064098"
         y="20.739614">MIDI Out</tspan><tspan
         sodipodi:role="line"
         style="font-style:normal;font-variant:normal;font-weight:bold;font-stretch:normal;font-size:4.63197px;font-family:Ubuntu;-inkscape-font-specification:'Ubuntu Bold';fill:#000000;stroke-width:0.264583"
         x="37.064098"
         y="26.529577"
         id="tspan1432-9-1-6" /></text>
    <circle
       style="display:inline;fill:#0000ff;stroke-width:0.264583"
       id="path13156-4-87-6-5-2"
       cx="26.067978"
       cy="26.532064"
       r="3.05"
       inkscape:label="audio R" />
    <circle
       style="display:inline;fill:#0000ff;stroke-width:0.264583"
       id="path13156-4-87-6-5-2-6"
       cx="50.960846"
       cy="26.532064"
       r="3.05"
       inkscape:label="audio R" />
    <circle
       style="display:inline;fill:#ff0000;stroke-width:0.264583"
       id="circle13473-2"
       cx="18.706951"
       cy="58.482903"
       r="4.5999999"
       inkscape:label="feedback" />
    <text
       xml:space="preserve"
       style="font-style:normal;font-variant:normal;font-weight:bold;font-stretch:normal;font-size:4.63197px;font-family:Ubuntu;-inkscape-font-specification:'Ubuntu Bold';display:inline;fill:#ffff00;stroke:none;stroke-width:0.264583"
       x="14.535862"
       y="52.439545"
       id="text1062-60-0"><tspan
         sodipodi:role="line"
         style="font-style:normal;font-variant:normal;font-weight:bold;font-stretch:normal;font-size:4.63197px;font-family:Ubuntu;-inkscape-font-specification:'Ubuntu Bold';fill:#000000;stroke-width:0.264583"
         x="14.535862"
         y="52.439545"
         id="tspan3581-4">- / +</tspan></text>
    <circle
       style="display:inline;fill:#ff0000;stroke-width:0.264583"
       id="circle13473-2-1"
       cx="38.873039"
       cy="58.482903"
       r="4.5999999"
       inkscape:label="feedback" />
    <text
       xml:space="preserve"
       style="font-style:normal;font-variant:normal;font-weight:bold;font-stretch:normal;font-size:4.63197px;font-family:Ubuntu;-inkscape-font-specification:'Ubuntu Bold';display:inline;fill:#ffff00;stroke:none;stroke-width:0.264583"
       x="34.70195"
       y="52.439545"
       id="text1062-60-0-5"><tspan
         sodipodi:role="line"
         style="font-style:normal;font-variant:normal;font-weight:bold;font-stretch:normal;font-size:4.63197px;font-family:Ubuntu;-inkscape-font-specification:'Ubuntu Bold';fill:#000000;stroke-width:0.264583"
         x="34.70195"
         y="52.439545"
         id="tspan3581-4-4">- / +</tspan></text>
    <path
       style="fill:#000000;stroke-width:0.264583"
       id="path3973"
       d="m 29.335994,50.07335 c 0,1.731754 0,3.46351 0,5.195266 0.02811,0.782849 -0.04028,1.570397 0.0191,2.352654 0.02233,0.294164 0.06958,0.705334 0.236564,0.966589 0.09957,0.155784 0.252532,0.270116 0.378799,0.405175 0.593415,0.346228 1.276299,0.41325 1.939036,0.52995 0.696452,0.122279 0.869384,-0.862653 0.172931,-0.984936 v 0 c -0.483666,-0.08466 -0.973365,-0.155437 -1.446262,-0.291232 -0.03993,-0.0132 -0.09162,-0.0084 -0.119788,-0.03962 -0.130939,-0.145193 -0.149939,-0.462894 -0.161742,-0.616368 -0.05938,-0.772075 0.01011,-1.549551 -0.01865,-2.322216 0,-1.731756 0,-3.463512 0,-5.195266 0,-0.707107 -1.000001,-0.707107 -1.000001,0 z" />
    <path
       style="fill:#000000;stroke-width:0.264583"
       id="path3977"
       d="m 39.281324,65.524982 c -0.01365,0.900113 -0.144766,1.941836 0.349647,2.753445 0.122987,0.201885 0.299998,0.365427 0.449996,0.54814 0.224806,0.155866 0.433422,0.338172 0.674423,0.467598 1.231929,0.661591 2.717366,0.809863 4.078573,0.967015 1.248497,0.144137 2.671791,0.232397 3.922233,0.322286 1.627616,0.141436 3.263363,0.182441 4.889987,0.336759 0.60466,0.05736 1.14845,0.112861 1.725509,0.290674 0.162476,0.05007 0.3136,0.131443 0.4704,0.197163 0.08198,0.07341 0.178851,0.132998 0.245933,0.220228 0.233363,0.303448 0.277006,0.981147 0.314783,1.316151 0.08463,0.750517 0.138115,1.447544 0.202763,2.204353 0.184627,2.416452 0.539279,4.815115 0.796648,7.223976 0.2203,2.061896 0.234788,2.416207 0.401291,4.49276 0.303569,3.66672 0.466182,7.341973 0.545856,11.019676 0.06798,2.485684 0.0273,4.970814 -0.03108,7.455984 -0.05528,2.10178 -0.0753,4.20419 -0.08729,6.30658 -0.0075,1.51443 -0.0074,3.02888 -0.0072,4.54332 0.044,1.18137 -0.02817,2.35208 -0.222742,3.51687 -0.200287,0.85833 -0.443656,1.70751 -0.83048,2.50137 -0.137205,0.2467 -0.258273,0.55394 -0.516292,0.70664 -0.301892,0.17865 -0.93227,0.23258 -1.247521,0.29068 -0.273211,0.034 -0.545393,0.0778 -0.819637,0.10213 -1.53535,0.13651 -3.081316,0.14789 -4.62031,0.21479 -1.768649,0.0769 -2.208016,0.11041 -3.978627,0.21626 -3.277711,0.23421 -6.556568,0.47243 -9.842619,0.54318 -0.505274,-0.0414 -1.917893,0.016 -2.366084,-0.33146 -0.04518,-0.035 -0.09705,-0.28011 -0.103981,-0.30708 -0.130019,-0.7444 -0.08909,-1.50728 -0.06739,-2.25931 0.01312,-0.39331 0.0067,-0.20341 0.01921,-0.56971 0.02408,-0.7067 -0.97535,-0.74074 -0.999421,-0.034 v 0 c -0.01254,0.36853 -0.0061,0.17687 -0.01937,0.57499 -0.02569,0.89476 -0.08283,1.81011 0.148561,2.6837 0.211519,0.4246 0.209428,0.55937 0.631955,0.83208 0.657294,0.42425 2.048716,0.36161 2.778149,0.4106 3.298735,-0.0717 6.590336,-0.3088 9.880687,-0.54472 1.756526,-0.10506 2.20187,-0.13892 3.95633,-0.21518 1.568164,-0.0682 3.143361,-0.0798 4.707602,-0.22189 0.293682,-0.0267 0.585107,-0.0741 0.877662,-0.11117 1.257562,-0.23548 1.896732,-0.32125 2.48176,-1.54595 0.422159,-0.88226 0.704779,-1.81774 0.916295,-2.77196 0.201633,-1.21915 0.282143,-2.44462 0.23627,-3.68091 -1.64e-4,-1.51251 -2.65e-4,-3.02502 0.0072,-4.53752 0.01196,-2.09646 0.03188,-4.19294 0.08703,-6.28879 0.05872,-2.50022 0.09937,-5.00042 0.03112,-7.501148 -0.08019,-3.69715 -0.24367,-7.391847 -0.548822,-11.077964 -0.168228,-2.096127 -0.182332,-2.446607 -0.404699,-4.527576 -0.256349,-2.398993 -0.609608,-4.787821 -0.79367,-7.194357 -0.04894,-0.572283 -0.135173,-1.655853 -0.20895,-2.258978 -0.08461,-0.691658 -0.175974,-1.42956 -0.68449,-1.960594 -0.140774,-0.147008 -0.327393,-0.241933 -0.491088,-0.362898 -0.206843,-0.08153 -0.40753,-0.180842 -0.62053,-0.244578 -0.626729,-0.187539 -1.223126,-0.251674 -1.875763,-0.313552 -1.62773,-0.154324 -3.264551,-0.195639 -4.893276,-0.337 -1.239044,-0.08893 -2.618362,-0.174331 -3.85582,-0.31528 -1.410322,-0.160637 -2.928843,-0.293807 -4.139883,-1.104292 -0.09483,-0.0959 -0.206581,-0.177609 -0.284501,-0.287692 -0.412954,-0.58339 -0.273944,-1.6741 -0.266314,-2.353789 0,-0.707106 -1,-0.707106 -1,0 z" />
    <path
       style="fill:#000000;stroke-width:0.264583"
       id="path3979"
       d="m 16.549139,64.299848 c -0.05577,0.679976 0.149914,1.608352 -0.159616,2.223092 -0.03009,0.03337 -0.05376,0.0739 -0.09026,0.100103 -0.06134,0.04404 -0.556143,0.11498 -0.560268,0.115684 -0.306269,0.0522 -0.790231,0.120404 -1.083313,0.163073 -1.355384,0.182785 -2.715538,0.321617 -4.071321,0.502155 -0.278837,0.06531 -0.519399,0.09724 -0.7688753,0.249857 -0.7229195,0.442248 -0.79149,1.355156 -0.9251043,2.104546 -0.4847497,3.579746 -0.6050473,7.195164 -0.6942172,10.802289 -0.097425,4.054684 -0.028707,8.109418 0.1056476,12.162094 0.100502,2.636859 0.1560227,5.274892 0.1825289,7.913429 -0.024101,2.05903 0.031636,4.11298 0.2686532,6.15889 0.2496433,1.7068 0.5451017,3.40627 0.8294081,5.10746 0.1331767,0.90022 0.3160038,1.80434 0.305848,2.7181 -0.043931,0.43558 -0.038806,0.87121 0.371625,1.15054 0.279317,0.1901 0.523902,0.15907 0.839201,0.17535 0.765868,-0.0653 1.522236,-0.20666 2.284819,-0.30025 0.32161,-0.0396 0.645176,-0.0556 0.968868,-0.0638 0.706875,-0.0181 0.68127,-1.01777 -0.02561,-0.99967 v 0 c -0.355911,0.009 -0.711666,0.0273 -1.065272,0.071 -0.716397,0.0882 -1.427724,0.21245 -2.145067,0.29294 -0.0779,0.005 -0.214007,-0.0307 -0.229595,0.0457 -0.0065,0.0316 0.01563,0.0643 0.01095,0.0963 -0.0018,0.0121 -0.02651,0.0355 -0.02847,0.0234 -0.01041,-0.0645 0.01803,-0.47723 0.01853,-0.48604 9.52e-4,-0.97118 -0.166971,-1.93184 -0.319514,-2.88834 -0.281594,-1.68482 -0.5738643,-3.36798 -0.8224226,-5.05814 -0.2347738,-2.01081 -0.284235,-4.02983 -0.2620032,-6.0535 C 9.4576817,97.979874 9.402034,95.334142 9.3012619,92.689589 9.1675108,88.656177 9.0989125,84.620723 9.195859,80.585306 9.2835305,77.027409 9.4018477,73.461601 9.8755032,69.930197 9.90012,69.785404 10.014268,68.724554 10.227639,68.564913 c 0.142459,-0.106585 0.322946,-0.12822 0.488718,-0.16972 1.359827,-0.181081 2.724096,-0.319879 4.08345,-0.503849 0.548798,-0.07996 1.499188,-0.14709 1.984842,-0.42124 0.309994,-0.17499 0.338353,-0.281287 0.525801,-0.557443 0.04939,-0.127357 0.112297,-0.250267 0.14818,-0.382066 0.196562,-0.722 0.0405,-1.495772 0.09051,-2.23076 0,-0.707107 -0.999999,-0.707107 -0.999999,0 z" />
    <circle
       style="display:inline;fill:#ff0000;stroke-width:0.264583"
       id="circle13473-6"
       cx="54.010845"
       cy="43.518925"
       r="4.5999999"
       inkscape:label="feedback" />
    <text
       xml:space="preserve"
       style="font-style:normal;font-variant:normal;font-weight:bold;font-stretch:normal;font-size:4.63197px;font-family:Ubuntu;-inkscape-font-specification:'Ubuntu Bold';display:inline;fill:#ffff00;stroke:none;stroke-width:0.264583"
       x="48.264488"
       y="38.019981"
       id="text1062-60-4"><tspan
         sodipodi:role="line"
         id="tspan1060-2-2"
         style="font-style:normal;font-variant:normal;font-weight:bold;font-stretch:normal;font-size:4.63197px;font-family:Ubuntu;-inkscape-font-specification:'Ubuntu Bold';fill:#000000;stroke-width:0.264583"
         x="48.264488"
         y="38.019981">Learn</tspan><tspan
         sodipodi:role="line"
         style="font-style:normal;font-variant:normal;font-weight:bold;font-stretch:normal;font-size:4.63197px;font-family:Ubuntu;-inkscape-font-specification:'Ubuntu Bold';fill:#000000;stroke-width:0.264583"
         x="48.264488"
         y="43.809944"
         id="tspan3581-6" /></text>
  </g>
</svg>
