<svg xmlns="http://www.w3.org/2000/svg" width="480" height="1517.7166">
    <defs />
    <g transform="matrix(11.811024 0 0 11.811024 0 0)">
        <path id="rect1153" fill="#d781e0" stroke="none" d="M 0 0 L 40.639996 0 L 40.639996 128.5 L 0 128.5 Z" />
        <path id="path2475" fill="#000000" stroke="none" d="M 1.1282966 16.064653 C 1.6727664 18.13956 2.3356633 20.181524 2.8956826 22.253054 C 3.0269132 22.744 3.3184452 23.90328 3.5207543 24.43289 C 3.632634 24.725773 3.8881311 25.352085 4.296935 25.423248 C 4.566151 25.470106 4.861324 25.399055 5.102324 25.27024 C 5.315464 25.156319 5.4266906 24.911896 5.5888734 24.732721 C 6.0104136 24.117203 6.325672 23.4404 6.691216 22.792128 C 6.792606 22.612318 6.882637 22.42489 7.002055 22.256512 C 7.064437 22.168552 7.1244693 22.031637 7.232275 22.029243 C 7.3187556 22.027344 7.1461115 22.179262 7.1030283 22.254269 C 7.1400685 22.338072 7.168863 22.426018 7.214148 22.505665 C 7.3191924 22.69041 7.4434133 22.863644 7.5530295 23.045717 C 7.8090553 23.470976 8.03223 23.916115 8.301793 24.332926 C 8.417652 24.51207 8.515575 24.712172 8.677498 24.851086 C 8.856125 25.004332 9.091268 25.075502 9.298152 25.187712 C 9.553114 25.156652 9.826263 25.194113 10.063037 25.094542 C 10.587531 24.874046 11.065978 24.229074 11.36796 23.798822 C 12.077212 22.788313 12.608853 21.664957 13.155802 20.563322 C 13.323479 20.202114 13.491159 19.840904 13.658837 19.479694 C 13.956477 18.838284 13.049384 18.417355 12.751742 19.058767 L 12.751742 19.058767 C 12.58783 19.412132 12.423918 19.765495 12.260005 20.11886 C 11.538622 21.573755 10.841073 23.097113 9.682216 24.264406 C 9.32283 24.257608 9.478057 24.312769 9.165967 23.829735 C 8.888526 23.400328 8.663038 22.939188 8.393924 22.504517 C 8.252153 22.27553 8.127528 22.032076 7.950523 21.82909 C 7.768178 21.61998 7.533885 21.462593 7.3255663 21.279346 C 7.051097 21.301537 6.7578278 21.243656 6.502157 21.345926 C 6.332515 21.413786 6.243078 21.605963 6.1370463 21.754759 C 6.0128345 21.929068 5.9200726 22.123798 5.814976 22.310253 C 5.478333 22.907518 5.18435 23.528353 4.8109684 24.10434 C 4.463191 24.663809 4.6567564 24.14958 4.81036 24.565117 C 4.8220468 24.596737 4.7359757 24.626144 4.715274 24.599546 C 4.6081076 24.461828 4.5374737 24.297352 4.475154 24.13436 C 4.274833 23.610435 3.988345 22.468378 3.8610036 21.991987 C 3.3045423 19.935188 2.649114 17.906862 2.1044836 15.847722 C 1.9510907 15.1574545 0.9749036 15.374383 1.1282966 16.064653 Z" />
        <path id="path2477" fill="#000000" stroke="none" d="M 21.111588 20.17032 C 20.936354 20.086231 20.710894 19.964727 20.51853 19.936222 C 19.531649 19.789988 18.863092 20.38612 18.16082 20.973993 C 17.961592 21.201017 17.746609 21.415129 17.563133 21.655064 C 16.816704 22.631178 16.202368 23.95075 16.043173 25.177013 C 16.003323 25.484001 16.024153 25.795853 16.014643 26.105272 C 16.074842 26.399622 16.095163 26.705036 16.19525 26.988323 C 16.59252 28.112812 17.641933 28.883444 18.791048 29.10425 C 19.10033 29.163681 19.41915 29.15155 19.7332 29.175201 C 21.092716 29.111794 22.37564 28.64833 23.417545 27.758125 C 24.06551 27.204502 24.150522 26.983727 24.619965 26.295128 C 25.155787 25.264761 25.6604 24.051266 25.287281 22.873928 C 25.228868 22.689629 25.125475 22.522741 25.044575 22.347147 C 24.757635 21.884516 24.334585 21.614555 23.882545 21.341633 C 23.274155 20.98127 22.764524 21.841663 23.372913 22.202028 L 23.372913 22.202028 C 23.659569 22.367407 23.945133 22.523434 24.14974 22.79354 C 24.201828 22.88454 24.270306 22.967949 24.306004 23.066538 C 24.63545 23.976322 24.18301 24.936455 23.78908 25.738684 C 23.651072 25.949368 23.531466 26.173332 23.37505 26.370737 C 22.496292 27.479774 21.185064 28.07617 19.793919 28.177048 C 19.556435 28.167147 19.316376 28.183647 19.081467 28.147346 C 18.294432 28.02588 17.47787 27.539059 17.171734 26.772736 C 17.089344 26.566486 17.066874 26.341097 17.014442 26.125277 C 17.016043 25.881884 16.990673 25.636827 17.019142 25.395098 C 17.178427 24.040892 17.913029 22.734364 18.808992 21.73552 C 19.119629 21.465618 19.735697 20.852535 20.216747 20.889584 C 20.339273 20.898983 20.506586 20.987963 20.615488 21.03856 C 21.22943 21.389383 21.725569 20.52114 21.111628 20.170317 Z" />
        <path id="path2479" fill="#000000" stroke="none" d="M 27.726377 22.586159 C 27.289776 24.133097 27.184313 25.758287 27.098156 27.357124 C 27.164137 27.854647 27.079586 28.315113 27.799139 28.446917 C 28.05276 28.493378 28.307024 28.331842 28.537409 28.21606 C 28.857822 28.05504 29.112125 27.701826 29.390387 27.485273 C 29.44529 27.442545 29.516464 27.426443 29.579502 27.397034 C 29.630192 27.555403 29.253914 27.461615 29.24271 27.590614 C 29.2298 27.739336 29.29327 27.884872 29.31987 28.031761 C 29.40725 28.514315 29.441578 28.801506 29.624441 29.265644 C 29.701164 29.460354 29.80952 29.641066 29.902061 29.828772 C 30.035164 29.986176 30.136852 30.176773 30.301365 30.300982 C 31.541782 31.237494 33.331177 30.144358 34.450027 29.5307 C 35.387688 28.9697 36.21587 28.258411 37.044685 27.553282 C 37.583057 27.094856 36.934746 26.333483 36.396374 26.791908 L 36.396374 26.791908 C 35.61927 27.454216 34.843964 28.123959 33.96717 28.655 C 33.24414 29.05601 32.553154 29.448975 31.739103 29.63317 C 31.582539 29.6686 31.2246 29.740301 31.047132 29.634773 C 30.943554 29.573181 30.878387 29.462687 30.794014 29.376646 C 30.571968 28.954557 30.535988 28.943993 30.41511 28.452951 C 30.28251 27.9143 30.290066 26.933132 29.752712 26.593218 C 29.565714 26.474924 29.312607 26.546806 29.092556 26.523598 C 28.531496 26.861328 28.86085 26.625628 28.379736 27.064129 C 28.281494 27.153667 28.159458 27.220512 28.07978 27.326918 C 28.048437 27.368769 28.056707 27.431698 28.065937 27.483162 C 28.086597 27.598475 28.122337 27.9273 28.16808 27.819447 C 28.222101 27.692083 28.12051 27.546877 28.09672 27.410587 C 28.17702 25.900803 28.274132 24.365671 28.675056 22.902376 C 28.898664 22.231558 27.94998 21.91533 27.726372 22.586151 Z" />
        <path id="path2481" fill="#000000" stroke="none" d="M 35.56335 34.29315 C 35.20326 34.446842 35.309875 34.300053 35.61936 34.395042 C 35.67044 34.410732 35.692432 34.50976 35.744015 34.49583 C 35.786156 34.48445 35.737015 34.40845 35.726845 34.366013 C 35.706635 34.282074 35.677586 34.20051 35.652954 34.117752 C 35.444996 33.726295 35.077805 33.571987 34.650723 33.699417 C 34.557484 33.727238 34.313553 33.778168 34.39235 33.83525 C 34.640106 34.014736 34.890934 34.189945 35.140224 34.36729 C 35.35596 33.693897 34.40364 33.3888 34.187904 34.062195 L 34.187904 34.062195 C 34.42647 34.273026 34.65501 34.49577 34.9036 34.694687 C 34.91654 34.705036 34.949146 34.685184 34.94613 34.668884 C 34.94323 34.653324 34.91372 34.673084 34.89869 34.66809 C 34.79881 34.63547 34.697353 34.538338 34.70216 34.427452 C 34.804146 34.679802 34.74141 34.95585 34.983673 35.166897 C 35.286182 35.430424 35.57215 35.376045 35.879578 35.241734 C 36.5504 35.018127 36.234173 34.069447 35.56335 34.293053 Z" />
        <path id="path2483" fill="#000000" stroke="none" d="M 38.095585 32.420963 C 39.12712 31.690542 40.187984 31.002823 41.24629 30.3122 C 41.83845 29.925758 41.29194 29.088306 40.699776 29.474749 L 40.699776 29.474749 C 39.61155 30.18494 38.51938 30.890629 37.462345 31.647005 C 36.915077 32.09477 37.548317 32.86873 38.095585 32.420963 Z" />
    </g>
</svg>