<?xml version="1.0" encoding="UTF-8" standalone="no"?>
<svg
   version="1.1"
   width="40.639999mm"
   height="128.5mm"
   viewBox="0 0 40.64 128.5"
   id="svg8664"
   sodipodi:docname="dance.svg"
   inkscape:version="1.2.2 (732a01da63, 2022-12-09)"
   xmlns:inkscape="http://www.inkscape.org/namespaces/inkscape"
   xmlns:sodipodi="http://sodipodi.sourceforge.net/DTD/sodipodi-0.dtd"
   xmlns="http://www.w3.org/2000/svg"
   xmlns:svg="http://www.w3.org/2000/svg"
   xmlns:rdf="http://www.w3.org/1999/02/22-rdf-syntax-ns#"
   xmlns:cc="http://creativecommons.org/ns#">
  <defs
     id="defs8668" />
  <sodipodi:namedview
     id="namedview8666"
     pagecolor="#ffffff"
     bordercolor="#000000"
     borderopacity="0.25"
     inkscape:showpageshadow="2"
     inkscape:pageopacity="0.0"
     inkscape:pagecheckerboard="0"
     inkscape:deskcolor="#d1d1d1"
     inkscape:document-units="mm"
     showgrid="false"
     showguides="true"
     inkscape:zoom="1.1851376"
     inkscape:cx="49.783249"
     inkscape:cy="232.88435"
     inkscape:window-width="1920"
     inkscape:window-height="1017"
     inkscape:window-x="-8"
     inkscape:window-y="-8"
     inkscape:window-maximized="1"
     inkscape:current-layer="layer1">
    <inkscape:grid
       type="xygrid"
       id="grid13701"
       originx="0"
       originy="0" />
  </sodipodi:namedview>
  <desc
     id="desc4">Image generated by PCBNEW </desc>
  <metadata
     id="metadata13212">
    <rdf:RDF>
      <cc:Work
         rdf:about="" />
    </rdf:RDF>
  </metadata>
  <rect
     style="fill:#d781e0;fill-opacity:1;stroke:none;stroke-width:0.264583"
     id="rect1153"
     width="40.639996"
     height="128.5"
     x="0"
     y="0"
     inkscape:label="bg"
     sodipodi:insensitive="true" />
  <path
     style="fill:#000000;fill-opacity:1;stroke:none;stroke-width:0.264583"
     id="path2475"
     d="m 1.1282966,16.064653 c 0.5444699,2.074908 1.2073667,4.116872 1.7673859,6.188401 0.1312307,0.490946 0.4227626,1.650226 0.6250715,2.179836 0.1118799,0.292883 0.3673771,0.919196 0.7761809,0.990356 0.2692164,0.04686 0.5643888,-0.02419 0.805389,-0.153006 0.2131399,-0.113921 0.3243665,-0.358347 0.4865497,-0.53752 0.4215394,-0.615518 0.7367987,-1.29232 1.1023422,-1.940592 0.1013902,-0.17981 0.1914211,-0.367238 0.3108394,-0.535616 0.062382,-0.08796 0.1224135,-0.224875 0.2302203,-0.227268 0.08648,-0.0019 -0.086164,0.150017 -0.1292468,0.225026 0.03704,0.0838 0.065834,0.171748 0.1111189,0.251393 0.1050449,0.184749 0.2292657,0.35798 0.3388823,0.540053 0.2560254,0.42526 0.4792006,0.870399 0.7487634,1.287209 0.1158584,0.179145 0.2137823,0.379246 0.3757044,0.518161 0.1786273,0.153246 0.4137697,0.224417 0.6206545,0.336625 0.2549618,-0.03106 0.528111,0.0064 0.7648848,-0.09317 0.524494,-0.220495 1.002941,-0.865466 1.304924,-1.295719 0.709251,-1.010509 1.240892,-2.133865 1.787841,-3.235499 0.167678,-0.361209 0.335357,-0.722418 0.503035,-1.083628 0.29764,-0.641412 -0.609454,-1.06234 -0.907094,-0.420928 v 0 c -0.163913,0.353365 -0.327825,0.706729 -0.491738,1.060093 -0.721383,1.454896 -1.418933,2.978254 -2.5777889,4.145547 -0.3593862,-0.0068 -0.2041589,0.04836 -0.5162492,-0.434673 C 8.8885256,23.400328 8.6630382,22.939187 8.3939239,22.504517 8.252153,22.27553 8.1275279,22.032075 7.950523,21.82909 7.7681779,21.61998 7.5338852,21.462594 7.3255663,21.279346 c -0.2744695,0.02219 -0.5677384,-0.03569 -0.8234085,0.06658 -0.1696434,0.06786 -0.2590789,0.260037 -0.3651117,0.408834 -0.1242116,0.174308 -0.216974,0.369038 -0.3220699,0.555496 -0.3366432,0.597262 -0.6306262,1.218097 -1.0040078,1.794086 -0.3477776,0.559464 -0.1542118,0.04524 -6.085e-4,0.460775 0.011687,0.03162 -0.074384,0.06103 -0.095086,0.03443 C 4.6081074,24.461829 4.5374737,24.297352 4.4751537,24.134359 4.2748334,23.610435 3.988345,22.468378 3.8610034,21.991988 3.3045426,19.935189 2.6491139,17.906862 2.1044837,15.847722 1.9510907,15.157454 0.97490361,15.374384 1.1282966,16.064653 Z" />
  <path
     style="fill:#000000;fill-opacity:1;stroke:none;stroke-width:0.264583"
     id="path2477"
     d="m 21.111587,20.170321 c -0.175234,-0.08409 -0.400694,-0.205594 -0.593058,-0.234099 -0.98688,-0.146234 -1.655437,0.449898 -2.357709,1.037772 -0.199229,0.227023 -0.414211,0.441135 -0.597687,0.681069 -0.74643,0.976114 -1.360765,2.295687 -1.51996,3.52195 -0.03985,0.306989 -0.01902,0.618839 -0.02853,0.928259 0.0602,0.29435 0.08052,0.599766 0.180606,0.883051 0.397271,1.124489 1.446684,1.89512 2.595799,2.115928 0.309282,0.05943 0.628102,0.0473 0.942152,0.07095 1.359517,-0.06341 2.642442,-0.52687 3.684347,-1.417076 0.647963,-0.553622 0.732977,-0.774399 1.20242,-1.462999 0.53582,-1.030365 1.040433,-2.243861 0.667314,-3.421197 -0.05841,-0.184301 -0.161805,-0.351188 -0.242707,-0.526783 -0.286938,-0.46263 -0.709989,-0.732591 -1.16203,-1.005513 -0.60839,-0.360363 -1.118021,0.50003 -0.509631,0.860393 v 0 c 0.286656,0.165379 0.572222,0.321408 0.776825,0.591514 0.05209,0.091 0.120567,0.174409 0.156267,0.272997 0.329445,0.909785 -0.122997,1.869919 -0.516925,2.672147 -0.138009,0.210685 -0.257613,0.434648 -0.414029,0.632053 -0.878758,1.109038 -2.189986,1.705433 -3.581132,1.80631 -0.237484,-0.0099 -0.477544,0.0066 -0.712453,-0.0297 -0.787035,-0.121465 -1.603596,-0.608288 -1.909732,-1.374611 -0.08239,-0.206248 -0.10486,-0.43164 -0.157291,-0.64746 0.0016,-0.243393 -0.02377,-0.488447 0.0047,-0.730178 0.159284,-1.354206 0.893885,-2.660734 1.78985,-3.65958 0.310636,-0.2699 0.926704,-0.882982 1.407754,-0.845935 0.122526,0.0094 0.289839,0.09838 0.398742,0.148977 0.613941,0.350823 1.11008,-0.51742 0.496139,-0.868243 z" />
  <path
     style="fill:#000000;fill-opacity:1;stroke:none;stroke-width:0.264583"
     id="path2479"
     d="m 27.726378,22.586157 c -0.4366,1.546939 -0.542065,3.172131 -0.628222,4.770968 0.06598,0.49752 -0.01857,0.957988 0.700985,1.089792 0.253619,0.04646 0.507883,-0.115075 0.738267,-0.230854 0.320415,-0.161023 0.574717,-0.514236 0.852979,-0.730789 0.0549,-0.04273 0.126077,-0.05883 0.189116,-0.08824 0.05069,0.158369 -0.32559,0.06458 -0.336793,0.19358 -0.01291,0.148722 0.05056,0.294256 0.07716,0.441148 0.08738,0.482552 0.121706,0.769744 0.304572,1.233882 0.07672,0.194712 0.185079,0.375419 0.27762,0.563128 0.133101,0.157403 0.234791,0.348001 0.399304,0.47221 1.240419,0.936511 3.029809,-0.156623 4.148661,-0.770282 0.937662,-0.561001 1.765842,-1.272288 2.59466,-1.977416 0.538372,-0.458428 -0.10994,-1.219801 -0.648314,-0.761376 v 0 c -0.777102,0.662308 -1.552411,1.332048 -2.429203,1.863093 -0.723029,0.40101 -1.414015,0.793975 -2.228067,0.97817 -0.156564,0.03543 -0.514503,0.10713 -0.69197,0.0016 -0.103579,-0.06159 -0.168746,-0.172085 -0.253119,-0.258127 -0.222046,-0.422087 -0.258027,-0.432652 -0.378904,-0.923692 -0.132599,-0.538652 -0.125045,-1.519817 -0.662398,-1.859735 -0.186999,-0.118293 -0.440105,-0.04641 -0.660156,-0.06962 -0.56106,0.33773 -0.231706,0.102031 -0.71282,0.540531 -0.09824,0.08954 -0.220278,0.156384 -0.299958,0.262789 -0.03134,0.04185 -0.02307,0.10478 -0.01384,0.156245 0.02066,0.115313 0.0564,0.444137 0.102142,0.336285 0.05402,-0.127363 -0.04757,-0.272571 -0.07136,-0.408858 0.0803,-1.509787 0.177414,-3.044919 0.578337,-4.50821 0.223607,-0.670821 -0.725077,-0.987048 -0.948685,-0.316228 z" />
  <path
     style="fill:#000000;fill-opacity:1;stroke:none;stroke-width:0.264583"
     id="path2481"
     d="m 35.563352,34.293153 c -0.360095,0.153689 -0.253476,0.0069 0.05601,0.101889 0.05108,0.01569 0.07307,0.11472 0.124654,0.10079 0.04214,-0.01138 -0.007,-0.08738 -0.01717,-0.129818 -0.02021,-0.08394 -0.04926,-0.165507 -0.07389,-0.248263 -0.20796,-0.391454 -0.575151,-0.545762 -1.002233,-0.418333 -0.09324,0.02782 -0.337172,0.07875 -0.258374,0.135834 0.247758,0.179483 0.498586,0.354693 0.747877,0.532038 0.215735,-0.673394 -0.736587,-0.97849 -0.952321,-0.305097 v 0 c 0.238565,0.210831 0.467106,0.433578 0.715693,0.632492 0.01294,0.01035 0.04555,-0.0095 0.04253,-0.0258 -0.0029,-0.01556 -0.03241,0.0042 -0.04744,-7.94e-4 -0.09988,-0.03262 -0.201335,-0.129754 -0.196527,-0.240638 0.101984,0.252349 0.03925,0.528394 0.281514,0.739442 0.302506,0.26353 0.588476,0.20915 0.895903,0.07484 0.670822,-0.223607 0.354594,-1.172289 -0.316227,-0.948682 z" />
  <path
     style="fill:#000000;fill-opacity:1;stroke:none;stroke-width:0.264583"
     id="path2483"
     d="m 38.095584,32.420962 c 1.031536,-0.73042 2.092399,-1.41814 3.150703,-2.108761 0.592166,-0.386443 0.04565,-1.223894 -0.546513,-0.837451 v 0 c -1.088226,0.710189 -2.180394,1.415878 -3.237428,2.172253 -0.54727,0.447767 0.08597,1.221724 0.633238,0.773959 z" />
  <g
     inkscape:groupmode="layer"
     id="layer1"
     inkscape:label="components"
     style="display:none">
    <circle
       style="fill:#00ff00;fill-opacity:1;stroke:none;stroke-width:0.131698"
       id="path2154"
       cx="7.9115567"
       cy="119.09367"
       r="1.75" />
    <circle
       style="fill:#00ff00;fill-opacity:1;stroke:none;stroke-width:0.131698"
       id="path2154-6"
       cx="16.183851"
       cy="119.09367"
       r="1.75" />
    <circle
       style="fill:#00ff00;fill-opacity:1;stroke:none;stroke-width:0.131698"
       id="path2154-9"
       cx="24.456148"
       cy="119.09367"
       r="1.75" />
    <circle
       style="fill:#00ff00;fill-opacity:1;stroke:none;stroke-width:0.131698"
       id="path2154-3"
       cx="32.728443"
       cy="119.09367"
       r="1.75" />
    <rect
       style="fill:#ffff00;fill-opacity:1;stroke:none;stroke-width:0.35856"
       id="rect2308"
       width="28.316887"
       height="50.021"
       x="6.1615562"
       y="39.239502" />
  </g>
</svg>
