<svg xmlns="http://www.w3.org/2000/svg" width="12.022666666666666mm" height="12.022666666666666mm" viewBox="0 0 142 142" version="1.1" xml:space="preserve" style="fill-rule:evenodd;clip-rule:evenodd;stroke-linejoin:round;stroke-miterlimit:2;">
    <g opacity="0.29">
        <path d="M70.985,7.271C72.956,7.271 74.949,7.365 76.908,7.55C77.305,7.588 77.707,7.671 78.103,7.796L78.388,7.887L78.685,7.92C80.376,8.109 82.247,8.133 83.687,8.133C84.505,8.133 85.345,8.124 86.198,8.115C87.054,8.106 87.922,8.096 88.793,8.096C92.206,8.096 96.042,8.24 98.61,9.302C101.235,10.388 102.888,12.584 104.802,15.128C106.313,17.135 107.875,19.21 110.078,20.954L110.29,21.121L110.528,21.249C110.889,21.442 111.208,21.653 111.475,21.874C114.539,24.411 117.378,27.255 119.912,30.327C120.133,30.596 120.343,30.914 120.536,31.274L120.667,31.519L120.84,31.736C122.438,33.74 124.467,35.494 126.43,37.189C129.314,39.68 132.037,42.033 133.221,44.887C134.429,47.799 134.184,51.708 133.947,55.489C133.781,58.136 133.61,60.873 133.913,63.426L136.716,63.093L133.997,63.868C134.077,64.158 134.174,64.531 134.204,64.846C134.583,68.814 134.586,72.832 134.212,76.788C134.179,77.138 134.102,77.514 133.983,77.906L133.902,78.171L133.871,78.447C133.601,80.838 133.69,83.423 133.785,86.161C133.93,90.332 134.079,94.645 132.832,97.66C131.686,100.432 129.156,102.489 126.477,104.667C124.466,106.302 122.386,107.994 120.704,110.129L120.553,110.32L120.435,110.532C120.243,110.876 120.085,111.114 119.887,111.353C117.353,114.413 114.509,117.252 111.433,119.79C111.158,120.017 110.983,120.136 110.683,120.302L110.466,120.422L110.272,120.576C108.254,122.168 106.449,124.218 104.704,126.2C102.215,129.026 99.642,131.949 96.729,133.157C95.226,133.781 93.382,134.071 90.927,134.071C89.418,134.071 87.811,133.963 86.257,133.858C84.652,133.75 82.992,133.638 81.375,133.638C80.253,133.638 79.256,133.692 78.328,133.801L78.085,133.829L77.85,133.896C77.483,134.001 77.23,134.051 76.914,134.081C74.92,134.271 72.894,134.368 70.894,134.368C68.924,134.368 66.931,134.274 64.971,134.089C64.584,134.052 64.362,134.013 64.059,133.926L63.823,133.859L63.58,133.83C62.43,133.695 61.152,133.632 59.559,133.632C58.335,133.632 57.059,133.67 55.763,133.708C54.486,133.747 53.188,133.786 51.902,133.786C49.48,133.786 46.402,133.663 44.084,132.704C41.296,131.551 39.254,129.032 37.091,126.366C35.464,124.36 33.781,122.285 31.641,120.595L31.441,120.437L31.219,120.315C30.896,120.138 30.676,119.989 30.404,119.764C27.343,117.23 24.504,114.386 21.965,111.308C21.757,111.056 21.624,110.864 21.466,110.581L21.347,110.368L21.196,110.176C19.581,108.131 17.522,106.351 15.531,104.629C12.641,102.132 9.911,99.772 8.717,96.894C7.494,93.944 7.727,89.984 7.953,86.153C8.109,83.51 8.27,80.777 7.971,78.234L7.943,77.996L7.878,77.766C7.762,77.353 7.702,77.062 7.676,76.793C7.297,72.825 7.294,68.807 7.668,64.851C7.698,64.53 7.772,64.239 7.856,63.93L7.915,63.711L7.942,63.487C8.253,60.847 8.019,58.154 7.793,55.549C7.478,51.918 7.181,48.487 8.352,45.658C9.584,42.679 12.634,39.9 15.584,37.213C17.531,35.44 19.544,33.606 21.088,31.659L21.253,31.45L21.38,31.216C21.58,30.847 21.78,30.543 21.993,30.286C24.529,27.222 27.374,24.384 30.449,21.848C30.695,21.645 30.994,21.448 31.364,21.247L31.599,21.12L31.809,20.953C33.802,19.364 35.572,17.335 37.283,15.373C39.719,12.579 42.239,9.69 45.114,8.497C46.596,7.883 48.422,7.597 50.859,7.597C52.372,7.597 53.984,7.706 55.542,7.811C57.15,7.919 58.813,8.032 60.429,8.032C61.546,8.032 62.538,7.979 63.461,7.87L63.706,7.841L63.944,7.773C64.36,7.653 64.684,7.585 64.965,7.559C66.96,7.368 68.985,7.271 70.985,7.271M70.985,4.226C68.871,4.226 66.766,4.327 64.675,4.527C64.139,4.578 63.617,4.698 63.104,4.846C62.242,4.947 61.346,4.987 60.429,4.987C57.369,4.987 54.055,4.552 50.859,4.552C48.433,4.551 46.075,4.802 43.947,5.685C38.215,8.062 34.547,14.877 29.911,18.571C29.42,18.838 28.945,19.14 28.51,19.5C25.309,22.14 22.337,25.095 19.647,28.344C19.281,28.785 18.972,29.267 18.701,29.767C14.997,34.441 7.927,38.718 5.538,44.494C3.142,50.285 5.616,57.198 4.917,63.131C4.787,63.611 4.684,64.065 4.636,64.564C4.239,68.763 4.25,72.953 4.645,77.083C4.694,77.604 4.806,78.09 4.947,78.59C5.647,84.549 3.491,92.243 5.904,98.06C8.306,103.85 15.105,107.374 18.806,112.063C19.062,112.524 19.279,112.837 19.618,113.247C22.259,116.449 25.213,119.42 28.463,122.11C28.891,122.464 29.271,122.72 29.753,122.984C34.463,126.703 37.1,133.11 42.92,135.518C45.516,136.592 48.674,136.831 51.902,136.831C54.493,136.831 57.131,136.677 59.559,136.677C60.853,136.677 62.087,136.721 63.224,136.855C63.737,137.001 64.149,137.07 64.685,137.12C66.759,137.316 68.831,137.413 70.894,137.413C73.009,137.413 75.114,137.312 77.204,137.112C77.737,137.061 78.173,136.97 78.683,136.825C79.552,136.723 80.453,136.684 81.375,136.684C84.436,136.684 87.737,137.116 90.927,137.116C93.367,137.116 95.742,136.863 97.896,135.97C103.685,133.569 107.47,126.666 112.159,122.966C112.625,122.708 112.955,122.482 113.37,122.139C116.571,119.499 119.543,116.544 122.233,113.294C122.577,112.879 122.836,112.48 123.096,112.013C126.792,107.321 133.25,104.616 135.646,98.824C138.018,93.09 136.23,84.68 136.897,78.79C137.066,78.233 137.188,77.66 137.243,77.074C137.64,72.876 137.63,68.686 137.235,64.556C137.186,64.043 137.067,63.544 136.931,63.052C136.93,63.052 136.93,63.052 136.93,63.051C136.93,63.052 136.93,63.052 136.931,63.052C136.932,63.057 136.936,63.062 136.937,63.067C136.233,57.136 138.435,49.509 136.034,43.72C133.66,37.996 126.912,34.468 123.221,29.838C122.949,29.33 122.633,28.841 122.262,28.391C119.621,25.19 116.667,22.219 113.417,19.529C112.967,19.157 112.478,18.839 111.968,18.566C107.323,14.89 105.508,8.86 99.774,6.488C96.76,5.241 92.759,5.051 88.793,5.051C87.056,5.051 85.325,5.088 83.687,5.088C82.004,5.088 80.419,5.049 79.023,4.894C78.432,4.706 77.82,4.578 77.195,4.519C75.121,4.323 73.049,4.226 70.985,4.226ZM32.418,17.719L32.42,17.719L32.418,17.719Z" style="fill:rgb(73,141,52);fill-rule:nonzero;" />
    </g>
    <path d="M141.353,63.6C141.063,60.817 139.385,58.488 137.142,56.814C134.705,54.996 131.988,50.901 129.823,45.811C127.657,40.716 126.593,35.915 126.976,32.899C127.328,30.123 126.817,27.299 125.014,25.159C122.195,21.811 119.049,18.707 115.598,15.899C113.422,14.13 110.581,13.661 107.806,14.067C104.798,14.507 99.975,13.532 94.839,11.462C89.7,9.389 85.549,6.743 83.688,4.337C81.973,2.119 79.602,0.484 76.807,0.248C72.374,-0.126 67.955,-0.074 63.603,0.38C60.819,0.669 58.49,2.348 56.816,4.591C54.998,7.027 50.903,9.745 45.813,11.908C40.718,14.075 35.916,15.139 32.9,14.756C30.124,14.404 27.3,14.915 25.16,16.717C21.812,19.537 18.708,22.683 15.9,26.133C14.13,28.308 13.661,31.149 14.067,33.924C14.508,36.932 13.533,41.755 11.462,46.891C9.389,52.03 6.742,56.183 4.336,58.042C2.118,59.757 0.484,62.127 0.248,64.921C-0.126,69.353 -0.074,73.773 0.38,78.126C0.67,80.91 2.348,83.239 4.591,84.912C7.027,86.731 9.745,90.825 11.91,95.915C14.076,101.009 15.14,105.811 14.757,108.828C14.405,111.603 14.916,114.427 16.718,116.567C19.538,119.914 22.683,123.019 26.134,125.826C28.31,127.596 31.151,128.065 33.926,127.659C36.934,127.219 41.757,128.193 46.893,130.265C52.033,132.337 56.186,134.984 58.046,137.39C59.76,139.608 62.13,141.243 64.924,141.478C69.357,141.852 73.777,141.8 78.13,141.346C80.913,141.056 83.242,139.379 84.916,137.136C86.734,134.699 90.829,131.982 95.92,129.817C101.014,127.651 105.815,126.587 108.832,126.97C111.608,127.322 114.433,126.811 116.573,125.008C119.921,122.189 123.025,119.043 125.833,115.592C127.602,113.417 128.071,110.576 127.665,107.802C127.225,104.793 128.199,99.971 130.27,94.835C132.343,89.696 134.99,85.544 137.396,83.684C139.614,81.968 141.249,79.598 141.484,76.803C141.858,72.372 141.806,67.953 141.353,63.6ZM138.365,76.593C138.217,78.342 137.334,79.926 136.006,80.832C132.976,82.895 129.829,87.572 127.372,93.665C124.917,99.753 123.937,105.302 124.685,108.891C125.013,110.464 124.548,112.216 123.442,113.577C120.772,116.865 117.768,119.919 114.515,122.655C113.453,123.548 112.153,124.047 110.855,124.059C110.526,124.062 110.198,124.032 109.88,123.972C109.123,123.828 108.279,123.759 107.37,123.768C103.933,123.8 99.432,124.927 94.697,126.941C88.656,129.508 84.039,132.74 82.032,135.807C81.158,137.142 79.6,138.048 77.865,138.231C75.741,138.455 73.583,138.578 71.452,138.597C69.352,138.617 67.227,138.537 65.136,138.359C63.388,138.21 61.803,137.328 60.897,135.999C58.833,132.969 54.155,129.822 48.062,127.365C43.289,125.44 38.768,124.398 35.331,124.43C34.427,124.438 33.588,124.522 32.837,124.679C32.52,124.745 32.192,124.78 31.863,124.783C30.553,124.795 29.234,124.317 28.149,123.436C24.86,120.765 21.806,117.762 19.071,114.508C17.949,113.174 17.457,111.442 17.755,109.875C18.44,106.274 17.358,100.74 14.786,94.691C12.217,88.65 8.984,84.034 5.918,82.026C4.583,81.153 3.677,79.595 3.495,77.861C3.051,73.635 3.008,69.352 3.367,65.131C3.516,63.383 4.398,61.799 5.726,60.894C8.756,58.831 11.903,54.152 14.361,48.059C16.816,41.971 17.795,36.422 17.048,32.835C16.72,31.262 17.185,29.509 18.291,28.147C20.964,24.856 23.968,21.802 27.219,19.07C28.28,18.177 29.58,17.679 30.877,17.667C31.206,17.663 31.534,17.693 31.852,17.753C32.609,17.898 33.453,17.966 34.361,17.957C37.797,17.925 42.298,16.799 47.036,14.785C53.078,12.215 57.694,8.983 59.701,5.918C60.575,4.582 62.132,3.676 63.867,3.494C65.991,3.271 68.149,3.148 70.281,3.128C72.382,3.108 74.507,3.188 76.597,3.366C78.346,3.515 79.93,4.397 80.836,5.726C82.899,8.755 87.577,11.902 93.67,14.359C98.443,16.284 102.965,17.328 106.402,17.296C107.306,17.287 108.145,17.203 108.896,17.046C109.213,16.98 109.54,16.946 109.87,16.943C111.18,16.93 112.499,17.408 113.583,18.289C116.872,20.96 119.926,23.963 122.661,27.216C123.784,28.551 124.276,30.284 123.978,31.85C123.293,35.451 124.375,40.985 126.947,47.033C129.515,53.074 132.748,57.691 135.814,59.698C137.15,60.572 138.056,62.129 138.238,63.864C138.682,68.091 138.725,72.373 138.365,76.593Z" style="fill:rgb(38,95,19);fill-opacity:0.23;fill-rule:nonzero;" />
    <path d="M134.103,62.314C130.479,59.941 126.916,54.949 124.07,48.257C121.221,41.556 120.098,35.522 120.908,31.267C121.03,30.622 120.786,29.841 120.269,29.228C117.662,26.127 114.75,23.263 111.612,20.714C111.092,20.293 110.484,20.062 109.899,20.068C109.775,20.069 109.652,20.081 109.534,20.106C108.582,20.304 107.538,20.411 106.431,20.421C102.594,20.457 97.647,19.333 92.501,17.258C85.751,14.536 80.691,11.065 78.252,7.486C77.877,6.934 77.141,6.55 76.331,6.48C74.342,6.311 72.315,6.235 70.31,6.253C68.275,6.272 66.217,6.39 64.194,6.603C63.395,6.686 62.676,7.08 62.316,7.629C59.945,11.252 54.952,14.814 48.259,17.661C43.153,19.832 38.228,21.047 34.39,21.083C33.274,21.093 32.223,21.005 31.266,20.823C31.153,20.802 31.03,20.791 30.906,20.792C30.333,20.797 29.738,21.035 29.231,21.462C26.13,24.067 23.266,26.979 20.717,30.117C20.205,30.748 19.972,31.545 20.107,32.197C20.991,36.436 19.979,42.484 17.259,49.229C14.537,55.979 11.066,61.039 7.486,63.477C6.935,63.853 6.55,64.588 6.481,65.396C6.139,69.42 6.18,73.504 6.603,77.535C6.687,78.333 7.08,79.052 7.629,79.411C11.253,81.783 14.815,86.775 17.662,93.468C20.512,100.17 21.635,106.204 20.825,110.46C20.703,111.103 20.947,111.883 21.463,112.497C24.072,115.599 26.984,118.463 30.119,121.01C30.64,121.433 31.249,121.663 31.834,121.657C31.957,121.656 32.08,121.644 32.199,121.619C33.151,121.421 34.195,121.315 35.302,121.305C39.14,121.269 44.087,122.391 49.231,124.467C55.981,127.188 61.042,130.659 63.481,134.239C63.856,134.791 64.592,135.176 65.402,135.246C67.391,135.414 69.418,135.491 71.423,135.472C73.458,135.453 75.516,135.335 77.538,135.123C78.337,135.038 79.057,134.645 79.416,134.096C81.789,130.471 86.781,126.909 93.475,124.065C98.577,121.894 103.502,120.679 107.341,120.643C108.457,120.632 109.509,120.72 110.466,120.902C110.58,120.924 110.703,120.935 110.826,120.934C111.4,120.928 111.995,120.691 112.502,120.264C115.606,117.653 118.47,114.741 121.015,111.607C121.528,110.977 121.761,110.181 121.625,109.529C120.742,105.288 121.753,99.24 124.473,92.496C127.195,85.747 130.666,80.686 134.246,78.248C134.797,77.873 135.182,77.137 135.251,76.328C135.593,72.304 135.552,68.221 135.129,64.19C135.045,63.391 134.652,62.673 134.103,62.314Z" style="fill:rgb(73,141,52);fill-opacity:0.64;fill-rule:nonzero;" />
    <g opacity="0.39">
        <path d="M70.31,6.253C72.315,6.234 74.342,6.311 76.331,6.48C77.141,6.55 77.877,6.934 78.252,7.486C80.691,11.065 85.751,14.536 92.501,17.258C97.647,19.333 102.594,20.457 106.431,20.421C107.538,20.411 108.582,20.304 109.534,20.106C109.653,20.081 109.776,20.069 109.899,20.068C110.484,20.062 111.092,20.293 111.612,20.714C114.75,23.263 117.662,26.127 120.269,29.228C120.785,29.841 121.03,30.623 120.908,31.267C120.098,35.522 121.221,41.556 124.07,48.257C126.916,54.949 130.479,59.941 134.103,62.314C134.652,62.673 135.045,63.391 135.129,64.19C135.552,68.221 135.593,72.304 135.251,76.328C135.182,77.137 134.797,77.873 134.246,78.248C130.666,80.686 127.195,85.747 124.473,92.496C121.753,99.24 120.742,105.288 121.625,109.529C121.761,110.181 121.528,110.977 121.015,111.607C118.47,114.741 115.606,117.653 112.502,120.264C111.995,120.691 111.4,120.928 110.826,120.934C110.703,120.935 110.58,120.924 110.466,120.902C109.509,120.72 108.457,120.632 107.341,120.643C103.502,120.679 98.577,121.894 93.475,124.065C86.781,126.909 81.789,130.471 79.416,134.096C79.057,134.645 78.337,135.038 77.538,135.123C75.515,135.335 73.458,135.453 71.423,135.472C69.417,135.491 67.391,135.414 65.402,135.246C64.592,135.176 63.856,134.791 63.48,134.239C61.042,130.659 55.981,127.188 49.231,124.467C44.087,122.391 39.14,121.269 35.302,121.304C34.195,121.315 33.151,121.421 32.199,121.619C32.08,121.644 31.957,121.656 31.833,121.657C31.249,121.663 30.64,121.433 30.119,121.01C26.984,118.463 24.071,115.599 21.463,112.497C20.947,111.883 20.703,111.103 20.825,110.46C21.635,106.204 20.512,100.17 17.662,93.467C14.815,86.775 11.252,81.783 7.629,79.411C7.08,79.052 6.687,78.333 6.603,77.535C6.18,73.504 6.139,69.42 6.481,65.396C6.55,64.588 6.935,63.852 7.486,63.477C11.066,61.039 14.537,55.979 17.259,49.229C19.979,42.484 20.991,36.436 20.107,32.197C19.971,31.545 20.205,30.748 20.717,30.117C23.266,26.979 26.13,24.067 29.231,21.462C29.738,21.035 30.333,20.797 30.906,20.792C31.03,20.791 31.153,20.802 31.266,20.823C32.223,21.005 33.274,21.093 34.39,21.083C38.228,21.047 43.153,19.832 48.259,17.661C54.953,14.814 59.945,11.252 62.316,7.629C62.676,7.08 63.395,6.686 64.194,6.602C66.217,6.39 68.275,6.272 70.31,6.253M70.281,3.128C68.149,3.148 65.991,3.271 63.867,3.494C62.132,3.676 60.575,4.582 59.701,5.918C57.694,8.983 53.078,12.215 47.036,14.785C42.298,16.799 37.797,17.925 34.361,17.958C33.453,17.966 32.609,17.898 31.852,17.753C31.534,17.693 31.206,17.663 30.877,17.667C29.58,17.679 28.28,18.177 27.219,19.07C23.968,21.802 20.964,24.856 18.291,28.147C17.185,29.509 16.72,31.262 17.048,32.835C17.795,36.422 16.816,41.972 14.361,48.059C11.903,54.153 8.756,58.831 5.726,60.894C4.398,61.799 3.516,63.383 3.367,65.131C3.008,69.352 3.051,73.635 3.495,77.861C3.677,79.595 4.583,81.153 5.918,82.026C8.984,84.034 12.216,88.65 14.786,94.691C17.358,100.74 18.44,106.274 17.755,109.875C17.457,111.442 17.949,113.174 19.071,114.508C21.806,117.762 24.86,120.765 28.149,123.436C29.234,124.317 30.553,124.795 31.863,124.783C32.192,124.78 32.52,124.745 32.837,124.679C33.588,124.522 34.427,124.438 35.331,124.43C38.768,124.398 43.289,125.44 48.062,127.365C54.155,129.822 58.833,132.969 60.897,135.999C61.803,137.329 63.387,138.21 65.136,138.36C67.226,138.537 69.352,138.617 71.452,138.598C73.583,138.578 75.741,138.455 77.865,138.231C79.6,138.048 81.158,137.142 82.031,135.807C84.039,132.74 88.655,129.509 94.697,126.941C99.432,124.927 103.933,123.8 107.37,123.768C108.279,123.76 109.123,123.828 109.88,123.972C110.198,124.033 110.526,124.062 110.855,124.059C112.153,124.047 113.453,123.548 114.515,122.655C117.768,119.919 120.772,116.865 123.442,113.578C124.548,112.216 125.013,110.464 124.685,108.891C123.937,105.302 124.916,99.753 127.372,93.665C129.829,87.572 132.976,82.895 136.006,80.832C137.334,79.926 138.217,78.342 138.365,76.593C138.724,72.373 138.682,68.091 138.238,63.864C138.056,62.129 137.15,60.572 135.814,59.698C132.747,57.691 129.515,53.075 126.946,47.034C124.375,40.986 123.293,35.452 123.978,31.851C124.276,30.284 123.784,28.551 122.661,27.216C119.926,23.964 116.872,20.96 113.583,18.289C112.499,17.409 111.18,16.931 109.87,16.943C109.54,16.946 109.213,16.98 108.896,17.047C108.145,17.203 107.306,17.287 106.402,17.296C102.965,17.328 98.443,16.285 93.67,14.359C87.577,11.902 82.899,8.755 80.836,5.727C79.93,4.397 78.346,3.516 76.597,3.366C74.507,3.188 72.381,3.108 70.281,3.128Z" style="fill:rgb(73,141,52);fill-rule:nonzero;" />
    </g>
    <path d="M70.8,9.897L70.317,9.897C68.801,9.897 67.572,11.125 67.572,12.641L67.572,69.372C67.572,70.888 68.801,72.116 70.317,72.116L70.8,72.116C72.316,72.116 73.545,70.888 73.545,69.372L73.545,12.641C73.545,11.125 72.316,9.897 70.8,9.897Z" style="fill:rgb(227,227,227);fill-rule:nonzero;" />
</svg>