<svg xmlns="http://www.w3.org/2000/svg" width="142" height="142">
    <defs />
    <path fill="#945e14" fill-opacity="0.29" stroke="none" d="M 70.985 7.224 C 72.956 7.224 74.949 7.317 76.908 7.5009995 C 77.305 7.538 77.707 7.62 78.103 7.745 L 78.388 7.8350005 L 78.685 7.868 C 80.376 8.055 82.246 8.08 83.687 8.08 C 84.505 8.08 85.346 8.07 86.198 8.062 C 87.054 8.052 87.922005 8.043 88.792 8.043 C 92.206 8.043 96.04201 8.186 98.61 9.241 C 101.23501 10.319 102.888 12.501999 104.803 15.028 C 106.312 17.022 107.875 19.083 110.07901 20.816 L 110.29 20.982 L 110.52901 21.109 C 110.889 21.301 111.208 21.51 111.475 21.73 C 114.54 24.25 117.378 27.076002 119.91201 30.127 C 120.13301 30.395 120.343 30.711002 120.536 31.068 L 120.667 31.312 L 120.84 31.527002 C 122.438 33.518 124.467 35.26 126.43 36.944 C 129.314 39.419 132.038 41.757 133.221 44.591003 C 134.429 47.485 134.185 51.368004 133.947 55.124 C 133.781 57.753998 133.61 60.473 133.913 63.009 L 136.716 62.678 L 133.997 63.447 C 134.077 63.735 134.173 64.106 134.203 64.42 C 134.583 68.361 134.585 72.353 134.212 76.283 C 134.179 76.631 134.101 77.004 133.983 77.393 L 133.902 77.657 L 133.871 77.931 C 133.601 80.306 133.69 82.875 133.785 85.594 C 133.929 89.73799 134.08 94.023 132.832 97.018 C 131.685 99.771 129.156 101.814 126.477 103.978 C 124.466 105.603 122.386 107.283 120.704 109.404 L 120.554 109.594 L 120.436 109.80501 C 120.243996 110.148 120.085 110.383 119.887 110.621 C 117.353004 113.661 114.509 116.48 111.433 119.003006 C 111.158 119.22699 110.983 119.346 110.68301 119.511 L 110.466 119.63 L 110.272 119.783 C 108.25399 121.365005 106.449 123.401 104.704 125.37 C 102.215 128.178 99.642 131.081 96.729 132.281 C 95.225 132.901 93.382 133.189 90.927 133.189 C 89.41799 133.189 87.811 133.082 86.25701 132.978 C 84.652 132.871 82.992 132.759 81.375 132.759 C 80.254 132.759 79.257 132.813 78.328 132.92 L 78.085 132.949 L 77.85 133.015 C 77.483 133.119 77.23 133.168 76.914 133.198 C 74.92 133.388 72.894 133.484 70.894 133.484 C 68.923 133.484 66.931 133.391 64.972 133.207 C 64.584 133.17 64.362 133.131 64.059 133.045 L 63.823 132.979 L 63.58 132.951 C 62.429996 132.815 61.153 132.752 59.56 132.752 C 58.335003 132.752 57.060005 132.79 55.763 132.828 C 54.487 132.867 53.188 132.906 51.901997 132.906 C 49.479996 132.906 46.402 132.783 44.083 131.831 C 41.296 130.686 39.253 128.183 37.091 125.534 C 35.464 123.54199 33.781 121.481 31.64 119.801 L 31.442 119.646 L 31.219 119.523 C 30.896997 119.348 30.676 119.2 30.404 118.976 C 27.343002 116.459 24.505 113.63401 21.966002 110.576 C 21.757 110.32499 21.624 110.134 21.466 109.854 L 21.348 109.64199 L 21.197 109.452 C 19.582 107.41901 17.522 105.652 15.531 103.940994 C 12.641 101.46 9.911 99.116005 8.717 96.257 C 7.494 93.326 7.727 89.392 7.9530005 85.587 C 8.109 82.96 8.27 80.245 7.971 77.72 L 7.943 77.483 L 7.878 77.254 C 7.762 76.844 7.702 76.555 7.676 76.289 C 7.2969995 72.345 7.294 68.353 7.668 64.425 C 7.698 64.105 7.772 63.816 7.856 63.509 L 7.9149995 63.292 L 7.942 63.069 C 8.253 60.446 8.019 57.770996 7.793 55.184 C 7.479 51.576004 7.181 48.168 8.352 45.357 C 9.584 42.398 12.634 39.638 15.584 36.969 C 17.531 35.207 19.544 33.385 21.088 31.450003 L 21.253 31.243 L 21.38 31.01 C 21.579 30.644 21.78 30.341997 21.992 30.087 C 24.529 27.043001 27.374 24.223 30.450003 21.704 C 30.695 21.502 30.994 21.307 31.364002 21.108 L 31.6 20.981 L 31.809 20.815 C 33.802 19.237 35.572 17.221 37.283 15.272 C 39.719 12.496 42.239 9.627 45.113003 8.441 C 46.595997 7.831 48.421 7.5469995 50.859 7.5469995 C 52.372005 7.5469995 53.984 7.654 55.542 7.76 C 57.15 7.868 58.813 7.979 60.429 7.979 C 61.545998 7.979 62.538 7.9270005 63.461 7.818 L 63.705997 7.7890005 L 63.944004 7.721 C 64.36 7.603 64.684 7.535 64.965 7.509 C 66.96 7.319 68.985 7.224 70.985 7.224 M 70.985 4.198 C 68.871 4.198 66.765 4.299 64.675 4.498 C 64.14 4.548 63.616997 4.668 63.104 4.814 C 62.241005 4.915 61.346 4.954 60.429 4.954 C 57.369 4.954 54.055 4.521 50.859 4.521 C 48.433 4.521 46.075005 4.771 43.947 5.647 C 38.215 8.009 34.548 14.78 29.911 18.45 C 29.420002 18.714 28.946 19.015 28.51 19.371 C 25.309 21.994 22.337002 24.93 19.647 28.158 C 19.281 28.596 18.971 29.075 18.701 29.571001 C 14.997 34.215 7.9270005 38.463 5.538 44.201 C 3.142 49.954 5.616 56.822002 4.917 62.714996 C 4.787 63.192 4.684 63.643 4.637 64.139 C 4.24 68.31 4.25 72.473 4.645 76.576 C 4.694 77.094 4.806 77.576 4.946 78.073 C 5.647 83.993 3.491 91.636 5.905 97.415 C 8.306 103.166 15.105 106.668 18.806 111.326 C 19.062 111.784 19.279 112.09499 19.618 112.503 C 22.259 115.683 25.213 118.634995 28.463 121.306 C 28.891 121.65899 29.271 121.912 29.753 122.175 C 34.463 125.869995 37.1 132.234 42.919 134.626 C 45.517 135.693 48.675 135.931 51.901997 135.931 C 54.493 135.931 57.13 135.778 59.56 135.778 C 60.853 135.778 62.086002 135.821 63.224 135.954 C 63.737 136.1 64.149 136.168 64.685 136.219 C 66.759 136.413 68.831 136.509 70.894 136.509 C 73.008 136.509 75.114 136.408 77.204 136.209 C 77.737 136.16 78.173 136.07 78.683 135.925 C 79.552 135.824 80.453 135.784 81.375 135.784 C 84.436 135.784 87.737 136.214 90.927 136.214 C 93.367 136.214 95.742 135.963 97.895 135.076 C 103.685 132.691 107.47 125.833 112.15799 122.157 C 112.62401 121.90101 112.955 121.676 113.371 121.336006 C 116.571 118.713 119.543 115.777 122.23301 112.55 C 122.576996 112.137 122.836 111.739006 123.095 111.27701 C 126.792 106.615 133.25 103.928 135.646 98.174 C 138.019 92.477 136.23 84.123 136.897 78.271 C 137.066 77.718 137.188 77.148 137.243 76.567 C 137.64 72.397 137.63 68.233 137.235 64.132 C 137.186 63.622 137.067 63.126 136.93 62.637 L 136.93 62.636 L 136.93 62.637 C 136.932 62.643 136.936 62.648 136.937 62.651 C 136.232 56.76 138.436 49.184 136.034 43.432 C 133.66 37.746 126.912 34.241 123.221 29.642 C 122.949 29.137 122.633 28.652 122.26201 28.204 C 119.620995 25.024 116.666 22.073002 113.417 19.4 C 112.967 19.031 112.47799 18.715 111.969 18.444 C 107.323006 14.792 105.508 8.801 99.774 6.446 C 96.76 5.207 92.759 5.018 88.792 5.018 C 87.05599 5.018 85.326 5.054 83.687 5.054 C 82.003 5.054 80.419 5.016 79.023 4.861 C 78.432 4.675 77.82 4.548 77.196 4.489 C 75.121 4.294 73.049 4.198 70.985 4.198 Z M 32.418 17.602 L 32.42 17.602 L 32.418 17.602 Z" />
    <path fill="#6f4214" fill-opacity="0.23" stroke="none" d="M 141.352 63.182 C 141.063 60.416 139.385 58.103 137.142 56.44 C 134.705 54.635 131.988 50.566998 129.823 45.510002 C 127.656 40.449 126.592 35.678 126.976 32.682 C 127.329 29.925 126.817 27.12 125.01399 24.994 C 122.19499 21.668 119.049 18.584 115.598 15.795 C 113.423004 14.037 110.581 13.571 107.806 13.973999 C 104.798 14.412 99.97499 13.443001 94.839 11.386 C 89.7 9.327 85.549 6.699 83.688 4.309 C 81.972 2.104 79.602 0.481 76.807 0.247 C 72.374 -0.125 67.955 -0.073 63.603 0.377 C 60.819 0.665 58.489998 2.332 56.816 4.561 C 54.998 6.9809995 50.904 9.681 45.813004 11.829999 C 40.718 13.982 35.917 15.04 32.901 14.659 C 30.125 14.309 27.3 14.817001 25.16 16.607 C 21.813 19.409 18.708 22.534 15.9 25.961 C 14.130999 28.122 13.660999 30.945002 14.067 33.7 C 14.508 36.689 13.534 41.481 11.461999 46.583 C 9.389 51.687996 6.742 55.813004 4.336 57.661 C 2.118 59.364 0.484 61.718002 0.249 64.494 C -0.126 68.897 -0.074 73.288 0.38 77.612 C 0.67 80.377 2.348 82.691 4.591 84.354 C 7.0269995 86.16 9.745 90.227 11.909001 95.284 C 14.076 100.34501 15.14 105.116 14.757 108.11199 C 14.405 110.869 14.916 113.674 16.718 115.8 C 19.537 119.12599 22.683 122.21 26.134 124.998 C 28.310001 126.757 31.151 127.223 33.926 126.819 C 36.934 126.38201 41.757 127.35 46.894005 129.407 C 52.034 131.467 56.186 134.097 58.046 136.486 C 59.76 138.689 62.13 140.313 64.924 140.548 C 69.357 140.918 73.776 140.867 78.13 140.416 C 80.913 140.128 83.242 138.462 84.916 136.234 C 86.734 133.813 90.829 131.114 95.92 128.963 C 101.01399 126.81099 105.815 125.754 108.83099 126.134 C 111.60901 126.484 114.43301 125.977 116.573 124.186 C 119.921 121.385 123.026 118.259 125.833 114.831 C 127.603 112.671 128.071 109.848 127.665 107.091995 C 127.225 104.104 128.199 99.31301 130.27 94.21199 C 132.343 89.106 134.99 84.981 137.395 83.133 C 139.614 81.429 141.249 79.074 141.485 76.298 C 141.858 71.896 141.806 67.506 141.352 63.182 Z M 138.366 76.09 C 138.216 77.826 137.335 79.4 136.006 80.3 C 132.976 82.349 129.83 86.995 127.372 93.049 C 124.916 99.09699 123.937 104.61 124.685 108.175 C 125.013 109.737 124.549 111.478 123.442 112.83 C 120.772 116.097 117.768 119.13 114.51499 121.848 C 113.453 122.735 112.154 123.23101 110.855 123.242 C 110.52699 123.245995 110.199 123.216 109.87999 123.157005 C 109.123 123.013 108.279 122.946 107.370995 122.954 C 103.933 122.98601 99.432 124.105 94.697 126.106 C 88.655 128.656 84.039 131.867 82.032 134.914 C 81.158 136.24 79.6 137.14 77.865 137.322 C 75.741 137.544 73.584 137.666 71.452 137.686 C 69.351 137.706 67.226 137.626 65.135 137.449 C 63.387 137.301 61.803 136.425 60.897995 135.105 C 58.833 132.094 54.155 128.968 48.061996 126.528 C 43.289 124.61499 38.768 123.579 35.331 123.611 C 34.427 123.62 33.588 123.702995 32.837 123.85901 C 32.52 123.925 32.192 123.95799 31.862001 123.962 C 30.552998 123.974 29.234 123.5 28.149 122.624 C 24.861 119.96999 21.806 116.987 19.071 113.75499 C 17.949 112.42901 17.457 110.709 17.754 109.153 C 18.44 105.575 17.357 100.077 14.786 94.068 C 12.216 88.065994 8.984 83.481 5.918 81.487 C 4.583 80.618 3.677 79.072 3.495 77.349 C 3.051 73.151 3.009 68.896 3.368 64.703 C 3.516 62.966 4.398 61.392 5.727 60.493 C 8.756 58.443005 11.904 53.796005 14.361 47.743 C 16.816 41.696 17.795 36.183 17.048 32.619 C 16.72 31.056 17.185 29.315 18.291 27.962 C 20.964 24.692 23.968 21.659 27.219 18.945 C 28.28 18.057 29.579998 17.563 30.876999 17.55 C 31.207 17.548 31.534 17.577 31.852999 17.637 C 32.609 17.779 33.453 17.848 34.361 17.839 C 37.797 17.808 42.299 16.688 47.034996 14.688 C 53.078 12.135 57.693996 8.924 59.701004 5.88 C 60.575 4.552 62.132996 3.652 63.867004 3.471 C 65.991 3.25 68.15 3.127 70.281 3.107 C 72.382 3.088 74.507 3.167 76.598 3.343 C 78.346 3.493 79.93 4.368 80.836 5.689 C 82.899 8.697 87.577 11.824 93.67 14.265001 C 98.443 16.177 102.96499 17.213 106.401 17.182 C 107.30601 17.173 108.146 17.09 108.896 16.935 C 109.213 16.869 109.54 16.834 109.869995 16.831 C 111.18 16.819 112.49901 17.294 113.583 18.168 C 116.871 20.822 119.926 23.805 122.662 27.036999 C 123.784 28.362 124.277 30.085 123.978 31.641 C 123.293 35.218 124.375 40.716 126.947 46.724 C 129.515 52.725 132.747 57.311 135.814 59.305 C 137.15 60.173 138.056 61.72 138.238 63.444 C 138.681 67.643 138.725 71.897 138.366 76.09 Z" />
    <path fill="#945e14" fill-opacity="0.64" stroke="none" d="M 134.103 61.903 C 130.479 59.547005 126.917 54.588 124.07101 47.939 C 121.221 41.283 120.098 35.289 120.908005 31.060999 C 121.03 30.421 120.78501 29.646 120.269 29.035 C 117.662 25.956 114.749 23.11 111.612 20.578 C 111.093 20.16 110.484 19.931 109.898994 19.936 C 109.775 19.937 109.653 19.95 109.534 19.974 C 108.582 20.171 107.538 20.276 106.431 20.286 C 102.593994 20.322 97.647 19.206 92.501 17.144 C 85.751 14.441 80.691 10.992 78.252 7.437 C 77.877 6.8889995 77.141 6.5069995 76.331 6.437 C 74.341 6.27 72.316 6.194 70.311 6.212 C 68.275 6.232 66.217 6.348 64.193 6.5590005 C 63.395 6.643 62.676 7.0329995 62.317 7.5789995 C 59.945 11.178 54.951996 14.717 48.259 17.545 C 43.153 19.702 38.227 20.909 34.39 20.944 C 33.274 20.955 32.222 20.867 31.266003 20.686 C 31.153002 20.665 31.03 20.653 30.906 20.655 C 30.334002 20.66 29.738003 20.897 29.231 21.321 C 26.13 23.909 23.266003 26.801 20.717 29.92 C 20.205 30.546 19.972 31.337002 20.107 31.985 C 20.991 36.196 19.98 42.204 17.259 48.905003 C 14.537 55.610996 11.065999 60.637997 7.485 63.060005 C 6.934 63.432 6.55 64.162 6.4809995 64.966 C 6.1389995 68.964 6.18 73.02 6.603 77.025 C 6.687 77.818 7.08 78.532 7.629 78.889 C 11.252999 81.245 14.816 86.20401 17.662 92.852 C 20.511 99.511 21.635 105.506 20.825 109.732994 C 20.702 110.372 20.947 111.14701 21.463 111.756004 C 24.072 114.839 26.984 117.684 30.119 120.214 C 30.641 120.634 31.249 120.863 31.833 120.85701 C 31.956999 120.856 32.08 120.844 32.199 120.82 C 33.151 120.623 34.195 120.517 35.302 120.506 C 39.14 120.471 44.087006 121.587 49.230995 123.648 C 55.981 126.352 61.040997 129.8 63.481003 133.356 C 63.856 133.904 64.592 134.287 65.402 134.356 C 67.392 134.524 69.418 134.6 71.423 134.581 C 73.458 134.562 75.516 134.445 77.538 134.235 C 78.336 134.15 79.056 133.759 79.416 133.214 C 81.789 129.613 86.781 126.074 93.474 123.249 C 98.576996 121.092 103.50099 119.885 107.341 119.849 C 108.457 119.839 109.50901 119.926 110.466 120.106995 C 110.58 120.128 110.703 120.139 110.826 120.13801 C 111.399994 120.13301 111.995 119.897 112.502 119.473 C 115.606 116.879 118.47 113.987 121.016 110.87301 C 121.528 110.247 121.761 109.45601 121.62499 108.808 C 120.742004 104.596 121.754 98.587006 124.473 91.88801 C 127.195 85.183 130.666 80.156 134.246 77.734 C 134.797 77.36 135.182 76.629 135.251 75.826 C 135.593 71.828 135.553 67.771 135.129 63.768 C 135.045 62.974 134.652 62.261 134.103 61.903 Z" />
    <path fill="#945e14" fill-opacity="0.39" stroke="none" d="M 70.31 6.212 C 72.316 6.193 74.341 6.27 76.331 6.437 C 77.141 6.5069995 77.877 6.8889995 78.252 7.437 C 80.691 10.992 85.751 14.441 92.501 17.144 C 97.647 19.206 102.593994 20.322 106.431 20.286 C 107.538 20.276 108.582 20.171 109.534 19.974 C 109.653 19.95 109.775 19.937 109.898994 19.936 C 110.484 19.931 111.093 20.16 111.612 20.578 C 114.749 23.11 117.662 25.956 120.269 29.035 C 120.78501 29.646 121.03 30.421 120.908005 31.060999 C 120.098 35.289 121.221 41.283 124.07101 47.939 C 126.917 54.588 130.479 59.547005 134.103 61.903 C 134.652 62.261 135.045 62.974 135.129 63.768 C 135.553 67.771 135.593 71.828 135.251 75.826 C 135.182 76.629 134.797 77.36 134.246 77.734 C 130.666 80.156 127.195 85.183 124.473 91.887 C 121.753 98.587006 120.742004 104.596 121.62499 108.808 C 121.761 109.45601 121.528 110.247 121.016 110.87301 C 118.47 113.987 115.606 116.879 112.502 119.473 C 111.995 119.897 111.399994 120.13301 110.826 120.13801 C 110.70201 120.139 110.58 120.128 110.466 120.106995 C 109.50901 119.926 108.457 119.839 107.341 119.849 C 103.50099 119.885 98.576996 121.092 93.474 123.249 C 86.781 126.074 81.789 129.613 79.416 133.214 C 79.056 133.759 78.336 134.15 77.538 134.234 C 75.515 134.445 73.458 134.562 71.423 134.581 C 69.418 134.6 67.392 134.524 65.402 134.356 C 64.592 134.287 63.856 133.904 63.479996 133.356 C 61.040997 129.8 55.981 126.351 49.230995 123.648 C 44.086002 121.587 39.14 120.471 35.302 120.506 C 34.195 120.517 33.151 120.623 32.199 120.82 C 32.08 120.844 31.956999 120.856 31.833 120.85701 C 31.249 120.863 30.641 120.634 30.119 120.214 C 26.984 117.684 24.072 114.839 21.463 111.756004 C 20.947 111.14701 20.702 110.372 20.825 109.732994 C 21.635 105.506 20.511 99.511 17.662 92.852 C 14.816 86.20401 11.252999 81.245 7.629 78.889 C 7.08 78.532 6.687 77.818 6.603 77.025 C 6.18 73.02 6.1389995 68.964 6.4809995 64.966 C 6.55 64.162 6.934 63.432 7.485 63.060005 C 11.065999 60.637997 14.537 55.610996 17.259 48.905003 C 19.98 42.204 20.991 36.196 20.107 31.985 C 19.971 31.337002 20.205 30.546 20.717 29.92 C 23.266003 26.801 26.13 23.909 29.231 21.321 C 29.738003 20.897 30.334002 20.66 30.906 20.655 C 31.03 20.653 31.153002 20.665 31.266003 20.686 C 32.223 20.867 33.274 20.955 34.39 20.944 C 38.228 20.909 43.153 19.702 48.259 17.545 C 54.951996 14.717 59.945 11.178 62.316 7.5789995 C 62.676 7.0329995 63.395 6.643 64.193 6.5590005 C 66.217 6.348 68.274 6.2309995 70.31 6.212 M 70.281 3.108 C 68.15 3.127 65.991 3.25 63.867004 3.471 C 62.132996 3.652 60.575 4.552 59.699997 5.88 C 57.693996 8.924 53.078 12.135 47.034996 14.688 C 42.299 16.688 37.797 17.808 34.361 17.839 C 33.453 17.848 32.609 17.779 31.852 17.637 C 31.534 17.577 31.207 17.548 30.876999 17.55 C 29.579998 17.563 28.28 18.057 27.219 18.945 C 23.968 21.659 20.964 24.692 18.291 27.962 C 17.185 29.315 16.72 31.056 17.048 32.619 C 17.795 36.183 16.816 41.696 14.36 47.743 C 11.904 53.796005 8.756 58.443005 5.726 60.493 C 4.397 61.392 3.516 62.966 3.367 64.703 C 3.008 68.896 3.051 73.151 3.495 77.349 C 3.677 79.072 4.583 80.618 5.918 81.487 C 8.984 83.481 12.216 88.065994 14.786 94.068 C 17.357 100.077 18.44 105.575 17.754 109.153 C 17.457 110.709 17.949 112.42901 19.071 113.75499 C 21.806 116.987 24.861 119.971 28.149 122.624 C 29.234 123.5 30.552998 123.974 31.862001 123.962 C 32.192 123.95799 32.52 123.925 32.837 123.85901 C 33.588 123.702995 34.427 123.62 35.331 123.611 C 38.768 123.579 43.289 124.61499 48.061996 126.528 C 54.155 128.968 58.833 132.094 60.897995 135.105 C 61.803 136.425 63.387 137.301 65.135 137.449 C 67.226 137.626 69.351 137.706 71.452 137.686 C 73.583 137.666 75.741 137.544 77.865 137.322 C 79.6 137.141 81.158 136.24 82.032 134.914 C 84.039 131.867 88.655 128.656 94.697 126.106 C 99.432 124.105 103.932 122.98601 107.370995 122.954 C 108.279 122.946 109.123 123.013 109.87999 123.157005 C 110.199 123.216995 110.52699 123.245995 110.855 123.243 C 112.154 123.23101 113.453 122.735 114.51499 121.848 C 117.768 119.13 120.772 116.097 123.442 112.83 C 124.549 111.478 125.013 109.737 124.685 108.175 C 123.937 104.61 124.916 99.09699 127.372 93.049 C 129.829 86.996 132.976 82.349 136.005 80.3 C 137.334 79.4 138.216 77.826 138.366 76.09 C 138.725 71.897 138.681 67.643 138.237 63.444 C 138.056 61.72 137.15 60.173 135.814 59.305 C 132.747 57.311 129.515 52.725 126.947 46.724 C 124.375 40.716 123.293 35.218 123.978 31.641 C 124.276 30.085 123.784 28.363 122.662 27.036999 C 119.926 23.806 116.871 20.822 113.583 18.168 C 112.49901 17.294 111.18 16.819 109.869995 16.831 C 109.54 16.834 109.213 16.869 108.896 16.935 C 108.145 17.09 107.30601 17.174 106.401 17.182 C 102.96499 17.214 98.443 16.177 93.67 14.265001 C 87.577 11.824 82.899 8.698 80.836 5.689 C 79.93 4.368 78.346 3.493 76.597 3.344 C 74.507 3.167 72.382 3.088 70.281 3.108 Z" />
    <path fill="#e3e3e3" stroke="none" d="M 70.801 9.832 L 70.316 9.832 C 68.801 9.832 67.572 11.052 67.572 12.558 L 67.572 68.916 C 67.572 70.421 68.801 71.641 70.316 71.641 L 70.801 71.641 C 72.316 71.641 73.545 70.421 73.545 68.916 L 73.545 12.558 C 73.545 11.052 72.316 9.832 70.801 9.832 Z" />
</svg>