<svg xmlns="http://www.w3.org/2000/svg" width="142" height="142">
    <defs />
    <g opacity="0.29">
        <path fill="#498d34" stroke="none" d="M 70.985 7.271 C 72.956 7.271 74.949 7.365 76.908 7.55 C 77.305 7.588 77.707 7.6710005 78.103 7.796 L 78.388 7.887 L 78.685 7.92 C 80.376 8.109 82.247 8.133 83.687 8.133 C 84.505 8.133 85.345 8.124 86.198 8.115 C 87.054 8.106 87.922005 8.096 88.793 8.096 C 92.206 8.096 96.04201 8.24 98.61 9.302 C 101.23501 10.388 102.888 12.584 104.80201 15.128 C 106.313 17.135 107.875 19.21 110.078 20.954 L 110.29 21.121 L 110.528 21.249 C 110.889 21.442 111.208 21.653 111.475 21.873999 C 114.539 24.411001 117.378 27.255 119.91201 30.327 C 120.13301 30.596 120.343 30.914 120.536 31.274 L 120.667 31.519 L 120.84 31.736 C 122.438 33.74 124.467 35.494 126.43 37.189 C 129.314 39.68 132.037 42.033 133.221 44.886997 C 134.429 47.799 134.184 51.708 133.947 55.489 C 133.781 58.136 133.61 60.873 133.913 63.426 L 136.716 63.093 L 133.997 63.868 C 134.077 64.158 134.174 64.531 134.204 64.846 C 134.583 68.814 134.586 72.832 134.212 76.788 C 134.179 77.138 134.102 77.514 133.983 77.906 L 133.902 78.171 L 133.871 78.447 C 133.601 80.838 133.69 83.423 133.785 86.160995 C 133.93 90.33199 134.079 94.64499 132.832 97.66 C 131.686 100.43199 129.156 102.489 126.477 104.667 C 124.466 106.302 122.386 107.993996 120.704 110.129 L 120.553 110.31999 L 120.435 110.53199 C 120.243 110.876 120.085 111.11399 119.887 111.353 C 117.353004 114.413 114.509 117.25201 111.433 119.79 C 111.158 120.017 110.983 120.135994 110.68301 120.301994 L 110.466 120.422 L 110.272 120.576 C 108.25399 122.168 106.449 124.218 104.704 126.19999 C 102.215 129.026 99.642 131.949 96.729 133.157 C 95.226 133.781 93.382 134.071 90.927 134.071 C 89.41799 134.071 87.811 133.963 86.25701 133.858 C 84.652 133.75 82.992 133.638 81.375 133.638 C 80.253 133.638 79.256 133.692 78.328 133.801 L 78.085 133.829 L 77.85 133.896 C 77.483 134.001 77.23 134.051 76.914 134.081 C 74.92 134.271 72.894 134.368 70.894 134.368 C 68.924 134.368 66.931 134.274 64.971 134.089 C 64.584 134.052 64.362 134.013 64.059 133.926 L 63.823 133.859 L 63.58 133.83 C 62.429996 133.695 61.152 133.632 59.559 133.632 C 58.335003 133.632 57.059002 133.67 55.763 133.708 C 54.486 133.747 53.188 133.786 51.901997 133.786 C 49.479996 133.786 46.402 133.663 44.084 132.704 C 41.296 131.551 39.254 129.032 37.091 126.36599 C 35.464 124.36 33.781 122.285 31.641 120.59501 L 31.441002 120.43699 L 31.219 120.315 C 30.896 120.13801 30.676 119.989006 30.404 119.764 C 27.343002 117.23001 24.504 114.386 21.965 111.308 C 21.757 111.05599 21.624 110.864 21.466 110.581 L 21.347 110.368 L 21.196 110.176 C 19.581 108.131 17.522 106.351 15.531 104.629005 C 12.641 102.131996 9.911 99.772 8.717 96.89399 C 7.494 93.944 7.727 89.984 7.9530005 86.153 C 8.109 83.51 8.27 80.777 7.971 78.234 L 7.943 77.996 L 7.878 77.766 C 7.762 77.353 7.702 77.062 7.676 76.793 C 7.2969995 72.825 7.294 68.807 7.668 64.851 C 7.698 64.53 7.772 64.239 7.856 63.93 L 7.9149995 63.710995 L 7.942 63.487003 C 8.253 60.847 8.019 58.154 7.793 55.549 C 7.478 51.918 7.181 48.487 8.352 45.658 C 9.584 42.679 12.634 39.9 15.584 37.213 C 17.531 35.44 19.544 33.606 21.088 31.659 L 21.253 31.450003 L 21.38 31.216 C 21.579998 30.846998 21.78 30.543 21.993 30.285997 C 24.529 27.222 27.374 24.384 30.448997 21.848 C 30.695 21.645 30.994 21.448 31.364002 21.247 L 31.599 21.12 L 31.809 20.953 C 33.802 19.364 35.572 17.335 37.283 15.373 C 39.719 12.579 42.239 9.69 45.114 8.497 C 46.595997 7.883 48.422 7.597 50.859 7.597 C 52.372005 7.597 53.984 7.706 55.542 7.811 C 57.15 7.919 58.813 8.032 60.429 8.032 C 61.545998 8.032 62.538 7.979 63.461 7.87 L 63.705997 7.8410006 L 63.944004 7.773 C 64.36 7.653 64.684 7.5850005 64.965 7.5590005 C 66.96 7.368 68.985 7.271 70.985 7.271 M 70.985 4.226 C 68.871 4.226 66.766 4.327 64.675 4.527 C 64.139 4.578 63.616997 4.698 63.104 4.846 C 62.242 4.947 61.346 4.987 60.429 4.987 C 57.369 4.987 54.055 4.552 50.859 4.552 C 48.433 4.551 46.075005 4.802 43.947 5.6849995 C 38.215 8.062 34.547 14.877 29.911 18.571 C 29.420002 18.838 28.945002 19.14 28.51 19.5 C 25.309 22.14 22.337002 25.095 19.647 28.344 C 19.281 28.785002 18.972 29.267 18.701 29.766998 C 14.997 34.441 7.9270005 38.718 5.538 44.494 C 3.142 50.285 5.616 57.198 4.917 63.131004 C 4.787 63.610996 4.684 64.065 4.636 64.564 C 4.239 68.763 4.25 72.953 4.645 77.083 C 4.694 77.604 4.806 78.09 4.947 78.59 C 5.647 84.549 3.491 92.243 5.904 98.06 C 8.306 103.84999 15.105 107.374 18.806 112.063 C 19.062 112.524 19.279 112.837 19.618 113.24701 C 22.259 116.44899 25.213 119.42 28.463 122.11 C 28.891 122.464 29.271 122.72 29.753 122.984 C 34.463 126.703 37.1 133.11 42.92 135.518 C 45.516003 136.592 48.674004 136.831 51.901997 136.831 C 54.493 136.831 57.131004 136.677 59.559 136.677 C 60.853 136.677 62.087006 136.721 63.224 136.855 C 63.737 137.001 64.149 137.07 64.685 137.12 C 66.759 137.316 68.831 137.413 70.894 137.413 C 73.009 137.413 75.114 137.312 77.204 137.112 C 77.737 137.061 78.173 136.97 78.683 136.825 C 79.552 136.723 80.453 136.684 81.375 136.684 C 84.436 136.684 87.737 137.116 90.927 137.116 C 93.367 137.116 95.742 136.863 97.89601 135.97 C 103.685 133.569 107.47 126.66601 112.159 122.966 C 112.625 122.708 112.955 122.482 113.37 122.139 C 116.571 119.499 119.543 116.544 122.23301 113.294 C 122.576996 112.879 122.836 112.48 123.096 112.01301 C 126.792 107.321 133.25 104.616 135.646 98.824 C 138.018 93.09 136.23 84.68 136.897 78.79 C 137.066 78.233 137.188 77.66 137.243 77.074 C 137.64 72.876 137.63 68.686 137.235 64.556 C 137.186 64.043 137.067 63.544 136.931 63.051994 C 136.93 63.051994 136.93 63.051994 136.93 63.051 C 136.93 63.051994 136.93 63.051994 136.931 63.051994 C 136.932 63.057 136.936 63.062 136.937 63.067 C 136.233 57.136 138.435 49.509 136.034 43.72 C 133.66 37.996 126.912 34.468 123.221 29.837997 C 122.949 29.33 122.633 28.840998 122.26201 28.391 C 119.620995 25.19 116.667 22.219 113.417 19.529 C 112.967 19.157 112.47799 18.839 111.968 18.566 C 107.323006 14.89 105.508 8.86 99.774 6.488 C 96.76 5.241 92.759 5.051 88.793 5.051 C 87.05599 5.051 85.325 5.088 83.687 5.088 C 82.004 5.088 80.419 5.049 79.023 4.894 C 78.432 4.706 77.82 4.578 77.195 4.519 C 75.121 4.323 73.049 4.226 70.985 4.226 Z M 32.418 17.719 L 32.42 17.719 L 32.418 17.719 Z" />
    </g>
    <path fill="#265f13" fill-opacity="0.23" stroke="none" d="M 141.353 63.6 C 141.063 60.817005 139.385 58.488 137.142 56.814 C 134.705 54.996 131.988 50.901 129.823 45.811 C 127.657 40.716 126.593 35.915 126.976 32.899 C 127.328 30.123001 126.817 27.299 125.01399 25.159002 C 122.19499 21.811 119.049 18.707 115.598 15.899 C 113.422 14.130001 110.581 13.660999 107.806 14.067 C 104.798 14.507 99.97499 13.532 94.839 11.461999 C 89.7 9.389 85.549 6.7430005 83.688 4.337 C 81.973 2.119 79.602 0.484 76.807 0.248 C 72.374 -0.126 67.955 -0.074 63.603 0.38 C 60.819 0.669 58.489998 2.348 56.816 4.591 C 54.998 7.0269995 50.903 9.745 45.813004 11.908 C 40.718 14.075001 35.916 15.139 32.9 14.756 C 30.124 14.404 27.3 14.915 25.16 16.717 C 21.812002 19.537 18.708 22.683 15.9 26.133 C 14.130001 28.308 13.660999 31.149 14.067 33.924 C 14.508 36.932 13.533 41.755 11.461999 46.891 C 9.389 52.03 6.742 56.183 4.336 58.042 C 2.118 59.757 0.484 62.126995 0.248 64.921 C -0.126 69.353 -0.074 73.773 0.38 78.126 C 0.67 80.91 2.348 83.239 4.591 84.912 C 7.0269995 86.730995 9.745 90.825005 11.909999 95.915 C 14.076 101.008995 15.14 105.811 14.757 108.828 C 14.405 111.603 14.916 114.427 16.718 116.567 C 19.538 119.914 22.683 123.019 26.134 125.826 C 28.310001 127.596 31.151 128.065 33.926 127.659 C 36.934 127.219 41.757 128.193 46.893 130.265 C 52.032997 132.337 56.186 134.984 58.046 137.39 C 59.76 139.608 62.13 141.243 64.924 141.478 C 69.357 141.852 73.777 141.8 78.13 141.346 C 80.913 141.056 83.242 139.379 84.916 137.136 C 86.734 134.699 90.829 131.982 95.92 129.817 C 101.01399 127.651 105.815 126.587006 108.832 126.97 C 111.608 127.322 114.43301 126.81099 116.573 125.008 C 119.921 122.189 123.025 119.043 125.833 115.59201 C 127.602005 113.417 128.071 110.576 127.665 107.802 C 127.225 104.793 128.199 99.971 130.27 94.83499 C 132.343 89.696 134.99 85.544 137.396 83.684 C 139.614 81.968 141.249 79.598 141.484 76.803 C 141.858 72.372 141.806 67.953 141.353 63.6 Z M 138.365 76.593 C 138.217 78.342 137.334 79.926 136.006 80.832 C 132.976 82.895 129.829 87.572 127.372 93.665 C 124.917 99.753 123.937 105.302 124.685 108.89101 C 125.013 110.464 124.548 112.216 123.442 113.577 C 120.772 116.86499 117.768 119.919 114.51499 122.655 C 113.453 123.548 112.15299 124.047005 110.855 124.059006 C 110.526 124.062 110.198 124.032 109.87999 123.972 C 109.123 123.827995 108.279 123.759 107.37 123.768005 C 103.933 123.8 99.432 124.92701 94.697 126.941 C 88.656 129.508 84.039 132.74 82.032 135.807 C 81.158 137.142 79.6 138.048 77.865 138.231 C 75.741 138.455 73.583 138.578 71.452 138.597 C 69.352 138.617 67.227 138.537 65.136 138.359 C 63.388 138.21 61.803 137.328 60.897 135.999 C 58.833 132.969 54.155 129.822 48.061996 127.365 C 43.289 125.44 38.768 124.397995 35.331 124.43 C 34.427 124.438 33.588 124.522 32.837 124.679 C 32.52 124.745 32.192 124.78 31.863 124.783005 C 30.552998 124.795006 29.234 124.317 28.149 123.436005 C 24.86 120.765 21.806 117.76199 19.071 114.508 C 17.949 113.174 17.457 111.442 17.755 109.87499 C 18.44 106.27401 17.358 100.73999 14.786 94.691 C 12.217 88.65 8.984 84.034 5.918 82.026 C 4.583 81.153 3.677 79.595 3.495 77.861 C 3.051 73.635 3.008 69.352 3.367 65.131 C 3.516 63.383 4.398 61.799 5.726 60.894005 C 8.756 58.831 11.903 54.152004 14.361 48.059 C 16.816 41.971 17.795 36.422 17.048 32.835 C 16.72 31.261997 17.185 29.508999 18.291 28.147001 C 20.964 24.856 23.968 21.802 27.219 19.07 C 28.28 18.177 29.579998 17.679 30.876999 17.667 C 31.206001 17.663 31.534 17.693 31.852 17.753 C 32.609 17.898 33.453 17.966 34.361 17.957 C 37.797 17.925 42.298 16.799 47.036003 14.785 C 53.078 12.215 57.693996 8.983 59.701004 5.918 C 60.575 4.582 62.132 3.676 63.867004 3.494 C 65.991 3.271 68.149 3.148 70.281 3.128 C 72.382 3.108 74.507 3.188 76.597 3.366 C 78.346 3.515 79.93 4.397 80.836 5.726 C 82.899 8.755 87.577 11.902 93.67 14.359 C 98.443 16.284 102.96499 17.328 106.402 17.296 C 107.30601 17.287 108.145 17.203 108.896 17.046 C 109.213 16.98 109.54 16.946 109.869995 16.943 C 111.18 16.93 112.49901 17.408 113.583 18.289 C 116.871994 20.96 119.926 23.963001 122.66101 27.216 C 123.784 28.551003 124.276 30.284 123.978 31.849998 C 123.293 35.451 124.375 40.985 126.947 47.033 C 129.515 53.074 132.748 57.691 135.814 59.698 C 137.15 60.571995 138.056 62.129 138.238 63.864 C 138.682 68.091 138.725 72.373 138.365 76.593 Z" />
    <path fill="#498d34" fill-opacity="0.64" stroke="none" d="M 134.103 62.314 C 130.479 59.941 126.916 54.949 124.07 48.257 C 121.221 41.556 120.098 35.522 120.908005 31.267 C 121.03 30.622 120.786 29.840998 120.269 29.228 C 117.662 26.127 114.75 23.263002 111.612 20.714 C 111.091995 20.293 110.484 20.062 109.898994 20.068 C 109.775 20.069 109.652 20.081 109.534 20.106 C 108.582 20.304 107.538 20.411 106.431 20.421 C 102.593994 20.457 97.647 19.333 92.501 17.258 C 85.751 14.536 80.691 11.065 78.252 7.486 C 77.877 6.934 77.141 6.55 76.331 6.48 C 74.342 6.311 72.315 6.235 70.31 6.253 C 68.275 6.272 66.217 6.39 64.194 6.603 C 63.395 6.686 62.676 7.08 62.316 7.629 C 59.945 11.252 54.951996 14.814001 48.259 17.661 C 43.153 19.832 38.228 21.047 34.39 21.083 C 33.274 21.093 32.223 21.005 31.266003 20.823 C 31.153002 20.802 31.03 20.791 30.906 20.792 C 30.333 20.797 29.738003 21.035 29.231 21.462 C 26.13 24.067 23.266003 26.979 20.717 30.117 C 20.205 30.748 19.972 31.545 20.107 32.197 C 20.991 36.436 19.979 42.484 17.259 49.229 C 14.537 55.978996 11.065999 61.039 7.486 63.477 C 6.9349995 63.853 6.55 64.588 6.4809995 65.396 C 6.1389995 69.42 6.18 73.504 6.603 77.535 C 6.687 78.333 7.08 79.052 7.629 79.411 C 11.252999 81.783 14.814999 86.775 17.662 93.46801 C 20.512 100.16999 21.635 106.20401 20.825 110.46 C 20.703 111.103 20.947 111.88301 21.463 112.497 C 24.072 115.599 26.984 118.463 30.119 121.01 C 30.64 121.433 31.249 121.66301 31.834 121.657 C 31.956999 121.656006 32.08 121.644005 32.199 121.619 C 33.151 121.421 34.195 121.315 35.302 121.30499 C 39.14 121.269005 44.087006 122.391 49.230995 124.467 C 55.981 127.187996 61.042004 130.659 63.481003 134.239 C 63.856 134.791 64.592 135.176 65.402 135.246 C 67.391 135.414 69.418 135.491 71.423 135.472 C 73.458 135.453 75.516 135.335 77.538 135.123 C 78.337 135.038 79.057 134.645 79.416 134.096 C 81.789 130.471 86.781 126.909 93.475 124.065 C 98.576996 121.894 103.502 120.679 107.341 120.643 C 108.457 120.632 109.50901 120.72001 110.466 120.902 C 110.58 120.924 110.703 120.935 110.826 120.934 C 111.399994 120.928 111.995 120.691 112.502 120.264 C 115.606 117.653 118.47 114.741005 121.015 111.607 C 121.528 110.97699 121.761 110.181 121.62499 109.529 C 120.742004 105.287994 121.753 99.24 124.473 92.496 C 127.195 85.747 130.666 80.686 134.246 78.248 C 134.797 77.873 135.182 77.137 135.251 76.328 C 135.593 72.304 135.552 68.221 135.129 64.19 C 135.045 63.390995 134.652 62.672997 134.103 62.314 Z" />
    <g opacity="0.39">
        <path fill="#498d34" stroke="none" d="M 70.31 6.253 C 72.315 6.234 74.342 6.311 76.331 6.48 C 77.141 6.55 77.877 6.934 78.252 7.486 C 80.691 11.065 85.751 14.536 92.501 17.258 C 97.647 19.333 102.593994 20.457 106.431 20.421 C 107.538 20.411 108.582 20.304 109.534 20.106 C 109.653 20.081 109.77601 20.069 109.898994 20.068 C 110.484 20.062 111.091995 20.293 111.612 20.714 C 114.75 23.263002 117.662 26.127 120.269 29.228 C 120.78501 29.840998 121.03 30.623 120.908005 31.267 C 120.098 35.522 121.221 41.556 124.07 48.257 C 126.916 54.949 130.479 59.941 134.103 62.314 C 134.652 62.672997 135.045 63.390995 135.129 64.19 C 135.552 68.221 135.593 72.304 135.251 76.328 C 135.182 77.137 134.797 77.873 134.246 78.248 C 130.666 80.686 127.195 85.747 124.473 92.496 C 121.753 99.24 120.742004 105.287994 121.62499 109.529 C 121.761 110.181 121.528 110.97699 121.015 111.607 C 118.47 114.741005 115.606 117.653 112.502 120.264 C 111.995 120.691 111.399994 120.928 110.826 120.934 C 110.703 120.935 110.58 120.924 110.466 120.902 C 109.50901 120.72001 108.457 120.632 107.341 120.643 C 103.502 120.679 98.576996 121.894 93.475 124.065 C 86.781 126.909 81.789 130.471 79.416 134.096 C 79.057 134.645 78.337 135.038 77.538 135.123 C 75.515 135.335 73.458 135.453 71.423 135.472 C 69.417 135.491 67.391 135.414 65.402 135.246 C 64.592 135.176 63.856 134.791 63.479996 134.239 C 61.042004 130.659 55.981 127.187996 49.230995 124.467 C 44.087006 122.391 39.14 121.269005 35.302 121.304 C 34.195 121.315 33.151 121.421 32.199 121.619 C 32.08 121.644005 31.956999 121.656006 31.833 121.657 C 31.249 121.66301 30.64 121.433 30.119 121.01 C 26.984 118.463 24.071 115.599 21.463 112.497 C 20.947 111.88301 20.703 111.103 20.825 110.46 C 21.635 106.20401 20.512 100.16999 17.662 93.467 C 14.814999 86.775 11.252 81.783 7.629 79.411 C 7.08 79.052 6.687 78.333 6.603 77.535 C 6.18 73.504 6.1389995 69.42 6.4809995 65.396 C 6.55 64.588 6.9349995 63.852 7.486 63.477 C 11.065999 61.039 14.537 55.978996 17.259 49.229 C 19.979 42.484 20.991 36.436 20.107 32.197 C 19.971 31.545 20.205 30.748 20.717 30.117 C 23.266003 26.979 26.13 24.067 29.231 21.462 C 29.738003 21.035 30.333 20.797 30.906 20.792 C 31.03 20.791 31.153002 20.802 31.266003 20.823 C 32.223 21.005 33.274 21.093 34.39 21.083 C 38.228 21.047 43.153 19.832 48.259 17.661 C 54.953 14.814001 59.945 11.252 62.316 7.629 C 62.676 7.08 63.395 6.686 64.194 6.602 C 66.217 6.39 68.275 6.272 70.31 6.253 M 70.281 3.128 C 68.149 3.148 65.991 3.271 63.867004 3.494 C 62.132 3.676 60.575 4.582 59.701004 5.918 C 57.693996 8.983 53.078 12.215 47.036003 14.785 C 42.298 16.799 37.797 17.925 34.361 17.958 C 33.453 17.966 32.609 17.898 31.852 17.753 C 31.534 17.693 31.206001 17.663 30.876999 17.667 C 29.579998 17.679 28.28 18.177 27.219 19.07 C 23.968 21.802 20.964 24.856 18.291 28.147001 C 17.185 29.508999 16.72 31.261997 17.048 32.835 C 17.795 36.422 16.816 41.972 14.361 48.059 C 11.903 54.153 8.756 58.831 5.726 60.894005 C 4.398 61.799 3.516 63.383 3.367 65.131 C 3.008 69.352 3.051 73.635 3.495 77.861 C 3.677 79.595 4.583 81.153 5.918 82.026 C 8.984 84.034 12.216 88.65 14.786 94.691 C 17.358 100.73999 18.44 106.27401 17.755 109.87499 C 17.457 111.442 17.949 113.174 19.071 114.508 C 21.806 117.76199 24.86 120.765 28.149 123.436005 C 29.234 124.317 30.552998 124.795006 31.863 124.783005 C 32.192 124.78 32.52 124.745 32.837 124.679 C 33.588 124.522 34.427 124.438 35.331 124.43 C 38.768 124.397995 43.289 125.44 48.061996 127.365 C 54.155 129.822 58.833 132.969 60.897 135.999 C 61.803 137.329 63.387 138.21 65.136 138.36 C 67.226 138.537 69.352 138.617 71.452 138.598 C 73.583 138.578 75.741 138.455 77.865 138.231 C 79.6 138.048 81.158 137.142 82.031 135.807 C 84.039 132.74 88.655 129.509 94.697 126.941 C 99.432 124.92701 103.933 123.8 107.37 123.768005 C 108.279 123.76 109.123 123.827995 109.87999 123.972 C 110.198 124.03299 110.526 124.062 110.855 124.059006 C 112.15299 124.047005 113.453 123.548 114.51499 122.655 C 117.768 119.919 120.772 116.86499 123.442 113.578 C 124.548 112.216 125.013 110.464 124.685 108.89101 C 123.937 105.302 124.916 99.753 127.372 93.665 C 129.829 87.572 132.976 82.895 136.006 80.832 C 137.334 79.926 138.217 78.342 138.365 76.593 C 138.724 72.373 138.682 68.091 138.238 63.864 C 138.056 62.129 137.15 60.571995 135.814 59.698 C 132.747 57.691 129.515 53.075 126.946 47.034 C 124.375 40.986 123.293 35.452 123.978 31.851 C 124.276 30.284 123.784 28.551003 122.66101 27.216 C 119.926 23.964 116.871994 20.96 113.583 18.289 C 112.49901 17.409 111.18 16.931 109.869995 16.943 C 109.54 16.946 109.213 16.98 108.896 17.047 C 108.145 17.203 107.30601 17.287 106.402 17.296 C 102.96499 17.328 98.443 16.285 93.67 14.359 C 87.577 11.902 82.899 8.755 80.836 5.727 C 79.93 4.397 78.346 3.516 76.597 3.366 C 74.507 3.188 72.381 3.108 70.281 3.128 Z" />
    </g>
    <path fill="#e3e3e3" stroke="none" d="M 70.8 9.897 L 70.317 9.897 C 68.801 9.897 67.572 11.125 67.572 12.641 L 67.572 69.372 C 67.572 70.888 68.801 72.116 70.317 72.116 L 70.8 72.116 C 72.316 72.116 73.545 70.888 73.545 69.372 L 73.545 12.641 C 73.545 11.125 72.316 9.897 70.8 9.897 Z" />
</svg>