<svg xmlns="http://www.w3.org/2000/svg" width="142" height="142">
    <defs>
        <linearGradient id="_Linear1" x1="0" y1="0" x2="1" y2="0" gradientUnits="userSpaceOnUse" gradientTransform="matrix(0 141.726 -141.732 0 70.8664 0)">
            <stop offset="0" stop-color="#498d34" />
            <stop offset="1" stop-color="#275f13" />
        </linearGradient>
        <linearGradient id="_Linear2" x1="0" y1="0" x2="1" y2="0" gradientUnits="userSpaceOnUse" gradientTransform="matrix(0 41.0949 -41.0968 0 70.5683 16.9768)">
            <stop offset="0" stop-color="#fdfdff" stop-opacity="0.8" />
            <stop offset="1" stop-color="#fcfeff" stop-opacity="0" />
        </linearGradient>
    </defs>
    <path fill="url(#_Linear1)" fill-rule="evenodd" stroke="none" d="M 141.732 70.863 C 141.732 109.99956 110.0042 141.726 70.866 141.726 C 31.727787 141.726 0 109.99956 0 70.863 C -0 31.726446 31.727787 0 70.866 0 C 110.0042 0 141.732 31.726446 141.732 70.863 Z" />
    <path fill="url(#_Linear2)" fill-rule="evenodd" stroke="none" d="M 103.524994 37.527 C 103.524994 48.875347 88.769646 58.075005 70.568 58.075005 C 52.366352 58.075005 37.611 48.875347 37.611 37.527 C 37.611 26.178656 52.366352 16.979 70.568 16.979 C 88.769646 16.979 103.524994 26.178656 103.524994 37.527 Z" />
</svg>