<?xml version="1.0" encoding="UTF-8" standalone="no"?>
<svg
   version="1.1"
   width="71.120003mm"
   height="128.5mm"
   viewBox="0 0 71.120003 128.5"
   id="svg8664"
   sodipodi:docname="dsf.svg"
   inkscape:version="1.4 (e7c3feb100, 2024-10-09)"
   xmlns:inkscape="http://www.inkscape.org/namespaces/inkscape"
   xmlns:sodipodi="http://sodipodi.sourceforge.net/DTD/sodipodi-0.dtd"
   xmlns="http://www.w3.org/2000/svg"
   xmlns:svg="http://www.w3.org/2000/svg"
   xmlns:rdf="http://www.w3.org/1999/02/22-rdf-syntax-ns#"
   xmlns:cc="http://creativecommons.org/ns#"
   xmlns:dc="http://purl.org/dc/elements/1.1/">
  <defs
     id="defs8668" />
  <sodipodi:namedview
     id="namedview8666"
     pagecolor="#ffffff"
     bordercolor="#000000"
     borderopacity="0.25"
     inkscape:showpageshadow="2"
     inkscape:pageopacity="0.0"
     inkscape:pagecheckerboard="0"
     inkscape:deskcolor="#d1d1d1"
     inkscape:document-units="mm"
     showgrid="false"
     showguides="true"
     inkscape:zoom="1.7938792"
     inkscape:cx="30.938538"
     inkscape:cy="285.13626"
     inkscape:window-width="2256"
     inkscape:window-height="1427"
     inkscape:window-x="0"
     inkscape:window-y="0"
     inkscape:window-maximized="1"
     inkscape:current-layer="layer3">
    <inkscape:grid
       type="xygrid"
       id="grid13701"
       originx="0"
       originy="0"
       spacingy="1"
       spacingx="1"
       units="mm" />
  </sodipodi:namedview>
  <title
     id="title2">SVG Image created as ES_Daisy_Patch_SM_FB_Rev1-brd.svg date 2024/04/30 13:34:42 </title>
  <desc
     id="desc4">Image generated by PCBNEW </desc>
  <g
     style="display:none;fill:#000000;fill-opacity:1;stroke:#000000;stroke-linecap:round;stroke-linejoin:round;stroke-opacity:1"
     id="g6" />
  <g
     inkscape:groupmode="layer"
     id="layer2"
     inkscape:label="holes"
     style="display:none;fill:#280b0b"
     sodipodi:insensitive="true">
    <g
       inkscape:label="EuroPanel"
       id="g721">
      <rect
         style="fill:#e6e6e6;stroke:none;stroke-width:0mm"
         height="128.5"
         width="70.760002"
         x="0"
         y="0"
         rx="0"
         ry="0"
         id="rect711" />
      <rect
         style="fill:#ffffff;stroke:none;stroke-width:0mm"
         height="3.2"
         width="5.5"
         x="4.75"
         y="123.9"
         rx="1.6"
         ry="0"
         id="rect713" />
      <rect
         style="fill:#ffffff;stroke:none;stroke-width:0mm"
         height="3.2"
         width="5.5"
         x="4.75"
         y="1.4"
         rx="1.6"
         ry="0"
         id="rect715" />
      <rect
         style="fill:#ffffff;stroke:none;stroke-width:0mm"
         height="3.2"
         width="5.5"
         x="60.630001"
         y="123.9"
         rx="1.6"
         ry="0"
         id="rect717" />
      <rect
         style="fill:#ffffff;stroke:none;stroke-width:0mm"
         height="3.2"
         width="5.5"
         x="60.630001"
         y="1.4"
         rx="1.6"
         ry="0"
         id="rect719" />
    </g>
  </g>
  <g
     inkscape:groupmode="layer"
     id="layer1"
     inkscape:label="bg"
     style="display:inline">
    <rect
       style="display:inline;fill:#000000;stroke:none;stroke-width:0;stroke-dasharray:none"
       id="rect5959"
       width="11.101844"
       height="9.0416718"
       x="54.015278"
       y="111.60073" />
  </g>
  <g
     inkscape:groupmode="layer"
     id="layer4"
     inkscape:label="fg">
    <path
       style="font-size:3.52778px;font-family:'Segoe UI';-inkscape-font-specification:'Segoe UI';stroke-width:0.264583"
       d="m 47.28449,41.384182 h 0.278695 v -2.039057 h -0.05997 l 0.853723,1.658057 h 0.229306 l 0.843139,-1.658057 h -0.04233 v 2.039057 h 0.278695 v -2.448279 h -0.289278 l -0.984251,1.926168 h 0.176389 L 47.584351,38.935903 H 47.28449 Z m 3.683,0.03528 c 0.500945,0 0.839611,-0.363362 0.839611,-0.90664 0,-0.525639 -0.313972,-0.864306 -0.797278,-0.864306 -0.500945,0 -0.836084,0.359834 -0.836084,0.903112 0,0.525639 0.310445,0.867834 0.793751,0.867834 z m 0.03881,-0.246945 c -0.328083,0 -0.550333,-0.264583 -0.550333,-0.656167 0,-0.377472 0.201083,-0.620889 0.515056,-0.620889 0.328083,0 0.553861,0.268111 0.553861,0.656167 0,0.373945 -0.204611,0.620889 -0.518584,0.620889 z m 1.926167,0.246945 c 0.28575,0 0.508,-0.141111 0.638528,-0.373945 l -0.102306,-0.127 c -0.09525,0.15875 -0.254,0.254 -0.455083,0.254 -0.338667,0 -0.55739,-0.264583 -0.55739,-0.656167 0,-0.373945 0.197556,-0.620889 0.52564,-0.620889 0.215194,0 0.384528,0.09878 0.483305,0.268111 l 0.130528,-0.155222 c -0.123472,-0.229306 -0.342194,-0.359834 -0.624417,-0.359834 -0.479778,0 -0.797278,0.359834 -0.797278,0.899584 0,0.522112 0.303389,0.871362 0.758473,0.871362 z m 0.578556,-0.03528 h 0.197555 v -2.607029 h -0.282222 v 2.409473 z m 1.368777,0.03528 c 0.239889,0 0.483306,-0.105834 0.656167,-0.292806 l -0.06703,-0.179917 c -0.134056,0.144639 -0.321028,0.225778 -0.504472,0.225778 -0.264584,0 -0.416279,-0.155222 -0.416279,-0.430389 v -1.058334 h -0.282222 v 1.114778 c 0,0.377473 0.250472,0.62089 0.613834,0.62089 z m 0.599722,-0.03528 h 0.197556 v -1.70039 h -0.282222 v 1.502834 z m 1.167698,0.02117 c 0.09172,0 0.201083,-0.02117 0.268111,-0.05645 l -0.0635,-0.197556 c -0.04233,0.01764 -0.08114,0.02822 -0.123472,0.02822 -0.119945,0 -0.183445,-0.08114 -0.183445,-0.211667 v -2.190751 h -0.282222 v 2.226029 c 0,0.243417 0.151694,0.402167 0.384528,0.402167 z m 1.647473,-0.02117 h 0.197555 v -1.104195 c 0,-0.405695 -0.239889,-0.631473 -0.684389,-0.631473 -0.22225,0 -0.462139,0.05997 -0.645584,0.162278 l 0.07056,0.208139 c 0.176389,-0.07761 0.352778,-0.116417 0.518584,-0.116417 0.303389,0 0.458611,0.127 0.458611,0.377473 v 0.906639 z m -0.603251,0.03528 c 0.405695,0 0.712612,-0.254 0.762001,-0.631473 l -0.102306,-0.04939 c -0.05292,0.261056 -0.28575,0.433917 -0.578556,0.433917 -0.225778,0 -0.373944,-0.112889 -0.373944,-0.282222 0,-0.215195 0.250472,-0.303389 0.853722,-0.303389 v -0.194028 c -0.79375,0 -1.135945,0.15875 -1.135945,0.529167 0,0.303389 0.225778,0.497417 0.575028,0.497417 z m 1.940276,-0.01764 c 0.116417,0 0.232833,-0.02822 0.313972,-0.0635 l -0.0635,-0.204611 c -0.05292,0.02469 -0.130527,0.0388 -0.1905,0.0388 -0.176389,0 -0.292805,-0.112889 -0.292805,-0.282222 v -1.703918 h -0.282223 v 1.742723 c 0,0.282223 0.204611,0.472723 0.515056,0.472723 z m -0.744362,-1.481668 h 0.977195 v -0.236361 h -0.977195 z m 1.435807,1.464029 h 0.282223 v -1.70039 h -0.282223 z m 0.144639,-2.099029 c 0.127,0 0.201084,-0.07408 0.201084,-0.201084 0,-0.127 -0.07408,-0.201083 -0.201084,-0.201083 -0.127,0 -0.201083,0.07408 -0.201083,0.201083 0,0.127 0.07408,0.201084 0.201083,0.201084 z m 1.407586,2.134307 c 0.500944,0 0.839611,-0.363362 0.839611,-0.90664 0,-0.525639 -0.313972,-0.864306 -0.797278,-0.864306 -0.500945,0 -0.836084,0.359834 -0.836084,0.903112 0,0.525639 0.310445,0.867834 0.793751,0.867834 z m 0.03881,-0.246945 c -0.328083,0 -0.550333,-0.264583 -0.550333,-0.656167 0,-0.377472 0.201083,-0.620889 0.515055,-0.620889 0.328084,0 0.553862,0.268111 0.553862,0.656167 0,0.373945 -0.204611,0.620889 -0.518584,0.620889 z m 2.437694,0.211667 h 0.282222 v -1.114779 c 0,-0.377472 -0.250472,-0.620889 -0.631472,-0.620889 -0.246945,0 -0.490362,0.105834 -0.670279,0.292806 l 0.06703,0.179917 c 0.141112,-0.144639 0.328084,-0.225778 0.52564,-0.225778 0.275166,0 0.426861,0.155222 0.426861,0.430389 z m -1.16064,0 h 0.282223 v -1.502834 l -0.08467,-0.197556 h -0.197556 z"
       id="text1062-4"
       aria-label="Modulation" />
    <path
       style="font-size:3.52778px;font-family:'Segoe UI';-inkscape-font-specification:'Segoe UI';stroke-width:0.264583"
       d="m 4.4690656,37.877911 h 0.2928057 v -1.135946 h 1.1253618 v -0.254 H 4.7618713 v -0.804334 h 1.2276675 v -0.254 H 4.4690656 Z m 1.9543891,0 H 6.7056771 V 36.572632 L 6.6562882,36.177521 H 6.4234547 Z m 0.2187224,-1.104196 c 0.098778,-0.215194 0.3033891,-0.345722 0.5362225,-0.345722 0.067028,0 0.1305279,0.01058 0.1869724,0.03175 l 0.070556,-0.261056 c -0.074083,-0.02469 -0.1481668,-0.0388 -0.2257779,-0.0388 -0.2293057,0 -0.4409725,0.123472 -0.5679726,0.328083 z m 1.8767819,1.139473 c 0.1940279,0 0.4056947,-0.04586 0.5573892,-0.127 l -0.0635,-0.204611 c -0.1305279,0.0635 -0.2963336,0.102306 -0.4445003,0.102306 -0.3986392,0 -0.6350004,-0.264584 -0.6350004,-0.705556 0,-0.384528 0.1728612,-0.596195 0.4833058,-0.596195 0.289278,0 0.4586114,0.186972 0.4586114,0.511528 H 7.8839585 v 0.211667 h 1.2417786 c 0.00706,-0.05292 0.014111,-0.176389 0.014111,-0.243417 0,-0.426861 -0.2822224,-0.719667 -0.7020282,-0.719667 -0.4727225,0 -0.7937505,0.370417 -0.7937505,0.892528 0,0.543278 0.3351391,0.878417 0.8748895,0.878417 z m 1.746251,0 c 0.28575,0 0.508,-0.141111 0.638528,-0.373944 l -0.102306,-0.127 c -0.09525,0.15875 -0.254,0.254 -0.455084,0.254 -0.338666,0 -0.5573888,-0.264584 -0.5573888,-0.656167 0,-0.373945 0.1975557,-0.62089 0.5256388,-0.62089 0.215195,0 0.384528,0.09878 0.483306,0.268112 l 0.130528,-0.155223 c -0.123472,-0.229305 -0.342194,-0.359833 -0.624417,-0.359833 -0.479778,0 -0.7972782,0.359833 -0.7972782,0.899584 0,0.522111 0.3033891,0.871361 0.7584732,0.871361 z m 0.493889,0.730251 h 0.282222 v -2.465918 h -0.197556 l -0.08467,0.197555 z m 1.453444,-0.730251 c 0.239889,0 0.483306,-0.105833 0.656167,-0.292805 l -0.06703,-0.179917 c -0.134055,0.144639 -0.321027,0.225778 -0.504472,0.225778 -0.264584,0 -0.416278,-0.155223 -0.416278,-0.430389 v -1.058334 h -0.282223 v 1.114778 c 0,0.377473 0.250473,0.620889 0.613834,0.620889 z m 0.599723,-0.03528 h 0.197556 v -1.70039 h -0.282223 v 1.502834 z m 1.548697,0.03528 c 0.194028,0 0.405695,-0.04586 0.557389,-0.127 l -0.0635,-0.204611 c -0.130528,0.0635 -0.296333,0.102306 -0.4445,0.102306 -0.398639,0 -0.635,-0.264584 -0.635,-0.705556 0,-0.384528 0.172861,-0.596195 0.483305,-0.596195 0.289278,0 0.458612,0.186972 0.458612,0.511528 h -0.991306 v 0.211667 h 1.241778 c 0.0071,-0.05292 0.01411,-0.176389 0.01411,-0.243417 0,-0.426861 -0.282222,-0.719667 -0.702028,-0.719667 -0.472722,0 -0.79375,0.370417 -0.79375,0.892528 0,0.543278 0.335139,0.878417 0.874889,0.878417 z m 2.257778,-0.03528 h 0.282223 v -1.114779 c 0,-0.377472 -0.250473,-0.620889 -0.631473,-0.620889 -0.246944,0 -0.490361,0.105833 -0.670278,0.292806 l 0.06703,0.179916 c 0.141111,-0.144639 0.328083,-0.225778 0.525639,-0.225778 0.275167,0 0.426861,0.155223 0.426861,0.43039 z m -1.160639,0 h 0.282222 v -1.502835 l -0.08467,-0.197555 h -0.197556 z m 2.667,0.03528 c 0.204611,0 0.416278,-0.04939 0.557389,-0.134055 l -0.0635,-0.204611 c -0.141111,0.06703 -0.296333,0.105833 -0.426861,0.105833 -0.352778,0 -0.553862,-0.246945 -0.553862,-0.659695 0,-0.409222 0.197556,-0.631473 0.550334,-0.631473 0.134056,0 0.28575,0.03175 0.426862,0.09525 l 0.06703,-0.229305 c -0.155222,-0.07408 -0.321028,-0.112889 -0.490361,-0.112889 -0.504473,0 -0.843139,0.373945 -0.843139,0.934862 0,0.525639 0.289277,0.836083 0.776111,0.836083 z m 1.093615,0.730251 h 0.299861 l 0.282223,-0.765528 0.663222,-1.70039 h -0.282222 l -0.550334,1.531056 h 0.07408 l -0.536222,-1.531056 h -0.313973 l 0.670279,1.70039 z"
       id="text1062-7"
       aria-label="Frequency" />
    <path
       style="font-size:3.52778px;font-family:'Segoe UI';-inkscape-font-specification:'Segoe UI';stroke-width:0.264583"
       d="M 8.9582004,54.271248 H 9.2439506 L 10.136479,51.822969 H 9.8401454 l -0.8149171,2.345973 h 0.176389 L 8.4008112,51.822969 H 8.0656721 Z m 1.2946976,0.405695 h 0.261056 l 0.754945,-3.012725 h -0.282223 z m 2.416527,-0.381001 c 0.705556,0 1.178278,-0.511528 1.178278,-1.280584 0,-0.733778 -0.458611,-1.22414 -1.143,-1.22414 -0.694973,0 -1.157112,0.508001 -1.157112,1.266474 0,0.744361 0.448028,1.23825 1.121834,1.23825 z m 0.03528,-0.254 c -0.515056,0 -0.857251,-0.409222 -0.857251,-1.026584 0,-0.578556 0.328084,-0.966612 0.821973,-0.966612 0.525639,0 0.878417,0.402167 0.878417,1.008946 0,0.589139 -0.338667,0.98425 -0.843139,0.98425 z m 2.293057,0.264584 c 0.204612,0 0.416278,-0.04939 0.55739,-0.134056 l -0.0635,-0.204611 c -0.141112,0.06703 -0.296334,0.105833 -0.426862,0.105833 -0.352778,0 -0.553861,-0.246944 -0.553861,-0.659695 0,-0.409222 0.197555,-0.631472 0.550333,-0.631472 0.134056,0 0.285751,0.03175 0.426862,0.09525 l 0.06703,-0.229306 c -0.155223,-0.07408 -0.321028,-0.112889 -0.490362,-0.112889 -0.504472,0 -0.843139,0.373945 -0.843139,0.934862 0,0.525639 0.289278,0.836084 0.776111,0.836084 z m 1.562811,-0.01764 c 0.116417,0 0.232833,-0.02822 0.313972,-0.0635 l -0.0635,-0.204612 c -0.05292,0.0247 -0.130528,0.03881 -0.1905,0.03881 -0.176389,0 -0.292806,-0.112889 -0.292806,-0.282222 v -1.703918 h -0.282222 v 1.742723 c 0,0.282223 0.204611,0.472723 0.515056,0.472723 z m -0.744362,-1.481668 h 0.977195 v -0.236361 h -0.977195 z"
       id="text1062-4-5"
       aria-label="V/Oct" />
    <path
       style="font-size:3.52778px;font-family:'Segoe UI';-inkscape-font-specification:'Segoe UI';stroke-width:0.264583"
       d="m 59.335229,110.15156 c 0.705556,0 1.178278,-0.51153 1.178278,-1.28059 0,-0.73378 -0.458611,-1.22414 -1.143,-1.22414 -0.694972,0 -1.157111,0.508 -1.157111,1.26648 0,0.74436 0.448028,1.23825 1.121833,1.23825 z m 0.03528,-0.254 c -0.515056,0 -0.85725,-0.40923 -0.85725,-1.02659 0,-0.57855 0.328083,-0.96661 0.821972,-0.96661 0.525639,0 0.878417,0.40217 0.878417,1.00895 0,0.58913 -0.338667,0.98425 -0.843139,0.98425 z m 2.211917,0.26458 c 0.239889,0 0.483306,-0.10583 0.656167,-0.29281 l -0.06703,-0.17991 c -0.134055,0.14464 -0.321028,0.22577 -0.504472,0.22577 -0.264583,0 -0.416278,-0.15522 -0.416278,-0.43038 v -1.05834 h -0.282222 v 1.11478 c 0,0.37747 0.250472,0.62089 0.613833,0.62089 z m 0.599722,-0.0353 h 0.197556 v -1.70039 H 62.09748 v 1.50284 z m 1.365253,0.0176 c 0.116416,0 0.232833,-0.0282 0.313972,-0.0635 l -0.0635,-0.20461 c -0.05292,0.0247 -0.130528,0.0388 -0.1905,0.0388 -0.176389,0 -0.292806,-0.11288 -0.292806,-0.28222 v -1.70391 h -0.282222 v 1.74272 c 0,0.28222 0.204611,0.47272 0.515056,0.47272 z m -0.744362,-1.48167 h 0.977195 v -0.23636 h -0.977195 z"
       id="text1062-4-5-4"
       aria-label="Out&#10;" />
    <path
       style="font-weight:bold;font-size:6.35px;font-family:'Segoe UI';-inkscape-font-specification:'Segoe UI Bold';stroke-width:0.264583"
       d="m 30.000732,13.558403 h 1.4605 c 1.422399,0 2.374899,-0.889 2.374899,-2.286 0,-1.3334999 -0.8509,-2.1208999 -2.286,-2.1208999 h -1.549399 z m 0.80645,-0.70485 V 9.8627031 h 0.67945 c 0.952499,0 1.504949,0.5524499 1.504949,1.5176499 0,0.9398 -0.51435,1.4732 -1.4351,1.4732 z m 5.035555,0.76835 c 1.0795,0 1.7272,-0.52705 1.7272,-1.3589 0,-1.5875 -2.3241,-1.03505 -2.3241,-1.92405 0,-0.3428999 0.31115,-0.5270499 0.85725,-0.5270499 0.3683,0 0.76835,0.06985 1.0795,0.1904999 l 0.23495,-0.6540499 c -0.3683,-0.1651 -0.83185,-0.254 -1.26365,-0.254 -1.0541,0 -1.75895,0.53975 -1.75895,1.3652499 0,1.50495 2.3114,1.016 2.3114,1.91135 0,0.3175 -0.2794,0.5207 -0.8255,0.5207 -0.40005,0 -0.889,-0.09525 -1.3208,-0.27305 l -0.23495,0.6604 c 0.4699,0.20955 1.00965,0.3429 1.51765,0.3429 z m 2.4384,-0.0635 h 0.8255 v -1.8288 h 1.91135 v -0.71755 h -1.91135 V 9.8690531 h 2.11455 v -0.71755 h -2.94005 z"
       id="text1062-1"
       aria-label="DSF" />
    <path
       style="font-size:3.52778px;font-family:'Segoe UI';-inkscape-font-specification:'Segoe UI';stroke-width:0.264583"
       d="m 45.864213,32.239429 h 0.292806 V 30.04515 h 0.483306 c 0.34925,0 0.553861,0.179917 0.553861,0.483306 0,0.299861 -0.183444,0.472723 -0.518583,0.472723 h -0.624417 v 0.246944 h 0.589139 c 0.508,0 0.853723,-0.321028 0.853723,-0.772584 0,-0.430389 -0.3175,-0.684389 -0.818445,-0.684389 h -0.81139 z m 1.421696,0 h 0.34925 l -0.677334,-1.157111 h -0.335139 z m 1.785059,0 h 0.197556 v -1.104195 c 0,-0.405694 -0.239889,-0.631472 -0.684389,-0.631472 -0.22225,0 -0.46214,0.05997 -0.645584,0.162278 l 0.07056,0.208139 c 0.176389,-0.07761 0.352778,-0.116417 0.518583,-0.116417 0.303389,0 0.458612,0.127 0.458612,0.377472 v 0.90664 z m -0.60325,0.03528 c 0.405695,0 0.712612,-0.254 0.762,-0.631472 l -0.102305,-0.04939 c -0.05292,0.261055 -0.28575,0.433917 -0.578556,0.433917 -0.225778,0 -0.373945,-0.112889 -0.373945,-0.282223 0,-0.215194 0.250473,-0.303389 0.853723,-0.303389 v -0.194028 c -0.793751,0 -1.135945,0.15875 -1.135945,0.529167 0,0.303389 0.225778,0.497417 0.575028,0.497417 z m 1.940276,-0.01764 c 0.116417,0 0.232833,-0.02822 0.313972,-0.0635 l -0.0635,-0.204611 c -0.05292,0.0247 -0.130528,0.03881 -0.1905,0.03881 -0.176389,0 -0.292806,-0.112889 -0.292806,-0.282223 v -1.703918 h -0.282222 v 1.742724 c 0,0.282222 0.204611,0.472722 0.515056,0.472722 z m -0.744362,-1.481667 h 0.977195 v -0.236362 h -0.977195 z m 1.435807,1.464028 h 0.282222 v -1.70039 H 51.099439 Z M 51.244078,30.1404 c 0.127,0 0.201083,-0.07408 0.201083,-0.201083 0,-0.127 -0.07408,-0.201084 -0.201083,-0.201084 -0.127,0 -0.201084,0.07408 -0.201084,0.201084 0,0.127 0.07408,0.201083 0.201084,0.201083 z m 1.407585,2.134307 c 0.500945,0 0.839612,-0.363361 0.839612,-0.906639 0,-0.525639 -0.313973,-0.864306 -0.797279,-0.864306 -0.500944,0 -0.836083,0.359833 -0.836083,0.903111 0,0.52564 0.310444,0.867834 0.79375,0.867834 z m 0.03881,-0.246944 c -0.328084,0 -0.550334,-0.264584 -0.550334,-0.656167 0,-0.377473 0.201083,-0.62089 0.515056,-0.62089 0.328083,0 0.553861,0.268112 0.553861,0.656167 0,0.373945 -0.204611,0.62089 -0.518583,0.62089 z m 1.072443,0.617361 h 0.261056 L 54.778913,29.6324 h -0.282222 z m 1.428748,-0.405695 h 0.292806 v -1.135945 h 1.125362 v -0.254 H 55.484466 V 30.04515 h 1.227667 v -0.254 H 55.19166 Z m 1.95439,0 h 0.282222 v -1.70039 H 57.14605 Z M 57.290689,30.1404 c 0.127,0 0.201083,-0.07408 0.201083,-0.201083 0,-0.127 -0.07408,-0.201084 -0.201083,-0.201084 -0.127001,0 -0.201084,0.07408 -0.201084,0.201084 0,0.127 0.07408,0.201083 0.201084,0.201083 z m 0.479779,2.099029 h 0.321028 l 0.529167,-0.754944 0.716139,-0.945446 h -0.321028 l -0.53975,0.769057 z m 1.210028,0 h 0.324556 l -0.6985,-0.959556 -0.515056,-0.740834 H 57.76694 l 0.687917,0.956029 z m 1.453446,0.03528 c 0.194027,0 0.405694,-0.04586 0.557389,-0.127 l -0.0635,-0.204611 c -0.130528,0.0635 -0.296334,0.102306 -0.444501,0.102306 -0.398639,0 -0.635,-0.264584 -0.635,-0.705556 0,-0.384528 0.172861,-0.596195 0.483306,-0.596195 0.289278,0 0.458611,0.186972 0.458611,0.511528 h -0.991306 v 0.211667 h 1.241779 c 0.0071,-0.05292 0.01411,-0.176389 0.01411,-0.243417 0,-0.426862 -0.282223,-0.719667 -0.702028,-0.719667 -0.472723,0 -0.793751,0.370417 -0.793751,0.892528 0,0.543278 0.335139,0.878417 0.87489,0.878417 z m 1.74625,0 c 0.28575,0 0.508,-0.141111 0.638528,-0.373944 l -0.102306,-0.127 c -0.09525,0.15875 -0.254,0.254 -0.455083,0.254 -0.338667,0 -0.557389,-0.264584 -0.557389,-0.656167 0,-0.373945 0.197555,-0.62089 0.525639,-0.62089 0.215194,0 0.384528,0.09878 0.483306,0.268112 l 0.130527,-0.155223 c -0.123472,-0.229305 -0.342194,-0.359833 -0.624417,-0.359833 -0.479778,0 -0.797278,0.359833 -0.797278,0.899584 0,0.522111 0.303389,0.871361 0.758473,0.871361 z m 0.578556,-0.03528 h 0.197555 V 29.6324 h -0.282222 v 2.409474 z"
       id="text1062-4-5-7"
       aria-label="Ratio/Fixed&#10;" />
    <path
       style="font-size:3.52778px;font-family:'Segoe UI';-inkscape-font-specification:'Segoe UI';stroke-width:0.264583"
       d="m 28.099794,88.943344 h 0.278694 v -2.039057 h -0.05997 l 0.853723,1.658057 h 0.229306 l 0.843139,-1.658057 h -0.04233 v 2.039057 h 0.278694 v -2.448279 h -0.289278 l -0.98425,1.926168 h 0.176389 l -0.984251,-1.926168 h -0.299861 z m 3.683,0.03528 c 0.500944,0 0.839611,-0.363361 0.839611,-0.90664 0,-0.525639 -0.313972,-0.864306 -0.797278,-0.864306 -0.500945,0 -0.836084,0.359834 -0.836084,0.903112 0,0.525639 0.310445,0.867834 0.793751,0.867834 z m 0.0388,-0.246945 c -0.328083,0 -0.550334,-0.264583 -0.550334,-0.656167 0,-0.377472 0.201084,-0.620889 0.515056,-0.620889 0.328084,0 0.553862,0.268111 0.553862,0.656167 0,0.373945 -0.204611,0.620889 -0.518584,0.620889 z m 1.926166,0.246945 c 0.285751,0 0.508001,-0.141111 0.638529,-0.373945 l -0.102306,-0.127 c -0.09525,0.15875 -0.254,0.254 -0.455084,0.254 -0.338667,0 -0.557389,-0.264583 -0.557389,-0.656167 0,-0.373944 0.197556,-0.620889 0.525639,-0.620889 0.215195,0 0.384528,0.09878 0.483306,0.268111 l 0.130528,-0.155222 c -0.123472,-0.229306 -0.342195,-0.359834 -0.624417,-0.359834 -0.479778,0 -0.797278,0.359834 -0.797278,0.899584 0,0.522112 0.303389,0.871362 0.758472,0.871362 z m 0.578556,-0.03528 h 0.197556 v -2.607029 h -0.282222 v 2.409473 z m 2.610554,0 h 0.197555 v -1.104195 c 0,-0.405695 -0.239889,-0.631473 -0.684389,-0.631473 -0.22225,0 -0.462139,0.05997 -0.645584,0.162278 l 0.07056,0.208139 c 0.176389,-0.07761 0.352778,-0.116417 0.518584,-0.116417 0.303389,0 0.458611,0.127001 0.458611,0.377473 v 0.906639 z m -0.603251,0.03528 c 0.405695,0 0.712612,-0.254 0.762001,-0.631473 l -0.102306,-0.04939 c -0.05292,0.261056 -0.28575,0.433917 -0.578556,0.433917 -0.225778,0 -0.373944,-0.112889 -0.373944,-0.282222 0,-0.215195 0.250472,-0.303389 0.853722,-0.303389 v -0.194028 c -0.79375,0 -1.135945,0.15875 -1.135945,0.529167 0,0.303389 0.225778,0.497417 0.575028,0.497417 z m 3.644194,-0.03528 h 0.282222 v -1.114778 c 0,-0.377473 -0.246944,-0.62089 -0.624417,-0.62089 -0.243417,0 -0.483306,0.105834 -0.659695,0.292806 l 0.06703,0.179917 c 0.137584,-0.144639 0.321028,-0.225778 0.515056,-0.225778 0.271639,0 0.419806,0.155222 0.419806,0.430389 z m -2.286002,0 h 0.282223 V 87.44051 l -0.08467,-0.197556 h -0.197556 z m 1.143001,0 h 0.282223 v -1.114778 c 0,-0.377473 -0.246945,-0.62089 -0.62089,-0.62089 -0.246944,0 -0.486833,0.105834 -0.663222,0.292806 l 0.06703,0.179917 c 0.137584,-0.144639 0.321028,-0.225778 0.515056,-0.225778 0.271639,0 0.419806,0.155222 0.419806,0.430389 z m 2.667001,0.03528 c 0.500945,0 0.839612,-0.363361 0.839612,-0.90664 0,-0.525639 -0.313973,-0.864306 -0.797279,-0.864306 -0.500944,0 -0.836084,0.359834 -0.836084,0.903112 0,0.525639 0.310445,0.867834 0.793751,0.867834 z m 0.03881,-0.246945 c -0.328084,0 -0.550334,-0.264583 -0.550334,-0.656167 0,-0.377472 0.201083,-0.620889 0.515056,-0.620889 0.328083,0 0.553861,0.268111 0.553861,0.656167 0,0.373945 -0.204611,0.620889 -0.518583,0.620889 z m 1.862665,0.246945 c 0.239889,0 0.483306,-0.105833 0.656167,-0.292806 l -0.06703,-0.179917 c -0.134055,0.144639 -0.321028,0.225778 -0.504472,0.225778 -0.264584,0 -0.416278,-0.155222 -0.416278,-0.430389 v -1.058334 h -0.282223 v 1.114779 c 0,0.377472 0.250473,0.620889 0.613834,0.620889 z m 0.599723,-0.03528 h 0.197555 v -1.70039 h -0.282222 v 1.502834 z m 1.943809,0 h 0.282223 v -1.114778 c 0,-0.377473 -0.250473,-0.62089 -0.631473,-0.62089 -0.246945,0 -0.490361,0.105834 -0.670278,0.292806 l 0.06703,0.179917 c 0.141111,-0.144639 0.328083,-0.225778 0.525639,-0.225778 0.275167,0 0.426861,0.155222 0.426861,0.430389 z m -1.160639,0 h 0.282222 V 87.44051 l -0.08467,-0.197556 h -0.197555 z m 2.582333,0.01764 c 0.116417,0 0.232834,-0.02822 0.313973,-0.0635 l -0.0635,-0.204611 c -0.05292,0.02469 -0.130527,0.03881 -0.1905,0.03881 -0.176389,0 -0.292805,-0.112889 -0.292805,-0.282222 v -1.703918 h -0.282223 v 1.742723 c 0,0.282223 0.204611,0.472723 0.515056,0.472723 z m -0.744361,-1.481668 h 0.977195 v -0.236361 h -0.977195 z"
       id="text1062-4-5-3-3-2"
       aria-label="Mod amount" />
    <path
       style="font-size:3.52778px;font-family:'Segoe UI';-inkscape-font-specification:'Segoe UI';stroke-width:0.264583"
       d="m 36.930082,59.264675 h 0.278694 v -2.039057 h -0.05997 l 0.853723,1.658057 h 0.229306 l 0.843139,-1.658057 h -0.04233 v 2.039057 h 0.278694 v -2.448279 h -0.289278 l -0.98425,1.926168 h 0.176389 l -0.984251,-1.926168 h -0.299861 z m 3.683,0.03528 c 0.500944,0 0.839611,-0.363361 0.839611,-0.90664 0,-0.525639 -0.313972,-0.864306 -0.797278,-0.864306 -0.500945,0 -0.836084,0.359834 -0.836084,0.903112 0,0.525639 0.310445,0.867834 0.793751,0.867834 z m 0.03881,-0.246945 c -0.328083,0 -0.550334,-0.264583 -0.550334,-0.656167 0,-0.377472 0.201084,-0.620889 0.515056,-0.620889 0.328084,0 0.553862,0.268111 0.553862,0.656167 0,0.373945 -0.204611,0.620889 -0.518584,0.620889 z m 1.926166,0.246945 c 0.285751,0 0.508001,-0.141111 0.638529,-0.373945 l -0.102306,-0.127 c -0.09525,0.15875 -0.254,0.254 -0.455084,0.254 -0.338667,0 -0.557389,-0.264583 -0.557389,-0.656167 0,-0.373944 0.197556,-0.620889 0.525639,-0.620889 0.215195,0 0.384528,0.09878 0.483306,0.268111 l 0.130528,-0.155222 c -0.123472,-0.229306 -0.342195,-0.359834 -0.624417,-0.359834 -0.479778,0 -0.797278,0.359834 -0.797278,0.899584 0,0.522112 0.303389,0.871362 0.758472,0.871362 z m 0.578556,-0.03528 h 0.197556 v -2.607029 h -0.282222 v 2.409473 z m 1.591025,0 H 45.04044 V 58.12873 h 1.125362 v -0.254 H 45.04044 v -0.804334 h 1.227668 v -0.254 h -1.520474 z m 1.98614,0 h 0.278694 v -2.039057 h -0.05997 l 0.853723,1.658057 h 0.229305 l 0.84314,-1.658057 h -0.04233 v 2.039057 h 0.278694 v -2.448279 h -0.289278 l -0.98425,1.926168 h 0.176389 l -0.984251,-1.926168 h -0.299861 z"
       id="text1062-7-7-6"
       aria-label="Mod FM" />
    <path
       style="font-size:3.52778px;font-family:'Segoe UI';-inkscape-font-specification:'Segoe UI';stroke-width:0.264583"
       d="m 9.332744,68.934731 h 0.2928058 v -1.135946 h 1.1253622 v -0.254 H 9.6255498 v -0.804334 h 1.2276672 v -0.254 H 9.332744 Z m 1.986139,0 h 0.278695 v -2.039057 h -0.05997 l 0.853722,1.658056 h 0.229306 l 0.843139,-1.658056 h -0.04233 v 2.039057 h 0.278695 v -2.44828 h -0.289278 l -0.984251,1.926168 h 0.176389 l -0.984251,-1.926168 h -0.299861 z"
       id="text1062-7-7"
       aria-label="FM" />
  </g>
  <metadata
     id="metadata13212">
    <rdf:RDF>
      <cc:Work
         rdf:about="">
        <dc:title>SVG Image created as ES_Daisy_Patch_SM_FB_Rev1-brd.svg date 2024/04/30 13:34:42 </dc:title>
      </cc:Work>
    </rdf:RDF>
  </metadata>
  <g
     inkscape:groupmode="layer"
     id="layer3"
     inkscape:label="components"
     style="display:none">
    <circle
       style="fill:#0000ff;stroke-width:0.264583"
       id="path13156-4-87"
       cx="59.939499"
       cy="115.96852"
       r="3.05"
       inkscape:label="out" />
    <circle
       style="display:inline;fill:#00ff00;stroke-width:0.264583"
       id="path13156-4-87-6-5-6-1"
       cx="42.894089"
       cy="96.632401"
       r="3.05"
       inkscape:label="falloff cv" />
    <circle
       style="display:inline;fill:#ff0000;stroke-width:0.264583"
       id="circle13473"
       cx="31.625521"
       cy="96.436798"
       r="4.5999999"
       inkscape:label="falloff" />
    <circle
       style="display:inline;fill:#00ff00;stroke-width:0.264583"
       id="path13156-4-87-6-5-3"
       cx="42.110264"
       cy="76.470634"
       r="3.05"
       inkscape:label="mod fm cv" />
    <circle
       style="display:inline;fill:#ff0000;stroke-width:0.264583"
       id="circle13475-1-9-6"
       cx="42.100491"
       cy="66.083473"
       r="4.5999999"
       inkscape:label="mod fm" />
    <circle
       style="display:inline;fill:#00ff00;stroke-width:0.264583"
       id="path13156-4-87-6-5-6"
       cx="41.072498"
       cy="50.368332"
       r="3.05"
       inkscape:label="mod cv" />
    <circle
       style="display:inline;fill:#ff0000;stroke-width:0.264583"
       id="path13156-4-8-0-1"
       cx="40.700554"
       cy="40.025314"
       r="4.5999999"
       inkscape:label="mod" />
    <ellipse
       style="display:inline;fill:#ff0000;stroke-width:0.264583"
       id="circle13475-0-6"
       cx="40.956333"
       cy="31.362246"
       inkscape:label="mod type"
       rx="2.8080599"
       ry="2.8139906" />
    <circle
       style="display:inline;fill:#00ff00;stroke-width:0.264583"
       id="path13156-4-87-6-5"
       cx="11.743927"
       cy="86.230011"
       r="3.05"
       inkscape:label="fm cv" />
    <circle
       style="display:inline;fill:#ff0000;stroke-width:0.264583"
       id="circle13475-1-9"
       cx="11.734154"
       cy="75.84285"
       r="4.5999999"
       inkscape:label="fm" />
    <circle
       style="display:inline;fill:#00ff00;stroke-width:0.264583"
       id="path13156-4-87-6"
       cx="12.180721"
       cy="59.950325"
       r="3.05"
       inkscape:label="freq cv" />
    <circle
       style="display:inline;fill:#ff0000;stroke-width:0.264583"
       id="circle13475-1"
       cx="11.878537"
       cy="44.866806"
       r="4.5999999"
       inkscape:label="freq" />
  </g>
</svg>
