<?xml version="1.0" encoding="UTF-8" standalone="no"?>
<svg
   version="1.1"
   width="71.120003mm"
   height="128.5mm"
   viewBox="0 0 71.120003 128.5"
   id="svg8664"
   sodipodi:docname="dsf.svg"
   inkscape:version="1.2.2 (732a01da63, 2022-12-09)"
   xmlns:inkscape="http://www.inkscape.org/namespaces/inkscape"
   xmlns:sodipodi="http://sodipodi.sourceforge.net/DTD/sodipodi-0.dtd"
   xmlns="http://www.w3.org/2000/svg"
   xmlns:svg="http://www.w3.org/2000/svg"
   xmlns:rdf="http://www.w3.org/1999/02/22-rdf-syntax-ns#"
   xmlns:cc="http://creativecommons.org/ns#"
   xmlns:dc="http://purl.org/dc/elements/1.1/">
  <defs
     id="defs8668">
    <inkscape:path-effect
       effect="powerclip"
       id="path-effect13771"
       is_visible="true"
       lpeversion="1"
       inverse="true"
       flatten="false"
       hide_clip="false"
       message="Use fill-rule evenodd on &lt;b&gt;fill and stroke&lt;/b&gt; dialog if no flatten result after convert clip to paths." />
    <inkscape:path-effect
       effect="powerclip"
       id="path-effect13767"
       is_visible="true"
       lpeversion="1"
       inverse="true"
       flatten="false"
       hide_clip="false"
       message="Use fill-rule evenodd on &lt;b&gt;fill and stroke&lt;/b&gt; dialog if no flatten result after convert clip to paths." />
    <inkscape:path-effect
       effect="powerclip"
       id="path-effect13763"
       is_visible="true"
       lpeversion="1"
       inverse="true"
       flatten="false"
       hide_clip="false"
       message="Use fill-rule evenodd on &lt;b&gt;fill and stroke&lt;/b&gt; dialog if no flatten result after convert clip to paths." />
  </defs>
  <sodipodi:namedview
     id="namedview8666"
     pagecolor="#ffffff"
     bordercolor="#000000"
     borderopacity="0.25"
     inkscape:showpageshadow="2"
     inkscape:pageopacity="0.0"
     inkscape:pagecheckerboard="true"
     inkscape:deskcolor="#d1d1d1"
     inkscape:document-units="mm"
     showgrid="false"
     showguides="true"
     inkscape:zoom="1.2684641"
     inkscape:cx="245.96676"
     inkscape:cy="309.82351"
     inkscape:window-width="1920"
     inkscape:window-height="1017"
     inkscape:window-x="1912"
     inkscape:window-y="-8"
     inkscape:window-maximized="1"
     inkscape:current-layer="layer6">
    <inkscape:grid
       type="xygrid"
       id="grid13701"
       originx="0"
       originy="0"
       spacingy="1"
       spacingx="1"
       units="mm" />
  </sodipodi:namedview>
  <title
     id="title2">SVG Image created as ES_Daisy_Patch_SM_FB_Rev1-brd.svg date 2024/04/30 13:34:42 </title>
  <desc
     id="desc4">Image generated by PCBNEW </desc>
  <g
     inkscape:groupmode="layer"
     id="layer2"
     inkscape:label="panel"
     style="display:inline;fill:#280b0b">
    <path
       id="rect711"
       clip-path="none"
       style="display:inline;fill:#e6e6e6;stroke:none;stroke-width:0mm"
       inkscape:label="panel"
       d="M 0 0 L 0 128.50017 L 70.760022 128.50017 L 70.760022 0 L 0 0 z M 6.35 1.3999146 L 8.650118 1.3999146 C 9.5365171 1.3999146 10.25002 2.1134178 10.25002 2.9998169 C 10.25002 3.886216 9.5365171 4.600236 8.650118 4.600236 L 6.35 4.600236 C 5.4636009 4.600236 4.7500977 3.886216 4.7500977 2.9998169 C 4.7500977 2.1134178 5.4636009 1.3999146 6.35 1.3999146 z M 62.229793 1.3999146 L 64.529911 1.3999146 C 65.41631 1.3999146 66.129814 2.1134178 66.129814 2.9998169 C 66.129814 3.886216 65.41631 4.600236 64.529911 4.600236 L 62.229793 4.600236 C 61.343394 4.600236 60.629891 3.886216 60.629891 2.9998169 C 60.629891 2.1134178 61.343394 1.3999146 62.229793 1.3999146 z M 6.35 123.89993 L 8.650118 123.89993 C 9.5365171 123.89993 10.25002 124.61343 10.25002 125.49983 C 10.25002 126.38623 9.5365171 127.10025 8.650118 127.10025 L 6.35 127.10025 C 5.4636009 127.10025 4.7500977 126.38623 4.7500977 125.49983 C 4.7500977 124.61343 5.4636009 123.89993 6.35 123.89993 z M 62.229793 123.89993 L 64.529911 123.89993 C 65.41631 123.89993 66.129814 124.61343 66.129814 125.49983 C 66.129814 126.38623 65.41631 127.10025 64.529911 127.10025 L 62.229793 127.10025 C 61.343394 127.10025 60.629891 126.38623 60.629891 125.49983 C 60.629891 124.61343 61.343394 123.89993 62.229793 123.89993 z " />
  </g>
  <g
     inkscape:groupmode="layer"
     id="layer1"
     inkscape:label="ref"
     style="display:none">
    <rect
       style="display:inline;fill:#28652c;fill-opacity:0.649681;stroke:none;stroke-width:0.48969"
       id="rect10531"
       width="66.60006"
       height="100"
       x="2.3675251"
       y="17.004139" />
  </g>
  <g
     inkscape:groupmode="layer"
     id="layer5"
     inkscape:label="bg"
     style="display:inline">
    <path
       style="fill:#000000;stroke:none;stroke-width:0.264583"
       id="path10471"
       d="m 12.208489,85.337147 c 0,-0.838957 0,-1.677916 0,-2.516873 0,-0.776428 0,-1.552853 0,-2.329278 0,-0.707107 -1,-0.707107 -1,0 v 0 c 0,0.776425 0,1.55285 0,2.329278 0,0.838957 0,1.677916 0,2.516873 0,0.707107 1,0.707107 1,0 z" />
    <path
       style="fill:#000000;stroke:none;stroke-width:0.264583"
       id="path10473"
       d="m 9.1158421,80.735614 c 0.4550436,-0.571936 1.0031369,-1.092578 1.6463619,-1.444667 0.08674,-0.01614 0.17199,-0.04797 0.260215,-0.0484 0.652607,-0.0032 1.458531,0.741804 1.901254,1.148622 0.122283,0.130559 0.244565,0.261118 0.366848,0.391676 0.484769,0.514782 1.212779,-0.170786 0.72801,-0.685567 v 0 c -0.140388,-0.148373 -0.280776,-0.296746 -0.421164,-0.445119 -0.765435,-0.693042 -1.702097,-1.511035 -2.82226,-1.378548 -0.174225,0.02061 -0.336913,0.098 -0.50537,0.147008 -0.131816,0.07633 -0.268865,0.144259 -0.3954494,0.228981 -0.6285447,0.420682 -1.1768455,0.987361 -1.6266884,1.589878 -0.3508233,0.613942 0.5174196,1.110081 0.8682429,0.496139 z" />
    <path
       style="fill:#000000;stroke:none;stroke-width:0.264583"
       id="path10475"
       d="m 36.264314,84.637258 c 0.107932,-0.971812 0.188413,-1.943481 0.205486,-2.921379 -0.0071,-0.215833 -0.01418,-0.431665 -0.02127,-0.647496 -0.02392,-0.706702 -1.023355,-0.672867 -0.999429,0.03383 v 0 c 0.007,0.198975 0.01389,0.397947 0.02085,0.596921 -0.01513,0.946621 -0.09581,1.886956 -0.199509,2.82769 -0.07809,0.702781 0.915797,0.813212 0.993883,0.110429 z" />
    <path
       style="fill:#000000;stroke:none;stroke-width:0.264583"
       id="path10477"
       d="m 33.754575,79.849948 c 0.410522,-0.591542 0.827585,-1.200854 1.383525,-1.665917 0.04654,-0.0062 0.09529,-0.03403 0.139636,-0.0186 0.04556,0.01585 0.06295,0.07433 0.101984,0.102656 0.09539,0.06922 0.202668,0.120785 0.299167,0.18845 0.421386,0.29546 0.797152,0.6355 1.167397,0.99102 0.09989,0.10377 0.199784,0.207539 0.299678,0.311306 0.490873,0.508964 1.210654,-0.185237 0.71978,-0.6942 v 0 c -0.109418,-0.113255 -0.218839,-0.226513 -0.328258,-0.339767 -0.648642,-0.618239 -1.630188,-1.615626 -2.606855,-1.497288 -0.160552,0.01945 -0.295539,0.13144 -0.443309,0.197159 -0.623234,0.543404 -1.123323,1.209083 -1.580745,1.895182 -0.374764,0.599628 0.473233,1.129625 0.848,0.529999 z" />
    <path
       style="fill:#000000;stroke:none;stroke-width:0.264583"
       id="path10485"
       d="m 17.87352,101.40817 c -0.629679,-0.61766 -1.341567,-1.14391 -2.017029,-1.70933 -0.524247,-0.45963 -1.125268,-0.83601 -1.571686,-1.37826 -0.09796,-0.1812 -0.231367,-0.33675 -0.359905,-0.49611 -0.444339,-0.55006 -1.222238,0.0783 -0.777899,0.62839 v 0 c 0.133124,0.16459 0.264457,0.32733 0.372328,0.51119 0.493908,0.57933 1.112094,1.01846 1.695549,1.50182 0.653146,0.54597 1.340787,1.05516 1.951536,1.64939 0.5,0.5 1.207106,-0.20711 0.707106,-0.70709 z" />
    <path
       style="fill:#000000;stroke:none;stroke-width:0.264583"
       id="path10487"
       d="m 11.926122,99.14228 c 0.146946,-0.66049 0.193245,-1.34707 0.454703,-1.97579 0.04116,-0.0401 0.07472,-0.0899 0.123482,-0.12028 0.289255,-0.18033 1.029022,-0.0447 1.343988,0.006 0.08609,0.0232 0.172182,0.0464 0.258273,0.0696 0.684432,0.17763 0.935645,-0.7903 0.251214,-0.967935 v 0 c -0.118258,-0.02986 -0.236515,-0.05971 -0.354773,-0.08957 -0.764871,-0.117522 -1.66368,-0.231698 -2.280687,0.358925 -0.1113,0.10654 -0.180601,0.24967 -0.270902,0.37451 -0.04897,0.12734 -0.106074,0.25185 -0.146914,0.38202 -0.185585,0.59155 -0.226802,1.21968 -0.368334,1.82141 -0.1,0.7 0.88995,0.84142 0.98995,0.14142 z" />
    <path
       style="fill:#000000;stroke:none;stroke-width:0.264583"
       id="path10489"
       d="m 29.764761,100.94206 c 0.374703,-0.6666 0.955718,-1.16023 1.521667,-1.65835 0.606732,-0.50565 1.230172,-0.99148 1.805215,-1.53363 0.190709,-0.19387 0.356105,-0.40958 0.536689,-0.61212 0.468087,-0.52999 -0.281435,-1.191969 -0.749525,-0.66197 v 0 c -0.159383,0.1817 -0.310211,0.3703 -0.474583,0.54783 -0.564029,0.53636 -1.184699,1.00743 -1.778691,1.50941 -0.648256,0.57118 -1.301991,1.14828 -1.729015,1.91269 -0.350822,0.61394 0.517422,1.11008 0.868243,0.49614 z" />
    <path
       style="fill:#000000;stroke:none;stroke-width:0.264583"
       id="path10491"
       d="m 31.936845,96.224161 c 0.860899,-0.173263 1.731674,-0.308171 2.601288,-0.432361 -0.422127,-0.137716 0.398328,-0.01752 0.316037,0.05035 -0.04819,0.03975 -0.140409,-0.04924 -0.175014,0.03915 -0.03163,0.08081 -0.03258,0.170614 -0.05463,0.254543 -0.02883,0.109667 -0.06527,0.217197 -0.09791,0.325797 -0.194871,0.67972 0.766405,0.95531 0.961276,0.27559 v 0 c 0.08289,-0.2995 0.204787,-0.649089 0.185095,-0.966845 -0.04946,-0.798042 -0.570178,-1.024806 -1.276686,-0.968484 -0.928318,0.133421 -1.86036,0.2701 -2.775686,0.47357 -0.670819,0.223607 -0.354592,1.172289 0.31623,0.948682 z" />
    <rect
       style="display:inline;fill:none;stroke:#000000;stroke-width:0.264583"
       id="rect196"
       width="41.516903"
       height="78.50956"
       x="24.669697"
       y="18.772701"
       rx="3"
       ry="3" />
    <path
       style="fill:#000000;fill-opacity:1;stroke-width:0.1;stroke-dasharray:1.2, 1.2"
       id="path18228"
       d="m 56.480177,86.024277 c -0.231251,-0.670118 -0.298473,-1.384924 -0.377735,-2.085438 -0.129921,-1.016503 -0.104116,-2.007558 0.0057,-3.022565 0.07355,-0.607849 0.190934,-1.208614 0.295434,-1.811478 0.03201,-0.203663 0.01783,-0.105685 0.04308,-0.293854 0.09332,-0.700924 -0.897935,-0.832895 -0.991253,-0.131972 v 0 c -0.02111,0.159965 -0.009,0.07489 -0.03715,0.255111 -0.108067,0.624055 -0.229378,1.245976 -0.30439,1.87533 -0.116501,1.091155 -0.143505,2.149576 -0.0051,3.242286 0.09081,0.796563 0.171283,1.60985 0.452199,2.3665 0.278543,0.649933 1.19769,0.256013 0.919147,-0.39392 z" />
    <path
       style="fill:#000000;fill-opacity:1;stroke-width:0.1;stroke-dasharray:1.2, 1.2"
       id="path18426"
       d="m 55.268132,77.637398 c -0.297646,0.166317 -0.590013,0.341876 -0.883703,0.515022 -0.609127,0.359114 -0.101262,1.22055 0.507865,0.861436 v 0 c 0.284112,-0.1675 0.566941,-0.337336 0.854689,-0.498562 0.620765,-0.338601 0.141914,-1.216496 -0.478851,-0.877896 z" />
    <path
       style="fill:#000000;fill-opacity:1;stroke-width:0.1;stroke-dasharray:1.2, 1.2"
       id="path18428"
       d="m 56.18822,78.479842 c 0.559726,0.438132 1.078707,0.927092 1.601888,1.407737 0.520737,0.478364 1.197248,-0.258069 0.676508,-0.736433 v 0 c -0.543348,-0.4991 -1.082879,-1.006004 -1.664456,-1.460654 -0.558155,-0.434123 -1.172097,0.35523 -0.61394,0.78935 z" />
    <path
       style="fill:#000000;fill-opacity:1;stroke-width:0.1;stroke-dasharray:1.2, 1.2"
       id="path18434"
       d="m 56.950435,67.804421 c 0.644858,-0.510553 1.261229,-1.054111 1.85801,-1.619761 0.465809,-0.489529 0.937048,-1.001077 1.267632,-1.596443 0.220138,-0.396462 0.243594,-0.526396 0.388956,-0.951783 0.25455,-0.868278 0.228385,-1.708872 -0.05621,-2.566281 -0.04628,-0.13943 -0.106775,-0.273732 -0.160165,-0.410599 -0.212961,-0.43135 -0.101021,-0.23028 -0.330978,-0.605877 -0.373309,-0.600533 -1.222592,-0.07259 -0.849281,0.527939 v 0 c 0.171093,0.269415 0.08572,0.121751 0.250526,0.446172 0.04308,0.106704 0.09133,0.211466 0.129244,0.320114 0.230039,0.659218 0.261707,1.298472 0.06853,1.971239 -0.09745,0.299444 -0.131765,0.452434 -0.282628,0.729596 -0.286964,0.527206 -0.705943,0.97708 -1.113808,1.41038 -0.584229,0.554553 -1.18926,1.085501 -1.820625,1.586047 -0.536876,0.46018 0.113917,1.219436 0.650791,0.759257 z" />
    <path
       style="fill:#000000;fill-opacity:1;stroke-width:0.1;stroke-dasharray:1.2, 1.2"
       id="path18436"
       d="m 60.180029,58.496914 c -0.57503,0.0065 -1.152028,-0.01836 -1.72592,0.03055 -0.126616,0.0108 -0.252357,0.03013 -0.378536,0.0452 -0.43343,0.08673 -0.942854,0.151026 -1.265288,0.491143 -0.06029,0.06359 -0.102277,0.142306 -0.153413,0.213458 -0.03093,0.08922 -0.07572,0.174773 -0.0928,0.267642 -0.117973,0.641874 0.378677,1.212236 0.731964,1.685824 0.288939,0.365623 0.145275,0.191545 0.429657,0.52333 0.46087,0.536284 1.219288,-0.115488 0.758415,-0.651769 v 0 c -0.252857,-0.293344 -0.123187,-0.137054 -0.387181,-0.470371 -0.114559,-0.152831 -0.285035,-0.374049 -0.391006,-0.537909 -0.39596,-0.612264 0.04579,0.04991 -0.153935,-0.274936 -0.01807,-0.02938 -0.01767,-0.02204 -0.04478,-0.01558 -0.06807,-0.02156 0.0213,-0.05397 0.05992,-0.07142 0.19913,-0.08996 0.416769,-0.128032 0.630018,-0.166827 0.658161,-0.08308 1.32053,-0.07131 1.98288,-0.06833 0.707104,0 0.707104,-1.000001 0,-1.000001 z" />
    <rect
       style="fill:#000000;fill-opacity:1;stroke-width:0.1;stroke-dasharray:1.2, 1.2"
       id="rect18470"
       width="24.535748"
       height="14.429713"
       x="39.037922"
       y="104.88799"
       rx="2"
       ry="2" />
  </g>
  <metadata
     id="metadata13212">
    <rdf:RDF>
      <cc:Work
         rdf:about="">
        <dc:title>SVG Image created as ES_Daisy_Patch_SM_FB_Rev1-brd.svg date 2024/04/30 13:34:42 </dc:title>
      </cc:Work>
    </rdf:RDF>
  </metadata>
  <g
     inkscape:groupmode="layer"
     id="layer3"
     inkscape:label="components"
     style="display:none">
    <circle
       style="display:inline;fill:#00ff00;stroke-width:0.264583"
       id="path13156-4-87-6-5-1-5-5"
       cx="55.919701"
       cy="90.192741"
       r="3.05"
       inkscape:label="level" />
    <circle
       style="display:inline;fill:#ff0000;stroke-width:0.172554"
       id="circle13475-1-9-0-7-0"
       cx="56.075356"
       cy="72.880699"
       inkscape:label="level cv"
       r="3" />
    <circle
       style="display:inline;fill:#ff0000;stroke-width:0.345108"
       id="circle13475-1-10-7"
       cx="55.873333"
       cy="51.718884"
       inkscape:label="level"
       r="6" />
    <circle
       style="display:inline;fill:#00ff00;stroke-width:0.264583"
       id="path13156-4-87-6-5-1-5-5-6"
       cx="30.258129"
       cy="112.10284"
       r="3.05"
       inkscape:label="mod pitch" />
    <circle
       style="display:inline;fill:#00ff00;stroke-width:0.264583"
       id="path13156-4-87-6-5-1-5"
       cx="35.662941"
       cy="90.192741"
       r="3.05"
       inkscape:label="mod fm" />
    <circle
       style="display:inline;fill:#ff0000;stroke-width:0.172554"
       id="circle13475-1-9-0-7"
       cx="35.666885"
       cy="72.880699"
       inkscape:label="mod fm"
       r="3" />
    <circle
       style="display:inline;fill:#ff0000;stroke-width:0.345108"
       id="circle13475-1-10"
       cx="35.613087"
       cy="51.718884"
       inkscape:label="mod fine"
       r="6" />
    <circle
       style="display:inline;fill:#ff0000;stroke-width:0.345108"
       id="circle13475-1-3"
       cx="35.413902"
       cy="31.586758"
       inkscape:label="mod coarse"
       r="6" />
    <ellipse
       style="display:inline;fill:#ff0000;stroke-width:0.264583"
       id="circle13475-0-6"
       cx="55.239315"
       cy="29.9053"
       inkscape:label="mod mode"
       rx="2.8080599"
       ry="2.8139906" />
    <circle
       style="display:inline;fill:#00ff00;stroke-width:0.264583"
       id="path13156-4-87-6-5-1-5-5-9"
       cx="18.013327"
       cy="112.10284"
       r="3.05"
       inkscape:label="pitch" />
    <circle
       style="display:inline;fill:#00ff00;stroke-width:0.264583"
       id="path13156-4-87-6-5-1"
       cx="11.7734"
       cy="90.192741"
       r="3.05"
       inkscape:label="fm" />
    <circle
       style="display:inline;fill:#ff0000;stroke-width:0.172554"
       id="circle13475-1-9-0"
       cx="11.777346"
       cy="72.880699"
       inkscape:label="fm"
       r="3" />
    <circle
       style="display:inline;fill:#ff0000;stroke-width:0.345108"
       id="circle13475-1-1"
       cx="11.774502"
       cy="52.419056"
       inkscape:label="fine"
       r="6" />
    <circle
       style="display:inline;fill:#ff0000;stroke-width:0.345108"
       id="circle13475-1"
       cx="13.026022"
       cy="31.956154"
       inkscape:label="coarse"
       r="6" />
    <circle
       style="display:inline;fill:#0000ff;stroke-width:0.264583"
       id="path13156-4-87-6-5-1-9-1"
       cx="57.366425"
       cy="112.10284"
       r="3.05"
       inkscape:label="out aux" />
    <circle
       style="display:inline;fill:#0000ff;stroke-width:0.264583"
       id="path13156-4-87-6-5-1-9"
       cx="45.423531"
       cy="112.10284"
       r="3.05"
       inkscape:label="out main" />
  </g>
  <g
     inkscape:groupmode="layer"
     id="layer6"
     inkscape:label="Text"
     style="display:inline">
    <g
       aria-label="DSF Oscillator"
       id="text386-47-0-1"
       style="font-size:5.64444px;font-family:'Segoe UI';-inkscape-font-specification:'Segoe UI';display:inline;stroke-width:0.264583">
      <path
         d="m 17.963437,6.72107 q 0.06209,0.00564 0.141111,0.011289 0.08467,0 0.197556,0 0.660399,0 0.976488,-0.333022 0.321733,-0.333022 0.321733,-0.9200437 0,-0.615244 -0.3048,-0.9313327 -0.304799,-0.3160886 -0.965199,-0.3160886 -0.09031,0 -0.186266,0.00564 -0.09596,0 -0.180623,0.011289 z M 20.50908,5.4792932 q 0,0.5079996 -0.158044,0.8861771 -0.158045,0.3781775 -0.451556,0.6265328 -0.287866,0.2483554 -0.705555,0.3725331 -0.417688,0.1241777 -0.936977,0.1241777 -0.237066,0 -0.553155,-0.022578 -0.316088,-0.016933 -0.620888,-0.079022 V 3.5771168 q 0.3048,-0.056444 0.632177,-0.073378 0.333022,-0.022578 0.570089,-0.022578 0.502355,0 0.908754,0.1128888 0.412045,0.1128888 0.705555,0.3555998 0.293511,0.2427109 0.451556,0.6208884 0.158044,0.3781775 0.158044,0.9087549 z"
         style="font-weight:bold;font-family:Ubuntu;-inkscape-font-specification:'Ubuntu Bold'"
         id="path18823" />
      <path
         d="m 22.309654,6.7662255 q 0.186266,0 0.3048,-0.028222 0.124177,-0.033867 0.197555,-0.084667 0.07338,-0.056444 0.1016,-0.1298221 0.02822,-0.073378 0.02822,-0.1636888 0,-0.1919109 -0.180622,-0.3160886 Q 22.580587,5.913915 22.140321,5.7671596 21.94841,5.6994263 21.756499,5.6147597 21.564588,5.5244487 21.412188,5.3946266 21.259788,5.25916 21.163832,5.0728935 q -0.09596,-0.191911 -0.09596,-0.4628441 0,-0.2709332 0.1016,-0.4854219 0.1016,-0.2201332 0.287866,-0.372533 0.186267,-0.1523999 0.451555,-0.2314221 0.265289,-0.084667 0.598311,-0.084667 0.395111,0 0.682977,0.084667 0.287867,0.084667 0.474133,0.1862665 L 23.41032,4.4012051 q -0.163689,-0.084667 -0.366889,-0.1467555 -0.197555,-0.067733 -0.479777,-0.067733 -0.316089,0 -0.4572,0.090311 -0.135467,0.084667 -0.135467,0.2652887 0,0.1072443 0.0508,0.1806221 0.0508,0.073378 0.141111,0.1354665 0.09596,0.056444 0.214489,0.1072444 0.124178,0.045155 0.270933,0.095955 0.3048,0.1128888 0.530578,0.2257776 0.225777,0.1072444 0.372533,0.2539998 0.152399,0.1467554 0.225777,0.3443108 0.07338,0.1975555 0.07338,0.4797775 0,0.5475107 -0.383822,0.8523104 -0.383822,0.2991554 -1.15711,0.2991554 -0.259644,0 -0.468489,-0.033867 -0.208844,-0.028222 -0.372533,-0.073378 -0.158044,-0.045155 -0.276577,-0.095955 -0.112889,-0.0508 -0.191911,-0.095956 l 0.248355,-0.6999106 q 0.174978,0.095956 0.428977,0.1749777 0.259645,0.073378 0.632178,0.073378 z"
         style="font-weight:bold;font-family:Ubuntu;-inkscape-font-specification:'Ubuntu Bold'"
         id="path18825" />
      <path
         d="m 24.527923,7.4379139 v -3.911597 h 2.61902 v 0.7394216 h -1.738488 v 0.8184438 h 1.546577 V 5.823604 h -1.546577 v 1.6143099 z"
         style="font-weight:bold;font-family:Ubuntu;-inkscape-font-specification:'Ubuntu Bold'"
         id="path18827" />
      <path
         d="m 29.861914,5.4792932 q 0,0.2878664 0.06773,0.5192885 0.07338,0.231422 0.2032,0.4007552 0.135466,0.1636888 0.327377,0.2539998 0.191911,0.090311 0.440266,0.090311 0.242711,0 0.434622,-0.090311 0.197556,-0.090311 0.327378,-0.2539998 0.135466,-0.1693332 0.2032,-0.4007552 0.07338,-0.2314221 0.07338,-0.5192885 0,-0.2878665 -0.07338,-0.5192885 -0.06773,-0.2370665 -0.2032,-0.4007553 -0.129822,-0.1693332 -0.327378,-0.2596442 -0.191911,-0.090311 -0.434622,-0.090311 -0.248355,0 -0.440266,0.095955 -0.191911,0.090311 -0.327377,0.2596442 -0.129823,0.1636888 -0.2032,0.4007553 -0.06773,0.231422 -0.06773,0.5136441 z m 2.985909,0 q 0,0.5023551 -0.1524,0.8861771 -0.146755,0.3781775 -0.406399,0.6378217 -0.259645,0.2539998 -0.620889,0.3838219 -0.355599,0.1298222 -0.767644,0.1298222 -0.400755,0 -0.756355,-0.1298222 Q 29.788537,7.2572918 29.523248,7.003292 29.257959,6.7436478 29.105559,6.3654703 28.95316,5.9816483 28.95316,5.4792932 q 0,-0.5023552 0.158044,-0.8805327 0.158044,-0.3838219 0.423333,-0.6434662 0.270933,-0.2596442 0.620888,-0.3894664 0.3556,-0.1298221 0.745066,-0.1298221 0.400756,0 0.756355,0.1298221 0.3556,0.1298222 0.620889,0.3894664 0.265288,0.2596443 0.417688,0.6434662 0.1524,0.3781775 0.1524,0.8805327 z"
         style="font-weight:bold;font-family:Ubuntu;-inkscape-font-specification:'Ubuntu Bold'"
         id="path18829" />
      <path
         d="m 34.377472,6.8339588 q 0.231422,0 0.327377,-0.045155 0.09596,-0.045155 0.09596,-0.1749777 0,-0.1015999 -0.124178,-0.1749776 Q 34.55245,6.3598258 34.29845,6.2638703 34.100894,6.1904926 33.937206,6.1114705 33.779161,6.0324483 33.666272,5.9252039 33.553384,5.8123151 33.491295,5.6599152 q -0.06209,-0.1523998 -0.06209,-0.3668886 0,-0.4176885 0.310444,-0.6603995 0.310444,-0.2427109 0.852311,-0.2427109 0.270933,0 0.519288,0.0508 0.248356,0.045155 0.395111,0.1015999 l -0.146755,0.654755 q -0.146756,-0.0508 -0.321734,-0.090311 -0.169333,-0.039511 -0.383821,-0.039511 -0.395111,0 -0.395111,0.2201332 0,0.0508 0.01693,0.090311 0.01693,0.039511 0.06773,0.079022 0.0508,0.033867 0.135467,0.079022 0.09031,0.039511 0.225777,0.090311 0.276578,0.1015999 0.4572,0.2031998 0.180622,0.095955 0.282222,0.2144888 0.107244,0.1128888 0.146756,0.2539998 0.04516,0.141111 0.04516,0.3273775 0,0.4402663 -0.333022,0.666044 -0.327377,0.2257776 -0.931333,0.2257776 -0.39511,0 -0.660399,-0.067733 -0.259644,-0.067733 -0.361244,-0.1128888 l 0.141111,-0.6829773 q 0.214489,0.084667 0.440266,0.1354666 0.225778,0.045155 0.445911,0.045155 z"
         style="font-weight:bold;font-family:Ubuntu;-inkscape-font-specification:'Ubuntu Bold'"
         id="path18831" />
      <path
         d="m 36.121607,5.9534261 q 0,-0.3217331 0.1016,-0.6039551 0.107244,-0.2878664 0.3048,-0.4967107 0.197555,-0.2144887 0.479777,-0.3386664 0.282222,-0.1241777 0.643466,-0.1241777 0.237067,0 0.434622,0.045155 0.197556,0.039511 0.383822,0.1185333 l -0.174978,0.6716883 q -0.118533,-0.045155 -0.259644,-0.079022 -0.141111,-0.033867 -0.316089,-0.033867 -0.372533,0 -0.558799,0.2314221 -0.180622,0.231422 -0.180622,0.6095995 0,0.4007553 0.169333,0.6208884 0.174978,0.2201332 0.603955,0.2201332 0.1524,0 0.327378,-0.028222 0.174977,-0.028222 0.321733,-0.090311 l 0.118533,0.6886217 q -0.146755,0.062089 -0.366889,0.1072443 -0.220133,0.045156 -0.485421,0.045156 -0.4064,0 -0.699911,-0.1185333 Q 36.674762,7.2742251 36.482851,7.0653808 36.296585,6.8565366 36.206274,6.5743145 36.121607,6.2864481 36.121607,5.9534261 Z"
         style="font-weight:bold;font-family:Ubuntu;-inkscape-font-specification:'Ubuntu Bold'"
         id="path18833" />
      <path
         d="M 39.925959,7.4379139 H 39.084938 V 4.4689384 h 0.841021 z m 0.07902,-3.8269304 q 0,0.231422 -0.1524,0.3668886 -0.146756,0.1298221 -0.349956,0.1298221 -0.203199,0 -0.355599,-0.1298221 -0.146756,-0.1354666 -0.146756,-0.3668886 0,-0.2314221 0.146756,-0.3612442 0.1524,-0.1354666 0.355599,-0.1354666 0.2032,0 0.349956,0.1354666 0.1524,0.1298221 0.1524,0.3612442 z"
         style="font-weight:bold;font-family:Ubuntu;-inkscape-font-specification:'Ubuntu Bold'"
         id="path18835" />
      <path
         d="M 41.901511,7.4943583 Q 41.534622,7.4887139 41.3032,7.4153361 41.077423,7.3419584 40.941956,7.2121363 40.812134,7.0766697 40.761334,6.8904032 40.716179,6.6984922 40.716179,6.4614257 V 3.1932949 L 41.5572,3.0578283 v 3.2342642 q 0,0.1128888 0.01693,0.2031999 0.01693,0.090311 0.06209,0.1523999 0.0508,0.062089 0.141111,0.1015999 0.09031,0.039511 0.242711,0.0508 z"
         style="font-weight:bold;font-family:Ubuntu;-inkscape-font-specification:'Ubuntu Bold'"
         id="path18837" />
      <path
         d="M 43.685155,7.4943583 Q 43.318266,7.4887139 43.086844,7.4153361 42.861067,7.3419584 42.7256,7.2121363 42.595778,7.0766697 42.544978,6.8904032 42.499822,6.6984922 42.499822,6.4614257 V 3.1932949 l 0.841022,-0.1354666 v 3.2342642 q 0,0.1128888 0.01693,0.2031999 0.01693,0.090311 0.06209,0.1523999 0.0508,0.062089 0.141111,0.1015999 0.09031,0.039511 0.242711,0.0508 z"
         style="font-weight:bold;font-family:Ubuntu;-inkscape-font-specification:'Ubuntu Bold'"
         id="path18839" />
      <path
         d="m 45.50266,6.8508921 q 0.124178,0 0.237067,-0.00564 0.112888,-0.00564 0.180622,-0.016933 V 6.1904926 q -0.0508,-0.011289 -0.1524,-0.022578 -0.1016,-0.011289 -0.186267,-0.011289 -0.118533,0 -0.225777,0.016933 -0.1016,0.011289 -0.180623,0.0508 -0.07902,0.039511 -0.124177,0.1072443 -0.04516,0.067733 -0.04516,0.1693332 0,0.1975554 0.129822,0.2765776 0.135467,0.073378 0.366889,0.073378 z m -0.06773,-2.4609759 q 0.372533,0 0.620888,0.084667 0.248356,0.084667 0.395111,0.2427109 0.1524,0.1580444 0.214489,0.383822 0.06209,0.2257776 0.06209,0.5023551 v 1.7497765 q -0.180623,0.039511 -0.502356,0.090311 -0.321733,0.056444 -0.778932,0.056444 -0.287867,0 -0.524933,-0.0508 -0.231422,-0.0508 -0.400756,-0.1636888 -0.169333,-0.1185332 -0.259644,-0.3047998 -0.09031,-0.1862665 -0.09031,-0.4571996 0,-0.2596443 0.1016,-0.4402663 0.107244,-0.1806221 0.282222,-0.2878665 0.174978,-0.1072444 0.400755,-0.1523999 0.225778,-0.0508 0.468489,-0.0508 0.163689,0 0.287866,0.016933 0.129822,0.011289 0.208845,0.033867 v -0.079022 q 0,-0.2144888 -0.129823,-0.3443109 -0.129822,-0.1298221 -0.451555,-0.1298221 -0.214488,0 -0.423333,0.033867 -0.208844,0.028222 -0.361244,0.084667 L 44.44715,4.5310272 q 0.07338,-0.022578 0.180622,-0.045155 0.112889,-0.028222 0.242711,-0.045155 0.129822,-0.022578 0.270933,-0.033867 0.146755,-0.016933 0.293511,-0.016933 z"
         style="font-weight:bold;font-family:Ubuntu;-inkscape-font-specification:'Ubuntu Bold'"
         id="path18841" />
      <path
         d="m 47.461278,3.7295167 0.841021,-0.1354666 v 0.8748883 h 1.010355 v 0.6999105 h -1.010355 v 1.0442215 q 0,0.2652887 0.09031,0.423333 0.09596,0.1580443 0.378178,0.1580443 0.135466,0 0.276577,-0.022578 0.146756,-0.028222 0.265289,-0.073378 l 0.118533,0.6547551 q -0.1524,0.062089 -0.338666,0.1072444 -0.186267,0.045155 -0.4572,0.045155 -0.344311,0 -0.570088,-0.090311 -0.225778,-0.095955 -0.361244,-0.2596442 -0.135467,-0.1693332 -0.191911,-0.4063997 -0.0508,-0.2370665 -0.0508,-0.5249329 z"
         style="font-weight:bold;font-family:Ubuntu;-inkscape-font-specification:'Ubuntu Bold'"
         id="path18843" />
      <path
         d="m 52.659806,5.9477817 q 0,0.3499553 -0.1016,0.6434662 -0.1016,0.2878664 -0.293511,0.4967107 -0.191911,0.2031999 -0.462844,0.3160887 -0.265288,0.1128888 -0.59831,0.1128888 -0.327378,0 -0.598311,-0.1128888 Q 50.339941,7.2911585 50.14803,7.0879586 49.956119,6.8791143 49.848875,6.5912479 49.741631,6.297737 49.741631,5.9477817 q 0,-0.3499553 0.107244,-0.6378218 0.112889,-0.2878664 0.3048,-0.4910662 0.197555,-0.2031999 0.462844,-0.3160887 0.270933,-0.1128888 0.587022,-0.1128888 0.321733,0 0.587021,0.1128888 0.270934,0.1128888 0.462845,0.3160887 0.19191,0.2031998 0.299155,0.4910662 0.107244,0.2878665 0.107244,0.6378218 z m -0.857955,0 q 0,-0.3894664 -0.158044,-0.6095996 -0.1524,-0.2257776 -0.440266,-0.2257776 -0.287867,0 -0.445911,0.2257776 -0.158044,0.2201332 -0.158044,0.6095996 0,0.3894664 0.158044,0.6208884 0.158044,0.2257776 0.445911,0.2257776 0.287866,0 0.440266,-0.2257776 0.158044,-0.231422 0.158044,-0.6208884 z"
         style="font-weight:bold;font-family:Ubuntu;-inkscape-font-specification:'Ubuntu Bold'"
         id="path18845" />
      <path
         d="m 55.098207,5.2140045 q -0.112889,-0.028222 -0.265289,-0.056444 -0.152399,-0.033867 -0.327377,-0.033867 -0.07902,0 -0.191911,0.016933 -0.107244,0.011289 -0.163689,0.028222 v 2.269065 H 53.30892 V 4.6269827 q 0.225777,-0.079022 0.530577,-0.1467555 0.310444,-0.073378 0.688622,-0.073378 0.06773,0 0.163688,0.011289 0.09596,0.00564 0.191911,0.022578 0.09596,0.011289 0.191911,0.033867 0.09596,0.016933 0.163689,0.045155 z"
         style="font-weight:bold;font-family:Ubuntu;-inkscape-font-specification:'Ubuntu Bold'"
         id="path18847" />
    </g>
    <g
       aria-label="cool logo hehe"
       id="text386-47-0-1-2"
       style="font-size:5.64444px;font-family:'Segoe UI';-inkscape-font-specification:'Segoe UI';display:inline;stroke-width:0.264583">
      <path
         d="m 16.765846,124.07498 q 0,-0.32174 0.1016,-0.60396 0.107245,-0.28787 0.3048,-0.49671 0.197555,-0.21449 0.479777,-0.33867 0.282222,-0.12417 0.643467,-0.12417 0.237066,0 0.434622,0.0451 0.197555,0.0395 0.383821,0.11853 l -0.174977,0.67169 q -0.118533,-0.0452 -0.259644,-0.079 -0.141111,-0.0339 -0.316089,-0.0339 -0.372533,0 -0.5588,0.23143 -0.180622,0.23142 -0.180622,0.6096 0,0.40075 0.169333,0.62088 0.174978,0.22014 0.603956,0.22014 0.152399,0 0.327377,-0.0282 0.174978,-0.0282 0.321733,-0.0903 l 0.118533,0.68863 q -0.146755,0.0621 -0.366888,0.10724 -0.220133,0.0452 -0.485422,0.0452 -0.4064,0 -0.699911,-0.11854 -0.293511,-0.12418 -0.485421,-0.33302 -0.186267,-0.20884 -0.276578,-0.49107 -0.08467,-0.28786 -0.08467,-0.62088 z"
         style="font-weight:bold;font-family:Ubuntu;-inkscape-font-specification:'Ubuntu Bold'"
         id="path18850" />
      <path
         d="m 22.365133,124.06933 q 0,0.34996 -0.1016,0.64347 -0.1016,0.28786 -0.293511,0.49671 -0.191911,0.2032 -0.462844,0.31609 -0.265288,0.11289 -0.59831,0.11289 -0.327378,0 -0.598311,-0.11289 -0.265289,-0.11289 -0.4572,-0.31609 -0.191911,-0.20885 -0.299155,-0.49671 -0.107244,-0.29351 -0.107244,-0.64347 0,-0.34995 0.107244,-0.63782 0.112889,-0.28787 0.3048,-0.49107 0.197555,-0.2032 0.462844,-0.31609 0.270933,-0.11288 0.587022,-0.11288 0.321733,0 0.587021,0.11288 0.270934,0.11289 0.462845,0.31609 0.191911,0.2032 0.299155,0.49107 0.107244,0.28787 0.107244,0.63782 z m -0.857955,0 q 0,-0.38947 -0.158044,-0.6096 -0.1524,-0.22578 -0.440266,-0.22578 -0.287867,0 -0.445911,0.22578 -0.158044,0.22013 -0.158044,0.6096 0,0.38947 0.158044,0.62089 0.158044,0.22578 0.445911,0.22578 0.287866,0 0.440266,-0.22578 0.158044,-0.23142 0.158044,-0.62089 z"
         style="font-weight:bold;font-family:Ubuntu;-inkscape-font-specification:'Ubuntu Bold'"
         id="path18852" />
      <path
         d="m 25.79131,124.06933 q 0,0.34996 -0.1016,0.64347 -0.1016,0.28786 -0.293511,0.49671 -0.19191,0.2032 -0.462844,0.31609 -0.265288,0.11289 -0.59831,0.11289 -0.327378,0 -0.598311,-0.11289 -0.265289,-0.11289 -0.4572,-0.31609 -0.191911,-0.20885 -0.299155,-0.49671 -0.107244,-0.29351 -0.107244,-0.64347 0,-0.34995 0.107244,-0.63782 0.112889,-0.28787 0.3048,-0.49107 0.197555,-0.2032 0.462844,-0.31609 0.270933,-0.11288 0.587022,-0.11288 0.321733,0 0.587021,0.11288 0.270934,0.11289 0.462845,0.31609 0.191911,0.2032 0.299155,0.49107 0.107244,0.28787 0.107244,0.63782 z m -0.857955,0 q 0,-0.38947 -0.158044,-0.6096 -0.1524,-0.22578 -0.440266,-0.22578 -0.287867,0 -0.445911,0.22578 -0.158044,0.22013 -0.158044,0.6096 0,0.38947 0.158044,0.62089 0.158044,0.22578 0.445911,0.22578 0.287866,0 0.440266,-0.22578 0.158044,-0.23142 0.158044,-0.62089 z"
         style="font-weight:bold;font-family:Ubuntu;-inkscape-font-specification:'Ubuntu Bold'"
         id="path18854" />
      <path
         d="m 27.625756,125.61591 q -0.366888,-0.006 -0.598311,-0.079 -0.225777,-0.0734 -0.361244,-0.2032 -0.129822,-0.13547 -0.180622,-0.32174 -0.04516,-0.19191 -0.04516,-0.42897 v -3.26814 l 0.841021,-0.13546 v 3.23426 q 0,0.11289 0.01693,0.2032 0.01693,0.0903 0.06209,0.1524 0.0508,0.0621 0.141111,0.1016 0.09031,0.0395 0.242711,0.0508 z"
         style="font-weight:bold;font-family:Ubuntu;-inkscape-font-specification:'Ubuntu Bold'"
         id="path18856" />
      <path
         d="m 30.764063,125.61591 q -0.366889,-0.006 -0.598311,-0.079 -0.225778,-0.0734 -0.361244,-0.2032 -0.129822,-0.13547 -0.180622,-0.32174 -0.04516,-0.19191 -0.04516,-0.42897 v -3.26814 l 0.841022,-0.13546 v 3.23426 q 0,0.11289 0.01693,0.2032 0.01693,0.0903 0.06209,0.1524 0.0508,0.0621 0.141111,0.1016 0.09031,0.0395 0.242711,0.0508 z"
         style="font-weight:bold;font-family:Ubuntu;-inkscape-font-specification:'Ubuntu Bold'"
         id="path18858" />
      <path
         d="m 34.139438,124.06933 q 0,0.34996 -0.1016,0.64347 -0.1016,0.28786 -0.293511,0.49671 -0.191911,0.2032 -0.462844,0.31609 -0.265289,0.11289 -0.598311,0.11289 -0.327377,0 -0.598311,-0.11289 -0.265288,-0.11289 -0.457199,-0.31609 -0.191911,-0.20885 -0.299156,-0.49671 -0.107244,-0.29351 -0.107244,-0.64347 0,-0.34995 0.107244,-0.63782 0.112889,-0.28787 0.3048,-0.49107 0.197556,-0.2032 0.462844,-0.31609 0.270933,-0.11288 0.587022,-0.11288 0.321733,0 0.587022,0.11288 0.270933,0.11289 0.462844,0.31609 0.191911,0.2032 0.299155,0.49107 0.107245,0.28787 0.107245,0.63782 z m -0.857955,0 q 0,-0.38947 -0.158045,-0.6096 -0.152399,-0.22578 -0.440266,-0.22578 -0.287866,0 -0.445911,0.22578 -0.158044,0.22013 -0.158044,0.6096 0,0.38947 0.158044,0.62089 0.158045,0.22578 0.445911,0.22578 0.287867,0 0.440266,-0.22578 0.158045,-0.23142 0.158045,-0.62089 z"
         style="font-weight:bold;font-family:Ubuntu;-inkscape-font-specification:'Ubuntu Bold'"
         id="path18860" />
      <path
         d="m 35.505395,123.97902 q 0,0.70556 0.570088,0.70556 0.129823,0 0.242711,-0.0339 0.112889,-0.0339 0.191911,-0.079 v -1.34338 q -0.06209,-0.0113 -0.146755,-0.0169 -0.08467,-0.0113 -0.197556,-0.0113 -0.333022,0 -0.49671,0.22013 -0.163689,0.22013 -0.163689,0.5588 z m 1.845732,1.20791 q 0,0.72813 -0.372533,1.07809 -0.366889,0.3556 -1.140177,0.3556 -0.270933,0 -0.541866,-0.0508 -0.270933,-0.0452 -0.502356,-0.12418 l 0.146756,-0.70555 q 0.197555,0.079 0.412044,0.12417 0.220133,0.0452 0.496711,0.0452 0.361244,0 0.507999,-0.15805 0.1524,-0.15804 0.1524,-0.4064 v -0.10724 q -0.135466,0.0621 -0.282222,0.096 -0.141111,0.0282 -0.310444,0.0282 -0.615244,0 -0.942621,-0.36125 -0.327378,-0.36688 -0.327378,-1.02164 0,-0.32738 0.1016,-0.59267 0.1016,-0.27093 0.293511,-0.46284 0.197555,-0.19191 0.479777,-0.29351 0.282222,-0.10725 0.637822,-0.10725 0.1524,0 0.310444,0.0169 0.163689,0.0113 0.321733,0.0339 0.158045,0.0226 0.299156,0.0564 0.146755,0.0282 0.259644,0.0621 z"
         style="font-weight:bold;font-family:Ubuntu;-inkscape-font-specification:'Ubuntu Bold'"
         id="path18862" />
      <path
         d="m 40.918412,124.06933 q 0,0.34996 -0.1016,0.64347 -0.1016,0.28786 -0.293511,0.49671 -0.191911,0.2032 -0.462844,0.31609 -0.265288,0.11289 -0.59831,0.11289 -0.327378,0 -0.598311,-0.11289 -0.265289,-0.11289 -0.4572,-0.31609 -0.191911,-0.20885 -0.299155,-0.49671 -0.107244,-0.29351 -0.107244,-0.64347 0,-0.34995 0.107244,-0.63782 0.112889,-0.28787 0.3048,-0.49107 0.197555,-0.2032 0.462844,-0.31609 0.270933,-0.11288 0.587022,-0.11288 0.321733,0 0.587021,0.11288 0.270934,0.11289 0.462844,0.31609 0.191911,0.2032 0.299156,0.49107 0.107244,0.28787 0.107244,0.63782 z m -0.857955,0 q 0,-0.38947 -0.158044,-0.6096 -0.1524,-0.22578 -0.440266,-0.22578 -0.287867,0 -0.445911,0.22578 -0.158044,0.22013 -0.158044,0.6096 0,0.38947 0.158044,0.62089 0.158044,0.22578 0.445911,0.22578 0.287866,0 0.440266,-0.22578 0.158044,-0.23142 0.158044,-0.62089 z"
         style="font-weight:bold;font-family:Ubuntu;-inkscape-font-specification:'Ubuntu Bold'"
         id="path18864" />
      <path
         d="m 42.922189,125.55946 v -4.24462 l 0.841022,-0.13546 v 1.4224 q 0.08467,-0.0282 0.214489,-0.0508 0.135466,-0.0282 0.259644,-0.0282 0.361244,0 0.598311,0.1016 0.242711,0.096 0.383822,0.27658 0.146755,0.18062 0.203199,0.42898 0.06209,0.24835 0.06209,0.55315 v 1.6764 h -0.841021 v -1.5748 q 0,-0.4064 -0.107245,-0.57573 -0.1016,-0.16933 -0.383822,-0.16933 -0.112888,0 -0.214488,0.0226 -0.09596,0.0169 -0.174978,0.0395 v 2.25777 z"
         style="font-weight:bold;font-family:Ubuntu;-inkscape-font-specification:'Ubuntu Bold'"
         id="path18866" />
      <path
         d="m 46.105658,124.09755 q 0,-0.39511 0.118533,-0.68862 0.124178,-0.29915 0.321733,-0.49671 0.197555,-0.19755 0.451555,-0.29915 0.259644,-0.1016 0.530578,-0.1016 0.632177,0 0.999066,0.38946 0.366888,0.38382 0.366888,1.13453 0,0.0734 -0.0056,0.16369 -0.0056,0.0847 -0.01129,0.1524 h -1.907821 q 0.02822,0.25965 0.242711,0.41205 0.214489,0.1524 0.575733,0.1524 0.231422,0 0.451555,-0.0395 0.225778,-0.0452 0.366889,-0.10725 l 0.112888,0.68298 q -0.06773,0.0339 -0.180622,0.0677 -0.112888,0.0339 -0.253999,0.0565 -0.135467,0.0282 -0.293511,0.0451 -0.158045,0.0169 -0.316089,0.0169 -0.400755,0 -0.699911,-0.11854 -0.29351,-0.11853 -0.491066,-0.32173 -0.191911,-0.20884 -0.287866,-0.49107 -0.09031,-0.28222 -0.09031,-0.6096 z m 1.975554,-0.32173 q -0.0056,-0.10724 -0.03951,-0.20884 -0.02822,-0.1016 -0.09596,-0.18063 -0.06209,-0.079 -0.163689,-0.12982 -0.09595,-0.0508 -0.242711,-0.0508 -0.141111,0 -0.24271,0.0508 -0.1016,0.0452 -0.169334,0.12418 -0.06773,0.079 -0.107244,0.18627 -0.03387,0.1016 -0.0508,0.20884 z"
         style="font-weight:bold;font-family:Ubuntu;-inkscape-font-specification:'Ubuntu Bold'"
         id="path18868" />
      <path
         d="m 49.543119,125.55946 v -4.24462 l 0.841022,-0.13546 v 1.4224 q 0.08467,-0.0282 0.214488,-0.0508 0.135467,-0.0282 0.259645,-0.0282 0.361244,0 0.59831,0.1016 0.242711,0.096 0.383822,0.27658 0.146756,0.18062 0.2032,0.42898 0.06209,0.24835 0.06209,0.55315 v 1.6764 h -0.841022 v -1.5748 q 0,-0.4064 -0.107244,-0.57573 -0.1016,-0.16933 -0.383822,-0.16933 -0.112889,0 -0.214489,0.0226 -0.09595,0.0169 -0.174977,0.0395 v 2.25777 z"
         style="font-weight:bold;font-family:Ubuntu;-inkscape-font-specification:'Ubuntu Bold'"
         id="path18870" />
      <path
         d="m 52.726589,124.09755 q 0,-0.39511 0.118534,-0.68862 0.124177,-0.29915 0.321733,-0.49671 0.197555,-0.19755 0.451555,-0.29915 0.259644,-0.1016 0.530577,-0.1016 0.632178,0 0.999066,0.38946 0.366889,0.38382 0.366889,1.13453 0,0.0734 -0.0056,0.16369 -0.0056,0.0847 -0.01129,0.1524 h -1.90782 q 0.02822,0.25965 0.242711,0.41205 0.214488,0.1524 0.575732,0.1524 0.231423,0 0.451556,-0.0395 0.225777,-0.0452 0.366888,-0.10725 l 0.112889,0.68298 q -0.06773,0.0339 -0.180622,0.0677 -0.112889,0.0339 -0.254,0.0565 -0.135466,0.0282 -0.293511,0.0451 -0.158044,0.0169 -0.316088,0.0169 -0.400756,0 -0.699911,-0.11854 -0.293511,-0.11853 -0.491066,-0.32173 -0.191911,-0.20884 -0.287867,-0.49107 -0.09031,-0.28222 -0.09031,-0.6096 z m 1.975554,-0.32173 q -0.0056,-0.10724 -0.03951,-0.20884 -0.02822,-0.1016 -0.09596,-0.18063 -0.06209,-0.079 -0.163689,-0.12982 -0.09596,-0.0508 -0.242711,-0.0508 -0.141111,0 -0.242711,0.0508 -0.1016,0.0452 -0.169333,0.12418 -0.06773,0.079 -0.107244,0.18627 -0.03387,0.1016 -0.0508,0.20884 z"
         style="font-weight:bold;font-family:Ubuntu;-inkscape-font-specification:'Ubuntu Bold'"
         id="path18872" />
    </g>
    <g
       aria-label="Coarse"
       id="text386"
       style="font-weight:300;font-size:4.23333px;font-family:Ubuntu;-inkscape-font-specification:'Ubuntu Light';stroke-width:0.264583">
      <path
         d="m 8.0348558,22.903618 q -0.2836331,0 -0.5291663,-0.1016 -0.2412998,-0.101599 -0.4233329,-0.296333 -0.1777999,-0.194733 -0.2836331,-0.478366 -0.1016,-0.287866 -0.1016,-0.656166 0,-0.3683 0.1100666,-0.651933 0.1142999,-0.287866 0.3005664,-0.482599 0.1862665,-0.194734 0.4317997,-0.2921 0.2455331,-0.1016 0.5122329,-0.1016 0.1650998,0 0.3005664,0.02117 0.1354665,0.02117 0.2370665,0.05503 0.1015999,0.02963 0.1735665,0.0635 0.071967,0.02963 0.1100665,0.05503 l -0.093133,0.249767 q -0.1058333,-0.0635 -0.2709331,-0.122767 -0.1608665,-0.0635 -0.4021663,-0.0635 -0.2751665,0 -0.4825996,0.09313 -0.2031999,0.09313 -0.3428997,0.262467 -0.1396999,0.169333 -0.2116665,0.402166 -0.067733,0.232833 -0.067733,0.516466 0,0.2921 0.067733,0.529167 0.071967,0.232833 0.2074331,0.397933 0.1354666,0.165099 0.3301997,0.253999 0.1989665,0.0889 0.4529663,0.0889 0.2793998,0 0.4656663,-0.0508 0.1904998,-0.05503 0.2878664,-0.110066 l 0.080433,0.245533 q -0.029633,0.02117 -0.1015999,0.0508 -0.071967,0.0254 -0.1820332,0.05503 -0.1100666,0.02963 -0.2539998,0.04657 -0.1439332,0.02117 -0.321733,0.02117 z"
         id="path18875" />
      <path
         d="m 11.243717,21.747919 q 0,0.258233 -0.0762,0.4699 -0.07197,0.211666 -0.207433,0.359833 -0.131234,0.148167 -0.313267,0.232833 -0.182033,0.08043 -0.402166,0.08043 -0.220133,0 -0.4021665,-0.08043 -0.1820332,-0.08467 -0.3174998,-0.232833 -0.1312332,-0.148167 -0.2074331,-0.359833 -0.071967,-0.211667 -0.071967,-0.4699 0,-0.258233 0.071967,-0.469899 0.0762,-0.211667 0.2074331,-0.359833 0.1354666,-0.1524 0.3174998,-0.232833 0.1820335,-0.08467 0.4021665,-0.08467 0.220133,0 0.402166,0.08467 0.182033,0.08043 0.313267,0.232833 0.135466,0.148166 0.207433,0.359833 0.0762,0.211666 0.0762,0.469899 z m -0.2921,0 q 0,-0.410633 -0.1905,-0.651932 -0.1905,-0.245534 -0.516466,-0.245534 -0.3259666,0 -0.5164665,0.245534 -0.1904998,0.241299 -0.1904998,0.651932 0,0.410633 0.1904998,0.651933 0.1904999,0.2413 0.5164665,0.2413 0.325966,0 0.516466,-0.2413 0.1905,-0.2413 0.1905,-0.651933 z"
         id="path18877" />
      <path
         d="m 12.530652,22.641152 q 0.160867,0 0.2794,-0.0085 0.122766,-0.0127 0.207433,-0.02963 v -0.770466 q -0.04657,-0.02117 -0.148167,-0.04233 -0.101599,-0.0254 -0.279399,-0.0254 -0.1016,0 -0.211667,0.01693 -0.110066,0.0127 -0.2032,0.0635 -0.09313,0.04657 -0.152399,0.131233 -0.05927,0.08467 -0.05927,0.224367 0,0.122766 0.0381,0.207433 0.04233,0.08467 0.1143,0.135466 0.0762,0.0508 0.1778,0.0762 0.105833,0.02117 0.237066,0.02117 z m -0.0254,-2.040465 q 0.2159,0 0.364066,0.0635 0.1524,0.05927 0.245534,0.169333 0.09313,0.105833 0.135466,0.254 0.04233,0.148166 0.04233,0.321733 v 1.380065 q -0.04233,0.0127 -0.122766,0.02963 -0.08043,0.0127 -0.186267,0.02963 -0.105833,0.01693 -0.237066,0.0254 -0.127,0.0127 -0.262467,0.0127 -0.173566,0 -0.321733,-0.0381 -0.143933,-0.0381 -0.253999,-0.118533 -0.105834,-0.08467 -0.169334,-0.211667 -0.05927,-0.131233 -0.05927,-0.317499 0,-0.1778 0.06773,-0.3048 0.06773,-0.127 0.1905,-0.207433 0.122766,-0.08467 0.2921,-0.122767 0.169333,-0.0381 0.368299,-0.0381 0.05927,0 0.122767,0.0085 0.06773,0.0042 0.127,0.01693 0.0635,0.0085 0.105833,0.02117 0.04657,0.0085 0.0635,0.01693 V 21.45582 q 0,-0.1143 -0.01693,-0.220134 -0.01693,-0.110066 -0.0762,-0.194733 -0.05503,-0.0889 -0.160867,-0.1397 -0.1016,-0.05503 -0.270933,-0.05503 -0.2413,0 -0.359833,0.03387 -0.118533,0.03387 -0.173566,0.05503 l -0.0381,-0.2413 q 0.07197,-0.03387 0.220133,-0.0635 0.1524,-0.02963 0.364066,-0.02963 z"
         id="path18879" />
      <path
         d="m 14.740453,20.609154 q 0.135467,0 0.254,0.02117 0.122767,0.02117 0.169333,0.04233 l -0.05503,0.237066 q -0.03387,-0.01693 -0.1397,-0.03387 -0.1016,-0.02117 -0.270933,-0.02117 -0.1778,0 -0.287866,0.0254 -0.105834,0.0254 -0.1397,0.04233 v 1.917698 h -0.275167 v -2.087031 q 0.105834,-0.04657 0.2921,-0.09313 0.186267,-0.0508 0.452966,-0.0508 z"
         id="path18881" />
      <path
         d="m 16.027388,22.645385 q 0.237067,0 0.389467,-0.0762 0.156633,-0.08043 0.156633,-0.266699 0,-0.0889 -0.02963,-0.1524 -0.0254,-0.0635 -0.0889,-0.1143 -0.0635,-0.0508 -0.169333,-0.09737 -0.1016,-0.04657 -0.254,-0.110066 -0.122767,-0.0508 -0.232833,-0.1016 -0.110067,-0.05503 -0.194734,-0.122767 -0.08467,-0.07197 -0.135466,-0.169333 -0.0508,-0.09737 -0.0508,-0.237067 0,-0.266699 0.198966,-0.431799 0.2032,-0.1651 0.554567,-0.1651 0.224366,0 0.368299,0.0381 0.148167,0.0381 0.207433,0.06773 l -0.0635,0.245533 q -0.0508,-0.0254 -0.173567,-0.06773 -0.118533,-0.04233 -0.351366,-0.04233 -0.09313,0 -0.1778,0.02117 -0.08043,0.01693 -0.143933,0.05927 -0.0635,0.0381 -0.1016,0.1016 -0.0381,0.05927 -0.0381,0.148166 0,0.0889 0.03387,0.1524 0.03387,0.0635 0.09737,0.1143 0.06773,0.04657 0.160866,0.0889 0.09737,0.04233 0.220134,0.09313 0.127,0.0508 0.241299,0.105834 0.118534,0.0508 0.207434,0.127 0.0889,0.07197 0.143933,0.177799 0.05503,0.1016 0.05503,0.258234 0,0.296333 -0.224366,0.448732 -0.220134,0.1524 -0.605367,0.1524 -0.287866,0 -0.440266,-0.0508 -0.1524,-0.04657 -0.2032,-0.07197 l 0.07197,-0.249767 q 0.0127,0.0085 0.05503,0.02963 0.04233,0.01693 0.1143,0.04233 0.07197,0.02117 0.169333,0.0381 0.1016,0.01693 0.232833,0.01693 z"
         id="path18883" />
      <path
         d="m 17.259285,21.743686 q 0,-0.287866 0.08043,-0.499533 0.08467,-0.2159 0.2159,-0.359833 0.135467,-0.143933 0.3048,-0.211666 0.173567,-0.07197 0.3556,-0.07197 0.402166,0 0.639233,0.262466 0.241299,0.262467 0.241299,0.808566 0,0.03387 -0.0042,0.06773 0,0.03387 -0.0042,0.0635 h -1.536699 q 0.0127,0.402166 0.198966,0.618066 0.186267,0.2159 0.592667,0.2159 0.224366,0 0.355599,-0.04233 0.131234,-0.04233 0.1905,-0.07197 l 0.0508,0.237066 q -0.05927,0.03387 -0.224366,0.08043 -0.160867,0.04657 -0.381,0.04657 -0.287866,0 -0.491066,-0.08467 -0.2032,-0.08467 -0.334433,-0.237066 -0.131234,-0.1524 -0.1905,-0.359833 -0.05927,-0.211667 -0.05927,-0.461433 z m 1.553632,-0.173567 q -0.0085,-0.342899 -0.160866,-0.533399 -0.1524,-0.1905 -0.4318,-0.1905 -0.148166,0 -0.2667,0.05927 -0.1143,0.05927 -0.2032,0.160866 -0.08467,0.09737 -0.135466,0.2286 -0.04657,0.131233 -0.05503,0.275166 z"
         id="path18885" />
    </g>
    <g
       aria-label="Fine"
       id="text386-5"
       style="font-weight:300;font-size:4.23333px;font-family:Ubuntu;-inkscape-font-specification:'Ubuntu Light';stroke-width:0.264583">
      <path
         d="m 8.647297,44.235374 v -2.933697 h 1.672165 v 0.249766 H 8.9351634 v 1.032933 h 1.2276656 v 0.249766 H 8.9351634 v 1.401232 z"
         id="path18888" />
      <path
         d="m 11.106864,44.235374 h -0.275167 v -2.188631 h 0.275167 z m 0.0635,-2.84903 q 0,0.09737 -0.05927,0.156633 -0.05927,0.05503 -0.143933,0.05503 -0.08467,0 -0.143933,-0.05503 -0.05927,-0.05927 -0.05927,-0.156633 0,-0.09737 0.05927,-0.1524 0.05927,-0.05927 0.143933,-0.05927 0.08467,0 0.143933,0.05927 0.05927,0.05503 0.05927,0.1524 z"
         id="path18890" />
      <path
         d="m 11.834994,42.122943 q 0.122767,-0.03387 0.3302,-0.0762 0.207433,-0.04233 0.508,-0.04233 0.249766,0 0.414866,0.07197 0.169333,0.07197 0.2667,0.207433 0.1016,0.131234 0.143933,0.3175 0.04233,0.186267 0.04233,0.410633 v 1.223432 H 13.26586 v -1.134532 q 0,-0.232833 -0.03387,-0.3937 -0.02963,-0.160866 -0.105833,-0.262466 -0.07197,-0.1016 -0.194733,-0.143933 -0.118534,-0.04657 -0.300567,-0.04657 -0.194733,0 -0.338666,0.02117 -0.1397,0.02117 -0.182033,0.0381 v 1.921931 h -0.275167 z"
         id="path18892" />
      <path
         d="m 14.112527,43.138942 q 0,-0.287866 0.08043,-0.499533 0.08467,-0.2159 0.2159,-0.359833 0.135467,-0.143933 0.3048,-0.211666 0.173566,-0.07197 0.3556,-0.07197 0.402166,0 0.639232,0.262466 0.2413,0.262467 0.2413,0.808566 0,0.03387 -0.0042,0.06773 0,0.03387 -0.0042,0.0635 h -1.536699 q 0.0127,0.402166 0.198966,0.618066 0.186267,0.2159 0.592667,0.2159 0.224366,0 0.355599,-0.04233 0.131233,-0.04233 0.1905,-0.07197 l 0.0508,0.237066 q -0.05927,0.03387 -0.224366,0.08043 -0.160867,0.04657 -0.381,0.04657 -0.287867,0 -0.491066,-0.08467 -0.2032,-0.08467 -0.334433,-0.237066 -0.131234,-0.1524 -0.1905,-0.359833 -0.05927,-0.211667 -0.05927,-0.461433 z m 1.553632,-0.173566 q -0.0085,-0.3429 -0.160866,-0.5334 -0.1524,-0.1905 -0.4318,-0.1905 -0.148167,0 -0.2667,0.05927 -0.1143,0.05927 -0.2032,0.160866 -0.08467,0.09737 -0.135466,0.2286 -0.04657,0.131233 -0.05503,0.275167 z"
         id="path18894" />
    </g>
    <g
       aria-label="FM"
       id="text386-5-6"
       style="font-weight:300;font-size:4.23333px;font-family:Ubuntu;-inkscape-font-specification:'Ubuntu Light';stroke-width:0.264583">
      <path
         d="m 9.5633126,66.871849 v -2.933697 h 1.6721654 v 0.249766 H 9.8511791 v 1.032932 h 1.2276659 v 0.249767 H 9.8511791 v 1.401232 z"
         id="path18897" />
      <path
         d="m 13.081212,66.448516 q -0.04233,-0.105833 -0.122767,-0.2794 -0.0762,-0.173566 -0.173566,-0.376766 -0.09737,-0.207433 -0.198967,-0.423333 -0.1016,-0.220133 -0.194733,-0.410633 -0.09313,-0.1905 -0.1651,-0.334433 -0.07197,-0.143933 -0.105833,-0.2032 -0.05503,0.529166 -0.0889,1.151466 -0.02963,0.618066 -0.05503,1.299632 H 11.69268 q 0.0381,-0.800099 0.08467,-1.532465 0.0508,-0.732366 0.122767,-1.401232 h 0.254 q 0.126999,0.211666 0.270933,0.491066 0.143933,0.275166 0.283633,0.575733 0.143933,0.296333 0.275166,0.588432 0.135467,0.287867 0.237067,0.5207 0.1016,-0.232833 0.232833,-0.5207 0.135466,-0.292099 0.275166,-0.588432 0.143933,-0.300567 0.287867,-0.575733 0.143933,-0.2794 0.270933,-0.491066 h 0.2413 q 0.07197,0.668866 0.118533,1.401232 0.0508,0.732366 0.0889,1.532465 h -0.2921 q -0.0254,-0.681566 -0.05927,-1.299632 -0.02963,-0.6223 -0.08467,-1.151466 -0.03387,0.05927 -0.105834,0.2032 -0.07197,0.143933 -0.165099,0.334433 -0.09313,0.1905 -0.194734,0.410633 -0.101599,0.2159 -0.198966,0.423333 -0.09737,0.2032 -0.1778,0.376766 -0.0762,0.173567 -0.118533,0.2794 z"
         id="path18899" />
    </g>
    <g
       aria-label="V/Oct
"
       id="text386-5-6-8-0-9"
       style="font-weight:300;font-size:4.23333px;font-family:Ubuntu;-inkscape-font-specification:'Ubuntu Light';display:inline;stroke-width:0.264583">
      <path
         d="m 13.435718,103.07612 q 0.127,0.37677 0.245533,0.71543 0.118533,0.33444 0.232833,0.65194 0.1143,0.31326 0.232833,0.61806 0.118533,0.30057 0.254,0.6096 0.131233,-0.3048 0.249766,-0.60536 0.122767,-0.3048 0.237067,-0.61807 0.118533,-0.3175 0.232833,-0.65617 0.118533,-0.33866 0.245533,-0.71543 h 0.3048 q -0.194733,0.55457 -0.351366,0.97367 -0.1524,0.4191 -0.287867,0.75776 -0.131233,0.33867 -0.254,0.62654 -0.118533,0.28363 -0.249766,0.57573 h -0.2667 q -0.131233,-0.2921 -0.254,-0.57573 -0.122766,-0.28787 -0.258233,-0.62654 -0.131233,-0.33866 -0.287866,-0.75776 -0.1524,-0.4191 -0.347133,-0.97367 z"
         id="path18902" />
      <path
         d="m 15.66245,106.79299 h -0.279399 l 1.443565,-4.09787 h 0.270933 z"
         id="path18904" />
      <path
         d="m 19.950813,104.54085 q 0,0.37677 -0.110067,0.66464 -0.110066,0.28786 -0.300566,0.4826 -0.186266,0.1905 -0.436033,0.28786 -0.249766,0.0974 -0.529166,0.0974 -0.2794,0 -0.529166,-0.0974 -0.249767,-0.0974 -0.440267,-0.28786 -0.186266,-0.19474 -0.296333,-0.4826 -0.110066,-0.28787 -0.110066,-0.66464 0,-0.37676 0.110066,-0.6604 0.110067,-0.28786 0.296333,-0.47836 0.1905,-0.19474 0.440267,-0.2921 0.249766,-0.0974 0.529166,-0.0974 0.2794,0 0.529166,0.0974 0.249767,0.0974 0.436033,0.2921 0.1905,0.1905 0.300566,0.47836 0.110067,0.28364 0.110067,0.6604 z m -0.3048,0 q 0,-0.29633 -0.0762,-0.52916 -0.0762,-0.23707 -0.215899,-0.40217 -0.1397,-0.1651 -0.338667,-0.24977 -0.194733,-0.0889 -0.440266,-0.0889 -0.245533,0 -0.4445,0.0889 -0.194733,0.0847 -0.334433,0.24977 -0.1397,0.1651 -0.2159,0.40217 -0.0762,0.23283 -0.0762,0.52916 0,0.29634 0.0762,0.5334 0.0762,0.23284 0.2159,0.39794 0.1397,0.1651 0.334433,0.254 0.198967,0.0889 0.4445,0.0889 0.245533,0 0.440266,-0.0889 0.198967,-0.0889 0.338667,-0.254 0.139699,-0.1651 0.215899,-0.39794 0.0762,-0.23706 0.0762,-0.5334 z"
         id="path18906" />
      <path
         d="m 21.483279,106.05639 q -0.254,0 -0.448733,-0.0804 -0.194733,-0.0804 -0.325966,-0.2286 -0.127,-0.1524 -0.194733,-0.35983 -0.06773,-0.21167 -0.06773,-0.46567 0,-0.25823 0.06773,-0.4699 0.07197,-0.21166 0.203199,-0.36406 0.131234,-0.1524 0.3175,-0.23284 0.186267,-0.0847 0.4191,-0.0847 0.1778,0 0.3302,0.0296 0.156633,0.0296 0.241299,0.0762 l -0.07197,0.23707 q -0.08467,-0.0423 -0.1905,-0.0677 -0.105833,-0.0254 -0.283633,-0.0254 -0.364067,0 -0.554566,0.23707 -0.186267,0.23283 -0.186267,0.66463 0,0.19474 0.04233,0.35984 0.04233,0.16086 0.135467,0.2794 0.09737,0.1143 0.245533,0.18203 0.1524,0.0635 0.3683,0.0635 0.1778,0 0.296333,-0.0381 0.122766,-0.0423 0.1778,-0.072 l 0.05927,0.23707 q -0.0762,0.0423 -0.241299,0.0804 -0.160867,0.0423 -0.338667,0.0423 z"
         id="path18908" />
      <path
         d="m 22.782908,103.82119 h 0.872066 v 0.23283 h -0.872066 v 1.16417 q 0,0.18626 0.02963,0.3048 0.03387,0.1143 0.09313,0.1778 0.05927,0.0635 0.143934,0.0847 0.08467,0.0212 0.186266,0.0212 0.173567,0 0.2794,-0.0381 0.105833,-0.0423 0.1651,-0.0762 l 0.06773,0.2286 q -0.05927,0.0381 -0.207433,0.0889 -0.148167,0.0466 -0.321733,0.0466 -0.2032,0 -0.3429,-0.0508 -0.135467,-0.055 -0.220133,-0.16087 -0.08043,-0.11007 -0.1143,-0.27093 -0.03387,-0.16087 -0.03387,-0.381 v -2.01507 l 0.275167,-0.0508 z"
         id="path18910" />
    </g>
    <g
       aria-label="V/Oct
"
       id="text386-5-6-8-0-9-1"
       style="font-weight:300;font-size:4.23333px;font-family:Ubuntu;-inkscape-font-specification:'Ubuntu Light';display:inline;stroke-width:0.264583">
      <path
         d="m 25.680522,103.07612 q 0.127,0.37677 0.245533,0.71543 0.118534,0.33444 0.232833,0.65194 0.1143,0.31326 0.232834,0.61806 0.118533,0.30057 0.253999,0.6096 0.131234,-0.3048 0.249767,-0.60536 0.122766,-0.3048 0.237066,-0.61807 0.118534,-0.3175 0.232833,-0.65617 0.118534,-0.33866 0.245534,-0.71543 h 0.304799 q -0.194733,0.55457 -0.351366,0.97367 -0.1524,0.4191 -0.287866,0.75776 -0.131234,0.33867 -0.254,0.62654 -0.118533,0.28363 -0.249767,0.57573 h -0.266699 q -0.131234,-0.2921 -0.254,-0.57573 -0.122767,-0.28787 -0.258233,-0.62654 -0.131234,-0.33866 -0.287867,-0.75776 -0.1524,-0.4191 -0.347133,-0.97367 z"
         id="path18913" />
      <path
         d="m 27.907255,106.79299 h -0.2794 l 1.443566,-4.09787 h 0.270933 z"
         id="path18915" />
      <path
         d="m 32.195617,104.54085 q 0,0.37677 -0.110066,0.66464 -0.110067,0.28786 -0.300567,0.4826 -0.186266,0.1905 -0.436033,0.28786 -0.249766,0.0974 -0.529166,0.0974 -0.2794,0 -0.529166,-0.0974 -0.249766,-0.0974 -0.440266,-0.28786 -0.186267,-0.19474 -0.296333,-0.4826 -0.110067,-0.28787 -0.110067,-0.66464 0,-0.37676 0.110067,-0.6604 0.110066,-0.28786 0.296333,-0.47836 0.1905,-0.19474 0.440266,-0.2921 0.249766,-0.0974 0.529166,-0.0974 0.2794,0 0.529166,0.0974 0.249767,0.0974 0.436033,0.2921 0.1905,0.1905 0.300567,0.47836 0.110066,0.28364 0.110066,0.6604 z m -0.304799,0 q 0,-0.29633 -0.0762,-0.52916 -0.0762,-0.23707 -0.2159,-0.40217 -0.1397,-0.1651 -0.338666,-0.24977 -0.194734,-0.0889 -0.440267,-0.0889 -0.245533,0 -0.444499,0.0889 -0.194734,0.0847 -0.334433,0.24977 -0.1397,0.1651 -0.2159,0.40217 -0.0762,0.23283 -0.0762,0.52916 0,0.29634 0.0762,0.5334 0.0762,0.23284 0.2159,0.39794 0.139699,0.1651 0.334433,0.254 0.198966,0.0889 0.444499,0.0889 0.245533,0 0.440267,-0.0889 0.198966,-0.0889 0.338666,-0.254 0.1397,-0.1651 0.2159,-0.39794 0.0762,-0.23706 0.0762,-0.5334 z"
         id="path18917" />
      <path
         d="m 33.728084,106.05639 q -0.254,0 -0.448733,-0.0804 -0.194734,-0.0804 -0.325967,-0.2286 -0.127,-0.1524 -0.194733,-0.35983 -0.06773,-0.21167 -0.06773,-0.46567 0,-0.25823 0.06773,-0.4699 0.07197,-0.21166 0.2032,-0.36406 0.131233,-0.1524 0.3175,-0.23284 0.186266,-0.0847 0.419099,-0.0847 0.1778,0 0.3302,0.0296 0.156633,0.0296 0.2413,0.0762 l -0.07197,0.23707 q -0.08467,-0.0423 -0.1905,-0.0677 -0.105833,-0.0254 -0.283633,-0.0254 -0.364066,0 -0.554566,0.23707 -0.186267,0.23283 -0.186267,0.66463 0,0.19474 0.04233,0.35984 0.04233,0.16086 0.135466,0.2794 0.09737,0.1143 0.245533,0.18203 0.1524,0.0635 0.3683,0.0635 0.1778,0 0.296333,-0.0381 0.122767,-0.0423 0.1778,-0.072 l 0.05927,0.23707 q -0.0762,0.0423 -0.2413,0.0804 -0.160867,0.0423 -0.338666,0.0423 z"
         id="path18919" />
      <path
         d="m 35.027712,103.82119 h 0.872066 v 0.23283 h -0.872066 v 1.16417 q 0,0.18626 0.02963,0.3048 0.03387,0.1143 0.09313,0.1778 0.05927,0.0635 0.143933,0.0847 0.08467,0.0212 0.186266,0.0212 0.173567,0 0.2794,-0.0381 0.105833,-0.0423 0.1651,-0.0762 l 0.06773,0.2286 q -0.05927,0.0381 -0.207433,0.0889 -0.148166,0.0466 -0.321733,0.0466 -0.2032,0 -0.3429,-0.0508 -0.135466,-0.055 -0.220133,-0.16087 -0.08043,-0.11007 -0.1143,-0.27093 -0.03387,-0.16087 -0.03387,-0.381 v -2.01507 l 0.275166,-0.0508 z"
         id="path18921" />
    </g>
    <g
       id="text382"
       style="font-weight:300;font-size:4.23333px;font-family:Ubuntu;-inkscape-font-specification:'Ubuntu Light';display:inline;stroke-width:0.264583" />
    <g
       aria-label="Coarse"
       id="text386-47"
       style="font-weight:300;font-size:4.23333px;font-family:Ubuntu;-inkscape-font-specification:'Ubuntu Light';display:inline;stroke-width:0.264583">
      <path
         d="m 31.924396,22.903616 q -0.283633,0 -0.529166,-0.101599 -0.2413,-0.1016 -0.423333,-0.296334 -0.1778,-0.194733 -0.283633,-0.478366 -0.1016,-0.287866 -0.1016,-0.656166 0,-0.3683 0.110067,-0.651933 0.1143,-0.287866 0.300566,-0.482599 0.186267,-0.194733 0.4318,-0.2921 0.245533,-0.1016 0.512233,-0.1016 0.1651,0 0.300566,0.02117 0.135467,0.02117 0.237067,0.05503 0.1016,0.02963 0.173566,0.0635 0.07197,0.02963 0.110067,0.05503 l -0.09313,0.249767 q -0.105833,-0.0635 -0.270933,-0.122767 -0.160866,-0.0635 -0.402166,-0.0635 -0.275166,0 -0.4826,0.09313 -0.203199,0.09313 -0.342899,0.262467 -0.1397,0.169333 -0.211667,0.402166 -0.06773,0.232833 -0.06773,0.516466 0,0.2921 0.06773,0.529167 0.07197,0.232833 0.207433,0.397933 0.135467,0.165099 0.3302,0.253999 0.198967,0.0889 0.452966,0.0889 0.2794,0 0.465667,-0.0508 0.1905,-0.05503 0.287866,-0.110066 l 0.08043,0.245533 q -0.02963,0.02117 -0.1016,0.0508 -0.07197,0.0254 -0.182033,0.05503 -0.110066,0.02963 -0.254,0.04657 -0.143933,0.02117 -0.321733,0.02117 z"
         id="path18925" />
      <path
         d="m 35.133257,21.747917 q 0,0.258234 -0.0762,0.4699 -0.07197,0.211667 -0.207433,0.359833 -0.131233,0.148167 -0.313266,0.232833 -0.182033,0.08043 -0.402167,0.08043 -0.220133,0 -0.402166,-0.08043 -0.182033,-0.08467 -0.3175,-0.232833 -0.131233,-0.148166 -0.207433,-0.359833 -0.07197,-0.211666 -0.07197,-0.4699 0,-0.258233 0.07197,-0.469899 0.0762,-0.211667 0.207433,-0.359833 0.135467,-0.1524 0.3175,-0.232833 0.182033,-0.08467 0.402166,-0.08467 0.220134,0 0.402167,0.08467 0.182033,0.08043 0.313266,0.232833 0.135467,0.148166 0.207433,0.359833 0.0762,0.211666 0.0762,0.469899 z m -0.292099,0 q 0,-0.410633 -0.1905,-0.651932 -0.1905,-0.245533 -0.516467,-0.245533 -0.325966,0 -0.516466,0.245533 -0.1905,0.241299 -0.1905,0.651932 0,0.410633 0.1905,0.651933 0.1905,0.2413 0.516466,0.2413 0.325967,0 0.516467,-0.2413 0.1905,-0.2413 0.1905,-0.651933 z"
         id="path18927" />
      <path
         d="m 36.420193,22.64115 q 0.160866,0 0.2794,-0.0085 0.122766,-0.0127 0.207433,-0.02963 v -0.770466 q -0.04657,-0.02117 -0.148167,-0.04233 -0.1016,-0.0254 -0.2794,-0.0254 -0.1016,0 -0.211666,0.01693 -0.110067,0.0127 -0.2032,0.0635 -0.09313,0.04657 -0.1524,0.131233 -0.05927,0.08467 -0.05927,0.224367 0,0.122766 0.0381,0.207433 0.04233,0.08467 0.114299,0.135466 0.0762,0.0508 0.1778,0.0762 0.105834,0.02117 0.237067,0.02117 z m -0.0254,-2.040465 q 0.2159,0 0.364066,0.0635 0.1524,0.05927 0.245533,0.169333 0.09313,0.105833 0.135467,0.254 0.04233,0.148167 0.04233,0.321733 v 1.380066 q -0.04233,0.0127 -0.122766,0.02963 -0.08043,0.0127 -0.186267,0.02963 -0.105833,0.01693 -0.237066,0.0254 -0.127,0.0127 -0.262467,0.0127 -0.173566,0 -0.321733,-0.0381 -0.143933,-0.0381 -0.254,-0.118533 -0.105833,-0.08467 -0.169333,-0.211667 -0.05927,-0.131233 -0.05927,-0.317499 0,-0.1778 0.06773,-0.3048 0.06773,-0.127 0.1905,-0.207433 0.122766,-0.08467 0.292099,-0.122767 0.169334,-0.0381 0.3683,-0.0381 0.05927,0 0.122767,0.0085 0.06773,0.0042 0.126999,0.01693 0.0635,0.0085 0.105834,0.02117 0.04657,0.0085 0.0635,0.01693 v -0.135466 q 0,-0.1143 -0.01693,-0.220133 -0.01693,-0.110067 -0.0762,-0.194734 -0.05503,-0.0889 -0.160866,-0.1397 -0.1016,-0.05503 -0.270933,-0.05503 -0.2413,0 -0.359833,0.03387 -0.118533,0.03387 -0.173567,0.05503 l -0.0381,-0.2413 q 0.07197,-0.03387 0.220133,-0.0635 0.1524,-0.02963 0.364067,-0.02963 z"
         id="path18929" />
      <path
         d="m 38.629994,20.609152 q 0.135467,0 0.254,0.02117 0.122766,0.02117 0.169333,0.04233 l -0.05503,0.237066 q -0.03387,-0.01693 -0.1397,-0.03387 -0.1016,-0.02117 -0.270933,-0.02117 -0.1778,0 -0.287867,0.0254 -0.105833,0.0254 -0.1397,0.04233 v 1.917699 h -0.275166 v -2.087032 q 0.105833,-0.04657 0.2921,-0.09313 0.186266,-0.0508 0.452966,-0.0508 z"
         id="path18931" />
      <path
         d="m 39.916929,22.645383 q 0.237067,0 0.389466,-0.0762 0.156634,-0.08043 0.156634,-0.266699 0,-0.0889 -0.02963,-0.1524 -0.0254,-0.0635 -0.0889,-0.1143 -0.0635,-0.0508 -0.169333,-0.09737 -0.1016,-0.04657 -0.254,-0.110066 -0.122766,-0.0508 -0.232833,-0.1016 -0.110066,-0.05503 -0.194733,-0.122767 -0.08467,-0.07197 -0.135466,-0.169333 -0.0508,-0.09737 -0.0508,-0.237066 0,-0.2667 0.198966,-0.4318 0.2032,-0.1651 0.554566,-0.1651 0.224367,0 0.3683,0.0381 0.148167,0.0381 0.207433,0.06773 l -0.0635,0.245533 q -0.0508,-0.0254 -0.173566,-0.06773 -0.118534,-0.04233 -0.351367,-0.04233 -0.09313,0 -0.1778,0.02117 -0.08043,0.01693 -0.143933,0.05927 -0.0635,0.0381 -0.1016,0.1016 -0.0381,0.05927 -0.0381,0.148167 0,0.0889 0.03387,0.152399 0.03387,0.0635 0.09737,0.1143 0.06773,0.04657 0.160866,0.0889 0.09737,0.04233 0.220133,0.09313 0.127,0.0508 0.2413,0.105833 0.118533,0.0508 0.207433,0.127 0.0889,0.07197 0.143933,0.1778 0.05503,0.101599 0.05503,0.258233 0,0.296333 -0.224367,0.448733 -0.220133,0.152399 -0.605366,0.152399 -0.287866,0 -0.440266,-0.0508 -0.1524,-0.04657 -0.2032,-0.07197 l 0.07197,-0.249767 q 0.0127,0.0085 0.05503,0.02963 0.04233,0.01693 0.1143,0.04233 0.07197,0.02117 0.169333,0.0381 0.1016,0.01693 0.232833,0.01693 z"
         id="path18933" />
      <path
         d="m 41.148826,21.743684 q 0,-0.287866 0.08043,-0.499533 0.08467,-0.2159 0.2159,-0.359833 0.135467,-0.143933 0.3048,-0.211666 0.173566,-0.07197 0.355599,-0.07197 0.402167,0 0.639233,0.262466 0.2413,0.262467 0.2413,0.808566 0,0.03387 -0.0042,0.06773 0,0.03387 -0.0042,0.0635 h -1.536698 q 0.0127,0.402166 0.198966,0.618066 0.186267,0.2159 0.592666,0.2159 0.224367,0 0.3556,-0.04233 0.131233,-0.04233 0.1905,-0.07197 l 0.0508,0.237066 q -0.05927,0.03387 -0.224367,0.08043 -0.160866,0.04657 -0.380999,0.04657 -0.287867,0 -0.491067,-0.08467 -0.203199,-0.08467 -0.334433,-0.237067 -0.131233,-0.1524 -0.1905,-0.359833 -0.05927,-0.211666 -0.05927,-0.461433 z m 1.553632,-0.173566 q -0.0085,-0.3429 -0.160867,-0.5334 -0.1524,-0.1905 -0.431799,-0.1905 -0.148167,0 -0.2667,0.05927 -0.1143,0.05927 -0.2032,0.160866 -0.08467,0.09737 -0.135466,0.2286 -0.04657,0.131233 -0.05503,0.275167 z"
         id="path18935" />
    </g>
    <g
       aria-label="Fine"
       id="text386-5-7"
       style="font-weight:300;font-size:4.23333px;font-family:Ubuntu;-inkscape-font-specification:'Ubuntu Light';display:inline;stroke-width:0.264583">
      <path
         d="m 32.536838,44.235371 v -2.933698 h 1.672165 v 0.249767 h -1.384299 v 1.032932 h 1.227666 v 0.249766 h -1.227666 v 1.401233 z"
         id="path18938" />
      <path
         d="m 34.996404,44.235371 h -0.275166 v -2.188632 h 0.275166 z m 0.0635,-2.849031 q 0,0.09737 -0.05927,0.156633 -0.05927,0.05503 -0.143934,0.05503 -0.08467,0 -0.143933,-0.05503 -0.05927,-0.05927 -0.05927,-0.156633 0,-0.09737 0.05927,-0.1524 0.05927,-0.05927 0.143933,-0.05927 0.08467,0 0.143934,0.05927 0.05927,0.05503 0.05927,0.1524 z"
         id="path18940" />
      <path
         d="m 35.724535,42.122939 q 0.122767,-0.03387 0.3302,-0.0762 0.207433,-0.04233 0.507999,-0.04233 0.249767,0 0.414867,0.07197 0.169333,0.07197 0.266699,0.207434 0.1016,0.131233 0.143934,0.317499 0.04233,0.186267 0.04233,0.410633 v 1.223433 H 37.1554 v -1.134533 q 0,-0.232833 -0.03387,-0.393699 -0.02963,-0.160867 -0.105833,-0.262467 -0.07197,-0.1016 -0.194734,-0.143933 -0.118533,-0.04657 -0.300566,-0.04657 -0.194733,0 -0.338666,0.02117 -0.1397,0.02117 -0.182034,0.0381 v 1.921932 h -0.275166 z"
         id="path18942" />
      <path
         d="m 38.002068,43.138938 q 0,-0.287866 0.08043,-0.499533 0.08467,-0.2159 0.2159,-0.359833 0.135466,-0.143933 0.3048,-0.211666 0.173566,-0.07197 0.355599,-0.07197 0.402167,0 0.639233,0.262467 0.2413,0.262466 0.2413,0.808566 0,0.03387 -0.0042,0.06773 0,0.03387 -0.0042,0.0635 h -1.536698 q 0.0127,0.402166 0.198966,0.618066 0.186267,0.2159 0.592666,0.2159 0.224367,0 0.3556,-0.04233 0.131233,-0.04233 0.1905,-0.07197 l 0.0508,0.237066 q -0.05927,0.03387 -0.224367,0.08043 -0.160866,0.04657 -0.380999,0.04657 -0.287867,0 -0.491067,-0.08467 -0.2032,-0.08467 -0.334433,-0.237067 -0.131233,-0.1524 -0.1905,-0.359833 -0.05927,-0.211666 -0.05927,-0.461433 z M 39.5557,42.965372 q -0.0085,-0.3429 -0.160867,-0.5334 -0.1524,-0.1905 -0.431799,-0.1905 -0.148167,0 -0.2667,0.05927 -0.1143,0.05927 -0.2032,0.160866 -0.08467,0.09737 -0.135467,0.2286 -0.04657,0.131233 -0.05503,0.275167 z"
         id="path18944" />
    </g>
    <g
       aria-label="FM"
       id="text386-5-6-8"
       style="font-weight:300;font-size:4.23333px;font-family:Ubuntu;-inkscape-font-specification:'Ubuntu Light';display:inline;stroke-width:0.264583">
      <path
         d="m 33.452853,66.871849 v -2.933697 h 1.672166 v 0.249766 H 33.74072 v 1.032932 h 1.227665 v 0.249767 H 33.74072 v 1.401232 z"
         id="path18947" />
      <path
         d="m 36.970752,66.448516 q -0.04233,-0.105833 -0.122766,-0.2794 -0.0762,-0.173566 -0.173567,-0.376766 -0.09737,-0.207433 -0.198966,-0.423333 -0.1016,-0.220133 -0.194733,-0.410633 -0.09313,-0.1905 -0.1651,-0.334433 -0.07197,-0.143933 -0.105833,-0.2032 -0.05503,0.529166 -0.0889,1.151466 -0.02963,0.618066 -0.05503,1.299632 H 35.58222 q 0.0381,-0.800099 0.08467,-1.532465 0.0508,-0.732366 0.122766,-1.401232 h 0.254 q 0.127,0.211666 0.270933,0.491066 0.143933,0.275166 0.283633,0.575733 0.143934,0.296333 0.275167,0.588432 0.135466,0.287867 0.237066,0.5207 0.1016,-0.232833 0.232833,-0.5207 0.135467,-0.292099 0.275167,-0.588432 0.143933,-0.300567 0.287866,-0.575733 0.143933,-0.2794 0.270933,-0.491066 h 0.2413 q 0.07197,0.668866 0.118533,1.401232 0.0508,0.732366 0.0889,1.532465 h -0.292099 q -0.0254,-0.681566 -0.05927,-1.299632 -0.02963,-0.6223 -0.08467,-1.151466 -0.03387,0.05927 -0.105833,0.2032 -0.07197,0.143933 -0.1651,0.334433 -0.09313,0.1905 -0.194733,0.410633 -0.1016,0.2159 -0.198966,0.423333 -0.09737,0.2032 -0.1778,0.376766 -0.0762,0.173567 -0.118533,0.2794 z"
         id="path18949" />
    </g>
    <g
       aria-label="Level"
       id="text386-5-6-8-9"
       style="font-weight:300;font-size:4.23333px;font-family:Ubuntu;-inkscape-font-specification:'Ubuntu Light';display:inline;stroke-width:0.264583">
      <path
         d="m 52.854966,44.097787 v 0.249766 H 51.187034 V 41.413856 H 51.4749 v 2.683931 z"
         id="path18952" />
      <path
         d="m 53.164002,43.251121 q 0,-0.287867 0.08043,-0.499533 0.08467,-0.2159 0.2159,-0.359833 0.135467,-0.143933 0.3048,-0.211667 0.173567,-0.07197 0.3556,-0.07197 0.402166,0 0.639232,0.262466 0.2413,0.262467 0.2413,0.808566 0,0.03387 -0.0042,0.06773 0,0.03387 -0.0042,0.0635 h -1.536699 q 0.0127,0.402167 0.198966,0.618067 0.186267,0.215899 0.592667,0.215899 0.224366,0 0.355599,-0.04233 0.131234,-0.04233 0.1905,-0.07197 l 0.0508,0.237066 q -0.05927,0.03387 -0.224366,0.08043 -0.160867,0.04657 -0.381,0.04657 -0.287866,0 -0.491066,-0.08467 -0.2032,-0.08467 -0.334433,-0.237066 -0.131234,-0.1524 -0.1905,-0.359833 -0.05927,-0.211667 -0.05927,-0.461433 z m 1.553632,-0.173567 q -0.0085,-0.342899 -0.160866,-0.533399 -0.1524,-0.1905 -0.4318,-0.1905 -0.148167,0 -0.2667,0.05927 -0.1143,0.05927 -0.2032,0.160866 -0.08467,0.09737 -0.135466,0.2286 -0.04657,0.131233 -0.05503,0.275166 z"
         id="path18954" />
      <path
         d="m 56.275501,44.05122 q 0.0889,-0.182033 0.182033,-0.414866 0.09313,-0.237067 0.1778,-0.486833 0.0889,-0.254 0.160867,-0.508 0.0762,-0.258233 0.126999,-0.482599 h 0.275167 q -0.0762,0.300566 -0.169333,0.592666 -0.09313,0.2921 -0.198967,0.571499 -0.1016,0.2794 -0.2159,0.537633 -0.110066,0.258233 -0.215899,0.486833 h -0.262467 q -0.110066,-0.2286 -0.220133,-0.486833 -0.110067,-0.258233 -0.2159,-0.537633 -0.1016,-0.279399 -0.194733,-0.571499 -0.09313,-0.2921 -0.169333,-0.592666 h 0.2921 q 0.0508,0.224366 0.122766,0.482599 0.0762,0.254 0.160867,0.508 0.0889,0.249766 0.182033,0.486833 0.09313,0.232833 0.182033,0.414866 z"
         id="path18956" />
      <path
         d="m 57.515865,43.251121 q 0,-0.287867 0.08043,-0.499533 0.08467,-0.2159 0.2159,-0.359833 0.135466,-0.143933 0.304799,-0.211667 0.173567,-0.07197 0.3556,-0.07197 0.402166,0 0.639233,0.262466 0.2413,0.262467 0.2413,0.808566 0,0.03387 -0.0042,0.06773 0,0.03387 -0.0042,0.0635 h -1.536699 q 0.0127,0.402167 0.198967,0.618067 0.186266,0.215899 0.592666,0.215899 0.224367,0 0.3556,-0.04233 0.131233,-0.04233 0.1905,-0.07197 l 0.0508,0.237066 q -0.05927,0.03387 -0.224367,0.08043 -0.160866,0.04657 -0.381,0.04657 -0.287866,0 -0.491066,-0.08467 -0.2032,-0.08467 -0.334433,-0.237066 -0.131233,-0.1524 -0.1905,-0.359833 -0.05927,-0.211667 -0.05927,-0.461433 z m 1.553632,-0.173567 q -0.0085,-0.342899 -0.160867,-0.533399 -0.1524,-0.1905 -0.4318,-0.1905 -0.148166,0 -0.266699,0.05927 -0.1143,0.05927 -0.2032,0.160866 -0.08467,0.09737 -0.135467,0.2286 -0.04657,0.131233 -0.05503,0.275166 z"
         id="path18958" />
      <path
         d="m 60.52153,44.385653 q -0.1397,-0.0042 -0.245533,-0.0381 -0.1016,-0.02963 -0.173566,-0.09313 -0.06773,-0.06773 -0.105834,-0.169333 -0.03387,-0.105833 -0.03387,-0.262467 v -2.709331 l 0.275166,-0.0508 v 2.751665 q 0,0.1016 0.01693,0.1651 0.02117,0.05927 0.05927,0.09737 0.0381,0.03387 0.09737,0.0508 0.0635,0.01693 0.148166,0.02963 z"
         id="path18960" />
    </g>
    <g
       id="text1268"
       style="font-weight:300;font-size:4.23333px;font-family:Ubuntu;-inkscape-font-specification:'Ubuntu Light';display:inline;stroke-width:0.264583" />
    <g
       aria-label="BASE"
       id="text386-47-0"
       style="font-weight:500;font-size:4.23333px;font-family:Ubuntu;-inkscape-font-specification:'Ubuntu Medium';display:inline;stroke-width:0.264583">
      <path
         d="m 8.4287488,16.138563 q -0.2328332,0 -0.4698996,-0.01693 -0.2370665,-0.0127 -0.4148664,-0.05927 v -2.849031 q 0.093133,-0.01693 0.1989665,-0.02963 0.1058333,-0.01693 0.2158999,-0.0254 0.1100665,-0.0085 0.2158998,-0.0127 0.1100665,-0.0042 0.2074331,-0.0042 0.2666998,0 0.4952996,0.04233 0.2285998,0.0381 0.3936997,0.131233 0.1693332,0.09313 0.2624664,0.245533 0.093133,0.1524 0.093133,0.376766 0,0.207434 -0.1015999,0.3556 -0.097367,0.148167 -0.2751665,0.237067 0.2666998,0.0889 0.3936997,0.262466 0.1269999,0.173567 0.1269999,0.440266 0,0.452967 -0.3301997,0.681566 -0.3301998,0.224367 -1.0117658,0.224367 z M 8.0689157,14.783897 v 0.893233 q 0.0889,0.0085 0.1904999,0.0127 0.1015999,0.0042 0.1862665,0.0042 0.1650998,0 0.3047997,-0.02117 0.1439332,-0.02117 0.2455331,-0.07197 0.1058333,-0.05503 0.1650999,-0.143933 0.0635,-0.0889 0.0635,-0.2286 0,-0.249766 -0.1820332,-0.347133 -0.1820332,-0.09737 -0.5037663,-0.09737 z m 0,-0.419099 h 0.3767664 q 0.3047997,0 0.4783662,-0.08467 0.1735666,-0.0889 0.1735666,-0.313266 0,-0.211667 -0.1820332,-0.300567 -0.1777999,-0.0889 -0.4656663,-0.0889 -0.1227666,0 -0.2201331,0.0042 -0.093133,0.0042 -0.1608666,0.0127 z"
         id="path18964" />
      <path
         d="m 12.272611,16.104696 q -0.05927,-0.173566 -0.122767,-0.342899 -0.0635,-0.169334 -0.122767,-0.347133 h -1.236132 q -0.05927,0.177799 -0.122766,0.351366 -0.05927,0.169333 -0.118534,0.338666 H 9.9950791 q 0.1650999,-0.469899 0.3132669,-0.867832 0.148166,-0.397933 0.287866,-0.753533 0.143933,-0.3556 0.283633,-0.677333 0.1397,-0.321733 0.287866,-0.634999 h 0.503767 q 0.148166,0.313266 0.287866,0.634999 0.1397,0.321733 0.2794,0.677333 0.143933,0.3556 0.2921,0.753533 0.1524,0.397933 0.317499,0.867832 z m -0.8636,-2.366431 q -0.09737,0.224366 -0.224366,0.546099 -0.122767,0.321734 -0.258233,0.6985 h 0.965199 q -0.135467,-0.376766 -0.262467,-0.702733 -0.126999,-0.325966 -0.220133,-0.541866 z"
         id="path18966" />
      <path
         d="m 13.991343,15.706763 q 0.287866,0 0.419099,-0.09737 0.131233,-0.09737 0.131233,-0.275167 0,-0.105833 -0.04657,-0.182033 -0.04233,-0.0762 -0.127,-0.135466 -0.08043,-0.0635 -0.198967,-0.1143 -0.118533,-0.05503 -0.270933,-0.105834 -0.1524,-0.05503 -0.296333,-0.118533 -0.1397,-0.06773 -0.249766,-0.1651 -0.105834,-0.09737 -0.173567,-0.232833 -0.0635,-0.135466 -0.0635,-0.325966 0,-0.397933 0.275167,-0.6223 0.275166,-0.2286 0.749299,-0.2286 0.275166,0 0.486833,0.0635 0.2159,0.05927 0.338666,0.131234 l -0.165099,0.431799 q -0.143934,-0.08043 -0.3175,-0.122766 -0.169333,-0.04233 -0.351367,-0.04233 -0.215899,0 -0.338666,0.0889 -0.118533,0.0889 -0.118533,0.249767 0,0.09737 0.0381,0.169333 0.04233,0.06773 0.1143,0.122767 0.0762,0.05503 0.173566,0.101599 0.1016,0.04657 0.220133,0.0889 0.207433,0.0762 0.3683,0.156634 0.1651,0.0762 0.275166,0.186266 0.1143,0.105833 0.173567,0.254 0.05927,0.143933 0.05927,0.351366 0,0.397933 -0.283634,0.618066 -0.279399,0.2159 -0.821265,0.2159 -0.182034,0 -0.334434,-0.0254 -0.148166,-0.02117 -0.266699,-0.05503 -0.1143,-0.03387 -0.198967,-0.06773 -0.08467,-0.0381 -0.135466,-0.06773 l 0.156633,-0.436033 q 0.1143,0.0635 0.309033,0.127 0.194733,0.0635 0.4699,0.0635 z"
         id="path18968" />
      <path
         d="m 15.566144,16.104696 v -2.933697 h 1.883832 v 0.452966 h -1.350432 v 0.723899 h 1.202266 v 0.4445 h -1.202266 v 0.859366 h 1.452032 v 0.452966 z"
         id="path18970" />
    </g>
    <g
       aria-label="HARMONICS"
       id="text386-47-6"
       style="font-weight:500;font-size:4.23333px;font-family:Ubuntu;-inkscape-font-specification:'Ubuntu Medium';display:inline;stroke-width:0.264583">
      <path
         d="m 37.349333,13.170999 h 0.533399 v 2.933697 H 37.349333 V 14.805064 H 36.0751 v 1.299632 H 35.541701 V 13.170999 H 36.0751 v 1.172632 h 1.274233 z"
         id="path18973" />
      <path
         d="m 40.532796,16.104696 q -0.05927,-0.173566 -0.122767,-0.342899 -0.0635,-0.169334 -0.122766,-0.347133 h -1.236132 q -0.05927,0.177799 -0.122767,0.351366 -0.05927,0.169333 -0.118533,0.338666 h -0.554566 q 0.165099,-0.469899 0.313266,-0.867832 0.148167,-0.397933 0.287866,-0.753533 0.143934,-0.3556 0.283634,-0.677333 0.139699,-0.321733 0.287866,-0.634999 h 0.503766 q 0.148167,0.313266 0.287867,0.634999 0.1397,0.321733 0.279399,0.677333 0.143934,0.3556 0.2921,0.753533 0.1524,0.397933 0.3175,0.867832 z m -0.863599,-2.366431 q -0.09737,0.224366 -0.224367,0.546099 -0.122766,0.321734 -0.258233,0.6985 h 0.965199 q -0.135466,-0.376766 -0.262466,-0.702733 -0.127,-0.325966 -0.220133,-0.541866 z"
         id="path18975" />
      <path
         d="m 42.289628,13.141365 q 0.635,0 0.969433,0.232834 0.338666,0.232833 0.338666,0.711199 0,0.596899 -0.588433,0.808566 0.08043,0.09737 0.182033,0.237066 0.1016,0.1397 0.207434,0.3048 0.105833,0.160867 0.203199,0.334433 0.09737,0.169333 0.173567,0.334433 h -0.596899 q -0.08043,-0.1524 -0.173567,-0.304799 -0.09313,-0.156634 -0.1905,-0.300567 -0.09313,-0.148166 -0.186266,-0.275166 -0.09313,-0.131234 -0.173567,-0.232833 -0.05927,0.0042 -0.1016,0.0042 -0.04233,0 -0.08043,0 h -0.258233 v 1.109132 h -0.5334 v -2.891364 q 0.194733,-0.04233 0.414867,-0.05503 0.220133,-0.01693 0.393699,-0.01693 z m 0.0381,0.461433 q -0.169333,0 -0.313266,0.0127 v 0.948266 h 0.232833 q 0.194733,0 0.3429,-0.02117 0.148166,-0.02117 0.245533,-0.0762 0.1016,-0.05503 0.1524,-0.148167 0.0508,-0.09313 0.0508,-0.237066 0,-0.135467 -0.0508,-0.2286 -0.0508,-0.09313 -0.148167,-0.148167 -0.09313,-0.05503 -0.224366,-0.0762 -0.131234,-0.0254 -0.287867,-0.0254 z"
         id="path18977" />
      <path
         d="m 44.829623,13.170999 q 0.09313,0.160866 0.207433,0.393699 0.1143,0.232834 0.232833,0.491067 0.118533,0.253999 0.232833,0.520699 0.118533,0.262467 0.2159,0.486833 0.09737,-0.224366 0.211666,-0.486833 0.1143,-0.2667 0.232834,-0.520699 0.118533,-0.258233 0.232833,-0.491067 0.1143,-0.232833 0.207433,-0.393699 h 0.4826 q 0.0381,0.321733 0.07197,0.685799 0.03387,0.359833 0.05927,0.740833 0.02963,0.376766 0.0508,0.761999 0.0254,0.381 0.04233,0.745066 h -0.524933 q -0.01693,-0.512233 -0.04233,-1.054099 -0.02117,-0.541866 -0.06773,-1.049866 -0.04657,0.09737 -0.110067,0.232834 -0.0635,0.135466 -0.135467,0.296333 -0.07197,0.156633 -0.148166,0.325966 -0.07197,0.169333 -0.143933,0.3302 -0.06773,0.156633 -0.127,0.296333 -0.05927,0.135466 -0.1016,0.232833 h -0.397933 q -0.04233,-0.09737 -0.1016,-0.237067 -0.05927,-0.139699 -0.131233,-0.296333 -0.06773,-0.160866 -0.143933,-0.330199 -0.07197,-0.169334 -0.143934,-0.325967 -0.07197,-0.156633 -0.135466,-0.292099 -0.0635,-0.1397 -0.110067,-0.232834 -0.04657,0.508 -0.07197,1.049866 -0.02117,0.541866 -0.0381,1.054099 h -0.524933 q 0.01693,-0.364066 0.0381,-0.753532 0.0254,-0.389467 0.0508,-0.770466 0.02963,-0.385233 0.0635,-0.745066 0.03387,-0.359834 0.07197,-0.664633 z"
         id="path18979" />
      <path
         d="m 48.368691,14.635731 q 0,0.2413 0.05927,0.440266 0.05927,0.194733 0.169333,0.334433 0.1143,0.135467 0.275167,0.211667 0.160866,0.0762 0.364066,0.0762 0.198967,0 0.359833,-0.0762 0.160867,-0.0762 0.270933,-0.211667 0.1143,-0.1397 0.173567,-0.334433 0.05927,-0.198966 0.05927,-0.440266 0,-0.2413 -0.05927,-0.436033 -0.05927,-0.198967 -0.173567,-0.334433 -0.110066,-0.1397 -0.270933,-0.2159 -0.160866,-0.0762 -0.359833,-0.0762 -0.2032,0 -0.364066,0.0762 -0.160867,0.0762 -0.275167,0.2159 -0.110066,0.1397 -0.169333,0.334433 -0.05927,0.194733 -0.05927,0.436033 z m 2.290231,0 q 0,0.376766 -0.1143,0.664633 -0.110067,0.287866 -0.3048,0.482599 -0.1905,0.1905 -0.448733,0.287867 -0.258233,0.09737 -0.550333,0.09737 -0.292099,0 -0.554566,-0.09737 -0.258233,-0.09737 -0.452966,-0.287867 -0.1905,-0.194733 -0.3048,-0.482599 -0.1143,-0.287867 -0.1143,-0.664633 0,-0.376767 0.1143,-0.6604 0.1143,-0.287866 0.309033,-0.482599 0.198967,-0.194733 0.4572,-0.2921 0.258233,-0.09737 0.546099,-0.09737 0.287867,0 0.5461,0.09737 0.258233,0.09737 0.448733,0.2921 0.194733,0.194733 0.309033,0.482599 0.1143,0.283633 0.1143,0.6604 z"
         id="path18981" />
      <path
         d="m 53.220085,16.104696 q -0.143934,-0.2413 -0.321733,-0.516466 -0.1778,-0.2794 -0.3683,-0.558799 -0.1905,-0.283634 -0.389467,-0.5461 -0.194733,-0.2667 -0.372533,-0.478366 v 2.099731 H 51.24312 v -2.933697 h 0.436033 q 0.169333,0.1778 0.364066,0.423333 0.194733,0.2413 0.389466,0.503766 0.198967,0.262466 0.381,0.529166 0.186266,0.262467 0.3302,0.491066 v -1.947331 h 0.529166 v 2.933697 z"
         id="path18983" />
      <path
         d="m 54.375782,13.170999 h 0.5334 v 2.933697 h -0.5334 z"
         id="path18985" />
      <path
         d="m 56.91578,16.168196 q -0.3302,0 -0.592667,-0.1016 -0.262466,-0.1016 -0.444499,-0.296333 -0.182033,-0.198966 -0.2794,-0.482599 -0.09737,-0.283633 -0.09737,-0.651933 0,-0.3683 0.110067,-0.651933 0.1143,-0.283633 0.309033,-0.478366 0.194733,-0.198967 0.4572,-0.300567 0.262466,-0.1016 0.563033,-0.1016 0.182033,0 0.330199,0.02963 0.148167,0.0254 0.258233,0.05927 0.110067,0.03387 0.182034,0.07197 0.07197,0.0381 0.101599,0.05503 l -0.156633,0.436033 q -0.1016,-0.0635 -0.292099,-0.118533 -0.186267,-0.05927 -0.4064,-0.05927 -0.1905,0 -0.3556,0.06773 -0.1651,0.0635 -0.287866,0.194733 -0.118533,0.131233 -0.186267,0.3302 -0.06773,0.198966 -0.06773,0.461433 0,0.232833 0.0508,0.427566 0.05503,0.194733 0.1651,0.338666 0.110066,0.1397 0.2794,0.220133 0.169333,0.0762 0.406399,0.0762 0.283633,0 0.461433,-0.05503 0.1778,-0.05927 0.275167,-0.110067 l 0.143933,0.436033 q -0.0508,0.03387 -0.1397,0.06773 -0.08467,0.03387 -0.2032,0.06773 -0.118533,0.02963 -0.2667,0.04657 -0.148166,0.02117 -0.317499,0.02117 z"
         id="path18987" />
      <path
         d="m 59.062083,15.706763 q 0.287867,0 0.4191,-0.09737 0.131233,-0.09737 0.131233,-0.275167 0,-0.105833 -0.04657,-0.182033 -0.04233,-0.0762 -0.126999,-0.135466 -0.08043,-0.0635 -0.198967,-0.1143 -0.118533,-0.05503 -0.270933,-0.105834 -0.1524,-0.05503 -0.296333,-0.118533 -0.1397,-0.06773 -0.249767,-0.1651 -0.105833,-0.09737 -0.173566,-0.232833 -0.0635,-0.135466 -0.0635,-0.325966 0,-0.397933 0.275166,-0.6223 0.275167,-0.2286 0.7493,-0.2286 0.275166,0 0.486833,0.0635 0.215899,0.05927 0.338666,0.131234 l -0.1651,0.431799 q -0.143933,-0.08043 -0.3175,-0.122766 -0.169333,-0.04233 -0.351366,-0.04233 -0.2159,0 -0.338666,0.0889 -0.118534,0.0889 -0.118534,0.249767 0,0.09737 0.0381,0.169333 0.04233,0.06773 0.1143,0.122767 0.0762,0.05503 0.173567,0.101599 0.1016,0.04657 0.220133,0.0889 0.207433,0.0762 0.3683,0.156634 0.1651,0.0762 0.275166,0.186266 0.1143,0.105833 0.173567,0.254 0.05927,0.143933 0.05927,0.351366 0,0.397933 -0.283633,0.618066 -0.2794,0.2159 -0.821266,0.2159 -0.182033,0 -0.334433,-0.0254 -0.148166,-0.02117 -0.2667,-0.05503 -0.1143,-0.03387 -0.198966,-0.06773 -0.08467,-0.0381 -0.135467,-0.06773 l 0.156634,-0.436033 q 0.114299,0.0635 0.309033,0.127 0.194733,0.0635 0.469899,0.0635 z"
         id="path18989" />
    </g>
    <g
       aria-label="Ratio"
       id="text386-4"
       style="font-weight:300;font-size:4.23333px;font-family:Ubuntu;-inkscape-font-specification:'Ubuntu Light';display:inline;stroke-width:0.264583">
      <path
         d="m 53.400565,20.825051 q 0,0.3302 -0.173567,0.520699 -0.173567,0.1905 -0.4572,0.275167 0.06773,0.08467 0.173567,0.2286 0.110066,0.143933 0.224366,0.317499 0.1143,0.169334 0.224367,0.3556 0.110066,0.186267 0.186266,0.3556 h -0.309033 q -0.0889,-0.169333 -0.194733,-0.338667 -0.1016,-0.169333 -0.211666,-0.325966 -0.105834,-0.160867 -0.207434,-0.296333 -0.101599,-0.135467 -0.177799,-0.237067 -0.135467,0.0127 -0.270933,0.0127 h -0.474133 v 1.185333 h -0.287867 v -2.878664 q 0.1524,-0.04233 0.3556,-0.05927 0.207433,-0.02117 0.381,-0.02117 0.605366,0 0.910165,0.2286 0.309034,0.2286 0.309034,0.677333 z m -1.185333,-0.656166 q -0.160866,0 -0.283633,0.0127 -0.118533,0.0085 -0.198966,0.01693 v 1.248832 h 0.397933 q 0.198966,0 0.376766,-0.01693 0.1778,-0.02117 0.309033,-0.08467 0.131233,-0.06773 0.207433,-0.190499 0.0762,-0.122767 0.0762,-0.334433 0,-0.194734 -0.0762,-0.321734 -0.0762,-0.126999 -0.198966,-0.198966 -0.122767,-0.0762 -0.283633,-0.1016 -0.156634,-0.02963 -0.325967,-0.02963 z"
         id="path18992" />
      <path
         d="m 54.734063,22.679249 q 0.160867,0 0.2794,-0.0085 0.122767,-0.0127 0.207433,-0.02963 v -0.770466 q -0.04657,-0.02117 -0.148166,-0.04233 -0.1016,-0.0254 -0.2794,-0.0254 -0.1016,0 -0.211666,0.01693 -0.110067,0.0127 -0.2032,0.0635 -0.09313,0.04657 -0.1524,0.131234 -0.05927,0.08467 -0.05927,0.224366 0,0.122767 0.0381,0.207433 0.04233,0.08467 0.1143,0.135467 0.0762,0.0508 0.1778,0.0762 0.105833,0.02117 0.237066,0.02117 z m -0.0254,-2.040465 q 0.2159,0 0.364067,0.0635 0.1524,0.05927 0.245533,0.169333 0.09313,0.105834 0.135466,0.254 0.04233,0.148167 0.04233,0.321733 v 1.380066 q -0.04233,0.0127 -0.122767,0.02963 -0.08043,0.0127 -0.186266,0.02963 -0.105834,0.01693 -0.237067,0.0254 -0.127,0.0127 -0.262466,0.0127 -0.173567,0 -0.321733,-0.0381 -0.143933,-0.0381 -0.254,-0.118533 -0.105833,-0.08467 -0.169333,-0.211666 -0.05927,-0.131233 -0.05927,-0.3175 0,-0.1778 0.06773,-0.3048 0.06773,-0.127 0.1905,-0.207433 0.122767,-0.08467 0.2921,-0.122766 0.169333,-0.0381 0.3683,-0.0381 0.05927,0 0.122766,0.0085 0.06773,0.0042 0.127,0.01693 0.0635,0.0085 0.105833,0.02117 0.04657,0.0085 0.0635,0.01693 v -0.135467 q 0,-0.1143 -0.01693,-0.220133 -0.01693,-0.110067 -0.0762,-0.194733 -0.05503,-0.0889 -0.160866,-0.1397 -0.1016,-0.05503 -0.270934,-0.05503 -0.241299,0 -0.359833,0.03387 -0.118533,0.03387 -0.173566,0.05503 l -0.0381,-0.241299 q 0.07197,-0.03387 0.220133,-0.0635 0.1524,-0.02963 0.364066,-0.02963 z"
         id="path18994" />
      <path
         d="m 56.457032,20.689584 h 0.872066 v 0.232833 h -0.872066 v 1.164166 q 0,0.186267 0.02963,0.3048 0.03387,0.1143 0.09313,0.1778 0.05927,0.0635 0.143933,0.08467 0.08467,0.02117 0.186266,0.02117 0.173567,0 0.2794,-0.0381 0.105833,-0.04233 0.1651,-0.0762 l 0.06773,0.2286 q -0.05927,0.0381 -0.207433,0.0889 -0.148167,0.04657 -0.321733,0.04657 -0.2032,0 -0.3429,-0.0508 -0.135466,-0.05503 -0.220133,-0.160866 -0.08043,-0.110067 -0.1143,-0.270933 -0.03387,-0.160867 -0.03387,-0.381 v -2.015065 l 0.275166,-0.0508 z"
         id="path18996" />
      <path
         d="m 58.11226,22.878216 h -0.275166 v -2.188632 h 0.275166 z m 0.0635,-2.849031 q 0,0.09737 -0.05927,0.156633 -0.05927,0.05503 -0.143933,0.05503 -0.08467,0 -0.143933,-0.05503 -0.05927,-0.05927 -0.05927,-0.156633 0,-0.09737 0.05927,-0.1524 0.05927,-0.05927 0.143933,-0.05927 0.08467,0 0.143933,0.05927 0.05927,0.05503 0.05927,0.1524 z"
         id="path18998" />
      <path
         d="m 60.707289,21.786017 q 0,0.258233 -0.0762,0.469899 -0.07197,0.211667 -0.207433,0.359833 -0.131233,0.148167 -0.313266,0.232833 -0.182033,0.08043 -0.402166,0.08043 -0.220134,0 -0.402167,-0.08043 -0.182033,-0.08467 -0.3175,-0.232833 -0.131233,-0.148166 -0.207433,-0.359833 -0.07197,-0.211666 -0.07197,-0.469899 0,-0.258233 0.07197,-0.4699 0.0762,-0.211666 0.207433,-0.359833 0.135467,-0.1524 0.3175,-0.232833 0.182033,-0.08467 0.402167,-0.08467 0.220133,0 0.402166,0.08467 0.182033,0.08043 0.313266,0.232833 0.135467,0.148167 0.207433,0.359833 0.0762,0.211667 0.0762,0.4699 z m -0.292099,0 q 0,-0.410633 -0.1905,-0.651933 -0.1905,-0.245533 -0.516466,-0.245533 -0.325967,0 -0.516467,0.245533 -0.1905,0.2413 -0.1905,0.651933 0,0.410633 0.1905,0.651932 0.1905,0.2413 0.516467,0.2413 0.325966,0 0.516466,-0.2413 0.1905,-0.241299 0.1905,-0.651932 z"
         id="path19000" />
    </g>
    <g
       aria-label="Fixed"
       id="text386-4-9"
       style="font-weight:300;font-size:4.23333px;font-family:Ubuntu;-inkscape-font-specification:'Ubuntu Light';display:inline;stroke-width:0.264583">
      <path
         d="m 51.490459,38.056759 v -2.933698 h 1.672165 v 0.249767 h -1.384299 v 1.032932 h 1.227666 v 0.249767 h -1.227666 v 1.401232 z"
         id="path19003" />
      <path
         d="m 53.950025,38.056759 h -0.275166 v -2.188632 h 0.275166 z m 0.0635,-2.849031 q 0,0.09737 -0.05927,0.156633 -0.05927,0.05503 -0.143934,0.05503 -0.08467,0 -0.143933,-0.05503 -0.05927,-0.05927 -0.05927,-0.156633 0,-0.09737 0.05927,-0.1524 0.05927,-0.05927 0.143933,-0.05927 0.08467,0 0.143934,0.05927 0.05927,0.05503 0.05927,0.1524 z"
         id="path19005" />
      <path
         d="m 55.363955,37.06616 q -0.09313,0.122766 -0.186266,0.258233 -0.09313,0.135466 -0.182033,0.2667 -0.08467,0.131233 -0.156634,0.253999 -0.07197,0.118534 -0.122766,0.211667 h -0.283633 q 0.173566,-0.325967 0.364066,-0.605366 0.1905,-0.283633 0.389466,-0.554566 l -0.711199,-1.0287 h 0.321733 l 0.567266,0.8382 0.575733,-0.8382 h 0.300567 l -0.6985,1.011766 q 0.0889,0.118533 0.1905,0.258233 0.1016,0.1397 0.2032,0.2921 0.1016,0.148167 0.194733,0.309033 0.09737,0.160867 0.1778,0.3175 h -0.296333 q -0.0508,-0.09313 -0.122767,-0.211667 -0.07197,-0.122766 -0.160866,-0.253999 -0.08467,-0.131234 -0.182033,-0.2667 -0.09313,-0.135467 -0.182034,-0.258233 z"
         id="path19007" />
      <path
         d="m 56.617022,36.960326 q 0,-0.287866 0.08043,-0.499532 0.08467,-0.2159 0.215899,-0.359833 0.135467,-0.143934 0.3048,-0.211667 0.173567,-0.07197 0.3556,-0.07197 0.402166,0 0.639233,0.262467 0.241299,0.262466 0.241299,0.808566 0,0.03387 -0.0042,0.06773 0,0.03387 -0.0042,0.0635 h -1.536699 q 0.0127,0.402166 0.198967,0.618066 0.186266,0.2159 0.592666,0.2159 0.224366,0 0.355599,-0.04233 0.131234,-0.04233 0.1905,-0.07197 l 0.0508,0.237067 q -0.05927,0.03387 -0.224366,0.08043 -0.160867,0.04657 -0.381,0.04657 -0.287866,0 -0.491066,-0.08467 -0.2032,-0.08467 -0.334433,-0.237067 -0.131233,-0.152399 -0.1905,-0.359833 -0.05927,-0.211666 -0.05927,-0.461433 z m 1.553632,-0.173566 q -0.0085,-0.3429 -0.160866,-0.5334 -0.1524,-0.190499 -0.4318,-0.190499 -0.148166,0 -0.2667,0.05927 -0.1143,0.05927 -0.203199,0.160867 -0.08467,0.09737 -0.135467,0.2286 -0.04657,0.131233 -0.05503,0.275166 z"
         id="path19009" />
      <path
         d="m 60.80802,37.989026 q -0.122766,0.04233 -0.313266,0.08043 -0.1905,0.0381 -0.4826,0.0381 -0.2413,0 -0.440266,-0.0762 -0.194733,-0.08043 -0.338666,-0.2286 -0.1397,-0.148166 -0.220134,-0.359833 -0.0762,-0.211666 -0.0762,-0.478366 0,-0.249767 0.0635,-0.4572 0.06773,-0.211666 0.194734,-0.364066 0.126999,-0.1524 0.309033,-0.237067 0.186266,-0.08467 0.423333,-0.08467 0.215899,0 0.372533,0.0635 0.160866,0.05927 0.232833,0.1143 v -1.176866 l 0.275166,-0.0508 z M 60.532854,36.26606 q -0.0381,-0.02963 -0.09737,-0.0635 -0.05503,-0.03387 -0.131233,-0.0635 -0.0762,-0.02963 -0.1651,-0.04657 -0.0889,-0.02117 -0.186266,-0.02117 -0.2032,0 -0.3429,0.07197 -0.135467,0.07197 -0.220133,0.194733 -0.08467,0.118533 -0.122767,0.283633 -0.0381,0.160867 -0.0381,0.3429 0,0.431799 0.2159,0.664633 0.2159,0.228599 0.5715,0.228599 0.203199,0 0.325966,-0.01693 0.127,-0.02117 0.1905,-0.04233 z"
         id="path19011" />
    </g>
  </g>
</svg>
