<svg xmlns="http://www.w3.org/2000/svg" width="1693" height="674">
    <defs />
    <g>
        <path fill="#000000" stroke="none" d="M 459.5 627.9 C 439.20004 627.4 404.5 626.5 382.5 625.9 C 358.4 625.3 298.2 624.9 231.5 625.2 C 111.3 625.5 106.9 625.4 102.1 620.6 C 100 618.4 99.7 616.9 98.8 604.4 C 97.9 590.4 98.9 551.9 101.1 522.5 C 103.5 488.6 110.19999 428.9 118.50001 368 C 121 350.09998 125 319.3 127.5 299.5 C 134.5 244 138.2 221.9 146.6 185.5 C 158.4 134.4 174.2 98.9 192.4 82.3 C 212.6 64.1 242.9 63.6 261.1 81.3 C 271.4 91.5 279.5 106.50001 284.5 125.1 C 285.8 130.1 287.1 134.4 287.3 134.6 C 287.8 135.1 306.7 132.3 307.9 131.6 C 308.4 131.3 309 129.5 309.3 127.6 C 310.2 121.9 315.9 109 320.6 101.9 C 327.2 91.8 339.5 80.9 349.3 76 C 367.89996 66.9 383.7 69.5 398.09998 84 C 406.4 92.4 412.3 103.8 418.1 122.4 C 420.3 129.6 422.49997 136.1 422.8 136.9 C 423.20004 137.6 428.3 139.9 434 142 C 459.9 151.1 482.7 166.6 501.19998 187.60002 C 508.6 196 518.7 210.4 520.9 215.80002 C 521.6 217.5 522.7 219 523.2 219 C 523.7 219 527.8 216.1 532.3 212.6 C 551 198.1 568.5 188 574.9 188 C 582.9 188 587.1 195.7 582.7 202.3 C 581.8 203.7 576.7 207.4 571.3 210.59999 C 559.3 217.6 545.5 227.09999 537.1 234.1 L 530.8 239.29999 L 531.6 243.89998 C 532 246.4 532.6 251.60002 532.9 255.4 L 533.5 262.4 L 543 264.2 C 553.2 266.2 572.7 269.4 584.2 271 C 592.8 272.2 596.6 274.4 598.1 278.7 C 600.5 286 595.2 292 586.3 292 C 582.2 292 553.9 287.2 542.7 284.6 C 531.5 282 531.7 281.9 529.6 290.3 C 525.6 306.2 517.6 323.1 507.4 337 C 492.2 357.9 460.6 379.30002 430.5 389 C 425 390.8 420.1 392.6 419.6 393 C 419.1 393.50003 419.3 401.2 419.9 410.7 C 422.19998 443.1 431.3 530.6 432.5 531.8 C 432.8 532.1 436 530.9 439.79996 529.2 C 478.4 511.39996 521.3 526.8 547.1 567.9 C 561.8 591.3 566.7 622.9 556.3 627.2 C 552.6 628.7 508.1 629 459.5 627.9 Z M 536 608.6 C 536 607.8 535 604.1 533.9 600.4 C 528.4 582.5 516.6 566.9 500.3 556 C 482.7 544.2 467.2 543 449.10004 552.1 C 439.3 557 427.30002 569.1 422.19998 579.1 C 418.8 585.9 416 596.7 416 603.8 L 416 608 L 420.8 608 C 423.4 608 430.5 608.3 436.6 608.7 L 447.8 609.3 L 446.5 601.8 C 443.2 583 443.6 574.3 448 572 C 449 571.4 452.4 571 455.49997 571 C 460.3 571 461.59998 571.4 463.89996 573.8 C 466.6 576.5 467.3 578.7 472 603.3 L 473.1 609 L 483.1 609 L 493 609 L 493 593.5 C 493 571.9 494.4 569 505 569 C 509 569 510.59998 569.5 512.4 571.3 C 515.2 574.1 515.7 577 516.6 595.2 L 517.2 608.9 L 524.4 609.3 C 528.3 609.4 532.5 609.7 533.8 609.8 C 535.1 609.9 536 609.4 536 608.6 Z M 389 599.1 C 389 581.8 392.9 568.9 402.40002 554.6 L 407.9 546.4 L 404.9 520.5 C 395.2 433.5 391.79996 380.6 395.6 375.20004 C 397.4 372.69998 401.7 370.7 410.2 368.5 C 422.19998 365.3 422 365.8 414.7 359.1 C 411.2 355.8 407.49997 351.5 406.49997 349.5 C 405 346.80002 403.6 345.7 400.5 345 C 390.1 342.4 378.2 334 375.4 327.3 C 374.6 325.5 374 321.6 374 318.5 C 374 313.7 374.4 312.5 376.6 310.5 C 378.80002 308.4 380.3 308 385.2 308 C 390.9 308 391.20004 308.1 395.8 312.9 C 403 320.3 407.79996 322.3 416.7 321.8 C 422.49997 321.4 425.50003 320.5 431.3 317.7 C 437.8 314.5 451 304 451 302 C 451 301.6 449.10004 300.5 446.8 299.6 C 440.7 297.1 429.59998 289.6 424.6 284.6 C 417.5 277.5 415.60004 273 415.5 263 C 415.5 255.5 415.8 254 418.2 249.8 C 421.6 244.10002 428.9 239.29999 440.6 235.09999 C 453.69998 230.3 464.5 228.7 482.2 228.6 C 490.9 228.50002 498 228.2 498 227.89998 C 498 226.5 490.5 215.29999 485.1 208.6 C 472.6 193.4 453.5 178.2 436.9 170.6 C 427.8 166.4 409.2 160.7 397.9 158.6 C 373.19998 154 324.5 154 293.6 158.5 C 288.1 159.3 280.9 160 277.5 160 C 272.1 160 271.1 159.7 268.8 157.3 C 265.5 153.8 264.6 151.5 260.4 135.7 C 254.5 112.9 244.6 97.7 233.7 94.50001 C 211.4 87.90001 189.2 119.6 174 180.2 C 164.4 218.3 159.2 248.6 150.5 317 C 148.1 336.5 144.4 364.2 142.5 378.5 C 130.3 467.9 124.3 529.7 122.4 586.3 L 121.7 606 L 131.6 606 C 137 606 145.2 606.3 149.8 606.7 L 158 607.3 L 158 599.9 C 158 575.4 174.4 551.3 202.5 534.5 C 219.4 524.4 232.9 520.8 254 520.7 C 269.1 520.7 276.9 521.9 287.2 525.7 C 300.7 530.7 316.8 543.3 327 556.9 C 337.2 570.4 346 591.2 346 601.7 C 346 604.1 346.1 606.1 346.30002 606.2 C 346.4 606.3 355.5 606.7 366.5 607 C 377.50003 607.3 387.1 607.7 387.8 607.8 C 388.69998 607.9 389 605.7 389 599.1 Z M 213 605.8 C 213 605.1 212.3 600.7 211.49998 596 C 208.70001 580.3 209.9 572.7 215.5 570.2 C 220.7 567.8 229.5 569.4 231.9 573.2 C 232.6 574.3 234.5 581.7 236.10002 589.8 C 237.8 597.8 239.4 604.8 239.6 605.2 C 239.9 605.6 246.3 606 253.8 606 L 267.5 606 L 267.2 588.5 L 266.9 571 L 269.4 568.5 C 271.5 566.5 272.9 566 277.2 566 C 289.1 566 289.9 567.5 291.3 589.7 L 292.3 606 L 304.7 606 L 317 606 L 316.4 603.3 C 312.6 587.2 298.9 568.4 283.6 558.2 C 262 543.8 234.8 546.7 208.9 566.2 C 200.1 572.8 190 584.6 186.7 592 C 184.19998 597.5 182 605.7 182.79999 606.4 C 183.1 606.7 190 607 198.2 607 C 209.4 607 213 606.7 213 605.8 Z M 460.5 345.6 C 464.90002 342.6 471.1 337.7 474.30002 334.8 L 480.10004 329.5 L 474.80002 325.3 L 469.6 321.1 L 464.5 325.9 C 457.50003 332.5 448 338.7 440.9 341.4 L 434.8 343.70004 L 438.19998 345.80002 C 443 348.8 448.10004 350.89996 450.5 351 C 451.6 351 456.1 348.6 460.5 345.6 Z M 499 299.8 C 501.1 295.2 503.20004 290.2 503.6 288.5 L 504.29996 285.5 L 499.5 289.8 C 496.90002 292.1 492.8 295.2 490.4 296.7 C 488 298.3 486 300 486 300.7 C 486 301.9 492.9 307.9 494.3 308 C 494.8 308 496.90002 304.3 499 299.8 Z M 392.50003 125.80001 C 392.1 124.5 390.1 119.8 388 115.3 C 383.60004 105.9 376.50003 97.6 371.4 96 C 363.30002 93.299995 346.6 105.80001 339.5 120 L 336 127 L 359.70004 127.3 C 372.8 127.399994 385.7 127.6 388.3 127.8 C 392.9 128 393.1 127.90001 392.50003 125.80001 Z" />
        <path fill="#000000" stroke="none" d="M 180.39998 511.60004 C 178.8 510.4 178.4 508.7 178.1 501.6 C 177.9 495.8 178.2 492.5 179 491.5 C 180.3 489.9 188.50002 489.4 190.7 490.80002 C 194.59999 493.3 196.6 508.3 193.4 511.39996 C 191.4 513.4 183.1 513.5 180.39998 511.60004 Z" />
        <path fill="#000000" stroke="none" d="M 161.6 509.4 C 158.5 506.4 160 493.2 163.8 488.79996 C 166 486.19998 172.39998 486.4 175.1 489.1 C 177 491 177.20001 492.1 176.8 498.6 C 176.1 508.6 174.5 511 168 511 C 164.9 511 162.6 510.4 161.6 509.4 Z" />
        <path fill="#000000" stroke="none" d="M 216.6 440.50003 C 213 436.9 211.60002 422.49997 214.6 419.6 C 215.6 418.5 217.9 418 221.3 418 C 228 418 229.2 419.8 229.8 430.59998 C 230.2 437.19998 229.9 438.9 228.50002 440.29996 C 226.4 442.5 218.7 442.6 216.6 440.50003 Z" />
        <path fill="#000000" stroke="none" d="M 196.2 438.4 C 194.3 437.1 194 436 194 430 C 194 423 195.2 418.1 197.3 416.8 C 199.29999 415.5 205.5 415.89996 207.6 417.40002 C 209.20001 418.6 209.5 420.1 209.5 427.5 C 209.5 435.4 209.3 436.3 207.1 438.1 C 204.3 440.4 199.29999 440.6 196.2 438.4 Z" />
        <path fill="#000000" stroke="none" d="M 175.6 436.4 C 174.6 435.4 174 433.10004 174 430 C 174 420.8 177.5 416 184.1 416 C 190.4 416 192 417.3 192 422.4 C 192 427.6 189.6 435 187.3 436.8 C 184.9 438.49997 177.5 438.3 175.6 436.4 Z" />
        <path fill="#000000" stroke="none" d="M 184.5 355.5 C 182.5 353.6 182 352 181.9 347.8 L 181.9 342.5 L 180.50002 347.4 C 178.9 353.6 177 355 170.4 355 C 166.1 355 164.8 354.6 163.6 352.8 C 160.5 348.4 162.6 334 167 329.2 C 168.6 327.5 170.2 327 174 327 C 180.50002 327 182 328.6 182.1 335.8 L 182.2 341.5 L 183.1 337.5 C 184.30002 332.6 186.2 331 191.2 331 C 196.6 331 198.5 333.4 199.29999 340.9 C 200.6 353.5 198.4 358 190.7 358 C 188 358 186.2 357.3 184.5 355.5 Z" />
        <path fill="#000000" stroke="none" d="M 280.9 301.7 C 269.4 297.8 261.6 290.9 256.2 280 C 253.7 274.9 253.5 273.6 253.5 262 C 253.5 250.5 253.7 249 256.2 243.7 C 263.8 227.49998 283 217.1 305.2 217 C 328.4 217 343.9 226.8 348.5 244.50002 C 352.5 260.1 348.6 276.8 338.1 288.2 C 327.3 300 317.4 304 299.2 304 C 289.7 304 286.2 303.5 280.9 301.7 Z" />
        <path fill="#000000" stroke="none" d="M 1374.5 581.1 C 1368.7 578.5 1364.4 573.1 1363 566.8 C 1362.2 563 1362 537.8 1362.2 476 C 1362.5 380.9 1362 387.7 1369.4 381.3 C 1379.4001 372.5 1395.4 375.20004 1401.8002 386.8 L 1404.2 391 L 1408.8 386.9 C 1418.3002 378.6 1429.3 374.8 1444 374.8 C 1461.1001 374.8 1473.1 379.8 1485 391.9 C 1493.8 400.7 1499.3999 410.7 1503.6 424.50003 C 1507.1998 436.6 1508.1 457.50003 1505.5 470.1 C 1501.1 491.8 1490.6998 508.7 1475.4 518.8 C 1465 525.8 1449.6 529.1 1436.8002 527.3 C 1426 525.7 1419.2 522.7 1411.1 516 L 1404 510 L 1404 537.2 C 1404 553.2 1403.5999 566.1 1402.9 568.3 C 1400.7 576.4 1391.8 583 1383 583 C 1380.5 583 1376.7 582.1 1374.5 581.1 Z M 1446.6001 487.6 C 1452.7 484.8 1458.2 478.59998 1461.2 471.1 C 1463.2 466.2 1463.5 463.8 1463.5 450.5 C 1463.5 436 1463.4 435.3 1460.6 429.2 C 1457.2 421.8 1450.2 415 1444.2 413.2 C 1439.1 411.6 1427.8 411.7 1422.6 413.2 C 1420.2001 413.9 1416.6 416.3 1413.9 419 C 1407.4 425.29996 1404.9 432.5 1404.2 446.3 C 1403.4 464.2 1407.1 476.4 1415.5 483.8 C 1421 488.6 1424.5 489.80002 1434 489.9 C 1439.9 490 1442.5999 489.50003 1446.6001 487.6 Z" />
        <path fill="#000000" stroke="none" d="M 1568.5 527.9 C 1547.3 525.1 1528.5 514.7 1521.6 502 C 1516.4999 492.6 1519.2 482.7 1528.7 476.9 C 1531.5 475.2 1533.8002 474.6 1538.4001 474.7 C 1546.1 474.7 1550 476.4 1557.5001 482.9 C 1566.8002 490.9 1572.4 493.3 1582.3 493.4 C 1591.7001 493.4 1596.3999 491.6 1598.1 487.3 C 1600.5 480.90002 1595.8002 477.1 1574.5 468.5 C 1553.7 460 1543.6001 454.49997 1536.8 447.89996 C 1515.4 427 1522.2 393.80002 1550.5 380.3 C 1573.8 369.2 1606.6 373.4 1622.5 389.4 C 1628.8002 395.8 1631.3 400.8 1631.7 408.50003 C 1632.3 419.1 1626 426 1615.7 426 C 1609.3 426 1605 424 1597 417.5 C 1593.3 414.5 1588.7 411.30002 1586.7 410.5 C 1579.6 407.49997 1568.3 409.2 1566.5999 413.5 C 1566.3 414.4 1566 416.5 1566 418 C 1566 422.4 1570.3 425 1592.6 434.3 C 1622.7999 446.8 1630.9 452 1636.5 462.09998 C 1639.4 467.3 1639.5 468 1639.5 480 C 1639.5 492.3 1639.4 492.6 1635.9 500.1 C 1627.5 517.6 1610.5 527.1 1585 528.4 C 1579.8 528.6 1572.4 528.4 1568.5 527.9 Z" />
        <path fill="#000000" stroke="none" d="M 1234.8 525 C 1229.9 522.4 1225.4 516.7 1224.1 511.39996 C 1222.6 505.4 1222.6 340.6 1224.1 334.6 C 1227.2 322.4 1241.1 315.7 1252.5 320.9 C 1257.6 323.2 1262.6 328.8 1263.9 333.7 C 1265.4 339 1265.4 507.1 1263.9 512.3 C 1262.6 516.9 1257.2 523.2 1252.6 525.4 C 1248 527.6 1239.4 527.4 1234.8 525 Z" />
        <path fill="#000000" stroke="none" d="M 1301.5 525.3 C 1297.1 523 1294.1 520 1291.7 515.5 C 1289.5 511.5 1289.5 511 1289.5 452 L 1289.5 392.50003 L 1292 388 C 1298.7 376.20004 1313.6 373.5 1323.7 382.3 C 1331.2 388.9 1331 386.5 1331 452 C 1331 506.9 1330.8 510.7 1329.1 514.5 C 1326.9 519.2 1321.7 524.4 1317.7 525.9 C 1313.6 527.5 1305 527.2 1301.5 525.3 Z" />
        <path fill="#000000" stroke="none" d="M 1066.1 523.9 C 1060.1 522.7 1054.4 518.6 1051.2 513.1 L 1048.5 508.5 L 1048.5 426 L 1048.5 343.5 L 1051.2 338.9 C 1054.4 333.5 1059.8 329.5 1066 328.1 C 1072 326.7 1123.7 326.7 1133.7 328.1 C 1166.2 332.5 1187.5 355 1187.3 384.5 C 1187.2 398.09998 1182.5 410.4 1174.2 419.3 L 1171.5 422.1 L 1176 425.80002 C 1198.6 444.1 1204.9 468.5 1193.1 492.5 C 1184.3 510.4 1167.3 521.3 1144.1 524 C 1133.7 525.2 1072.3 525.1 1066.1 523.9 Z M 1140.3 484.9 C 1148.5 482.7 1154.9 473.80002 1155 464.7 C 1155 456.29996 1151 449.6 1143.8 445.9 C 1140.4 444.2 1137.7 444 1115.5 444 L 1091 444 L 1091 465 L 1091 486 L 1113.8 486 C 1126.5 486 1138.2 485.5 1140.3 484.9 Z M 1127.1 406 C 1137.1 404.1 1143 397 1143 386.9 C 1143 379.2 1139.8 373.4 1133.5 369.5 L 1128.7 366.5 L 1109.8 366.2 L 1091 365.8 L 1091 386.40002 L 1091 407 L 1106.4 407 C 1114.8 407 1124.1 406.49997 1127.1 406 Z" />
        <path fill="#000000" stroke="none" d="M 1300.5 360.1 C 1289 354.9 1284.7 339.4 1291.1 326.3 C 1294.1 320.2 1299.5 316.7 1307.1 316.2 C 1315.9 315.5 1319.6 316.6 1324.6 321.2 C 1336.3 332 1333.5 353.8 1319.6 360.1 C 1314.3 362.5 1305.7 362.5 1300.5 360.1 Z" />
    </g>
    <g>
        <path fill="#9a6938" stroke="none" d="M 118.50001 601 C 118.8 596.3 119.5 581.9 120 569 C 122.4 514 128.2 457.4 141 363.7 C 143.2 347.9 146.6 322.2 148.5 306.7 C 155.9 247.9 161.7 214.1 171 177.20001 C 182.2 132.6 198.3 101.49999 214.2 93.4 C 220.7 90.1 229.1 89.299995 236.2 91.399994 C 247.6 94.700005 257.3 109.49999 263.4 132.7 C 267.6 148.5 268.5 150.8 271.8 154.3 C 274.8 157.5 276.6 157.6 290.6 155.5 C 322 150.9 375.79996 150.9 400.90002 155.6 C 412.2 157.7 430.8 163.4 439.9 167.6 C 464.3 178.9 489.29996 202.4 501 225.20001 C 503.79996 230.5 506 235.3 506 235.89998 C 506 236.39998 503.4 235.7 500.3 234.2 C 494.89996 231.69998 493.59998 231.5 482 231.6 C 454.6 231.80002 428.2 241 421.3 252.7 C 417.8 258.6 417.7 266.6 420.9 272.8 C 425.4 281.5 439.49997 292.6 452.1 297.4 L 458.1 299.7 L 454.1 304.8 C 442.80002 319 424.9 327.2 409.50003 325.1 C 402.9 324.2 398.5 321.7 392.79996 315.9 C 389.3 312.3 387.3 311 385.2 311 C 382.09998 311 377 314.9 377 317.2 C 377 318 373.6 319.4 368.3 320.8 C 333.6 329.7 307.6 357 289.5 403.5 C 278 432.7 268.7 473.7 265 511.60004 L 263.7 523.8 L 253.6 523.8 C 235.89998 523.9 221.3 528 205.5 537.5 C 177.5 554.2 161 578.4 161 602.7 L 161 610 L 139.5 609.7 L 118 609.5 L 118.50001 601 Z M 190.4 508.4 C 192.4 506.4 192.4 503.1 190.4 498 C 188.6 493.5 185.1 491.8 182.4 494.09998 C 180.10002 496 180.90001 506.7 183.5 508.6 C 186 510.4 188.50002 510.4 190.4 508.4 Z M 171.4 505.80002 C 173.3 502.9 174.4 496.8 173.5 494.09998 C 172.50002 490.80002 169.2 489.50003 167.1 491.4 C 165.2 493.1 163 499.3 163 502.8 C 163 507.6 168.9 509.7 171.4 505.80002 Z M 225.5 437.3 C 226.9 436 227.09999 434.5 226.7 430.4 C 226.1 424.20004 224.30002 421 221.3 421 C 216.6 421 215 425 217 432.2 C 218.8 438.6 222.2 440.6 225.5 437.3 Z M 206.4 431.2 C 209 422 201.1 414.4 198.1 423.20004 C 196.2 428.5 196.7 433.7 199.2 435.4 C 201.1 436.69998 201.7 436.8 203.49998 435.6 C 204.6 434.9 205.9 432.90002 206.4 431.2 Z M 184.30002 433.8 C 185.9 432.5 189 425.1 189 422.4 C 189 421.69998 188 420.6 186.9 419.9 C 183.9 418.3 180.7 420 178.7 424.29996 C 176.6 428.7 176.6 431.39996 178.59999 433.40002 C 180.50002 435.3 182.1 435.4 184.30002 433.8 Z M 194 353.2 C 195.8 351.7 196.2 350.4 196.10002 345.6 C 196.10002 338.4 195.4 336.3 192.9 335 C 189.7 333.2 187.3 335.4 186.1 341 C 184.5 348.3 184.70001 349.8 187.49998 352.5 C 190.4 355.5 191.1 355.5 194 353.2 Z M 174.9 350.09998 C 176.70001 348.3 179 340.3 179 335.5 C 179 330.3 173.6 328.3 170 332.2 C 168 334.3 165 342.6 165 346 C 165 351.09998 171.2 353.8 174.9 350.09998 Z M 313.9 299.1 C 321.9 296.6 328.8 292.1 335.1 285.2 C 341.2 278.5 344.6 271.5 346.2 262.1 C 347.7 253.3 345.6 243.89998 340.5 236.39998 C 329 219.7 302.4 215.2 280 226.2 C 271.7 230.2 262.8 239 259.2 246.7 C 256.9 251.7 256.5 253.8 256.5 262 C 256.5 270.3 256.8 272.2 259.2 277 C 266.9 292.6 280.7 300.9 299.2 301 C 304.9 301 309.9 300.4 313.9 299.1 Z" />
        <path fill="#9a6938" stroke="none" d="M 180.50002 598.4 C 183.4 582.6 201.6 563 222.3 553.1 C 244 542.8 269.2 543.6 286.6 555.2 C 298.7 563.3 311.1 578.2 316.5 591.4 L 318.1 595.3 L 313.3 594.6 C 310.7 594.2 304.9 593.7 300.5 593.4 C 287.5 592.5 288.4 593.2 287.7 584.2 C 287.5 579.8 286.5 574.9 285.6 573.3 C 283.1 568.4 276.4 567.5 272.5 571.5 C 270.2 573.7 270 574.7 270 583 L 270 592 L 255.29999 592 C 247.1 592 238.9 592.3 236.90001 592.6 L 233.3 593.2 L 231.6 585.4 C 229.7 576.4 228.8 574.9 224.4 573.1 C 220.3 571.5 215.80002 573.5 214 577.9 C 212.90001 580.7 213.2 589.8 214.6 593.5 C 215 594.3 212.6 595.1 207.29999 596 C 203 596.7 195.8 598.3 191.2 599.6 C 180 602.9 179.60002 602.8 180.50002 598.4 Z" />
        <path fill="#9a6938" stroke="none" d="M 413.4 595.4 C 415.39996 581.2 419.9 572.2 430.8 560.8 C 439.20004 552 449.40002 546.1 459.7 544 C 468 542.2 483.1 543.2 490.30002 546 C 506.2 552 523.6 568.4 532 585 C 535.2 591.5 537.4 597.9 536.6 598.7 C 536.3 599 530.9 598.6 524.5 597.9 L 513 596.6 L 512.9 589 C 512.9 584.9 512.4 579.9 511.7 578 C 510.09998 573.5 506.2 571.2 502.3 572.5 C 498.1 574 496 579.1 496 587.8 L 496 595 L 481.5 595 L 467 595 L 466.40002 592.3 C 463.89996 581 462.89996 578.3 460.5 576.3 C 457.7 573.9 454.1 573.4 451 575 C 448.10004 576.5 446.89996 581.7 447.89996 588.5 C 448.39996 591.8 448.60004 594.8 448.3 595.3 C 448.10004 595.7 445.8 596 443.2 596 C 438.8 596 424 598 416.10004 599.6 L 412.7 600.3 L 413.4 595.4 Z" />
        <path fill="#9a6938" stroke="none" d="M 489.7 310 C 484.9 306.5 479.09998 299.6 480.10004 298.5 C 480.3 298.4 483.9 295.9 488.1 293.1 C 496.39996 287.6 505.80002 278.1 509 272.2 C 510.7 268.8 510.89996 268.7 511 271 C 511 276.5 505.7 294.9 501.3 304.2 C 498.8 309.6 496.39996 314 496 314 C 495.60004 314 492.8 312.2 489.7 310 Z" />
    </g>
    <g>
        <path fill="#498d34" stroke="none" d="M 941.5 527.9 C 920.3 525.1 901.5 514.7 894.6 502 C 889.5 492.6 892.19995 482.7 901.7 476.9 C 904.5 475.2 906.8 474.6 911.4001 474.7 C 919.1 474.7 923 476.4 930.50006 482.9 C 939.8 490.9 945.4 493.3 955.3 493.4 C 964.7 493.4 969.39996 491.6 971.1 487.3 C 973.5 480.90002 968.8 477.1 947.5 468.5 C 926.7 460 916.60004 454.49997 909.8 447.89996 C 888.4 427 895.2001 393.80002 923.5 380.3 C 946.8 369.2 979.60004 373.4 995.50006 389.4 C 1001.8 395.8 1004.3 400.8 1004.69995 408.50003 C 1005.3 419.1 999 426 988.7 426 C 982.3 426 978 424 970 417.5 C 966.3 414.5 961.7 411.30002 959.7 410.5 C 952.6 407.49997 941.3 409.2 939.6 413.5 C 939.3 414.4 939 416.5 939 418 C 939 422.4 943.2999 425 965.6 434.3 C 995.80005 446.8 1003.9 452 1009.5 462.09998 C 1012.4 467.3 1012.5 468 1012.5 480 C 1012.5 492.3 1012.4 492.6 1008.9 500.1 C 1000.5 517.6 983.5 527.1 958 528.4 C 952.8 528.6 945.4 528.4 941.5 527.9 Z" />
        <path fill="#498d34" stroke="none" d="M 564.5 525.7 C 560.2 523.7 554.3 516.7 553 512.1 C 552.3 509.4 552 481.7 552.2 423.79996 L 552.5 339.5 L 554.9 335.3 C 558.8 328.5 563.9 325.6 572.5 325.2 C 580.3 324.8 585.4 326.5 589.7 331.2 C 594.6 336.4 595 339.1 595 367.09998 C 595 383.89996 595.4 393 596 392.79996 C 596.5 392.6 611.4 378.80002 629.1 362 C 646.8 345.2 663.5 330.2 666.2 328.6 C 676.1 322.8 688.5 325.7 694.7 335.2 C 696.89996 338.4 697.5 340.7 697.8 345.9 C 698.1 351.7 697.8 353.10004 695.3 357.1 C 693.7 359.70004 682.1 371.6 668.5 384.5 C 655 397.2 644.5 407.9 644.6 408.79996 C 644.6 409.80002 657.7 429.9 673.7 453.5 C 689.5999 477.2 703.2001 498 703.9001 499.9 C 705.6 505.2 705.2001 509.2 702.3 515.1 C 698.4 522.7 693 526.3 684.6 526.8 C 677.5 527.3 672.5 525.3 667.9 520.3 C 666.4 518.8 653.4 500.2 639 479 C 624.6 457.80002 612.4 440.1 611.9 439.49997 C 611.3 438.9 608 441.6 603 446.5 L 595 454.49997 L 595 483.1 C 595 511.09998 595 511.8 592.7 516.1 C 591.4 518.5 588.4 521.8 586.1 523.5 C 582.5 526 580.8 526.5 574.7 526.7 C 570.2 526.9 566.4 526.5 564.5 525.7 Z" />
        <path fill="#498d34" stroke="none" d="M 733.49994 525.3 C 729.1 523 726.1 520 723.7 515.5 C 721.5 511.5 721.5 511 721.5 452 L 721.5 392.50003 L 724 388 C 730.7 376.20004 745.6 373.5 755.7 382.3 C 763.19995 388.9 763 386.5 763 452 C 763 506.9 762.8 510.7 761.1 514.5 C 758.9 519.2 753.7001 524.4 749.69995 525.9 C 745.6 527.5 737 527.2 733.49994 525.3 Z" />
        <path fill="#498d34" stroke="none" d="M 834 525.4 C 819.60004 521.5 808.5 509.8 805.10004 494.89996 C 804.5 492.4 804 474.80002 804 453.4 L 804 416.3 L 799.3 415.60004 C 783.5 413.5 776.5 396.7 786.8 385.6 C 790.2 382 794.8 380 799.9001 380 L 803.80005 380 L 804.2 371.1 C 804.5 363.1 804.80005 361.7 807.5 357.8 C 811.8 351.7 817 349 824.5 349 C 832 349 837.2 351.7 841.5 357.8 C 844.2 361.7 844.5 363.1 844.8 371 L 845.2 379.9 L 861.4 380.2 C 877.6 380.5 877.69995 380.5 881.4 383.39996 C 885.60004 386.6 889 392.9 889 397.5 C 889 404.8 882.5 412.9 875.2 415 C 873.2 415.5 865.50006 416 858.3 416 L 845 416 L 845 448.8 C 845 466.8 845.3 482.5 845.6 483.7 C 846.5 487.20004 849.4 487.4 855.7 484.3 C 863.49994 480.60004 870 480.60004 876.2 484.3 C 881.5999 487.4 884.30005 490.80002 886 496.7 C 889.8 509.3 880.5999 521 863.49994 525.5 C 856.1 527.4 841.3 527.4 834 525.4 Z" />
        <path fill="#498d34" stroke="none" d="M 732.49994 360.1 C 721 354.9 716.69995 339.4 723.1 326.3 C 726.1 320.2 731.5 316.7 739.0999 316.2 C 747.9 315.5 751.5999 316.6 756.60004 321.2 C 768.3 332 765.49994 353.8 751.5999 360.1 C 746.3 362.5 737.7 362.5 732.49994 360.1 Z" />
    </g>
    <g>
        <path fill="#ffffff" stroke="none" d="M 521.3 612.3 L 514 611.9 L 513.8 605.5 C 513.4 592.1 513 593.5 517.5 593.8 C 519.7 594 524.9 594.6 529.2 595.1 L 536.8 596.2 L 537.8 600.4 C 538.4 602.6 539.1 606.4 539.5 608.8 L 540.2 613 L 534.3 612.8 C 531.1 612.7 525.2 612.4 521.3 612.3 Z" />
        <path fill="#ffffff" stroke="none" d="M 421.8 611.3 L 413 610.9 L 413 604 C 413 600.2 413.4 596.9 413.8 596.6 C 415 595.9 434.9 593.2 442 592.8 L 448.39996 592.5 L 449.7 599.5 C 450.3 603.4 450.9 607.7 450.9 609.3 L 451 612 L 440.79996 611.8 C 435.1 611.7 426.6 611.4 421.8 611.3 Z" />
        <path fill="#ffffff" stroke="none" d="M 469 606.3 C 468.4 603.1 467.5 598.6 467.1 596.3 L 466.2 592 L 481.10004 592 L 496 592 L 496 602 L 496 612 L 483.1 612 L 470.1 612 L 469 606.3 Z" />
        <path fill="#ffffff" stroke="none" d="M 363.5 610 C 352.5 609.7 343.4 609.3 343.3 609.2 C 343.1 609.1 343 607.1 343 604.7 C 343 598.1 339.3 586.5 333.9 576 C 319.2 547.6 295.3 528.8 268.4 524.6 L 260.5 523.4 L 260.8 520 C 264.8 474.9 274.3 431 287.1 398.7 C 304.8 354.2 330.5 327.2 364 318 C 374.4 315.2 377 315.3 377 318.5 C 377 327.5 389.4 338.5 403.6 342 C 406.4 342.7 408 343.79996 408.79996 345.50003 C 410.5 349.3 417.8 356.8 424.29996 361.7 L 430.2 366 L 427.30002 367.09998 C 425.80002 367.7 420.5 369.3 415.5 370.7 C 397.3 376 397 376.29996 397 390.6 C 397 407.20004 401 453.6 407.6 514.6 L 411.4 548.6 L 405.6 557.2 C 395.9 571.9 392 584.7 392 602.1 L 392 611 L 387.8 610.8 C 385.40002 610.7 374.49997 610.3 363.5 610 Z" />
        <path fill="#ffffff" stroke="none" d="M 179.7 609.3 C 178.8 608.5 178.8 604.3 179.60002 601.3 C 180.3 598.7 187.49998 596.1 201.5 593.5 C 214 591.1 214.2 591.2 215.6 599.3 C 216.30002 603 217.20001 607 217.5 608 C 218.1 609.9 217.6 610 199.2 610 C 188.8 610 180 609.7 179.7 609.3 Z" />
        <path fill="#ffffff" stroke="none" d="M 236.7 608.3 C 236.39998 607.8 235.4 603.8 234.4 599.2 C 232.9 592 232.8 590.7 234.1 589.9 C 234.9 589.4 243.3 589 252.8 589 L 270 589 L 270 593.8 C 270 596.4 270.3 600.9 270.6 603.8 L 271.3 609 L 254.2 609 C 244.8 609 236.90001 608.7 236.7 608.3 Z" />
        <path fill="#ffffff" stroke="none" d="M 288.7 599.3 C 288.4 593.9 288.2 589.4 288.4 589.3 C 288.7 588.9 313.4 591 315.2 591.6 C 316.9 592.1 319.2 598 320.6 605.6 L 321.2 609 L 305.3 609 L 289.3 609 L 288.7 599.3 Z" />
    </g>
    <g>
        <path fill="#6f4214" stroke="none" d="M 446.7 353.90002 C 444.6 353.40002 441.50003 352.3 439.70004 351.39996 C 435.3 349.1 426.80002 342.9 427.4 342.3 C 427.6 342 431.39996 340.6 435.8 339.1 C 445.3 335.8 457 328 464.5 319.8 C 469.3 314.7 470 314.2 470.9 315.8 C 471.70004 317.3 478 322.7 484.5 327.5 C 486.4 328.9 486.19998 329.2 479.3 335.8 C 471.6 343.3 454.9 355.1 452.2 354.9 C 451.3 354.8 448.8 354.40002 446.7 353.90002 Z" />
        <path fill="#6f4214" stroke="none" d="M 385 131 C 381.4 130.6 367.8 130.2 354.8 130.1 L 331.1 130 L 332.4 126.19999 C 337.4 112.09999 347.2 100.2 358.1 95 C 368.60004 90.1 375.3 91.2 382.7 99.3 C 385 101.80001 388.3 106.700005 390.1 110.19999 C 393 116 398 129.2 398 131.2 C 398 132.1 394.6 132 385 131 Z" />
    </g>
</svg>