<svg xmlns="http://www.w3.org/2000/svg" width="596.4567" height="1517.7166">
    <defs />
    <g transform="matrix(11.811024 0 0 11.811024 0 0)">
        <g id="layer1">
            <path id="rect6639" fill="#cccccc" stroke="none" d="M -0.3157248 0 L 50.200245 0 L 50.200245 128.5 L -0.3157248 128.5 Z" />
            <path id="path5722" fill="#000000" stroke="none" d="M 33.283234 57.26603 C 32.648705 57.17184 32.031475 56.974834 31.39542 56.89106 C 31.245687 56.871346 31.093197 56.83785 30.943539 56.858124 C 30.806202 56.876717 30.684229 56.95603 30.554573 57.004986 C 30.439892 57.15549 30.299477 57.289494 30.210527 57.45651 C 29.97979 57.889755 29.80221 58.629196 29.712454 59.084404 C 29.4752 60.287643 29.400143 61.511738 29.315546 62.732204 C 29.154892 65.510864 29.216955 68.29493 29.256876 71.07597 C 29.274496 72.4653 29.307285 73.857216 29.461424 75.23893 C 29.517366 75.744316 29.562225 76.24975 29.64223 76.75199 C 29.64223 76.75199 30.525244 77.18398 30.525244 77.18398 L 30.525244 77.18398 C 30.44054 76.68143 30.389297 76.175766 30.3313 75.66949 C 30.162071 74.2835 30.101261 72.88761 30.076942 71.49189 C 30.013233 68.71205 29.949657 65.92845 30.123114 63.15093 C 30.211485 61.938656 30.288965 60.723022 30.535479 59.529476 C 30.625948 59.091473 30.807379 58.36688 31.037645 57.9497 C 31.120398 57.799786 31.25276 57.683216 31.360312 57.549973 C 31.481283 57.511333 31.596827 57.446342 31.72322 57.43405 C 31.870232 57.41976 32.018448 57.451252 32.164722 57.47176 C 32.806602 57.561752 33.43189 57.75181 34.069717 57.864147 C 34.069717 57.864147 33.28323 57.26603 33.28323 57.26603 Z" />
            <path id="path5732" fill="#000000" stroke="none" d="M 31.03932 90.89577 C 31.02397 91.51302 30.94551 92.12689 30.884014 92.74078 C 30.884014 92.74078 31.739809 93.18759 31.739809 93.18759 L 31.739809 93.18759 C 31.800798 92.57303 31.876831 91.959595 31.91766 91.34331 C 31.91766 91.34331 31.03932 90.89577 31.03932 90.89577 Z" />
            <g id="text4660-8-1-0">
                <path id="path6454" fill="#000000" stroke="none" d="M 23.793549 106.53825 Q 23.165163 106.53825 22.791025 106.1207 Q 22.418957 105.70317 22.418957 105.0355 Q 22.418957 104.3265 22.801361 103.900696 Q 23.185835 103.4728 23.84936 103.4728 Q 24.448803 103.4728 24.818808 103.88415 Q 25.190878 104.29343 25.190878 104.95903 Q 25.190878 105.69489 24.81054 106.11657 Q 24.4302 106.53825 23.793549 106.53825 Z M 23.814219 103.65884 Q 23.297455 103.65884 22.962591 104.03298 Q 22.629795 104.40711 22.629795 105.01276 Q 22.629795 105.6246 22.946056 105.98841 Q 23.262314 106.35015 23.789413 106.35015 Q 24.33925 106.35015 24.659643 105.99255 Q 24.980038 105.63288 24.980038 104.992096 Q 24.980038 104.3637 24.665846 104.01231 Q 24.35372 103.65884 23.814219 103.65884 Z" />
                <path id="path6456" fill="#000000" stroke="none" d="M 27.816038 105.30215 Q 27.816038 106.53825 26.76184 106.53825 Q 25.759317 106.53825 25.759317 105.34762 L 25.759317 103.52241 L 25.96189 103.52241 L 25.96189 105.31869 Q 25.96189 106.35015 26.801113 106.35015 Q 27.613466 106.35015 27.613466 105.34762 L 27.613466 103.52241 L 27.816038 103.52241 Z" />
                <path id="path6458" fill="#000000" stroke="none" d="M 29.343594 103.71052 L 29.343594 106.48657 L 29.141024 106.48657 L 29.141024 103.71052 L 28.285257 103.71052 L 28.285257 103.52241 L 30.199354 103.52241 L 30.199354 103.71052 Z" />
                <path id="path6460" fill="#000000" stroke="none" d="M 30.453602 106.97853 L 30.263432 106.97853 L 31.695902 103.52241 L 31.894339 103.52241 Z" />
                <path id="path6462" fill="#000000" stroke="none" d="M 32.254005 106.48657 L 32.254005 103.52241 L 32.458645 103.52241 L 32.458645 106.30054 L 33.6472 106.30054 L 33.6472 106.48657 Z" />
            </g>
            <g id="text4660-8-1-0-1">
                <path id="path6465" fill="#000000" stroke="none" d="M 39.03933 106.25848 Q 38.410946 106.25848 38.036808 105.84093 Q 37.664738 105.42339 37.664738 104.75573 Q 37.664738 104.04672 38.047146 103.62092 Q 38.431618 103.19304 39.095142 103.19304 Q 39.694588 103.19304 40.06459 103.60438 Q 40.43666 104.01366 40.43666 104.67925 Q 40.43666 105.41513 40.056324 105.8368 Q 39.675983 106.25848 39.03933 106.25848 Z M 39.06 103.37907 Q 38.543236 103.37907 38.208374 103.75322 Q 37.87558 104.12734 37.87558 104.73299 Q 37.87558 105.34484 38.191837 105.70863 Q 38.5081 106.07038 39.035194 106.07038 Q 39.585033 106.07038 39.905426 105.71278 Q 40.22582 105.35311 40.22582 104.71232 Q 40.22582 104.08394 39.91163 103.73253 Q 39.599503 103.37907 39.06 103.37907 Z" />
                <path id="path6467" fill="#000000" stroke="none" d="M 43.06182 105.022385 Q 43.06182 106.25848 42.00762 106.25848 Q 41.0051 106.25848 41.0051 105.06785 L 41.0051 103.24264 L 41.207672 103.24264 L 41.207672 105.03892 Q 41.207672 106.07038 42.046898 106.07038 Q 42.85925 106.07038 42.85925 105.06785 L 42.85925 103.24264 L 43.06182 103.24264 Z" />
                <path id="path6469" fill="#000000" stroke="none" d="M 44.589375 103.43075 L 44.589375 106.2068 L 44.3868 106.2068 L 44.3868 103.43075 L 43.531044 103.43075 L 43.531044 103.24264 L 45.445137 103.24264 L 45.445137 103.43075 Z" />
                <path id="path6471" fill="#000000" stroke="none" d="M 45.699383 106.69876 L 45.509216 106.69876 L 46.941685 103.24264 L 47.14012 103.24264 Z" />
                <path id="path6473" fill="#000000" stroke="none" d="M 49.01701 106.2068 L 48.622196 105.33863 Q 48.500244 105.06992 48.378284 104.97897 Q 48.256332 104.88598 48.072365 104.88598 L 47.704426 104.88598 L 47.704426 106.206825 L 47.49979 106.206825 L 47.49979 103.24266 L 48.32248 103.24266 Q 48.715218 103.24266 48.93846 103.45557 Q 49.163773 103.66641 49.163773 104.01368 Q 49.163773 104.33407 48.979797 104.54904 Q 48.795834 104.76403 48.4651 104.82603 L 48.4651 104.83403 Q 48.640804 104.90433 48.80823 105.26191 L 49.248524 106.20654 Z M 47.704426 103.43075 L 47.704426 104.69993 L 48.214993 104.69993 Q 48.55399 104.69993 48.752426 104.52215 Q 48.95293 104.34439 48.95293 104.03433 Q 48.95293 103.75114 48.773094 103.59198 Q 48.593258 103.43075 48.2584 103.43075 Z" />
            </g>
            <g id="text4795">
                <path id="path6528" fill="#000000" stroke="none" d="M 39.874775 48.309017 L 39.472042 48.309017 L 39.472042 45.989082 Q 39.472042 45.714165 39.505802 45.31626 L 39.4962 45.31626 Q 39.43832 45.55018 39.3925 45.651466 L 38.210835 48.309017 L 38.01304 48.309017 L 36.833782 45.670757 Q 36.783142 45.555 36.730083 45.31626 L 36.72048 45.31626 Q 36.739773 45.52365 36.739773 45.993908 L 36.739773 48.309017 L 36.3491 48.309017 L 36.3491 44.850822 L 36.884468 44.850822 L 37.94556 47.262394 Q 38.06855 47.539726 38.104725 47.677185 L 38.119194 47.677185 Q 38.222893 47.39262 38.28559 47.25275 L 39.36839 44.850822 L 39.874817 44.850822 Z" />
                <path id="path6530" fill="#000000" stroke="none" d="M 40.933453 45.21256 Q 40.827347 45.21256 40.752586 45.14021 Q 40.677826 45.06786 40.677826 44.95693 Q 40.677826 44.845997 40.752586 44.773647 Q 40.827347 44.69889 40.933453 44.69889 Q 41.041973 44.69889 41.116734 44.773647 Q 41.193905 44.846004 41.193905 44.95693 Q 41.193905 45.06304 41.116734 45.1378 Q 41.041973 45.21256 40.933453 45.21256 Z M 41.12638 48.309017 L 40.73088 48.309017 L 40.73088 45.839565 L 41.12638 45.839565 Z" />
                <path id="path6532" fill="#000000" stroke="none" d="M 43.730877 45.839565 L 42.9013 47.088764 L 43.716408 48.309017 L 43.2558 48.309017 L 42.771072 47.508373 Q 42.72525 47.433617 42.66255 47.320274 L 42.65295 47.320274 Q 42.640892 47.341972 42.539608 47.508373 L 42.045235 48.309017 L 41.589447 48.309017 L 42.431087 47.098408 L 41.62562 45.839565 L 42.08623 45.839565 L 42.563725 46.683617 Q 42.61677 46.777668 42.66742 46.876537 L 42.67702 46.876537 L 43.29438 45.839565 Z" />
            </g>
            <path id="rect5959" fill="#000000" stroke="none" d="M 25.514503 107.58221 L 48.732624 107.58221 L 48.732624 116.62388 L 25.514503 116.62388 Z" />
            <g id="text524">
                <path fill="#000000" stroke="none" d="M 3.6174796 106.4908 L 3.6174796 103.52665 L 3.8221183 103.52665 L 3.8221183 106.4908 L 3.6174796 106.4908 Z M 6.678789 106.4908 L 4.9135237 104.095085 Q 4.8597803 104.022736 4.818439 103.950386 L 4.7915673 103.90905 L 4.783299 103.90905 Q 4.787433 103.96279 4.787433 104.03927 L 4.787433 106.4908 L 4.5827947 106.4908 L 4.5827947 103.52665 L 4.739891 103.52665 L 6.492754 105.90169 Q 6.5506315 105.98024 6.618845 106.09186 L 6.62918 106.09186 Q 6.618845 105.94717 6.618845 105.84381 L 6.618845 103.52665 L 6.823483 103.52665 L 6.823483 106.4908 L 6.678789 106.4908 Z M 7.334046 106.98276 L 7.1438766 106.98276 L 8.576346 103.52665 L 8.774783 103.52665 L 7.334046 106.98276 Z M 9.134451 106.4908 L 9.134451 103.52665 L 9.339089 103.52665 L 9.339089 106.30477 L 10.527646 106.30477 L 10.527646 106.4908 L 9.134451 106.4908 Z M 13.392587 106.4908 L 13.392587 103.52665 L 13.597223 103.52665 L 13.597223 106.4908 L 13.392587 106.4908 Z M 16.453896 106.4908 L 14.68863 104.095085 Q 14.634887 104.022736 14.593544 103.950386 L 14.566672 103.90905 L 14.558405 103.90905 Q 14.562539 103.96279 14.562539 104.03927 L 14.562539 106.4908 L 14.357901 106.4908 L 14.357901 103.52665 L 14.514997 103.52665 L 16.26786 105.90169 Q 16.325737 105.98024 16.39395 106.09186 L 16.404285 106.09186 Q 16.39395 105.94717 16.39395 105.84381 L 16.39395 103.52665 L 16.598589 103.52665 L 16.598589 106.4908 L 16.453896 106.4908 Z M 17.109152 106.98276 L 16.918983 106.98276 L 18.351452 103.52665 L 18.54989 103.52665 L 17.109152 106.98276 Z M 20.426775 106.4908 L 20.031967 105.62263 Q 19.910011 105.35392 19.788055 105.26194 Q 19.6661 105.16995 19.482132 105.16995 L 19.114195 105.16995 L 19.114195 106.4908 L 18.909557 106.4908 L 18.909557 103.52665 L 19.732244 103.52665 Q 20.124985 103.52665 20.34926 103.738525 Q 20.573536 103.950386 20.573536 104.29765 Q 20.573536 104.61804 20.389568 104.83302 Q 20.2056 105.04799 19.874872 105.11001 L 19.874872 105.11827 Q 20.050571 105.18856 20.218002 105.54616 L 20.658285 106.4908 L 20.426775 106.4908 Z M 19.114195 103.714745 L 19.114195 104.98392 L 19.624758 104.98392 Q 19.963755 104.98392 20.163227 104.80615 Q 20.362698 104.62838 20.362698 104.31832 Q 20.362698 104.03513 20.182863 103.87494 Q 20.003029 103.714745 19.668167 103.714745 L 19.114195 103.714745 Z" />
            </g>
            <g id="text582">
                <path fill="#000000" stroke="none" d="M 12.675632 31.03191 L 12.675632 30.647436 L 12.667365 30.647436 Q 12.44619 31.083586 11.985236 31.083586 Q 11.234896 31.083586 11.234896 30.13894 L 11.234896 28.915247 L 11.427133 28.915247 L 11.427133 30.0914 Q 11.427133 30.521347 11.568725 30.71565 Q 11.710318 30.909954 12.014176 30.909954 Q 12.309764 30.909954 12.492699 30.692913 Q 12.675632 30.475874 12.675632 30.114138 L 12.675632 28.915247 L 12.865802 28.915247 L 12.865802 31.03191 L 12.675632 31.03191 Z M 14.982468 31.03191 L 14.982468 29.762737 Q 14.982468 29.386534 14.846042 29.211868 Q 14.709616 29.037203 14.420228 29.037203 Q 14.147377 29.037203 13.940672 29.250109 Q 13.733966 29.463015 13.733966 29.859892 L 13.733966 31.03191 L 13.543797 31.03191 L 13.543797 27.898256 L 13.733966 27.898256 L 13.733966 29.295582 L 13.742233 29.295582 Q 13.992348 28.86357 14.469837 28.86357 Q 14.812969 28.86357 14.992803 29.084743 Q 15.172636 29.305918 15.172636 29.71933 L 15.172636 31.03191 L 14.982468 31.03191 Z M 17.24796 31.03191 L 17.24796 29.762737 Q 17.24796 29.386534 17.111534 29.211868 Q 16.97511 29.037203 16.68572 29.037203 Q 16.412868 29.037203 16.206163 29.250109 Q 15.999458 29.463015 15.999458 29.859892 L 15.999458 31.03191 L 15.809289 31.03191 L 15.809289 27.898256 L 15.999458 27.898256 L 15.999458 29.295582 L 16.007727 29.295582 Q 16.257841 28.86357 16.73533 28.86357 Q 17.07846 28.86357 17.258295 29.084743 Q 17.43813 29.305918 17.43813 29.71933 L 17.43813 31.03191 L 17.24796 31.03191 Z M 19.513453 31.03191 L 19.513453 29.762737 Q 19.513453 29.386534 19.377028 29.211868 Q 19.2406 29.037203 18.951214 29.037203 Q 18.678362 29.037203 18.471657 29.250109 Q 18.26495 29.463015 18.26495 29.859892 L 18.26495 31.03191 L 18.074781 31.03191 L 18.074781 27.898256 L 18.26495 27.898256 L 18.26495 29.295582 L 18.273218 29.295582 Q 18.523333 28.86357 19.000822 28.86357 Q 19.343954 28.86357 19.523788 29.084743 Q 19.70362 29.305918 19.70362 29.71933 L 19.70362 31.03191 L 19.513453 31.03191 Z M 21.59291 28.381945 Q 21.530897 28.381945 21.483356 28.336468 Q 21.435814 28.290995 21.435814 28.220715 Q 21.435814 28.152502 21.48439 28.110126 Q 21.532967 28.067753 21.59291 28.067753 Q 21.65699 28.067753 21.705566 28.109093 Q 21.75414 28.150433 21.75414 28.220715 Q 21.75414 28.286858 21.706598 28.334402 Q 21.659056 28.381945 21.59291 28.381945 Z M 21.499893 31.03191 L 21.499893 28.915247 L 21.690063 28.915247 L 21.690063 31.03191 L 21.499893 31.03191 Z M 23.418121 30.938892 L 23.418121 30.70945 Q 23.525608 30.802467 23.678572 30.85621 Q 23.831533 30.909954 23.943153 30.909954 Q 24.441317 30.909954 24.441317 30.502743 Q 24.441317 30.362185 24.33176 30.262966 Q 24.222206 30.163746 23.976229 30.058327 Q 23.672369 29.926033 23.54938 29.784443 Q 23.426388 29.642849 23.426388 29.440277 Q 23.426388 29.181896 23.623795 29.022734 Q 23.821198 28.86357 24.110586 28.86357 Q 24.383436 28.86357 24.577742 28.97519 L 24.577742 29.190163 Q 24.342094 29.037203 24.089914 29.037203 Q 23.881142 29.037203 23.752985 29.14572 Q 23.62483 29.254242 23.62483 29.427876 Q 23.62483 29.57877 23.70544 29.672821 Q 23.786058 29.766874 24.060976 29.88883 Q 24.391706 30.037657 24.515728 30.16478 Q 24.639751 30.291904 24.639751 30.502743 Q 24.639751 30.754923 24.450617 30.919254 Q 24.26148 31.083586 23.928684 31.083586 Q 23.62276 31.083586 23.418121 30.938892 Z M 26.008142 31.002972 Q 25.859316 31.073252 25.72909 31.073252 Q 25.259869 31.073252 25.259869 30.511011 L 25.259869 29.088879 L 24.879528 29.088879 L 24.879528 28.915247 L 25.259869 28.915247 L 25.259869 28.365406 Q 25.305344 28.348871 25.354952 28.332336 Q 25.404562 28.317865 25.450037 28.30133 L 25.450037 28.915247 L 26.008142 28.915247 L 26.008142 29.088879 L 25.450037 29.088879 L 25.450037 30.486208 Q 25.450037 30.705317 25.519283 30.803501 Q 25.58853 30.901686 25.753895 30.901686 Q 25.871716 30.901686 26.008142 30.825205 L 26.008142 31.002972 Z M 26.520771 28.381945 Q 26.45876 28.381945 26.411219 28.336468 Q 26.363674 28.290995 26.363674 28.220715 Q 26.363674 28.152502 26.41225 28.110126 Q 26.460825 28.067753 26.520771 28.067753 Q 26.58485 28.067753 26.633427 28.109093 Q 26.682001 28.150433 26.682001 28.220715 Q 26.682001 28.286858 26.634459 28.334402 Q 26.586918 28.381945 26.520771 28.381945 Z M 26.427753 31.03191 L 26.427753 28.915247 L 26.617922 28.915247 L 26.617922 31.03191 L 26.427753 31.03191 Z M 27.295918 31.03191 L 27.295918 27.898256 L 27.486088 27.898256 L 27.486088 31.03191 L 27.295918 31.03191 Z M 28.164082 31.03191 L 28.164082 27.898256 L 28.354252 27.898256 L 28.354252 31.03191 L 28.164082 31.03191 Z M 31.630535 31.03191 L 31.630535 29.799946 Q 31.630535 29.037203 31.080698 29.037203 Q 30.774775 29.037203 30.578403 29.261477 Q 30.382034 29.485752 30.382034 29.81648 L 30.382034 31.03191 L 30.191864 31.03191 L 30.191864 28.915247 L 30.382034 28.915247 L 30.382034 29.299717 L 30.3903 29.299717 Q 30.62181 28.86357 31.113771 28.86357 Q 31.456902 28.86357 31.638805 29.091978 Q 31.820704 29.320389 31.820704 29.744135 L 31.820704 31.03191 L 31.630535 31.03191 Z M 32.502834 29.981848 Q 32.502834 30.417994 32.704372 30.663975 Q 32.90591 30.909954 33.25731 30.909954 Q 33.612843 30.909954 33.95184 30.647436 L 33.95184 30.85001 Q 33.62318 31.083586 33.218037 31.083586 Q 32.808758 31.083586 32.55658 30.790064 Q 32.304398 30.496542 32.304398 29.961176 Q 32.304398 29.498156 32.567947 29.18086 Q 32.831497 28.86357 33.253178 28.86357 Q 33.647984 28.86357 33.85882 29.140554 Q 34.069664 29.417538 34.069664 29.897095 L 34.069664 29.981848 L 32.502834 29.981848 Z M 33.871227 29.808212 Q 33.85882 29.442345 33.695526 29.239773 Q 33.532227 29.037203 33.244907 29.037203 Q 32.94725 29.037203 32.751915 29.236671 Q 32.55658 29.436144 32.511105 29.808212 L 33.871227 29.808212 Z M 34.640167 29.981848 Q 34.640167 30.417994 34.841705 30.663975 Q 35.043243 30.909954 35.39464 30.909954 Q 35.750175 30.909954 36.089172 30.647436 L 36.089172 30.85001 Q 35.760513 31.083586 35.35537 31.083586 Q 34.94609 31.083586 34.693913 30.790064 Q 34.44173 30.496542 34.44173 29.961176 Q 34.44173 29.498156 34.70528 29.18086 Q 34.96883 28.86357 35.39051 28.86357 Q 35.785316 28.86357 35.996155 29.140554 Q 36.206997 29.417538 36.206997 29.897095 L 36.206997 29.981848 L 34.640167 29.981848 Z M 36.00856 29.808212 Q 35.996155 29.442345 35.83286 29.239773 Q 35.669563 29.037203 35.38224 29.037203 Q 35.084583 29.037203 34.889248 29.236671 Q 34.693913 29.436144 34.648438 29.808212 L 36.00856 29.808212 Z M 38.234776 31.03191 L 38.234776 30.647436 L 38.226505 30.647436 Q 38.123154 30.84794 37.92058 30.965765 Q 37.71801 31.083586 37.463764 31.083586 Q 37.07309 31.083586 36.826077 30.798334 Q 36.579063 30.513079 36.579063 30.010786 Q 36.579063 29.498156 36.848816 29.18086 Q 37.118565 28.86357 37.54851 28.86357 Q 38.023933 28.86357 38.226505 29.254242 L 38.234776 29.254242 L 38.234776 27.898256 L 38.424942 27.898256 L 38.424942 31.03191 L 38.234776 31.03191 Z M 38.234776 29.744135 Q 38.234776 29.448545 38.047707 29.242874 Q 37.860638 29.037203 37.544376 29.037203 Q 37.211582 29.037203 36.99454 29.292482 Q 36.7775 29.547764 36.7775 29.994247 Q 36.7775 30.432463 36.972836 30.67121 Q 37.168175 30.909954 37.476166 30.909954 Q 37.8379 30.909954 38.03634 30.685678 Q 38.234776 30.461405 38.234776 30.13894 L 38.234776 29.744135 Z" />
                <path fill="#000000" stroke="none" d="M 12.115461 36.294632 Q 11.966633 36.36491 11.836409 36.36491 Q 11.367186 36.36491 11.367186 35.802673 L 11.367186 34.38054 L 10.986849 34.38054 L 10.986849 34.206905 L 11.367186 34.206905 L 11.367186 33.65707 Q 11.412662 33.640533 11.462272 33.623997 Q 11.511881 33.609528 11.557356 33.59299 L 11.557356 34.206905 L 12.115461 34.206905 L 12.115461 34.38054 L 11.557356 34.38054 L 11.557356 35.777866 Q 11.557356 35.996975 11.626602 36.09516 Q 11.695849 36.193344 11.861212 36.193344 Q 11.979034 36.193344 12.115461 36.116863 L 12.115461 36.294632 Z M 13.384634 36.375248 Q 12.921613 36.375248 12.651862 36.070354 Q 12.382112 35.765465 12.382112 35.27764 Q 12.382112 34.75054 12.664265 34.452885 Q 12.946418 34.155228 13.407371 34.155228 Q 13.860056 34.155228 14.122572 34.450817 Q 14.385088 34.746407 14.385088 35.26937 Q 14.385088 35.763397 14.117406 36.06932 Q 13.84972 36.375248 13.384634 36.375248 Z M 13.399103 34.32886 Q 13.024965 34.32886 12.802757 34.581043 Q 12.580548 34.83322 12.580548 35.281773 Q 12.580548 35.697254 12.797589 35.949432 Q 13.01463 36.201614 13.390835 36.201614 Q 13.77324 36.201614 13.979945 35.953568 Q 14.186651 35.70552 14.186651 35.265236 Q 14.186651 34.812553 13.980979 34.570705 Q 13.775307 34.32886 13.399103 34.32886 Z M 17.334776 36.32357 L 17.334776 35.899822 L 17.326508 35.899822 Q 17.225222 36.116863 17.031952 36.246056 Q 16.838682 36.375248 16.603039 36.375248 Q 16.301249 36.375248 16.125547 36.20575 Q 15.949848 36.03625 15.949848 35.777866 Q 15.949848 35.223896 16.683653 35.108143 L 17.334776 35.01099 Q 17.334776 34.32886 16.822145 34.32886 Q 16.472813 34.32886 16.142084 34.60998 L 16.142084 34.38054 Q 16.259907 34.28752 16.461445 34.221375 Q 16.662983 34.155228 16.84075 34.155228 Q 17.167345 34.155228 17.346144 34.3578 Q 17.524944 34.56037 17.524944 34.94691 L 17.524944 36.32357 L 17.334776 36.32357 Z M 16.751865 35.26937 Q 16.41907 35.316914 16.284712 35.423367 Q 16.150352 35.52982 16.150352 35.7696 Q 16.150352 35.957703 16.27541 36.07966 Q 16.400467 36.201614 16.623709 36.201614 Q 16.929632 36.201614 17.132204 35.975273 Q 17.334776 35.748928 17.334776 35.391327 L 17.334776 35.184624 L 16.751865 35.26937 Z M 19.664349 36.32357 L 19.664349 35.9391 L 19.65608 35.9391 Q 19.552727 36.139603 19.350155 36.257423 Q 19.147583 36.375248 18.893335 36.375248 Q 18.502663 36.375248 18.25565 36.089993 Q 18.008636 35.80474 18.008636 35.302444 Q 18.008636 34.789814 18.278387 34.472523 Q 18.548138 34.155228 18.978085 34.155228 Q 19.453508 34.155228 19.65608 34.545902 L 19.664349 34.545902 L 19.664349 33.189915 L 19.854517 33.189915 L 19.854517 36.32357 L 19.664349 36.32357 Z M 19.664349 35.035793 Q 19.664349 34.740204 19.47728 34.534534 Q 19.29021 34.32886 18.973951 34.32886 Q 18.641155 34.32886 18.424114 34.584145 Q 18.207073 34.839424 18.207073 35.285908 Q 18.207073 35.724125 18.40241 35.962868 Q 18.597748 36.201614 18.905739 36.201614 Q 19.267473 36.201614 19.46591 35.977337 Q 19.664349 35.753063 19.664349 35.430603 L 19.664349 35.035793 Z M 22.035261 36.32357 L 22.035261 35.9391 L 22.026993 35.9391 Q 21.923641 36.139603 21.721067 36.257423 Q 21.518497 36.375248 21.264248 36.375248 Q 20.873575 36.375248 20.626562 36.089993 Q 20.379549 35.80474 20.379549 35.302444 Q 20.379549 34.789814 20.6493 34.472523 Q 20.91905 34.155228 21.348997 34.155228 Q 21.824419 34.155228 22.026993 34.545902 L 22.035261 34.545902 L 22.035261 33.189915 L 22.225428 33.189915 L 22.225428 36.32357 L 22.035261 36.32357 Z M 22.035261 35.035793 Q 22.035261 34.740204 21.848192 34.534534 Q 21.661123 34.32886 21.344864 34.32886 Q 21.012068 34.32886 20.795027 34.584145 Q 20.577986 34.839424 20.577986 35.285908 Q 20.577986 35.724125 20.773323 35.962868 Q 20.96866 36.201614 21.276651 36.201614 Q 21.638384 36.201614 21.836823 35.977337 Q 22.035261 35.753063 22.035261 35.430603 L 22.035261 35.035793 Z M 24.912601 36.375248 Q 24.449581 36.375248 24.17983 36.070354 Q 23.91008 35.765465 23.91008 35.27764 Q 23.91008 34.75054 24.192232 34.452885 Q 24.474386 34.155228 24.935339 34.155228 Q 25.388023 34.155228 25.650541 34.450817 Q 25.913057 34.746407 25.913057 35.26937 Q 25.913057 35.763397 25.645374 36.06932 Q 25.37769 36.375248 24.912601 36.375248 Z M 24.92707 34.32886 Q 24.552935 34.32886 24.330725 34.581043 Q 24.108517 34.83322 24.108517 35.281773 Q 24.108517 35.697254 24.325558 35.949432 Q 24.5426 36.201614 24.918802 36.201614 Q 25.30121 36.201614 25.507914 35.953568 Q 25.714619 35.70552 25.714619 35.265236 Q 25.714619 34.812553 25.50895 34.570705 Q 25.303276 34.32886 24.92707 34.32886 Z M 26.636524 35.947365 L 26.628258 35.947365 L 26.628258 37.297153 L 26.438087 37.297153 L 26.438087 34.206905 L 26.628258 34.206905 L 26.628258 34.643055 L 26.636524 34.643055 Q 26.750214 34.409477 26.962086 34.282352 Q 27.17396 34.155228 27.42821 34.155228 Q 27.831284 34.155228 28.057625 34.433247 Q 28.283968 34.711266 28.283968 35.188755 Q 28.283968 35.71999 28.024553 36.04762 Q 27.765139 36.375248 27.339323 36.375248 Q 26.8639 36.375248 26.636524 35.947365 Z M 26.628258 35.159817 L 26.628258 35.426468 Q 26.628258 35.744793 26.828762 35.973206 Q 27.029266 36.201614 27.35586 36.201614 Q 27.680387 36.201614 27.88296 35.923595 Q 28.085531 35.645576 28.085531 35.19289 Q 28.085531 34.796017 27.899496 34.56244 Q 27.71346 34.32886 27.403402 34.32886 Q 27.0334 34.32886 26.830828 34.57691 Q 26.628258 34.824955 26.628258 35.159817 Z M 29.64616 36.294632 Q 29.497332 36.36491 29.367107 36.36491 Q 28.897886 36.36491 28.897886 35.802673 L 28.897886 34.38054 L 28.517548 34.38054 L 28.517548 34.206905 L 28.897886 34.206905 L 28.897886 33.65707 Q 28.943363 33.640533 28.99297 33.623997 Q 29.04258 33.609528 29.088055 33.59299 L 29.088055 34.206905 L 29.64616 34.206905 L 29.64616 34.38054 L 29.088055 34.38054 L 29.088055 35.777866 Q 29.088055 35.996975 29.1573 36.09516 Q 29.226547 36.193344 29.391912 36.193344 Q 29.509735 36.193344 29.64616 36.116863 L 29.64616 36.294632 Z M 30.158789 33.673607 Q 30.096779 33.673607 30.049234 33.628128 Q 30.001692 33.582653 30.001692 33.512375 Q 30.001692 33.44416 30.050268 33.401787 Q 30.098845 33.359413 30.158789 33.359413 Q 30.222868 33.359413 30.271442 33.400753 Q 30.320019 33.442093 30.320019 33.512375 Q 30.320019 33.57852 30.272476 33.626064 Q 30.224934 33.673607 30.158789 33.673607 Z M 30.065771 36.32357 L 30.065771 34.206905 L 30.25594 34.206905 L 30.25594 36.32357 L 30.065771 36.32357 Z M 31.783495 36.375248 Q 31.320473 36.375248 31.050724 36.070354 Q 30.780973 35.765465 30.780973 35.27764 Q 30.780973 34.75054 31.063124 34.452885 Q 31.34528 34.155228 31.806234 34.155228 Q 32.25892 34.155228 32.521435 34.450817 Q 32.78395 34.746407 32.78395 35.26937 Q 32.78395 35.763397 32.516266 36.06932 Q 32.24858 36.375248 31.783495 36.375248 Z M 31.797964 34.32886 Q 31.423828 34.32886 31.201618 34.581043 Q 30.97941 34.83322 30.97941 35.281773 Q 30.97941 35.697254 31.196451 35.949432 Q 31.41349 36.201614 31.789696 36.201614 Q 32.1721 36.201614 32.378807 35.953568 Q 32.585514 35.70552 32.585514 35.265236 Q 32.585514 34.812553 32.37984 34.570705 Q 32.174168 34.32886 31.797964 34.32886 Z M 34.747654 36.32357 L 34.747654 35.091606 Q 34.747654 34.32886 34.19782 34.32886 Q 33.89189 34.32886 33.695522 34.55314 Q 33.499153 34.777412 33.499153 35.108143 L 33.499153 36.32357 L 33.308983 36.32357 L 33.308983 34.206905 L 33.499153 34.206905 L 33.499153 34.591377 L 33.50742 34.591377 Q 33.73893 34.155228 34.23089 34.155228 Q 34.57402 34.155228 34.75592 34.38364 Q 34.937824 34.61205 34.937824 35.035793 L 34.937824 36.32357 L 34.747654 36.32357 Z M 35.46492 36.230553 L 35.46492 36.00111 Q 35.572407 36.094128 35.72537 36.14787 Q 35.87833 36.201614 35.989952 36.201614 Q 36.488113 36.201614 36.488113 35.794403 Q 36.488113 35.653843 36.37856 35.554626 Q 36.269005 35.455406 36.023026 35.349987 Q 35.71917 35.217697 35.59618 35.076103 Q 35.47319 34.93451 35.47319 34.731937 Q 35.47319 34.473557 35.670593 34.314392 Q 35.867996 34.155228 36.157383 34.155228 Q 36.430237 34.155228 36.62454 34.26685 L 36.62454 34.481823 Q 36.388893 34.32886 36.136715 34.32886 Q 35.92794 34.32886 35.79978 34.43738 Q 35.671627 34.545902 35.671627 34.719536 Q 35.671627 34.87043 35.752243 34.96448 Q 35.832855 35.058533 36.107777 35.18049 Q 36.438503 35.329315 36.562527 35.45644 Q 36.68655 35.583565 36.68655 35.794403 Q 36.68655 36.046585 36.497414 36.210915 Q 36.30828 36.375248 35.975483 36.375248 Q 35.66956 36.375248 35.46492 36.230553 Z" />
                <path fill="#000000" stroke="none" d="M 12.115461 41.586296 Q 11.966633 41.656574 11.836409 41.656574 Q 11.367186 41.656574 11.367186 41.094337 L 11.367186 39.672203 L 10.986849 39.672203 L 10.986849 39.49857 L 11.367186 39.49857 L 11.367186 38.948734 Q 11.412662 38.932198 11.462272 38.91566 Q 11.511881 38.90119 11.557356 38.884655 L 11.557356 39.49857 L 12.115461 39.49857 L 12.115461 39.672203 L 11.557356 39.672203 L 11.557356 41.06953 Q 11.557356 41.28864 11.626602 41.386826 Q 11.695849 41.48501 11.861212 41.48501 Q 11.979034 41.48501 12.115461 41.408527 L 12.115461 41.586296 Z M 13.384634 41.666912 Q 12.921613 41.666912 12.651862 41.36202 Q 12.382112 41.05713 12.382112 40.569305 Q 12.382112 40.042206 12.664265 39.74455 Q 12.946418 39.44689 13.407371 39.44689 Q 13.860056 39.44689 14.122572 39.74248 Q 14.385088 40.03807 14.385088 40.561035 Q 14.385088 41.05506 14.117406 41.360985 Q 13.84972 41.666912 13.384634 41.666912 Z M 13.399103 39.620525 Q 13.024965 39.620525 12.802757 39.872707 Q 12.580548 40.124886 12.580548 40.573437 Q 12.580548 40.98892 12.797589 41.241096 Q 13.01463 41.49328 13.390835 41.49328 Q 13.77324 41.49328 13.979945 41.24523 Q 14.186651 40.997185 14.186651 40.5569 Q 14.186651 40.104218 13.980979 39.86237 Q 13.775307 39.620525 13.399103 39.620525 Z M 16.906895 41.586296 Q 16.758068 41.656574 16.627842 41.656574 Q 16.15862 41.656574 16.15862 41.094337 L 16.15862 39.672203 L 15.778283 39.672203 L 15.778283 39.49857 L 16.15862 39.49857 L 16.15862 38.948734 Q 16.204096 38.932198 16.253706 38.91566 Q 16.303314 38.90119 16.34879 38.884655 L 16.34879 39.49857 L 16.906895 39.49857 L 16.906895 39.672203 L 16.34879 39.672203 L 16.34879 41.06953 Q 16.34879 41.28864 16.418037 41.386826 Q 16.487284 41.48501 16.652647 41.48501 Q 16.77047 41.48501 16.906895 41.408527 L 16.906895 41.586296 Z M 18.765179 41.615234 L 18.765179 40.34606 Q 18.765179 39.969856 18.628754 39.795193 Q 18.492327 39.620525 18.20294 39.620525 Q 17.930088 39.620525 17.723383 39.83343 Q 17.516678 40.04634 17.516678 40.443214 L 17.516678 41.615234 L 17.326508 41.615234 L 17.326508 38.48158 L 17.516678 38.48158 L 17.516678 39.878906 L 17.524944 39.878906 Q 17.775059 39.44689 18.252548 39.44689 Q 18.59568 39.44689 18.775515 39.668068 Q 18.955347 39.889244 18.955347 40.302654 L 18.955347 41.615234 L 18.765179 41.615234 Z M 19.685017 38.96527 Q 19.623005 38.96527 19.575462 38.919792 Q 19.52792 38.874317 19.52792 38.80404 Q 19.52792 38.735825 19.576496 38.69345 Q 19.625072 38.651077 19.685017 38.651077 Q 19.749096 38.651077 19.797672 38.692417 Q 19.846247 38.733757 19.846247 38.80404 Q 19.846247 38.870186 19.798704 38.91773 Q 19.751163 38.96527 19.685017 38.96527 Z M 19.592 41.615234 L 19.592 39.49857 L 19.78217 39.49857 L 19.78217 41.615234 L 19.592 41.615234 Z M 20.350609 41.522217 L 20.350609 41.292774 Q 20.458096 41.38579 20.61106 41.439533 Q 20.76402 41.49328 20.87564 41.49328 Q 21.373802 41.49328 21.373802 41.086067 Q 21.373802 40.945507 21.264248 40.84629 Q 21.154694 40.74707 20.908714 40.64165 Q 20.604856 40.50936 20.481867 40.367767 Q 20.358877 40.226173 20.358877 40.0236 Q 20.358877 39.76522 20.556282 39.606056 Q 20.753685 39.44689 21.043074 39.44689 Q 21.315924 39.44689 21.51023 39.558514 L 21.51023 39.773487 Q 21.274584 39.620525 21.022402 39.620525 Q 20.81363 39.620525 20.685472 39.729046 Q 20.557316 39.837566 20.557316 40.0112 Q 20.557316 40.162094 20.63793 40.256145 Q 20.718546 40.350197 20.993464 40.472153 Q 21.324192 40.62098 21.448215 40.748104 Q 21.572239 40.87523 21.572239 41.086067 Q 21.572239 41.33825 21.383104 41.50258 Q 21.193968 41.666912 20.861172 41.666912 Q 20.555248 41.666912 20.350609 41.522217 Z M 24.11265 41.666912 Q 23.649632 41.666912 23.379879 41.36202 Q 23.110128 41.05713 23.110128 40.569305 Q 23.110128 40.042206 23.392282 39.74455 Q 23.674435 39.44689 24.135387 39.44689 Q 24.588074 39.44689 24.850592 39.74248 Q 25.113106 40.03807 25.113106 40.561035 Q 25.113106 41.05506 24.845423 41.360985 Q 24.577738 41.666912 24.11265 41.666912 Z M 24.12712 39.620525 Q 23.752983 39.620525 23.530773 39.872707 Q 23.308565 40.124886 23.308565 40.573437 Q 23.308565 40.98892 23.525606 41.241096 Q 23.74265 41.49328 24.11885 41.49328 Q 24.501255 41.49328 24.707962 41.24523 Q 24.914667 40.997185 24.914667 40.5569 Q 24.914667 40.104218 24.708994 39.86237 Q 24.503325 39.620525 24.12712 39.620525 Z M 27.076807 41.615234 L 27.076807 40.38327 Q 27.076807 39.620525 26.526972 39.620525 Q 26.221048 39.620525 26.02468 39.844803 Q 25.828308 40.069077 25.828308 40.399807 L 25.828308 41.615234 L 25.63814 41.615234 L 25.63814 39.49857 L 25.828308 39.49857 L 25.828308 39.88304 L 25.836575 39.88304 Q 26.068087 39.44689 26.560045 39.44689 Q 26.903175 39.44689 27.085077 39.675304 Q 27.266977 39.903713 27.266977 40.327457 L 27.266977 41.615234 L 27.076807 41.615234 Z M 27.949104 40.56517 Q 27.949104 41.00132 28.150642 41.2473 Q 28.352182 41.49328 28.70358 41.49328 Q 29.059116 41.49328 29.398111 41.230762 L 29.398111 41.433334 Q 29.069448 41.666912 28.664307 41.666912 Q 28.25503 41.666912 28.002848 41.37339 Q 27.75067 41.07987 27.75067 40.5445 Q 27.75067 40.08148 28.014217 39.764187 Q 28.277767 39.44689 28.699446 39.44689 Q 29.094254 39.44689 29.305094 39.723877 Q 29.515932 40.000862 29.515932 40.48042 L 29.515932 40.56517 L 27.949104 40.56517 Z M 29.317497 40.391537 Q 29.305094 40.02567 29.141796 39.823097 Q 28.978498 39.620525 28.691177 39.620525 Q 28.393522 39.620525 28.198185 39.819996 Q 28.002848 40.019466 27.957373 40.391537 L 29.317497 40.391537 Z M 31.330805 39.79416 Q 31.260527 39.79416 31.212986 39.74455 Q 31.165443 39.69494 31.165443 39.62466 Q 31.165443 39.55438 31.212986 39.50787 Q 31.260527 39.46136 31.330805 39.46136 Q 31.401089 39.46136 31.450695 39.50787 Q 31.500305 39.55438 31.500305 39.62466 Q 31.500305 39.69494 31.450695 39.74455 Q 31.401089 39.79416 31.330805 39.79416 Z M 31.330805 41.652443 Q 31.260527 41.652443 31.212986 41.603867 Q 31.165443 41.55529 31.165443 41.48501 Q 31.165443 41.412663 31.212986 41.366154 Q 31.260527 41.319645 31.330805 41.319645 Q 31.401089 41.319645 31.450695 41.366154 Q 31.500305 41.412663 31.500305 41.48501 Q 31.500305 41.55529 31.450695 41.603867 Q 31.401089 41.652443 31.330805 41.652443 Z M 32.738472 42.289093 Q 32.112152 41.557358 32.112152 40.48869 Q 32.112152 39.37248 32.74674 38.651077 L 32.94931 38.651077 Q 32.302322 39.395218 32.302322 40.484554 Q 32.302322 41.511883 32.941044 42.289093 L 32.738472 42.289093 Z" />
            </g>
            <g id="text590">
                <path fill="#000000" stroke="none" d="M 11.724065 13.925704 L 11.724065 15.627582 L 10.611298 15.627582 L 10.611298 10.687311 L 12.354516 10.687311 Q 14.22176 10.687311 14.22176 12.261721 Q 14.22176 13.005862 13.686048 13.465783 Q 13.150334 13.925704 12.25461 13.925704 L 11.724065 13.925704 Z M 11.724065 11.541696 L 11.724065 13.0816555 L 12.161591 13.0816555 Q 13.0504265 13.0816555 13.0504265 12.303063 Q 13.0504265 11.541696 12.161591 11.541696 L 11.724065 11.541696 Z M 14.7178545 15.438101 L 14.7178545 14.335671 Q 15.017578 14.587162 15.368978 14.712908 Q 15.720378 14.8386545 16.078669 14.8386545 Q 16.288818 14.8386545 16.44557 14.800757 Q 16.602324 14.762862 16.707397 14.695683 Q 16.812473 14.628503 16.864151 14.537209 Q 16.915827 14.445913 16.915827 14.339115 Q 16.915827 14.194421 16.833145 14.080732 Q 16.750462 13.967045 16.60749 13.870582 Q 16.46452 13.774119 16.268148 13.684546 Q 16.071777 13.5949745 15.844402 13.501956 Q 15.265626 13.2608 14.981404 12.912845 Q 14.697184 12.56489 14.697184 12.072241 Q 14.697184 11.68639 14.852213 11.40906 Q 15.007242 11.131728 15.274238 10.952583 Q 15.541233 10.77344 15.8926325 10.6890335 Q 16.244032 10.6046295 16.636774 10.6046295 Q 17.022625 10.6046295 17.320625 10.651138 Q 17.618626 10.697647 17.87012 10.794109 L 17.87012 11.824195 Q 17.746096 11.738066 17.599678 11.672609 Q 17.453262 11.607153 17.298233 11.564088 Q 17.143204 11.521026 16.989897 11.500355 Q 16.83659 11.479684 16.698786 11.479684 Q 16.509304 11.479684 16.354275 11.515858 Q 16.199245 11.552031 16.09245 11.617487 Q 15.98565 11.682945 15.927084 11.77424 Q 15.868517 11.865535 15.868517 11.979223 Q 15.868517 12.103246 15.933973 12.201432 Q 15.999431 12.299617 16.120008 12.387467 Q 16.240587 12.475316 16.412842 12.559722 Q 16.585098 12.644127 16.80214 12.7337 Q 17.098417 12.857723 17.334406 12.99725 Q 17.570395 13.136776 17.739204 13.312476 Q 17.908014 13.488176 17.997587 13.71383 Q 18.08716 13.939485 18.08716 14.239207 Q 18.08716 14.652619 17.930408 14.9333935 Q 17.773655 15.2141695 17.504938 15.388147 Q 17.236221 15.562125 16.879654 15.637917 Q 16.523087 15.713709 16.1269 15.713709 Q 15.720378 15.713709 15.353475 15.644807 Q 14.986573 15.575905 14.7178545 15.438101 Z M 22.934412 15.627582 L 21.61494 15.627582 L 20.764 14.01872 Q 20.715769 13.929148 20.664093 13.687992 L 20.650312 13.687992 Q 20.626198 13.80168 20.536625 14.032502 L 19.68224 15.627582 L 18.355877 15.627582 L 19.930286 13.157447 L 18.490236 10.687311 L 19.84416 10.687311 L 20.550406 12.168703 Q 20.633087 12.344403 20.698544 12.58556 L 20.712324 12.58556 Q 20.753666 12.440866 20.867353 12.154923 L 21.652836 10.687311 L 22.893072 10.687311 L 21.411678 13.136776 L 22.934412 15.627582 Z M 27.636969 10.687311 L 25.935091 15.627582 L 24.674183 15.627582 L 22.992977 10.687311 L 24.191872 10.687311 L 25.221956 14.12552 Q 25.304638 14.4045725 25.321863 14.618168 L 25.342535 14.618168 Q 25.366652 14.387346 25.449333 14.111737 L 26.472527 10.687311 L 27.636969 10.687311 Z M 30.83402 14.17375 L 28.532696 14.17375 Q 28.587816 14.942007 29.500769 14.942007 Q 30.082987 14.942007 30.523962 14.666399 L 30.523962 15.451881 Q 30.034758 15.713709 29.25272 15.713709 Q 28.398336 15.713709 27.92636 15.240009 Q 27.45438 14.766307 27.45438 13.918812 Q 27.45438 13.040314 27.964254 12.526994 Q 28.47413 12.013674 29.218267 12.013674 Q 29.98997 12.013674 30.411997 12.471872 Q 30.83402 12.93007 30.83402 13.715552 L 30.83402 14.17375 Z M 29.824606 13.505402 Q 29.824606 12.74748 29.21138 12.74748 Q 28.949553 12.74748 28.758352 12.964521 Q 28.567148 13.181562 28.525806 13.505402 L 29.824606 13.505402 Z M 33.783024 13.0816555 Q 33.586655 12.974857 33.32483 12.974857 Q 32.969982 12.974857 32.77017 13.2349615 Q 32.57035 13.495066 32.57035 13.942928 L 32.57035 15.627582 L 31.481699 15.627582 L 31.481699 12.099802 L 32.57035 12.099802 L 32.57035 12.75437 L 32.584133 12.75437 Q 32.842514 12.03779 33.51431 12.03779 Q 33.68656 12.03779 33.783024 12.079131 L 33.783024 13.0816555 Z M 35.391888 15.217615 L 35.378105 15.217615 L 35.378105 15.627582 L 34.289455 15.627582 L 34.289455 10.404814 L 35.378105 10.404814 L 35.378105 12.630346 L 35.391888 12.630346 Q 35.794964 12.013674 36.539104 12.013674 Q 37.221233 12.013674 37.58986 12.482206 Q 37.958485 12.950741 37.958485 13.763783 Q 37.958485 14.645729 37.527847 15.179718 Q 37.09721 15.713709 36.377186 15.713709 Q 35.72606 15.713709 35.391888 15.217615 Z M 35.36088 13.729333 L 35.36088 14.091068 Q 35.36088 14.432133 35.55725 14.656064 Q 35.75362 14.879995 36.060234 14.879995 Q 36.432304 14.879995 36.63729 14.59233 Q 36.842274 14.304665 36.842274 13.777564 Q 36.842274 13.340035 36.654514 13.093711 Q 36.466755 12.847387 36.1188 12.847387 Q 35.79152 12.847387 35.5762 13.0919895 Q 35.36088 13.336592 35.36088 13.729333 Z" />
            </g>
        </g>
        <g id="layer2">
            <path id="path13614" fill="#280b0b" stroke="none" d="M 9.1 3.0000021 C 9.1 3.8836582 8.383656 4.6000023 7.5 4.6000023 C 6.6163445 4.6000023 5.9 3.883658 5.9 3.0000021 C 5.9 2.1163468 6.6163445 1.4000024 7.5 1.4000024 C 8.383656 1.4000021 9.1 2.1163466 9.1 3.0000021 Z" />
            <path id="circle13616" fill="#280b0b" stroke="none" d="M 44.66 3.0000021 C 44.66 3.8836577 43.943653 4.6000013 43.060005 4.6000023 C 42.176346 4.6000013 41.460003 3.8836577 41.460003 3.0000021 C 41.460003 2.1163473 42.176346 1.4000032 43.060005 1.4000024 C 43.943653 1.4000032 44.66 2.1163473 44.66 3.0000021 Z" />
            <path id="circle13645" fill="#280b0b" stroke="none" d="M 9.1 125.49999 C 9.099999 126.383644 8.383656 127.1 7.5 127.1 C 6.616345 127.1 5.900001 126.383644 5.9 125.49999 C 5.900001 124.61635 6.616345 123.90001 7.5 123.90001 C 8.383656 123.90001 9.099999 124.61635 9.1 125.49999 Z" />
            <path id="circle13647" fill="#280b0b" stroke="none" d="M 44.66 125.49999 C 44.66 126.383644 43.943653 127.1 43.060005 127.1 C 42.176346 127.1 41.460003 126.383644 41.460003 125.49999 C 41.460003 124.61635 42.176346 123.90001 43.060005 123.90001 C 43.943653 123.90001 44.66 124.61635 44.66 125.49999 Z" />
        </g>
        <g id="layer3">
            <path id="path13156-4-8-0-1" fill="#ff0000" stroke="none" d="M 44.13883 55.794468 C 44.13883 58.334976 42.079338 60.394466 39.53883 60.394466 C 36.99832 60.394466 34.93883 58.334976 34.93883 55.794468 C 34.93883 53.25396 36.99832 51.19447 39.53883 51.19447 C 42.079338 51.19447 44.13883 53.25396 44.13883 55.794468 Z" />
            <path id="path13156-4-8-0-1-7" fill="#ff0000" stroke="none" d="M 35.63191 85.50519 C 35.63191 88.0457 33.57242 90.105194 31.03191 90.105194 C 28.4914 90.105194 26.43191 88.0457 26.43191 85.50519 C 26.43191 82.964676 28.4914 80.90519 31.03191 80.90519 C 33.57242 80.90519 35.63191 82.964676 35.63191 85.50519 Z" />
            <path id="path13156-4-3" fill="#00ff00" stroke="none" d="M 34.4383 98.3 C 34.4383 99.10892 34.116962 99.8847 33.54498 100.45668 C 32.972992 101.02867 32.197212 101.35001 31.3883 101.35001 C 30.57939 101.35001 29.80361 101.028656 29.231625 100.45668 C 28.659637 99.8847 28.3383 99.10892 28.3383 98.3 C 28.3383 97.49109 28.659637 96.7153 29.231625 96.143326 C 29.80361 95.57134 30.57939 95.25 31.3883 95.25 C 32.197212 95.25 32.972992 95.571335 33.54498 96.143326 C 34.116962 96.7153 34.4383 97.49109 34.4383 98.3 Z" />
            <path id="path13156-4-87" fill="#0000ff" stroke="none" d="M 46.605 111.95 C 46.605 112.7589 46.283665 113.53469 45.711678 114.106674 C 45.13969 114.67866 44.36391 115 43.555 115 C 42.74609 115 41.97031 114.67866 41.398323 114.106674 C 40.82634 113.53469 40.505 112.7589 40.505 111.95 C 40.505 111.14108 40.82634 110.36531 41.398323 109.79332 C 41.97031 109.22134 42.74609 108.899994 43.555 108.899994 C 44.36391 108.899994 45.13969 109.22134 45.711678 109.79332 C 46.283665 110.36531 46.605 111.14108 46.605 111.95 Z" />
            <path id="path13156-4-2" fill="#0000ff" stroke="none" d="M 34.4383 111.95 C 34.4383 112.7589 34.116962 113.53469 33.54498 114.106674 C 32.972992 114.67866 32.197212 115 31.3883 115 C 30.57939 115 29.80361 114.67866 29.231625 114.106674 C 28.659637 113.53469 28.3383 112.7589 28.3383 111.95 C 28.3383 111.14108 28.659637 110.36531 29.231625 109.79332 C 29.80361 109.22134 30.57939 108.899994 31.3883 108.899994 C 32.197212 108.899994 32.972992 109.22132 33.54498 109.79332 C 34.116962 110.36531 34.4383 111.14108 34.4383 111.95 Z" />
            <path id="path13156-4-87-8" fill="#00ff00" stroke="none" d="M 21.635412 112.18371 C 21.635412 112.99262 21.314075 113.76841 20.742088 114.340385 C 20.170103 114.91237 19.394323 115.23371 18.585413 115.23371 C 17.776503 115.23371 17.000723 114.91237 16.428736 114.340385 C 15.8567505 113.76841 15.535411 112.99262 15.535413 112.18371 C 15.535411 111.374794 15.8567505 110.599014 16.428736 110.02703 C 17.000723 109.45504 17.776503 109.1337 18.585413 109.1337 C 19.394323 109.1337 20.170103 109.45504 20.742088 110.02703 C 21.314075 110.599014 21.635412 111.374794 21.635412 112.18371 Z" />
            <path id="path13156-4-2-4" fill="#00ff00" stroke="none" d="M 9.468715 112.18371 C 9.468716 112.99262 9.147378 113.76841 8.575392 114.340385 C 8.003406 114.91237 7.2276254 115.23371 6.418715 115.23371 C 5.609804 115.23371 4.8340244 114.91237 4.262038 114.340385 C 3.6900523 113.76841 3.3687143 112.99262 3.3687153 112.18371 C 3.3687143 111.374794 3.6900523 110.599014 4.262038 110.02703 C 4.8340244 109.45504 5.609804 109.1337 6.418715 109.1337 C 7.2276254 109.1337 8.003406 109.45504 8.575392 110.02703 C 9.147378 110.599014 9.468716 111.374794 9.468715 112.18371 Z" />
        </g>
    </g>
</svg>