<?xml version="1.0" encoding="UTF-8" standalone="no"?>
<svg
   version="1.1"
   width="50.5mm"
   height="128.5mm"
   viewBox="0 0 50.499999 128.5"
   id="svg8664"
   sodipodi:docname="psxverb.svg"
   inkscape:version="1.2.2 (732a01da63, 2022-12-09)"
   xmlns:inkscape="http://www.inkscape.org/namespaces/inkscape"
   xmlns:sodipodi="http://sodipodi.sourceforge.net/DTD/sodipodi-0.dtd"
   xmlns="http://www.w3.org/2000/svg"
   xmlns:svg="http://www.w3.org/2000/svg"
   xmlns:rdf="http://www.w3.org/1999/02/22-rdf-syntax-ns#"
   xmlns:cc="http://creativecommons.org/ns#"
   xmlns:dc="http://purl.org/dc/elements/1.1/">
  <defs
     id="defs8668" />
  <sodipodi:namedview
     id="namedview8666"
     pagecolor="#ffffff"
     bordercolor="#000000"
     borderopacity="0.25"
     inkscape:showpageshadow="2"
     inkscape:pageopacity="0.0"
     inkscape:pagecheckerboard="0"
     inkscape:deskcolor="#d1d1d1"
     inkscape:document-units="mm"
     showgrid="false"
     showguides="true"
     inkscape:zoom="1.1851376"
     inkscape:cx="154.83434"
     inkscape:cy="232.88435"
     inkscape:window-width="1920"
     inkscape:window-height="1017"
     inkscape:window-x="-8"
     inkscape:window-y="-8"
     inkscape:window-maximized="1"
     inkscape:current-layer="layer3">
    <inkscape:grid
       type="xygrid"
       id="grid13701" />
    <sodipodi:guide
       position="0,125.5"
       orientation="0,1"
       id="guide13711"
       inkscape:locked="false"
       inkscape:label="hole centers, y"
       inkscape:color="rgb(220,138,221)" />
    <sodipodi:guide
       position="0,3.0000001"
       orientation="0,1"
       id="guide13713"
       inkscape:label="hole centers, y2"
       inkscape:locked="false"
       inkscape:color="rgb(220,138,221)" />
    <sodipodi:guide
       position="7.5000001,3.0000001"
       orientation="-1,0"
       id="guide13715"
       inkscape:label="hole centers, x"
       inkscape:locked="false"
       inkscape:color="rgb(220,138,221)" />
    <sodipodi:guide
       position="43.060001,3.0000001"
       orientation="-1,0"
       id="guide13717"
       inkscape:label="hole centers, x2"
       inkscape:locked="false"
       inkscape:color="rgb(220,138,221)" />
  </sodipodi:namedview>
  <title
     id="title2">SVG Image created as ES_Daisy_Patch_SM_FB_Rev1-brd.svg date 2024/04/30 13:34:42 </title>
  <desc
     id="desc4">Image generated by PCBNEW </desc>
  <g
     style="display:none;fill:#000000;fill-opacity:1;stroke:#000000;stroke-linecap:round;stroke-linejoin:round;stroke-opacity:1"
     id="g6" />
  <g
     inkscape:groupmode="layer"
     id="layer1"
     inkscape:label="bg"
     style="display:inline">
    <rect
       style="display:inline;fill:#cccccc;fill-opacity:1;stroke:none;stroke-width:0;stroke-linecap:round;stroke-linejoin:round;stroke-dasharray:none;stroke-opacity:1"
       id="rect6639"
       width="50.515968"
       height="128.5"
       x="-0.31572479"
       y="0" />
    <path
       style="fill:#000000;stroke:none;stroke-width:0;stroke-dasharray:none"
       id="path5722"
       d="m 33.283235,57.26603 c -0.634532,-0.09419 -1.251759,-0.291201 -1.887815,-0.37497 -0.149733,-0.01971 -0.302223,-0.05321 -0.451882,-0.03294 -0.137335,0.0186 -0.25931,0.09791 -0.388964,0.146862 -0.114681,0.150508 -0.255098,0.284512 -0.344046,0.451525 -0.23074,0.433247 -0.408318,1.172688 -0.498075,1.627901 -0.237252,1.203235 -0.312309,2.427325 -0.396907,3.647795 -0.160652,2.778659 -0.09859,5.562727 -0.05867,8.34377 0.01762,1.389332 0.05041,2.781242 0.204549,4.162954 0.05594,0.505389 0.100799,1.010825 0.180806,1.513062 0,0 0.88301,0.431993 0.88301,0.431993 v 0 c -0.0847,-0.502554 -0.135946,-1.008218 -0.19394,-1.514498 -0.16923,-1.385986 -0.230039,-2.781869 -0.254357,-4.177591 -0.06371,-2.779845 -0.127286,-5.563439 0.04617,-8.340966 0.08837,-1.212273 0.165851,-2.427909 0.412364,-3.62145 0.09047,-0.43801 0.271899,-1.162597 0.502168,-1.579774 0.08275,-0.149918 0.215112,-0.266488 0.322668,-0.399732 0.12097,-0.03864 0.236513,-0.10363 0.362907,-0.11592 0.147011,-0.01429 0.295228,0.0172 0.4415,0.03771 0.641882,0.08999 1.267166,0.280046 1.904997,0.392382 0,0 -0.786487,-0.598119 -0.786487,-0.598119 z" />
    <path
       style="fill:#000000;stroke:none;stroke-width:0;stroke-dasharray:none"
       id="path5732"
       d="m 31.03932,90.895767 c -0.01535,0.617257 -0.09381,1.231127 -0.155305,1.845013 0,0 0.855794,0.446818 0.855794,0.446818 v 0 c 0.06099,-0.614566 0.137023,-1.228005 0.177851,-1.844294 0,0 -0.87834,-0.447537 -0.87834,-0.447537 z" />
    <g
       aria-label="OUT/L"
       id="text4660-8-1-0"
       style="font-weight:300;font-size:4.23333px;font-family:'Segoe UI';-inkscape-font-specification:'Segoe UI, Light';stroke-width:0.264583">
      <path
         d="m 23.793548,106.53825 q -0.628385,0 -1.002522,-0.41755 -0.37207,-0.41754 -0.37207,-1.0852 0,-0.709 0.382406,-1.13481 0.384472,-0.42788 1.047997,-0.42788 0.599446,0 0.969449,0.41134 0.37207,0.40928 0.37207,1.07487 0,0.73587 -0.380338,1.15755 -0.380339,0.42168 -1.016992,0.42168 z m 0.02067,-2.87941 q -0.516764,0 -0.851627,0.37414 -0.332796,0.37413 -0.332796,0.97978 0,0.61185 0.31626,0.97565 0.316259,0.36174 0.843358,0.36174 0.549837,0 0.870231,-0.3576 0.320393,-0.35967 0.320393,-1.00046 0,-0.62838 -0.314192,-0.97978 -0.312126,-0.35347 -0.851627,-0.35347 z"
         id="path6454" />
      <path
         d="m 27.816039,105.30215 q 0,1.2361 -1.054199,1.2361 -1.002522,0 -1.002522,-1.19063 v -1.82521 h 0.202572 v 1.79628 q 0,1.03146 0.839224,1.03146 0.812353,0 0.812353,-1.00253 v -1.82521 h 0.202572 z"
         id="path6456" />
      <path
         d="m 29.343593,103.71052 v 2.77605 h -0.202572 v -2.77605 H 28.28526 v -0.18811 h 1.914094 v 0.18811 z"
         id="path6458" />
      <path
         d="m 30.453601,106.97853 h -0.190169 l 1.43247,-3.45612 h 0.198437 z"
         id="path6460" />
      <path
         d="m 32.254007,106.48657 v -2.96416 h 0.204638 v 2.77813 h 1.188557 v 0.18603 z"
         id="path6462" />
    </g>
    <g
       aria-label="OUT/R "
       id="text4660-8-1-0-1"
       style="font-weight:300;font-size:4.23333px;font-family:'Segoe UI';-inkscape-font-specification:'Segoe UI, Light';stroke-width:0.264583">
      <path
         d="m 39.039331,106.25848 q -0.628385,0 -1.002522,-0.41755 -0.37207,-0.41754 -0.37207,-1.0852 0,-0.709 0.382406,-1.13481 0.384472,-0.42788 1.047997,-0.42788 0.599446,0 0.969449,0.41134 0.37207,0.40928 0.37207,1.07487 0,0.73587 -0.380338,1.15755 -0.380339,0.42168 -1.016992,0.42168 z m 0.02067,-2.87941 q -0.516764,0 -0.851627,0.37414 -0.332796,0.37413 -0.332796,0.97978 0,0.61185 0.316259,0.97565 0.31626,0.36174 0.843359,0.36174 0.549837,0 0.870231,-0.3576 0.320393,-0.35967 0.320393,-1.00046 0,-0.62838 -0.314192,-0.97978 -0.312126,-0.35347 -0.851627,-0.35347 z"
         id="path6465" />
      <path
         d="m 43.061821,105.02238 q 0,1.2361 -1.054198,1.2361 -1.002522,0 -1.002522,-1.19063 v -1.82521 h 0.202572 v 1.79628 q 0,1.03146 0.839224,1.03146 0.812353,0 0.812353,-1.00253 v -1.82521 h 0.202571 z"
         id="path6467" />
      <path
         d="m 44.589375,103.43075 v 2.77605 h -0.202571 v -2.77605 h -0.855761 v -0.18811 h 1.914093 v 0.18811 z"
         id="path6469" />
      <path
         d="m 45.699384,106.69876 h -0.190169 l 1.432469,-3.45612 h 0.198438 z"
         id="path6471" />
      <path
         d="m 49.017009,106.2068 -0.394808,-0.86816 q -0.121956,-0.26872 -0.243913,-0.35967 -0.121956,-0.093 -0.305924,-0.093 h -0.367936 v 1.32085 H 47.49979 v -2.96416 h 0.822688 q 0.39274,0 0.615982,0.21291 0.225309,0.21084 0.225309,0.55811 0,0.32039 -0.183967,0.53536 -0.183968,0.21498 -0.514697,0.27699 v 0.008 q 0.175699,0.0703 0.343131,0.42788 l 0.440283,0.94464 z m -1.312581,-2.77605 v 1.26917 h 0.510563 q 0.338997,0 0.537434,-0.17777 0.200505,-0.17776 0.200505,-0.48782 0,-0.28319 -0.179834,-0.44235 -0.179834,-0.16123 -0.514697,-0.16123 z"
         id="path6473" />
    </g>
    <g
       aria-label="Mix"
       id="text4795"
       style="font-size:4.9389px;font-family:'Segoe UI';-inkscape-font-specification:'Segoe UI';stroke-width:0.264583">
      <path
         d="m 39.874774,48.309017 h -0.402733 v -2.319932 q 0,-0.27492 0.03376,-0.672829 h -0.0096 q -0.05788,0.233923 -0.103698,0.335209 l -1.18167,2.657552 H 38.01304 l -1.179259,-2.63826 q -0.05064,-0.115755 -0.103698,-0.354501 h -0.0096 q 0.01929,0.207395 0.01929,0.677652 v 2.315109 h -0.390675 v -3.458194 h 0.535369 l 1.061092,2.411572 q 0.12299,0.277331 0.159164,0.41479 h 0.01447 q 0.103698,-0.284565 0.166399,-0.424436 l 1.082796,-2.401926 h 0.50643 z"
         id="path6528" />
      <path
         d="m 40.933454,45.212558 q -0.106109,0 -0.180868,-0.07235 -0.07476,-0.07235 -0.07476,-0.183279 0,-0.110933 0.07476,-0.18328 0.07476,-0.07476 0.180868,-0.07476 0.108521,0 0.183279,0.07476 0.07717,0.07235 0.07717,0.18328 0,0.106109 -0.07717,0.180868 -0.07476,0.07476 -0.183279,0.07476 z m 0.192926,3.096459 h -0.395498 v -2.46945 h 0.395498 z"
         id="path6530" />
      <path
         d="m 43.730878,45.839567 -0.829581,1.249195 0.815111,1.220255 h -0.46061 l -0.484726,-0.800642 q -0.04582,-0.07476 -0.108521,-0.188102 h -0.0096 q -0.01206,0.0217 -0.113344,0.188102 l -0.494372,0.800642 h -0.455788 l 0.841639,-1.210609 -0.805465,-1.258841 h 0.46061 l 0.477492,0.84405 q 0.05305,0.09405 0.103697,0.192926 h 0.0096 l 0.617363,-1.036976 z"
         id="path6532" />
    </g>
    <rect
       style="fill:#000000;stroke:none;stroke-width:0;stroke-dasharray:none"
       id="rect5959"
       width="23.218121"
       height="9.0416718"
       x="25.514503"
       y="107.58221" />
    <text
       xml:space="preserve"
       style="font-weight:bold;font-size:4.23333px;font-family:'Segoe UI';-inkscape-font-specification:'Segoe UI Bold';fill:#000000;stroke-width:0.264583"
       x="3.2371416"
       y="106.4908"
       id="text524"><tspan
         sodipodi:role="line"
         style="font-style:normal;font-variant:normal;font-weight:300;font-stretch:normal;font-size:4.23333px;font-family:'Segoe UI';-inkscape-font-specification:'Segoe UI Light';stroke-width:0.264583"
         x="3.2371416"
         y="106.4908"
         id="tspan576">IN/L  IN/R</tspan></text>
    <text
       xml:space="preserve"
       style="font-style:normal;font-variant:normal;font-weight:300;font-stretch:normal;font-size:4.23333px;font-family:'Segoe UI';-inkscape-font-specification:'Segoe UI Light';fill:#000000;stroke-width:0.264583"
       x="10.939306"
       y="31.03191"
       id="text582"><tspan
         sodipodi:role="line"
         id="tspan580"
         style="stroke-width:0.264583"
         x="10.939306"
         y="31.03191">uhhh i still need</tspan><tspan
         sodipodi:role="line"
         style="stroke-width:0.264583"
         x="10.939306"
         y="36.32357"
         id="tspan584">to add options</tspan><tspan
         sodipodi:role="line"
         style="stroke-width:0.264583"
         x="10.939306"
         y="41.615234"
         id="tspan586">to this one :(</tspan></text>
    <text
       xml:space="preserve"
       style="font-style:normal;font-variant:normal;font-weight:300;font-stretch:normal;font-size:7.05556px;font-family:'Segoe UI';-inkscape-font-specification:'Segoe UI Light';fill:#000000;stroke-width:0.264583"
       x="10.046302"
       y="15.627582"
       id="text590"><tspan
         sodipodi:role="line"
         id="tspan588"
         style="font-style:normal;font-variant:normal;font-weight:bold;font-stretch:normal;font-size:7.05556px;font-family:'Segoe UI';-inkscape-font-specification:'Segoe UI Bold';stroke-width:0.264583"
         x="10.046302"
         y="15.627582">PSXVerb</tspan></text>
  </g>
  <g
     inkscape:groupmode="layer"
     id="layer2"
     inkscape:label="holes"
     style="fill:#280b0b">
    <circle
       style="fill:#280b0b;stroke-width:0.264583"
       id="path13614"
       cx="7.5"
       cy="3.0000024"
       r="1.6" />
    <circle
       style="fill:#280b0b;stroke-width:0.264583"
       id="circle13616"
       cx="43.060001"
       cy="3.0000024"
       r="1.6" />
    <circle
       style="fill:#280b0b;stroke-width:0.264583"
       id="circle13645"
       cx="7.5"
       cy="125.5"
       r="1.6"
       inkscape:label="circle13645" />
    <circle
       style="fill:#280b0b;stroke-width:0.264583"
       id="circle13647"
       cx="43.060001"
       cy="125.5"
       r="1.6" />
  </g>
  <metadata
     id="metadata13212">
    <rdf:RDF>
      <cc:Work
         rdf:about="">
        <dc:title>SVG Image created as ES_Daisy_Patch_SM_FB_Rev1-brd.svg date 2024/04/30 13:34:42 </dc:title>
      </cc:Work>
    </rdf:RDF>
  </metadata>
  <g
     inkscape:groupmode="layer"
     id="layer3"
     inkscape:label="components"
     style="display:inline">
    <circle
       style="display:inline;fill:#ff0000;stroke-width:0.264583"
       id="path13156-4-8-0-1"
       cx="39.53883"
       cy="55.794468"
       r="4.5999999"
       inkscape:label="mix" />
    <circle
       style="fill:#ff0000;stroke-width:0.264583"
       id="path13156-4-8-0-1-7"
       cx="31.03191"
       cy="85.505188"
       r="4.5999999"
       inkscape:label="mix amt" />
    <circle
       style="fill:#00ff00;stroke-width:0.264583"
       id="path13156-4-3"
       cx="31.3883"
       cy="98.300003"
       r="3.05"
       inkscape:label="mix in" />
    <circle
       style="fill:#0000ff;stroke-width:0.264583"
       id="path13156-4-87"
       cx="43.555"
       cy="111.95"
       r="3.05"
       inkscape:label="audio R" />
    <circle
       style="fill:#0000ff;stroke-width:0.264583"
       id="path13156-4-2"
       cx="31.3883"
       cy="111.95"
       r="3.05"
       inkscape:label="audio L" />
    <circle
       style="display:inline;fill:#00ff00;stroke-width:0.264583"
       id="path13156-4-87-8"
       cx="18.585413"
       cy="112.18371"
       r="3.05"
       inkscape:label="audio R" />
    <circle
       style="display:inline;fill:#00ff00;stroke-width:0.264583"
       id="path13156-4-2-4"
       cx="6.418715"
       cy="112.18371"
       r="3.05"
       inkscape:label="audio L" />
  </g>
</svg>
