<svg xmlns="http://www.w3.org/2000/svg" width="2480.315" height="3507.874">
    <defs />
    <g transform="matrix(11.811024 0 0 11.811024 0 0)">
        <g id="layer1" />
        <g id="layer4">
            <g id="text1477">
                <path fill="#000000" stroke="none" d="M 63.409107 83.84508 L 61.741135 81.581406 Q 61.690353 81.51305 61.65129 81.44469 L 61.6259 81.405624 L 61.618088 81.405624 Q 61.621994 81.456406 61.621994 81.52867 L 61.621994 83.84508 L 61.428635 83.84508 L 61.428635 81.0443 L 61.577072 81.0443 L 63.233322 83.28844 Q 63.288006 83.362656 63.352463 83.468124 L 63.36223 83.468124 Q 63.352463 83.331406 63.352463 83.23375 L 63.352463 81.0443 L 63.54582 81.0443 L 63.54582 83.84508 L 63.409107 83.84508 Z M 65.028244 83.893906 Q 64.590744 83.893906 64.33586 83.60582 Q 64.08098 83.31773 64.08098 82.8568 Q 64.08098 82.35875 64.34758 82.0775 Q 64.61418 81.79625 65.04973 81.79625 Q 65.47746 81.79625 65.72551 82.07555 Q 65.97356 82.35484 65.97356 82.84898 Q 65.97356 83.31578 65.72063 83.60484 Q 65.4677 83.893906 65.028244 83.893906 Z M 65.041916 81.96031 Q 64.6884 81.96031 64.47844 82.19859 Q 64.26848 82.436874 64.26848 82.8607 Q 64.26848 83.25328 64.47356 83.49156 Q 64.678635 83.72984 65.0341 83.72984 Q 65.39543 83.72984 65.590744 83.49547 Q 65.78606 83.26109 65.78606 82.84508 Q 65.78606 82.41734 65.59172 82.18883 Q 65.397385 81.96031 65.041916 81.96031 Z M 69.04582 83.84508 L 67.85246 82.50523 Q 67.81926 82.468124 67.80559 82.44078 L 67.797775 82.44078 L 67.797775 83.84508 L 67.604416 83.84508 L 67.604416 81.0443 L 67.797775 81.0443 L 67.797775 82.36461 L 67.80559 82.36461 Q 67.829025 82.32359 67.85637 82.29625 L 68.98918 81.0443 L 69.241135 81.0443 L 68.01262 82.40172 L 69.31731 83.84508 L 69.04582 83.84508 Z M 71.03215 83.84508 L 71.03215 82.681015 Q 71.03215 81.96031 70.51262 81.96031 Q 70.22356 81.96031 70.03801 82.172226 Q 69.85246 82.38414 69.85246 82.69664 L 69.85246 83.84508 L 69.672775 83.84508 L 69.672775 81.84508 L 69.85246 81.84508 L 69.85246 82.20836 L 69.860275 82.20836 Q 70.079025 81.79625 70.54387 81.79625 Q 70.86809 81.79625 71.03996 82.01207 Q 71.21184 82.22789 71.21184 82.62828 L 71.21184 83.84508 L 71.03215 83.84508 Z M 72.616135 83.893906 Q 72.178635 83.893906 71.92375 83.60582 Q 71.66887 83.31773 71.66887 82.8568 Q 71.66887 82.35875 71.93547 82.0775 Q 72.20207 81.79625 72.63762 81.79625 Q 73.06535 81.79625 73.3134 82.07555 Q 73.56145 82.35484 73.56145 82.84898 Q 73.56145 83.31578 73.30852 83.60484 Q 73.05559 83.893906 72.616135 83.893906 Z M 72.62981 81.96031 Q 72.27629 81.96031 72.06633 82.19859 Q 71.85637 82.436874 71.85637 82.8607 Q 71.85637 83.25328 72.06145 83.49156 Q 72.266525 83.72984 72.621994 83.72984 Q 72.98332 83.72984 73.178635 83.49547 Q 73.37395 83.26109 73.37395 82.84508 Q 73.37395 82.41734 73.17961 82.18883 Q 72.985275 81.96031 72.62981 81.96031 Z M 74.24504 83.48961 L 74.23723 83.48961 L 74.23723 83.84508 L 74.05754 83.84508 L 74.05754 80.88414 L 74.23723 80.88414 L 74.23723 82.25719 L 74.24504 82.25719 Q 74.35246 82.03648 74.55266 81.91637 Q 74.75285 81.79625 74.99309 81.79625 Q 75.37395 81.79625 75.587814 82.058945 Q 75.80168 82.32164 75.80168 82.77281 Q 75.80168 83.274765 75.553635 83.584335 Q 75.30559 83.893906 74.9091 83.893906 Q 74.459885 83.893906 74.24504 83.48961 Z M 74.23723 82.74547 L 74.23723 82.99742 Q 74.23723 83.2982 74.42668 83.51402 Q 74.616135 83.72984 74.92473 83.72984 Q 75.23137 83.72984 75.422775 83.46715 Q 75.61418 83.20445 75.61418 82.77672 Q 75.61418 82.40172 75.4384 82.181015 Q 75.26262 81.96031 74.96965 81.96031 Q 74.62004 81.96031 74.428635 82.19469 Q 74.23723 82.42906 74.23723 82.74547 Z" />
                <path fill="#000000" stroke="none" d="M 62.86223 88.84508 L 62.48918 88.02476 Q 62.37395 87.77086 62.258713 87.683945 Q 62.14348 87.59704 61.96965 87.59704 L 61.621994 87.59704 L 61.621994 88.84508 L 61.428635 88.84508 L 61.428635 86.0443 L 62.20598 86.0443 Q 62.57707 86.0443 62.788986 86.24449 Q 63.0009 86.44469 63.0009 86.772804 Q 63.0009 87.07555 62.827076 87.27867 Q 62.653244 87.4818 62.340748 87.54039 L 62.340748 87.5482 Q 62.506756 87.61461 62.664967 87.9525 L 63.080982 88.84508 L 62.86223 88.84508 Z M 61.621994 86.22203 L 61.621994 87.42124 L 62.104416 87.42124 Q 62.42473 87.42124 62.61321 87.25328 Q 62.801678 87.08531 62.801678 86.79234 Q 62.801678 86.524765 62.631763 86.3734 Q 62.461838 86.22203 62.145435 86.22203 L 61.621994 86.22203 Z M 64.53801 88.84508 L 64.39348 88.84508 L 63.37004 86.0443 L 63.586838 86.0443 L 64.397385 88.300156 Q 64.448166 88.44078 64.46965 88.56578 L 64.47746 88.56578 Q 64.496994 88.46618 64.55754 88.29626 L 65.41887 86.0443 L 65.6259 86.0443 L 64.53801 88.84508 Z M 66.71379 88.8939 Q 66.32707 88.8939 66.10832 88.53844 Q 65.88957 88.18297 65.88957 87.50523 Q 65.88957 86.757195 66.119064 86.37731 Q 66.34856 85.99742 66.77434 85.99742 Q 67.58293 85.99742 67.58293 87.43297 Q 67.58293 88.14781 67.354416 88.52086 Q 67.1259 88.8939 66.71379 88.8939 Z M 66.75871 86.161476 Q 66.43645 86.161476 66.25676 86.49157 Q 66.07707 86.82164 66.07707 87.4818 Q 66.07707 88.08337 66.24895 88.4066 Q 66.42082 88.72984 66.73723 88.72984 Q 67.047775 88.72984 67.22063 88.40074 Q 67.39348 88.07164 67.39348 87.46031 Q 67.39348 86.161476 66.75871 86.161476 Z M 68.11418 88.82164 L 68.11418 88.624374 Q 68.33879 88.72984 68.52629 88.72984 Q 68.96965 88.72984 69.20207 88.37535 Q 69.434494 88.02086 69.434494 87.32945 L 69.42668 87.32945 Q 69.23332 87.78063 68.73918 87.78063 Q 68.56535 87.78063 68.42375 87.71617 Q 68.28215 87.65172 68.17961 87.53746 Q 68.07707 87.4232 68.02141 87.265976 Q 67.965744 87.10875 67.965744 86.92125 Q 67.965744 86.71422 68.02922 86.54429 Q 68.0927 86.37437 68.20598 86.25328 Q 68.31926 86.13218 68.47453 86.064804 Q 68.62981 85.99742 68.81145 85.99742 Q 68.996994 85.99742 69.147385 86.076515 Q 69.297775 86.155624 69.403244 86.314804 Q 69.50871 86.47398 69.56535 86.71129 Q 69.621994 86.9486 69.621994 87.26501 Q 69.621994 87.65563 69.550705 87.95835 Q 69.479416 88.261086 69.340744 88.4691 Q 69.20207 88.67711 68.996994 88.78551 Q 68.791916 88.8939 68.522385 88.8939 Q 68.3134 88.8939 68.11418 88.82164 Z M 68.78606 86.161476 Q 68.64934 86.161476 68.53313 86.21617 Q 68.416916 86.27087 68.33293 86.36754 Q 68.24895 86.46422 68.20207 86.59703 Q 68.1552 86.72984 68.1552 86.88414 Q 68.1552 87.05406 68.201096 87.189804 Q 68.246994 87.32554 68.329025 87.42027 Q 68.41106 87.515 68.52629 87.56578 Q 68.641525 87.61656 68.78215 87.61656 Q 68.91106 87.61656 69.02629 87.5648 Q 69.141525 87.51305 69.22649 87.42613 Q 69.31145 87.339226 69.36125 87.22301 Q 69.41106 87.1068 69.41106 86.9779 Q 69.41106 86.800156 69.36516 86.649765 Q 69.31926 86.49938 69.23625 86.390976 Q 69.153244 86.28258 69.03801 86.22203 Q 68.922775 86.161476 68.78606 86.161476 Z M 72.010666 88.84508 L 71.69035 87.97398 L 70.47551 87.97398 L 70.1552 88.84508 L 69.94231 88.84508 L 70.99895 86.0443 L 71.18254 86.0443 L 72.22746 88.84508 L 72.010666 88.84508 Z M 71.15129 86.50133 Q 71.12981 86.44273 71.116135 86.38609 Q 71.10246 86.33727 71.08684 86.28844 L 71.079025 86.28844 Q 71.04582 86.41734 71.01457 86.49742 L 70.54387 87.79624 L 71.62395 87.79624 L 71.15129 86.50133 Z M 72.89543 86.22203 L 72.89543 87.36461 L 73.93059 87.36461 L 73.93059 87.54039 L 72.89543 87.54039 L 72.89543 88.84508 L 72.70207 88.84508 L 72.70207 86.0443 L 74.010666 86.0443 L 74.010666 86.22203 L 72.89543 86.22203 Z M 74.485275 87.76109 L 74.485275 87.58531 L 75.553635 87.58531 L 75.553635 87.76109 L 74.485275 87.76109 Z M 77.40715 86.0443 L 77.40715 87.950554 L 77.84465 87.950554 L 77.84465 88.11266 L 77.40715 88.11266 L 77.40715 88.84508 L 77.22746 88.84508 L 77.22746 88.11266 L 75.891525 88.11266 L 75.891525 87.93687 Q 76.079025 87.72398 76.272385 87.47887 Q 76.465744 87.23375 76.6425 86.98375 Q 76.81926 86.73375 76.9677 86.49157 Q 77.116135 86.24937 77.215744 86.0443 L 77.40715 86.0443 Z M 76.09856 87.950554 L 77.22746 87.950554 L 77.22746 86.36461 Q 77.084885 86.610695 76.931564 86.84117 Q 76.778244 87.07164 76.62883 87.27574 Q 76.479416 87.479836 76.3427 87.65172 Q 76.20598 87.82359 76.09856 87.950554 Z M 78.92473 88.8939 Q 78.53801 88.8939 78.31926 88.53844 Q 78.10051 88.18297 78.10051 87.50523 Q 78.10051 86.757195 78.33 86.37731 Q 78.559494 85.99742 78.985275 85.99742 Q 79.79387 85.99742 79.79387 87.43297 Q 79.79387 88.14781 79.56535 88.52086 Q 79.33684 88.8939 78.92473 88.8939 Z M 78.96965 86.161476 Q 78.647385 86.161476 78.4677 86.49157 Q 78.28801 86.82164 78.28801 87.4818 Q 78.28801 88.08337 78.459885 88.4066 Q 78.63176 88.72984 78.948166 88.72984 Q 79.25871 88.72984 79.431564 88.40074 Q 79.604416 88.07164 79.604416 87.46031 Q 79.604416 86.161476 78.96965 86.161476 Z M 80.260666 87.76109 L 80.260666 87.58531 L 81.329025 87.58531 L 81.329025 87.76109 L 80.260666 87.76109 Z M 81.75676 88.84508 L 81.75676 88.71422 Q 81.75676 88.58336 81.778244 88.47887 Q 81.79973 88.374374 81.84367 88.28648 Q 81.88762 88.19859 81.95305 88.121445 Q 82.01848 88.0443 82.10539 87.96715 Q 82.19231 87.89 82.30266 87.808945 Q 82.41301 87.72789 82.54387 87.63219 Q 82.67082 87.54039 82.78117 87.45054 Q 82.891525 87.36071 82.97356 87.25719 Q 83.05559 87.15367 83.10344 87.02965 Q 83.15129 86.90562 83.15129 86.74547 Q 83.15129 86.468124 82.99797 86.314804 Q 82.84465 86.161476 82.56731 86.161476 Q 82.37981 86.161476 82.20598 86.243515 Q 82.03215 86.32555 81.866135 86.47203 L 81.866135 86.26109 Q 82.02629 86.138054 82.21184 86.06773 Q 82.397385 85.99742 82.59856 85.99742 Q 82.766525 85.99742 82.903244 86.0482 Q 83.03996 86.09898 83.13664 86.19273 Q 83.23332 86.286476 83.28606 86.41929 Q 83.33879 86.55211 83.33879 86.71617 Q 83.33879 86.90953 83.28313 87.058945 Q 83.22746 87.20836 83.13176 87.33043 Q 83.03606 87.4525 82.90813 87.55504 Q 82.7802 87.65758 82.63762 87.75915 Q 82.448166 87.893906 82.31731 87.998405 Q 82.18645 88.10289 82.104416 88.2025 Q 82.022385 88.30211 81.98625 88.40757 Q 81.95012 88.51305 81.95012 88.65172 L 81.95012 88.681015 L 83.3427 88.681015 L 83.3427 88.84508 L 81.75676 88.84508 Z M 84.63762 88.8939 Q 84.2509 88.8939 84.03215 88.53844 Q 83.8134 88.18297 83.8134 87.50523 Q 83.8134 86.757195 84.04289 86.37731 Q 84.272385 85.99742 84.698166 85.99742 Q 85.50676 85.99742 85.50676 87.43297 Q 85.50676 88.14781 85.278244 88.52086 Q 85.04973 88.8939 84.63762 88.8939 Z M 84.68254 86.161476 Q 84.360275 86.161476 84.18059 86.49157 Q 84.0009 86.82164 84.0009 87.4818 Q 84.0009 88.08337 84.172775 88.4066 Q 84.34465 88.72984 84.66106 88.72984 Q 84.9716 88.72984 85.144455 88.40074 Q 85.31731 88.07164 85.31731 87.46031 Q 85.31731 86.161476 84.68254 86.161476 Z M 87.491135 88.84508 L 86.297775 87.50523 Q 86.26458 87.468124 86.25089 87.44078 L 86.243095 87.44078 L 86.243095 88.84508 L 86.04973 88.84508 L 86.04973 86.0443 L 86.243095 86.0443 L 86.243095 87.36461 L 86.25089 87.36461 Q 86.27434 87.32359 86.30169 87.29625 L 87.434494 86.0443 L 87.686455 86.0443 L 86.457924 87.40172 L 87.76262 88.84508 L 87.491135 88.84508 Z M 88.08098 87.76109 L 88.08098 87.58531 L 89.14934 87.58531 L 89.14934 87.76109 L 88.08098 87.76109 Z M 89.748955 88.84508 L 89.748955 86.0443 L 90.485275 86.0443 Q 90.81535 86.0443 91.010666 86.22203 Q 91.20598 86.399765 91.20598 86.69273 Q 91.20598 86.936874 91.076096 87.11558 Q 90.94621 87.294304 90.71379 87.36852 L 90.71379 87.37632 Q 91.00481 87.40367 91.172775 87.584335 Q 91.34075 87.765 91.34075 88.0443 Q 91.34075 88.39781 91.112236 88.621445 Q 90.88372 88.84508 90.50091 88.84508 L 89.748955 88.84508 Z M 89.94231 86.22203 L 89.94231 87.306015 L 90.33293 87.306015 Q 90.63762 87.306015 90.82121 87.149765 Q 91.00481 86.99351 91.00481 86.72594 Q 91.00481 86.22203 90.4091 86.22203 L 89.94231 86.22203 Z M 89.94231 87.4818 L 89.94231 88.6693 L 90.46184 88.6693 Q 90.791916 88.6693 90.96672 88.511086 Q 91.14153 88.35289 91.14153 88.06187 Q 91.14153 87.4818 90.35441 87.4818 L 89.94231 87.4818 Z M 92.592705 85.9818 L 92.592705 88.84508 L 92.41301 88.84508 L 92.41301 86.265 Q 92.278244 86.393906 92.10539 86.487656 Q 91.93254 86.5814 91.72746 86.65368 L 91.72746 86.48961 Q 91.85051 86.448586 91.95598 86.396835 Q 92.06145 86.34507 92.15813 86.28258 Q 92.2548 86.22007 92.345634 86.14488 Q 92.43645 86.06969 92.5302 85.9818 L 92.592705 85.9818 Z M 93.99895 88.8939 Q 93.61223 88.8939 93.39348 88.53844 Q 93.174736 88.18297 93.174736 87.50523 Q 93.174736 86.757195 93.40422 86.37731 Q 93.63371 85.99742 94.05949 85.99742 Q 94.86809 85.99742 94.86809 87.43297 Q 94.86809 88.14781 94.63957 88.52086 Q 94.41106 88.8939 93.99895 88.8939 Z M 94.04388 86.161476 Q 93.7216 86.161476 93.541916 86.49157 Q 93.36223 86.82164 93.36223 87.4818 Q 93.36223 88.08337 93.5341 88.4066 Q 93.70597 88.72984 94.02239 88.72984 Q 94.33293 88.72984 94.505775 88.40074 Q 94.67863 88.07164 94.67863 87.46031 Q 94.67863 86.161476 94.04388 86.161476 Z M 96.85246 88.84508 L 95.6591 87.50523 Q 95.6259 87.468124 95.61223 87.44078 L 95.604416 87.44078 L 95.604416 88.84508 L 95.41106 88.84508 L 95.41106 86.0443 L 95.604416 86.0443 L 95.604416 87.36461 L 95.61223 87.36461 Q 95.63566 87.32359 95.66301 87.29625 L 96.79582 86.0443 L 97.047775 86.0443 L 95.81927 87.40172 L 97.12394 88.84508 L 96.85246 88.84508 Z" />
            </g>
            <g id="text1481">
                <path fill="#000000" stroke="none" d="M 113.75876 83.39154 L 113.75876 80.59076 L 114.45994 80.59076 Q 115.157196 80.59076 115.520485 80.938416 Q 115.88376 81.28607 115.88376 81.95209 Q 115.88376 82.59271 115.49411 82.99213 Q 115.10446 83.39154 114.418915 83.39154 L 113.75876 83.39154 Z M 113.952126 80.76849 L 113.952126 83.21576 L 114.39157 83.21576 Q 115.01462 83.21576 115.3486 82.89252 Q 115.682594 82.569275 115.682594 81.9599 Q 115.682594 80.76849 114.43064 80.76849 L 113.952126 80.76849 Z M 117.61032 83.39154 L 117.61032 82.99115 L 117.60251 82.99115 Q 117.506805 83.19623 117.32419 83.3183 Q 117.14158 83.44037 116.918915 83.44037 Q 116.63375 83.44037 116.46774 83.28021 Q 116.301735 83.120056 116.301735 82.875916 Q 116.301735 82.35248 116.99508 82.2431 L 117.61032 82.151306 Q 117.61032 81.506775 117.125946 81.506775 Q 116.79586 81.506775 116.48337 81.7724 L 116.48337 81.5556 Q 116.594696 81.46771 116.78512 81.40521 Q 116.975555 81.34271 117.143524 81.34271 Q 117.45211 81.34271 117.62106 81.53412 Q 117.790016 81.725525 117.790016 82.09076 L 117.790016 83.39154 L 117.61032 83.39154 Z M 117.05954 82.39545 Q 116.74509 82.44037 116.61814 82.540955 Q 116.49118 82.64154 116.49118 82.8681 Q 116.49118 83.04584 116.609344 83.16107 Q 116.72751 83.276306 116.938446 83.276306 Q 117.22751 83.276306 117.418915 83.06244 Q 117.61032 82.84857 117.61032 82.51068 L 117.61032 82.31537 L 117.05954 82.39545 Z M 119.04782 83.39154 L 118.88376 83.39154 L 118.11032 81.39154 L 118.31149 81.39154 L 118.907196 82.98334 Q 118.950165 83.09857 118.96774 83.19232 L 118.97556 83.19232 Q 119.000946 83.069275 119.032196 82.99115 L 119.64742 81.39154 L 119.84274 81.39154 L 119.04782 83.39154 Z M 120.29196 80.887634 Q 120.23337 80.887634 120.188446 80.844666 Q 120.143524 80.8017 120.143524 80.73529 Q 120.143524 80.67084 120.18942 80.6308 Q 120.23533 80.59076 120.29196 80.59076 Q 120.35251 80.59076 120.39841 80.62982 Q 120.444305 80.668884 120.444305 80.73529 Q 120.444305 80.79779 120.39938 80.84271 Q 120.354454 80.887634 120.29196 80.887634 Z M 120.20407 83.39154 L 120.20407 81.39154 L 120.38375 81.39154 L 120.38375 83.39154 L 120.20407 83.39154 Z M 121.06736 82.39935 Q 121.06736 82.81146 121.25778 83.043884 Q 121.44821 83.276306 121.78024 83.276306 Q 122.11618 83.276306 122.43649 83.02826 L 122.43649 83.219666 Q 122.125946 83.44037 121.74313 83.44037 Q 121.35641 83.44037 121.11813 83.163025 Q 120.87985 82.88568 120.87985 82.37982 Q 120.87985 81.94232 121.128876 81.64252 Q 121.37789 81.34271 121.77633 81.34271 Q 122.14938 81.34271 122.3486 81.60443 Q 122.54782 81.86615 122.54782 82.319275 L 122.54782 82.39935 L 121.06736 82.39935 Z M 122.36032 82.23529 Q 122.3486 81.88959 122.194305 81.69818 Q 122.040016 81.506775 121.76852 81.506775 Q 121.48728 81.506775 121.302704 81.69525 Q 121.11813 81.88373 121.07517 82.23529 L 122.36032 82.23529 Z M 122.9404 83.30365 L 122.9404 83.08685 Q 123.04197 83.17474 123.18649 83.225525 Q 123.331024 83.276306 123.43649 83.276306 Q 123.907196 83.276306 123.907196 82.89154 Q 123.907196 82.75873 123.80368 82.66498 Q 123.700165 82.57123 123.46774 82.47162 Q 123.18063 82.34662 123.06442 82.21283 Q 122.94821 82.07904 122.94821 81.887634 Q 122.94821 81.64349 123.13473 81.4931 Q 123.32126 81.34271 123.5947 81.34271 Q 123.852516 81.34271 124.03611 81.44818 L 124.03611 81.651306 Q 123.813446 81.506775 123.575165 81.506775 Q 123.3779 81.506775 123.2568 81.609314 Q 123.13571 81.71185 123.13571 81.875916 Q 123.13571 82.01849 123.21189 82.10736 Q 123.288055 82.19623 123.54782 82.31146 Q 123.86031 82.45209 123.977516 82.572205 Q 124.094696 82.69232 124.094696 82.89154 Q 124.094696 83.12982 123.91598 83.285095 Q 123.737274 83.44037 123.42282 83.44037 Q 123.13376 83.44037 122.9404 83.30365 Z" />
                <path fill="#000000" stroke="none" d="M 115.19235 88.39153 L 114.819305 87.57123 Q 114.70406 87.31732 114.58884 87.230415 Q 114.4736 87.14349 114.299774 87.14349 L 113.952126 87.14349 L 113.952126 88.39153 L 113.75876 88.39153 L 113.75876 85.59076 L 114.5361 85.59076 Q 114.907196 85.59076 115.11912 85.790955 Q 115.331024 85.99115 115.331024 86.319275 Q 115.331024 86.62202 115.157196 86.825134 Q 114.983376 87.02825 114.67087 87.086845 L 114.67087 87.09466 Q 114.836876 87.161064 114.99509 87.49897 L 115.411095 88.39153 L 115.19235 88.39153 Z M 113.952126 85.76849 L 113.952126 86.96771 L 114.43454 86.96771 Q 114.75486 86.96771 114.94332 86.799736 Q 115.1318 86.631775 115.1318 86.338806 Q 115.1318 86.07123 114.961876 85.91985 Q 114.79197 85.76849 114.47555 85.76849 L 113.952126 85.76849 Z M 115.97946 88.39153 L 115.97946 85.59076 L 116.68063 85.59076 Q 117.37789 85.59076 117.74118 85.93841 Q 118.10446 86.28607 118.10446 86.95209 Q 118.10446 87.59271 117.71481 87.99213 Q 117.32517 88.39153 116.63962 88.39153 L 115.97946 88.39153 Z M 116.17282 85.76849 L 116.17282 88.21576 L 116.61227 88.21576 Q 117.23532 88.21576 117.5693 87.892525 Q 117.90329 87.569275 117.90329 86.9599 Q 117.90329 85.76849 116.65134 85.76849 L 116.17282 85.76849 Z M 118.663055 88.36811 L 118.663055 88.17084 Q 118.88767 88.276306 119.075165 88.276306 Q 119.518524 88.276306 119.750946 87.921814 Q 119.98337 87.56732 119.98337 86.875916 L 119.975555 86.875916 Q 119.782196 87.32709 119.288055 87.32709 Q 119.11423 87.32709 118.97262 87.262634 Q 118.831024 87.19817 118.72849 87.083916 Q 118.625946 86.96966 118.57028 86.81244 Q 118.51462 86.65521 118.51462 86.46772 Q 118.51462 86.26068 118.578094 86.09076 Q 118.64157 85.92084 118.75486 85.79974 Q 118.86813 85.67865 119.023415 85.61127 Q 119.17868 85.543884 119.36032 85.543884 Q 119.54587 85.543884 119.69626 85.622986 Q 119.84665 85.70209 119.95212 85.86127 Q 120.05759 86.02045 120.11423 86.25776 Q 120.17087 86.495056 120.17087 86.81146 Q 120.17087 87.20209 120.09957 87.50482 Q 120.02829 87.807556 119.88961 88.015564 Q 119.750946 88.22357 119.54587 88.33197 Q 119.34079 88.44037 119.071266 88.44037 Q 118.862274 88.44037 118.663055 88.36811 Z M 119.33493 85.70795 Q 119.19821 85.70795 119.082 85.762634 Q 118.96579 85.81732 118.881805 85.914 Q 118.79782 86.01069 118.750946 86.1435 Q 118.70406 86.27631 118.70406 86.43061 Q 118.70406 86.60053 118.74997 86.736275 Q 118.79587 86.87201 118.8779 86.966736 Q 118.95993 87.06146 119.075165 87.11224 Q 119.19039 87.163025 119.331024 87.163025 Q 119.45993 87.163025 119.575165 87.11127 Q 119.69041 87.05951 119.77537 86.9726 Q 119.86031 86.88568 119.910126 86.76947 Q 119.95993 86.65326 119.95993 86.52435 Q 119.95993 86.34662 119.91403 86.19622 Q 119.868126 86.04584 119.785126 85.93744 Q 119.70212 85.82904 119.58689 85.76849 Q 119.47165 85.70795 119.33493 85.70795 Z M 121.38376 88.44037 Q 120.99704 88.44037 120.77829 88.0849 Q 120.55955 87.72943 120.55955 87.0517 Q 120.55955 86.30365 120.78903 85.92377 Q 121.018524 85.543884 121.4443 85.543884 Q 122.2529 85.543884 122.2529 86.97943 Q 122.2529 87.694275 122.02438 88.067314 Q 121.79587 88.44037 121.38376 88.44037 Z M 121.42869 85.70795 Q 121.106415 85.70795 120.92673 86.038025 Q 120.74704 86.3681 120.74704 87.02825 Q 120.74704 87.62982 120.918915 87.95306 Q 121.09078 88.276306 121.40719 88.276306 Q 121.71774 88.276306 121.890594 87.947205 Q 122.06344 87.618095 122.06344 87.006775 Q 122.06344 85.70795 121.42869 85.70795 Z M 123.46384 85.52826 L 123.46384 88.39153 L 123.28415 88.39153 L 123.28415 85.81146 Q 123.14938 85.94037 122.97653 86.03411 Q 122.80368 86.12787 122.5986 86.200134 L 122.5986 86.03607 Q 122.72165 85.995056 122.82712 85.9433 Q 122.93258 85.89154 123.02927 85.82904 Q 123.125946 85.76654 123.21677 85.691345 Q 123.307594 85.61615 123.40134 85.52826 L 123.46384 85.52826 Z M 124.41501 85.76849 L 124.41501 86.91107 L 125.450165 86.91107 L 125.450165 87.086845 L 124.41501 87.086845 L 124.41501 88.39153 L 124.22164 88.39153 L 124.22164 85.59076 L 125.53024 85.59076 L 125.53024 85.76849 L 124.41501 85.76849 Z M 126.00485 87.30756 L 126.00485 87.13177 L 127.07321 87.13177 L 127.07321 87.30756 L 126.00485 87.30756 Z M 128.92673 85.59076 L 128.92673 87.49701 L 129.36423 87.49701 L 129.36423 87.65912 L 128.92673 87.65912 L 128.92673 88.39153 L 128.74704 88.39153 L 128.74704 87.65912 L 127.411095 87.65912 L 127.411095 87.48334 Q 127.5986 87.270454 127.79196 87.02533 Q 127.98533 86.78021 128.16208 86.53021 Q 128.33884 86.28021 128.48727 86.038025 Q 128.63571 85.79584 128.73532 85.59076 L 128.92673 85.59076 Z M 127.61813 87.49701 L 128.74704 87.49701 L 128.74704 85.91107 Q 128.60446 86.157166 128.45114 86.38763 Q 128.29782 86.6181 128.1484 86.822205 Q 127.99899 87.026306 127.862274 87.19817 Q 127.725555 87.370056 127.61813 87.49701 Z M 130.4443 88.44037 Q 130.05759 88.44037 129.83884 88.0849 Q 129.62009 87.72943 129.62009 87.0517 Q 129.62009 86.30365 129.84958 85.92377 Q 130.07907 85.543884 130.50485 85.543884 Q 131.31345 85.543884 131.31345 86.97943 Q 131.31345 87.694275 131.08493 88.067314 Q 130.85641 88.44037 130.4443 88.44037 Z M 130.48923 85.70795 Q 130.16696 85.70795 129.98727 86.038025 Q 129.80759 86.3681 129.80759 87.02825 Q 129.80759 87.62982 129.97946 87.95306 Q 130.15134 88.276306 130.46774 88.276306 Q 130.77829 88.276306 130.95114 87.947205 Q 131.124 87.618095 131.124 87.006775 Q 131.124 85.70795 130.48923 85.70795 Z M 131.78024 87.30756 L 131.78024 87.13177 L 132.8486 87.13177 L 132.8486 87.30756 L 131.78024 87.30756 Z M 134.11618 85.52826 L 134.11618 88.39153 L 133.9365 88.39153 L 133.9365 85.81146 Q 133.80173 85.94037 133.62888 86.03411 Q 133.45602 86.12787 133.25095 86.200134 L 133.25095 86.03607 Q 133.374 85.995056 133.47946 85.9433 Q 133.58493 85.89154 133.68161 85.82904 Q 133.77829 85.76654 133.86911 85.691345 Q 133.95993 85.61615 134.05368 85.52826 L 134.11618 85.52826 Z M 134.82712 88.3349 L 134.82712 88.12787 Q 135.09665 88.276306 135.36227 88.276306 Q 135.70602 88.276306 135.89938 88.08685 Q 136.09274 87.89739 136.09274 87.58295 Q 136.09274 86.89935 135.31345 86.89935 Q 135.13766 86.89935 134.9111 86.92279 L 134.99509 85.59076 L 136.1611 85.59076 L 136.1611 85.75482 L 135.15524 85.75482 L 135.09079 86.750916 Q 135.29196 86.73529 135.37985 86.73529 Q 135.82321 86.73529 136.05173 86.953064 Q 136.28024 87.17084 136.28024 87.55951 Q 136.28024 87.95209 136.03806 88.19623 Q 135.79587 88.44037 135.34665 88.44037 Q 135.05173 88.44037 134.82712 88.3349 Z M 138.36813 88.39153 L 137.99509 87.57123 Q 137.87985 87.31732 137.76462 87.230415 Q 137.64938 87.14349 137.47556 87.14349 L 137.1279 87.14349 L 137.1279 88.39153 L 136.93454 88.39153 L 136.93454 85.59076 L 137.71188 85.59076 Q 138.08298 85.59076 138.29489 85.790955 Q 138.5068 85.99115 138.5068 86.319275 Q 138.5068 86.62202 138.33298 86.825134 Q 138.15915 87.02825 137.84665 87.086845 L 137.84665 87.09466 Q 138.01266 87.161064 138.17087 87.49897 L 138.58688 88.39153 L 138.36813 88.39153 Z M 137.1279 85.76849 L 137.1279 86.96771 L 137.61032 86.96771 Q 137.93063 86.96771 138.11911 86.799736 Q 138.30759 86.631775 138.30759 86.338806 Q 138.30759 86.07123 138.13766 85.91985 Q 137.96774 85.76849 137.65134 85.76849 L 137.1279 85.76849 Z M 139.82321 85.52826 L 139.82321 88.39153 L 139.64352 88.39153 L 139.64352 85.81146 Q 139.50876 85.94037 139.3359 86.03411 Q 139.16306 86.12787 138.95798 86.200134 L 138.95798 86.03607 Q 139.08102 85.995056 139.1865 85.9433 Q 139.29196 85.89154 139.38864 85.82904 Q 139.48532 85.76654 139.57614 85.691345 Q 139.66696 85.61615 139.76071 85.52826 L 139.82321 85.52826 Z M 140.50485 87.30756 L 140.50485 87.13177 L 141.57321 87.13177 L 141.57321 87.30756 L 140.50485 87.30756 Z M 142.17282 88.39153 L 142.17282 85.59076 L 142.90915 85.59076 Q 143.23923 85.59076 143.43454 85.76849 Q 143.62985 85.94623 143.62985 86.239204 Q 143.62985 86.48333 143.49997 86.66205 Q 143.37009 86.84076 143.13766 86.91498 L 143.13766 86.92279 Q 143.42868 86.950134 143.59665 87.1308 Q 143.76462 87.31146 143.76462 87.59076 Q 143.76462 87.944275 143.5361 88.16791 Q 143.30759 88.39153 142.92477 88.39153 L 142.17282 88.39153 Z M 142.36618 85.76849 L 142.36618 86.85248 L 142.7568 86.85248 Q 143.0615 86.85248 143.24509 86.696236 Q 143.42868 86.53998 143.42868 86.2724 Q 143.42868 85.76849 142.83298 85.76849 L 142.36618 85.76849 Z M 142.36618 87.02825 L 142.36618 88.21576 L 142.88571 88.21576 Q 143.21579 88.21576 143.3906 88.057556 Q 143.5654 87.89935 143.5654 87.60834 Q 143.5654 87.02825 142.77829 87.02825 L 142.36618 87.02825 Z M 145.01657 85.52826 L 145.01657 88.39153 L 144.83688 88.39153 L 144.83688 85.81146 Q 144.70212 85.94037 144.52927 86.03411 Q 144.35641 86.12787 144.15134 86.200134 L 144.15134 86.03607 Q 144.27438 85.995056 144.37985 85.9433 Q 144.48532 85.89154 144.582 85.82904 Q 144.67868 85.76654 144.7695 85.691345 Q 144.86032 85.61615 144.95407 85.52826 L 145.01657 85.52826 Z M 146.42282 88.44037 Q 146.0361 88.44037 145.81735 88.0849 Q 145.5986 87.72943 145.5986 87.0517 Q 145.5986 86.30365 145.8281 85.92377 Q 146.05759 85.543884 146.48337 85.543884 Q 147.29196 85.543884 147.29196 86.97943 Q 147.29196 87.694275 147.06345 88.067314 Q 146.83493 88.44037 146.42282 88.44037 Z M 146.46774 85.70795 Q 146.14548 85.70795 145.96579 86.038025 Q 145.7861 86.3681 145.7861 87.02825 Q 145.7861 87.62982 145.95798 87.95306 Q 146.12985 88.276306 146.44626 88.276306 Q 146.7568 88.276306 146.92966 87.947205 Q 147.10251 87.618095 147.10251 87.006775 Q 147.10251 85.70795 146.46774 85.70795 Z M 148.48337 88.44037 Q 148.09665 88.44037 147.8779 88.0849 Q 147.65915 87.72943 147.65915 87.0517 Q 147.65915 86.30365 147.88864 85.92377 Q 148.11813 85.543884 148.54391 85.543884 Q 149.35251 85.543884 149.35251 86.97943 Q 149.35251 87.694275 149.124 88.067314 Q 148.89548 88.44037 148.48337 88.44037 Z M 148.52829 85.70795 Q 148.20602 85.70795 148.02634 86.038025 Q 147.84665 86.3681 147.84665 87.02825 Q 147.84665 87.62982 148.01852 87.95306 Q 148.1904 88.276306 148.5068 88.276306 Q 148.81735 88.276306 148.9902 87.947205 Q 149.16306 87.618095 149.16306 87.006775 Q 149.16306 85.70795 148.52829 85.70795 Z M 151.33688 88.39153 L 150.14352 87.0517 Q 150.11032 87.01459 150.09665 86.98724 L 150.08884 86.98724 L 150.08884 88.39153 L 149.89548 88.39153 L 149.89548 85.59076 L 150.08884 85.59076 L 150.08884 86.91107 L 150.09665 86.91107 Q 150.12009 86.870056 150.14743 86.84271 L 151.28024 85.59076 L 151.5322 85.59076 L 150.30368 86.94818 L 151.60837 88.39153 L 151.33688 88.39153 Z" />
            </g>
            <g id="text1485">
                <path fill="#000000" stroke="none" d="M 23.107323 84.98668 L 23.107323 87.84996 L 22.927633 87.84996 L 22.927633 85.26988 Q 22.79287 85.39879 22.62002 85.49254 Q 22.447165 85.58629 22.242088 85.658554 L 22.242088 85.49449 Q 22.365135 85.453476 22.470604 85.40172 Q 22.57607 85.34996 22.672752 85.28746 Q 22.76943 85.22496 22.860252 85.149765 Q 22.951073 85.07457 23.044823 84.98668 L 23.107323 84.98668 Z M 23.81826 87.79331 L 23.81826 87.58628 Q 24.087793 87.734726 24.353416 87.734726 Q 24.697166 87.734726 24.890526 87.54527 Q 25.083885 87.35582 25.083885 87.04136 Q 25.083885 86.35777 24.304588 86.35777 Q 24.128807 86.35777 23.902245 86.38121 L 23.986229 85.04918 L 25.152246 85.04918 L 25.152246 85.21324 L 24.146385 85.21324 L 24.081932 86.20933 Q 24.283102 86.19372 24.370995 86.19372 Q 24.814354 86.19372 25.04287 86.411476 Q 25.271385 86.62925 25.271385 87.01793 Q 25.271385 87.41051 25.029198 87.65465 Q 24.78701 87.89879 24.337791 87.89879 Q 24.04287 87.89879 23.81826 87.79331 Z M 28.394432 87.84996 L 28.394432 86.646835 Q 28.394432 86.26988 28.276268 86.11754 Q 28.158104 85.9652 27.902245 85.9652 Q 27.665918 85.9652 27.494041 86.16832 Q 27.322166 86.37144 27.322166 86.678085 L 27.322166 87.84996 L 27.142479 87.84996 L 27.142479 86.63316 Q 27.142479 85.9652 26.634668 85.9652 Q 26.390526 85.9652 26.228416 86.1693 Q 26.066307 86.3734 26.066307 86.69762 L 26.066307 87.84996 L 25.88662 87.84996 L 25.88662 85.84996 L 26.066307 85.84996 L 26.066307 86.18199 L 26.07412 86.18199 Q 26.283102 85.80113 26.685448 85.80113 Q 26.904198 85.80113 27.059471 85.92711 Q 27.214746 86.05309 27.269432 86.25816 Q 27.363182 86.04137 27.537987 85.92125 Q 27.712791 85.80113 27.91787 85.80113 Q 28.574118 85.80113 28.574118 86.61364 L 28.574118 87.84996 L 28.394432 87.84996 Z M 31.681541 87.84996 L 31.681541 86.646835 Q 31.681541 86.26988 31.563377 86.11754 Q 31.445211 85.9652 31.189352 85.9652 Q 30.953026 85.9652 30.78115 86.16832 Q 30.609276 86.37144 30.609276 86.678085 L 30.609276 87.84996 L 30.429588 87.84996 L 30.429588 86.63316 Q 30.429588 85.9652 29.921776 85.9652 Q 29.677635 85.9652 29.515526 86.1693 Q 29.353416 86.3734 29.353416 86.69762 L 29.353416 87.84996 L 29.173729 87.84996 L 29.173729 85.84996 L 29.353416 85.84996 L 29.353416 86.18199 L 29.361229 86.18199 Q 29.570215 85.80113 29.972557 85.80113 Q 30.191307 85.80113 30.34658 85.92711 Q 30.501854 86.05309 30.556541 86.25816 Q 30.650291 86.04137 30.825096 85.92125 Q 30.9999 85.80113 31.204979 85.80113 Q 31.86123 85.80113 31.86123 86.61364 L 31.86123 87.84996 L 31.681541 87.84996 Z M 35.15615 87.70152 Q 35.15615 88.265976 34.910057 88.527695 Q 34.663963 88.78941 34.144432 88.78941 Q 33.85537 88.78941 33.54873 88.63707 L 33.54873 88.44957 Q 33.865135 88.62534 34.14834 88.62534 Q 34.976463 88.62534 34.976463 87.75035 L 34.976463 87.49058 L 34.96865 87.49058 Q 34.732323 87.89879 34.247948 87.89879 Q 33.878807 87.89879 33.64541 87.6312 Q 33.41201 87.36363 33.41201 86.88512 Q 33.41201 86.40661 33.663963 86.10387 Q 33.915916 85.80113 34.328026 85.80113 Q 34.769432 85.80113 34.96865 86.16637 L 34.976463 86.16637 L 34.976463 85.84996 L 35.15615 85.84996 L 35.15615 87.70152 Z M 34.976463 86.61754 Q 34.976463 86.35191 34.797752 86.158554 Q 34.61904 85.9652 34.331932 85.9652 Q 34.001854 85.9652 33.800682 86.21324 Q 33.59951 86.46129 33.59951 86.86949 Q 33.59951 87.27965 33.78408 87.50719 Q 33.96865 87.734726 34.271385 87.734726 Q 34.59365 87.734726 34.785057 87.52574 Q 34.976463 87.31676 34.976463 87.01402 L 34.976463 86.61754 Z M 37.11709 87.84996 L 37.11709 87.48668 L 37.109276 87.48668 Q 36.90029 87.89879 36.464745 87.89879 Q 35.75576 87.89879 35.75576 87.00621 L 35.75576 85.84996 L 35.9374 85.84996 L 35.9374 86.96129 Q 35.9374 87.36754 36.07119 87.55113 Q 36.20498 87.734726 36.49209 87.734726 Q 36.771385 87.734726 36.944237 87.52965 Q 37.11709 87.32457 37.11709 86.982765 L 37.11709 85.84996 L 37.296776 85.84996 L 37.296776 87.84996 L 37.11709 87.84996 Z M 38.02529 85.346054 Q 37.966698 85.346054 37.921776 85.303085 Q 37.876854 85.26012 37.876854 85.19371 Q 37.876854 85.12926 37.922752 85.08922 Q 37.96865 85.04918 38.02529 85.04918 Q 38.08584 85.04918 38.131737 85.08824 Q 38.177635 85.127304 38.177635 85.19371 Q 38.177635 85.25621 38.132713 85.30113 Q 38.08779 85.346054 38.02529 85.346054 Z M 37.9374 87.84996 L 37.9374 85.84996 L 38.11709 85.84996 L 38.11709 87.84996 L 37.9374 87.84996 Z M 40.177635 87.84996 L 40.177635 87.48668 L 40.169823 87.48668 Q 40.072166 87.67613 39.88076 87.78746 Q 39.689354 87.89879 39.44912 87.89879 Q 39.07998 87.89879 38.84658 87.62926 Q 38.613182 87.359726 38.613182 86.88512 Q 38.613182 86.400734 38.868065 86.100945 Q 39.122948 85.80113 39.529198 85.80113 Q 39.978416 85.80113 40.169823 86.17027 L 40.177635 86.17027 L 40.177635 84.88902 L 40.357323 84.88902 L 40.357323 87.84996 L 40.177635 87.84996 Z M 40.177635 86.63316 Q 40.177635 86.35387 40.000877 86.15953 Q 39.82412 85.9652 39.52529 85.9652 Q 39.21084 85.9652 39.00576 86.206406 Q 38.800682 86.44762 38.800682 86.86949 Q 38.800682 87.28356 38.985252 87.50913 Q 39.169823 87.734726 39.46084 87.734726 Q 39.802635 87.734726 39.990135 87.52282 Q 40.177635 87.3109 40.177635 87.00621 L 40.177635 86.63316 Z M 41.040916 86.857765 Q 41.040916 87.269875 41.231346 87.502304 Q 41.421776 87.734726 41.753807 87.734726 Q 42.089745 87.734726 42.410057 87.48668 L 42.410057 87.678085 Q 42.09951 87.89879 41.716698 87.89879 Q 41.32998 87.89879 41.091698 87.621445 Q 40.853416 87.3441 40.853416 86.83824 Q 40.853416 86.400734 41.10244 86.100945 Q 41.351463 85.80113 41.7499 85.80113 Q 42.122948 85.80113 42.322166 86.06285 Q 42.521385 86.32457 42.521385 86.777695 L 42.521385 86.857765 L 41.040916 86.857765 Z M 42.333885 86.69371 Q 42.322166 86.348015 42.16787 86.15661 Q 42.013573 85.9652 41.74209 85.9652 Q 41.46084 85.9652 41.276268 86.15366 Q 41.091698 86.34214 41.04873 86.69371 L 42.333885 86.69371 Z" />
            </g>
            <g id="text1477-1">
                <path fill="#000000" stroke="none" d="M 67.275314 140.9459 L 67.275314 143.56895 L 67.08391 143.56895 L 67.08391 140.9459 L 66.275314 140.9459 L 66.275314 140.76817 L 68.08391 140.76817 L 68.08391 140.9459 L 67.275314 140.9459 Z M 69.88078 143.56895 L 69.88078 142.36974 Q 69.88078 142.01427 69.75188 141.84923 Q 69.62297 141.68419 69.34953 141.68419 Q 69.09172 141.68419 68.89641 141.88536 Q 68.701096 142.08653 68.701096 142.46153 L 68.701096 143.56895 L 68.52141 143.56895 L 68.52141 140.60802 L 68.701096 140.60802 L 68.701096 141.92833 L 68.70891 141.92833 Q 68.94524 141.52013 69.39641 141.52013 Q 69.72063 141.52013 69.89055 141.72911 Q 70.06047 141.9381 70.06047 142.32872 L 70.06047 143.56895 L 69.88078 143.56895 Z M 71.46477 143.61778 Q 71.02727 143.61778 70.772385 143.3297 Q 70.5175 143.04161 70.5175 142.58067 Q 70.5175 142.08263 70.7841 141.80138 Q 71.050705 141.52013 71.48625 141.52013 Q 71.91399 141.52013 72.16203 141.79942 Q 72.41008 142.07872 72.41008 142.57286 Q 72.41008 143.03966 72.15715 143.32872 Q 71.90422 143.61778 71.46477 143.61778 Z M 71.47844 141.68419 Q 71.12492 141.68419 70.91496 141.92247 Q 70.705 142.16075 70.705 142.58458 Q 70.705 142.97716 70.91008 143.21544 Q 71.11516 143.45372 71.47063 143.45372 Q 71.831955 143.45372 72.02727 143.21935 Q 72.22258 142.98497 72.22258 142.56895 Q 72.22258 142.14122 72.028244 141.9127 Q 71.83391 141.68419 71.47844 141.68419 Z M 74.26555 143.56895 L 74.26555 142.40489 Q 74.26555 141.68419 73.74602 141.68419 Q 73.456955 141.68419 73.27141 141.8961 Q 73.08586 142.10802 73.08586 142.42052 L 73.08586 143.56895 L 72.90617 143.56895 L 72.90617 141.56895 L 73.08586 141.56895 L 73.08586 141.93224 L 73.09367 141.93224 Q 73.31242 141.52013 73.77727 141.52013 Q 74.10149 141.52013 74.27336 141.73595 Q 74.44524 141.95177 74.44524 142.35216 L 74.44524 143.56895 L 74.26555 143.56895 Z M 76.19133 143.56895 L 75.2343 142.58067 L 75.22649 142.58067 L 75.22649 143.56895 L 75.0468 143.56895 L 75.0468 140.60802 L 75.22649 140.60802 L 75.22649 142.51622 L 75.2343 142.51622 L 76.1425 141.56895 L 76.37492 141.56895 L 75.425705 142.5377 L 76.451096 143.56895 L 76.19133 143.56895 Z M 78.00578 141.06505 Q 77.94719 141.06505 77.90227 141.02208 Q 77.857346 140.97911 77.857346 140.9127 Q 77.857346 140.84825 77.903244 140.80821 Q 77.94914 140.76817 78.00578 140.76817 Q 78.06633 140.76817 78.11223 140.80724 Q 78.15813 140.8463 78.15813 140.9127 Q 78.15813 140.9752 78.113205 141.02013 Q 78.06828 141.06505 78.00578 141.06505 Z M 77.91789 143.56895 L 77.91789 141.56895 L 78.09758 141.56895 L 78.09758 143.56895 L 77.91789 143.56895 Z M 80.09758 143.56895 L 80.09758 142.40489 Q 80.09758 141.68419 79.57805 141.68419 Q 79.28899 141.68419 79.10344 141.8961 Q 78.91789 142.10802 78.91789 142.42052 L 78.91789 143.56895 L 78.738205 143.56895 L 78.738205 141.56895 L 78.91789 141.56895 L 78.91789 141.93224 L 78.925705 141.93224 Q 79.144455 141.52013 79.6093 141.52013 Q 79.93352 141.52013 80.10539 141.73595 Q 80.27727 141.95177 80.27727 142.35216 L 80.27727 143.56895 L 80.09758 143.56895 Z" />
            </g>
            <g id="text1477-1-9">
                <path fill="#000000" stroke="none" d="M 88.025314 140.9459 L 88.025314 143.56895 L 87.83391 143.56895 L 87.83391 140.9459 L 87.025314 140.9459 L 87.025314 140.76817 L 88.83391 140.76817 L 88.83391 140.9459 L 88.025314 140.9459 Z M 90.630775 143.56895 L 90.630775 142.36974 Q 90.630775 142.01427 90.50188 141.84923 Q 90.37296 141.68419 90.09954 141.68419 Q 89.84173 141.68419 89.64641 141.88536 Q 89.4511 142.08653 89.4511 142.46153 L 89.4511 143.56895 L 89.27141 143.56895 L 89.27141 140.60802 L 89.4511 140.60802 L 89.4511 141.92833 L 89.4589 141.92833 Q 89.69523 141.52013 90.14641 141.52013 Q 90.47063 141.52013 90.64055 141.72911 Q 90.81047 141.9381 90.81047 142.32872 L 90.81047 143.56895 L 90.630775 143.56895 Z M 92.21476 143.61778 Q 91.77727 143.61778 91.522385 143.3297 Q 91.2675 143.04161 91.2675 142.58067 Q 91.2675 142.08263 91.5341 141.80138 Q 91.80071 141.52013 92.236244 141.52013 Q 92.66398 141.52013 92.91203 141.79942 Q 93.16008 142.07872 93.16008 142.57286 Q 93.16008 143.03966 92.90715 143.32872 Q 92.65422 143.61778 92.21476 143.61778 Z M 92.22845 141.68419 Q 91.87493 141.68419 91.66497 141.92247 Q 91.45501 142.16075 91.45501 142.58458 Q 91.45501 142.97716 91.66008 143.21544 Q 91.86516 143.45372 92.220634 143.45372 Q 92.58196 143.45372 92.77727 143.21935 Q 92.97259 142.98497 92.97259 142.56895 Q 92.97259 142.14122 92.77824 141.9127 Q 92.58391 141.68419 92.22845 141.68419 Z M 95.01555 143.56895 L 95.01555 142.40489 Q 95.01555 141.68419 94.49602 141.68419 Q 94.206955 141.68419 94.02141 141.8961 Q 93.83586 142.10802 93.83586 142.42052 L 93.83586 143.56895 L 93.65617 143.56895 L 93.65617 141.56895 L 93.83586 141.56895 L 93.83586 141.93224 L 93.84367 141.93224 Q 94.06243 141.52013 94.52726 141.52013 Q 94.85148 141.52013 95.02336 141.73595 Q 95.19524 141.95177 95.19524 142.35216 L 95.19524 143.56895 L 95.01555 143.56895 Z M 96.94133 143.56895 L 95.9843 142.58067 L 95.97649 142.58067 L 95.97649 143.56895 L 95.7968 143.56895 L 95.7968 140.60802 L 95.97649 140.60802 L 95.97649 142.51622 L 95.9843 142.51622 L 96.892494 141.56895 L 97.12492 141.56895 L 96.175705 142.5377 L 97.20109 143.56895 L 96.94133 143.56895 Z M 99.47062 143.61778 Q 99.03313 143.61778 98.778244 143.3297 Q 98.52336 143.04161 98.52336 142.58067 Q 98.52336 142.08263 98.78996 141.80138 Q 99.05657 141.52013 99.4921 141.52013 Q 99.91984 141.52013 100.16789 141.79942 Q 100.41594 142.07872 100.41594 142.57286 Q 100.41594 143.03966 100.16301 143.32872 Q 99.91008 143.61778 99.47062 143.61778 Z M 99.48431 141.68419 Q 99.13079 141.68419 98.92083 141.92247 Q 98.71087 142.16075 98.71087 142.58458 Q 98.71087 142.97716 98.91594 143.21544 Q 99.12102 143.45372 99.476494 143.45372 Q 99.83782 143.45372 100.03313 143.21935 Q 100.22845 142.98497 100.22845 142.56895 Q 100.22845 142.14122 100.034096 141.9127 Q 99.83977 141.68419 99.48431 141.68419 Z M 102.23234 143.56895 L 102.23234 143.20567 L 102.22454 143.20567 Q 102.01555 143.61778 101.58 143.61778 Q 100.87102 143.61778 100.87102 142.7252 L 100.87102 141.56895 L 101.05266 141.56895 L 101.05266 142.68028 Q 101.05266 143.08653 101.18645 143.27013 Q 101.32024 143.45372 101.607346 143.45372 Q 101.886635 143.45372 102.05949 143.24864 Q 102.23234 143.04356 102.23234 142.70177 L 102.23234 141.56895 L 102.41203 141.56895 L 102.41203 143.56895 L 102.23234 143.56895 Z M 103.84367 143.54161 Q 103.70305 143.60802 103.58001 143.60802 Q 103.13664 143.60802 103.13664 143.07677 L 103.13664 141.73302 L 102.777275 141.73302 L 102.777275 141.56895 L 103.13664 141.56895 L 103.13664 141.04942 Q 103.17961 141.0338 103.226494 141.01817 Q 103.27336 141.0045 103.31633 140.98888 L 103.31633 141.56895 L 103.84367 141.56895 L 103.84367 141.73302 L 103.31633 141.73302 L 103.31633 143.05333 Q 103.31633 143.26036 103.38176 143.35313 Q 103.4472 143.4459 103.60344 143.4459 Q 103.71477 143.4459 103.84367 143.37364 L 103.84367 143.54161 Z" />
            </g>
            <g id="text1477-4">
                <path fill="#000000" stroke="none" d="M 165.71027 88.29193 L 165.71027 88.07123 Q 166.01105 88.262634 166.31964 88.262634 Q 166.64777 88.262634 166.81769 88.12689 Q 166.98761 87.99115 166.98761 87.74701 Q 166.98761 87.532166 166.87335 87.404236 Q 166.7591 87.276306 166.37823 87.0556 Q 165.95245 86.80755 165.83917 86.64057 Q 165.72589 86.47357 165.72589 86.254814 Q 165.72589 85.95795 165.95636 85.750916 Q 166.18683 85.543884 166.5716 85.543884 Q 166.8216 85.543884 167.0716 85.62787 L 167.0716 85.83099 Q 166.8255 85.719666 166.5462 85.719666 Q 166.26105 85.719666 166.09406 85.8642 Q 165.92706 86.00873 165.92706 86.23139 Q 165.92706 86.44622 166.04132 86.57318 Q 166.15558 86.700134 166.53448 86.918884 Q 166.92706 87.14154 167.05695 87.31439 Q 167.18683 87.48724 167.18683 87.71185 Q 167.18683 88.03412 166.9632 88.23724 Q 166.73956 88.44037 166.33136 88.44037 Q 166.18683 88.44037 165.99835 88.39545 Q 165.80988 88.350525 165.71027 88.29193 Z M 169.44269 88.39153 L 169.27472 88.39153 L 168.83917 86.88373 Q 168.8216 86.821236 168.80792 86.71576 L 168.79816 86.71576 Q 168.79425 86.76068 168.7591 86.87983 L 168.27081 88.39153 L 168.10284 88.39153 L 167.49933 86.39154 L 167.69855 86.39154 L 168.16339 87.98724 Q 168.18097 88.04974 168.19073 88.155205 L 168.20636 88.155205 Q 168.21027 88.09857 168.24347 87.98724 L 168.75128 86.39154 L 168.87433 86.39154 L 169.32745 87.98724 Q 169.34308 88.04389 169.3548 88.155205 L 169.37042 88.155205 Q 169.37042 88.09857 169.40363 87.98724 L 169.87823 86.39154 L 170.06378 86.39154 L 169.44269 88.39153 Z M 170.5423 85.887634 Q 170.4837 85.887634 170.43878 85.844666 Q 170.39386 85.8017 170.39386 85.73529 Q 170.39386 85.67084 170.43976 85.6308 Q 170.48566 85.59076 170.5423 85.59076 Q 170.60284 85.59076 170.64874 85.62982 Q 170.69464 85.668884 170.69464 85.73529 Q 170.69464 85.79779 170.64972 85.84271 Q 170.6048 85.887634 170.5423 85.887634 Z M 170.4544 88.39153 L 170.4544 86.39154 L 170.6341 86.39154 L 170.6341 88.39153 L 170.4544 88.39153 Z M 172.06573 88.3642 Q 171.92511 88.4306 171.80208 88.4306 Q 171.3587 88.4306 171.3587 87.89935 L 171.3587 86.55561 L 170.99933 86.55561 L 170.99933 86.39154 L 171.3587 86.39154 L 171.3587 85.87201 Q 171.40167 85.856384 171.44855 85.84076 Q 171.49542 85.82709 171.53839 85.81146 L 171.53839 86.39154 L 172.06573 86.39154 L 172.06573 86.55561 L 171.53839 86.55561 L 171.53839 87.87591 Q 171.53839 88.08295 171.60382 88.17572 Q 171.66925 88.26849 171.8255 88.26849 Q 171.93683 88.26849 172.06573 88.19623 L 172.06573 88.3642 Z M 173.75713 88.30365 Q 173.5345 88.44037 173.22588 88.44037 Q 172.81769 88.44037 172.56769 88.160095 Q 172.3177 87.87982 172.3177 87.4267 Q 172.3177 86.950134 172.59895 86.64642 Q 172.88017 86.34272 173.32158 86.34272 Q 173.5501 86.34272 173.76495 86.43646 L 173.76495 86.63959 Q 173.5501 86.506775 173.29425 86.506775 Q 172.94269 86.506775 172.72394 86.7597 Q 172.50519 87.01264 172.50519 87.41498 Q 172.50519 87.80365 172.70538 88.03998 Q 172.90558 88.276306 173.2337 88.276306 Q 173.5345 88.276306 173.75713 88.11615 L 173.75713 88.30365 Z M 175.597 88.39153 L 175.597 87.19232 Q 175.597 86.836845 175.46808 86.671814 Q 175.33917 86.506775 175.06575 86.506775 Q 174.80792 86.506775 174.61261 86.70795 Q 174.41731 86.90913 174.41731 87.28412 L 174.41731 88.39153 L 174.23761 88.39153 L 174.23761 85.4306 L 174.41731 85.4306 L 174.41731 86.750916 L 174.42511 86.750916 Q 174.66145 86.34272 175.1126 86.34272 Q 175.43681 86.34272 175.60675 86.5517 Q 175.77667 86.76068 175.77667 87.151306 L 175.77667 88.39153 L 175.597 88.39153 Z" />
            </g>
        </g>
        <g id="layer3">
            <g id="g2703">
                <path id="circle13475-1-0" fill="none" stroke="#000000" stroke-width="0.1" stroke-dasharray="1.2 1.2" d="M 144.48483 110.35484 C 144.48483 121.6286 135.34566 130.76779 124.07189 130.76779 C 112.798134 130.76779 103.65894 121.6286 103.65894 110.35484 C 103.65894 99.081085 112.798134 89.9419 124.07189 89.9419 C 135.34564 89.9419 144.48483 99.081085 144.48483 110.35484 Z" />
                <path id="circle13475-1" fill="#ff0000" stroke="none" d="M 130.0719 110.35484 C 130.0719 111.946144 129.43976 113.47227 128.31454 114.59749 C 127.18932 115.7227 125.66319 116.35484 124.07189 116.35484 C 120.75819 116.35484 118.07189 113.66855 118.07189 110.35484 C 118.07189 107.04114 120.75819 104.35484 124.07189 104.35484 C 125.66319 104.35484 127.18932 104.986984 128.31454 106.1122 C 129.43976 107.23742 130.0719 108.76354 130.0719 110.35484 Z" />
            </g>
            <g id="g2698">
                <path id="circle13475-1-0-2-7" fill="none" stroke="#000000" stroke-width="0.1" stroke-dasharray="1.2 1.2" d="M 93.53009 110.35484 C 93.53009 119.88385 85.8053 127.60865 76.27629 127.60865 C 66.747284 127.60865 59.02249 119.88385 59.02249 110.35484 C 59.02249 100.825836 66.747284 93.10104 76.27629 93.10104 C 85.8053 93.10104 93.53009 100.825836 93.53009 110.35484 Z" />
                <path id="circle13475-1-9-0" fill="#ff0000" stroke="none" d="M 79.27629 110.35484 C 79.27629 112.011696 77.93314 113.35484 76.27629 113.35484 C 74.61944 113.35484 73.27629 112.011696 73.27629 110.35484 C 73.27629 108.69799 74.61944 107.354836 76.27629 107.354836 C 77.93314 107.354836 79.27629 108.69799 79.27629 110.35484 Z" />
            </g>
            <g id="g2708">
                <path id="circle13475-1-0-4" fill="none" stroke="#000000" stroke-width="0.1" stroke-dasharray="1.2 1.2" d="M 179.09795 108.33982 C 179.09795 118.084785 175.22754 125.984634 170.45314 125.98464 C 165.67874 125.984634 161.80833 118.084785 161.80833 108.33982 C 161.80833 98.594864 165.67874 90.69502 170.45314 90.695015 C 175.22754 90.69502 179.09795 98.594864 179.09795 108.33982 Z" />
                <path id="circle13475-0-6" fill="#ff0000" stroke="none" d="M 173.26122 108.33982 C 173.26122 109.89395 172.00398 111.15382 170.45314 111.15382 C 168.9023 111.15382 167.64508 109.89395 167.64508 108.33982 C 167.64508 106.78571 168.9023 105.52584 170.45314 105.52584 C 172.00398 105.52584 173.26122 106.78571 173.26122 108.33982 Z" />
            </g>
            <g id="g2718">
                <path id="circle13475-1-0-0-1-9" fill="none" stroke="#ff0000" stroke-width="0.335461" d="M 79.10856 153.64516 C 79.10856 155.19197 78.494095 156.67543 77.40033 157.7692 C 76.306564 158.86296 74.823105 159.47743 73.27629 159.47743 C 71.72948 159.47743 70.24602 158.86296 69.15225 157.7692 C 68.05849 156.67543 67.44402 155.19197 67.44402 153.64516 C 67.44402 152.09834 68.05849 150.61488 69.15225 149.52112 C 70.24602 148.42735 71.72948 147.81288 73.27629 147.81288 C 74.823105 147.81288 76.306564 148.42735 77.40033 149.52112 C 78.494095 150.61488 79.10856 152.09834 79.10856 153.64516 Z" />
                <path id="path13156-4-87-6-5-1" fill="#00ff00" stroke="none" d="M 76.326294 153.64516 C 76.326294 154.45407 76.00496 155.22984 75.43297 155.80183 C 74.860985 156.37383 74.085205 156.69516 73.27629 156.69516 C 72.46738 156.69516 71.6916 156.37383 71.11961 155.80183 C 70.54762 155.22984 70.22629 154.45407 70.22629 153.64516 C 70.22629 152.83624 70.54762 152.06047 71.11961 151.48848 C 71.6916 150.91649 72.46738 150.59515 73.27629 150.59515 C 74.085205 150.59515 74.860985 150.91649 75.43297 151.48848 C 76.00496 152.06047 76.326294 152.83624 76.326294 153.64516 Z" />
            </g>
            <g id="g2713">
                <path id="circle13475-1-0-0-1-9-5" fill="none" stroke="#ff0000" stroke-width="0.335461" d="M 101.26676 154.35483 C 101.26676 155.90164 100.6523 157.3851 99.55853 158.47887 C 98.46477 159.57263 96.98131 160.1871 95.434494 160.1871 C 93.88768 160.1871 92.40422 159.57263 91.310455 158.47887 C 90.21669 157.3851 89.60222 155.90164 89.60222 154.35483 C 89.60222 152.80801 90.21669 151.32455 91.310455 150.23079 C 92.40422 149.13702 93.88768 148.52255 95.434494 148.52255 C 96.98131 148.52255 98.46477 149.13702 99.55853 150.23079 C 100.6523 151.32455 101.26676 152.80801 101.26676 154.35483 Z" />
                <path id="path13156-4-87-6-5-1-7" fill="#0000ff" stroke="none" d="M 98.4845 154.35483 C 98.4845 155.16374 98.16316 155.93951 97.59117 156.5115 C 97.01919 157.0835 96.24341 157.40483 95.434494 157.40483 C 94.62558 157.40483 93.84981 157.0835 93.27782 156.5115 C 92.705826 155.93951 92.38449 155.16374 92.38449 154.35483 C 92.38449 153.54591 92.705826 152.77014 93.27782 152.19815 C 93.84981 151.62616 94.62558 151.30482 95.434494 151.30482 C 96.24341 151.30482 97.01919 151.62616 97.59117 152.19815 C 98.16316 152.77014 98.4845 153.54591 98.4845 154.35483 Z" />
            </g>
        </g>
    </g>
</svg>