<?xml version="1.0" encoding="UTF-8" standalone="no"?>
<!-- Created with Inkscape (http://www.inkscape.org/) -->

<svg
   width="210mm"
   height="297mm"
   viewBox="0 0 210 297"
   version="1.1"
   id="svg1349"
   xml:space="preserve"
   inkscape:version="1.2.2 (732a01da63, 2022-12-09)"
   sodipodi:docname="references.svg"
   xmlns:inkscape="http://www.inkscape.org/namespaces/inkscape"
   xmlns:sodipodi="http://sodipodi.sourceforge.net/DTD/sodipodi-0.dtd"
   xmlns="http://www.w3.org/2000/svg"
   xmlns:svg="http://www.w3.org/2000/svg"><sodipodi:namedview
     id="namedview1351"
     pagecolor="#ffffff"
     bordercolor="#000000"
     borderopacity="0.25"
     inkscape:showpageshadow="2"
     inkscape:pageopacity="0.0"
     inkscape:pagecheckerboard="0"
     inkscape:deskcolor="#d1d1d1"
     inkscape:document-units="mm"
     showgrid="false"
     inkscape:zoom="1.4912879"
     inkscape:cx="480.4572"
     inkscape:cy="417.08915"
     inkscape:window-width="1920"
     inkscape:window-height="1017"
     inkscape:window-x="1912"
     inkscape:window-y="-8"
     inkscape:window-maximized="1"
     inkscape:current-layer="g2708" /><defs
     id="defs1346" /><g
     inkscape:label="safe area"
     inkscape:groupmode="layer"
     id="layer1"
     style="display:inline" /><g
     inkscape:groupmode="layer"
     id="layer4"
     inkscape:label="notes"><text
       xml:space="preserve"
       style="display:inline;font-weight:300;font-size:4px;font-family:'Segoe UI';-inkscape-font-specification:'Segoe UI Light';fill:#000000;stroke-width:0.264583"
       x="61.06926"
       y="83.845078"
       id="text1477"><tspan
         sodipodi:role="line"
         id="tspan1475"
         style="stroke-width:0.264583"
         x="61.06926"
         y="83.845078">No Knob</tspan><tspan
         sodipodi:role="line"
         style="stroke-width:0.264583"
         x="61.06926"
         y="88.845078"
         id="tspan1604">RV09AF-40-20K-B10K</tspan><tspan
         sodipodi:role="line"
         style="stroke-width:0.264583"
         x="61.06926"
         y="93.845078"
         id="tspan1606" /></text><text
       xml:space="preserve"
       style="display:inline;font-weight:300;font-size:4px;font-family:'Segoe UI';-inkscape-font-specification:'Segoe UI Light';fill:#000000;stroke-width:0.264583"
       x="113.39938"
       y="83.391541"
       id="text1481"><tspan
         sodipodi:role="line"
         id="tspan1479"
         style="stroke-width:0.264583"
         x="113.39938"
         y="83.391541">Davies</tspan><tspan
         sodipodi:role="line"
         style="stroke-width:0.264583"
         x="113.39938"
         y="88.391541"
         id="tspan1608">RD901F-40-15R1-B100K</tspan></text><text
       xml:space="preserve"
       style="display:inline;font-weight:300;font-size:4px;font-family:'Segoe UI';-inkscape-font-specification:'Segoe UI Light';fill:#000000;stroke-width:0.264583"
       x="22.079979"
       y="87.84996"
       id="text1485"><tspan
         sodipodi:role="line"
         id="tspan1483"
         style="stroke-width:0.264583"
         x="22.079979"
         y="87.84996">15mm guide</tspan></text><text
       xml:space="preserve"
       style="display:inline;font-weight:300;font-size:4px;font-family:'Segoe UI';-inkscape-font-specification:'Segoe UI Light';fill:#000000;stroke-width:0.264583"
       x="66.156174"
       y="143.56895"
       id="text1477-1"><tspan
         sodipodi:role="line"
         id="tspan1475-3"
         style="stroke-width:0.264583"
         x="66.156174"
         y="143.56895">Thonk in</tspan></text><text
       xml:space="preserve"
       style="display:inline;font-weight:300;font-size:4px;font-family:'Segoe UI';-inkscape-font-specification:'Segoe UI Light';fill:#000000;stroke-width:0.264583"
       x="86.906174"
       y="143.56895"
       id="text1477-1-9"><tspan
         sodipodi:role="line"
         id="tspan1475-3-2"
         style="stroke-width:0.264583"
         x="86.906174"
         y="143.56895">Thonk out</tspan></text><text
       xml:space="preserve"
       style="display:inline;font-weight:300;font-size:4px;font-family:'Segoe UI';-inkscape-font-specification:'Segoe UI Light';fill:#000000;stroke-width:0.264583"
       x="165.43878"
       y="88.391541"
       id="text1477-4"><tspan
         sodipodi:role="line"
         id="tspan1475-38"
         style="stroke-width:0.264583"
         x="165.43878"
         y="88.391541">Switch</tspan><tspan
         sodipodi:role="line"
         style="stroke-width:0.264583"
         x="165.43878"
         y="93.391541"
         id="tspan1604-5" /><tspan
         sodipodi:role="line"
         style="stroke-width:0.264583"
         x="165.43878"
         y="98.391541"
         id="tspan1606-7" /></text></g><g
     inkscape:groupmode="layer"
     id="layer3"
     inkscape:label="components"><g
       id="g2703"><circle
         style="display:inline;fill:none;stroke:#000000;stroke-width:0.1;stroke-dasharray:1.20000002, 1.20000002;stroke-dashoffset:0;stroke-opacity:1"
         id="circle13475-1-0"
         cx="124.07189"
         cy="110.35484"
         inkscape:label="safe"
         r="20.412941" /><circle
         style="display:inline;fill:#ff0000;stroke-width:0.345108"
         id="circle13475-1"
         cx="124.07189"
         cy="110.35484"
         inkscape:label="smallknob"
         r="6" /></g><g
       id="g2698"><circle
         style="display:inline;fill:none;stroke:#000000;stroke-width:0.1;stroke-dasharray:1.20000002,1.20000002;stroke-dashoffset:0;stroke-opacity:1"
         id="circle13475-1-0-2-7"
         cx="76.276291"
         cy="110.35484"
         inkscape:label="safe"
         r="17.253798" /><circle
         style="display:inline;fill:#ff0000;stroke-width:0.172554"
         id="circle13475-1-9-0"
         cx="76.276291"
         cy="110.35484"
         inkscape:label="noknob"
         r="3" /></g><g
       id="g2708"><ellipse
         style="display:inline;fill:none;stroke:#000000;stroke-width:0.1;stroke-dasharray:1.20000002, 1.20000002;stroke-dashoffset:0;stroke-opacity:1"
         id="circle13475-1-0-4"
         cx="170.45314"
         cy="108.33983"
         inkscape:label="safe"
         rx="8.6448107"
         ry="17.644812" /><ellipse
         style="display:inline;fill:#ff0000;stroke-width:0.264583"
         id="circle13475-0-6"
         cx="170.45314"
         cy="108.33983"
         inkscape:label="switch"
         rx="2.8080599"
         ry="2.8139906" /></g><g
       id="g2718"><ellipse
         style="display:inline;fill:none;stroke:#ff0000;stroke-width:0.335461"
         id="circle13475-1-0-0-1-9"
         cx="73.276291"
         cy="153.64516"
         inkscape:label="safe"
         rx="5.8322697"
         ry="5.8322692" /><circle
         style="display:inline;fill:#00ff00;stroke-width:0.264583"
         id="path13156-4-87-6-5-1"
         cx="73.276291"
         cy="153.64516"
         r="3.05"
         inkscape:label="thonk in" /></g><g
       id="g2713"><ellipse
         style="display:inline;fill:none;stroke:#ff0000;stroke-width:0.335461"
         id="circle13475-1-0-0-1-9-5"
         cx="95.434494"
         cy="154.35483"
         inkscape:label="safe"
         rx="5.8322697"
         ry="5.8322692" /><circle
         style="display:inline;fill:#0000ff;stroke-width:0.264583"
         id="path13156-4-87-6-5-1-7"
         cx="95.434494"
         cy="154.35483"
         r="3.05"
         inkscape:label="thonk out" /></g></g><g
     inkscape:groupmode="layer"
     id="layer2"
     inkscape:label="visual"
     style="display:none"><g
       id="g2609"
       transform="translate(36.356936,-58.548381)"><g
         id="g2593"
         transform="matrix(0.26458333,0,0,0.26458333,37.557211,166.54108)"><circle
           fill="#0a0a0a"
           cx="8.9277897"
           cy="8.9277897"
           r="8.9277897"
           id="circle2563" /><circle
           fill="url(#SVGID_1_)"
           cx="8.9277897"
           cy="8.9277897"
           r="8.0973196"
           id="circle2570"
           style="fill:url(#SVGID_1_-6)" /><circle
           fill="url(#SVGID_2_)"
           cx="8.9277897"
           cy="8.9277897"
           r="8.0973196"
           id="circle2577" /><circle
           opacity="0.4"
           enable-background="new    "
           cx="8.9277897"
           cy="8.9277897"
           r="6.9053898"
           id="circle2579" /><circle
           opacity="0.43"
           enable-background="new    "
           cx="8.9277897"
           cy="8.9277897"
           r="6.9053898"
           id="circle2581" /></g><g
         id="g2552"
         transform="matrix(0.26458333,0,0,0.26458333,37.556789,166.54245)"
         style="display:inline">
	<path
   opacity="0.99"
   fill="#ededed"
   enable-background="new    "
   d="M 7.85074,2.01721 H 9.9412 v 4.45324 c 0,0.29768 -0.24131,0.53899 -0.53899,0.53899 H 8.38973 c -0.29768,0 -0.53899,-0.24131 -0.53899,-0.53899 z"
   id="path2546" />
	<path
   opacity="0.4"
   d="m 9.94122,0.89518 v 1.20435 c 3.33276,0.49072 5.89355,3.354 5.89355,6.823 0,3.81384 -3.09167,6.90552 -6.9054,6.90552 -3.81373,0 -6.9054,-3.09167 -6.9054,-6.90552 0,-3.4458 2.52661,-6.29382 5.82678,-6.81274 V 0.90544 C 3.88995,1.434 0.83209,4.8173 0.83209,8.92253 c 0,4.47217 3.62524,8.09741 8.09729,8.09741 4.47205,0 8.09729,-3.62525 8.09729,-8.09741 0,-4.12842 -3.09204,-7.52832 -7.08545,-8.02735 z"
   id="path2548" />
	<rect
   x="7.85074"
   y="0.82529002"
   opacity="0.58"
   fill="#ffffff"
   width="2.0904601"
   height="1.2845"
   id="rect2550" />
</g></g><g
       id="g2096"
       transform="matrix(0.26458333,0,0,0.26458333,119.30941,105.59233)"><path
         opacity="0.24"
         fill="#616161"
         enable-background="new    "
         d="m 31.33626,28.50767 c 0.94378,-1.19824 2.59279,-1.8888 3.20455,-3.3678 0.60577,-1.46436 0.14915,-3.61169 0.31944,-5.11584 0.04309,-0.14209 0.07434,-0.28857 0.08844,-0.43799 0.10132,-1.07202 0.09863,-2.14209 -0.0021,-3.19653 -0.01251,-0.1311 -0.04285,-0.25854 -0.07782,-0.38428 3.7e-4,0.0015 0.0014,0.0027 0.0018,0.0039 C 34.69064,14.49473 35.25306,12.54727 34.6399,11.069 34.03363,9.60734 32.31068,8.7064 31.36818,7.52427 31.29872,7.39439 31.21809,7.26963 31.12337,7.15464 30.44911,6.33726 29.6946,5.57871 28.86489,4.8917 28.75002,4.79673 28.62508,4.71567 28.49496,4.64585 27.3088,3.70713 26.84539,2.16754 25.38128,1.56182 23.92809,0.96075 21.57773,1.32163 20.08285,1.15464 19.93191,1.10679 19.77548,1.07407 19.61611,1.05894 18.54384,0.95762 17.4739,0.96031 16.41927,1.06114 16.28237,1.07408 16.14888,1.10484 16.0179,1.14244 14.5071,1.32091 12.60018,0.74557 11.12654,1.35665 9.66292,1.96383 8.7264,3.70396 7.54256,4.64732 7.41713,4.71543 7.29598,4.79258 7.18483,4.88438 6.36745,5.55845 5.60866,6.31309 4.92177,7.14268 4.82839,7.25547 4.74935,7.37852 4.68032,7.50621 3.73446,8.69957 1.9292,9.7917 1.31909,11.26655 0.7074,12.74531 1.33913,14.5106 1.16072,16.02549 c -0.03333,0.12256 -0.05969,0.23853 -0.07178,0.36597 -0.10132,1.07227 -0.09863,2.14209 0.00214,3.19678 0.0127,0.13306 0.0412,0.25708 0.07709,0.38477 0.17883,1.52173 -0.37153,3.48624 0.24456,4.97184 0.61316,1.47827 2.34931,2.37826 3.2942,3.57553 0.06555,0.11768 0.12085,0.19775 0.2074,0.30249 0.67426,0.81738 1.42871,1.57617 2.25842,2.26294 0.10925,0.09058 0.20642,0.15576 0.32959,0.22339 1.20251,0.94946 1.87585,2.58559 3.36181,3.20034 1.47888,0.61182 3.66974,0.16294 5.18445,0.34141 0.13098,0.03735 0.23627,0.05493 0.37305,0.06787 1.07214,0.10132 2.14209,0.09863 3.19666,-0.0022 0.13617,-0.01294 0.24738,-0.03613 0.37775,-0.07324 1.52179,-0.17896 3.42021,0.3978 4.90562,-0.21841 1.47827,-0.61304 2.4446,-2.37558 3.64186,-3.3204 0.11902,-0.06592 0.20349,-0.12378 0.30945,-0.21118 0.81732,-0.67432 1.57605,-1.42871 2.26288,-2.25854 0.08783,-0.10599 0.15405,-0.20804 0.22039,-0.32718 z M 8.18319,4.42955 c -1.8e-4,0 -3.7e-4,0 -6.1e-4,0 1.8e-4,0 4.2e-4,0 6.1e-4,0 z"
         id="path2075" /><path
         opacity="0.71"
         d="M 35.48765,16.19807 C 35.41575,15.50744 34.99947,14.9296 34.44297,14.51434 33.8384,14.0632 33.16417,13.04717 32.62709,11.78433 32.08966,10.5203 31.82567,9.32891 31.92071,8.58058 32.00817,7.89192 31.88133,7.19131 31.43414,6.66034 30.73459,5.82971 29.95409,5.05947 29.09788,4.36291 28.55816,3.92382 27.85325,3.80743 27.16482,3.9082 26.41843,4.01746 25.22183,3.77559 23.94763,3.26192 22.67264,2.74761 21.64263,2.09111 21.18113,1.49425 20.75547,0.94375 20.16722,0.53811 19.47381,0.47965 18.37411,0.38694 17.27777,0.39984 16.19785,0.51225 15.50717,0.58415 14.92936,1.00055 14.51407,1.5571 14.06295,2.16166 13.04712,2.8359 11.78415,3.37271 10.52023,3.91017 9.3289,4.17417 8.5806,4.07928 7.89191,3.99195 7.19128,4.11867 6.66031,4.56588 5.82968,5.26548 5.05938,6.04593 4.36282,6.90208 3.92375,7.44174 3.80732,8.14659 3.90809,8.83497 4.01735,9.58137 3.77563,10.77796 3.26175,12.0523 2.74746,13.32739 2.09076,14.35768 1.4939,14.81907 c -0.55034,0.42542 -0.9559,1.0134 -1.01432,1.70654 -0.0927,1.09982 -0.0798,2.19635 0.03267,3.27645 0.07192,0.69065 0.48826,1.26847 1.04478,1.68376 0.60452,0.45111 1.27871,1.46698 1.81576,2.72997 0.53742,1.2638 0.80145,2.45531 0.70644,3.2037 -0.08743,0.68865 0.03937,1.38926 0.48657,1.92022 0.69949,0.83051 1.47994,1.6008 2.33607,2.29726 0.53976,0.43909 1.2447,0.55554 1.93317,0.4548 0.74644,-0.10922 1.94304,0.13251 3.21721,0.64642 1.27527,0.51422 2.30554,1.17103 2.76693,1.76791 0.4254,0.55032 1.01335,0.95586 1.70646,1.01431 1.09987,0.09276 2.1964,0.07985 3.27646,-0.03271 0.69054,-0.07197 1.26835,-0.48813 1.68351,-1.04461 0.45105,-0.60459 1.46704,-1.27883 2.73012,-1.81594 1.26385,-0.53743 2.45512,-0.80143 3.20346,-0.70644 0.68883,0.08744 1.38964,-0.03928 1.92069,-0.48663 0.83054,-0.69964 1.60074,-1.48019 2.29725,-2.33636 0.43902,-0.53966 0.55544,-1.24446 0.45466,-1.93281 -0.10927,-0.7464 0.13245,-1.94296 0.64634,-3.2171 0.51423,-1.27506 1.17089,-2.30532 1.76777,-2.76687 0.5504,-0.4256 0.95598,-1.01376 1.01442,-1.70706 0.09267,-1.09956 0.07977,-2.19584 -0.03267,-3.27581 z m -0.74111,3.22365 c -0.0369,0.43378 -0.25581,0.82686 -0.58541,1.05159 -0.75164,0.51191 -1.53243,1.67236 -2.14213,3.18411 -0.60914,1.51049 -0.8521,2.88729 -0.66662,3.77768 0.08134,0.39027 -0.03387,0.82504 -0.30839,1.16284 -0.6624,0.81577 -1.40758,1.5735 -2.21484,2.25229 -0.26337,0.22158 -0.58583,0.34527 -0.90792,0.34828 -0.08159,7.6e-4 -0.16295,-0.0065 -0.24185,-0.02147 -0.18783,-0.03585 -0.39733,-0.05283 -0.62274,-0.05072 -0.85285,0.008 -1.96955,0.28753 -3.14421,0.78724 -1.49895,0.63705 -2.64428,1.43891 -3.14235,2.19987 -0.21678,0.33121 -0.6033,0.55596 -1.03366,0.60139 -0.52702,0.05542 -1.06241,0.08592 -1.59116,0.09087 -0.52105,0.0049 -1.04833,-0.01493 -1.56706,-0.05905 -0.43372,-0.03709 -0.82686,-0.25581 -1.05152,-0.58566 -0.5121,-0.75177 -1.67274,-1.53255 -3.18443,-2.14219 C 11.15807,31.54115 10.03634,31.28255 9.18374,31.29052 8.9594,31.29262 8.75115,31.3135 8.56483,31.35235 8.48622,31.36874 8.40495,31.37732 8.32317,31.37809 7.99818,31.38113 7.67099,31.26252 7.4018,31.0439 6.5859,30.38131 5.82818,29.63613 5.14951,28.82887 4.87106,28.49775 4.74903,28.06798 4.82295,27.67929 4.993,26.78583 4.7245,25.4128 4.08642,23.91197 3.44893,22.41315 2.64701,21.26776 1.88629,20.76975 1.55502,20.55298 1.33027,20.16658 1.28509,19.73634 1.175,18.68773 1.16429,17.62506 1.25339,16.57787 1.29029,16.14409 1.50914,15.75101 1.83874,15.52654 2.59045,15.01463 3.37123,13.85393 3.98093,12.34217 4.59007,10.83168 4.83303,9.45488 4.64755,8.56475 4.56621,8.17448 4.68155,7.73971 4.95594,7.40166 5.61916,6.58513 6.3644,5.8274 7.17103,5.14962 7.4344,4.92804 7.75674,4.80436 8.07863,4.80134 8.16035,4.80058 8.2417,4.80789 8.3206,4.8228 c 0.18767,0.03588 0.3971,0.05285 0.62238,0.05075 0.8526,-0.00798 1.9693,-0.28753 3.14459,-0.78725 1.49914,-0.63755 2.64446,-1.43941 3.14228,-2.19987 0.2169,-0.33146 0.60324,-0.55621 1.0336,-0.60139 0.52708,-0.05542 1.06247,-0.08593 1.59128,-0.09087 0.52118,-0.00488 1.04845,0.01493 1.56713,0.05905 0.43385,0.03709 0.82692,0.25581 1.05152,0.58566 0.51191,0.75152 1.67255,1.5323 3.18418,2.14194 1.18424,0.47764 2.30604,0.7365 3.15877,0.72852 0.22433,-0.0021 0.43253,-0.02298 0.61884,-0.06183 0.07861,-0.01639 0.15988,-0.02497 0.24166,-0.02574 0.32499,-0.00304 0.65225,0.11557 0.92125,0.33394 0.8159,0.66284 1.57375,1.40802 2.25229,2.21503 0.27851,0.33112 0.40061,0.76114 0.32669,1.14983 -0.16999,0.89346 0.09846,2.26648 0.73646,3.76707 0.6373,1.49882 1.43922,2.64421 2.20012,3.14222 0.33127,0.21677 0.55602,0.60318 0.6012,1.03366 0.11015,1.0486 0.12079,2.11101 0.0317,3.1582 z"
         id="path2077" /><path
         opacity="0.6"
         d="M 33.68905,15.8788 C 32.78991,15.2902 31.90595,14.05167 31.19987,12.39117 30.49301,10.72866 30.21438,9.23153 30.41522,8.17571 30.44559,8.01588 30.38496,7.82207 30.25688,7.66979 29.61006,6.9006 28.88743,6.18993 28.10912,5.55754 27.98009,5.45298 27.8291,5.39582 27.68409,5.39718 27.65336,5.39747 27.62284,5.40053 27.59336,5.40661 27.35716,5.45577 27.09815,5.48218 26.82358,5.48475 25.87165,5.49366 24.64427,5.21484 23.36748,4.69995 21.69285,4.0247 20.43743,3.16351 19.83248,2.27554 19.73931,2.13858 19.55666,2.0431 19.35575,2.0258 18.86222,1.98397 18.3595,1.96494 17.86199,1.9696 17.35703,1.97433 16.84649,2.00359 16.34451,2.05625 16.14635,2.07704 15.96797,2.17463 15.87875,2.31103 15.2904,3.20992 14.05174,4.09368 12.39106,4.7999 11.12425,5.33859 9.9023,5.64008 8.95025,5.64899 8.67335,5.65158 8.4125,5.62979 8.1751,5.58455 8.14702,5.57924 8.11651,5.5765 8.08591,5.57678 7.94367,5.57811 7.7961,5.63705 7.67024,5.74299 6.90093,6.38936 6.19032,7.11193 5.55786,7.89056 5.43096,8.047 5.37298,8.2447 5.40668,8.40645 5.62586,9.45833 5.3749,10.9589 4.70008,12.63233 c -0.67544,1.67469 -1.53663,2.9303 -2.42485,3.53512 -0.13664,0.09317 -0.23213,0.27556 -0.24918,0.47616 -0.08494,0.99843 -0.07477,2.01163 0.03027,3.01182 0.02079,0.19797 0.11832,0.37629 0.25458,0.46539 0.89889,0.58861 1.78284,1.82713 2.48912,3.48763 0.70699,1.66302 0.98562,3.16015 0.78471,4.21596 -0.03038,0.15957 0.03032,0.35313 0.15828,0.50542 0.6472,0.76969 1.3697,1.48036 2.14764,2.11225 0.12928,0.10481 0.28033,0.16197 0.42529,0.16061 0.03067,-2.9e-4 0.06112,-0.0033 0.0906,-0.0094 0.23633,-0.04916 0.49534,-0.07557 0.76996,-0.07814 0.95218,-0.0089 2.17949,0.26966 3.45585,0.78455 1.67462,0.67525 2.93011,1.53644 3.53525,2.42467 0.09311,0.13696 0.27582,0.23244 0.47667,0.24974 0.4936,0.04183 0.99632,0.06086 1.49377,0.0562 0.5049,-0.0047 1.01543,-0.03399 1.51729,-0.08665 0.1981,-0.02104 0.37673,-0.11864 0.46589,-0.25478 0.5886,-0.89939 1.82725,-1.78316 3.48788,-2.48887 1.26593,-0.53868 2.48775,-0.84017 3.44031,-0.84908 0.2769,-0.0026 0.53775,0.0192 0.77534,0.06444 0.0282,0.0053 0.0587,0.008 0.08925,0.0077 0.14236,-0.0013 0.29012,-0.06027 0.41591,-0.16621 0.77006,-0.64764 1.48061,-1.37021 2.11206,-2.14782 0.12709,-0.15619 0.18501,-0.35388 0.15125,-0.51563 -0.21912,-1.05214 0.03184,-2.55271 0.7066,-4.22613 0.67538,-1.67443 1.5365,-2.93005 2.4248,-3.53487 0.13658,-0.09316 0.23219,-0.27582 0.24924,-0.47641 0.08494,-0.99843 0.07477,-2.01163 -0.03026,-3.01156 -0.02082,-0.19825 -0.11835,-0.37657 -0.25455,-0.46566 z"
         id="path2079" /><g
         opacity="0.47"
         id="g2083">
	<path
   fill="#242424"
   d="m 17.86197,1.96959 c 0.49755,-0.00466 1.00025,0.01437 1.49381,0.0562 0.2009,0.01731 0.38352,0.11279 0.47669,0.24975 0.60496,0.88797 1.86039,1.74916 3.53501,2.42441 1.27679,0.51489 2.50419,0.79371 3.45609,0.7848 0.27458,-0.00257 0.53361,-0.02898 0.76978,-0.07814 0.02951,-0.00608 0.06003,-0.00914 0.09073,-0.00943 0.14501,-0.00136 0.29603,0.0558 0.42503,0.16036 0.77835,0.6324 1.50095,1.34307 2.14781,2.11225 0.12804,0.15228 0.1887,0.34609 0.15833,0.50592 -0.20087,1.05581 0.07777,2.55294 0.78463,4.21546 0.7061,1.6605 1.59007,2.89902 2.48917,3.48763 0.13623,0.0891 0.23377,0.26742 0.25457,0.46564 0.10503,0.99994 0.11521,2.01313 0.03025,3.01157 -0.01707,0.2006 -0.11269,0.38325 -0.24926,0.47641 -0.88828,0.60483 -1.74941,1.86044 -2.42479,3.53487 -0.67476,1.67342 -0.9257,3.17399 -0.70658,4.22613 0.03373,0.16175 -0.02414,0.35945 -0.15123,0.51563 -0.63146,0.77761 -1.342,1.50018 -2.11208,2.14782 -0.12583,0.10594 -0.27355,0.16488 -0.41595,0.16621 -0.03054,2.9e-4 -0.06102,-0.0025 -0.08921,-0.0077 -0.23757,-0.04523 -0.49844,-0.06703 -0.77537,-0.06444 -0.95251,0.0089 -2.17438,0.3104 -3.44026,0.84908 -1.66063,0.70571 -2.89931,1.58948 -3.4879,2.48887 -0.08918,0.13614 -0.26781,0.23374 -0.46589,0.25478 -0.50189,0.05266 -1.0124,0.08192 -1.51732,0.08665 -0.49745,0.0046 -1.00014,-0.01437 -1.49372,-0.0562 -0.2009,-0.01731 -0.38356,-0.11279 -0.47672,-0.24974 C 15.5625,32.8361 14.30696,31.97492 12.63234,31.29967 11.356,30.78477 10.12869,30.50621 9.17649,30.51511 8.90189,30.51768 8.64285,30.54409 8.40656,30.59325 8.37708,30.59933 8.3466,30.60239 8.31593,30.60268 8.17098,30.60404 8.01996,30.54688 7.89066,30.44207 7.11276,29.81017 6.39021,29.0995 5.74302,28.32982 5.61504,28.17753 5.5544,27.98398 5.58474,27.8244 5.78568,26.76859 5.507,25.27146 4.80003,23.60844 4.09376,21.94794 3.2098,20.70942 2.31093,20.12081 2.17466,20.03171 2.07711,19.85339 2.05633,19.65542 1.95133,18.65523 1.94115,17.64203 2.02608,16.6436 2.04314,16.443 2.13863,16.26061 2.27526,16.16744 3.16347,15.56262 4.02464,14.307 4.70013,12.63232 5.37491,10.9589 5.62586,9.45833 5.40672,8.40644 5.37296,8.2447 5.43094,8.047 5.55786,7.89056 6.19033,7.11193 6.90092,6.38936 7.67026,5.74299 7.79609,5.63705 7.9437,5.57811 8.08589,5.57678 8.11649,5.5765 8.147,5.57924 8.17508,5.58453 8.41251,5.62977 8.67331,5.65156 8.95021,5.64897 9.90229,5.64006 11.12424,5.33857 12.39102,4.79988 14.05176,4.09367 15.29036,3.2099 15.87871,2.31101 15.96793,2.17462 16.14636,2.07702 16.34451,2.05623 16.84647,2.00358 17.35701,1.97431 17.86197,1.96959 M 17.85471,1.19416 C 17.3259,1.19911 16.79051,1.22961 16.26343,1.28503 15.83307,1.3302 15.44673,1.55496 15.22983,1.88642 14.73201,2.64688 13.58668,3.44874 12.08755,4.08629 10.91226,4.58601 9.79557,4.86556 8.94296,4.87354 8.71768,4.87565 8.50825,4.85868 8.3206,4.82282 8.2417,4.80791 8.16035,4.80059 8.07863,4.80136 7.75674,4.80437 7.43439,4.92805 7.17103,5.14964 6.36439,5.82741 5.61915,6.58514 4.95594,7.40168 4.68154,7.73973 4.5662,8.1745 4.64754,8.56476 c 0.18548,0.89013 -0.05748,2.26693 -0.66662,3.77742 -0.60969,1.51176 -1.39048,2.67246 -2.14219,3.18437 -0.3296,0.22447 -0.54845,0.61755 -0.58535,1.05133 -0.08909,1.04719 -0.07839,2.10986 0.0317,3.15847 0.04517,0.43024 0.26993,0.81664 0.6012,1.03341 0.76071,0.49801 1.56264,1.64339 2.20013,3.14222 0.63807,1.50084 0.90658,2.87387 0.73653,3.76732 -0.07392,0.38869 0.04811,0.81846 0.32656,1.14958 0.67866,0.80726 1.43639,1.55244 2.25229,2.21503 0.26919,0.21862 0.59639,0.33723 0.92137,0.33419 0.08178,-7.6e-4 0.16305,-0.0094 0.24166,-0.02574 0.18632,-0.03885 0.39457,-0.05973 0.61891,-0.06183 0.8526,-0.008 1.97433,0.25063 3.15851,0.72827 1.51169,0.60963 2.67233,1.39042 3.18443,2.14219 0.22466,0.32986 0.6178,0.54858 1.05152,0.58566 0.51873,0.04412 1.04601,0.06393 1.56706,0.05905 0.52875,-0.005 1.06414,-0.03545 1.59116,-0.09087 0.43036,-0.04543 0.81689,-0.27018 1.03366,-0.60139 0.49807,-0.76097 1.64339,-1.56283 3.14235,-2.19987 1.17466,-0.49971 2.29135,-0.77926 3.14421,-0.78724 0.22541,-0.0021 0.4349,0.01486 0.62274,0.05072 0.0789,0.01491 0.16026,0.02223 0.24185,0.02147 0.32208,-0.003 0.64455,-0.1267 0.90792,-0.34828 0.80726,-0.67879 1.55243,-1.43652 2.21484,-2.25229 0.27452,-0.33781 0.38973,-0.77258 0.30839,-1.16284 -0.18548,-0.89038 0.05748,-2.26719 0.66662,-3.77767 0.60969,-1.51176 1.39048,-2.6722 2.14212,-3.18411 0.3296,-0.22473 0.54851,-0.6178 0.58541,-1.05158 0.08909,-1.04719 0.07846,-2.10961 -0.0317,-3.15822 -0.04517,-0.43049 -0.26993,-0.81689 -0.6012,-1.03366 C 33.35272,14.73186 32.55079,13.58648 31.9135,12.08765 31.27549,10.58706 31.00705,9.21404 31.17704,8.32058 31.25096,7.93189 31.12886,7.50187 30.85035,7.17075 30.17181,6.36374 29.41396,5.61856 28.59806,4.95572 28.32906,4.73735 28.0018,4.61874 27.67681,4.62178 27.59503,4.62255 27.51376,4.63113 27.43515,4.64752 27.24883,4.68637 27.04064,4.70725 26.81631,4.70935 25.96358,4.71733 24.84178,4.45847 23.65754,3.98083 22.14591,3.3712 20.98528,2.59041 20.47336,1.83889 20.24876,1.50903 19.85568,1.29031 19.42184,1.25323 18.90317,1.20909 18.37589,1.18929 17.85471,1.19416 Z"
   id="path2081" />
</g><path
         fill="#e3e3e3"
         d="m 17.92744,2.35119 v 0 c -0.3887,0 -0.70381,0.31511 -0.70381,0.70381 v 14.53657 c 0,0.3887 0.31511,0.70381 0.70381,0.70381 v 0 c 0.3887,0 0.70381,-0.31511 0.70381,-0.70381 V 3.055 c 0,-0.38871 -0.31511,-0.70381 -0.70381,-0.70381 z"
         id="path2085" /></g><g
       id="g2487"
       transform="matrix(0.26458333,0,0,0.26458333,166.11283,102.80159)"><g
         id="g96">
	
		<linearGradient
   id="SVGID_1_"
   gradientUnits="userSpaceOnUse"
   x1="15.91438"
   y1="34.422451"
   x2="15.91438"
   y2="9.3452902"
   gradientTransform="matrix(1,0,0,-1,0,43.88983)">
		<stop
   offset="0"
   style="stop-color:#828181"
   id="stop5" />
		<stop
   offset="1"
   style="stop-color:#575757"
   id="stop7" />
	</linearGradient>
	<path
   fill="url(#SVGID_1_)"
   d="M 21.76192,9.46738 H 10.06685 c -0.86114,0 -1.65685,0.45941 -2.08742,1.20517 L 2.13189,20.80079 c -0.43057,0.74577 -0.43057,1.66459 0,2.41036 l 5.84753,10.12823 c 0.43057,0.74577 1.22629,1.20517 2.08742,1.20517 h 11.69507 c 0.86114,0 1.65686,-0.45942 2.08742,-1.20517 l 5.84753,-10.12823 c 0.43057,-0.74577 0.43057,-1.66459 0,-2.41035 L 23.84933,10.67257 C 23.41878,9.92679 22.62305,9.46738 21.76192,9.46738 Z"
   id="path10"
   style="fill:url(#SVGID_1_)" />
	
		<linearGradient
   id="SVGID_00000011724221056106167080000012316488423049437834_"
   gradientUnits="userSpaceOnUse"
   x1="15.91439"
   y1="33.886829"
   x2="15.91439"
   y2="9.8809099"
   gradientTransform="matrix(1,0,0,-1,0,43.88983)">
		<stop
   offset="0.00559"
   style="stop-color:#F2F2F2"
   id="stop12" />
		<stop
   offset="1"
   style="stop-color:#C7C7C7"
   id="stop14" />
	</linearGradient>
	<polygon
   fill="url(#SVGID_00000011724221056106167080000012316488423049437834_)"
   points="22.8443,10.003 8.98448,10.003 2.05456,22.00596 8.98448,34.00892 22.8443,34.00892 29.77421,22.00596 "
   id="polygon17"
   style="fill:url(#SVGID_00000011724221056106167080000012316488423049437834_)" />
	<circle
   fill="#e0e0e0"
   cx="15.91451"
   cy="21.913271"
   r="11.18612"
   id="circle19" />
	
		<linearGradient
   id="SVGID_00000162342750860270092110000015706214213195423368_"
   gradientUnits="userSpaceOnUse"
   x1="-1917.8531"
   y1="1095.8516"
   x2="-1898.2256"
   y2="1095.8516"
   gradientTransform="rotate(-90,-1483.0316,-403.09454)">
		<stop
   offset="0"
   style="stop-color:#B0AEAE"
   id="stop21" />
		<stop
   offset="1"
   style="stop-color:#616161"
   id="stop23" />
	</linearGradient>
	<circle
   fill="url(#SVGID_00000162342750860270092110000015706214213195423368_)"
   cx="15.91451"
   cy="21.913271"
   r="9.8137598"
   id="circle26"
   style="fill:url(#SVGID_00000162342750860270092110000015706214213195423368_)" />
	<circle
   fill="#0d0d0d"
   cx="15.91452"
   cy="21.90579"
   r="9.3509903"
   id="circle28" />
	<circle
   cx="15.91491"
   cy="21.91083"
   r="4.7386999"
   id="circle30" />
	
		<linearGradient
   id="SVGID_00000041290219122321013730000005879340300429721751_"
   gradientUnits="userSpaceOnUse"
   x1="-2442.928"
   y1="809.22858"
   x2="-2442.928"
   y2="826.80347"
   gradientTransform="matrix(-1,0,0,1,-2427.0134,-796.11017)">
		<stop
   offset="0.00559"
   style="stop-color:#707070"
   id="stop32" />
		<stop
   offset="1"
   style="stop-color:#171616"
   id="stop34" />
	</linearGradient>
	<circle
   fill="url(#SVGID_00000041290219122321013730000005879340300429721751_)"
   cx="15.91452"
   cy="21.90584"
   r="8.7874403"
   id="circle37"
   style="fill:url(#SVGID_00000041290219122321013730000005879340300429721751_)" />
	<g
   opacity="0.1"
   id="g41">
		<path
   d="m 29.83272,22.05834 c -0.35173,-0.20308 -2.18816,2.31919 -4.10176,5.63365 -1.9136,3.31446 -3.17974,6.16597 -2.82801,6.36904 z"
   id="path39" />
	</g>
	<g
   opacity="0.15"
   id="g45">
		<path
   d="m 22.84466,34.05352 c -2.2e-4,-0.40615 -3.10296,-0.73372 -6.93016,-0.73164 -3.8272,0.0021 -6.92958,0.333 -6.92936,0.73915 z"
   id="path43" />
	</g>
	<g
   opacity="0.1"
   id="g49">
		<path
   d="m 2.05456,22.05834 c 0.35173,-0.20308 2.18816,2.31919 4.10176,5.63365 1.9136,3.31446 3.17974,6.16597 2.82801,6.36904 z"
   id="path47" />
	</g>
	<path
   opacity="0.5"
   fill="#ffffff"
   enable-background="new    "
   d="M 29.83272,22.00569 C 29.48099,22.20877 27.64456,19.6865 25.73096,16.37205 23.81736,13.0576 22.55123,10.20608 22.90296,10.003 Z"
   id="path51" />
	<path
   opacity="0.5"
   fill="#ffffff"
   enable-background="new    "
   d="M 2.05456,22.00569 C 2.40629,22.20877 4.24272,19.6865 6.15632,16.37205 8.06992,13.0576 9.33606,10.20608 8.98433,10.003 Z"
   id="path53" />
	
		<linearGradient
   id="SVGID_00000151528136187052672200000010972216664118976168_"
   gradientUnits="userSpaceOnUse"
   x1="-2442.9243"
   y1="809.22858"
   x2="-2442.9243"
   y2="826.70764"
   gradientTransform="matrix(-1,0,0,1,-2427.0134,-796.11017)">
		<stop
   offset="0"
   style="stop-color:#FFFEFE"
   id="stop55" />
		<stop
   offset="1"
   style="stop-color:#545454"
   id="stop57" />
	</linearGradient>
	<circle
   fill="url(#SVGID_00000151528136187052672200000010972216664118976168_)"
   cx="15.91088"
   cy="21.85795"
   r="8.7395496"
   id="circle60"
   style="fill:url(#SVGID_00000151528136187052672200000010972216664118976168_)" />
	<circle
   fill="#e0e0e0"
   cx="15.91087"
   cy="21.85795"
   r="7.78758"
   id="circle62" />
	<circle
   fill="none"
   cx="15.91087"
   cy="21.85795"
   r="15.9874"
   id="circle64" />
	<g
   opacity="0.43"
   id="g72">
		<path
   fill="#404040"
   d="m 15.91088,13.63261 c 4.78107,0 8.65947,3.7302 8.73,8.35583 6.2e-4,-0.0439 0.0066,-0.08647 0.0066,-0.1305 0,-4.82672 -3.91145,-8.7395 -8.73657,-8.7395 -4.82512,0 -8.73664,3.91278 -8.73664,8.7395 0,0.04403 0.00594,0.0866 0.00657,0.1305 0.07053,-4.62562 3.94899,-8.35583 8.73007,-8.35583 z"
   id="path66" />
		<path
   opacity="0.28"
   fill="#404040"
   enable-background="new    "
   d="m 7.18081,21.98844 c -6.3e-4,0.04264 -0.00657,0.08388 -0.00657,0.12666 0,4.68468 3.91152,8.48241 8.73664,8.48241 -4.78108,0 -8.65954,-3.84316 -8.73007,-8.60907 z"
   id="path68" />
		<path
   opacity="0.28"
   fill="#404040"
   enable-background="new    "
   d="m 15.91088,30.59751 c 4.82512,0 8.73657,-3.79773 8.73657,-8.48241 0,-0.04278 -0.0059,-0.08402 -0.0066,-0.12666 -0.07053,4.76591 -3.94892,8.60907 -8.73,8.60907 z"
   id="path70" />
	</g>
	
		<linearGradient
   id="SVGID_00000093883040637519398730000000194708678221841039_"
   gradientUnits="userSpaceOnUse"
   x1="-2442.9243"
   y1="824.94928"
   x2="-2442.9243"
   y2="810.98694"
   gradientTransform="matrix(-1,0,0,1,-2427.0134,-796.11017)">
		<stop
   offset="0"
   style="stop-color:#FFFEFE"
   id="stop74" />
		<stop
   offset="1"
   style="stop-color:#706C6C"
   id="stop76" />
	</linearGradient>
	<circle
   fill="url(#SVGID_00000093883040637519398730000000194708678221841039_)"
   cx="15.91088"
   cy="21.85795"
   r="6.9811802"
   id="circle79"
   style="fill:url(#SVGID_00000093883040637519398730000000194708678221841039_)" />
	
		<linearGradient
   id="SVGID_00000160907508987159623320000005416213705164877225_"
   gradientUnits="userSpaceOnUse"
   x1="-2442.9106"
   y1="811.80585"
   x2="-2442.9106"
   y2="824.13043"
   gradientTransform="matrix(-1,0,0,1,-2427.0134,-796.11017)">
		<stop
   offset="0"
   style="stop-color:#FAF9F9"
   id="stop81" />
		<stop
   offset="1"
   style="stop-color:#545454"
   id="stop83" />
	</linearGradient>
	<circle
   fill="url(#SVGID_00000160907508987159623320000005416213705164877225_)"
   cx="15.8973"
   cy="21.85795"
   r="6.1622901"
   id="circle86"
   style="fill:url(#SVGID_00000160907508987159623320000005416213705164877225_)" />
	<g
   opacity="0.5"
   id="g94">
		<path
   fill="#404040"
   d="m 15.89729,17.05821 c 3.37118,0 6.10586,1.6302 6.15559,4.89176 4.4e-4,-0.03095 0.0046,-0.06097 0.0046,-0.09202 0,-3.40336 -2.758,-6.1623 -6.16022,-6.1623 -3.40222,0 -6.16027,2.75894 -6.16027,6.1623 0,0.03105 0.00419,0.06107 0.00463,0.09202 0.04973,-3.26157 2.78447,-4.89176 6.15564,-4.89176 z"
   id="path88" />
		<path
   opacity="0.28"
   fill="#404040"
   enable-background="new    "
   d="m 9.74165,21.94997 c -4.4e-4,0.03007 -0.00463,0.05914 -0.00463,0.08931 0,3.30321 2.75805,5.98102 6.16028,5.98102 -3.37118,-10e-6 -6.10592,-2.70985 -6.15565,-6.07033 z"
   id="path90" />
		<path
   opacity="0.28"
   fill="#404040"
   enable-background="new    "
   d="m 15.89729,28.02029 c 3.40223,0 6.16022,-2.67781 6.16022,-5.98102 0,-0.03016 -0.0042,-0.05924 -0.0046,-0.08931 -0.04973,3.36049 -2.78441,6.07033 -6.15559,6.07033 z"
   id="path92" />
	</g>
</g><path
         fill="url(#SVGID_00000152969447965834217190000004531869535487010711_)"
         d="m 8.70181,21.69526 c 0,1.01953 0.21286,1.98875 0.5931,2.86875 H 22.5925 c 0.38024,-0.88001 0.5931,-1.84922 0.5931,-2.86875 0,-1.01953 -0.21286,-1.98875 -0.5931,-2.86875 H 9.29491 c -0.38024,0.88 -0.5931,1.84922 -0.5931,2.86875 z"
         id="path105" /><path
         fill="#e0e0e0"
         d="m 8.96626,21.69526 c 0,0.94366 0.19702,1.84075 0.54896,2.65527 H 22.3722 c 0.35194,-0.81452 0.54896,-1.71161 0.54896,-2.65527 0,-0.94366 -0.19702,-1.84075 -0.54896,-2.65527 H 9.51522 C 9.16327,19.85451 8.96626,20.7516 8.96626,21.69526 Z"
         id="path107" /><polygon
         fill="#ffffff"
         points="9.51522,19.03999 22.37219,19.03999 22.55368,19.50729 9.33376,19.50729 "
         id="polygon109" /><g
         opacity="0.15"
         id="g113">
	<polygon
   points="9.33376,23.88324 22.55366,23.88324 22.37219,24.35053 9.51522,24.35053 "
   id="polygon111" />
</g><path
         opacity="0.2"
         enable-background="new    "
         d="m 19.78062,24.42746 3.22107,9.00289 c 0.33171,0.92712 0.20907,1.98553 -0.32236,2.78217 l -0.08537,0.12797 c -0.12326,0.18477 -0.31497,0.29322 -0.51835,0.29322 H 9.81184 c -0.20337,0 -0.39509,-0.10845 -0.51835,-0.29322 L 9.20813,36.21252 C 8.67669,35.41588 8.55406,34.35747 8.88577,33.43035 l 3.22107,-9.00289 c 0,10e-6 7.67378,10e-6 7.67378,0 z"
         id="path115" /></g></g></svg>
