<?xml version="1.0" encoding="UTF-8" standalone="no"?>
<svg
   version="1.1"
   width="50.5mm"
   height="128.5mm"
   viewBox="0 0 50.499999 128.5"
   id="svg8664"
   sodipodi:docname="snecho.svg"
   inkscape:version="1.2.2 (732a01da63, 2022-12-09)"
   xmlns:inkscape="http://www.inkscape.org/namespaces/inkscape"
   xmlns:sodipodi="http://sodipodi.sourceforge.net/DTD/sodipodi-0.dtd"
   xmlns="http://www.w3.org/2000/svg"
   xmlns:svg="http://www.w3.org/2000/svg"
   xmlns:rdf="http://www.w3.org/1999/02/22-rdf-syntax-ns#"
   xmlns:cc="http://creativecommons.org/ns#"
   xmlns:dc="http://purl.org/dc/elements/1.1/">
  <defs
     id="defs8668" />
  <sodipodi:namedview
     id="namedview8666"
     pagecolor="#ffffff"
     bordercolor="#000000"
     borderopacity="0.25"
     inkscape:showpageshadow="2"
     inkscape:pageopacity="0.0"
     inkscape:pagecheckerboard="0"
     inkscape:deskcolor="#d1d1d1"
     inkscape:document-units="mm"
     showgrid="false"
     showguides="true"
     inkscape:zoom="0.83801883"
     inkscape:cx="-51.311496"
     inkscape:cy="231.49838"
     inkscape:window-width="1920"
     inkscape:window-height="1017"
     inkscape:window-x="-8"
     inkscape:window-y="-8"
     inkscape:window-maximized="1"
     inkscape:current-layer="layer1">
    <inkscape:grid
       type="xygrid"
       id="grid13701" />
    <sodipodi:guide
       position="0,125.5"
       orientation="0,1"
       id="guide13711"
       inkscape:locked="false"
       inkscape:label="hole centers, y"
       inkscape:color="rgb(220,138,221)" />
    <sodipodi:guide
       position="0,3.0000001"
       orientation="0,1"
       id="guide13713"
       inkscape:label="hole centers, y2"
       inkscape:locked="false"
       inkscape:color="rgb(220,138,221)" />
    <sodipodi:guide
       position="7.5000001,3.0000001"
       orientation="-1,0"
       id="guide13715"
       inkscape:label="hole centers, x"
       inkscape:locked="false"
       inkscape:color="rgb(220,138,221)" />
    <sodipodi:guide
       position="43.060001,3.0000001"
       orientation="-1,0"
       id="guide13717"
       inkscape:label="hole centers, x2"
       inkscape:locked="false"
       inkscape:color="rgb(220,138,221)" />
  </sodipodi:namedview>
  <title
     id="title2">SVG Image created as ES_Daisy_Patch_SM_FB_Rev1-brd.svg date 2024/04/30 13:34:42 </title>
  <desc
     id="desc4">Image generated by PCBNEW </desc>
  <g
     style="display:none;fill:#000000;fill-opacity:1;stroke:#000000;stroke-linecap:round;stroke-linejoin:round;stroke-opacity:1"
     id="g6" />
  <g
     inkscape:groupmode="layer"
     id="layer1"
     inkscape:label="bg">
    <rect
       style="display:inline;fill:#cccccc;fill-opacity:1;stroke:none;stroke-width:0;stroke-linecap:round;stroke-linejoin:round;stroke-dasharray:none;stroke-opacity:1"
       id="rect6639"
       width="50.515968"
       height="128.5"
       x="-0.31572479"
       y="0" />
    <path
       style="fill:#000000;stroke:none;stroke-width:0;stroke-dasharray:none"
       id="path5710"
       d="m 5.3607617,37.531812 c -0.3589115,-0.04968 -0.7659123,-0.216916 -1.1246037,-0.0709 -0.2661267,0.108337 -0.3174355,0.239549 -0.4932834,0.462291 -0.5903097,1.26851 -0.6336482,2.700255 -0.7141826,4.073879 -0.081042,1.907554 -0.070976,3.817462 -0.074008,5.726306 -0.00385,1.460415 -0.00385,2.920831 -0.00325,4.381246 -0.01125,1.571257 0.05017,3.142186 0.1233819,4.711464 0.1054631,1.95488 0.1536395,3.911997 0.1839457,5.869263 0.028052,2.143448 0.011798,4.28671 0.065415,6.429759 0.037676,1.277826 0.071649,2.555726 0.088216,3.834013 0.0091,0.956249 0.011917,1.912565 0.0097,2.868853 -0.0022,0.44653 -0.00405,0.893059 -0.00601,1.339588 0,0 0.8739259,0.445358 0.8739259,0.445358 v 0 c -0.0014,-0.448384 -0.00265,-0.896768 -0.00474,-1.34515 -0.00243,-0.957212 0.00135,-1.914475 -0.012091,-2.871629 -0.020614,-1.283391 -0.065935,-2.566014 -0.114245,-3.848635 -0.066008,-2.142805 -0.058817,-4.285953 -0.067935,-6.429615 -0.025829,-1.957811 -0.085137,-3.914725 -0.1798502,-5.870491 -0.070533,-1.565137 -0.118757,-3.131931 -0.1077315,-4.698804 -0.00297,-1.463646 -0.00994,-2.927273 -0.016039,-4.390908 -0.00185,-1.906302 -0.00579,-3.813686 0.076931,-5.718593 0.081081,-1.350373 0.1273638,-2.761232 0.7155048,-4.005078 0.073207,-0.08817 0.1331407,-0.189317 0.2196203,-0.264514 0.3745163,-0.325657 0.9262893,-0.104468 1.3472424,-0.02675 0,0 -0.7859109,-0.600954 -0.7859109,-0.600954 z" />
    <path
       style="fill:#000000;stroke:none;stroke-width:0;stroke-dasharray:none"
       id="path5712"
       d="m 17.394895,76.897301 c -0.03158,-1.435466 -0.01689,-2.870444 0.02152,-4.305531 0.05525,-1.322718 0.174232,-2.641473 0.246331,-3.963172 0.02834,-0.348094 0.0715,-0.694669 0.107497,-1.04199 0.0068,-0.06538 0.05138,-0.443807 0.03491,-0.529249 -0.01435,-0.07443 -0.06176,-0.138459 -0.09264,-0.20769 -0.401361,-0.218853 -0.785004,-0.473911 -1.204084,-0.656555 -0.09251,-0.04032 -1.138596,-0.20813 -1.194112,-0.216414 -0.6059,-0.09039 -1.21469,-0.152217 -1.824429,-0.208857 -0.133063,-0.01021 -0.694679,-0.04626 -0.855748,-0.08237 -0.103609,-0.02323 -0.387568,-0.166883 -0.300194,-0.10655 1.18489,0.8182 0.492067,0.2345 0.355827,0.0576 -0.08838,-0.114749 -0.157995,-0.2428 -0.236993,-0.364201 -0.556114,-1.028179 -0.787127,-2.172885 -0.94949,-3.318219 -0.01672,-0.152254 -0.03344,-0.304512 -0.05015,-0.456769 0,0 -0.867715,-0.429905 -0.867715,-0.429905 v 0 c 0.01784,0.153881 0.03569,0.307763 0.05354,0.461645 0.166603,1.152665 0.391746,2.304536 0.926227,3.351694 0.07715,0.129053 0.299658,0.543975 0.44958,0.648816 0.911944,0.637725 1.248299,0.775936 2.248302,0.810969 0.821084,0.07558 1.644743,0.157957 2.453698,0.323104 0.18636,0.03804 0.477991,0.305364 0.555242,0.131554 0.07796,-0.175398 -0.306292,-0.231408 -0.459437,-0.347113 0.03887,0.0539 0.09775,0.09798 0.116597,0.161703 0.02225,0.07522 0.0047,0.156983 8.46e-4,0.235337 -0.02195,0.447704 -0.107784,0.891214 -0.128642,1.339138 -0.06005,1.327457 -0.158522,2.652797 -0.217577,3.980323 -0.04119,1.428101 -0.05981,2.855941 -0.06838,4.284575 0,0 0.879492,0.448125 0.879492,0.448125 z" />
    <path
       style="fill:#000000;stroke:none;stroke-width:0;stroke-dasharray:none"
       id="path5720"
       d="m 45.337691,78.514278 c -0.02201,-1.496507 -0.02764,-2.993126 -0.01463,-4.489715 0.04648,-2.694532 0.09264,-5.389036 0.121994,-8.08382 0.0045,-1.949272 0.04423,-3.898405 0.142796,-5.845251 0.103841,-1.713704 0.220805,-3.426712 0.340206,-5.139468 0.09769,-1.626949 0.18061,-3.254796 0.282586,-4.881504 0.118586,-1.767438 0.309168,-3.527123 0.547952,-5.281964 0.285202,-1.72629 0.46251,-3.467431 0.706141,-5.199455 0.04094,-0.722283 0.461539,-2.052748 0.108439,-2.730081 -0.05335,-0.102341 -0.145695,-0.179031 -0.218543,-0.268547 -1.026488,-0.719148 -1.698749,-0.939218 -2.874158,-1.044583 -0.379415,-0.02244 -0.195014,-0.01384 -0.553172,-0.02657 0,0 0.792535,0.580297 0.792535,0.580297 v 0 c 0.353743,0.0136 0.171633,0.0044 0.546288,0.02838 0.462783,0.0453 0.923282,0.102198 1.363607,0.261157 0.114927,0.04149 0.424,0.228907 0.337812,0.142296 -0.142176,-0.14287 -0.34245,-0.21268 -0.513675,-0.319022 0.07882,0.07702 0.177633,0.137864 0.236455,0.23105 0.388747,0.615839 -0.02241,2.027119 -0.06134,2.705187 -0.236649,1.73386 -0.416229,3.475506 -0.699894,5.202942 -0.241144,1.755849 -0.432673,3.516714 -0.556766,5.285033 -0.105169,1.626719 -0.18533,3.25496 -0.27995,4.882293 -0.117393,1.713471 -0.239128,3.426764 -0.340873,5.141158 -0.09575,1.951726 -0.129167,3.905801 -0.12277,5.859799 -0.01863,2.69494 -0.0532,5.38975 -0.120441,8.083962 -0.03239,1.485625 -0.03448,2.971306 -0.0524,4.457129 0,0 0.881796,0.449297 0.881796,0.449297 z" />
    <path
       style="fill:#000000;stroke:none;stroke-width:0;stroke-dasharray:none"
       id="path5722"
       d="m 33.283235,57.26603 c -0.634532,-0.09419 -1.251759,-0.291201 -1.887815,-0.37497 -0.149733,-0.01971 -0.302223,-0.05321 -0.451882,-0.03294 -0.137335,0.0186 -0.25931,0.09791 -0.388964,0.146862 -0.114681,0.150508 -0.255098,0.284512 -0.344046,0.451525 -0.23074,0.433247 -0.408318,1.172688 -0.498075,1.627901 -0.237252,1.203235 -0.312309,2.427325 -0.396907,3.647795 -0.160652,2.778659 -0.09859,5.562727 -0.05867,8.34377 0.01762,1.389332 0.05041,2.781242 0.204549,4.162954 0.05594,0.505389 0.100799,1.010825 0.180806,1.513062 0,0 0.88301,0.431993 0.88301,0.431993 v 0 c -0.0847,-0.502554 -0.135946,-1.008218 -0.19394,-1.514498 -0.16923,-1.385986 -0.230039,-2.781869 -0.254357,-4.177591 -0.06371,-2.779845 -0.127286,-5.563439 0.04617,-8.340966 0.08837,-1.212273 0.165851,-2.427909 0.412364,-3.62145 0.09047,-0.43801 0.271899,-1.162597 0.502168,-1.579774 0.08275,-0.149918 0.215112,-0.266488 0.322668,-0.399732 0.12097,-0.03864 0.236513,-0.10363 0.362907,-0.11592 0.147011,-0.01429 0.295228,0.0172 0.4415,0.03771 0.641882,0.08999 1.267166,0.280046 1.904997,0.392382 0,0 -0.786487,-0.598119 -0.786487,-0.598119 z" />
    <path
       style="fill:#000000;stroke:none;stroke-width:0;stroke-dasharray:none"
       id="path5728"
       d="m 5.6217465,91.153963 c -0.00344,0.524082 0.02077,1.046758 0.05192,1.569728 0,0 0.8678531,0.435488 0.8678531,0.435488 v 0 c -0.032987,-0.518265 -0.061999,-1.036402 -0.037978,-1.555919 0,0 -0.8817951,-0.449297 -0.8817951,-0.449297 z" />
    <path
       style="fill:#000000;stroke:none;stroke-width:0;stroke-dasharray:none"
       id="path5730"
       d="m 18.900813,91.057634 c 0.05736,0.594415 0.08847,1.190945 0.114642,1.787413 0,0 0.873766,0.440055 0.873766,0.440055 v 0 c -0.02981,-0.596309 -0.06713,-1.192162 -0.106098,-1.787937 0,0 -0.88231,-0.439531 -0.88231,-0.439531 z" />
    <path
       style="fill:#000000;stroke:none;stroke-width:0;stroke-dasharray:none"
       id="path5732"
       d="m 31.03932,90.895767 c -0.01535,0.617257 -0.09381,1.231127 -0.155305,1.845013 0,0 0.855794,0.446818 0.855794,0.446818 v 0 c 0.06099,-0.614566 0.137023,-1.228005 0.177851,-1.844294 0,0 -0.87834,-0.447537 -0.87834,-0.447537 z" />
    <path
       style="fill:#000000;stroke:none;stroke-width:0;stroke-dasharray:none"
       id="path5734"
       d="m 42.895124,91.354586 c 0.06507,0.609182 0.100645,1.221012 0.125042,1.833015 0.0026,0.09028 0.0052,0.18057 0.0078,0.270854 0,0 0.875689,0.443121 0.875689,0.443121 v 0 c -0.0024,-0.09064 -0.0049,-0.181282 -0.0073,-0.271923 -0.02455,-0.612796 -0.06934,-1.224401 -0.117398,-1.835758 0,0 -0.883857,-0.439309 -0.883857,-0.439309 z" />
    <g
       aria-label="IN"
       id="text4660-8-1"
       style="font-weight:300;font-size:4.23333px;font-family:'Segoe UI';-inkscape-font-specification:'Segoe UI, Light';stroke-width:0.264583">
      <path
         d="m 4.6038442,106.73769 v -2.96415 h 0.2046385 v 2.96415 z"
         id="path6449" />
      <path
         d="M 7.6651535,106.73769 5.899888,104.34198 q -0.053743,-0.0724 -0.095084,-0.1447 l -0.026872,-0.0413 h -0.00827 q 0.00413,0.0537 0.00413,0.13023 v 2.45152 H 5.5691591 v -2.96415 h 0.1570962 l 1.7528632,2.37504 q 0.057878,0.0786 0.1260903,0.19017 h 0.010335 q -0.010335,-0.14469 -0.010335,-0.24804 v -2.31717 h 0.2046385 v 2.96415 z"
         id="path6451" />
    </g>
    <g
       aria-label="OUT/L"
       id="text4660-8-1-0"
       style="font-weight:300;font-size:4.23333px;font-family:'Segoe UI';-inkscape-font-specification:'Segoe UI, Light';stroke-width:0.264583">
      <path
         d="m 23.793548,106.53825 q -0.628385,0 -1.002522,-0.41755 -0.37207,-0.41754 -0.37207,-1.0852 0,-0.709 0.382406,-1.13481 0.384472,-0.42788 1.047997,-0.42788 0.599446,0 0.969449,0.41134 0.37207,0.40928 0.37207,1.07487 0,0.73587 -0.380338,1.15755 -0.380339,0.42168 -1.016992,0.42168 z m 0.02067,-2.87941 q -0.516764,0 -0.851627,0.37414 -0.332796,0.37413 -0.332796,0.97978 0,0.61185 0.31626,0.97565 0.316259,0.36174 0.843358,0.36174 0.549837,0 0.870231,-0.3576 0.320393,-0.35967 0.320393,-1.00046 0,-0.62838 -0.314192,-0.97978 -0.312126,-0.35347 -0.851627,-0.35347 z"
         id="path6454" />
      <path
         d="m 27.816039,105.30215 q 0,1.2361 -1.054199,1.2361 -1.002522,0 -1.002522,-1.19063 v -1.82521 h 0.202572 v 1.79628 q 0,1.03146 0.839224,1.03146 0.812353,0 0.812353,-1.00253 v -1.82521 h 0.202572 z"
         id="path6456" />
      <path
         d="m 29.343593,103.71052 v 2.77605 h -0.202572 v -2.77605 H 28.28526 v -0.18811 h 1.914094 v 0.18811 z"
         id="path6458" />
      <path
         d="m 30.453601,106.97853 h -0.190169 l 1.43247,-3.45612 h 0.198437 z"
         id="path6460" />
      <path
         d="m 32.254007,106.48657 v -2.96416 h 0.204638 v 2.77813 h 1.188557 v 0.18603 z"
         id="path6462" />
    </g>
    <g
       aria-label="OUT/R
"
       id="text4660-8-1-0-1"
       style="font-weight:300;font-size:4.23333px;font-family:'Segoe UI';-inkscape-font-specification:'Segoe UI, Light';stroke-width:0.264583">
      <path
         d="m 39.039331,106.25848 q -0.628385,0 -1.002522,-0.41755 -0.37207,-0.41754 -0.37207,-1.0852 0,-0.709 0.382406,-1.13481 0.384472,-0.42788 1.047997,-0.42788 0.599446,0 0.969449,0.41134 0.37207,0.40928 0.37207,1.07487 0,0.73587 -0.380338,1.15755 -0.380339,0.42168 -1.016992,0.42168 z m 0.02067,-2.87941 q -0.516764,0 -0.851627,0.37414 -0.332796,0.37413 -0.332796,0.97978 0,0.61185 0.316259,0.97565 0.31626,0.36174 0.843359,0.36174 0.549837,0 0.870231,-0.3576 0.320393,-0.35967 0.320393,-1.00046 0,-0.62838 -0.314192,-0.97978 -0.312126,-0.35347 -0.851627,-0.35347 z"
         id="path6465" />
      <path
         d="m 43.061821,105.02238 q 0,1.2361 -1.054198,1.2361 -1.002522,0 -1.002522,-1.19063 v -1.82521 h 0.202572 v 1.79628 q 0,1.03146 0.839224,1.03146 0.812353,0 0.812353,-1.00253 v -1.82521 h 0.202571 z"
         id="path6467" />
      <path
         d="m 44.589375,103.43075 v 2.77605 h -0.202571 v -2.77605 h -0.855761 v -0.18811 h 1.914093 v 0.18811 z"
         id="path6469" />
      <path
         d="m 45.699384,106.69876 h -0.190169 l 1.432469,-3.45612 h 0.198438 z"
         id="path6471" />
      <path
         d="m 49.017009,106.2068 -0.394808,-0.86816 q -0.121956,-0.26872 -0.243913,-0.35967 -0.121956,-0.093 -0.305924,-0.093 h -0.367936 v 1.32085 H 47.49979 v -2.96416 h 0.822688 q 0.39274,0 0.615982,0.21291 0.225309,0.21084 0.225309,0.55811 0,0.32039 -0.183967,0.53536 -0.183968,0.21498 -0.514697,0.27699 v 0.008 q 0.175699,0.0703 0.343131,0.42788 l 0.440283,0.94464 z m -1.312581,-2.77605 v 1.26917 h 0.510563 q 0.338997,0 0.537434,-0.17777 0.200505,-0.17776 0.200505,-0.48782 0,-0.28319 -0.179834,-0.44235 -0.179834,-0.16123 -0.514697,-0.16123 z"
         id="path6473" />
    </g>
    <g
       aria-label="SNECHO"
       id="text4660"
       style="font-weight:bold;font-size:11.2889px;font-family:'Segoe UI';-inkscape-font-specification:'Segoe UI Bold';stroke-width:0.264583">
      <path
         d="M 3.2830783,16.750691 V 14.9868 q 0.4795578,0.402388 1.0417979,0.606338 0.5622402,0.198437 1.1355047,0.198437 0.3362416,0 0.5842888,-0.06063 0.2535592,-0.06063 0.418924,-0.165365 0.1708769,-0.110243 0.2535593,-0.253559 0.082682,-0.148829 0.082682,-0.319706 0,-0.23151 -0.1322918,-0.413411 Q 6.5352518,14.396999 6.3037411,14.242659 6.0777426,14.088318 5.7635496,13.945002 5.4493565,13.801686 5.0855541,13.652858 4.1595115,13.267007 3.7020023,12.710279 3.2500054,12.153551 3.2500054,11.365312 q 0,-0.617361 0.2480471,-1.058334 Q 3.7460996,9.860493 4.1705358,9.5738608 4.6004842,9.2872285 5.1627243,9.1549367 5.7249645,9.0171328 6.3533505,9.0171328 q 0.6173618,0 1.0914074,0.07717 0.4795578,0.071658 0.8819453,0.2259985 V 10.968437 Q 8.1282655,10.830633 7.8912427,10.725902 7.6597321,10.621171 7.4116849,10.555025 7.1636378,10.483367 6.9155907,10.450294 q -0.242535,-0.03307 -0.4630213,-0.03307 -0.3031687,0 -0.5512159,0.06063 -0.2480471,0.05512 -0.418924,0.159852 -0.1708769,0.104731 -0.2645836,0.25356 -0.093707,0.143316 -0.093707,0.325217 0,0.198438 0.104731,0.35829 0.104731,0.154341 0.2976566,0.297657 0.1929255,0.137804 0.4685334,0.275608 0.2756079,0.132292 0.6228739,0.275608 0.4740456,0.198437 0.8488724,0.424436 0.3803389,0.220486 0.6504347,0.501606 0.2700958,0.28112 0.4134119,0.644923 0.1433161,0.35829 0.1433161,0.837848 0,0.661459 -0.2535593,1.113456 -0.2480471,0.446485 -0.6779955,0.727605 -0.4299483,0.275608 -1.0032128,0.396875 -0.5677523,0.121268 -1.2016505,0.121268 -0.6504347,0 -1.2402357,-0.110243 -0.5842887,-0.110244 -1.0142371,-0.33073 z"
         id="path6476" />
      <path
         d="m 17.085523,17.05386 h -1.796964 l -3.257686,-4.966455 q -0.286632,-0.435461 -0.396875,-0.655947 h -0.02205 q 0.0441,0.418924 0.0441,1.278821 V 17.05386 H 9.9748384 V 9.1494246 H 11.89307 l 3.136418,4.8121144 q 0.214974,0.325217 0.396875,0.644922 h 0.02205 q -0.0441,-0.275608 -0.0441,-1.085895 V 9.1494246 h 1.681209 z"
         id="path6478" />
      <path
         d="M 23.633967,17.05386 H 18.89351 V 9.1494246 h 4.558555 v 1.4496974 h -2.778127 v 1.758379 h 2.585202 v 1.444185 h -2.585202 v 1.807988 h 2.960029 z"
         id="path6480" />
      <path
         d="m 30.568262,16.77274 q -0.865408,0.418924 -2.259985,0.418924 -1.819012,0 -2.86081,-1.069359 -1.041798,-1.069359 -1.041798,-2.849786 0,-1.896182 1.168578,-3.075784 1.17409,-1.1796022 3.042711,-1.1796022 1.157554,0 1.951304,0.2921444 v 1.7142808 q -0.79375,-0.474045 -1.807988,-0.474045 -1.113456,0 -1.796963,0.700044 -0.683508,0.700044 -0.683508,1.896182 0,1.146529 0.644923,1.830037 0.644922,0.677995 1.73633,0.677995 1.041798,0 1.907206,-0.507118 z"
         id="path6482" />
      <path
         d="m 38.786891,17.05386 h -1.78594 V 13.834759 H 33.726729 V 17.05386 H 31.946302 V 9.1494246 h 1.780427 v 3.1529544 h 3.274222 V 9.1494246 h 1.78594 z"
         id="path6484" />
      <path
         d="m 43.935247,17.191664 q -1.697745,0 -2.767104,-1.102432 -1.069358,-1.107944 -1.069358,-2.882859 0,-1.874134 1.085895,-3.031687 1.085895,-1.1575532 2.877346,-1.1575532 1.692233,0 2.734031,1.1079442 1.04731,1.107943 1.04731,2.921444 0,1.863109 -1.085895,3.004126 -1.080383,1.141017 -2.822225,1.141017 z m 0.07717,-6.642151 q -0.937067,0 -1.488283,0.705556 -0.551216,0.700044 -0.551216,1.857597 0,1.17409 0.551216,1.857598 0.551216,0.683507 1.444186,0.683507 0.92053,0 1.460722,-0.661459 0.540191,-0.666971 0.540191,-1.846573 0,-1.229211 -0.523655,-1.912719 -0.523655,-0.683507 -1.433161,-0.683507 z"
         id="path6486" />
    </g>
    <g
       aria-label="Size"
       id="text4660-8"
       style="font-weight:bold;font-size:4.93889px;font-family:'Segoe UI';-inkscape-font-specification:'Segoe UI Bold';stroke-width:0.264583">
      <path
         d="m 7.4675275,30.016747 v -0.47749 q 0.081993,0.07235 0.195337,0.130225 0.1157552,0.05788 0.2411567,0.09887 0.1278131,0.03858 0.2556261,0.06029 0.1278131,0.0217 0.2363336,0.0217 0.373793,0 0.5570721,-0.137459 0.1856907,-0.139871 0.1856907,-0.40032 0,-0.139871 -0.062701,-0.243569 Q 9.0157537,28.965304 8.9072332,28.880899 8.7987127,28.794083 8.6491955,28.716912 8.5020899,28.637331 8.3308686,28.550514 8.1500011,28.458875 7.9932492,28.364824 7.8364973,28.270772 7.7207421,28.157429 7.6049868,28.044085 7.537463,27.901803 q -0.065112,-0.144694 -0.065112,-0.33762 0,-0.236333 0.1036974,-0.409966 0.1036974,-0.176045 0.2725071,-0.289388 0.1688098,-0.113344 0.3834393,-0.16881 0.217041,-0.05547 0.4413168,-0.05547 0.5112523,0 0.7451743,0.12299 v 0.455786 q -0.3062691,-0.212218 -0.786171,-0.212218 -0.1326362,0 -0.2652724,0.02894 -0.1326362,0.02653 -0.2363336,0.08923 -0.1036974,0.0627 -0.1688097,0.161575 -0.065112,0.09887 -0.065112,0.241157 0,0.132636 0.048231,0.229099 0.050643,0.09646 0.1471056,0.176044 0.096463,0.07958 0.2339221,0.15434 0.1398709,0.07476 0.3207384,0.163987 0.1856907,0.09164 0.3520889,0.192925 0.1663981,0.101286 0.2917996,0.224276 0.1254015,0.12299 0.1977486,0.272507 0.074758,0.149517 0.074758,0.342443 0,0.255626 -0.1012858,0.434082 -0.098874,0.176044 -0.2700955,0.286976 -0.1688097,0.110932 -0.3906739,0.159164 -0.2218642,0.05064 -0.4678441,0.05064 -0.081993,0 -0.2025717,-0.01447 -0.1205783,-0.01206 -0.2459798,-0.03859 -0.1254016,-0.02411 -0.2387452,-0.06029 -0.1109321,-0.03858 -0.178456,-0.08441 z"
         style="font-weight:normal;-inkscape-font-specification:'Segoe UI'"
         id="path6489" />
      <path
         d="m 10.402405,27.060166 q -0.106109,0 -0.180868,-0.07235 -0.07476,-0.07235 -0.07476,-0.18328 0,-0.110932 0.07476,-0.183279 0.07476,-0.07476 0.180868,-0.07476 0.10852,0 0.183279,0.07476 0.07717,0.07235 0.07717,0.183279 0,0.106109 -0.07717,0.180868 -0.07476,0.07476 -0.183279,0.07476 z m 0.192925,3.096452 h -0.395497 v -2.469445 h 0.395497 z"
         style="font-weight:normal;-inkscape-font-specification:'Segoe UI'"
         id="path6491" />
      <path
         d="m 13.11783,27.800517 -1.46141,2.018482 h 1.44694 v 0.337619 h -2.028128 v -0.12299 l 1.46141,-2.008835 h -1.32395 v -0.33762 h 1.905138 z"
         style="font-weight:normal;-inkscape-font-specification:'Segoe UI'"
         id="path6493" />
      <path
         d="m 15.613802,29.02077 h -1.743563 q 0.0096,0.412378 0.221864,0.636654 0.212218,0.224275 0.583599,0.224275 0.417201,0 0.766879,-0.274918 v 0.371381 q -0.325562,0.236334 -0.86093,0.236334 -0.52331,0 -0.822345,-0.335208 -0.299034,-0.33762 -0.299034,-0.947746 0,-0.576365 0.325562,-0.9381 0.327973,-0.364146 0.812698,-0.364146 0.484725,0 0.749997,0.313503 0.265273,0.313504 0.265273,0.870576 z m -0.405144,-0.335208 q -0.0024,-0.342443 -0.166398,-0.532956 -0.161575,-0.190514 -0.450963,-0.190514 -0.279742,0 -0.475079,0.20016 -0.195336,0.20016 -0.241156,0.52331 z"
         style="font-weight:normal;-inkscape-font-specification:'Segoe UI'"
         id="path6495" />
    </g>
    <g
       aria-label="Feedback"
       id="text4660-8-2"
       style="font-weight:bold;font-size:4.93889px;font-family:'Segoe UI';-inkscape-font-specification:'Segoe UI Bold';stroke-width:0.264583">
      <path
         d="m 29.224407,26.789282 h -1.350478 v 1.196137 h 1.249192 v 0.364147 h -1.249192 v 1.531345 h -0.405143 v -3.458188 h 1.755621 z"
         style="font-weight:normal;-inkscape-font-specification:'Segoe UI'"
         id="path6498" />
      <path
         d="m 31.812019,28.745063 h -1.743563 q 0.0096,0.412378 0.221864,0.636653 0.212218,0.224276 0.583599,0.224276 0.417201,0 0.766879,-0.274918 v 0.371381 q -0.325562,0.236333 -0.86093,0.236333 -0.52331,0 -0.822344,-0.335207 -0.299035,-0.33762 -0.299035,-0.947746 0,-0.576365 0.325562,-0.9381 0.327973,-0.364147 0.812698,-0.364147 0.484725,0 0.749998,0.313504 0.265272,0.313504 0.265272,0.870576 z m -0.405143,-0.335208 q -0.0024,-0.342443 -0.166399,-0.532957 -0.161575,-0.190513 -0.450963,-0.190513 -0.279741,0 -0.475078,0.20016 -0.195337,0.20016 -0.241157,0.52331 z"
         style="font-weight:normal;-inkscape-font-specification:'Segoe UI'"
         id="path6500" />
      <path
         d="m 34.394808,28.745063 h -1.743564 q 0.0096,0.412378 0.221865,0.636653 0.212218,0.224276 0.583599,0.224276 0.417201,0 0.766878,-0.274918 v 0.371381 q -0.325561,0.236333 -0.860929,0.236333 -0.52331,0 -0.822345,-0.335207 -0.299034,-0.33762 -0.299034,-0.947746 0,-0.576365 0.325562,-0.9381 0.327973,-0.364147 0.812698,-0.364147 0.484725,0 0.749997,0.313504 0.265273,0.313504 0.265273,0.870576 z m -0.405144,-0.335208 q -0.0024,-0.342443 -0.166398,-0.532957 -0.161575,-0.190513 -0.450963,-0.190513 -0.279742,0 -0.475079,0.20016 -0.195337,0.20016 -0.241156,0.52331 z"
         style="font-weight:normal;-inkscape-font-specification:'Segoe UI'"
         id="path6502" />
      <path
         d="m 37.100586,29.880911 h -0.395497 v -0.419613 h -0.0096 q -0.274919,0.47749 -0.848872,0.47749 -0.465432,0 -0.745174,-0.330384 -0.277331,-0.332797 -0.277331,-0.904338 0,-0.612538 0.308681,-0.981508 0.308681,-0.36897 0.822345,-0.36897 0.50884,0 0.740351,0.40032 h 0.0096 v -1.528933 h 0.395497 z m -0.395497,-1.116556 v -0.364146 q 0,-0.299035 -0.197749,-0.50643 -0.197748,-0.207394 -0.501606,-0.207394 -0.361735,0 -0.569129,0.265272 -0.207395,0.265272 -0.207395,0.733116 0,0.426848 0.197748,0.675239 0.20016,0.24598 0.535368,0.24598 0.330385,0 0.535368,-0.238745 0.207395,-0.238745 0.207395,-0.602892 z"
         style="font-weight:normal;-inkscape-font-specification:'Segoe UI'"
         id="path6504" />
      <path
         d="m 38.306369,29.523999 h -0.0096 v 0.356912 h -0.395497 v -3.655936 h 0.395497 v 1.620573 h 0.0096 q 0.2918,-0.49196 0.853695,-0.49196 0.475079,0 0.742763,0.332797 0.270096,0.330384 0.270096,0.887456 0,0.619773 -0.301446,0.993566 -0.301446,0.371381 -0.824756,0.371381 -0.489548,0 -0.740352,-0.414789 z m -0.0096,-0.995977 v 0.344854 q 0,0.306269 0.197749,0.520898 0.20016,0.212218 0.506429,0.212218 0.359323,0 0.561895,-0.274918 0.204983,-0.274919 0.204983,-0.764467 0,-0.412378 -0.190514,-0.6463 -0.190513,-0.233922 -0.516075,-0.233922 -0.344854,0 -0.55466,0.241156 -0.209807,0.238745 -0.209807,0.600481 z"
         style="font-weight:normal;-inkscape-font-specification:'Segoe UI'"
         id="path6506" />
      <path
         d="M 42.572432,29.880911 H 42.176935 V 29.49506 h -0.0096 q -0.258038,0.443728 -0.759644,0.443728 -0.36897,0 -0.578776,-0.195336 -0.207395,-0.195337 -0.207395,-0.518487 0,-0.69212 0.81511,-0.805464 l 0.740351,-0.103697 q 0,-0.629419 -0.50884,-0.629419 -0.44614,0 -0.805464,0.303857 v -0.405143 q 0.364147,-0.231511 0.839225,-0.231511 0.870576,0 0.870576,0.921219 z m -0.395497,-1.249192 -0.595657,0.08199 q -0.274919,0.03858 -0.414789,0.13746 -0.139871,0.09646 -0.139871,0.344854 0,0.180867 0.127813,0.296623 0.130224,0.113343 0.344854,0.113343 0.294211,0 0.484725,-0.204983 0.192925,-0.207395 0.192925,-0.52331 z"
         style="font-weight:normal;-inkscape-font-specification:'Segoe UI'"
         id="path6508" />
      <path
         d="m 45.000881,29.767567 q -0.284565,0.171221 -0.675239,0.171221 -0.528133,0 -0.853695,-0.342442 -0.32315,-0.344854 -0.32315,-0.89228 0,-0.610127 0.349678,-0.979096 0.349677,-0.371382 0.933276,-0.371382 0.325562,0 0.573953,0.120579 v 0.405143 q -0.274918,-0.192925 -0.588422,-0.192925 -0.378616,0 -0.622185,0.272507 -0.241156,0.270095 -0.241156,0.711412 0,0.434082 0.226687,0.684885 0.229099,0.250803 0.612538,0.250803 0.32315,0 0.607715,-0.214629 z"
         style="font-weight:normal;-inkscape-font-specification:'Segoe UI'"
         id="path6510" />
      <path
         d="M 47.648782,29.880911 H 47.094121 L 46.004093,28.69442 h -0.0096 v 1.186491 H 45.59895 v -3.655936 h 0.395497 v 2.317516 h 0.0096 l 1.036974,-1.131025 h 0.518487 l -1.145495,1.191314 z"
         style="font-weight:normal;-inkscape-font-specification:'Segoe UI'"
         id="path6512" />
    </g>
    <g
       aria-label="Filter"
       id="text4660-8-0"
       style="font-weight:bold;font-size:4.93889px;font-family:'Segoe UI';-inkscape-font-specification:'Segoe UI Bold';stroke-width:0.264583">
      <path
         d="M 9.1318034,45.654003 H 7.7813257 v 1.196137 h 1.2491919 v 0.364147 H 7.7813257 v 1.531345 H 7.3761824 v -3.458187 h 1.755621 z"
         style="font-weight:normal;-inkscape-font-specification:'Segoe UI'"
         id="path6515" />
      <path
         d="m 9.937267,45.64918 q -0.106109,0 -0.1808676,-0.07235 -0.074759,-0.07235 -0.074759,-0.183279 0,-0.110933 0.074759,-0.18328 0.074759,-0.07476 0.1808676,-0.07476 0.108521,0 0.183279,0.07476 0.07717,0.07235 0.07717,0.18328 0,0.106108 -0.07717,0.180867 -0.07476,0.07476 -0.183279,0.07476 z m 0.192925,3.096452 H 9.7346953 v -2.469445 h 0.3954967 z"
         style="font-weight:normal;-inkscape-font-specification:'Segoe UI'"
         id="path6517" />
      <path
         d="M 11.32633,48.745632 H 10.930833 V 45.089696 H 11.32633 Z"
         style="font-weight:normal;-inkscape-font-specification:'Segoe UI'"
         id="path6519" />
      <path
         d="m 13.272465,48.721516 q -0.139871,0.07717 -0.36897,0.07717 -0.648712,0 -0.648712,-0.723471 v -1.461409 h -0.424435 v -0.33762 h 0.424435 v -0.602892 l 0.395498,-0.127813 v 0.730705 h 0.622184 v 0.33762 h -0.622184 v 1.391474 q 0,0.248391 0.0844,0.3545 0.0844,0.106109 0.279742,0.106109 0.149517,0 0.258038,-0.08199 z"
         style="font-weight:normal;-inkscape-font-specification:'Segoe UI'"
         id="path6521" />
      <path
         d="m 15.785318,47.609784 h -1.743563 q 0.0096,0.412378 0.221864,0.636654 0.212218,0.224275 0.583599,0.224275 0.417201,0 0.766878,-0.274918 v 0.371381 q -0.325561,0.236334 -0.860929,0.236334 -0.52331,0 -0.822345,-0.335208 -0.299034,-0.33762 -0.299034,-0.947746 0,-0.576365 0.325562,-0.9381 0.327973,-0.364146 0.812698,-0.364146 0.484725,0 0.749997,0.313503 0.265273,0.313504 0.265273,0.870576 z m -0.405144,-0.335208 q -0.0024,-0.342442 -0.166398,-0.532956 -0.161575,-0.190514 -0.450963,-0.190514 -0.279742,0 -0.475079,0.20016 -0.195337,0.20016 -0.241156,0.52331 z"
         style="font-weight:normal;-inkscape-font-specification:'Segoe UI'"
         id="path6523" />
      <path
         d="m 17.671164,46.676507 q -0.103698,-0.07958 -0.299035,-0.07958 -0.253214,0 -0.424435,0.238745 -0.16881,0.238745 -0.16881,0.651123 v 1.258838 h -0.395497 v -2.469445 h 0.395497 v 0.508841 h 0.0096 q 0.0844,-0.260449 0.258038,-0.405143 0.173633,-0.147106 0.388262,-0.147106 0.15434,0 0.236334,0.03376 z"
         style="font-weight:normal;-inkscape-font-specification:'Segoe UI'"
         id="path6525" />
    </g>
    <g
       aria-label="Mix"
       id="text4795"
       style="font-size:4.9389px;font-family:'Segoe UI';-inkscape-font-specification:'Segoe UI';stroke-width:0.264583">
      <path
         d="m 39.874774,48.309017 h -0.402733 v -2.319932 q 0,-0.27492 0.03376,-0.672829 h -0.0096 q -0.05788,0.233923 -0.103698,0.335209 l -1.18167,2.657552 H 38.01304 l -1.179259,-2.63826 q -0.05064,-0.115755 -0.103698,-0.354501 h -0.0096 q 0.01929,0.207395 0.01929,0.677652 v 2.315109 h -0.390675 v -3.458194 h 0.535369 l 1.061092,2.411572 q 0.12299,0.277331 0.159164,0.41479 h 0.01447 q 0.103698,-0.284565 0.166399,-0.424436 l 1.082796,-2.401926 h 0.50643 z"
         id="path6528" />
      <path
         d="m 40.933454,45.212558 q -0.106109,0 -0.180868,-0.07235 -0.07476,-0.07235 -0.07476,-0.183279 0,-0.110933 0.07476,-0.18328 0.07476,-0.07476 0.180868,-0.07476 0.108521,0 0.183279,0.07476 0.07717,0.07235 0.07717,0.18328 0,0.106109 -0.07717,0.180868 -0.07476,0.07476 -0.183279,0.07476 z m 0.192926,3.096459 h -0.395498 v -2.46945 h 0.395498 z"
         id="path6530" />
      <path
         d="m 43.730878,45.839567 -0.829581,1.249195 0.815111,1.220255 h -0.46061 l -0.484726,-0.800642 q -0.04582,-0.07476 -0.108521,-0.188102 h -0.0096 q -0.01206,0.0217 -0.113344,0.188102 l -0.494372,0.800642 h -0.455788 l 0.841639,-1.210609 -0.805465,-1.258841 h 0.46061 l 0.477492,0.84405 q 0.05305,0.09405 0.103697,0.192926 h 0.0096 l 0.617363,-1.036976 z"
         id="path6532" />
    </g>
    <rect
       style="fill:#000000;stroke:none;stroke-width:0;stroke-dasharray:none"
       id="rect5959"
       width="23.218121"
       height="9.0416718"
       x="25.514503"
       y="107.58221" />
  </g>
  <g
     inkscape:groupmode="layer"
     id="layer2"
     inkscape:label="holes"
     style="fill:#280b0b">
    <circle
       style="fill:#280b0b;stroke-width:0.264583"
       id="path13614"
       cx="7.5"
       cy="3.0000024"
       r="1.6" />
    <circle
       style="fill:#280b0b;stroke-width:0.264583"
       id="circle13616"
       cx="43.060001"
       cy="3.0000024"
       r="1.6" />
    <circle
       style="fill:#280b0b;stroke-width:0.264583"
       id="circle13645"
       cx="7.5"
       cy="125.5"
       r="1.6"
       inkscape:label="circle13645" />
    <circle
       style="fill:#280b0b;stroke-width:0.264583"
       id="circle13647"
       cx="43.060001"
       cy="125.5"
       r="1.6" />
  </g>
  <metadata
     id="metadata13212">
    <rdf:RDF>
      <cc:Work
         rdf:about="">
        <dc:title>SVG Image created as ES_Daisy_Patch_SM_FB_Rev1-brd.svg date 2024/04/30 13:34:42 </dc:title>
      </cc:Work>
    </rdf:RDF>
  </metadata>
  <g
     inkscape:groupmode="layer"
     id="layer3"
     inkscape:label="components"
     style="display:none">
    <circle
       style="display:inline;fill:#ff0000;stroke-width:0.264583"
       id="path13156-4-8-0-1"
       cx="39.53883"
       cy="55.794468"
       r="4.5999999"
       inkscape:label="mix" />
    <circle
       style="fill:#ff0000;stroke-width:0.264583"
       id="circle13473"
       cx="39.53883"
       cy="36.47707"
       r="4.5999999"
       inkscape:label="feedback" />
    <circle
       style="fill:#ff0000;stroke-width:0.264583"
       id="circle13475"
       cx="11.164899"
       cy="36.47707"
       r="4.5999999"
       inkscape:label="size" />
    <circle
       style="fill:#ff0000;stroke-width:0.264583"
       id="circle13475-1"
       cx="11.050932"
       cy="55.626347"
       r="4.5999999"
       inkscape:label="filter" />
    <circle
       style="fill:#ff0000;stroke-width:0.264583"
       id="path13156-4-8-0-1-0"
       cx="6.6975384"
       cy="85.281937"
       r="4.5999999"
       inkscape:label="size amt" />
    <circle
       style="fill:#ff0000;stroke-width:0.264583"
       id="path13156-4-8-0-1-3"
       cx="18.976347"
       cy="85.505196"
       r="4.5999999"
       inkscape:label="filter amt" />
    <circle
       style="fill:#ff0000;stroke-width:0.264583"
       id="path13156-4-8-0-1-7"
       cx="31.03191"
       cy="85.505188"
       r="4.5999999"
       inkscape:label="mix amt" />
    <circle
       style="fill:#ff0000;stroke-width:0.264583"
       id="path13156-4-8-0-1-9"
       cx="43.533974"
       cy="85.281944"
       r="4.5999999"
       inkscape:label="feedback amt" />
    <circle
       style="fill:#00ff00;stroke-width:0.264583"
       id="path13156-4-1"
       cx="7.0430331"
       cy="98.300003"
       r="3.05"
       inkscape:label="size in" />
    <circle
       style="fill:#00ff00;stroke-width:0.264583"
       id="path13156-4-89"
       cx="19.221701"
       cy="98.300003"
       r="3.05"
       inkscape:label="filter in" />
    <circle
       style="fill:#00ff00;stroke-width:0.264583"
       id="path13156-4-3"
       cx="31.3883"
       cy="98.300003"
       r="3.05"
       inkscape:label="mix in" />
    <circle
       style="fill:#00ff00;stroke-width:0.264583"
       id="path13156-4-31"
       cx="43.590599"
       cy="98.300003"
       r="3.05"
       inkscape:label="feedback in" />
    <circle
       style="fill:#00ff00;stroke-width:0.264583"
       id="path13156-4-873"
       cx="7.0439939"
       cy="111.95"
       r="3.05"
       inkscape:label="audio in" />
    <circle
       style="fill:#0000ff;stroke-width:0.264583"
       id="path13156-4-87"
       cx="43.555"
       cy="111.95"
       r="3.05"
       inkscape:label="audio R" />
    <circle
       style="fill:#0000ff;stroke-width:0.264583"
       id="path13156-4-2"
       cx="31.3883"
       cy="111.95"
       r="3.05"
       inkscape:label="audio L" />
  </g>
</svg>
