<?xml version="1.0" encoding="UTF-8" standalone="no"?>
<svg
   version="1.1"
   width="71.120003mm"
   height="128.5mm"
   viewBox="0 0 71.120003 128.5"
   id="svg8664"
   sodipodi:docname="snecho.svg"
   inkscape:version="1.2.2 (732a01da63, 2022-12-09)"
   xmlns:inkscape="http://www.inkscape.org/namespaces/inkscape"
   xmlns:sodipodi="http://sodipodi.sourceforge.net/DTD/sodipodi-0.dtd"
   xmlns="http://www.w3.org/2000/svg"
   xmlns:svg="http://www.w3.org/2000/svg"
   xmlns:rdf="http://www.w3.org/1999/02/22-rdf-syntax-ns#"
   xmlns:cc="http://creativecommons.org/ns#"
   xmlns:dc="http://purl.org/dc/elements/1.1/">
  <defs
     id="defs8668" />
  <sodipodi:namedview
     id="namedview8666"
     pagecolor="#ffffff"
     bordercolor="#000000"
     borderopacity="0.25"
     inkscape:showpageshadow="2"
     inkscape:pageopacity="0.0"
     inkscape:pagecheckerboard="0"
     inkscape:deskcolor="#d1d1d1"
     inkscape:document-units="mm"
     showgrid="false"
     showguides="true"
     inkscape:zoom="2.3702752"
     inkscape:cx="192.80462"
     inkscape:cy="149.77164"
     inkscape:window-width="1920"
     inkscape:window-height="1017"
     inkscape:window-x="-8"
     inkscape:window-y="-8"
     inkscape:window-maximized="1"
     inkscape:current-layer="layer4">
    <inkscape:grid
       type="xygrid"
       id="grid13701"
       originx="0"
       originy="0" />
  </sodipodi:namedview>
  <title
     id="title2">SVG Image created as ES_Daisy_Patch_SM_FB_Rev1-brd.svg date 2024/04/30 13:34:42 </title>
  <desc
     id="desc4">Image generated by PCBNEW </desc>
  <g
     style="display:none;fill:#000000;fill-opacity:1;stroke:#000000;stroke-linecap:round;stroke-linejoin:round;stroke-opacity:1"
     id="g6" />
  <g
     inkscape:groupmode="layer"
     id="layer2"
     inkscape:label="holes"
     style="display:inline;fill:#280b0b"
     sodipodi:insensitive="true">
    <g
       inkscape:label="EuroPanel"
       id="g721">
      <rect
         style="fill:#e6e6e6;stroke:none;stroke-width:0mm"
         height="128.5"
         width="70.760002"
         x="0"
         y="0"
         rx="0"
         ry="0"
         id="rect711" />
      <rect
         style="fill:#ffffff;stroke:none;stroke-width:0mm"
         height="3.2"
         width="5.5"
         x="4.75"
         y="123.9"
         rx="1.6"
         ry="0"
         id="rect713" />
      <rect
         style="fill:#ffffff;stroke:none;stroke-width:0mm"
         height="3.2"
         width="5.5"
         x="4.75"
         y="1.4"
         rx="1.6"
         ry="0"
         id="rect715" />
      <rect
         style="fill:#ffffff;stroke:none;stroke-width:0mm"
         height="3.2"
         width="5.5"
         x="60.630001"
         y="123.9"
         rx="1.6"
         ry="0"
         id="rect717" />
      <rect
         style="fill:#ffffff;stroke:none;stroke-width:0mm"
         height="3.2"
         width="5.5"
         x="60.630001"
         y="1.4"
         rx="1.6"
         ry="0"
         id="rect719" />
    </g>
  </g>
  <g
     inkscape:groupmode="layer"
     id="layer1"
     inkscape:label="bg"
     style="display:inline">
    <rect
       style="display:inline;fill:#000000;stroke:none;stroke-width:0;stroke-dasharray:none"
       id="rect5959"
       width="23.218121"
       height="9.0416718"
       x="41.899002"
       y="111.60073" />
    <path
       style="fill:#000000;stroke:none;stroke-width:0.264583"
       id="path610"
       d="m 21.2842,59.442016 c 0.04913,1.197885 0.08018,2.397384 0.06852,3.596312 -0.0351,0.191267 0.03167,0.739923 -0.164773,0.899662 -0.02592,0.02109 -0.06713,7.94e-4 -0.09999,0.0067 -0.09692,0.01762 -0.191306,0.04811 -0.288527,0.06402 -0.203853,0.03336 -0.409346,0.05577 -0.614018,0.08366 -0.38841,0.02191 -0.776533,0.04966 -1.165228,0.06573 -0.665714,0.02752 -2.497812,0.06814 -3.133884,0.08556 -1.380762,0.03781 -2.761287,0.08455 -4.141825,0.129638 -1.014408,0.03055 -2.028565,0.07198 -3.0432942,0.09097 -0.3687095,5.29e-4 -0.7354784,-2.65e-4 -1.1025137,0.03771 -0.3184379,0.04339 -0.6503506,0.01773 -0.9297693,0.208494 -0.083282,0.05686 -0.1453108,0.139853 -0.2179659,0.20978 -0.059112,0.09803 -0.1264073,0.191577 -0.1773354,0.294103 -0.2316168,0.466273 -0.360068,1.015934 -0.4836731,1.516385 -0.2235629,0.905164 -0.3168097,1.414465 -0.510268,2.358237 -0.3778957,1.968047 -0.73791,3.948893 -0.8662628,5.952027 -0.074011,1.155049 -0.052801,1.665726 -0.047222,2.80448 0.056101,1.751121 0.2123461,3.496614 0.314896,5.245232 0.054527,0.404918 -0.047693,1.27943 0.2217332,1.61091 0.329696,0.405633 0.5461217,0.392094 1.0087605,0.522018 0.1850596,0.024 0.369438,0.05402 0.5551789,0.07201 0.2174118,0.02106 0.9077116,0.0545 1.1327011,0.06909 0.4540385,0.02943 0.9023765,0.08026 1.3534493,0.137848 0.7014284,0.08943 0.8279058,-0.902536 0.1264774,-0.991971 v 0 c -0.4743339,-0.0604 -0.9462127,-0.113331 -1.423611,-0.14429 -0.1696103,-0.01101 -0.8882348,-0.04766 -1.0663618,-0.06312 -0.1474168,-0.01281 -0.2939751,-0.03407 -0.4409625,-0.0511 -0.093289,-0.01611 -0.1865781,-0.0322 -0.2798673,-0.0483 -0.021238,0.02207 -0.033504,0.06115 -0.063711,0.0662 -0.024402,0.0041 -0.052469,-0.02177 -0.058405,-0.0458 -0.022998,-0.09306 -0.018,-0.190918 -0.023741,-0.286608 -0.0181,-0.301617 -0.019476,-0.604104 -0.043356,-0.905441 C 5.5777883,81.30125 5.4238969,79.573455 5.366159,77.840223 5.360099,76.747978 5.339294,76.23753 5.409292,75.13145 c 0.1244277,-1.966153 0.479792,-3.910168 0.8500173,-5.841815 0.2543183,-1.24207 0.4712703,-2.509927 0.9315249,-3.696708 -2.91e-4,-0.0097 0.00794,-0.02508 -8.996e-4,-0.02896 -0.020135,-0.0088 -0.083786,0.01252 -0.065947,-2.64e-4 0.092994,-0.06696 0.4565978,-0.01836 0.5790461,-0.06717 0.3384021,-0.0361 0.6768333,-0.02956 1.0168909,-0.03242 1.0193644,-0.01913 2.0381604,-0.06052 3.0572014,-0.09133 1.378016,-0.045 2.756019,-0.09167 4.134259,-0.129418 0.600565,-0.01646 2.539879,-0.05976 3.166825,-0.08693 0.418288,-0.01812 0.835873,-0.0499 1.25381,-0.07485 0.456198,-0.0719 0.959691,-0.09631 1.370488,-0.347991 0.604408,-0.370305 0.629519,-1.057817 0.65018,-1.685734 0.01147,-1.24338 -0.0172,-2.487859 -0.0762,-3.729818 -0.08771,-0.701646 -1.079984,-0.577612 -0.992278,0.124034 z" />
    <path
       style="fill:#000000;stroke:none;stroke-width:0.264583"
       id="path612"
       d="m 33.545801,75.204126 c -0.0036,0.717402 0.02212,1.435058 -0.04318,2.150263 -0.01781,0.07133 -0.01992,0.148537 -0.05339,0.213993 -0.01995,0.03899 -0.172024,0.02183 -0.179872,0.02297 -0.121949,0.01765 -0.241218,0.05101 -0.362934,0.07021 -0.627544,0.09897 -0.76377,0.09853 -1.436732,0.158899 -1.347724,0.08235 -2.695152,0.171037 -4.043895,0.235325 -0.456871,0.0061 -0.908634,0.07792 -1.363398,0.113358 -0.382693,0.0172 -0.761376,-0.0019 -1.022459,0.350039 -0.08191,0.110439 -0.109831,0.252111 -0.164746,0.378166 -0.06281,0.635474 -0.04844,0.320575 -0.04537,0.9446 0.0055,0.707083 1.005461,0.69932 0.99997,-0.0078 v 0 c -0.0052,-0.467074 -0.0035,-0.26012 -0.0058,-0.62085 -0.04798,-0.08783 0.0026,-0.02936 -0.140692,-0.0091 -0.01126,0.0016 -0.04226,-0.01233 -0.03104,-0.01416 0.159431,-0.02598 0.328661,0.0055 0.488296,-0.02402 0.444618,-0.03502 0.886324,-0.10428 1.332906,-0.11144 1.362917,-0.06503 2.724526,-0.154331 4.086368,-0.238257 0.499843,-0.04558 1.078487,-0.08354 1.576247,-0.181552 0.398793,-0.07852 0.751483,-0.15412 1.051965,-0.451879 0.243136,-0.240937 0.246338,-0.439603 0.31069,-0.740103 0.06457,-0.744977 0.04717,-1.491567 0.0471,-2.238722 0,-0.707107 -1,-0.707107 -1,0 z" />
    <path
       style="fill:#000000;stroke:none;stroke-width:0.264583"
       id="path620"
       d="m 52.517518,79.580488 c 0.07579,-0.902846 0.134234,-1.806395 0.171858,-2.711731 0.03322,-0.886851 0.04675,-1.774248 0.05165,-2.661653 0.0024,-0.794152 0.0011,-1.588309 5.29e-4,-2.382464 -5.29e-4,-0.902266 -7.94e-4,-1.804535 -7.94e-4,-2.706804 0.0044,-0.967237 0.0096,-1.933424 -0.04603,-2.899304 -0.06053,-1.098375 -0.150805,-2.194433 -0.25893,-3.289035 -0.07771,-0.693161 -0.11766,-1.388933 -0.134564,-2.085928 -0.0076,-0.361463 -0.0084,-0.723008 -0.0091,-1.084532 -0.0013,-0.707107 -1.001292,-0.705276 -0.999998,0.0019 v 0 c 7.94e-4,0.369041 0.0016,0.738106 0.0094,1.107086 0.0177,0.721672 0.05891,1.442124 0.139113,2.159854 0.10682,1.081185 0.196061,2.163794 0.255767,3.248713 0.05545,0.946549 0.04766,1.893522 0.04435,2.841424 9.8e-5,0.902419 2.65e-4,1.804839 7.94e-4,2.707261 5.29e-4,0.792129 0.0019,1.584262 -5.29e-4,2.376387 -0.0048,0.875422 -0.01812,1.750836 -0.05081,2.625712 -0.03807,0.91921 -0.101914,1.836142 -0.172717,2.753183 0,0.707107 1.000001,0.707107 1.000001,0 z" />
    <path
       style="fill:#000000;stroke:none;stroke-width:0.264583"
       id="path622"
       d="m 41.533259,41.913087 c 0.657868,0.03411 1.311418,0.146066 1.950514,0.302723 0.621519,0.210135 0.636124,0.42894 0.815771,1.02394 0.267944,1.183259 0.318527,2.399239 0.368065,3.606964 0.05037,1.26923 0.06343,2.537857 -0.04887,3.80369 -0.06603,0.807323 -0.193193,1.607357 -0.284913,2.411685 -0.05768,0.351322 -0.128289,0.699497 -0.161984,1.054198 -0.02891,0.488294 -0.02275,0.977974 -0.0232,1.466911 1.64e-4,0.802293 7.94e-4,1.604586 0.0011,2.40688 2.64e-4,0.870516 2.64e-4,1.741032 5.29e-4,2.611546 1.8e-5,0.936678 1e-5,1.873356 8e-6,2.810033 -0.0064,1.131663 -0.006,2.262336 0.04566,3.392962 0.07503,1.259871 0.12904,2.520508 0.157941,3.782242 -0.0042,0.951955 0.05192,1.90119 0.121541,2.85002 0.09165,0.96832 0.183314,1.936806 0.287957,2.903813 0.09045,0.711999 0.132667,1.42834 0.156369,2.145239 -0.0026,0.526947 0.05172,1.051017 0.08188,1.576528 0.02532,0.651094 0.03645,1.301887 0.07306,1.952511 -0.02024,0.253751 0.09138,0.601599 -0.0046,0.850733 -1.6e-5,4e-5 -0.164711,0.04424 -0.202078,0.05854 -0.06567,-0.01265 -0.03689,-0.0016 -0.08775,-0.02928 -0.705863,-0.04193 -0.765159,0.956313 -0.0593,0.998241 v 0 c 0.4068,5.29e-4 0.200539,0.02619 0.617474,-0.08652 0.23675,-0.138242 0.386065,-0.193546 0.551114,-0.436973 0.287094,-0.423426 0.207502,-0.933013 0.183536,-1.410938 -0.03666,-0.651034 -0.04683,-1.302282 -0.07313,-1.953768 -0.02987,-0.517446 -0.08361,-1.033367 -0.08078,-1.552236 -0.02471,-0.741794 -0.06845,-1.483024 -0.161637,-2.219794 -0.103666,-0.955481 -0.193656,-1.912519 -0.284821,-2.869268 -0.0684,-0.932111 -0.123722,-1.864556 -0.119123,-2.799763 -0.02913,-1.269389 -0.08319,-2.53769 -0.158732,-3.805206 -0.05148,-1.115316 -0.0504,-2.23072 -0.0446,-3.347074 5e-6,-0.936691 1.3e-5,-1.873382 -6e-6,-2.810073 -3.1e-5,-0.870638 -7.9e-5,-1.741276 -5.29e-4,-2.611917 -2.64e-4,-0.801862 -0.0011,-1.603724 -0.0011,-2.405586 5.29e-4,-0.458269 -0.0048,-0.917117 0.01886,-1.37492 0.03171,-0.348044 0.109828,-0.688364 0.159887,-1.033974 0.09235,-0.812805 0.221433,-1.621202 0.287478,-2.437077 0.114422,-1.308785 0.105484,-2.620242 0.05188,-3.932491 -0.05337,-1.29435 -0.10972,-2.598518 -0.412562,-3.863583 -0.308677,-0.96642 -0.532168,-1.373439 -1.534965,-1.698112 -0.716851,-0.171945 -1.448088,-0.30117 -2.185977,-0.330838 -0.707107,0 -0.707107,0.999998 0,0.999998 z" />
    <path
       style="fill:#000000;stroke:none;stroke-width:0.264583"
       id="path624"
       d="m 12.858839,117.26035 c 0.456211,-0.004 0.912005,0.0261 1.367393,0.0499 0.706149,0.0368 0.758176,-0.96185 0.05203,-0.99864 v 0 c -0.472714,-0.0246 -0.945852,-0.0557 -1.41942,-0.0512 -0.707107,0 -0.707107,1 0,1 z" />
    <path
       style="fill:#000000;stroke:none;stroke-width:0.264583"
       id="path626"
       d="m 13.443154,116.06441 c 0.399765,0.35927 0.76575,0.75832 1.083853,1.19142 0.04389,0.0697 0.176355,0.23581 0.169316,0.34857 -0.0025,0.0409 -0.0774,0.0278 -0.113546,0.047 -0.09322,0.0498 -0.181445,0.10849 -0.274402,0.15874 -0.603241,0.36892 -0.08151,1.22202 0.521729,0.85311 v 0 c 0.254667,-0.16495 0.447565,-0.25498 0.623715,-0.52064 0.35097,-0.52931 0.21425,-1.00667 -0.1236,-1.48252 -0.350991,-0.46964 -0.742197,-0.91172 -1.179958,-1.30284 -0.5,-0.5 -1.207107,0.20711 -0.707107,0.70711 z" />
    <path
       style="fill:#000000;stroke:none;stroke-width:0.264583"
       id="path628"
       d="m 48.810446,122.48687 c 0.70987,0.56535 1.523228,0.96416 2.378689,1.25877 0.284306,0.0979 0.574728,0.17706 0.862092,0.26559 1.343859,0.3242 2.768119,0.61451 4.156067,0.63653 0.192265,0.003 0.384474,-0.009 0.57671,-0.0134 0.439732,-0.016 0.864711,-0.0664 1.259258,-0.27534 0.108593,-0.0575 0.203507,-0.13779 0.305257,-0.20668 0.575101,-0.41141 -0.0067,-1.22473 -0.581821,-0.81332 v 0 c -0.338653,0.27133 -0.568791,0.27433 -1.008261,0.29566 -0.167886,0.005 -0.335716,0.0163 -0.503655,0.0142 -0.510019,-0.006 -0.839423,-0.0455 -1.356662,-0.112 -0.85974,-0.11056 -1.715886,-0.25581 -2.553684,-0.4817 -1.041345,-0.3178 -2.083025,-0.66093 -2.933991,-1.36832 -0.565685,-0.42427 -1.165686,0.37574 -0.599999,0.8 z" />
    <path
       style="fill:#000000;stroke:none;stroke-width:0.264583"
       id="path630"
       d="m 58.095985,122.4866 c 0.426286,-0.0477 0.861216,-0.0681 1.27703,0.0493 0.04565,0.0431 0.06521,0.048 0.08088,0.10757 0.04348,0.16519 -0.02994,0.52106 -0.05208,0.6781 -0.07097,0.29423 -0.160308,0.58353 -0.246605,0.8735 -0.201655,0.67774 0.756817,0.96292 0.958472,0.28518 v 0 c 0.101288,-0.3405 0.207907,-0.67997 0.279609,-1.02839 0.07946,-0.6388 0.139168,-1.30977 -0.464344,-1.72889 -0.09381,-0.0652 -0.203652,-0.10347 -0.30548,-0.1552 -0.555887,-0.13616 -1.124759,-0.14797 -1.691881,-0.0676 -0.697484,0.11625 -0.533085,1.10265 0.164399,0.9864 z" />
    <path
       style="fill:#000000;stroke:none;stroke-width:0.264583"
       id="path632"
       d="m 8.6981166,83.955672 c 0.1905453,0.174109 0.589248,0.525349 0.5822755,0.802264 -8.996e-4,0.03532 -0.018949,0.06807 -0.028422,0.102103 -0.1968275,0.400442 -0.6292331,0.646136 -0.9906402,0.884394 -0.079094,0.05315 -0.1581872,0.106307 -0.2372807,0.159461 -0.5868741,0.394436 -0.029059,1.224399 0.557815,0.829966 v 0 c 0.077321,-0.05197 0.154642,-0.103944 0.2319631,-0.155913 0.5097322,-0.339437 1.106053,-0.715936 1.3411107,-1.312513 0.04775,-0.121185 0.06445,-0.252405 0.09667,-0.378609 -0.0048,-0.139901 0.01099,-0.282051 -0.01444,-0.419706 C 10.140658,83.944737 9.7246571,83.536315 9.3489059,83.196416 8.8120303,82.736237 8.161239,83.495493 8.6981145,83.955672 Z" />
    <path
       style="fill:#000000;stroke:none;stroke-width:0.264583"
       id="path634"
       d="m 23.730412,79.484068 c 0.211747,0.382328 0.401024,0.786543 0.717884,1.096423 0.06294,0.06156 0.134465,0.113689 0.201697,0.170532 0.545971,0.365339 1.131359,0.303435 1.734282,0.139808 0.290215,-0.09824 0.532621,-0.269158 0.772346,-0.452966 0.555702,-0.437261 -0.06268,-1.22314 -0.618379,-0.785882 v 0 c -0.133061,0.109506 -0.270647,0.210254 -0.430866,0.27795 -0.255493,0.08132 -0.56956,0.155515 -0.825802,0.04578 -0.329749,-0.248163 -0.485209,-0.636714 -0.682919,-0.987785 -0.350823,-0.613941 -1.219066,-0.117803 -0.868243,0.496139 z" />
    <path
       style="fill:#000000;stroke:none;stroke-width:0.264583"
       id="path638"
       d="m 43.712992,82.2659 c -0.312915,0.311049 -0.749475,0.733496 -0.864949,1.170297 -0.03374,0.127611 -0.02945,0.262345 -0.04418,0.393517 0.05624,0.148347 0.08196,0.312219 0.168722,0.445043 0.263482,0.403365 0.870688,0.603287 1.303737,0.747792 0.671967,0.220136 0.983284,-0.730171 0.311316,-0.950307 v 0 c -0.23278,-0.07436 -0.249385,-0.07231 -0.473434,-0.173614 -0.06455,-0.02919 -0.124958,-0.0672 -0.190207,-0.09478 -0.02522,-0.01066 -0.05481,-0.03047 -0.07985,-0.01937 -0.0254,0.01127 -0.02711,0.04854 -0.04067,0.0728 -0.01077,-0.0122 -0.03323,-0.02032 -0.03232,-0.03658 0.01238,-0.220361 0.409575,-0.605877 0.566523,-0.773941 0.552159,-0.441724 -0.07253,-1.222594 -0.624694,-0.780867 z" />
    <path
       style="fill:#000000;stroke:none;stroke-width:0.264583"
       id="path640"
       d="m 49.783872,78.376131 c 0.273521,0.664964 0.735166,1.221891 1.202365,1.758725 0.388541,0.390731 0.841954,0.826093 1.434198,0.826661 0.116609,1.14e-4 0.230785,-0.03361 0.346178,-0.05041 0.111421,-0.0505 0.228727,-0.08965 0.334266,-0.151511 0.174467,-0.102267 0.397383,-0.305525 0.549948,-0.439034 0.252822,-0.22125 0.495448,-0.452448 0.741762,-0.680823 0.518485,-0.480806 -0.161478,-1.214051 -0.679961,-0.733245 v 0 c -0.376785,0.349461 -0.746519,0.709012 -1.151612,1.025974 -0.268759,0.173673 -0.648296,-0.307152 -0.820979,-0.454712 -0.382023,-0.437455 -0.762666,-0.885706 -1.007483,-1.417852 -0.223607,-0.670819 -1.172289,-0.354592 -0.948682,0.31623 z" />
  </g>
  <g
     inkscape:groupmode="layer"
     id="layer4"
     inkscape:label="fg">
    <g
       aria-label="Filter 0Fh "
       id="text1062"
       style="font-size:3.52778px;font-family:'Segoe UI';-inkscape-font-specification:'Segoe UI';display:inline;fill:#ffff00;stroke-width:0.264583">
      <path
         d="M 18.880996,22.88568 H 17.91637 v 0.854384 h 0.892279 v 0.260105 H 17.91637 v 1.093818 h -0.289388 v -2.470134 h 1.254014 z"
         style="fill:#000000"
         id="path846" />
      <path
         d="m 19.456327,22.882235 q -0.07579,0 -0.129191,-0.05168 -0.0534,-0.05168 -0.0534,-0.130914 0,-0.07924 0.0534,-0.130913 0.0534,-0.0534 0.129191,-0.0534 0.07751,0 0.130914,0.0534 0.05512,0.05168 0.05512,0.130913 0,0.07579 -0.05512,0.129191 -0.0534,0.0534 -0.130914,0.0534 z m 0.137804,2.211752 h -0.282498 v -1.763889 h 0.282498 z"
         style="fill:#000000"
         id="path848" />
      <path
         d="m 20.448515,25.093987 h -0.282498 v -2.611383 h 0.282498 z"
         style="fill:#000000"
         id="path850" />
      <path
         d="m 21.838611,25.076761 q -0.09991,0.05512 -0.26355,0.05512 -0.463366,0 -0.463366,-0.516765 v -1.043864 h -0.303168 v -0.241156 h 0.303168 v -0.430637 l 0.282498,-0.09129 v 0.521932 h 0.444418 v 0.241156 h -0.444418 v 0.99391 q 0,0.177423 0.06029,0.253215 0.06029,0.07579 0.199816,0.07579 0.106798,0 0.184313,-0.05857 z"
         style="fill:#000000"
         id="path852" />
      <path
         d="m 23.633505,24.282667 h -1.245402 q 0.0069,0.294555 0.158474,0.454752 0.151585,0.160197 0.416857,0.160197 0.298001,0 0.54777,-0.19637 v 0.265272 q -0.232544,0.16881 -0.614949,0.16881 -0.373793,0 -0.587389,-0.239434 -0.213596,-0.241157 -0.213596,-0.676962 0,-0.411689 0.232544,-0.670071 0.234266,-0.260104 0.580499,-0.260104 0.346232,0 0.535712,0.223931 0.18948,0.223931 0.18948,0.621839 z m -0.289388,-0.239435 q -0.0017,-0.244601 -0.118856,-0.380683 -0.11541,-0.136081 -0.322116,-0.136081 -0.199816,0 -0.339342,0.142972 -0.139526,0.142971 -0.172255,0.373792 z"
         style="fill:#000000"
         id="path854" />
      <path
         d="m 24.980537,23.616041 q -0.07407,-0.05684 -0.213595,-0.05684 -0.180868,0 -0.303169,0.170532 -0.120578,0.170532 -0.120578,0.465088 v 0.89917 h -0.282498 v -1.763889 h 0.282498 v 0.363457 h 0.0069 q 0.06029,-0.186035 0.184313,-0.289388 0.124023,-0.105075 0.27733,-0.105075 0.110243,0 0.168809,0.02411 z"
         style="fill:#000000"
         id="path856" />
      <path
         d="m 27.724556,23.848585 q 0,0.310058 -0.05684,0.549492 -0.05512,0.239434 -0.16192,0.404799 -0.105075,0.163642 -0.260105,0.249769 -0.153306,0.08441 -0.349677,0.08441 -0.186035,0 -0.332452,-0.08096 -0.144694,-0.08268 -0.244601,-0.239434 -0.09991,-0.156752 -0.151585,-0.384128 -0.05168,-0.229099 -0.05168,-0.523654 0,-0.323839 0.0534,-0.571886 0.05512,-0.248047 0.160197,-0.415134 0.105075,-0.16881 0.260105,-0.253215 0.156752,-0.08613 0.35829,-0.08613 0.776869,0 0.776869,1.266073 z m -0.289388,0.02756 q 0,-1.054199 -0.501262,-1.054199 -0.528822,0 -0.528822,1.073147 0,1.000801 0.518487,1.000801 0.511597,0 0.511597,-1.019749 z"
         style="fill:#000000"
         id="path858" />
      <path
         d="m 29.447104,22.88568 h -0.964627 v 0.854384 h 0.89228 v 0.260105 h -0.89228 v 1.093818 h -0.289388 v -2.470134 h 1.254015 z"
         style="fill:#000000"
         id="path860" />
      <path
         d="m 31.341906,25.093987 h -0.282498 v -1.016304 q 0,-0.551215 -0.409966,-0.551215 -0.206706,0 -0.347955,0.160197 -0.141248,0.158474 -0.141248,0.408244 v 0.999078 h -0.282498 v -2.611383 h 0.282498 v 1.140327 h 0.0069 q 0.20326,-0.334174 0.578776,-0.334174 0.596001,0 0.596001,0.718302 z"
         style="fill:#000000"
         id="path862" />
    </g>
    <g
       aria-label="Feedback 0Dh"
       id="text1062-6"
       style="font-size:3.52778px;font-family:'Segoe UI';-inkscape-font-specification:'Segoe UI';display:inline;fill:#ffff00;stroke-width:0.264583">
      <path
         d="m 42.801655,33.601171 h -0.964627 v 0.854384 h 0.89228 v 0.260105 h -0.89228 v 1.093819 H 41.54764 v -2.470135 h 1.254015 z"
         style="fill:#000000"
         id="path865" />
      <path
         d="m 44.64995,34.998158 h -1.245403 q 0.0069,0.294556 0.158475,0.454753 0.151584,0.160197 0.416857,0.160197 0.298001,0 0.54777,-0.19637 v 0.265272 q -0.232544,0.16881 -0.61495,0.16881 -0.373793,0 -0.587389,-0.239434 -0.213596,-0.241157 -0.213596,-0.676962 0,-0.411689 0.232544,-0.670072 0.234267,-0.260104 0.580499,-0.260104 0.346233,0 0.535713,0.223931 0.18948,0.223931 0.18948,0.62184 z m -0.289388,-0.239434 q -0.0017,-0.244602 -0.118856,-0.380683 -0.115411,-0.136082 -0.322116,-0.136082 -0.199816,0 -0.339343,0.142972 -0.139526,0.142971 -0.172254,0.373793 z"
         style="fill:#000000"
         id="path867" />
      <path
         d="m 46.4948,34.998158 h -1.245403 q 0.0069,0.294556 0.158475,0.454753 0.151584,0.160197 0.416857,0.160197 0.298,0 0.54777,-0.19637 v 0.265272 q -0.232544,0.16881 -0.61495,0.16881 -0.373793,0 -0.587389,-0.239434 -0.213596,-0.241157 -0.213596,-0.676962 0,-0.411689 0.232544,-0.670072 0.234267,-0.260104 0.580499,-0.260104 0.346232,0 0.535713,0.223931 0.18948,0.223931 0.18948,0.62184 z m -0.289388,-0.239434 q -0.0017,-0.244602 -0.118856,-0.380683 -0.115411,-0.136082 -0.322117,-0.136082 -0.199815,0 -0.339342,0.142972 -0.139526,0.142971 -0.172255,0.373793 z"
         style="fill:#000000"
         id="path869" />
      <path
         d="m 48.4275,35.809479 h -0.282498 v -0.299724 h -0.0069 q -0.196371,0.341065 -0.606337,0.341065 -0.332452,0 -0.532268,-0.235989 -0.198093,-0.237712 -0.198093,-0.645956 0,-0.437527 0.220486,-0.701077 0.220486,-0.26355 0.587389,-0.26355 0.363458,0 0.528823,0.285943 h 0.0069 V 33.198095 H 48.4275 Z m -0.282498,-0.79754 v -0.260105 q 0,-0.213596 -0.141249,-0.361735 -0.141249,-0.14814 -0.35829,-0.14814 -0.258382,0 -0.406522,0.189481 -0.148139,0.18948 -0.148139,0.523655 0,0.304891 0.141249,0.482313 0.142972,0.1757 0.382406,0.1757 0.235989,0 0.382406,-0.170532 0.148139,-0.170532 0.148139,-0.430637 z"
         style="fill:#000000"
         id="path871" />
      <path
         d="m 49.288775,35.554542 h -0.0069 v 0.254937 h -0.282498 v -2.611384 h 0.282498 v 1.157553 h 0.0069 q 0.208428,-0.3514 0.609782,-0.3514 0.339342,0 0.530545,0.237711 0.192925,0.235989 0.192925,0.633898 0,0.442695 -0.215318,0.70969 -0.215319,0.265273 -0.589112,0.265273 -0.349677,0 -0.528822,-0.296278 z m -0.0069,-0.711413 v 0.246324 q 0,0.218764 0.141249,0.372071 0.142972,0.151584 0.361736,0.151584 0.256659,0 0.401354,-0.19637 0.146416,-0.196371 0.146416,-0.546048 0,-0.294556 -0.136081,-0.461643 -0.136082,-0.167088 -0.368626,-0.167088 -0.246324,0 -0.396186,0.172255 -0.149862,0.170533 -0.149862,0.428915 z"
         style="fill:#000000"
         id="path873" />
      <path
         d="m 52.335963,35.809479 h -0.282498 v -0.275608 h -0.0069 q -0.184313,0.316949 -0.542603,0.316949 -0.26355,0 -0.413412,-0.139527 -0.148139,-0.139526 -0.148139,-0.370348 0,-0.494371 0.582222,-0.575331 l 0.528822,-0.07407 q 0,-0.449586 -0.363458,-0.449586 -0.318671,0 -0.575331,0.217041 v -0.289388 q 0.260105,-0.165364 0.599447,-0.165364 0.62184,0 0.62184,0.658013 z m -0.282498,-0.892281 -0.425469,0.05857 q -0.196371,0.02756 -0.296279,0.09819 -0.09991,0.0689 -0.09991,0.246325 0,0.129191 0.0913,0.211873 0.09302,0.08096 0.246325,0.08096 0.210151,0 0.346232,-0.146416 0.137804,-0.14814 0.137804,-0.373794 z"
         style="fill:#000000"
         id="path875" />
      <path
         d="m 54.07057,35.728519 q -0.203261,0.122301 -0.482314,0.122301 -0.377238,0 -0.609782,-0.244602 -0.230822,-0.246324 -0.230822,-0.637343 0,-0.435805 0.24977,-0.699355 0.24977,-0.265272 0.666626,-0.265272 0.232545,0 0.409967,0.08613 v 0.289388 q -0.19637,-0.137804 -0.420302,-0.137804 -0.27044,0 -0.444417,0.194648 -0.172255,0.192926 -0.172255,0.508152 0,0.310059 0.161919,0.489204 0.163642,0.179145 0.437528,0.179145 0.230821,0 0.434082,-0.153307 z"
         style="fill:#000000"
         id="path877" />
      <path
         d="M 55.961928,35.809479 H 55.565742 L 54.78715,34.961985 h -0.0069 v 0.847494 h -0.282498 v -2.611384 h 0.282498 v 1.655369 h 0.0069 l 0.740696,-0.807875 h 0.370348 l -0.818211,0.850939 z"
         style="fill:#000000"
         id="path879" />
      <path
         d="m 58.688723,34.564076 q 0,0.310059 -0.05684,0.549493 -0.05512,0.239434 -0.161919,0.404799 -0.105076,0.163642 -0.260105,0.24977 -0.153307,0.0844 -0.349678,0.0844 -0.186035,0 -0.332452,-0.08096 -0.144694,-0.08268 -0.244601,-0.239435 -0.09991,-0.156752 -0.151585,-0.384128 -0.05168,-0.229099 -0.05168,-0.523655 0,-0.323839 0.0534,-0.571886 0.05512,-0.248047 0.160197,-0.415134 0.105075,-0.16881 0.260105,-0.253215 0.156752,-0.08613 0.35829,-0.08613 0.776869,0 0.776869,1.266073 z m -0.289388,0.02756 q 0,-1.0542 -0.501261,-1.0542 -0.528823,0 -0.528823,1.073148 0,1.000801 0.518487,1.000801 0.511597,0 0.511597,-1.019749 z"
         style="fill:#000000"
         id="path881" />
      <path
         d="m 59.157257,35.809479 v -2.470135 h 0.682129 q 1.305692,0 1.305692,1.204061 0,0.571887 -0.363457,0.919841 -0.361736,0.346233 -0.969795,0.346233 z m 0.289388,-2.208308 v 1.94648 h 0.368626 q 0.485759,0 0.756199,-0.260105 0.27044,-0.260104 0.27044,-0.73725 0,-0.949125 -1.009414,-0.949125 z"
         style="fill:#000000"
         id="path883" />
      <path
         d="m 63.057107,35.809479 h -0.282498 v -1.016304 q 0,-0.551216 -0.409967,-0.551216 -0.206706,0 -0.347955,0.160197 -0.141249,0.158475 -0.141249,0.408244 v 0.999079 H 61.59294 v -2.611384 h 0.282498 v 1.140327 h 0.0069 q 0.20326,-0.334174 0.578776,-0.334174 0.596002,0 0.596002,0.718302 z"
         style="fill:#000000"
         id="path885" />
    </g>
    <g
       aria-label="Delay 7Dh"
       id="text1062-60"
       style="font-size:3.52778px;font-family:'Segoe UI';-inkscape-font-specification:'Segoe UI';display:inline;fill:#ffff00;stroke-width:0.264583">
      <path
         d="m 53.7665,47.840549 v -2.470135 h 0.68213 q 1.305692,0 1.305692,1.204062 0,0.571886 -0.363458,0.919841 -0.361735,0.346232 -0.969795,0.346232 z m 0.289389,-2.208307 v 1.94648 h 0.368625 q 0.485759,0 0.756199,-0.260105 0.27044,-0.260105 0.27044,-0.737251 0,-0.949124 -1.009413,-0.949124 z"
         style="fill:#000000"
         id="path888" />
      <path
         d="m 57.619842,47.029229 h -1.245403 q 0.0069,0.294556 0.158475,0.454753 0.151584,0.160197 0.416857,0.160197 0.298001,0 0.54777,-0.196371 v 0.265273 q -0.232544,0.16881 -0.61495,0.16881 -0.373793,0 -0.587389,-0.239435 -0.213596,-0.241156 -0.213596,-0.676961 0,-0.41169 0.232544,-0.670072 0.234267,-0.260105 0.580499,-0.260105 0.346232,0 0.535713,0.223932 0.18948,0.223931 0.18948,0.62184 z m -0.289388,-0.239434 q -0.0017,-0.244602 -0.118856,-0.380684 -0.115411,-0.136081 -0.322116,-0.136081 -0.199816,0 -0.339343,0.142972 -0.139526,0.142971 -0.172254,0.373793 z"
         style="fill:#000000"
         id="path890" />
      <path
         d="m 58.329532,47.840549 h -0.282498 v -2.611384 h 0.282498 z"
         style="fill:#000000"
         id="path892" />
      <path
         d="m 60.164047,47.840549 h -0.282498 v -0.275607 h -0.0069 q -0.184313,0.316949 -0.542603,0.316949 -0.26355,0 -0.413412,-0.139527 -0.148139,-0.139526 -0.148139,-0.370348 0,-0.494371 0.582222,-0.575331 l 0.528822,-0.07407 q 0,-0.449585 -0.363458,-0.449585 -0.318671,0 -0.575331,0.217041 v -0.289388 q 0.260105,-0.165365 0.599447,-0.165365 0.62184,0 0.62184,0.658014 z m -0.282498,-0.89228 -0.42547,0.05857 q -0.19637,0.02756 -0.296278,0.09819 -0.09991,0.0689 -0.09991,0.246325 0,0.129191 0.09129,0.211873 0.09302,0.08096 0.246325,0.08096 0.210151,0 0.346232,-0.146417 0.137804,-0.148139 0.137804,-0.373793 z"
         style="fill:#000000"
         id="path894" />
      <path
         d="m 62.100192,46.076659 -0.811321,2.046388 q -0.217041,0.547771 -0.609782,0.547771 -0.110243,0 -0.184313,-0.02239 V 48.39521 q 0.09129,0.03101 0.167087,0.03101 0.213596,0 0.320395,-0.254937 l 0.141249,-0.334175 -0.68902,-1.760445 h 0.313504 l 0.477146,1.357369 q 0.0086,0.02584 0.03617,0.134359 h 0.01034 q 0.0086,-0.04134 0.03445,-0.130914 l 0.501261,-1.360814 z"
         style="fill:#000000"
         id="path896" />
      <path
         d="m 64.823541,45.534057 q -0.05684,0.09819 -0.137804,0.244601 -0.07924,0.146417 -0.168809,0.329007 -0.08957,0.18259 -0.182591,0.392741 -0.09302,0.210151 -0.173977,0.434083 -0.08096,0.223931 -0.142972,0.454753 -0.06029,0.229099 -0.08785,0.451307 H 63.62637 q 0.03101,-0.220486 0.09474,-0.449585 0.06546,-0.230821 0.146417,-0.451308 0.08268,-0.222208 0.173977,-0.427192 0.0913,-0.204983 0.177423,-0.377238 0.08613,-0.172255 0.156752,-0.303168 0.07235,-0.132637 0.11541,-0.206706 h -1.238512 v -0.254938 h 1.570964 z"
         style="fill:#000000"
         id="path898" />
      <path
         d="m 65.3093,47.840549 v -2.470135 h 0.68213 q 1.305692,0 1.305692,1.204062 0,0.571886 -0.363458,0.919841 -0.361735,0.346232 -0.969795,0.346232 z m 0.289389,-2.208307 v 1.94648 h 0.368625 q 0.485759,0 0.756199,-0.260105 0.27044,-0.260105 0.27044,-0.737251 0,-0.949124 -1.009413,-0.949124 z"
         style="fill:#000000"
         id="path900" />
      <path
         d="m 69.209151,47.840549 h -0.282498 v -1.016303 q 0,-0.551216 -0.409966,-0.551216 -0.206706,0 -0.347955,0.160197 -0.141249,0.158475 -0.141249,0.408244 v 0.999078 h -0.282498 v -2.611384 h 0.282498 v 1.140328 h 0.0069 q 0.203261,-0.334175 0.578776,-0.334175 0.596002,0 0.596002,0.718303 z"
         style="fill:#000000"
         id="path902" />
    </g>
    <g
       aria-label="Delay Mod"
       id="text1062-4"
       style="font-size:3.52778px;font-family:'Segoe UI';-inkscape-font-specification:'Segoe UI';display:inline;fill:#ffff00;stroke-width:0.264583">
      <path
         d="m 12.288471,72.288956 v -2.470135 h 0.68213 q 1.305692,0 1.305692,1.204061 0,0.571886 -0.363458,0.919841 -0.361735,0.346233 -0.969795,0.346233 z m 0.289388,-2.208308 v 1.94648 h 0.368626 q 0.485759,0 0.756199,-0.260105 0.27044,-0.260104 0.27044,-0.737251 0,-0.949124 -1.009414,-0.949124 z"
         style="fill:#000000"
         id="path905" />
      <path
         d="M 16.141813,71.477635 H 14.89641 q 0.0069,0.294556 0.158475,0.454753 0.151584,0.160197 0.416856,0.160197 0.298001,0 0.547771,-0.19637 v 0.265272 q -0.232544,0.16881 -0.61495,0.16881 -0.373793,0 -0.587389,-0.239434 -0.213596,-0.241157 -0.213596,-0.676962 0,-0.411689 0.232544,-0.670072 0.234267,-0.260105 0.580499,-0.260105 0.346232,0 0.535713,0.223932 0.18948,0.223931 0.18948,0.62184 z m -0.289388,-0.239434 q -0.0017,-0.244602 -0.118856,-0.380683 -0.115411,-0.136082 -0.322117,-0.136082 -0.199815,0 -0.339342,0.142972 -0.139526,0.142971 -0.172255,0.373793 z"
         style="fill:#000000"
         id="path907" />
      <path
         d="m 16.851503,72.288956 h -0.282498 v -2.611384 h 0.282498 z"
         style="fill:#000000"
         id="path909" />
      <path
         d="M 18.686018,72.288956 H 18.40352 v -0.275608 h -0.0069 q -0.184313,0.316949 -0.542603,0.316949 -0.26355,0 -0.413412,-0.139527 -0.148139,-0.139526 -0.148139,-0.370348 0,-0.494371 0.582221,-0.575331 l 0.528823,-0.07407 q 0,-0.449585 -0.363458,-0.449585 -0.318672,0 -0.575331,0.217041 v -0.289388 q 0.260105,-0.165365 0.599447,-0.165365 0.62184,0 0.62184,0.658014 z m -0.282498,-0.892281 -0.42547,0.05857 q -0.19637,0.02756 -0.296278,0.09819 -0.09991,0.0689 -0.09991,0.246325 0,0.129191 0.09129,0.211873 0.09302,0.08096 0.246325,0.08096 0.210151,0 0.346232,-0.146417 0.137804,-0.148139 0.137804,-0.373793 z"
         style="fill:#000000"
         id="path911" />
      <path
         d="m 20.622162,70.525066 -0.81132,2.046388 q -0.217041,0.54777 -0.609782,0.54777 -0.110243,0 -0.184313,-0.02239 v -0.253215 q 0.0913,0.03101 0.167087,0.03101 0.213596,0 0.320394,-0.254937 l 0.141249,-0.334174 -0.689019,-1.760445 h 0.313504 l 0.477146,1.357368 q 0.0086,0.02584 0.03617,0.134359 h 0.01034 q 0.0086,-0.04134 0.03445,-0.130914 l 0.501262,-1.360813 z"
         style="fill:#000000"
         id="path913" />
      <path
         d="m 24.447943,72.288956 h -0.287665 v -1.657092 q 0,-0.196371 0.02411,-0.480591 h -0.0069 q -0.04134,0.167087 -0.07407,0.239434 l -0.844049,1.898249 h -0.141249 l -0.842327,-1.884469 q -0.03617,-0.08268 -0.07407,-0.253214 h -0.0069 q 0.01378,0.148139 0.01378,0.484036 v 1.653647 h -0.279053 v -2.470135 h 0.382406 l 0.757921,1.722548 q 0.08785,0.198094 0.113688,0.296279 h 0.01034 q 0.07407,-0.203261 0.118856,-0.303169 l 0.773424,-1.715658 h 0.361735 z"
         style="fill:#000000"
         id="path915" />
      <path
         d="m 25.796699,72.330297 q -0.391018,0 -0.625285,-0.246325 -0.232544,-0.248047 -0.232544,-0.656291 0,-0.444417 0.242879,-0.694187 0.24288,-0.24977 0.656291,-0.24977 0.394464,0 0.61495,0.24288 0.222209,0.242879 0.222209,0.673516 0,0.422025 -0.239434,0.676962 -0.237712,0.253215 -0.639066,0.253215 z m 0.02067,-1.608861 q -0.272163,0 -0.430637,0.186036 -0.158475,0.184312 -0.158475,0.509874 0,0.313504 0.160197,0.494371 0.160197,0.180868 0.428915,0.180868 0.273885,0 0.420302,-0.177422 0.148139,-0.177423 0.148139,-0.504707 0,-0.33073 -0.148139,-0.509875 -0.146417,-0.179145 -0.420302,-0.179145 z"
         style="fill:#000000"
         id="path917" />
      <path
         d="m 28.632015,72.288956 h -0.282498 v -0.299724 h -0.0069 q -0.19637,0.341065 -0.606337,0.341065 -0.332452,0 -0.532267,-0.235989 -0.198094,-0.237712 -0.198094,-0.645956 0,-0.437528 0.220487,-0.701078 0.220486,-0.26355 0.587389,-0.26355 0.363458,0 0.528822,0.285944 h 0.0069 v -1.092096 h 0.282498 z m -0.282498,-0.79754 v -0.260105 q 0,-0.213596 -0.141249,-0.361736 -0.141249,-0.148139 -0.358291,-0.148139 -0.258382,0 -0.406521,0.189481 -0.148139,0.18948 -0.148139,0.523654 0,0.304892 0.141249,0.482314 0.142971,0.1757 0.382406,0.1757 0.235989,0 0.382405,-0.170532 0.14814,-0.170533 0.14814,-0.430637 z"
         style="fill:#000000"
         id="path919" />
    </g>
    <g
       aria-label="Mix 2Ch"
       id="text1062-7"
       style="font-size:3.52778px;font-family:'Segoe UI';-inkscape-font-specification:'Segoe UI';display:inline;fill:#ffff00;stroke-width:0.264583">
      <path
         d="M 5.8729576,59.808979 H 5.5852919 v -1.657092 q 0,-0.196371 0.024116,-0.480591 h -0.00689 q -0.041341,0.167087 -0.07407,0.239434 l -0.844049,1.898249 H 4.5431498 L 3.7008234,57.924511 q -0.036173,-0.08268 -0.07407,-0.253215 h -0.00689 q 0.01378,0.148139 0.01378,0.484036 v 1.653647 H 3.3545911 V 57.338844 H 3.736997 l 0.7579215,1.722549 q 0.08785,0.198093 0.1136882,0.296278 h 0.010335 q 0.07407,-0.203261 0.1188559,-0.303168 l 0.7734244,-1.715659 h 0.3617353 z"
         style="fill:#000000"
         id="path922" />
      <path
         d="m 6.6291564,57.597226 q -0.075792,0 -0.1291911,-0.05168 -0.053399,-0.05168 -0.053399,-0.130914 0,-0.07924 0.053399,-0.130914 0.053399,-0.0534 0.1291911,-0.0534 0.077515,0 0.1309138,0.0534 0.055121,0.05168 0.055121,0.130914 0,0.07579 -0.055121,0.129191 -0.053399,0.0534 -0.1309138,0.0534 z m 0.137804,2.211753 H 6.4844623 v -1.76389 h 0.2824981 z"
         style="fill:#000000"
         id="path924" />
      <path
         d="m 8.6273131,58.045089 -0.5925568,0.89228 0.5822215,0.87161 H 8.2879709 L 7.9417386,59.237093 q -0.032728,-0.0534 -0.077515,-0.134359 h -0.00689 q -0.00861,0.0155 -0.08096,0.134359 L 7.4232514,59.808979 H 7.0976897 L 7.6988592,58.94426 7.1235279,58.045089 h 0.3290068 l 0.3410647,0.602892 q 0.037896,0.06718 0.07407,0.137804 h 0.00689 l 0.4409725,-0.740696 z"
         style="fill:#000000"
         id="path926" />
      <path
         d="m 10.968257,57.986522 q 0,-0.113688 -0.03617,-0.198093 -0.03445,-0.08441 -0.09646,-0.139526 -0.06029,-0.05684 -0.142972,-0.0844 -0.08268,-0.02756 -0.179145,-0.02756 -0.08268,0 -0.161919,0.02239 -0.07924,0.02239 -0.15503,0.06201 -0.07407,0.03962 -0.144694,0.09474 -0.068902,0.05512 -0.129191,0.122301 v -0.303168 q 0.118856,-0.115411 0.265273,-0.1757 0.148139,-0.06201 0.360012,-0.06201 0.151585,0 0.280776,0.04479 0.129191,0.04306 0.223931,0.127469 0.09474,0.08441 0.148139,0.208428 0.05512,0.124024 0.05512,0.284221 0,0.146416 -0.03445,0.265272 -0.03273,0.118856 -0.101631,0.223932 -0.06718,0.105075 -0.170532,0.201538 -0.103353,0.09646 -0.242879,0.19637 -0.173978,0.124024 -0.287666,0.211874 -0.111966,0.08785 -0.179145,0.165365 -0.06546,0.07579 -0.09302,0.153306 -0.02584,0.07579 -0.02584,0.1757 h 1.2299 v 0.253215 H 9.8262073 v -0.122301 q 0,-0.158474 0.034451,-0.279053 0.034451,-0.120578 0.1136883,-0.229099 0.079238,-0.10852 0.2067055,-0.217041 0.129191,-0.108521 0.315227,-0.244602 0.134359,-0.09646 0.223931,-0.184313 0.0913,-0.08785 0.146417,-0.1757 0.05512,-0.08785 0.07751,-0.177422 0.02412,-0.0913 0.02412,-0.192926 z"
         style="fill:#000000"
         id="path928" />
      <path
         d="m 13.545191,59.705626 q -0.273886,0.144694 -0.68213,0.144694 -0.5271,0 -0.844049,-0.339342 -0.316949,-0.339342 -0.316949,-0.890558 0,-0.592556 0.356568,-0.957737 0.356568,-0.36518 0.904338,-0.36518 0.3514,0 0.582222,0.10163 v 0.308336 q -0.265273,-0.148139 -0.585667,-0.148139 -0.42547,0 -0.690742,0.284221 -0.26355,0.28422 -0.26355,0.759644 0,0.451308 0.246324,0.720025 0.248047,0.266995 0.649401,0.266995 0.372071,0 0.644234,-0.165364 z"
         style="fill:#000000"
         id="path930" />
      <path
         d="m 15.474445,59.808979 h -0.282498 v -1.016304 q 0,-0.551215 -0.409967,-0.551215 -0.206705,0 -0.347954,0.160197 -0.141249,0.158474 -0.141249,0.408244 v 0.999078 h -0.282498 v -2.611384 h 0.282498 v 1.140327 h 0.0069 q 0.203261,-0.334174 0.578776,-0.334174 0.596002,0 0.596002,0.718303 z"
         style="fill:#000000"
         id="path932" />
    </g>
    <g
       aria-label="In
"
       id="text1062-4-5"
       style="font-size:3.52778px;font-family:'Segoe UI';-inkscape-font-specification:'Segoe UI';display:inline;fill:#ffff00;stroke-width:0.264583">
      <path
         d="m 23.126529,110.12789 h -0.289388 v -2.47013 h 0.289388 z"
         style="fill:#000000"
         id="path935" />
      <path
         d="m 25.202199,110.12789 h -0.282498 v -1.00597 q 0,-0.56155 -0.409966,-0.56155 -0.211874,0 -0.3514,0.1602 -0.137804,0.15847 -0.137804,0.40135 v 1.00597 H 23.738033 V 108.364 h 0.282498 v 0.29284 h 0.0069 q 0.199816,-0.33418 0.578776,-0.33418 0.289388,0 0.442695,0.18776 0.153307,0.18603 0.153307,0.53916 z"
         style="fill:#000000"
         id="path937" />
    </g>
    <g
       aria-label="Out
"
       id="text1062-4-5-4"
       style="font-size:3.52778px;font-family:'Segoe UI';-inkscape-font-specification:'Segoe UI';display:inline;fill:#ffff00;stroke-width:0.264583">
      <path
         d="m 59.342367,110.1682 q -0.525377,0 -0.842325,-0.34623 -0.315227,-0.34623 -0.315227,-0.90089 0,-0.596 0.322117,-0.95085 0.322116,-0.35484 0.876776,-0.35484 0.511597,0 0.823378,0.34451 0.313504,0.34451 0.313504,0.90089 0,0.60461 -0.320394,0.95601 -0.320394,0.3514 -0.857829,0.3514 z m 0.02067,-2.29099 q -0.389296,0 -0.632175,0.28078 -0.242879,0.28077 -0.242879,0.73725 0,0.45648 0.235989,0.73553 0.237711,0.27733 0.618394,0.27733 0.406522,0 0.640788,-0.26527 0.234267,-0.26528 0.234267,-0.74242 0,-0.48921 -0.227377,-0.7562 -0.227376,-0.267 -0.627007,-0.267 z"
         style="fill:#000000"
         id="path940" />
      <path
         d="m 62.394722,110.12686 h -0.282498 v -0.27905 h -0.0069 q -0.1757,0.32039 -0.544325,0.32039 -0.630453,0 -0.630453,-0.75103 v -1.0542 h 0.280776 v 1.00942 q 0,0.5581 0.427191,0.5581 0.206706,0 0.339342,-0.15158 0.134359,-0.15331 0.134359,-0.39963 v -1.01631 h 0.282498 z"
         style="fill:#000000"
         id="path942" />
      <path
         d="m 63.783095,110.10964 q -0.09991,0.0551 -0.26355,0.0551 -0.463365,0 -0.463365,-0.51677 v -1.04386 h -0.303168 v -0.24116 h 0.303168 v -0.43063 l 0.282498,-0.0913 v 0.52193 h 0.444417 v 0.24116 h -0.444417 v 0.99391 q 0,0.17742 0.06029,0.25321 0.06029,0.0758 0.199816,0.0758 0.106798,0 0.184312,-0.0586 z"
         style="fill:#000000"
         id="path944" />
    </g>
    <g
       aria-label="SNECHO"
       id="text1062-1"
       style="font-weight:bold;font-size:6.35px;font-family:'Segoe UI';-inkscape-font-specification:'Segoe UI Bold';display:inline;fill:#ffff00;stroke-width:0.264583">
      <path
         d="m 23.085899,13.872521 v -0.992187 q 0.269751,0.226343 0.586011,0.341064 0.316259,0.111621 0.63872,0.111621 0.189136,0 0.328662,-0.03411 0.142627,-0.03411 0.235645,-0.09302 0.09612,-0.06201 0.142627,-0.142627 0.04651,-0.08372 0.04651,-0.179833 0,-0.130225 -0.07441,-0.232544 -0.07441,-0.10232 -0.204639,-0.189136 -0.127124,-0.08682 -0.303857,-0.167432 -0.176734,-0.08061 -0.381372,-0.164331 -0.520899,-0.217041 -0.778248,-0.5302 -0.254248,-0.313159 -0.254248,-0.756543 0,-0.347266 0.139527,-0.595313 0.139526,-0.251147 0.378271,-0.4123774 0.241846,-0.1612305 0.558106,-0.2356446 0.31626,-0.077515 0.669726,-0.077515 0.347266,0 0.613916,0.043408 0.269751,0.040308 0.496094,0.127124 v 0.9270754 q -0.111621,-0.07752 -0.244946,-0.136426 -0.130225,-0.05891 -0.269751,-0.09612 -0.139527,-0.04031 -0.279053,-0.05891 -0.136426,-0.0186 -0.260449,-0.0186 -0.170532,0 -0.310059,0.03411 -0.139526,0.03101 -0.235644,0.08992 -0.09612,0.05891 -0.148828,0.142627 -0.05271,0.08061 -0.05271,0.182934 0,0.111621 0.05891,0.201538 0.05891,0.08682 0.167431,0.167432 0.108521,0.07752 0.26355,0.155029 0.15503,0.07441 0.350366,0.155029 0.266651,0.111622 0.477491,0.238746 0.21394,0.124023 0.365869,0.282153 0.151929,0.15813 0.232544,0.362768 0.08062,0.201539 0.08062,0.47129 0,0.37207 -0.142627,0.626318 -0.139526,0.251147 -0.381372,0.409277 -0.241846,0.155029 -0.564307,0.223242 -0.31936,0.06821 -0.675927,0.06821 -0.36587,0 -0.697632,-0.06201 -0.328662,-0.06201 -0.570508,-0.186036 z"
         style="fill:#000000"
         id="path947" />
      <path
         d="m 30.849766,14.043054 h -1.010791 l -1.832446,-2.793628 q -0.161231,-0.244947 -0.223242,-0.36897 h -0.0124 q 0.02481,0.235645 0.02481,0.719336 v 2.443262 H 26.85001 V 9.5968135 h 1.079004 l 1.764233,2.7068115 q 0.120923,0.182935 0.223243,0.362768 h 0.0124 q -0.02481,-0.155029 -0.02481,-0.610815 V 9.5968135 h 0.945679 z"
         style="fill:#000000"
         id="path949" />
      <path
         d="M 34.533262,14.043054 H 31.866758 V 9.5968135 h 2.564185 v 0.8154545 h -1.562696 v 0.989086 h 1.454175 v 0.812354 H 32.868247 V 13.2307 h 1.665015 z"
         style="fill:#000000"
         id="path951" />
      <path
         d="m 38.433799,13.884924 q -0.486792,0.235644 -1.27124,0.235644 -1.023193,0 -1.609204,-0.601513 -0.586011,-0.601514 -0.586011,-1.603003 0,-1.066602 0.657324,-1.730127 0.660425,-0.6635256 1.711524,-0.6635256 0.651123,0 1.097607,0.1643311 v 0.9642825 q -0.446484,-0.266651 -1.016992,-0.266651 -0.626318,0 -1.010791,0.393775 -0.384473,0.393774 -0.384473,1.066601 0,0.644922 0.362769,1.029395 0.362768,0.381372 0.976684,0.381372 0.586011,0 1.072803,-0.285254 z"
         style="fill:#000000"
         id="path953" />
      <path
         d="m 43.056772,14.043054 h -1.00459 v -1.810743 h -1.841748 v 1.810743 H 39.208945 V 9.5968135 h 1.001489 v 1.7735355 h 1.841748 V 9.5968135 h 1.00459 z"
         style="fill:#000000"
         id="path955" />
      <path
         d="m 45.952719,14.120568 q -0.954981,0 -1.556494,-0.620117 -0.601514,-0.623218 -0.601514,-1.621606 0,-1.0542 0.610815,-1.705323 0.610816,-0.6511226 1.618506,-0.6511226 0.95188,0 1.537891,0.6232176 0.589111,0.623218 0.589111,1.643311 0,1.047998 -0.610815,1.689819 -0.607715,0.641821 -1.5875,0.641821 z m 0.04341,-3.736206 q -0.5271,0 -0.837158,0.396875 -0.310059,0.393775 -0.310059,1.044898 0,0.660425 0.310059,1.044897 0.310058,0.384473 0.812353,0.384473 0.517798,0 0.821655,-0.37207 0.303858,-0.375171 0.303858,-1.038697 0,-0.69143 -0.294556,-1.075903 -0.294555,-0.384473 -0.806152,-0.384473 z"
         style="fill:#000000"
         id="path957" />
    </g>
    <g
       aria-label="Freeze
"
       id="text1062-4-5-7"
       style="font-size:3.52778px;font-family:'Segoe UI';-inkscape-font-specification:'Segoe UI';display:inline;fill:#ffff00;stroke-width:0.264583">
      <path
         d="m 18.278222,101.25511 h -0.964628 v 0.85438 h 0.892281 v 0.26011 h -0.892281 v 1.09382 h -0.289388 v -2.47014 h 1.254016 z"
         style="fill:#000000"
         id="path960" />
      <path
         d="m 19.6287,101.98547 q -0.07407,-0.0568 -0.213596,-0.0568 -0.180868,0 -0.303169,0.17053 -0.120578,0.17053 -0.120578,0.46509 v 0.89917 h -0.282498 v -1.76389 h 0.282498 v 0.36345 h 0.0069 q 0.06029,-0.18603 0.184313,-0.28938 0.124023,-0.10508 0.27733,-0.10508 0.110243,0 0.16881,0.0241 z"
         style="fill:#000000"
         id="path962" />
      <path
         d="m 21.352971,102.6521 h -1.245402 q 0.0069,0.29455 0.158474,0.45475 0.151584,0.1602 0.416857,0.1602 0.298001,0 0.547771,-0.19637 v 0.26527 q -0.232545,0.16881 -0.61495,0.16881 -0.373794,0 -0.58739,-0.23944 -0.213596,-0.24115 -0.213596,-0.67696 0,-0.41169 0.232544,-0.67007 0.234267,-0.2601 0.580499,-0.2601 0.346233,0 0.535713,0.22393 0.18948,0.22393 0.18948,0.62184 z m -0.289388,-0.23944 q -0.0017,-0.2446 -0.118856,-0.38068 -0.11541,-0.13608 -0.322116,-0.13608 -0.199816,0 -0.339342,0.14297 -0.139527,0.14297 -0.172255,0.37379 z"
         style="fill:#000000"
         id="path964" />
      <path
         d="m 23.197821,102.6521 h -1.245403 q 0.0069,0.29455 0.158475,0.45475 0.151584,0.1602 0.416857,0.1602 0.298001,0 0.54777,-0.19637 v 0.26527 q -0.232544,0.16881 -0.61495,0.16881 -0.373793,0 -0.587389,-0.23944 -0.213596,-0.24115 -0.213596,-0.67696 0,-0.41169 0.232544,-0.67007 0.234267,-0.2601 0.580499,-0.2601 0.346232,0 0.535713,0.22393 0.18948,0.22393 0.18948,0.62184 z m -0.289388,-0.23944 q -0.0017,-0.2446 -0.118856,-0.38068 -0.115411,-0.13608 -0.322117,-0.13608 -0.199815,0 -0.339342,0.14297 -0.139526,0.14297 -0.172255,0.37379 z"
         style="fill:#000000"
         id="path966" />
      <path
         d="m 24.854913,101.78049 -1.043864,1.44177 h 1.033529 v 0.24116 h -1.448664 v -0.0879 l 1.043865,-1.43489 H 23.4941 v -0.24115 h 1.360813 z"
         style="fill:#000000"
         id="path968" />
      <path
         d="m 26.637752,102.6521 h -1.245403 q 0.0069,0.29455 0.158474,0.45475 0.151584,0.1602 0.416857,0.1602 0.298001,0 0.547771,-0.19637 v 0.26527 q -0.232545,0.16881 -0.61495,0.16881 -0.373793,0 -0.58739,-0.23944 -0.213596,-0.24115 -0.213596,-0.67696 0,-0.41169 0.232544,-0.67007 0.234267,-0.2601 0.580499,-0.2601 0.346233,0 0.535713,0.22393 0.189481,0.22393 0.189481,0.62184 z m -0.289389,-0.23944 q -0.0017,-0.2446 -0.118856,-0.38068 -0.11541,-0.13608 -0.322116,-0.13608 -0.199816,0 -0.339342,0.14297 -0.139527,0.14297 -0.172255,0.37379 z"
         style="fill:#000000"
         id="path970" />
    </g>
    <g
       aria-label="Clear
"
       id="text1062-4-5-7-5"
       style="font-size:3.52778px;font-family:'Segoe UI';-inkscape-font-specification:'Segoe UI';display:inline;fill:#ffff00;stroke-width:0.264583">
      <path
         d="m 39.881039,103.4307 q -0.273886,0.14469 -0.68213,0.14469 -0.5271,0 -0.844049,-0.33934 -0.316949,-0.33934 -0.316949,-0.89056 0,-0.59256 0.356568,-0.95774 0.356568,-0.36518 0.904338,-0.36518 0.3514,0 0.582222,0.10163 v 0.30834 q -0.265273,-0.14814 -0.585667,-0.14814 -0.425469,0 -0.690742,0.28422 -0.26355,0.28422 -0.26355,0.75965 0,0.4513 0.246324,0.72002 0.248048,0.267 0.649401,0.267 0.372071,0 0.644234,-0.16537 z"
         style="fill:#000000"
         id="path973" />
      <path
         d="m 40.628625,103.53405 h -0.282498 v -2.61138 h 0.282498 z"
         style="fill:#000000"
         id="path975" />
      <path
         d="m 42.618169,102.72273 h -1.245403 q 0.0069,0.29456 0.158474,0.45475 0.151585,0.1602 0.416857,0.1602 0.298001,0 0.547771,-0.19637 v 0.26527 q -0.232544,0.16881 -0.61495,0.16881 -0.373793,0 -0.587389,-0.23943 -0.213596,-0.24116 -0.213596,-0.67696 0,-0.41169 0.232544,-0.67008 0.234266,-0.2601 0.580499,-0.2601 0.346232,0 0.535712,0.22393 0.189481,0.22393 0.189481,0.62184 z m -0.289388,-0.23943 q -0.0017,-0.24461 -0.118856,-0.38069 -0.115411,-0.13608 -0.322117,-0.13608 -0.199816,0 -0.339342,0.14297 -0.139527,0.14297 -0.172255,0.3738 z"
         style="fill:#000000"
         id="path977" />
      <path
         d="m 44.307989,103.53405 h -0.282498 v -0.27561 h -0.0069 q -0.184313,0.31695 -0.542603,0.31695 -0.26355,0 -0.413411,-0.13953 -0.14814,-0.13952 -0.14814,-0.37034 0,-0.49437 0.582222,-0.57533 l 0.528822,-0.0741 q 0,-0.44959 -0.363457,-0.44959 -0.318672,0 -0.575332,0.21704 v -0.28939 q 0.260105,-0.16536 0.599447,-0.16536 0.62184,0 0.62184,0.65801 z m -0.282498,-0.89228 -0.425469,0.0586 q -0.196371,0.0276 -0.296279,0.0982 -0.09991,0.0689 -0.09991,0.24633 0,0.12919 0.09129,0.21187 0.09302,0.081 0.246324,0.081 0.210151,0 0.346233,-0.14642 0.137803,-0.14814 0.137803,-0.37379 z"
         style="fill:#000000"
         id="path979" />
      <path
         d="m 45.760098,102.0561 q -0.07407,-0.0568 -0.213596,-0.0568 -0.180868,0 -0.303169,0.17053 -0.120578,0.17053 -0.120578,0.46509 v 0.89917 h -0.282498 v -1.76389 h 0.282498 v 0.36346 h 0.0069 q 0.06029,-0.18604 0.184313,-0.28939 0.124023,-0.10508 0.27733,-0.10508 0.110243,0 0.16881,0.0241 z"
         style="fill:#000000"
         id="path981" />
    </g>
    <g
       aria-label="Reset
"
       id="text1062-4-5-7-5-6"
       style="font-size:3.52778px;font-family:'Segoe UI';-inkscape-font-specification:'Segoe UI';display:inline;fill:#ffff00;stroke-width:0.264583">
      <path
         d="m 60.498778,103.45514 h -0.34451 l -0.413411,-0.69247 q -0.05684,-0.0965 -0.110243,-0.16364 -0.0534,-0.0689 -0.110244,-0.11196 -0.05512,-0.0431 -0.120578,-0.062 -0.06373,-0.0207 -0.144694,-0.0207 h -0.237711 v 1.05075 h -0.289388 v -2.47013 h 0.73725 q 0.161919,0 0.298001,0.0413 0.137803,0.0396 0.237711,0.1223 0.101631,0.0827 0.158475,0.2067 0.05684,0.1223 0.05684,0.28767 0,0.12919 -0.03962,0.23771 -0.0379,0.1068 -0.110243,0.1912 -0.07062,0.0844 -0.172255,0.1447 -0.09991,0.0586 -0.225653,0.0913 v 0.007 q 0.06201,0.0276 0.106798,0.0637 0.04651,0.0344 0.08785,0.0827 0.04134,0.0482 0.08096,0.11024 0.04134,0.0603 0.0913,0.14125 z m -1.481391,-2.20831 v 0.89573 h 0.39274 q 0.108521,0 0.199816,-0.0327 0.09302,-0.0327 0.160197,-0.093 0.06718,-0.062 0.105075,-0.14986 0.0379,-0.0896 0.0379,-0.19982 0,-0.19809 -0.129191,-0.30833 -0.127468,-0.11197 -0.370348,-0.11197 z"
         style="fill:#000000"
         id="path984" />
      <path
         d="m 62.114527,102.64382 h -1.245402 q 0.0069,0.29455 0.158475,0.45475 0.151584,0.1602 0.416856,0.1602 0.298001,0 0.54777,-0.19637 v 0.26527 q -0.232544,0.16881 -0.614949,0.16881 -0.373793,0 -0.587389,-0.23943 -0.213596,-0.24116 -0.213596,-0.67697 0,-0.41168 0.232544,-0.67007 0.234267,-0.2601 0.580499,-0.2601 0.346232,0 0.535712,0.22393 0.18948,0.22393 0.18948,0.62184 z m -0.289388,-0.23943 q -0.0017,-0.24461 -0.118856,-0.38069 -0.11541,-0.13608 -0.322116,-0.13608 -0.199816,0 -0.339342,0.14297 -0.139526,0.14297 -0.172255,0.3738 z"
         style="fill:#000000"
         id="path986" />
      <path
         d="m 62.434921,103.3914 v -0.30316 q 0.230822,0.17053 0.508152,0.17053 0.37207,0 0.37207,-0.24805 0,-0.0706 -0.03273,-0.11885 -0.03101,-0.05 -0.08613,-0.0879 -0.0534,-0.0379 -0.127468,-0.0672 -0.07235,-0.031 -0.156752,-0.0637 -0.117133,-0.0465 -0.206706,-0.093 -0.08785,-0.0482 -0.148139,-0.10679 -0.05857,-0.0603 -0.08957,-0.13608 -0.02928,-0.0758 -0.02928,-0.17743 0,-0.12402 0.05684,-0.21876 0.05684,-0.0965 0.151584,-0.1602 0.09474,-0.0655 0.215319,-0.0982 0.122301,-0.0327 0.251492,-0.0327 0.229099,0 0.409966,0.0792 v 0.28594 q -0.194648,-0.12747 -0.447862,-0.12747 -0.07924,0 -0.142972,0.019 -0.06373,0.0172 -0.110243,0.0499 -0.04479,0.0327 -0.07062,0.0792 -0.02412,0.0448 -0.02412,0.0999 0,0.0689 0.02412,0.11541 0.02584,0.0465 0.07407,0.0827 0.04823,0.0362 0.117134,0.0655 0.0689,0.0293 0.156752,0.0637 0.117133,0.0448 0.21015,0.093 0.09302,0.0465 0.158475,0.1068 0.06546,0.0586 0.09991,0.13608 0.03617,0.0775 0.03617,0.18431 0,0.13091 -0.05857,0.22738 -0.05684,0.0965 -0.153306,0.16019 -0.09646,0.0637 -0.222209,0.0947 -0.125746,0.031 -0.26355,0.031 -0.272162,0 -0.471978,-0.10508 z"
         style="fill:#000000"
         id="path988" />
      <path
         d="m 65.45627,102.64382 h -1.245402 q 0.0069,0.29455 0.158474,0.45475 0.151585,0.1602 0.416857,0.1602 0.298001,0 0.54777,-0.19637 v 0.26527 q -0.232544,0.16881 -0.614949,0.16881 -0.373793,0 -0.587389,-0.23943 -0.213596,-0.24116 -0.213596,-0.67697 0,-0.41168 0.232544,-0.67007 0.234266,-0.2601 0.580498,-0.2601 0.346232,0 0.535713,0.22393 0.18948,0.22393 0.18948,0.62184 z m -0.289388,-0.23943 q -0.0017,-0.24461 -0.118856,-0.38069 -0.115411,-0.13608 -0.322116,-0.13608 -0.199816,0 -0.339342,0.14297 -0.139527,0.14297 -0.172255,0.3738 z"
         style="fill:#000000"
         id="path990" />
      <path
         d="m 66.701672,103.43791 q -0.09991,0.0551 -0.26355,0.0551 -0.463365,0 -0.463365,-0.51677 v -1.04386 h -0.303169 v -0.24116 h 0.303169 v -0.43064 l 0.282498,-0.0913 v 0.52193 h 0.444417 v 0.24116 h -0.444417 v 0.99391 q 0,0.17742 0.06029,0.25321 0.06029,0.0758 0.199815,0.0758 0.106798,0 0.184313,-0.0586 z"
         style="fill:#000000"
         id="path992" />
    </g>
  </g>
  <metadata
     id="metadata13212">
    <rdf:RDF>
      <cc:Work
         rdf:about="">
        <dc:title>SVG Image created as ES_Daisy_Patch_SM_FB_Rev1-brd.svg date 2024/04/30 13:34:42 </dc:title>
      </cc:Work>
    </rdf:RDF>
  </metadata>
  <g
     inkscape:groupmode="layer"
     id="layer3"
     inkscape:label="components"
     style="display:none">
    <circle
       style="display:inline;fill:#ff0000;stroke-width:0.264583"
       id="path13156-4-8-0-1"
       cx="35.609165"
       cy="68.519226"
       r="4.5999999"
       inkscape:label="delay mod" />
    <circle
       style="fill:#ff0000;stroke-width:0.264583"
       id="circle13473"
       cx="50.807682"
       cy="52.662216"
       r="4.5999999"
       inkscape:label="delay" />
    <circle
       style="fill:#ff0000;stroke-width:0.264583"
       id="circle13475"
       cx="35.609165"
       cy="39.825272"
       r="4.5999999"
       inkscape:label="feedback" />
    <circle
       style="fill:#ff0000;stroke-width:0.264583"
       id="circle13475-1"
       cx="21.830978"
       cy="52.662216"
       r="4.5999999"
       inkscape:label="mix" />
    <circle
       style="fill:#0000ff;stroke-width:0.264583"
       id="path13156-4-87"
       cx="59.939499"
       cy="115.96852"
       r="3.05"
       inkscape:label="audio R out" />
    <circle
       style="fill:#0000ff;stroke-width:0.264583"
       id="path13156-4-2"
       cx="47.772797"
       cy="115.96852"
       r="3.05"
       inkscape:label="audio L out" />
    <circle
       style="display:inline;fill:#00ff00;stroke-width:0.264583"
       id="path13156-4-87-6"
       cx="20.033009"
       cy="115.96852"
       r="3.05"
       inkscape:label="audio R" />
    <circle
       style="display:inline;fill:#00ff00;stroke-width:0.264583"
       id="path13156-4-2-9"
       cx="7.8663063"
       cy="115.96852"
       r="3.05"
       inkscape:label="audio L" />
    <circle
       style="display:inline;fill:#ff0000;stroke-width:0.264583"
       id="circle13475-0"
       cx="10.659046"
       cy="23.552996"
       r="4.5999999"
       inkscape:label="filter" />
    <circle
       style="display:inline;fill:#00ff00;stroke-width:0.264583"
       id="path13156-4-87-6-7"
       cx="26.430981"
       cy="83.942436"
       r="3.05"
       inkscape:label="delay mod cv" />
    <circle
       style="display:inline;fill:#00ff00;stroke-width:0.264583"
       id="path13156-4-2-9-8"
       cx="14.264277"
       cy="83.942436"
       r="3.05"
       inkscape:label="mix cv" />
    <circle
       style="display:inline;fill:#00ff00;stroke-width:0.264583"
       id="path13156-4-87-6-1"
       cx="52.375866"
       cy="83.942436"
       r="3.05"
       inkscape:label="delay cv" />
    <circle
       style="display:inline;fill:#00ff00;stroke-width:0.264583"
       id="path13156-4-2-9-3"
       cx="40.209164"
       cy="83.942436"
       r="3.05"
       inkscape:label="feedback cv" />
    <circle
       style="display:inline;fill:#00ff00;stroke-width:0.264583"
       id="path13156-4-2-9-4"
       cx="11.832312"
       cy="102.24903"
       r="3.05"
       inkscape:label="freeze cv" />
    <circle
       style="display:inline;fill:#00ff00;stroke-width:0.264583"
       id="path13156-4-2-9-32"
       cx="32.706295"
       cy="102.24903"
       r="3.05"
       inkscape:label="clear cv" />
    <circle
       style="display:inline;fill:#00ff00;stroke-width:0.264583"
       id="path13156-4-2-9-1"
       cx="53.508064"
       cy="102.24903"
       r="3.05"
       inkscape:label="reset cv" />
    <circle
       style="display:inline;fill:#ff00ff;stroke:none;stroke-width:0.323397"
       id="path355-3"
       cx="56.895092"
       cy="23.552996"
       r="1.5"
       inkscape:label="light4" />
    <circle
       style="display:inline;fill:#ff00ff;stroke:none;stroke-width:0.323397"
       id="path355-2"
       cx="61.48782"
       cy="23.552996"
       r="1.5"
       inkscape:label="light3" />
    <circle
       style="display:inline;fill:#ff00ff;stroke:none;stroke-width:0.323397"
       id="path355-8"
       cx="52.302364"
       cy="23.552996"
       r="1.5"
       inkscape:label="light2" />
    <circle
       style="display:inline;fill:#ff00ff;stroke:none;stroke-width:0.323397"
       id="path355-1"
       cx="47.709633"
       cy="23.552996"
       r="1.5"
       inkscape:label="light1" />
    <circle
       style="display:inline;fill:#ff00ff;stroke:none;stroke-width:0.323397"
       id="path355"
       cx="43.116905"
       cy="23.552996"
       r="1.5"
       inkscape:label="light0" />
    <ellipse
       style="display:inline;fill:#ff0000;stroke-width:0.264583"
       id="circle13475-0-6"
       cx="20.033009"
       cy="94.993362"
       inkscape:label="freeze"
       rx="2.8080599"
       ry="2.8139906" />
    <ellipse
       style="display:inline;fill:#ff0000;stroke-width:0.264583"
       id="circle13475-0-6-9"
       cx="41.899006"
       cy="94.993362"
       inkscape:label="clear"
       rx="2.8080599"
       ry="2.8139906" />
    <ellipse
       style="display:inline;fill:#ff0000;stroke-width:0.264583"
       id="circle13475-0-6-1"
       cx="60.983955"
       cy="94.993362"
       inkscape:label="reset"
       rx="2.8080599"
       ry="2.8139906" />
  </g>
</svg>
