<?xml version="1.0" encoding="UTF-8" standalone="no"?>
<svg
   version="1.1"
   width="71.120003mm"
   height="128.5mm"
   viewBox="0 0 71.120003 128.5"
   id="svg8664"
   sodipodi:docname="snecho.svg"
   inkscape:version="1.2.2 (732a01da63, 2022-12-09)"
   xmlns:inkscape="http://www.inkscape.org/namespaces/inkscape"
   xmlns:sodipodi="http://sodipodi.sourceforge.net/DTD/sodipodi-0.dtd"
   xmlns="http://www.w3.org/2000/svg"
   xmlns:svg="http://www.w3.org/2000/svg"
   xmlns:rdf="http://www.w3.org/1999/02/22-rdf-syntax-ns#"
   xmlns:cc="http://creativecommons.org/ns#"
   xmlns:dc="http://purl.org/dc/elements/1.1/">
  <defs
     id="defs8668" />
  <sodipodi:namedview
     id="namedview8666"
     pagecolor="#ffffff"
     bordercolor="#000000"
     borderopacity="0.25"
     inkscape:showpageshadow="2"
     inkscape:pageopacity="0.0"
     inkscape:pagecheckerboard="0"
     inkscape:deskcolor="#d1d1d1"
     inkscape:document-units="mm"
     showgrid="false"
     showguides="true"
     inkscape:zoom="1.1851376"
     inkscape:cx="9.2816227"
     inkscape:cy="240.47841"
     inkscape:window-width="1920"
     inkscape:window-height="1017"
     inkscape:window-x="-8"
     inkscape:window-y="-8"
     inkscape:window-maximized="1"
     inkscape:current-layer="layer4">
    <inkscape:grid
       type="xygrid"
       id="grid13701"
       originx="0"
       originy="0" />
  </sodipodi:namedview>
  <title
     id="title2">SVG Image created as ES_Daisy_Patch_SM_FB_Rev1-brd.svg date 2024/04/30 13:34:42 </title>
  <desc
     id="desc4">Image generated by PCBNEW </desc>
  <g
     style="display:none;fill:#000000;fill-opacity:1;stroke:#000000;stroke-linecap:round;stroke-linejoin:round;stroke-opacity:1"
     id="g6" />
  <g
     inkscape:groupmode="layer"
     id="layer2"
     inkscape:label="holes"
     style="display:inline;fill:#280b0b"
     sodipodi:insensitive="true">
    <g
       inkscape:label="EuroPanel"
       id="g721">
      <rect
         style="fill:#e6e6e6;stroke:none;stroke-width:0mm"
         height="128.5"
         width="70.760002"
         x="0"
         y="0"
         rx="0"
         ry="0"
         id="rect711" />
      <rect
         style="fill:#ffffff;stroke:none;stroke-width:0mm"
         height="3.2"
         width="5.5"
         x="4.75"
         y="123.9"
         rx="1.6"
         ry="0"
         id="rect713" />
      <rect
         style="fill:#ffffff;stroke:none;stroke-width:0mm"
         height="3.2"
         width="5.5"
         x="4.75"
         y="1.4"
         rx="1.6"
         ry="0"
         id="rect715" />
      <rect
         style="fill:#ffffff;stroke:none;stroke-width:0mm"
         height="3.2"
         width="5.5"
         x="60.630001"
         y="123.9"
         rx="1.6"
         ry="0"
         id="rect717" />
      <rect
         style="fill:#ffffff;stroke:none;stroke-width:0mm"
         height="3.2"
         width="5.5"
         x="60.630001"
         y="1.4"
         rx="1.6"
         ry="0"
         id="rect719" />
    </g>
  </g>
  <g
     inkscape:groupmode="layer"
     id="layer1"
     inkscape:label="bg"
     style="display:inline" />
  <g
     inkscape:groupmode="layer"
     id="layer4"
     inkscape:label="fg">
    <g
       aria-label="SNECHO"
       id="text1062-1"
       style="font-weight:bold;font-size:6.35px;font-family:'Segoe UI';-inkscape-font-specification:'Segoe UI Bold';display:inline;fill:#ffff00;stroke-width:0.264583">
      <path
         d="m 23.085899,13.872521 v -0.992187 q 0.269751,0.226343 0.586011,0.341064 0.316259,0.111621 0.63872,0.111621 0.189136,0 0.328662,-0.03411 0.142627,-0.03411 0.235645,-0.09302 0.09612,-0.06201 0.142627,-0.142627 0.04651,-0.08372 0.04651,-0.179833 0,-0.130225 -0.07441,-0.232544 -0.07441,-0.10232 -0.204639,-0.189136 -0.127124,-0.08682 -0.303857,-0.167432 -0.176734,-0.08061 -0.381372,-0.164331 -0.520899,-0.217041 -0.778248,-0.5302 -0.254248,-0.313159 -0.254248,-0.756543 0,-0.347266 0.139527,-0.595313 0.139526,-0.251147 0.378271,-0.4123774 0.241846,-0.1612305 0.558106,-0.2356446 0.31626,-0.077515 0.669726,-0.077515 0.347266,0 0.613916,0.043408 0.269751,0.040308 0.496094,0.127124 v 0.9270754 q -0.111621,-0.07752 -0.244946,-0.136426 -0.130225,-0.05891 -0.269751,-0.09612 -0.139527,-0.04031 -0.279053,-0.05891 -0.136426,-0.0186 -0.260449,-0.0186 -0.170532,0 -0.310059,0.03411 -0.139526,0.03101 -0.235644,0.08992 -0.09612,0.05891 -0.148828,0.142627 -0.05271,0.08061 -0.05271,0.182934 0,0.111621 0.05891,0.201538 0.05891,0.08682 0.167431,0.167432 0.108521,0.07752 0.26355,0.155029 0.15503,0.07441 0.350366,0.155029 0.266651,0.111622 0.477491,0.238746 0.21394,0.124023 0.365869,0.282153 0.151929,0.15813 0.232544,0.362768 0.08062,0.201539 0.08062,0.47129 0,0.37207 -0.142627,0.626318 -0.139526,0.251147 -0.381372,0.409277 -0.241846,0.155029 -0.564307,0.223242 -0.31936,0.06821 -0.675927,0.06821 -0.36587,0 -0.697632,-0.06201 -0.328662,-0.06201 -0.570508,-0.186036 z"
         style="fill:#000000"
         id="path262" />
      <path
         d="m 30.849766,14.043054 h -1.010791 l -1.832446,-2.793628 q -0.161231,-0.244947 -0.223242,-0.36897 h -0.0124 q 0.02481,0.235645 0.02481,0.719336 v 2.443262 H 26.85001 V 9.5968135 h 1.079004 l 1.764233,2.7068115 q 0.120923,0.182935 0.223243,0.362768 h 0.0124 q -0.02481,-0.155029 -0.02481,-0.610815 V 9.5968135 h 0.945679 z"
         style="fill:#000000"
         id="path264" />
      <path
         d="M 34.533262,14.043054 H 31.866758 V 9.5968135 h 2.564185 v 0.8154545 h -1.562696 v 0.989086 h 1.454175 v 0.812354 H 32.868247 V 13.2307 h 1.665015 z"
         style="fill:#000000"
         id="path266" />
      <path
         d="m 38.433799,13.884924 q -0.486792,0.235644 -1.27124,0.235644 -1.023193,0 -1.609204,-0.601513 -0.586011,-0.601514 -0.586011,-1.603003 0,-1.066602 0.657324,-1.730127 0.660425,-0.6635256 1.711524,-0.6635256 0.651123,0 1.097607,0.1643311 v 0.9642825 q -0.446484,-0.266651 -1.016992,-0.266651 -0.626318,0 -1.010791,0.393775 -0.384473,0.393774 -0.384473,1.066601 0,0.644922 0.362769,1.029395 0.362768,0.381372 0.976684,0.381372 0.586011,0 1.072803,-0.285254 z"
         style="fill:#000000"
         id="path268" />
      <path
         d="m 43.056772,14.043054 h -1.00459 v -1.810743 h -1.841748 v 1.810743 H 39.208945 V 9.5968135 h 1.001489 v 1.7735355 h 1.841748 V 9.5968135 h 1.00459 z"
         style="fill:#000000"
         id="path270" />
      <path
         d="m 45.952719,14.120568 q -0.954981,0 -1.556494,-0.620117 -0.601514,-0.623218 -0.601514,-1.621606 0,-1.0542 0.610815,-1.705323 0.610816,-0.6511226 1.618506,-0.6511226 0.95188,0 1.537891,0.6232176 0.589111,0.623218 0.589111,1.643311 0,1.047998 -0.610815,1.689819 -0.607715,0.641821 -1.5875,0.641821 z m 0.04341,-3.736206 q -0.5271,0 -0.837158,0.396875 -0.310059,0.393775 -0.310059,1.044898 0,0.660425 0.310059,1.044897 0.310058,0.384473 0.812353,0.384473 0.517798,0 0.821655,-0.37207 0.303858,-0.375171 0.303858,-1.038697 0,-0.69143 -0.294556,-1.075903 -0.294555,-0.384473 -0.806152,-0.384473 z"
         style="fill:#000000"
         id="path272" />
    </g>
  </g>
  <metadata
     id="metadata13212">
    <rdf:RDF>
      <cc:Work
         rdf:about="">
        <dc:title>SVG Image created as ES_Daisy_Patch_SM_FB_Rev1-brd.svg date 2024/04/30 13:34:42 </dc:title>
      </cc:Work>
    </rdf:RDF>
  </metadata>
  <g
     inkscape:groupmode="layer"
     id="layer3"
     inkscape:label="components"
     style="display:inline" />
</svg>
