<?xml version="1.0" encoding="UTF-8" standalone="no"?>
<svg
   version="1.1"
   width="71.120003mm"
   height="128.5mm"
   viewBox="0 0 71.120003 128.5"
   id="svg8664"
   sodipodi:docname="snecho_src.svg"
   inkscape:version="1.2.2 (732a01da63, 2022-12-09)"
   xmlns:inkscape="http://www.inkscape.org/namespaces/inkscape"
   xmlns:sodipodi="http://sodipodi.sourceforge.net/DTD/sodipodi-0.dtd"
   xmlns="http://www.w3.org/2000/svg"
   xmlns:svg="http://www.w3.org/2000/svg"
   xmlns:rdf="http://www.w3.org/1999/02/22-rdf-syntax-ns#"
   xmlns:cc="http://creativecommons.org/ns#"
   xmlns:dc="http://purl.org/dc/elements/1.1/">
  <defs
     id="defs8668" />
  <sodipodi:namedview
     id="namedview8666"
     pagecolor="#ffffff"
     bordercolor="#000000"
     borderopacity="0.25"
     inkscape:showpageshadow="2"
     inkscape:pageopacity="0.0"
     inkscape:pagecheckerboard="0"
     inkscape:deskcolor="#d1d1d1"
     inkscape:document-units="mm"
     showgrid="false"
     showguides="true"
     inkscape:zoom="2.3702752"
     inkscape:cx="89.862983"
     inkscape:cy="271.69841"
     inkscape:window-width="1920"
     inkscape:window-height="1017"
     inkscape:window-x="-8"
     inkscape:window-y="-8"
     inkscape:window-maximized="1"
     inkscape:current-layer="layer3">
    <inkscape:grid
       type="xygrid"
       id="grid13701"
       originx="0"
       originy="0" />
  </sodipodi:namedview>
  <title
     id="title2">SVG Image created as ES_Daisy_Patch_SM_FB_Rev1-brd.svg date 2024/04/30 13:34:42 </title>
  <desc
     id="desc4">Image generated by PCBNEW </desc>
  <g
     style="display:none;fill:#000000;fill-opacity:1;stroke:#000000;stroke-linecap:round;stroke-linejoin:round;stroke-opacity:1"
     id="g6" />
  <g
     inkscape:groupmode="layer"
     id="layer2"
     inkscape:label="holes"
     style="display:inline;fill:#280b0b"
     sodipodi:insensitive="true">
    <g
       inkscape:label="EuroPanel"
       id="g721">
      <rect
         style="fill:#e6e6e6;stroke:none;stroke-width:0mm"
         height="128.5"
         width="70.760002"
         x="0"
         y="0"
         rx="0"
         ry="0"
         id="rect711" />
      <rect
         style="fill:#ffffff;stroke:none;stroke-width:0mm"
         height="3.2"
         width="5.5"
         x="4.75"
         y="123.9"
         rx="1.6"
         ry="0"
         id="rect713" />
      <rect
         style="fill:#ffffff;stroke:none;stroke-width:0mm"
         height="3.2"
         width="5.5"
         x="4.75"
         y="1.4"
         rx="1.6"
         ry="0"
         id="rect715" />
      <rect
         style="fill:#ffffff;stroke:none;stroke-width:0mm"
         height="3.2"
         width="5.5"
         x="60.630001"
         y="123.9"
         rx="1.6"
         ry="0"
         id="rect717" />
      <rect
         style="fill:#ffffff;stroke:none;stroke-width:0mm"
         height="3.2"
         width="5.5"
         x="60.630001"
         y="1.4"
         rx="1.6"
         ry="0"
         id="rect719" />
    </g>
  </g>
  <g
     inkscape:groupmode="layer"
     id="layer1"
     inkscape:label="bg"
     style="display:inline">
    <rect
       style="display:inline;fill:#000000;stroke:none;stroke-width:0;stroke-dasharray:none"
       id="rect5959"
       width="23.218121"
       height="9.0416718"
       x="41.899002"
       y="111.60073" />
    <path
       style="fill:#000000;stroke:none;stroke-width:0.264583"
       id="path610"
       d="m 21.2842,59.442016 c 0.04913,1.197885 0.08018,2.397384 0.06852,3.596312 -0.0351,0.191267 0.03167,0.739923 -0.164773,0.899662 -0.02592,0.02109 -0.06713,7.94e-4 -0.09999,0.0067 -0.09692,0.01762 -0.191306,0.04811 -0.288527,0.06402 -0.203853,0.03336 -0.409346,0.05577 -0.614018,0.08366 -0.38841,0.02191 -0.776533,0.04966 -1.165228,0.06573 -0.665714,0.02752 -2.497812,0.06814 -3.133884,0.08556 -1.380762,0.03781 -2.761287,0.08455 -4.141825,0.129638 -1.014408,0.03055 -2.028565,0.07198 -3.0432942,0.09097 -0.3687095,5.29e-4 -0.7354784,-2.65e-4 -1.1025137,0.03771 -0.3184379,0.04339 -0.6503506,0.01773 -0.9297693,0.208494 -0.083282,0.05686 -0.1453108,0.139853 -0.2179659,0.20978 -0.059112,0.09803 -0.1264073,0.191577 -0.1773354,0.294103 -0.2316168,0.466273 -0.360068,1.015934 -0.4836731,1.516385 -0.2235629,0.905164 -0.3168097,1.414465 -0.510268,2.358237 -0.3778957,1.968047 -0.73791,3.948893 -0.8662628,5.952027 -0.074011,1.155049 -0.052801,1.665726 -0.047222,2.80448 0.056101,1.751121 0.2123461,3.496614 0.314896,5.245232 0.054527,0.404918 -0.047693,1.27943 0.2217332,1.61091 0.329696,0.405633 0.5461217,0.392094 1.0087605,0.522018 0.1850596,0.024 0.369438,0.05402 0.5551789,0.07201 0.2174118,0.02106 0.9077116,0.0545 1.1327011,0.06909 0.4540385,0.02943 0.9023765,0.08026 1.3534493,0.137848 0.7014284,0.08943 0.8279058,-0.902536 0.1264774,-0.991971 v 0 c -0.4743339,-0.0604 -0.9462127,-0.113331 -1.423611,-0.14429 -0.1696103,-0.01101 -0.8882348,-0.04766 -1.0663618,-0.06312 -0.1474168,-0.01281 -0.2939751,-0.03407 -0.4409625,-0.0511 -0.093289,-0.01611 -0.1865781,-0.0322 -0.2798673,-0.0483 -0.021238,0.02207 -0.033504,0.06115 -0.063711,0.0662 -0.024402,0.0041 -0.052469,-0.02177 -0.058405,-0.0458 -0.022998,-0.09306 -0.018,-0.190918 -0.023741,-0.286608 -0.0181,-0.301617 -0.019476,-0.604104 -0.043356,-0.905441 C 5.5777883,81.30125 5.4238969,79.573455 5.366159,77.840223 5.360099,76.747978 5.339294,76.23753 5.409292,75.13145 c 0.1244277,-1.966153 0.479792,-3.910168 0.8500173,-5.841815 0.2543183,-1.24207 0.4712703,-2.509927 0.9315249,-3.696708 -2.91e-4,-0.0097 0.00794,-0.02508 -8.996e-4,-0.02896 -0.020135,-0.0088 -0.083786,0.01252 -0.065947,-2.64e-4 0.092994,-0.06696 0.4565978,-0.01836 0.5790461,-0.06717 0.3384021,-0.0361 0.6768333,-0.02956 1.0168909,-0.03242 1.0193644,-0.01913 2.0381604,-0.06052 3.0572014,-0.09133 1.378016,-0.045 2.756019,-0.09167 4.134259,-0.129418 0.600565,-0.01646 2.539879,-0.05976 3.166825,-0.08693 0.418288,-0.01812 0.835873,-0.0499 1.25381,-0.07485 0.456198,-0.0719 0.959691,-0.09631 1.370488,-0.347991 0.604408,-0.370305 0.629519,-1.057817 0.65018,-1.685734 0.01147,-1.24338 -0.0172,-2.487859 -0.0762,-3.729818 -0.08771,-0.701646 -1.079984,-0.577612 -0.992278,0.124034 z" />
    <path
       style="fill:#000000;stroke:none;stroke-width:0.264583"
       id="path612"
       d="m 33.545801,75.204126 c -0.0036,0.717402 0.02212,1.435058 -0.04318,2.150263 -0.01781,0.07133 -0.01992,0.148537 -0.05339,0.213993 -0.01995,0.03899 -0.172024,0.02183 -0.179872,0.02297 -0.121949,0.01765 -0.241218,0.05101 -0.362934,0.07021 -0.627544,0.09897 -0.76377,0.09853 -1.436732,0.158899 -1.347724,0.08235 -2.695152,0.171037 -4.043895,0.235325 -0.456871,0.0061 -0.908634,0.07792 -1.363398,0.113358 -0.382693,0.0172 -0.761376,-0.0019 -1.022459,0.350039 -0.08191,0.110439 -0.109831,0.252111 -0.164746,0.378166 -0.06281,0.635474 -0.04844,0.320575 -0.04537,0.9446 0.0055,0.707083 1.005461,0.69932 0.99997,-0.0078 v 0 c -0.0052,-0.467074 -0.0035,-0.26012 -0.0058,-0.62085 -0.04798,-0.08783 0.0026,-0.02936 -0.140692,-0.0091 -0.01126,0.0016 -0.04226,-0.01233 -0.03104,-0.01416 0.159431,-0.02598 0.328661,0.0055 0.488296,-0.02402 0.444618,-0.03502 0.886324,-0.10428 1.332906,-0.11144 1.362917,-0.06503 2.724526,-0.154331 4.086368,-0.238257 0.499843,-0.04558 1.078487,-0.08354 1.576247,-0.181552 0.398793,-0.07852 0.751483,-0.15412 1.051965,-0.451879 0.243136,-0.240937 0.246338,-0.439603 0.31069,-0.740103 0.06457,-0.744977 0.04717,-1.491567 0.0471,-2.238722 0,-0.707107 -1,-0.707107 -1,0 z" />
    <path
       style="fill:#000000;stroke:none;stroke-width:0.264583"
       id="path620"
       d="m 52.517518,79.580488 c 0.07579,-0.902846 0.134234,-1.806395 0.171858,-2.711731 0.03322,-0.886851 0.04675,-1.774248 0.05165,-2.661653 0.0024,-0.794152 0.0011,-1.588309 5.29e-4,-2.382464 -5.29e-4,-0.902266 -7.94e-4,-1.804535 -7.94e-4,-2.706804 0.0044,-0.967237 0.0096,-1.933424 -0.04603,-2.899304 -0.06053,-1.098375 -0.150805,-2.194433 -0.25893,-3.289035 -0.07771,-0.693161 -0.11766,-1.388933 -0.134564,-2.085928 -0.0076,-0.361463 -0.0084,-0.723008 -0.0091,-1.084532 -0.0013,-0.707107 -1.001292,-0.705276 -0.999998,0.0019 v 0 c 7.94e-4,0.369041 0.0016,0.738106 0.0094,1.107086 0.0177,0.721672 0.05891,1.442124 0.139113,2.159854 0.10682,1.081185 0.196061,2.163794 0.255767,3.248713 0.05545,0.946549 0.04766,1.893522 0.04435,2.841424 9.8e-5,0.902419 2.65e-4,1.804839 7.94e-4,2.707261 5.29e-4,0.792129 0.0019,1.584262 -5.29e-4,2.376387 -0.0048,0.875422 -0.01812,1.750836 -0.05081,2.625712 -0.03807,0.91921 -0.101914,1.836142 -0.172717,2.753183 0,0.707107 1.000001,0.707107 1.000001,0 z" />
    <path
       style="fill:#000000;stroke:none;stroke-width:0.264583"
       id="path622"
       d="m 41.533259,41.913087 c 0.657868,0.03411 1.311418,0.146066 1.950514,0.302723 0.621519,0.210135 0.636124,0.42894 0.815771,1.02394 0.267944,1.183259 0.318527,2.399239 0.368065,3.606964 0.05037,1.26923 0.06343,2.537857 -0.04887,3.80369 -0.06603,0.807323 -0.193193,1.607357 -0.284913,2.411685 -0.05768,0.351322 -0.128289,0.699497 -0.161984,1.054198 -0.02891,0.488294 -0.02275,0.977974 -0.0232,1.466911 1.64e-4,0.802293 7.94e-4,1.604586 0.0011,2.40688 2.64e-4,0.870516 2.64e-4,1.741032 5.29e-4,2.611546 1.8e-5,0.936678 1e-5,1.873356 8e-6,2.810033 -0.0064,1.131663 -0.006,2.262336 0.04566,3.392962 0.07503,1.259871 0.12904,2.520508 0.157941,3.782242 -0.0042,0.951955 0.05192,1.90119 0.121541,2.85002 0.09165,0.96832 0.183314,1.936806 0.287957,2.903813 0.09045,0.711999 0.132667,1.42834 0.156369,2.145239 -0.0026,0.526947 0.05172,1.051017 0.08188,1.576528 0.02532,0.651094 0.03645,1.301887 0.07306,1.952511 -0.02024,0.253751 0.09138,0.601599 -0.0046,0.850733 -1.6e-5,4e-5 -0.164711,0.04424 -0.202078,0.05854 -0.06567,-0.01265 -0.03689,-0.0016 -0.08775,-0.02928 -0.705863,-0.04193 -0.765159,0.956313 -0.0593,0.998241 v 0 c 0.4068,5.29e-4 0.200539,0.02619 0.617474,-0.08652 0.23675,-0.138242 0.386065,-0.193546 0.551114,-0.436973 0.287094,-0.423426 0.207502,-0.933013 0.183536,-1.410938 -0.03666,-0.651034 -0.04683,-1.302282 -0.07313,-1.953768 -0.02987,-0.517446 -0.08361,-1.033367 -0.08078,-1.552236 -0.02471,-0.741794 -0.06845,-1.483024 -0.161637,-2.219794 -0.103666,-0.955481 -0.193656,-1.912519 -0.284821,-2.869268 -0.0684,-0.932111 -0.123722,-1.864556 -0.119123,-2.799763 -0.02913,-1.269389 -0.08319,-2.53769 -0.158732,-3.805206 -0.05148,-1.115316 -0.0504,-2.23072 -0.0446,-3.347074 5e-6,-0.936691 1.3e-5,-1.873382 -6e-6,-2.810073 -3.1e-5,-0.870638 -7.9e-5,-1.741276 -5.29e-4,-2.611917 -2.64e-4,-0.801862 -0.0011,-1.603724 -0.0011,-2.405586 5.29e-4,-0.458269 -0.0048,-0.917117 0.01886,-1.37492 0.03171,-0.348044 0.109828,-0.688364 0.159887,-1.033974 0.09235,-0.812805 0.221433,-1.621202 0.287478,-2.437077 0.114422,-1.308785 0.105484,-2.620242 0.05188,-3.932491 -0.05337,-1.29435 -0.10972,-2.598518 -0.412562,-3.863583 -0.308677,-0.96642 -0.532168,-1.373439 -1.534965,-1.698112 -0.716851,-0.171945 -1.448088,-0.30117 -2.185977,-0.330838 -0.707107,0 -0.707107,0.999998 0,0.999998 z" />
    <path
       style="fill:#000000;stroke:none;stroke-width:0.264583"
       id="path624"
       d="m 12.858839,117.26035 c 0.456211,-0.004 0.912005,0.0261 1.367393,0.0499 0.706149,0.0368 0.758176,-0.96185 0.05203,-0.99864 v 0 c -0.472714,-0.0246 -0.945852,-0.0557 -1.41942,-0.0512 -0.707107,0 -0.707107,1 0,1 z" />
    <path
       style="fill:#000000;stroke:none;stroke-width:0.264583"
       id="path626"
       d="m 13.443154,116.06441 c 0.399765,0.35927 0.76575,0.75832 1.083853,1.19142 0.04389,0.0697 0.176355,0.23581 0.169316,0.34857 -0.0025,0.0409 -0.0774,0.0278 -0.113546,0.047 -0.09322,0.0498 -0.181445,0.10849 -0.274402,0.15874 -0.603241,0.36892 -0.08151,1.22202 0.521729,0.85311 v 0 c 0.254667,-0.16495 0.447565,-0.25498 0.623715,-0.52064 0.35097,-0.52931 0.21425,-1.00667 -0.1236,-1.48252 -0.350991,-0.46964 -0.742197,-0.91172 -1.179958,-1.30284 -0.5,-0.5 -1.207107,0.20711 -0.707107,0.70711 z" />
    <path
       style="fill:#000000;stroke:none;stroke-width:0.264583"
       id="path628"
       d="m 48.810446,122.48687 c 0.70987,0.56535 1.523228,0.96416 2.378689,1.25877 0.284306,0.0979 0.574728,0.17706 0.862092,0.26559 1.343859,0.3242 2.768119,0.61451 4.156067,0.63653 0.192265,0.003 0.384474,-0.009 0.57671,-0.0134 0.439732,-0.016 0.864711,-0.0664 1.259258,-0.27534 0.108593,-0.0575 0.203507,-0.13779 0.305257,-0.20668 0.575101,-0.41141 -0.0067,-1.22473 -0.581821,-0.81332 v 0 c -0.338653,0.27133 -0.568791,0.27433 -1.008261,0.29566 -0.167886,0.005 -0.335716,0.0163 -0.503655,0.0142 -0.510019,-0.006 -0.839423,-0.0455 -1.356662,-0.112 -0.85974,-0.11056 -1.715886,-0.25581 -2.553684,-0.4817 -1.041345,-0.3178 -2.083025,-0.66093 -2.933991,-1.36832 -0.565685,-0.42427 -1.165686,0.37574 -0.599999,0.8 z" />
    <path
       style="fill:#000000;stroke:none;stroke-width:0.264583"
       id="path630"
       d="m 58.095985,122.4866 c 0.426286,-0.0477 0.861216,-0.0681 1.27703,0.0493 0.04565,0.0431 0.06521,0.048 0.08088,0.10757 0.04348,0.16519 -0.02994,0.52106 -0.05208,0.6781 -0.07097,0.29423 -0.160308,0.58353 -0.246605,0.8735 -0.201655,0.67774 0.756817,0.96292 0.958472,0.28518 v 0 c 0.101288,-0.3405 0.207907,-0.67997 0.279609,-1.02839 0.07946,-0.6388 0.139168,-1.30977 -0.464344,-1.72889 -0.09381,-0.0652 -0.203652,-0.10347 -0.30548,-0.1552 -0.555887,-0.13616 -1.124759,-0.14797 -1.691881,-0.0676 -0.697484,0.11625 -0.533085,1.10265 0.164399,0.9864 z" />
    <path
       style="fill:#000000;stroke:none;stroke-width:0.264583"
       id="path632"
       d="m 8.6981166,83.955672 c 0.1905453,0.174109 0.589248,0.525349 0.5822755,0.802264 -8.996e-4,0.03532 -0.018949,0.06807 -0.028422,0.102103 -0.1968275,0.400442 -0.6292331,0.646136 -0.9906402,0.884394 -0.079094,0.05315 -0.1581872,0.106307 -0.2372807,0.159461 -0.5868741,0.394436 -0.029059,1.224399 0.557815,0.829966 v 0 c 0.077321,-0.05197 0.154642,-0.103944 0.2319631,-0.155913 0.5097322,-0.339437 1.106053,-0.715936 1.3411107,-1.312513 0.04775,-0.121185 0.06445,-0.252405 0.09667,-0.378609 -0.0048,-0.139901 0.01099,-0.282051 -0.01444,-0.419706 C 10.140658,83.944737 9.7246571,83.536315 9.3489059,83.196416 8.8120303,82.736237 8.161239,83.495493 8.6981145,83.955672 Z" />
    <path
       style="fill:#000000;stroke:none;stroke-width:0.264583"
       id="path634"
       d="m 23.730412,79.484068 c 0.211747,0.382328 0.401024,0.786543 0.717884,1.096423 0.06294,0.06156 0.134465,0.113689 0.201697,0.170532 0.545971,0.365339 1.131359,0.303435 1.734282,0.139808 0.290215,-0.09824 0.532621,-0.269158 0.772346,-0.452966 0.555702,-0.437261 -0.06268,-1.22314 -0.618379,-0.785882 v 0 c -0.133061,0.109506 -0.270647,0.210254 -0.430866,0.27795 -0.255493,0.08132 -0.56956,0.155515 -0.825802,0.04578 -0.329749,-0.248163 -0.485209,-0.636714 -0.682919,-0.987785 -0.350823,-0.613941 -1.219066,-0.117803 -0.868243,0.496139 z" />
    <path
       style="fill:#000000;stroke:none;stroke-width:0.264583"
       id="path638"
       d="m 43.712992,82.2659 c -0.312915,0.311049 -0.749475,0.733496 -0.864949,1.170297 -0.03374,0.127611 -0.02945,0.262345 -0.04418,0.393517 0.05624,0.148347 0.08196,0.312219 0.168722,0.445043 0.263482,0.403365 0.870688,0.603287 1.303737,0.747792 0.671967,0.220136 0.983284,-0.730171 0.311316,-0.950307 v 0 c -0.23278,-0.07436 -0.249385,-0.07231 -0.473434,-0.173614 -0.06455,-0.02919 -0.124958,-0.0672 -0.190207,-0.09478 -0.02522,-0.01066 -0.05481,-0.03047 -0.07985,-0.01937 -0.0254,0.01127 -0.02711,0.04854 -0.04067,0.0728 -0.01077,-0.0122 -0.03323,-0.02032 -0.03232,-0.03658 0.01238,-0.220361 0.409575,-0.605877 0.566523,-0.773941 0.552159,-0.441724 -0.07253,-1.222594 -0.624694,-0.780867 z" />
    <path
       style="fill:#000000;stroke:none;stroke-width:0.264583"
       id="path640"
       d="m 49.783872,78.376131 c 0.273521,0.664964 0.735166,1.221891 1.202365,1.758725 0.388541,0.390731 0.841954,0.826093 1.434198,0.826661 0.116609,1.14e-4 0.230785,-0.03361 0.346178,-0.05041 0.111421,-0.0505 0.228727,-0.08965 0.334266,-0.151511 0.174467,-0.102267 0.397383,-0.305525 0.549948,-0.439034 0.252822,-0.22125 0.495448,-0.452448 0.741762,-0.680823 0.518485,-0.480806 -0.161478,-1.214051 -0.679961,-0.733245 v 0 c -0.376785,0.349461 -0.746519,0.709012 -1.151612,1.025974 -0.268759,0.173673 -0.648296,-0.307152 -0.820979,-0.454712 -0.382023,-0.437455 -0.762666,-0.885706 -1.007483,-1.417852 -0.223607,-0.670819 -1.172289,-0.354592 -0.948682,0.31623 z" />
  </g>
  <g
     inkscape:groupmode="layer"
     id="layer4"
     inkscape:label="fg">
    <text
       xml:space="preserve"
       style="display:inline;font-weight:normal;font-size:3.52777778px;font-family:'Segoe UI';-inkscape-font-specification:'Segoe UI';fill:#ffff00;stroke:none;stroke-width:0.264583;font-style:normal;font-stretch:normal;font-variant:normal"
       x="17.303143"
       y="25.093987"
       id="text1062"><tspan
         sodipodi:role="line"
         id="tspan1060"
         style="fill:#000000;stroke-width:0.264583;-inkscape-font-specification:'Segoe UI';font-family:'Segoe UI';font-weight:normal;font-style:normal;font-stretch:normal;font-variant:normal;font-size:3.52777778px"
         x="17.303143"
         y="25.093987">Filter 0Fh </tspan></text>
    <text
       xml:space="preserve"
       style="display:inline;font-style:normal;font-variant:normal;font-weight:normal;font-stretch:normal;font-size:3.52778px;font-family:'Segoe UI';-inkscape-font-specification:'Segoe UI';fill:#ffff00;stroke:none;stroke-width:0.264583"
       x="41.223801"
       y="35.809479"
       id="text1062-6"><tspan
         sodipodi:role="line"
         id="tspan1060-3"
         style="font-style:normal;font-variant:normal;font-weight:normal;font-stretch:normal;font-size:3.52778px;font-family:'Segoe UI';-inkscape-font-specification:'Segoe UI';fill:#000000;stroke-width:0.264583"
         x="41.223801"
         y="35.809479">Feedback 0Dh</tspan></text>
    <text
       xml:space="preserve"
       style="display:inline;font-style:normal;font-variant:normal;font-weight:normal;font-stretch:normal;font-size:3.52778px;font-family:'Segoe UI';-inkscape-font-specification:'Segoe UI';fill:#ffff00;stroke:none;stroke-width:0.264583"
       x="53.442661"
       y="47.840549"
       id="text1062-60"><tspan
         sodipodi:role="line"
         id="tspan1060-2"
         style="font-style:normal;font-variant:normal;font-weight:normal;font-stretch:normal;font-size:3.52778px;font-family:'Segoe UI';-inkscape-font-specification:'Segoe UI';fill:#000000;stroke-width:0.264583"
         x="53.442661"
         y="47.840549">Delay 7Dh</tspan></text>
    <text
       xml:space="preserve"
       style="display:inline;font-style:normal;font-variant:normal;font-weight:normal;font-stretch:normal;font-size:3.52778px;font-family:'Segoe UI';-inkscape-font-specification:'Segoe UI';fill:#ffff00;stroke:none;stroke-width:0.264583"
       x="11.964632"
       y="72.288956"
       id="text1062-4"><tspan
         sodipodi:role="line"
         id="tspan1060-6"
         style="font-style:normal;font-variant:normal;font-weight:normal;font-stretch:normal;font-size:3.52778px;font-family:'Segoe UI';-inkscape-font-specification:'Segoe UI';fill:#000000;stroke-width:0.264583"
         x="11.964632"
         y="72.288956">Delay Mod</tspan></text>
    <text
       xml:space="preserve"
       style="display:inline;font-style:normal;font-variant:normal;font-weight:normal;font-stretch:normal;font-size:3.52778px;font-family:'Segoe UI';-inkscape-font-specification:'Segoe UI';fill:#ffff00;stroke:none;stroke-width:0.264583"
       x="3.0307519"
       y="59.808979"
       id="text1062-7"><tspan
         sodipodi:role="line"
         id="tspan1060-9"
         style="font-style:normal;font-variant:normal;font-weight:normal;font-stretch:normal;font-size:3.52778px;font-family:'Segoe UI';-inkscape-font-specification:'Segoe UI';fill:#000000;stroke-width:0.264583"
         x="3.0307519"
         y="59.808979">Mix 2Ch</tspan></text>
    <text
       xml:space="preserve"
       style="display:inline;font-weight:normal;font-size:3.52777778px;font-family:'Segoe UI';-inkscape-font-specification:'Segoe UI';fill:#ffff00;stroke:none;stroke-width:0.264583;font-style:normal;font-stretch:normal;font-variant:normal"
       x="22.513302"
       y="110.12789"
       id="text1062-4-5"><tspan
         sodipodi:role="line"
         id="tspan1060-6-2"
         style="fill:#000000;stroke-width:0.264583;-inkscape-font-specification:'Segoe UI';font-family:'Segoe UI';font-weight:normal;font-style:normal;font-stretch:normal;font-variant:normal;font-size:3.52777778px"
         x="22.513302"
         y="110.12789">In</tspan><tspan
         sodipodi:role="line"
         style="fill:#000000;stroke-width:0.264583;-inkscape-font-specification:'Segoe UI';font-family:'Segoe UI';font-weight:normal;font-style:normal;font-stretch:normal;font-variant:normal;font-size:3.52777778px"
         x="22.513302"
         y="115.41956"
         id="tspan1432" /></text>
    <text
       xml:space="preserve"
       style="display:inline;font-weight:normal;font-size:3.52777778px;font-family:'Segoe UI';-inkscape-font-specification:'Segoe UI';fill:#ffff00;stroke:none;stroke-width:0.264583;font-style:normal;font-stretch:normal;font-variant:normal"
       x="58.022896"
       y="110.12686"
       id="text1062-4-5-4"><tspan
         sodipodi:role="line"
         id="tspan1060-6-2-8"
         style="fill:#000000;stroke-width:0.264583;-inkscape-font-specification:'Segoe UI';font-family:'Segoe UI';font-weight:normal;font-style:normal;font-stretch:normal;font-variant:normal;font-size:3.52777778px"
         x="58.022896"
         y="110.12686">Out</tspan><tspan
         sodipodi:role="line"
         style="fill:#000000;stroke-width:0.264583;-inkscape-font-specification:'Segoe UI';font-family:'Segoe UI';font-weight:normal;font-style:normal;font-stretch:normal;font-variant:normal;font-size:3.52777778px"
         x="58.022896"
         y="115.41853"
         id="tspan1432-6" /></text>
    <text
       xml:space="preserve"
       style="display:inline;font-weight:bold;font-size:6.35px;font-family:'Segoe UI';-inkscape-font-specification:'Segoe UI Bold';fill:#ffff00;stroke:none;stroke-width:0.264583"
       x="22.782042"
       y="14.043054"
       id="text1062-1"><tspan
         sodipodi:role="line"
         id="tspan1060-26"
         style="font-size:6.35px;fill:#000000;stroke-width:0.264583"
         x="22.782042"
         y="14.043054">SNECHO</tspan></text>
    <text
       xml:space="preserve"
       style="display:inline;font-style:normal;font-variant:normal;font-weight:normal;font-stretch:normal;font-size:3.52778px;font-family:'Segoe UI';-inkscape-font-specification:'Segoe UI';fill:#ffff00;stroke:none;stroke-width:0.264583"
       x="16.700367"
       y="103.46342"
       id="text1062-4-5-7"><tspan
         sodipodi:role="line"
         id="tspan1060-6-2-5"
         style="font-style:normal;font-variant:normal;font-weight:normal;font-stretch:normal;font-size:3.52778px;font-family:'Segoe UI';-inkscape-font-specification:'Segoe UI';fill:#000000;stroke-width:0.264583"
         x="16.700367"
         y="103.46342">Freeze</tspan><tspan
         sodipodi:role="line"
         style="font-style:normal;font-variant:normal;font-weight:normal;font-stretch:normal;font-size:3.52778px;font-family:'Segoe UI';-inkscape-font-specification:'Segoe UI';fill:#000000;stroke-width:0.264583"
         x="16.700367"
         y="107.87315"
         id="tspan1432-8" /></text>
    <text
       xml:space="preserve"
       style="display:inline;font-style:normal;font-variant:normal;font-weight:normal;font-stretch:normal;font-size:3.52778px;font-family:'Segoe UI';-inkscape-font-specification:'Segoe UI';fill:#ffff00;stroke:none;stroke-width:0.264583"
       x="37.875992"
       y="103.53405"
       id="text1062-4-5-7-5"><tspan
         sodipodi:role="line"
         id="tspan1060-6-2-5-7"
         style="font-style:normal;font-variant:normal;font-weight:normal;font-stretch:normal;font-size:3.52778px;font-family:'Segoe UI';-inkscape-font-specification:'Segoe UI';fill:#000000;stroke-width:0.264583"
         x="37.875992"
         y="103.53405">Clear</tspan><tspan
         sodipodi:role="line"
         style="font-style:normal;font-variant:normal;font-weight:normal;font-stretch:normal;font-size:3.52778px;font-family:'Segoe UI';-inkscape-font-specification:'Segoe UI';fill:#000000;stroke-width:0.264583"
         x="37.875992"
         y="107.94377"
         id="tspan1432-8-1" /></text>
    <text
       xml:space="preserve"
       style="display:inline;font-weight:normal;font-size:3.52777778px;font-family:'Segoe UI';-inkscape-font-specification:'Segoe UI';fill:#ffff00;stroke:none;stroke-width:0.264583;font-style:normal;font-stretch:normal;font-variant:normal"
       x="58.40416"
       y="103.45514"
       id="text1062-4-5-7-5-6"><tspan
         sodipodi:role="line"
         id="tspan1060-6-2-5-7-1"
         style="fill:#000000;stroke-width:0.264583;-inkscape-font-specification:'Segoe UI';font-family:'Segoe UI';font-weight:normal;font-style:normal;font-stretch:normal;font-variant:normal;font-size:3.52777778px"
         x="58.40416"
         y="103.45514">Reset</tspan><tspan
         sodipodi:role="line"
         style="fill:#000000;stroke-width:0.264583;-inkscape-font-specification:'Segoe UI';font-family:'Segoe UI';font-weight:normal;font-style:normal;font-stretch:normal;font-variant:normal;font-size:3.52777778px"
         x="58.40416"
         y="108.7468"
         id="tspan1432-8-1-2" /></text>
  </g>
  <metadata
     id="metadata13212">
    <rdf:RDF>
      <cc:Work
         rdf:about="">
        <dc:title>SVG Image created as ES_Daisy_Patch_SM_FB_Rev1-brd.svg date 2024/04/30 13:34:42 </dc:title>
      </cc:Work>
    </rdf:RDF>
  </metadata>
  <g
     inkscape:groupmode="layer"
     id="layer3"
     inkscape:label="components"
     style="display:inline">
    <circle
       style="display:inline;fill:#ff0000;stroke-width:0.264583"
       id="path13156-4-8-0-1"
       cx="35.609165"
       cy="68.519226"
       r="4.5999999"
       inkscape:label="delay mod" />
    <circle
       style="fill:#ff0000;stroke-width:0.264583"
       id="circle13473"
       cx="50.807682"
       cy="52.662216"
       r="4.5999999"
       inkscape:label="delay" />
    <circle
       style="fill:#ff0000;stroke-width:0.264583"
       id="circle13475"
       cx="35.609165"
       cy="39.825272"
       r="4.5999999"
       inkscape:label="feedback" />
    <circle
       style="fill:#ff0000;stroke-width:0.264583"
       id="circle13475-1"
       cx="21.830978"
       cy="52.662216"
       r="4.5999999"
       inkscape:label="mix" />
    <circle
       style="fill:#0000ff;stroke-width:0.264583"
       id="path13156-4-87"
       cx="59.939499"
       cy="115.96852"
       r="3.05"
       inkscape:label="audio R out" />
    <circle
       style="fill:#0000ff;stroke-width:0.264583"
       id="path13156-4-2"
       cx="47.772797"
       cy="115.96852"
       r="3.05"
       inkscape:label="audio L out" />
    <circle
       style="display:inline;fill:#00ff00;stroke-width:0.264583"
       id="path13156-4-87-6"
       cx="20.033009"
       cy="115.96852"
       r="3.05"
       inkscape:label="audio R" />
    <circle
       style="display:inline;fill:#00ff00;stroke-width:0.264583"
       id="path13156-4-2-9"
       cx="7.8663063"
       cy="115.96852"
       r="3.05"
       inkscape:label="audio L" />
    <circle
       style="display:inline;fill:#ff0000;stroke-width:0.264583"
       id="circle13475-0"
       cx="10.659046"
       cy="23.552996"
       r="4.5999999"
       inkscape:label="filter" />
    <circle
       style="display:inline;fill:#00ff00;stroke-width:0.264583"
       id="path13156-4-87-6-7"
       cx="26.430981"
       cy="83.942436"
       r="3.05"
       inkscape:label="delay mod cv" />
    <circle
       style="display:inline;fill:#00ff00;stroke-width:0.264583"
       id="path13156-4-2-9-8"
       cx="14.264277"
       cy="83.942436"
       r="3.05"
       inkscape:label="mix cv" />
    <circle
       style="display:inline;fill:#00ff00;stroke-width:0.264583"
       id="path13156-4-87-6-1"
       cx="52.375866"
       cy="83.942436"
       r="3.05"
       inkscape:label="delay cv" />
    <circle
       style="display:inline;fill:#00ff00;stroke-width:0.264583"
       id="path13156-4-2-9-3"
       cx="40.209164"
       cy="83.942436"
       r="3.05"
       inkscape:label="feedback cv" />
    <circle
       style="display:inline;fill:#00ff00;stroke-width:0.264583"
       id="path13156-4-2-9-4"
       cx="11.832312"
       cy="102.24903"
       r="3.05"
       inkscape:label="freeze cv" />
    <circle
       style="display:inline;fill:#00ff00;stroke-width:0.264583"
       id="path13156-4-2-9-32"
       cx="32.706295"
       cy="102.24903"
       r="3.05"
       inkscape:label="clear cv" />
    <circle
       style="display:inline;fill:#00ff00;stroke-width:0.264583"
       id="path13156-4-2-9-1"
       cx="53.508064"
       cy="102.24903"
       r="3.05"
       inkscape:label="reset cv" />
    <circle
       style="display:inline;fill:#ffff00;stroke:none;stroke-width:0.323397"
       id="path355-3"
       cx="56.895092"
       cy="23.552996"
       r="1.5"
       inkscape:label="light4" />
    <circle
       style="display:inline;fill:#ffff00;stroke:none;stroke-width:0.323397"
       id="path355-2"
       cx="61.48782"
       cy="23.552996"
       r="1.5"
       inkscape:label="light3" />
    <circle
       style="display:inline;fill:#ffff00;stroke:none;stroke-width:0.323397"
       id="path355-8"
       cx="52.302364"
       cy="23.552996"
       r="1.5"
       inkscape:label="light2" />
    <circle
       style="display:inline;fill:#ffff00;stroke:none;stroke-width:0.323397"
       id="path355-1"
       cx="47.709633"
       cy="23.552996"
       r="1.5"
       inkscape:label="light1" />
    <circle
       style="display:inline;fill:#ffff00;stroke:none;stroke-width:0.323397"
       id="path355"
       cx="43.116905"
       cy="23.552996"
       r="1.5"
       inkscape:label="light0" />
    <ellipse
       style="display:inline;fill:#ff0000;stroke-width:0.264583"
       id="circle13475-0-6"
       cx="20.033009"
       cy="94.993362"
       inkscape:label="freeze"
       rx="2.8080599"
       ry="2.8139906" />
    <ellipse
       style="display:inline;fill:#ff0000;stroke-width:0.264583"
       id="circle13475-0-6-9"
       cx="41.899006"
       cy="94.993362"
       inkscape:label="clear"
       rx="2.8080599"
       ry="2.8139906" />
    <ellipse
       style="display:inline;fill:#ff0000;stroke-width:0.264583"
       id="circle13475-0-6-1"
       cx="60.983955"
       cy="94.993362"
       inkscape:label="reset"
       rx="2.8080599"
       ry="2.8139906" />
  </g>
</svg>
