<?xml version="1.0" encoding="UTF-8" standalone="no"?>
<svg
   version="1.1"
   width="71.120003mm"
   height="128.5mm"
   viewBox="0 0 71.120003 128.5"
   id="svg8664"
   sodipodi:docname="snecho_src.svg"
   inkscape:version="1.2.2 (732a01da63, 2022-12-09)"
   xmlns:inkscape="http://www.inkscape.org/namespaces/inkscape"
   xmlns:sodipodi="http://sodipodi.sourceforge.net/DTD/sodipodi-0.dtd"
   xmlns="http://www.w3.org/2000/svg"
   xmlns:svg="http://www.w3.org/2000/svg"
   xmlns:rdf="http://www.w3.org/1999/02/22-rdf-syntax-ns#"
   xmlns:cc="http://creativecommons.org/ns#"
   xmlns:dc="http://purl.org/dc/elements/1.1/">
  <defs
     id="defs8668" />
  <sodipodi:namedview
     id="namedview8666"
     pagecolor="#ffffff"
     bordercolor="#000000"
     borderopacity="0.25"
     inkscape:showpageshadow="2"
     inkscape:pageopacity="0.0"
     inkscape:pagecheckerboard="0"
     inkscape:deskcolor="#d1d1d1"
     inkscape:document-units="mm"
     showgrid="false"
     showguides="true"
     inkscape:zoom="1.1851376"
     inkscape:cx="-148.92786"
     inkscape:cy="332.45085"
     inkscape:window-width="1920"
     inkscape:window-height="1017"
     inkscape:window-x="-8"
     inkscape:window-y="-8"
     inkscape:window-maximized="1"
     inkscape:current-layer="layer3">
    <inkscape:grid
       type="xygrid"
       id="grid13701"
       originx="0"
       originy="0" />
  </sodipodi:namedview>
  <title
     id="title2">SVG Image created as ES_Daisy_Patch_SM_FB_Rev1-brd.svg date 2024/04/30 13:34:42 </title>
  <desc
     id="desc4">Image generated by PCBNEW </desc>
  <g
     style="display:none;fill:#000000;fill-opacity:1;stroke:#000000;stroke-linecap:round;stroke-linejoin:round;stroke-opacity:1"
     id="g6" />
  <g
     inkscape:groupmode="layer"
     id="layer2"
     inkscape:label="holes"
     style="fill:#280b0b"
     sodipodi:insensitive="true">
    <g
       inkscape:label="EuroPanel"
       id="g721">
      <rect
         style="fill:#e6e6e6;stroke:none;stroke-width:0mm"
         height="128.5"
         width="70.760002"
         x="0"
         y="0"
         rx="0"
         ry="0"
         id="rect711" />
      <rect
         style="fill:#ffffff;stroke:none;stroke-width:0mm"
         height="3.2"
         width="5.5"
         x="4.75"
         y="123.9"
         rx="1.6"
         ry="0"
         id="rect713" />
      <rect
         style="fill:#ffffff;stroke:none;stroke-width:0mm"
         height="3.2"
         width="5.5"
         x="4.75"
         y="1.4"
         rx="1.6"
         ry="0"
         id="rect715" />
      <rect
         style="fill:#ffffff;stroke:none;stroke-width:0mm"
         height="3.2"
         width="5.5"
         x="60.630001"
         y="123.9"
         rx="1.6"
         ry="0"
         id="rect717" />
      <rect
         style="fill:#ffffff;stroke:none;stroke-width:0mm"
         height="3.2"
         width="5.5"
         x="60.630001"
         y="1.4"
         rx="1.6"
         ry="0"
         id="rect719" />
    </g>
  </g>
  <g
     inkscape:groupmode="layer"
     id="layer1"
     inkscape:label="bg"
     style="display:inline">
    <circle
       style="fill:#ffff00;stroke:none;stroke-width:0.323397"
       id="path355-3"
       cx="56.895092"
       cy="23.552996"
       r="1.5" />
    <circle
       style="fill:#ffff00;stroke:none;stroke-width:0.323397"
       id="path355-2"
       cx="61.48782"
       cy="23.552996"
       r="1.5" />
    <circle
       style="fill:#ffff00;stroke:none;stroke-width:0.323397"
       id="path355-8"
       cx="52.302364"
       cy="23.552996"
       r="1.5" />
    <circle
       style="fill:#ffff00;stroke:none;stroke-width:0.323397"
       id="path355-1"
       cx="47.709633"
       cy="23.552996"
       r="1.5" />
    <rect
       style="fill:#000000;stroke:none;stroke-width:0;stroke-dasharray:none"
       id="rect5959"
       width="23.218121"
       height="9.0416718"
       x="41.899002"
       y="111.60073" />
    <circle
       style="fill:#ffff00;stroke:none;stroke-width:0.323397"
       id="path355"
       cx="43.116905"
       cy="23.552996"
       r="1.5" />
  </g>
  <metadata
     id="metadata13212">
    <rdf:RDF>
      <cc:Work
         rdf:about="">
        <dc:title>SVG Image created as ES_Daisy_Patch_SM_FB_Rev1-brd.svg date 2024/04/30 13:34:42 </dc:title>
      </cc:Work>
    </rdf:RDF>
  </metadata>
  <g
     inkscape:groupmode="layer"
     id="layer3"
     inkscape:label="components"
     style="display:inline">
    <circle
       style="display:inline;fill:#ff0000;stroke-width:0.264583"
       id="path13156-4-8-0-1"
       cx="35.609165"
       cy="68.519226"
       r="4.5999999"
       inkscape:label="mix" />
    <circle
       style="fill:#ff0000;stroke-width:0.264583"
       id="circle13473"
       cx="50.807682"
       cy="52.662216"
       r="4.5999999"
       inkscape:label="feedback" />
    <circle
       style="fill:#ff0000;stroke-width:0.264583"
       id="circle13475"
       cx="35.609165"
       cy="39.825272"
       r="4.5999999"
       inkscape:label="size" />
    <circle
       style="fill:#ff0000;stroke-width:0.264583"
       id="circle13475-1"
       cx="21.830978"
       cy="52.662216"
       r="4.5999999"
       inkscape:label="filter" />
    <circle
       style="fill:#0000ff;stroke-width:0.264583"
       id="path13156-4-87"
       cx="59.939499"
       cy="115.96852"
       r="3.05"
       inkscape:label="audio R" />
    <circle
       style="fill:#0000ff;stroke-width:0.264583"
       id="path13156-4-2"
       cx="47.772797"
       cy="115.96852"
       r="3.05"
       inkscape:label="audio L" />
    <circle
       style="display:inline;fill:#0000ff;stroke-width:0.264583"
       id="path13156-4-87-6"
       cx="20.033009"
       cy="115.96852"
       r="3.05"
       inkscape:label="audio R" />
    <circle
       style="display:inline;fill:#0000ff;stroke-width:0.264583"
       id="path13156-4-2-9"
       cx="7.8663063"
       cy="115.96852"
       r="3.05"
       inkscape:label="audio L" />
    <circle
       style="display:inline;fill:#ff0000;stroke-width:0.264583"
       id="circle13475-0"
       cx="10.659046"
       cy="23.552996"
       r="4.5999999"
       inkscape:label="size" />
    <text
       xml:space="preserve"
       style="font-weight:bold;font-size:4.23333px;font-family:'Segoe UI';-inkscape-font-specification:'Segoe UI Bold';fill:#ffff00;stroke:none;stroke-width:0.264583"
       x="17.303143"
       y="25.093987"
       id="text1062"><tspan
         sodipodi:role="line"
         id="tspan1060"
         style="fill:#000000;stroke-width:0.264583"
         x="17.303143"
         y="25.093987">Filter 0Fh </tspan></text>
    <text
       xml:space="preserve"
       style="font-weight:bold;font-size:4.23333px;font-family:'Segoe UI';-inkscape-font-specification:'Segoe UI Bold';display:inline;fill:#ffff00;stroke:none;stroke-width:0.264583"
       x="31.149191"
       y="32.460712"
       id="text1062-6"><tspan
         sodipodi:role="line"
         id="tspan1060-3"
         style="fill:#000000;stroke-width:0.264583"
         x="31.149191"
         y="32.460712">Feedback 0Dh</tspan></text>
    <text
       xml:space="preserve"
       style="font-weight:bold;font-size:4.23333px;font-family:'Segoe UI';-inkscape-font-specification:'Segoe UI Bold';display:inline;fill:#ffff00;stroke:none;stroke-width:0.264583"
       x="45.868687"
       y="46.166164"
       id="text1062-60"><tspan
         sodipodi:role="line"
         id="tspan1060-2"
         style="fill:#000000;stroke-width:0.264583"
         x="45.868687"
         y="46.166164">Delay 7Dh</tspan></text>
    <text
       xml:space="preserve"
       style="font-weight:bold;font-size:4.23333px;font-family:'Segoe UI';-inkscape-font-specification:'Segoe UI Bold';display:inline;fill:#ffff00;stroke:none;stroke-width:0.264583"
       x="18.885418"
       y="78.597023"
       id="text1062-4"><tspan
         sodipodi:role="line"
         id="tspan1060-6"
         style="fill:#000000;stroke-width:0.264583"
         x="18.885418"
         y="78.597023">Delay Mod</tspan></text>
    <text
       xml:space="preserve"
       style="font-weight:bold;font-size:4.23333px;font-family:'Segoe UI';-inkscape-font-specification:'Segoe UI Bold';display:inline;fill:#ffff00;stroke:none;stroke-width:0.264583"
       x="10.287275"
       y="62.487991"
       id="text1062-7"><tspan
         sodipodi:role="line"
         id="tspan1060-9"
         style="fill:#000000;stroke-width:0.264583"
         x="10.287275"
         y="62.487991">Mix 2Ch</tspan></text>
    <circle
       style="display:inline;fill:#0000ff;stroke-width:0.264583"
       id="path13156-4-87-6-7"
       cx="26.430981"
       cy="92.42598"
       r="3.05"
       inkscape:label="audio R" />
    <circle
       style="display:inline;fill:#0000ff;stroke-width:0.264583"
       id="path13156-4-2-9-8"
       cx="14.264277"
       cy="92.42598"
       r="3.05"
       inkscape:label="audio L" />
    <circle
       style="display:inline;fill:#0000ff;stroke-width:0.264583"
       id="path13156-4-87-6-1"
       cx="52.375866"
       cy="92.42598"
       r="3.05"
       inkscape:label="audio R" />
    <circle
       style="display:inline;fill:#0000ff;stroke-width:0.264583"
       id="path13156-4-2-9-3"
       cx="40.209164"
       cy="92.42598"
       r="3.05"
       inkscape:label="audio L" />
    <path
       style="fill:#000000;stroke:none;stroke-width:0.264583"
       id="path1393"
       d="m 41.217795,69.37298 c 0.172222,0.03214 0.686199,0.0076 0.762693,0.191304 0.0097,0.02336 0.0026,0.05057 0.004,0.07585 0.149481,1.139246 0.105166,2.297205 0.103325,3.443698 -0.05981,2.751002 -0.147651,5.501079 -0.193839,8.252499 -0.02776,1.91942 -0.04718,3.83897 -0.05549,5.758575 -2.65e-4,0.118567 -5.3e-4,0.237135 -0.0011,0.3557 -0.0019,0.707104 0.998038,0.709872 0.999996,0.0028 v 0 c 2.64e-4,-0.118046 5.29e-4,-0.236093 0.0011,-0.354139 0.0083,-1.915454 0.02767,-3.830852 0.05536,-5.746121 0.04626,-2.756482 0.134665,-5.511609 0.193979,-8.267686 7.94e-4,-0.511228 0.0039,-1.241171 -0.0021,-1.764885 -0.0065,-0.575654 0.01595,-1.199118 -0.110051,-1.765974 -0.03423,-0.153996 -0.09782,-0.299964 -0.146732,-0.449943 -0.08993,-0.118626 -0.162182,-0.253013 -0.269785,-0.355875 -0.349303,-0.333912 -0.894493,-0.332277 -1.341406,-0.375775 -0.707107,0 -0.707107,1.000001 0,1.000001 z" />
    <path
       style="fill:#000000;stroke:none;stroke-width:0.264583"
       id="path1395"
       d="m 57.5076,54.033414 c 0.7356,-0.06349 1.470734,-0.134927 2.207176,-0.188306 0.439962,-0.03189 0.866954,-0.08133 1.305647,-0.0086 0.13798,0.02289 0.267335,0.08234 0.401,0.123518 0.07113,0.07023 0.159157,0.126715 0.213381,0.210683 0.302106,0.467849 0.328155,1.3589 0.34213,1.864886 0.02738,0.991262 -0.03336,1.82117 -0.08051,2.822197 -0.343392,4.39856 -0.528296,8.805381 -0.640151,13.215133 -0.06817,3.342029 -0.07434,6.685534 -0.241657,10.024684 -0.06619,1.060839 -0.123685,2.122273 -0.213646,3.181382 -0.07495,0.879625 -0.137652,1.759526 -0.172781,2.641711 -0.02495,0.679892 -0.03439,1.360193 -0.03721,2.040495 -0.0011,0.596993 -2.47e-4,1.193988 2.64e-4,1.790979 -0.003,0.0366 -0.0059,0.17711 -0.03395,0.22585 -0.0074,0.0129 -0.01323,-0.0293 -0.02654,-0.0361 -0.04058,-0.0206 -0.09264,0.006 -0.129326,0.0131 -0.346384,0.0552 -0.697703,0.0654 -1.047565,0.0778 -0.706646,0.0255 -0.670626,1.02483 0.03602,0.99935 v 0 c 0.436857,-0.0159 0.877099,-0.0271 1.30583,-0.12148 0.09363,-0.0322 0.191678,-0.0536 0.280877,-0.0966 0.43076,-0.20745 0.613478,-0.60214 0.614653,-1.06304 -5.29e-4,-0.595286 -0.0013,-1.190577 -2.64e-4,-1.785866 0.0028,-0.66844 0.01198,-1.336884 0.03643,-2.004928 0.03436,-0.86719 0.09634,-1.732094 0.169981,-2.596766 0.09093,-1.070647 0.149244,-2.143628 0.215985,-3.216031 0.167312,-3.347379 0.174985,-6.699049 0.242583,-10.04932 0.111591,-4.402624 0.296783,-8.802261 0.639379,-13.19372 0.0459,-0.986417 0.114628,-1.961131 0.0784,-2.948937 -0.03163,-0.862473 -0.09882,-1.902386 -0.72838,-2.576883 -0.153312,-0.164259 -0.370263,-0.254651 -0.555394,-0.381977 -0.203568,-0.05284 -0.402731,-0.127225 -0.610704,-0.158514 -0.490561,-0.07381 -0.955151,-0.0254 -1.446088,0.01019 -0.764135,0.0554 -1.527141,0.127871 -2.289963,0.198578 -0.697487,0.116247 -0.533088,1.102643 0.164398,0.986393 z" />
    <path
       style="fill:#000000;stroke:none;stroke-width:0.264583"
       id="path1397"
       d="m 31.019872,41.796602 c -0.448109,-0.07372 -0.881361,-0.05986 -1.223417,0.286496 -0.07864,0.07962 -0.130739,0.18166 -0.196107,0.272489 -0.343239,0.675259 -0.342482,1.455865 -0.397737,2.19588 -0.06975,1.099474 -0.08755,2.201654 -0.07255,3.302979 0.05568,1.635139 0.170455,3.267202 0.240466,4.901713 0.05654,1.426748 0.07009,2.854669 0.0775,4.282361 0.004,1.236615 -0.173167,2.462403 -0.316867,3.687659 -0.168325,1.401953 -0.353812,2.801694 -0.528262,4.202888 -0.155292,1.115388 -0.270962,2.236089 -0.423603,3.351726 -0.07212,0.403873 -0.09572,0.815578 -0.167659,1.219163 -0.119867,0.696873 0.865661,0.866391 0.985528,0.169518 v 0 c 0.0697,-0.41589 0.10346,-0.837276 0.17294,-1.253421 0.152527,-1.119637 0.269901,-2.244063 0.425132,-3.363441 0.174742,-1.403549 0.360577,-2.805645 0.529117,-4.209963 0.148402,-1.265637 0.329454,-2.531922 0.323659,-3.809325 -0.0075,-1.440236 -0.02127,-2.880702 -0.0784,-4.319979 -0.06967,-1.62487 -0.1831,-3.247327 -0.239644,-4.872768 -0.01516,-1.071899 0.0028,-2.144638 0.06988,-3.21477 0.04273,-0.574204 0.042,-1.177702 0.238326,-1.724273 0.01167,-0.02741 0.03208,-0.05258 0.03503,-0.08222 2.65e-4,-0.0039 -0.0575,-0.03893 -0.01495,-0.05449 0.138708,-0.05073 0.297281,0.0281 0.437592,0.02405 0.701646,0.0877 0.82568,-0.904574 0.124034,-0.992278 z" />
    <path
       style="fill:#000000;stroke:none;stroke-width:0.264583"
       id="path1399"
       d="m 28.10891,82.454982 c 0,0.917692 0,1.83538 0,2.753072 0.01058,0.781925 -0.03964,1.562854 -0.08022,2.343319 -0.02331,0.211468 -7.94e-4,0.427937 -0.03652,0.637831 -0.09526,0.700659 0.895622,0.835382 0.990883,0.134721 v 0 c 0.02904,-0.239454 0.03199,-0.479754 0.04428,-0.720628 0.04148,-0.797758 0.09222,-1.595993 0.08157,-2.395243 0,-0.917692 0,-1.83538 0,-2.753072 0,-0.707107 -1.000001,-0.707107 -1.000001,0 z" />
    <path
       style="fill:#000000;stroke:none;stroke-width:0.264583"
       id="path1401"
       d="m 15.330274,52.298896 c -1.094438,0.02952 -2.183589,-0.05733 -3.270049,-0.178295 -0.597479,-0.03333 -1.183668,0.0021 -1.659825,0.417386 -0.5208862,0.454247 -0.6749076,1.12419 -0.8499805,1.755896 -0.041312,0.216654 -0.082624,0.433309 -0.1239364,0.649963 -0.1308759,0.694888 0.8518469,0.879975 0.9827219,0.185086 v 0 c 0.03556,-0.191518 0.07113,-0.383037 0.10669,-0.574556 0.09123,-0.349932 0.237537,-1.157308 0.623207,-1.34952 0.262007,-0.13058 0.528415,-0.08925 0.810643,-0.09038 1.123153,0.124659 2.249209,0.214019 3.380529,0.184418 0.707107,0 0.707107,-1.000001 0,-1.000001 z" />
    <path
       style="fill:#000000;stroke:none;stroke-width:0.264583"
       id="path1403"
       d="m 10.056133,64.880474 c -0.3287244,0.55332 -0.4730319,1.064903 -0.5816381,1.696696 -0.1325506,0.825463 -0.048492,1.657408 0.045187,2.48122 0.089277,0.910997 0.1588432,1.823577 0.2424147,2.735215 0.1035161,1.386141 0.3586974,2.752883 0.6179964,4.116424 0.345089,1.5572 0.680477,3.11431 0.897706,4.695151 0.07076,0.725241 0.174398,1.453512 0.181689,2.183727 0.0025,0.247412 -0.02356,0.524415 -0.04216,0.771062 -0.06538,0.644898 -0.118437,1.29058 -0.145644,1.938232 0.0032,0.495853 -0.0514,0.988272 -0.0857,1.482169 -0.03346,0.521402 -0.03883,1.04398 -0.04304,1.56626 -0.0014,0.213688 -0.0017,0.427381 -0.002,0.641074 -8.73e-4,0.707105 0.999124,0.708343 0.999999,0.0013 v 0 c 2.61e-4,-0.211428 5.55e-4,-0.422857 0.0019,-0.63428 0.004,-0.501925 0.0089,-1.004147 0.04068,-1.505249 0.03469,-0.50296 0.09004,-1.004535 0.08721,-1.509456 0.02648,-0.636929 0.08007,-1.27177 0.143776,-1.906016 0.02411,-0.330012 0.04733,-0.559591 0.04365,-0.89495 -0.0083,-0.759174 -0.115452,-1.516269 -0.189792,-2.270239 -0.220425,-1.597539 -0.555406,-3.17208 -0.90593,-4.74557 -0.253429,-1.331899 -0.503877,-2.666786 -0.604558,-4.020862 -0.08427,-0.918901 -0.15412,-1.838783 -0.244654,-2.757001 -0.08325,-0.730636 -0.166582,-1.468744 -0.05273,-2.201616 0.07647,-0.462942 0.187528,-0.900152 0.427649,-1.308508 0.392232,-0.588346 -0.439818,-1.143047 -0.83205,-0.554699 z" />
    <text
       xml:space="preserve"
       style="font-weight:bold;font-size:4.23333px;font-family:'Segoe UI';-inkscape-font-specification:'Segoe UI Bold';display:inline;fill:#ffff00;stroke:none;stroke-width:0.264583"
       x="22.513302"
       y="110.12789"
       id="text1062-4-5"><tspan
         sodipodi:role="line"
         id="tspan1060-6-2"
         style="fill:#000000;stroke-width:0.264583"
         x="22.513302"
         y="110.12789">In</tspan><tspan
         sodipodi:role="line"
         style="fill:#000000;stroke-width:0.264583"
         x="22.513302"
         y="115.41956"
         id="tspan1432" /></text>
    <text
       xml:space="preserve"
       style="font-weight:bold;font-size:4.23333px;font-family:'Segoe UI';-inkscape-font-specification:'Segoe UI Bold';display:inline;fill:#ffff00;stroke:none;stroke-width:0.264583"
       x="58.022896"
       y="110.12686"
       id="text1062-4-5-4"><tspan
         sodipodi:role="line"
         id="tspan1060-6-2-8"
         style="fill:#000000;stroke-width:0.264583"
         x="58.022896"
         y="110.12686">Out</tspan><tspan
         sodipodi:role="line"
         style="fill:#000000;stroke-width:0.264583"
         x="58.022896"
         y="115.41853"
         id="tspan1432-6" /></text>
    <text
       xml:space="preserve"
       style="font-weight:bold;font-size:6.35px;font-family:'Segoe UI';-inkscape-font-specification:'Segoe UI Bold';display:inline;fill:#ffff00;stroke:none;stroke-width:0.264583"
       x="22.782042"
       y="14.043054"
       id="text1062-1"><tspan
         sodipodi:role="line"
         id="tspan1060-26"
         style="font-size:6.35px;fill:#000000;stroke-width:0.264583"
         x="22.782042"
         y="14.043054">SNECHO</tspan></text>
    <circle
       style="display:inline;fill:#0000ff;stroke-width:0.264583"
       id="path13156-4-2-9-4"
       cx="11.832312"
       cy="102.24903"
       r="3.05"
       inkscape:label="audio L" />
    <circle
       style="display:inline;fill:#0000ff;stroke-width:0.264583"
       id="path13156-4-2-9-32"
       cx="32.706295"
       cy="102.24903"
       r="3.05"
       inkscape:label="audio L" />
    <circle
       style="display:inline;fill:#0000ff;stroke-width:0.264583"
       id="path13156-4-2-9-1"
       cx="53.508064"
       cy="102.24903"
       r="3.05"
       inkscape:label="audio L" />
    <text
       xml:space="preserve"
       style="font-weight:bold;font-size:4.23333px;font-family:'Segoe UI';-inkscape-font-specification:'Segoe UI Bold';display:inline;fill:#ffff00;stroke:none;stroke-width:0.264583"
       x="16.355543"
       y="103.70527"
       id="text1062-4-5-7"><tspan
         sodipodi:role="line"
         id="tspan1060-6-2-5"
         style="fill:#000000;stroke-width:0.264583"
         x="16.355543"
         y="103.70527">Freeze</tspan><tspan
         sodipodi:role="line"
         style="fill:#000000;stroke-width:0.264583"
         x="16.355543"
         y="108.99693"
         id="tspan1432-8" /></text>
    <text
       xml:space="preserve"
       style="font-weight:bold;font-size:4.23333px;font-family:'Segoe UI';-inkscape-font-specification:'Segoe UI Bold';display:inline;fill:#ffff00;stroke:none;stroke-width:0.264583"
       x="36.762409"
       y="103.70527"
       id="text1062-4-5-7-5"><tspan
         sodipodi:role="line"
         id="tspan1060-6-2-5-7"
         style="fill:#000000;stroke-width:0.264583"
         x="36.762409"
         y="103.70527">Clear</tspan><tspan
         sodipodi:role="line"
         style="fill:#000000;stroke-width:0.264583"
         x="36.762409"
         y="108.99693"
         id="tspan1432-8-1" /></text>
    <text
       xml:space="preserve"
       style="font-weight:bold;font-size:4.23333px;font-family:'Segoe UI';-inkscape-font-specification:'Segoe UI Bold';display:inline;fill:#ffff00;stroke:none;stroke-width:0.264583"
       x="58.40416"
       y="103.45514"
       id="text1062-4-5-7-5-6"><tspan
         sodipodi:role="line"
         id="tspan1060-6-2-5-7-1"
         style="fill:#000000;stroke-width:0.264583"
         x="58.40416"
         y="103.45514">Reset</tspan><tspan
         sodipodi:role="line"
         style="fill:#000000;stroke-width:0.264583"
         x="58.40416"
         y="108.7468"
         id="tspan1432-8-1-2" /></text>
  </g>
</svg>
