<?xml version="1.0" encoding="UTF-8" standalone="no"?>
<svg
   version="1.1"
   width="71.120003mm"
   height="128.5mm"
   viewBox="0 0 71.120003 128.5"
   id="svg8664"
   sodipodi:docname="snecho_src.svg"
   inkscape:version="1.2.2 (732a01da63, 2022-12-09)"
   inkscape:export-filename="snecho.svg"
   inkscape:export-xdpi="96"
   inkscape:export-ydpi="96"
   xmlns:inkscape="http://www.inkscape.org/namespaces/inkscape"
   xmlns:sodipodi="http://sodipodi.sourceforge.net/DTD/sodipodi-0.dtd"
   xmlns="http://www.w3.org/2000/svg"
   xmlns:svg="http://www.w3.org/2000/svg"
   xmlns:rdf="http://www.w3.org/1999/02/22-rdf-syntax-ns#"
   xmlns:cc="http://creativecommons.org/ns#"
   xmlns:dc="http://purl.org/dc/elements/1.1/">
  <defs
     id="defs8668" />
  <sodipodi:namedview
     id="namedview8666"
     pagecolor="#ffffff"
     bordercolor="#000000"
     borderopacity="0.25"
     inkscape:showpageshadow="2"
     inkscape:pageopacity="0.0"
     inkscape:pagecheckerboard="0"
     inkscape:deskcolor="#d1d1d1"
     inkscape:document-units="mm"
     showgrid="false"
     showguides="true"
     inkscape:zoom="1.1851376"
     inkscape:cx="-148.92786"
     inkscape:cy="332.45085"
     inkscape:window-width="1920"
     inkscape:window-height="1017"
     inkscape:window-x="-8"
     inkscape:window-y="-8"
     inkscape:window-maximized="1"
     inkscape:current-layer="layer3">
    <inkscape:grid
       type="xygrid"
       id="grid13701"
       originx="0"
       originy="0" />
  </sodipodi:namedview>
  <title
     id="title2">SVG Image created as ES_Daisy_Patch_SM_FB_Rev1-brd.svg date 2024/04/30 13:34:42 </title>
  <desc
     id="desc4">Image generated by PCBNEW </desc>
  <g
     inkscape:groupmode="layer"
     id="layer2"
     inkscape:label="holes"
     style="fill:#280b0b"
     sodipodi:insensitive="true">
    <g
       inkscape:label="EuroPanel"
       id="g721">
      <rect
         style="fill:#e6e6e6;stroke:none;stroke-width:0mm"
         height="128.5"
         width="70.760002"
         x="0"
         y="0"
         rx="0"
         ry="0"
         id="rect711" />
      <rect
         style="fill:#ffffff;stroke:none;stroke-width:0mm"
         height="3.2"
         width="5.5"
         x="4.75"
         y="123.9"
         rx="1.6"
         ry="0"
         id="rect713" />
      <rect
         style="fill:#ffffff;stroke:none;stroke-width:0mm"
         height="3.2"
         width="5.5"
         x="4.75"
         y="1.4"
         rx="1.6"
         ry="0"
         id="rect715" />
      <rect
         style="fill:#ffffff;stroke:none;stroke-width:0mm"
         height="3.2"
         width="5.5"
         x="60.630001"
         y="123.9"
         rx="1.6"
         ry="0"
         id="rect717" />
      <rect
         style="fill:#ffffff;stroke:none;stroke-width:0mm"
         height="3.2"
         width="5.5"
         x="60.630001"
         y="1.4"
         rx="1.6"
         ry="0"
         id="rect719" />
    </g>
  </g>
  <g
     inkscape:groupmode="layer"
     id="layer1"
     inkscape:label="bg"
     style="display:inline">
    <circle
       style="fill:#ffff00;stroke:none;stroke-width:0.323397"
       id="path355-3"
       cx="56.895092"
       cy="23.552996"
       r="1.5" />
    <circle
       style="fill:#ffff00;stroke:none;stroke-width:0.323397"
       id="path355-2"
       cx="61.48782"
       cy="23.552996"
       r="1.5" />
    <circle
       style="fill:#ffff00;stroke:none;stroke-width:0.323397"
       id="path355-8"
       cx="52.302364"
       cy="23.552996"
       r="1.5" />
    <circle
       style="fill:#ffff00;stroke:none;stroke-width:0.323397"
       id="path355-1"
       cx="47.709633"
       cy="23.552996"
       r="1.5" />
    <rect
       style="fill:#000000;stroke:none;stroke-width:0;stroke-dasharray:none"
       id="rect5959"
       width="23.218121"
       height="9.0416718"
       x="41.899002"
       y="111.60073" />
    <circle
       style="fill:#ffff00;stroke:none;stroke-width:0.323397"
       id="path355"
       cx="43.116905"
       cy="23.552996"
       r="1.5" />
  </g>
  <metadata
     id="metadata13212">
    <rdf:RDF>
      <cc:Work
         rdf:about="">
        <dc:title>SVG Image created as ES_Daisy_Patch_SM_FB_Rev1-brd.svg date 2024/04/30 13:34:42 </dc:title>
      </cc:Work>
    </rdf:RDF>
  </metadata>
  <g
     inkscape:groupmode="layer"
     id="layer3"
     inkscape:label="components"
     style="display:inline">
    <circle
       style="display:inline;fill:#ff0000;stroke-width:0.264583"
       id="path13156-4-8-0-1"
       cx="35.609165"
       cy="68.519226"
       r="4.5999999"
       inkscape:label="mix" />
    <circle
       style="fill:#ff0000;stroke-width:0.264583"
       id="circle13473"
       cx="50.807682"
       cy="52.662216"
       r="4.5999999"
       inkscape:label="feedback" />
    <circle
       style="fill:#ff0000;stroke-width:0.264583"
       id="circle13475"
       cx="35.609165"
       cy="39.825272"
       r="4.5999999"
       inkscape:label="size" />
    <circle
       style="fill:#ff0000;stroke-width:0.264583"
       id="circle13475-1"
       cx="21.830978"
       cy="52.662216"
       r="4.5999999"
       inkscape:label="filter" />
    <circle
       style="fill:#0000ff;stroke-width:0.264583"
       id="path13156-4-87"
       cx="59.939499"
       cy="115.96852"
       r="3.05"
       inkscape:label="audio R" />
    <circle
       style="fill:#0000ff;stroke-width:0.264583"
       id="path13156-4-2"
       cx="47.772797"
       cy="115.96852"
       r="3.05"
       inkscape:label="audio L" />
    <circle
       style="display:inline;fill:#0000ff;stroke-width:0.264583"
       id="path13156-4-87-6"
       cx="20.033009"
       cy="115.96852"
       r="3.05"
       inkscape:label="audio R" />
    <circle
       style="display:inline;fill:#0000ff;stroke-width:0.264583"
       id="path13156-4-2-9"
       cx="7.8663063"
       cy="115.96852"
       r="3.05"
       inkscape:label="audio L" />
    <circle
       style="display:inline;fill:#ff0000;stroke-width:0.264583"
       id="circle13475-0"
       cx="10.659046"
       cy="23.552996"
       r="4.5999999"
       inkscape:label="size" />
    <g
       aria-label="Filter 0Fh "
       id="text1062"
       style="font-weight:bold;font-size:4.23333px;font-family:'Segoe UI';-inkscape-font-specification:'Segoe UI Bold';fill:#ffff00;stroke-width:0.264583">
      <path
         d="m 19.355729,22.673464 h -1.04593 v 0.727604 h 0.96118 v 0.541569 h -0.96118 v 1.15135 H 17.64214 v -2.964158 h 1.713589 z"
         style="fill:#000000"
         id="path2645" />
      <path
         d="m 20.110204,22.642459 q -0.165365,0 -0.270784,-0.09715 -0.10542,-0.09922 -0.10542,-0.241845 0,-0.146761 0.10542,-0.239779 0.105419,-0.09302 0.270784,-0.09302 0.167431,0 0.270784,0.09302 0.10542,0.09302 0.10542,0.239779 0,0.148828 -0.10542,0.243912 -0.103353,0.09508 -0.270784,0.09508 z m 0.322461,2.451528 h -0.65319 v -2.116665 h 0.65319 z"
         style="fill:#000000"
         id="path2647" />
      <path
         d="m 21.635691,25.093987 h -0.65319 V 21.96033 h 0.65319 z"
         style="fill:#000000"
         id="path2649" />
      <path
         d="m 23.465035,25.069182 q -0.144694,0.07648 -0.436149,0.07648 -0.690396,0 -0.690396,-0.717268 v -0.969449 h -0.343131 v -0.481624 h 0.343131 v -0.45682 l 0.651122,-0.186035 v 0.642855 h 0.475423 v 0.481624 h -0.475423 v 0.855761 q 0,0.330728 0.262516,0.330728 0.103353,0 0.212907,-0.05994 z"
         style="fill:#000000"
         id="path2651" />
      <path
         d="m 25.718126,24.221689 h -1.380793 q 0.03307,0.460953 0.580842,0.460953 0.349333,0 0.613916,-0.165364 v 0.471289 q -0.293522,0.157096 -0.762744,0.157096 -0.512629,0 -0.795816,-0.283187 -0.283187,-0.285253 -0.283187,-0.793749 0,-0.527099 0.305925,-0.83509 0.305924,-0.307992 0.752408,-0.307992 0.46302,0 0.715201,0.274919 0.254248,0.274918 0.254248,0.746207 z M 25.112479,23.82068 q 0,-0.454752 -0.367936,-0.454752 -0.157097,0 -0.272852,0.130225 -0.113688,0.130224 -0.138492,0.324527 z"
         style="fill:#000000"
         id="path2653" />
      <path
         d="m 27.487525,23.566432 q -0.117822,-0.06408 -0.274918,-0.06408 -0.212907,0 -0.332796,0.157096 -0.119889,0.155029 -0.119889,0.423746 v 1.010791 h -0.65319 V 22.97732 h 0.65319 v 0.39274 h 0.0083 q 0.155029,-0.429947 0.558105,-0.429947 0.103353,0 0.16123,0.0248 z"
         style="fill:#000000"
         id="path2655" />
      <path
         d="m 29.885309,25.145663 q -1.058332,0 -1.058332,-1.486213 0,-0.771012 0.285254,-1.174088 0.28732,-0.405142 0.830956,-0.405142 1.033528,0 1.033528,1.511017 0,0.752408 -0.283187,1.153417 -0.28112,0.401009 -0.808219,0.401009 z m 0.02894,-2.567283 q -0.423746,0 -0.423746,1.064534 0,1.002521 0.415478,1.002521 0.405143,0 0.405143,-1.033527 0,-1.033528 -0.396875,-1.033528 z"
         style="fill:#000000"
         id="path2657" />
      <path
         d="m 33.171928,22.673464 h -1.04593 v 0.727604 h 0.961181 v 0.541569 h -0.961181 v 1.15135 h -0.667659 v -2.964158 h 1.713589 z"
         style="fill:#000000"
         id="path2659" />
      <path
         d="M 35.627589,25.093987 H 34.976467 V 23.89096 q 0,-0.465087 -0.338998,-0.465087 -0.173632,0 -0.281119,0.130224 -0.107487,0.130225 -0.107487,0.330729 v 1.207161 h -0.65319 V 21.96033 h 0.65319 v 1.331184 h 0.0083 q 0.239779,-0.365869 0.651123,-0.365869 0.719335,0 0.719335,0.868164 z"
         style="fill:#000000"
         id="path2661" />
    </g>
    <g
       aria-label="Feedback 0Dh"
       id="text1062-6"
       style="font-weight:bold;font-size:4.23333px;font-family:'Segoe UI';-inkscape-font-specification:'Segoe UI Bold';display:inline;fill:#ffff00;stroke-width:0.264583">
      <path
         d="m 33.201777,30.04019 h -1.04593 v 0.727604 h 0.961181 v 0.541568 h -0.961181 v 1.15135 h -0.667659 v -2.964157 h 1.713589 z"
         style="fill:#000000"
         id="path2622" />
      <path
         d="m 35.527215,31.588415 h -1.380794 q 0.03307,0.460953 0.580843,0.460953 0.349332,0 0.613916,-0.165364 v 0.471289 q -0.293522,0.157096 -0.762744,0.157096 -0.51263,0 -0.795816,-0.283187 -0.283187,-0.285253 -0.283187,-0.793749 0,-0.527099 0.305924,-0.835091 0.305924,-0.307991 0.752408,-0.307991 0.463021,0 0.715202,0.274919 0.254248,0.274918 0.254248,0.746207 z m -0.605648,-0.401009 q 0,-0.454752 -0.367936,-0.454752 -0.157096,0 -0.272851,0.130224 -0.113688,0.130225 -0.138493,0.324528 z"
         style="fill:#000000"
         id="path2624" />
      <path
         d="m 37.817512,31.588415 h -1.380793 q 0.03307,0.460953 0.580843,0.460953 0.349332,0 0.613915,-0.165364 v 0.471289 q -0.293522,0.157096 -0.762743,0.157096 -0.51263,0 -0.795817,-0.283187 -0.283186,-0.285253 -0.283186,-0.793749 0,-0.527099 0.305924,-0.835091 0.305924,-0.307991 0.752408,-0.307991 0.46302,0 0.715201,0.274919 0.254248,0.274918 0.254248,0.746207 z m -0.605647,-0.401009 q 0,-0.454752 -0.367936,-0.454752 -0.157096,0 -0.272851,0.130224 -0.113689,0.130225 -0.138493,0.324528 z"
         style="fill:#000000"
         id="path2626" />
      <path
         d="m 40.277308,32.460712 h -0.653189 v -0.291454 h -0.0083 q -0.223242,0.343131 -0.655256,0.343131 -0.396875,0 -0.63872,-0.279053 -0.241846,-0.281119 -0.241846,-0.783414 0,-0.525032 0.26665,-0.841291 0.26665,-0.31626 0.698665,-0.31626 0.409277,0 0.570507,0.293522 h 0.0083 v -1.258837 h 0.653189 z m -0.640787,-1.029393 v -0.159164 q 0,-0.206705 -0.119889,-0.343131 -0.11989,-0.136425 -0.312126,-0.136425 -0.217041,0 -0.338997,0.171565 -0.121956,0.169499 -0.121956,0.467155 0,0.279052 0.117822,0.429947 0.117822,0.150895 0.326595,0.150895 0.198437,0 0.32246,-0.159163 0.126091,-0.159163 0.126091,-0.421679 z"
         style="fill:#000000"
         id="path2628" />
      <path
         d="m 41.488603,32.214733 h -0.0083 v 0.245979 h -0.65319 v -3.133656 h 0.65319 v 1.335318 h 0.0083 q 0.241846,-0.370003 0.68833,-0.370003 0.409277,0 0.630452,0.28112 0.221175,0.281119 0.221175,0.768944 0,0.529167 -0.258382,0.84956 -0.258382,0.320394 -0.690397,0.320394 -0.390673,0 -0.591178,-0.297656 z M 41.47,31.321765 v 0.217041 q 0,0.204638 0.117822,0.338997 0.117822,0.134358 0.30179,0.134358 0.223242,0 0.345198,-0.171565 0.124024,-0.173633 0.124024,-0.489892 0,-0.262516 -0.113688,-0.409277 -0.111621,-0.148828 -0.320394,-0.148828 -0.19637,0 -0.326595,0.146761 Q 41.47,31.08612 41.47,31.321765 Z"
         style="fill:#000000"
         id="path2630" />
      <path
         d="m 45.172095,32.460712 h -0.618049 v -0.303857 h -0.0083 q -0.212906,0.355534 -0.630452,0.355534 -0.307991,0 -0.485758,-0.173633 -0.175699,-0.1757 -0.175699,-0.467154 0,-0.615983 0.72967,-0.711068 l 0.574642,-0.07648 q 0,-0.347265 -0.376204,-0.347265 -0.378272,0 -0.719336,0.225309 v -0.491959 q 0.136426,-0.07028 0.37207,-0.124023 0.237712,-0.05374 0.432015,-0.05374 0.90537,0 0.90537,0.903303 z M 44.55818,31.600817 V 31.45819 l -0.384473,0.04961 q -0.318326,0.04134 -0.318326,0.287321 0,0.111621 0.07648,0.183967 0.07855,0.07028 0.21084,0.07028 0.183967,0 0.299723,-0.12609 0.115755,-0.128157 0.115755,-0.322461 z"
         style="fill:#000000"
         id="path2632" />
      <path
         d="m 47.292895,32.384231 q -0.221175,0.128158 -0.63872,0.128158 -0.487825,0 -0.789616,-0.295589 -0.30179,-0.295589 -0.30179,-0.762744 0,-0.539501 0.322461,-0.849559 0.324528,-0.312126 0.866096,-0.312126 0.374137,0 0.541569,0.09922 v 0.553971 Q 47.088256,30.7926 46.836076,30.7926 q -0.28112,0 -0.446484,0.165364 -0.163298,0.163297 -0.163298,0.452685 0,0.28112 0.157096,0.44235 0.157097,0.159163 0.432015,0.159163 0.243913,0 0.47749,-0.152962 z"
         style="fill:#000000"
         id="path2634" />
      <path
         d="m 49.841573,32.460712 h -0.783414 l -0.675927,-1.050064 h -0.0083 v 1.050064 h -0.65319 v -3.133656 h 0.65319 v 1.994709 h 0.0083 l 0.630452,-0.977717 h 0.775146 l -0.758609,0.994253 z"
         style="fill:#000000"
         id="path2636" />
      <path
         d="m 52.181481,32.512389 q -1.058332,0 -1.058332,-1.486213 0,-0.771012 0.285254,-1.174088 0.28732,-0.405143 0.830956,-0.405143 1.033528,0 1.033528,1.511018 0,0.752408 -0.283187,1.153417 -0.281119,0.401009 -0.808219,0.401009 z m 0.02894,-2.567283 q -0.423746,0 -0.423746,1.064533 0,1.002522 0.415478,1.002522 0.405143,0 0.405143,-1.033527 0,-1.033528 -0.396875,-1.033528 z"
         style="fill:#000000"
         id="path2638" />
      <path
         d="m 53.754511,32.460712 v -2.964157 h 1.050064 q 1.579231,0 1.579231,1.444872 0,0.692463 -0.432015,1.105874 -0.429947,0.413411 -1.147216,0.413411 z M 54.42217,30.04019 v 1.878954 h 0.330729 q 0.434082,0 0.680061,-0.260449 0.248047,-0.260449 0.248047,-0.709 0,-0.423747 -0.24598,-0.665592 -0.243912,-0.243913 -0.686262,-0.243913 z"
         style="fill:#000000"
         id="path2640" />
      <path
         d="m 58.843602,32.460712 h -0.651123 v -1.203026 q 0,-0.465087 -0.338997,-0.465087 -0.173632,0 -0.281119,0.130224 -0.107487,0.130225 -0.107487,0.330729 v 1.20716 h -0.65319 v -3.133656 h 0.65319 v 1.331184 h 0.0083 q 0.239779,-0.365869 0.651123,-0.365869 0.719335,0 0.719335,0.868163 z"
         style="fill:#000000"
         id="path2642" />
    </g>
    <g
       aria-label="Delay 7Dh"
       id="text1062-60"
       style="font-weight:bold;font-size:4.23333px;font-family:'Segoe UI';-inkscape-font-specification:'Segoe UI Bold';display:inline;fill:#ffff00;stroke-width:0.264583">
      <path
         d="m 46.207684,46.166164 v -2.964157 h 1.050064 q 1.57923,0 1.57923,1.444872 0,0.692463 -0.432014,1.105874 -0.429948,0.413411 -1.147216,0.413411 z m 0.667659,-2.420522 v 1.878954 h 0.330729 q 0.434081,0 0.680061,-0.260449 0.248047,-0.260449 0.248047,-0.709 0,-0.423747 -0.24598,-0.665592 -0.243913,-0.243913 -0.686262,-0.243913 z"
         style="fill:#000000"
         id="path2605" />
      <path
         d="m 51.16655,45.293867 h -1.380793 q 0.03307,0.460953 0.580843,0.460953 0.349332,0 0.613915,-0.165364 v 0.471289 q -0.293522,0.157096 -0.762743,0.157096 -0.51263,0 -0.795817,-0.283187 -0.283186,-0.285253 -0.283186,-0.793749 0,-0.527099 0.305924,-0.835091 0.305924,-0.307991 0.752408,-0.307991 0.463021,0 0.715201,0.274919 0.254248,0.274918 0.254248,0.746207 z m -0.605647,-0.401009 q 0,-0.454752 -0.367936,-0.454752 -0.157096,0 -0.272851,0.130224 -0.113688,0.130225 -0.138493,0.324528 z"
         style="fill:#000000"
         id="path2607" />
      <path
         d="m 52.208346,46.166164 h -0.653189 v -3.133656 h 0.653189 z"
         style="fill:#000000"
         id="path2609" />
      <path
         d="m 54.519314,46.166164 h -0.618049 v -0.303857 h -0.0083 q -0.212906,0.355534 -0.630452,0.355534 -0.307991,0 -0.485758,-0.173633 -0.175699,-0.1757 -0.175699,-0.467154 0,-0.615983 0.72967,-0.711068 l 0.574642,-0.07648 q 0,-0.347265 -0.376204,-0.347265 -0.378272,0 -0.719336,0.225309 v -0.49196 q 0.136426,-0.07028 0.37207,-0.124023 0.237712,-0.05374 0.432015,-0.05374 0.90537,0 0.90537,0.903303 z m -0.613915,-0.859895 v -0.142627 l -0.384473,0.04961 q -0.318326,0.04134 -0.318326,0.287321 0,0.111621 0.07648,0.183967 0.07855,0.07028 0.21084,0.07028 0.183967,0 0.299723,-0.12609 0.115755,-0.128157 0.115755,-0.322461 z"
         style="fill:#000000"
         id="path2611" />
      <path
         d="m 57.051457,44.0495 -0.859895,2.286163 q -0.310058,0.824755 -0.934309,0.824755 -0.237711,0 -0.390673,-0.05374 V 46.58578 q 0.130224,0.07648 0.283186,0.07648 0.252181,0 0.3514,-0.237712 L 55.612787,46.16203 54.752892,44.0495 h 0.723469 l 0.394808,1.287775 q 0.03721,0.119889 0.05788,0.283187 h 0.0083 q 0.0186,-0.119889 0.06821,-0.279053 l 0.39891,-1.291909 z"
         style="fill:#000000"
         id="path2613" />
      <path
         d="m 60.4683,43.578211 q -0.198437,0.3576 -0.355533,0.671793 -0.157096,0.312125 -0.276986,0.61805 -0.119889,0.303857 -0.204638,0.620116 -0.08475,0.314193 -0.138493,0.677994 h -0.682128 q 0.05788,-0.345198 0.152962,-0.665591 0.09508,-0.320394 0.219108,-0.620117 0.12609,-0.30179 0.276985,-0.587044 0.152962,-0.285254 0.322461,-0.558105 h -1.376659 v -0.5333 H 60.4683 Z"
         style="fill:#000000"
         id="path2615" />
      <path
         d="m 60.98093,46.166164 v -2.964157 h 1.050064 q 1.57923,0 1.57923,1.444872 0,0.692463 -0.432014,1.105874 -0.429948,0.413411 -1.147216,0.413411 z m 0.667659,-2.420522 v 1.878954 h 0.330728 q 0.434082,0 0.680062,-0.260449 0.248046,-0.260449 0.248046,-0.709 0,-0.423747 -0.245979,-0.665592 -0.243913,-0.243913 -0.686263,-0.243913 z"
         style="fill:#000000"
         id="path2617" />
      <path
         d="m 66.070021,46.166164 h -0.651122 v -1.203026 q 0,-0.465087 -0.338997,-0.465087 -0.173633,0 -0.28112,0.130224 -0.107487,0.130225 -0.107487,0.330729 v 1.20716 h -0.653189 v -3.133656 h 0.653189 v 1.331184 h 0.0083 q 0.239778,-0.365869 0.651122,-0.365869 0.719335,0 0.719335,0.868163 z"
         style="fill:#000000"
         id="path2619" />
    </g>
    <g
       aria-label="Delay Mod"
       id="text1062-4"
       style="font-weight:bold;font-size:4.23333px;font-family:'Segoe UI';-inkscape-font-specification:'Segoe UI Bold';display:inline;fill:#ffff00;stroke-width:0.264583">
      <path
         d="m 19.224415,78.597023 v -2.964158 h 1.050064 q 1.579231,0 1.579231,1.444872 0,0.692464 -0.432015,1.105875 -0.429947,0.413411 -1.147216,0.413411 z m 0.667659,-2.420522 v 1.878953 h 0.330729 q 0.434082,0 0.680061,-0.260449 0.248047,-0.260449 0.248047,-0.709 0,-0.423746 -0.24598,-0.665591 -0.243912,-0.243913 -0.686262,-0.243913 z"
         style="fill:#000000"
         id="path2575" />
      <path
         d="m 24.183281,77.724726 h -1.380793 q 0.03307,0.460953 0.580843,0.460953 0.349332,0 0.613915,-0.165364 v 0.471288 q -0.293521,0.157096 -0.762743,0.157096 -0.51263,0 -0.795816,-0.283186 -0.283187,-0.285254 -0.283187,-0.79375 0,-0.527099 0.305924,-0.83509 0.305924,-0.307991 0.752408,-0.307991 0.463021,0 0.715202,0.274918 0.254247,0.274919 0.254247,0.746207 z m -0.605647,-0.401009 q 0,-0.454752 -0.367936,-0.454752 -0.157096,0 -0.272851,0.130224 -0.113688,0.130225 -0.138493,0.324528 z"
         style="fill:#000000"
         id="path2577" />
      <path
         d="m 25.225077,78.597023 h -0.653189 v -3.133656 h 0.653189 z"
         style="fill:#000000"
         id="path2579" />
      <path
         d="m 27.536045,78.597023 h -0.618049 v -0.303857 h -0.0083 q -0.212907,0.355533 -0.630452,0.355533 -0.307992,0 -0.485758,-0.173632 -0.1757,-0.1757 -0.1757,-0.467155 0,-0.615982 0.72967,-0.711067 l 0.574642,-0.07648 q 0,-0.347265 -0.376204,-0.347265 -0.378271,0 -0.719336,0.225309 V 76.60645 q 0.136426,-0.07028 0.37207,-0.124024 0.237712,-0.05374 0.432015,-0.05374 0.90537,0 0.90537,0.903303 z M 26.92213,77.737128 v -0.142627 l -0.384472,0.04961 q -0.318327,0.04134 -0.318327,0.287321 0,0.111621 0.07648,0.183968 0.07855,0.07028 0.21084,0.07028 0.183968,0 0.299723,-0.12609 0.115755,-0.128158 0.115755,-0.322461 z"
         style="fill:#000000"
         id="path2581" />
      <path
         d="m 30.068189,76.480358 -0.859895,2.286164 q -0.310059,0.824755 -0.93431,0.824755 -0.237711,0 -0.390673,-0.05374 v -0.520898 q 0.130224,0.07648 0.283187,0.07648 0.25218,0 0.351399,-0.237711 l 0.111621,-0.262516 -0.859895,-2.112531 h 0.723469 l 0.394808,1.287776 q 0.03721,0.119889 0.05788,0.283186 h 0.0083 q 0.0186,-0.119889 0.06821,-0.279052 l 0.398941,-1.29191 z"
         style="fill:#000000"
         id="path2583" />
      <path
         d="m 34.940239,78.597023 h -0.659391 v -1.773534 q 0,-0.28732 0.02481,-0.634586 h -0.01654 q -0.05168,0.272852 -0.09302,0.392741 l -0.694531,2.015379 h -0.545703 l -0.706933,-1.994709 q -0.02894,-0.08062 -0.09302,-0.413411 h -0.0186 q 0.02687,0.438216 0.02687,0.768945 v 1.639175 H 31.56267 v -2.964158 h 0.977717 l 0.605648,1.756998 q 0.07235,0.210839 0.105419,0.423746 h 0.0124 q 0.05581,-0.24598 0.117822,-0.427881 l 0.605647,-1.752863 h 0.952913 z"
         style="fill:#000000"
         id="path2585" />
      <path
         d="m 36.558742,78.648699 q -0.529166,0 -0.833023,-0.295589 -0.30179,-0.297656 -0.30179,-0.806151 0,-0.525032 0.314192,-0.820621 0.314193,-0.297656 0.84956,-0.297656 0.527099,0 0.826822,0.297656 0.299723,0.295589 0.299723,0.783414 0,0.527099 -0.310058,0.833023 -0.307991,0.305924 -0.845426,0.305924 z m 0.01654,-1.71979 q -0.231511,0 -0.359668,0.159163 -0.128157,0.159164 -0.128157,0.450619 0,0.609781 0.491959,0.609781 0.469221,0 0.469221,-0.626318 0,-0.593245 -0.473355,-0.593245 z"
         style="fill:#000000"
         id="path2587" />
      <path
         d="m 40.209162,78.597023 h -0.653189 v -0.291455 h -0.0083 q -0.223242,0.343131 -0.655257,0.343131 -0.396875,0 -0.63872,-0.279052 -0.241846,-0.28112 -0.241846,-0.783414 0,-0.525032 0.26665,-0.841292 0.266651,-0.316259 0.698665,-0.316259 0.409277,0 0.570508,0.293522 h 0.0083 v -1.258837 h 0.653189 z m -0.640787,-1.029394 v -0.159163 q 0,-0.206705 -0.119889,-0.343131 -0.119889,-0.136426 -0.312126,-0.136426 -0.21704,0 -0.338997,0.171566 -0.121956,0.169498 -0.121956,0.467154 0,0.279053 0.117822,0.429948 0.117822,0.150895 0.326595,0.150895 0.198437,0 0.322461,-0.159163 0.12609,-0.159164 0.12609,-0.42168 z"
         style="fill:#000000"
         id="path2589" />
    </g>
    <g
       aria-label="Mix 2Ch"
       id="text1062-7"
       style="font-weight:bold;font-size:4.23333px;font-family:'Segoe UI';-inkscape-font-specification:'Segoe UI Bold';display:inline;fill:#ffff00;stroke-width:0.264583">
      <path
         d="M 14.003841,62.487991 H 13.34445 v -1.773533 q 0,-0.287321 0.02481,-0.634586 h -0.01654 q -0.05168,0.272851 -0.09302,0.39274 l -0.69453,2.015379 h -0.545703 l -0.706933,-1.994708 q -0.02894,-0.08062 -0.09302,-0.413411 h -0.0186 q 0.02687,0.438215 0.02687,0.768944 v 1.639175 H 10.62627 v -2.964157 h 0.977718 l 0.605647,1.756997 q 0.07235,0.21084 0.10542,0.423746 h 0.0124 q 0.05581,-0.245979 0.117822,-0.42788 l 0.605648,-1.752863 h 0.952912 z"
         style="fill:#000000"
         id="path2592" />
      <path
         d="m 14.944351,60.036463 q -0.165364,0 -0.270784,-0.09715 -0.10542,-0.09922 -0.10542,-0.241846 0,-0.146761 0.10542,-0.239778 0.10542,-0.09302 0.270784,-0.09302 0.167432,0 0.270785,0.09302 0.105419,0.09302 0.105419,0.239778 0,0.148828 -0.105419,0.243913 -0.103353,0.09508 -0.270785,0.09508 z m 0.322461,2.451528 h -0.65319 v -2.116665 h 0.65319 z"
         style="fill:#000000"
         id="path2594" />
      <path
         d="m 17.860967,60.371326 -0.698665,1.02526 0.694531,1.091405 H 17.104424 L 16.7985,61.917484 q -0.03721,-0.06821 -0.08888,-0.192236 h -0.0083 q -0.03101,0.08682 -0.08475,0.186035 l -0.307991,0.576708 h -0.750341 l 0.715201,-1.054198 -0.671793,-1.062467 h 0.756542 l 0.30179,0.593245 q 0.05994,0.117823 0.08475,0.198438 h 0.0083 q 0.03307,-0.09715 0.08888,-0.202572 L 17.1499,60.371326 Z"
         style="fill:#000000"
         id="path2596" />
      <path
         d="m 19.934224,61.946423 h 1.256769 v 0.541568 h -1.971971 v -0.223242 q 0,-0.227376 0.07648,-0.40721 0.07648,-0.1819 0.192237,-0.324527 0.115755,-0.144694 0.25218,-0.254248 0.138493,-0.111621 0.262516,-0.200505 0.130225,-0.09302 0.227377,-0.177766 0.09922,-0.08475 0.165364,-0.167432 0.06821,-0.08475 0.101286,-0.169498 0.03307,-0.08682 0.03307,-0.183968 0,-0.190169 -0.107487,-0.287321 -0.107487,-0.09715 -0.328662,-0.09715 -0.382405,0 -0.731738,0.303858 V 59.72434 q 0.38654,-0.250114 0.872298,-0.250114 0.225309,0 0.403075,0.05994 0.179834,0.05788 0.303858,0.167431 0.124023,0.109554 0.188102,0.266651 0.06614,0.155029 0.06614,0.347265 0,0.204638 -0.06408,0.363802 -0.06201,0.159163 -0.167432,0.289388 -0.103353,0.130224 -0.239778,0.239778 -0.136426,0.107487 -0.283187,0.208773 -0.09922,0.07028 -0.192236,0.140559 -0.09095,0.06821 -0.16123,0.136426 -0.07028,0.06615 -0.111621,0.130225 -0.04134,0.06408 -0.04134,0.121956 z"
         style="fill:#000000"
         id="path2598" />
      <path
         d="m 23.946378,62.382571 q -0.324528,0.157097 -0.847493,0.157097 -0.682128,0 -1.072802,-0.401009 -0.390673,-0.401009 -0.390673,-1.068668 0,-0.711067 0.438216,-1.153417 0.440282,-0.44235 1.141014,-0.44235 0.434082,0 0.731738,0.109554 v 0.642855 q -0.297656,-0.177767 -0.677994,-0.177767 -0.417546,0 -0.67386,0.262516 -0.256315,0.262516 -0.256315,0.711067 0,0.429948 0.241845,0.686262 0.241846,0.254248 0.651123,0.254248 0.390673,0 0.715201,-0.190169 z"
         style="fill:#000000"
         id="path2600" />
      <path
         d="m 26.430979,62.487991 h -0.651123 v -1.203026 q 0,-0.465087 -0.338997,-0.465087 -0.173633,0 -0.28112,0.130224 -0.107487,0.130225 -0.107487,0.330729 v 1.20716 h -0.653189 v -3.133656 h 0.653189 v 1.331184 h 0.0083 q 0.239778,-0.365869 0.651122,-0.365869 0.719336,0 0.719336,0.868163 z"
         style="fill:#000000"
         id="path2602" />
    </g>
    <circle
       style="display:inline;fill:#0000ff;stroke-width:0.264583"
       id="path13156-4-87-6-7"
       cx="26.430981"
       cy="92.42598"
       r="3.05"
       inkscape:label="audio R" />
    <circle
       style="display:inline;fill:#0000ff;stroke-width:0.264583"
       id="path13156-4-2-9-8"
       cx="14.264277"
       cy="92.42598"
       r="3.05"
       inkscape:label="audio L" />
    <circle
       style="display:inline;fill:#0000ff;stroke-width:0.264583"
       id="path13156-4-87-6-1"
       cx="52.375866"
       cy="92.42598"
       r="3.05"
       inkscape:label="audio R" />
    <circle
       style="display:inline;fill:#0000ff;stroke-width:0.264583"
       id="path13156-4-2-9-3"
       cx="40.209164"
       cy="92.42598"
       r="3.05"
       inkscape:label="audio L" />
    <path
       style="fill:#000000;stroke:none;stroke-width:0.264583"
       id="path1393"
       d="m 41.217795,69.37298 c 0.172222,0.03214 0.686199,0.0076 0.762693,0.191304 0.0097,0.02336 0.0026,0.05057 0.004,0.07585 0.149481,1.139246 0.105166,2.297205 0.103325,3.443698 -0.05981,2.751002 -0.147651,5.501079 -0.193839,8.252499 -0.02776,1.91942 -0.04718,3.83897 -0.05549,5.758575 -2.65e-4,0.118567 -5.3e-4,0.237135 -0.0011,0.3557 -0.0019,0.707104 0.998038,0.709872 0.999996,0.0028 v 0 c 2.64e-4,-0.118046 5.29e-4,-0.236093 0.0011,-0.354139 0.0083,-1.915454 0.02767,-3.830852 0.05536,-5.746121 0.04626,-2.756482 0.134665,-5.511609 0.193979,-8.267686 7.94e-4,-0.511228 0.0039,-1.241171 -0.0021,-1.764885 -0.0065,-0.575654 0.01595,-1.199118 -0.110051,-1.765974 -0.03423,-0.153996 -0.09782,-0.299964 -0.146732,-0.449943 -0.08993,-0.118626 -0.162182,-0.253013 -0.269785,-0.355875 -0.349303,-0.333912 -0.894493,-0.332277 -1.341406,-0.375775 -0.707107,0 -0.707107,1.000001 0,1.000001 z" />
    <path
       style="fill:#000000;stroke:none;stroke-width:0.264583"
       id="path1395"
       d="m 57.5076,54.033414 c 0.7356,-0.06349 1.470734,-0.134927 2.207176,-0.188306 0.439962,-0.03189 0.866954,-0.08133 1.305647,-0.0086 0.13798,0.02289 0.267335,0.08234 0.401,0.123518 0.07113,0.07023 0.159157,0.126715 0.213381,0.210683 0.302106,0.467849 0.328155,1.3589 0.34213,1.864886 0.02738,0.991262 -0.03336,1.82117 -0.08051,2.822197 -0.343392,4.39856 -0.528296,8.805381 -0.640151,13.215133 -0.06817,3.342029 -0.07434,6.685534 -0.241657,10.024684 -0.06619,1.060839 -0.123685,2.122273 -0.213646,3.181382 -0.07495,0.879625 -0.137652,1.759526 -0.172781,2.641711 -0.02495,0.679892 -0.03439,1.360193 -0.03721,2.040495 -0.0011,0.596993 -2.47e-4,1.193988 2.64e-4,1.790979 -0.003,0.0366 -0.0059,0.17711 -0.03395,0.22585 -0.0074,0.0129 -0.01323,-0.0293 -0.02654,-0.0361 -0.04058,-0.0206 -0.09264,0.006 -0.129326,0.0131 -0.346384,0.0552 -0.697703,0.0654 -1.047565,0.0778 -0.706646,0.0255 -0.670626,1.02483 0.03602,0.99935 v 0 c 0.436857,-0.0159 0.877099,-0.0271 1.30583,-0.12148 0.09363,-0.0322 0.191678,-0.0536 0.280877,-0.0966 0.43076,-0.20745 0.613478,-0.60214 0.614653,-1.06304 -5.29e-4,-0.595286 -0.0013,-1.190577 -2.64e-4,-1.785866 0.0028,-0.66844 0.01198,-1.336884 0.03643,-2.004928 0.03436,-0.86719 0.09634,-1.732094 0.169981,-2.596766 0.09093,-1.070647 0.149244,-2.143628 0.215985,-3.216031 0.167312,-3.347379 0.174985,-6.699049 0.242583,-10.04932 0.111591,-4.402624 0.296783,-8.802261 0.639379,-13.19372 0.0459,-0.986417 0.114628,-1.961131 0.0784,-2.948937 -0.03163,-0.862473 -0.09882,-1.902386 -0.72838,-2.576883 -0.153312,-0.164259 -0.370263,-0.254651 -0.555394,-0.381977 -0.203568,-0.05284 -0.402731,-0.127225 -0.610704,-0.158514 -0.490561,-0.07381 -0.955151,-0.0254 -1.446088,0.01019 -0.764135,0.0554 -1.527141,0.127871 -2.289963,0.198578 -0.697487,0.116247 -0.533088,1.102643 0.164398,0.986393 z" />
    <path
       style="fill:#000000;stroke:none;stroke-width:0.264583"
       id="path1397"
       d="m 31.019872,41.796602 c -0.448109,-0.07372 -0.881361,-0.05986 -1.223417,0.286496 -0.07864,0.07962 -0.130739,0.18166 -0.196107,0.272489 -0.343239,0.675259 -0.342482,1.455865 -0.397737,2.19588 -0.06975,1.099474 -0.08755,2.201654 -0.07255,3.302979 0.05568,1.635139 0.170455,3.267202 0.240466,4.901713 0.05654,1.426748 0.07009,2.854669 0.0775,4.282361 0.004,1.236615 -0.173167,2.462403 -0.316867,3.687659 -0.168325,1.401953 -0.353812,2.801694 -0.528262,4.202888 -0.155292,1.115388 -0.270962,2.236089 -0.423603,3.351726 -0.07212,0.403873 -0.09572,0.815578 -0.167659,1.219163 -0.119867,0.696873 0.865661,0.866391 0.985528,0.169518 v 0 c 0.0697,-0.41589 0.10346,-0.837276 0.17294,-1.253421 0.152527,-1.119637 0.269901,-2.244063 0.425132,-3.363441 0.174742,-1.403549 0.360577,-2.805645 0.529117,-4.209963 0.148402,-1.265637 0.329454,-2.531922 0.323659,-3.809325 -0.0075,-1.440236 -0.02127,-2.880702 -0.0784,-4.319979 -0.06967,-1.62487 -0.1831,-3.247327 -0.239644,-4.872768 -0.01516,-1.071899 0.0028,-2.144638 0.06988,-3.21477 0.04273,-0.574204 0.042,-1.177702 0.238326,-1.724273 0.01167,-0.02741 0.03208,-0.05258 0.03503,-0.08222 2.65e-4,-0.0039 -0.0575,-0.03893 -0.01495,-0.05449 0.138708,-0.05073 0.297281,0.0281 0.437592,0.02405 0.701646,0.0877 0.82568,-0.904574 0.124034,-0.992278 z" />
    <path
       style="fill:#000000;stroke:none;stroke-width:0.264583"
       id="path1399"
       d="m 28.10891,82.454982 c 0,0.917692 0,1.83538 0,2.753072 0.01058,0.781925 -0.03964,1.562854 -0.08022,2.343319 -0.02331,0.211468 -7.94e-4,0.427937 -0.03652,0.637831 -0.09526,0.700659 0.895622,0.835382 0.990883,0.134721 v 0 c 0.02904,-0.239454 0.03199,-0.479754 0.04428,-0.720628 0.04148,-0.797758 0.09222,-1.595993 0.08157,-2.395243 0,-0.917692 0,-1.83538 0,-2.753072 0,-0.707107 -1.000001,-0.707107 -1.000001,0 z" />
    <path
       style="fill:#000000;stroke:none;stroke-width:0.264583"
       id="path1401"
       d="m 15.330274,52.298896 c -1.094438,0.02952 -2.183589,-0.05733 -3.270049,-0.178295 -0.597479,-0.03333 -1.183668,0.0021 -1.659825,0.417386 -0.5208862,0.454247 -0.6749076,1.12419 -0.8499805,1.755896 -0.041312,0.216654 -0.082624,0.433309 -0.1239364,0.649963 -0.1308759,0.694888 0.8518469,0.879975 0.9827219,0.185086 v 0 c 0.03556,-0.191518 0.07113,-0.383037 0.10669,-0.574556 0.09123,-0.349932 0.237537,-1.157308 0.623207,-1.34952 0.262007,-0.13058 0.528415,-0.08925 0.810643,-0.09038 1.123153,0.124659 2.249209,0.214019 3.380529,0.184418 0.707107,0 0.707107,-1.000001 0,-1.000001 z" />
    <path
       style="fill:#000000;stroke:none;stroke-width:0.264583"
       id="path1403"
       d="m 10.056133,64.880474 c -0.3287244,0.55332 -0.4730319,1.064903 -0.5816381,1.696696 -0.1325506,0.825463 -0.048492,1.657408 0.045187,2.48122 0.089277,0.910997 0.1588432,1.823577 0.2424147,2.735215 0.1035161,1.386141 0.3586974,2.752883 0.6179964,4.116424 0.345089,1.5572 0.680477,3.11431 0.897706,4.695151 0.07076,0.725241 0.174398,1.453512 0.181689,2.183727 0.0025,0.247412 -0.02356,0.524415 -0.04216,0.771062 -0.06538,0.644898 -0.118437,1.29058 -0.145644,1.938232 0.0032,0.495853 -0.0514,0.988272 -0.0857,1.482169 -0.03346,0.521402 -0.03883,1.04398 -0.04304,1.56626 -0.0014,0.213688 -0.0017,0.427381 -0.002,0.641074 -8.73e-4,0.707105 0.999124,0.708343 0.999999,0.0013 v 0 c 2.61e-4,-0.211428 5.55e-4,-0.422857 0.0019,-0.63428 0.004,-0.501925 0.0089,-1.004147 0.04068,-1.505249 0.03469,-0.50296 0.09004,-1.004535 0.08721,-1.509456 0.02648,-0.636929 0.08007,-1.27177 0.143776,-1.906016 0.02411,-0.330012 0.04733,-0.559591 0.04365,-0.89495 -0.0083,-0.759174 -0.115452,-1.516269 -0.189792,-2.270239 -0.220425,-1.597539 -0.555406,-3.17208 -0.90593,-4.74557 -0.253429,-1.331899 -0.503877,-2.666786 -0.604558,-4.020862 -0.08427,-0.918901 -0.15412,-1.838783 -0.244654,-2.757001 -0.08325,-0.730636 -0.166582,-1.468744 -0.05273,-2.201616 0.07647,-0.462942 0.187528,-0.900152 0.427649,-1.308508 0.392232,-0.588346 -0.439818,-1.143047 -0.83205,-0.554699 z" />
    <g
       aria-label="In
"
       id="text1062-4-5"
       style="font-weight:bold;font-size:4.23333px;font-family:'Segoe UI';-inkscape-font-specification:'Segoe UI Bold';display:inline;fill:#ffff00;stroke-width:0.264583">
      <path
         d="m 23.519958,110.12789 h -0.667659 v -2.96416 h 0.667659 z"
         style="fill:#000000"
         id="path2546" />
      <path
         d="m 26.174057,110.12789 h -0.651122 v -1.17615 q 0,-0.49196 -0.3514,-0.49196 -0.169498,0 -0.279052,0.13022 -0.109554,0.13023 -0.109554,0.33073 v 1.20716 h -0.65319 v -2.11666 h 0.65319 v 0.33486 h 0.0083 q 0.233577,-0.38654 0.680061,-0.38654 0.702799,0 0.702799,0.8723 z"
         style="fill:#000000"
         id="path2548" />
    </g>
    <text
       xml:space="preserve"
       style="font-weight:bold;font-size:4.23333px;font-family:'Segoe UI';-inkscape-font-specification:'Segoe UI Bold';display:inline;fill:#ffff00;stroke:none;stroke-width:0.264583"
       x="58.022896"
       y="110.12686"
       id="text1062-4-5-4"><tspan
         sodipodi:role="line"
         id="tspan1060-6-2-8"
         style="fill:#000000;stroke-width:0.264583"
         x="58.022896"
         y="110.12686">Out</tspan><tspan
         sodipodi:role="line"
         style="fill:#000000;stroke-width:0.264583"
         x="58.022896"
         y="115.41853"
         id="tspan1432-6" /></text>
    <text
       xml:space="preserve"
       style="font-weight:bold;font-size:6.35px;font-family:'Segoe UI';-inkscape-font-specification:'Segoe UI Bold';display:inline;fill:#ffff00;stroke:none;stroke-width:0.264583"
       x="22.782042"
       y="14.043054"
       id="text1062-1"><tspan
         sodipodi:role="line"
         id="tspan1060-26"
         style="font-size:6.35px;fill:#000000;stroke-width:0.264583"
         x="22.782042"
         y="14.043054">SNECHO</tspan></text>
    <circle
       style="display:inline;fill:#0000ff;stroke-width:0.264583"
       id="path13156-4-2-9-4"
       cx="11.832312"
       cy="102.24903"
       r="3.05"
       inkscape:label="audio L" />
    <circle
       style="display:inline;fill:#0000ff;stroke-width:0.264583"
       id="path13156-4-2-9-32"
       cx="32.706295"
       cy="102.24903"
       r="3.05"
       inkscape:label="audio L" />
    <circle
       style="display:inline;fill:#0000ff;stroke-width:0.264583"
       id="path13156-4-2-9-1"
       cx="53.508064"
       cy="102.24903"
       r="3.05"
       inkscape:label="audio L" />
    <g
       aria-label="Freeze
"
       id="text1062-4-5-7"
       style="font-weight:bold;font-size:4.23333px;font-family:'Segoe UI';-inkscape-font-specification:'Segoe UI Bold';display:inline;fill:#ffff00;stroke-width:0.264583">
      <path
         d="m 18.408129,101.28475 h -1.04593 v 0.7276 h 0.961181 v 0.54157 h -0.961181 v 1.15135 H 16.69454 v -2.96416 h 1.713589 z"
         style="fill:#000000"
         id="path2551" />
      <path
         d="m 20.212669,102.17771 q -0.117822,-0.0641 -0.274919,-0.0641 -0.212906,0 -0.332796,0.15709 -0.119889,0.15503 -0.119889,0.42375 v 1.01079 h -0.653189 v -2.11667 h 0.653189 v 0.39274 h 0.0083 q 0.15503,-0.42994 0.558105,-0.42994 0.103353,0 0.161231,0.0248 z"
         style="fill:#000000"
         id="path2553" />
      <path
         d="m 22.40168,102.83297 h -1.380793 q 0.03307,0.46095 0.580843,0.46095 0.349332,0 0.613915,-0.16536 v 0.47129 q -0.293521,0.1571 -0.762743,0.1571 -0.51263,0 -0.795816,-0.28319 -0.283187,-0.28526 -0.283187,-0.79375 0,-0.5271 0.305924,-0.83509 0.305924,-0.30799 0.752408,-0.30799 0.463021,0 0.715202,0.27492 0.254247,0.27491 0.254247,0.7462 z m -0.605647,-0.40101 q 0,-0.45475 -0.367936,-0.45475 -0.157096,0 -0.272851,0.13022 -0.113688,0.13023 -0.138493,0.32453 z"
         style="fill:#000000"
         id="path2555" />
      <path
         d="m 24.691978,102.83297 h -1.380793 q 0.03307,0.46095 0.580842,0.46095 0.349333,0 0.613916,-0.16536 v 0.47129 q -0.293522,0.1571 -0.762744,0.1571 -0.512629,0 -0.795816,-0.28319 -0.283187,-0.28526 -0.283187,-0.79375 0,-0.5271 0.305925,-0.83509 0.305924,-0.30799 0.752408,-0.30799 0.46302,0 0.715201,0.27492 0.254248,0.27491 0.254248,0.7462 z m -0.605647,-0.40101 q 0,-0.45475 -0.367936,-0.45475 -0.157096,0 -0.272852,0.13022 -0.113688,0.13023 -0.138492,0.32453 z"
         style="fill:#000000"
         id="path2557" />
      <path
         d="m 26.756966,103.70527 h -1.899624 v -0.27079 l 1.062467,-1.36425 h -0.957047 v -0.48163 h 1.785936 v 0.32246 l -1.006656,1.31258 h 1.014924 z"
         style="fill:#000000"
         id="path2559" />
      <path
         d="m 29.010057,102.83297 h -1.380793 q 0.03307,0.46095 0.580842,0.46095 0.349333,0 0.613916,-0.16536 v 0.47129 q -0.293522,0.1571 -0.762744,0.1571 -0.512629,0 -0.795816,-0.28319 -0.283187,-0.28526 -0.283187,-0.79375 0,-0.5271 0.305925,-0.83509 0.305924,-0.30799 0.752408,-0.30799 0.46302,0 0.715201,0.27492 0.254248,0.27491 0.254248,0.7462 z m -0.605647,-0.40101 q 0,-0.45475 -0.367936,-0.45475 -0.157096,0 -0.272852,0.13022 -0.113688,0.13023 -0.138492,0.32453 z"
         style="fill:#000000"
         id="path2561" />
    </g>
    <g
       aria-label="Clear
"
       id="text1062-4-5-7-5"
       style="font-weight:bold;font-size:4.23333px;font-family:'Segoe UI';-inkscape-font-specification:'Segoe UI Bold';display:inline;fill:#ffff00;stroke-width:0.264583">
      <path
         d="m 39.226339,103.59985 q -0.324527,0.1571 -0.847492,0.1571 -0.682129,0 -1.072802,-0.40101 -0.390674,-0.40101 -0.390674,-1.06867 0,-0.71107 0.438216,-1.15342 0.440283,-0.44235 1.141015,-0.44235 0.434081,0 0.731737,0.10956 v 0.64285 q -0.297656,-0.17777 -0.677994,-0.17777 -0.417545,0 -0.67386,0.26252 -0.256315,0.26252 -0.256315,0.71107 0,0.42994 0.241846,0.68626 0.241845,0.25425 0.651122,0.25425 0.390674,0 0.715201,-0.19017 z"
         style="fill:#000000"
         id="path2564" />
      <path
         d="m 40.332214,103.70527 h -0.653189 v -3.13366 h 0.653189 z"
         style="fill:#000000"
         id="path2566" />
      <path
         d="m 42.783742,102.83297 h -1.380793 q 0.03307,0.46095 0.580842,0.46095 0.349333,0 0.613916,-0.16536 v 0.47129 q -0.293522,0.1571 -0.762744,0.1571 -0.512629,0 -0.795816,-0.28319 -0.283187,-0.28526 -0.283187,-0.79375 0,-0.5271 0.305925,-0.83509 0.305924,-0.30799 0.752408,-0.30799 0.46302,0 0.715201,0.27492 0.254248,0.27491 0.254248,0.7462 z m -0.605647,-0.40101 q 0,-0.45475 -0.367936,-0.45475 -0.157096,0 -0.272852,0.13022 -0.113688,0.13023 -0.138492,0.32453 z"
         style="fill:#000000"
         id="path2568" />
      <path
         d="m 44.93348,103.70527 h -0.61805 v -0.30386 h -0.0083 q -0.212907,0.35554 -0.630452,0.35554 -0.307991,0 -0.485758,-0.17364 -0.1757,-0.1757 -0.1757,-0.46715 0,-0.61598 0.729671,-0.71107 l 0.574641,-0.0765 q 0,-0.34727 -0.376204,-0.34727 -0.378271,0 -0.719335,0.22531 v -0.49196 q 0.136425,-0.0703 0.37207,-0.12402 0.237711,-0.0537 0.432014,-0.0537 0.905371,0 0.905371,0.9033 z m -0.613916,-0.8599 v -0.14262 l -0.384472,0.0496 q -0.318327,0.0413 -0.318327,0.28732 0,0.11162 0.07648,0.18396 0.07855,0.0703 0.21084,0.0703 0.183968,0 0.299723,-0.12609 0.115755,-0.12815 0.115755,-0.32246 z"
         style="fill:#000000"
         id="path2570" />
      <path
         d="m 46.831037,102.17771 q -0.117822,-0.0641 -0.274918,-0.0641 -0.212907,0 -0.332796,0.15709 -0.11989,0.15503 -0.11989,0.42375 v 1.01079 h -0.653189 v -2.11667 h 0.653189 v 0.39274 h 0.0083 q 0.155029,-0.42994 0.558105,-0.42994 0.103352,0 0.16123,0.0248 z"
         style="fill:#000000"
         id="path2572" />
    </g>
    <g
       aria-label="Reset
"
       id="text1062-4-5-7-5-6"
       style="font-weight:bold;font-size:4.23333px;font-family:'Segoe UI';-inkscape-font-specification:'Segoe UI Bold';display:inline;fill:#ffff00;stroke-width:0.264583">
      <path
         d="m 61.229824,103.45514 h -0.766877 l -0.460954,-0.76274 q -0.05168,-0.0868 -0.09922,-0.15503 -0.04754,-0.0682 -0.09715,-0.11576 -0.04754,-0.0496 -0.101286,-0.0744 -0.05168,-0.0269 -0.113688,-0.0269 h -0.179833 v 1.13481 h -0.667659 v -2.96416 h 1.058332 q 1.079003,0 1.079003,0.80615 0,0.15503 -0.04754,0.28732 -0.04754,0.13023 -0.134359,0.23565 -0.08682,0.10542 -0.210839,0.1819 -0.121957,0.0765 -0.272852,0.11989 v 0.008 q 0.06615,0.0207 0.128158,0.0682 0.06201,0.0455 0.119889,0.10749 0.05788,0.062 0.109554,0.13435 0.05374,0.0703 0.09715,0.1385 z m -1.819008,-2.46393 v 0.82475 h 0.289387 q 0.214974,0 0.345199,-0.12402 0.132291,-0.12609 0.132291,-0.31212 0,-0.38861 -0.465087,-0.38861 z"
         style="fill:#000000"
         id="path2535" />
      <path
         d="m 63.239002,102.58284 h -1.380793 q 0.03307,0.46096 0.580843,0.46096 0.349332,0 0.613915,-0.16537 v 0.47129 q -0.293521,0.1571 -0.762743,0.1571 -0.51263,0 -0.795816,-0.28319 -0.283187,-0.28525 -0.283187,-0.79375 0,-0.5271 0.305924,-0.83509 0.305924,-0.30799 0.752408,-0.30799 0.463021,0 0.715202,0.27492 0.254247,0.27491 0.254247,0.7462 z m -0.605647,-0.40101 q 0,-0.45475 -0.367936,-0.45475 -0.157096,0 -0.272851,0.13023 -0.113688,0.13022 -0.138493,0.32452 z"
         style="fill:#000000"
         id="path2537" />
      <path
         d="m 63.489116,103.39933 v -0.52917 q 0.161231,0.0971 0.320394,0.1447 0.16123,0.0475 0.303857,0.0475 0.173633,0 0.272851,-0.0475 0.101286,-0.0476 0.101286,-0.1447 0,-0.062 -0.04547,-0.10335 -0.04548,-0.0413 -0.117822,-0.0724 -0.07028,-0.031 -0.155029,-0.0558 -0.08475,-0.0248 -0.163298,-0.0558 -0.12609,-0.0475 -0.223242,-0.10128 -0.09508,-0.0558 -0.16123,-0.12816 -0.06408,-0.0724 -0.09922,-0.16743 -0.03307,-0.0951 -0.03307,-0.22531 0,-0.17777 0.07648,-0.30593 0.07855,-0.12815 0.206706,-0.20877 0.130224,-0.0827 0.295589,-0.11989 0.167431,-0.0393 0.347265,-0.0393 0.14056,0 0.285254,0.0227 0.144694,0.0207 0.285254,0.062 v 0.50436 q -0.124024,-0.0724 -0.266651,-0.10749 -0.140559,-0.0372 -0.276985,-0.0372 -0.06408,0 -0.121956,0.0124 -0.05581,0.0103 -0.09922,0.0331 -0.04341,0.0207 -0.06821,0.0558 -0.0248,0.0331 -0.0248,0.0765 0,0.0579 0.03721,0.0992 0.03721,0.0413 0.09715,0.0724 0.05994,0.0289 0.132292,0.0537 0.07441,0.0227 0.146761,0.0475 0.130224,0.0455 0.235644,0.0992 0.10542,0.0538 0.179834,0.12609 0.07648,0.0724 0.115755,0.1695 0.04134,0.0971 0.04134,0.23151 0,0.1881 -0.08268,0.32246 -0.08061,0.13229 -0.217041,0.21704 -0.134359,0.0827 -0.312125,0.11989 -0.1757,0.0393 -0.365869,0.0393 -0.349333,0 -0.646989,-0.10749 z"
         style="fill:#000000"
         id="path2539" />
      <path
         d="m 67.391717,102.58284 h -1.380793 q 0.03307,0.46096 0.580842,0.46096 0.349333,0 0.613916,-0.16537 v 0.47129 q -0.293522,0.1571 -0.762744,0.1571 -0.512629,0 -0.795816,-0.28319 -0.283187,-0.28525 -0.283187,-0.79375 0,-0.5271 0.305925,-0.83509 0.305924,-0.30799 0.752408,-0.30799 0.46302,0 0.715201,0.27492 0.254248,0.27491 0.254248,0.7462 z m -0.605647,-0.40101 q 0,-0.45475 -0.367936,-0.45475 -0.157096,0 -0.272852,0.13023 -0.113688,0.13022 -0.138492,0.32452 z"
         style="fill:#000000"
         id="path2541" />
      <path
         d="m 69.059831,103.43033 q -0.144694,0.0765 -0.436149,0.0765 -0.690396,0 -0.690396,-0.71727 v -0.96945 h -0.343131 v -0.48163 h 0.343131 v -0.45682 l 0.651122,-0.18603 v 0.64285 h 0.475423 v 0.48163 h -0.475423 v 0.85576 q 0,0.33073 0.262516,0.33073 0.103353,0 0.212907,-0.06 z"
         style="fill:#000000"
         id="path2543" />
    </g>
  </g>
</svg>
