<svg xmlns="http://www.w3.org/2000/svg" width="840" height="1517.7166">
    <defs />
    <g transform="matrix(11.811024 0 0 11.811024 0 0.00006104)">
        <g id="layer2">
            <g id="g721">
                <path id="rect711" fill="#e6e6e6" stroke="none" d="M 0 0 L 70.76 0 L 70.76 128.5 L 0 128.5 Z" />
                <path id="rect713" fill="#ffffff" stroke="none" d="M 6.35 123.90001 L 8.65 123.90001 L 10.25 123.90001 L 10.25 127.1 L 8.65 127.1 L 6.35 127.1 L 4.75 127.1 L 4.75 123.90001 L 6.35 123.90001 Z" />
                <path id="rect715" fill="#ffffff" stroke="none" d="M 6.35 1.4 L 8.65 1.4 L 10.25 1.4 L 10.25 4.6 L 8.65 4.6 L 6.35 4.6 L 4.75 4.6 L 4.75 1.4 L 6.35 1.4 Z" />
                <path id="rect717" fill="#ffffff" stroke="none" d="M 62.23 123.90001 L 64.53001 123.90001 L 66.130005 123.90001 L 66.130005 127.1 L 64.53001 127.1 L 62.23 127.1 L 60.63 127.1 L 60.63 123.90001 L 62.23 123.90001 Z" />
                <path id="rect719" fill="#ffffff" stroke="none" d="M 62.23 1.4 L 64.53001 1.4 L 66.130005 1.4 L 66.130005 4.6 L 64.53001 4.6 L 62.23 4.6 L 60.63 4.6 L 60.63 1.4 L 62.23 1.4 Z" />
            </g>
        </g>
        <g id="layer1" />
        <g id="layer4">
            <g id="text1062-1">
                <path fill="#000000" stroke="none" d="M 23.085897 13.872521 L 23.085897 12.880334 Q 23.35565 13.106676 23.671911 13.219848 Q 23.988167 13.333019 24.31063 13.333019 Q 24.499765 13.333019 24.640842 13.298913 Q 24.78192 13.264807 24.876488 13.204345 Q 24.971056 13.143884 25.017565 13.061718 Q 25.064074 12.979552 25.064074 12.883434 Q 25.064074 12.75321 24.989658 12.65089 Q 24.915247 12.548573 24.78657 12.461755 Q 24.657896 12.374938 24.481163 12.294323 Q 24.30443 12.213708 24.09979 12.1299925 Q 23.578894 11.912951 23.323093 11.5997925 Q 23.067295 11.286633 23.067295 10.84325 Q 23.067295 10.495983 23.206823 10.246387 Q 23.346348 9.996789 23.586645 9.835558 Q 23.826939 9.674328 24.143198 9.598364 Q 24.45946 9.5224 24.812925 9.5224 Q 25.160189 9.5224 25.428392 9.564257 Q 25.69659 9.606115 25.922935 9.692932 L 25.922935 10.620007 Q 25.811312 10.542492 25.679539 10.483582 Q 25.547764 10.42467 25.408237 10.385913 Q 25.268711 10.347156 25.130737 10.328552 Q 24.99276 10.309948 24.868736 10.309948 Q 24.698204 10.309948 24.558676 10.3425045 Q 24.419151 10.375061 24.323034 10.433971 Q 24.226915 10.492883 24.174202 10.575048 Q 24.121494 10.657214 24.121494 10.759533 Q 24.121494 10.871155 24.180407 10.959521 Q 24.239317 11.047888 24.347837 11.126953 Q 24.456358 11.2060175 24.611387 11.281982 Q 24.766415 11.357947 24.961754 11.438561 Q 25.228403 11.550182 25.440794 11.675756 Q 25.653185 11.8013315 25.805113 11.95946 Q 25.95704 12.11759 26.037657 12.320677 Q 26.118273 12.523767 26.118273 12.793517 Q 26.118273 13.165587 25.977196 13.418284 Q 25.836119 13.670983 25.594273 13.827563 Q 25.352428 13.984142 25.031517 14.052356 Q 24.710606 14.120568 24.354038 14.120568 Q 23.988167 14.120568 23.657955 14.058557 Q 23.327747 13.996545 23.085897 13.872521 Z M 30.849766 14.043054 L 29.838976 14.043054 L 28.006529 11.249426 Q 27.845299 11.00448 27.783289 10.880456 L 27.770885 10.880456 Q 27.795689 11.1161 27.795689 11.5997925 L 27.795689 14.043054 L 26.85001 14.043054 L 26.85001 9.596813 L 27.929014 9.596813 L 29.693249 12.303625 Q 29.814169 12.48656 29.91649 12.666393 L 29.92889 12.666393 Q 29.904087 12.511364 29.904087 12.055577 L 29.904087 9.596813 L 30.849766 9.596813 L 30.849766 14.043054 Z M 34.53326 14.043054 L 31.866756 14.043054 L 31.866756 9.596813 L 34.430943 9.596813 L 34.430943 10.412268 L 32.868248 10.412268 L 32.868248 11.401354 L 34.322422 11.401354 L 34.322422 12.213708 L 32.868248 12.213708 L 32.868248 13.2307005 L 34.53326 13.2307005 L 34.53326 14.043054 Z M 38.4338 13.884924 Q 37.947006 14.120568 37.16256 14.120568 Q 36.139366 14.120568 35.553352 13.519054 Q 34.967342 12.9175415 34.967342 11.916053 Q 34.967342 10.84945 35.626217 10.185925 Q 36.28509 9.5224 37.33619 9.5224 Q 37.987312 9.5224 38.4338 9.68673 L 38.4338 10.651012 Q 37.987312 10.384362 37.416805 10.384362 Q 36.79049 10.384362 36.406013 10.778137 Q 36.02154 11.171911 36.02154 11.844739 Q 36.02154 12.48966 36.38431 12.872582 Q 36.747078 13.255505 37.360996 13.255505 Q 37.947006 13.255505 38.4338 12.970251 L 38.4338 13.884924 Z M 43.056767 14.043054 L 42.05218 14.043054 L 42.05218 12.232311 L 40.210434 12.232311 L 40.210434 14.043054 L 39.208942 14.043054 L 39.208942 9.596813 L 40.210434 9.596813 L 40.210434 11.370349 L 42.05218 11.370349 L 42.05218 9.596813 L 43.056767 9.596813 L 43.056767 14.043054 Z M 45.95272 14.120568 Q 44.997738 14.120568 44.396225 13.4989 Q 43.794712 12.8772335 43.794712 11.878845 Q 43.794712 10.824646 44.40553 10.173523 Q 45.016342 9.5224 46.024033 9.5224 Q 46.975914 9.5224 47.56348 10.1456175 Q 48.151035 10.768834 48.151035 11.788928 Q 48.151035 12.8369255 47.54177 13.478746 Q 46.932507 14.120568 45.95272 14.120568 Z M 45.996128 10.384362 Q 45.469032 10.384362 45.15897 10.779686 Q 44.84891 11.175012 44.84891 11.826135 Q 44.84891 12.48656 45.15897 12.871033 Q 45.469032 13.255505 45.97132 13.255505 Q 46.48912 13.255505 46.79298 12.881885 Q 47.096836 12.508264 47.096836 11.844739 Q 47.096836 11.153308 46.802277 10.768834 Q 46.507725 10.384362 45.996128 10.384362 Z" />
            </g>
        </g>
        <g id="layer3" />
    </g>
</svg>