M48
; DRILL file {KiCad 8.0.4} date 2024-07-30T00:26:16-0400
; FORMAT={-:-/ absolute / inch / decimal}
; #@! TF.CreationDate,2024-07-30T00:26:16-04:00
; #@! TF.GenerationSoftware,Kicad,Pcbnew,8.0.4
; #@! TF.FileFunction,Plated,1,2,PTH
FMAT,2
INCH
; #@! TA.AperFunction,Plated,PTH,ViaDrill
T1C0.0118
; #@! TA.AperFunction,Plated,PTH,ComponentDrill
T2C0.0374
; #@! TA.AperFunction,Plated,PTH,ComponentDrill
T3C0.0472
; #@! TA.AperFunction,Plated,PTH,ComponentDrill
T4C0.0550
; #@! TA.AperFunction,Plated,PTH,ComponentDrill
T5C0.0906
%
G90
G05
T1
X5.4329Y-3.8191
X6.0039Y-3.6811
X6.6339Y-4.3307
X6.9685Y-3.5827
X7.126Y-4.3898
X7.4016Y-4.3307
T2
X7.628Y-4.7525
X7.628Y-4.8312
X7.7264Y-4.7525
X7.7264Y-4.8312
T3
X6.2535Y-3.6811
X6.2535Y-3.7811
X6.3535Y-3.6811
X6.3535Y-3.7811
X6.4535Y-3.6811
X6.4535Y-3.7811
X6.5535Y-3.6811
X6.5535Y-3.7811
X6.6535Y-3.6811
X6.6535Y-3.7811
T4
X4.941Y-4.8624
X5.0395Y-4.7639
X5.2362Y-4.8623
X5.4329Y-4.7639
X5.5314Y-4.8624
X5.7087Y-4.8624
X5.8072Y-4.7639
X6.0039Y-4.8623
X6.2006Y-4.7639
X6.2991Y-4.8624
X6.4764Y-4.8624
X6.5749Y-4.7639
X6.7716Y-4.8623
X6.9683Y-4.7639
X7.0668Y-4.8624
T5
X7.4409Y-4.9438
X7.9134Y-4.9438
M30
