<?xml version="1.0" standalone="no"?>
 <!DOCTYPE svg PUBLIC "-//W3C//DTD SVG 1.1//EN" 
 "http://www.w3.org/Graphics/SVG/1.1/DTD/svg11.dtd"> 
<svg
  xmlns:svg="http://www.w3.org/2000/svg"
  xmlns="http://www.w3.org/2000/svg"
  xmlns:xlink="http://www.w3.org/1999/xlink"
  version="1.1"
  width="80.8482mm" height="110.0328mm" viewBox="0.0000 0.0000 80.8482 110.0328">
<title>SVG Image created as mixer-brd.svg date 2024/12/27 07:00:46 </title>
  <desc>Image generated by PCBNEW </desc>
<g style="fill:#000000; fill-opacity:1.0000;stroke:#000000; stroke-opacity:1.0000;
stroke-linecap:round; stroke-linejoin:round;"
 transform="translate(0 0) scale(1 1)">
</g>
<g style="fill:none; 
stroke:#C2C2C2; stroke-width:0.1500; stroke-opacity:1; 
stroke-linecap:round; stroke-linejoin:round;">
<text x="75.5250" y="109.2750"
textLength="5.2976" font-size="1.3333" lengthAdjust="spacingAndGlyphs"
text-anchor="middle" opacity="0" stroke-opacity="0">shroud</text>
<g class="stroked-text"><desc>shroud</desc>
<path d="M73.1917 109.1822
L73.2869 109.2298
" />
<path d="M73.2869 109.2298
L73.4774 109.2298
" />
<path d="M73.4774 109.2298
L73.5726 109.1822
" />
<path d="M73.5726 109.1822
L73.6202 109.0870
" />
<path d="M73.6202 109.0870
L73.6202 109.0393
" />
<path d="M73.6202 109.0393
L73.5726 108.9441
" />
<path d="M73.5726 108.9441
L73.4774 108.8965
" />
<path d="M73.4774 108.8965
L73.3345 108.8965
" />
<path d="M73.3345 108.8965
L73.2393 108.8489
" />
<path d="M73.2393 108.8489
L73.1917 108.7536
" />
<path d="M73.1917 108.7536
L73.1917 108.7060
" />
<path d="M73.1917 108.7060
L73.2393 108.6108
" />
<path d="M73.2393 108.6108
L73.3345 108.5632
" />
<path d="M73.3345 108.5632
L73.4774 108.5632
" />
<path d="M73.4774 108.5632
L73.5726 108.6108
" />
<path d="M74.0488 109.2298
L74.0488 108.2298
" />
<path d="M74.4774 109.2298
L74.4774 108.7060
" />
<path d="M74.4774 108.7060
L74.4298 108.6108
" />
<path d="M74.4298 108.6108
L74.3345 108.5632
" />
<path d="M74.3345 108.5632
L74.1917 108.5632
" />
<path d="M74.1917 108.5632
L74.0964 108.6108
" />
<path d="M74.0964 108.6108
L74.0488 108.6584
" />
<path d="M74.9536 109.2298
L74.9536 108.5632
" />
<path d="M74.9536 108.7536
L75.0012 108.6584
" />
<path d="M75.0012 108.6584
L75.0488 108.6108
" />
<path d="M75.0488 108.6108
L75.1440 108.5632
" />
<path d="M75.1440 108.5632
L75.2393 108.5632
" />
<path d="M75.7155 109.2298
L75.6202 109.1822
" />
<path d="M75.6202 109.1822
L75.5726 109.1346
" />
<path d="M75.5726 109.1346
L75.5250 109.0393
" />
<path d="M75.5250 109.0393
L75.5250 108.7536
" />
<path d="M75.5250 108.7536
L75.5726 108.6584
" />
<path d="M75.5726 108.6584
L75.6202 108.6108
" />
<path d="M75.6202 108.6108
L75.7155 108.5632
" />
<path d="M75.7155 108.5632
L75.8583 108.5632
" />
<path d="M75.8583 108.5632
L75.9536 108.6108
" />
<path d="M75.9536 108.6108
L76.0012 108.6584
" />
<path d="M76.0012 108.6584
L76.0488 108.7536
" />
<path d="M76.0488 108.7536
L76.0488 109.0393
" />
<path d="M76.0488 109.0393
L76.0012 109.1346
" />
<path d="M76.0012 109.1346
L75.9536 109.1822
" />
<path d="M75.9536 109.1822
L75.8583 109.2298
" />
<path d="M75.8583 109.2298
L75.7155 109.2298
" />
<path d="M76.9060 108.5632
L76.9060 109.2298
" />
<path d="M76.4774 108.5632
L76.4774 109.0870
" />
<path d="M76.4774 109.0870
L76.5250 109.1822
" />
<path d="M76.5250 109.1822
L76.6202 109.2298
" />
<path d="M76.6202 109.2298
L76.7631 109.2298
" />
<path d="M76.7631 109.2298
L76.8583 109.1822
" />
<path d="M76.8583 109.1822
L76.9060 109.1346
" />
<path d="M77.8107 109.2298
L77.8107 108.2298
" />
<path d="M77.8107 109.1822
L77.7155 109.2298
" />
<path d="M77.7155 109.2298
L77.5250 109.2298
" />
<path d="M77.5250 109.2298
L77.4298 109.1822
" />
<path d="M77.4298 109.1822
L77.3821 109.1346
" />
<path d="M77.3821 109.1346
L77.3345 109.0393
" />
<path d="M77.3345 109.0393
L77.3345 108.7536
" />
<path d="M77.3345 108.7536
L77.3821 108.6584
" />
<path d="M77.3821 108.6584
L77.4298 108.6108
" />
<path d="M77.4298 108.6108
L77.5250 108.5632
" />
<path d="M77.5250 108.5632
L77.7155 108.5632
" />
<path d="M77.7155 108.5632
L77.8107 108.6108
" />
</g><text x="75.5350" y="91.7250"
textLength="5.2976" font-size="1.3333" lengthAdjust="spacingAndGlyphs"
text-anchor="middle" opacity="0" stroke-opacity="0">shroud</text>
<g class="stroked-text"><desc>shroud</desc>
<path d="M73.2017 91.6322
L73.2969 91.6798
" />
<path d="M73.2969 91.6798
L73.4874 91.6798
" />
<path d="M73.4874 91.6798
L73.5826 91.6322
" />
<path d="M73.5826 91.6322
L73.6302 91.5370
" />
<path d="M73.6302 91.5370
L73.6302 91.4893
" />
<path d="M73.6302 91.4893
L73.5826 91.3941
" />
<path d="M73.5826 91.3941
L73.4874 91.3465
" />
<path d="M73.4874 91.3465
L73.3445 91.3465
" />
<path d="M73.3445 91.3465
L73.2493 91.2989
" />
<path d="M73.2493 91.2989
L73.2017 91.2036
" />
<path d="M73.2017 91.2036
L73.2017 91.1560
" />
<path d="M73.2017 91.1560
L73.2493 91.0608
" />
<path d="M73.2493 91.0608
L73.3445 91.0132
" />
<path d="M73.3445 91.0132
L73.4874 91.0132
" />
<path d="M73.4874 91.0132
L73.5826 91.0608
" />
<path d="M74.0588 91.6798
L74.0588 90.6798
" />
<path d="M74.4874 91.6798
L74.4874 91.1560
" />
<path d="M74.4874 91.1560
L74.4398 91.0608
" />
<path d="M74.4398 91.0608
L74.3445 91.0132
" />
<path d="M74.3445 91.0132
L74.2017 91.0132
" />
<path d="M74.2017 91.0132
L74.1064 91.0608
" />
<path d="M74.1064 91.0608
L74.0588 91.1084
" />
<path d="M74.9636 91.6798
L74.9636 91.0132
" />
<path d="M74.9636 91.2036
L75.0112 91.1084
" />
<path d="M75.0112 91.1084
L75.0588 91.0608
" />
<path d="M75.0588 91.0608
L75.1540 91.0132
" />
<path d="M75.1540 91.0132
L75.2493 91.0132
" />
<path d="M75.7255 91.6798
L75.6302 91.6322
" />
<path d="M75.6302 91.6322
L75.5826 91.5846
" />
<path d="M75.5826 91.5846
L75.5350 91.4893
" />
<path d="M75.5350 91.4893
L75.5350 91.2036
" />
<path d="M75.5350 91.2036
L75.5826 91.1084
" />
<path d="M75.5826 91.1084
L75.6302 91.0608
" />
<path d="M75.6302 91.0608
L75.7255 91.0132
" />
<path d="M75.7255 91.0132
L75.8683 91.0132
" />
<path d="M75.8683 91.0132
L75.9636 91.0608
" />
<path d="M75.9636 91.0608
L76.0112 91.1084
" />
<path d="M76.0112 91.1084
L76.0588 91.2036
" />
<path d="M76.0588 91.2036
L76.0588 91.4893
" />
<path d="M76.0588 91.4893
L76.0112 91.5846
" />
<path d="M76.0112 91.5846
L75.9636 91.6322
" />
<path d="M75.9636 91.6322
L75.8683 91.6798
" />
<path d="M75.8683 91.6798
L75.7255 91.6798
" />
<path d="M76.9160 91.0132
L76.9160 91.6798
" />
<path d="M76.4874 91.0132
L76.4874 91.5370
" />
<path d="M76.4874 91.5370
L76.5350 91.6322
" />
<path d="M76.5350 91.6322
L76.6302 91.6798
" />
<path d="M76.6302 91.6798
L76.7731 91.6798
" />
<path d="M76.7731 91.6798
L76.8683 91.6322
" />
<path d="M76.8683 91.6322
L76.9160 91.5846
" />
<path d="M77.8207 91.6798
L77.8207 90.6798
" />
<path d="M77.8207 91.6322
L77.7255 91.6798
" />
<path d="M77.7255 91.6798
L77.5350 91.6798
" />
<path d="M77.5350 91.6798
L77.4398 91.6322
" />
<path d="M77.4398 91.6322
L77.3921 91.5846
" />
<path d="M77.3921 91.5846
L77.3445 91.4893
" />
<path d="M77.3445 91.4893
L77.3445 91.2036
" />
<path d="M77.3445 91.2036
L77.3921 91.1084
" />
<path d="M77.3921 91.1084
L77.4398 91.0608
" />
<path d="M77.4398 91.0608
L77.5350 91.0132
" />
<path d="M77.5350 91.0132
L77.7255 91.0132
" />
<path d="M77.7255 91.0132
L77.8207 91.0608
" />
</g></g>
<g style="fill:none; 
stroke:#5994DC; stroke-width:0.0510; stroke-opacity:1; 
stroke-linecap:round; stroke-linejoin:round;">
<text x="45.0250" y="6.7250"
textLength="2.7397" font-size="0.5333" lengthAdjust="spacingAndGlyphs"
text-anchor="middle" opacity="0" stroke-opacity="0">KEEPOUT</text>
<g class="stroked-text"><desc>KEEPOUT</desc>
<path d="M43.7869 6.7074
L43.7869 6.3074
" />
<path d="M44.0155 6.7074
L43.8440 6.4788
" />
<path d="M44.0155 6.3074
L43.7869 6.5360
" />
<path d="M44.1869 6.4979
L44.3202 6.4979
" />
<path d="M44.3774 6.7074
L44.1869 6.7074
" />
<path d="M44.1869 6.7074
L44.1869 6.3074
" />
<path d="M44.1869 6.3074
L44.3774 6.3074
" />
<path d="M44.5488 6.4979
L44.6821 6.4979
" />
<path d="M44.7393 6.7074
L44.5488 6.7074
" />
<path d="M44.5488 6.7074
L44.5488 6.3074
" />
<path d="M44.5488 6.3074
L44.7393 6.3074
" />
<path d="M44.9107 6.7074
L44.9107 6.3074
" />
<path d="M44.9107 6.3074
L45.0631 6.3074
" />
<path d="M45.0631 6.3074
L45.1012 6.3264
" />
<path d="M45.1012 6.3264
L45.1202 6.3455
" />
<path d="M45.1202 6.3455
L45.1393 6.3836
" />
<path d="M45.1393 6.3836
L45.1393 6.4407
" />
<path d="M45.1393 6.4407
L45.1202 6.4788
" />
<path d="M45.1202 6.4788
L45.1012 6.4979
" />
<path d="M45.1012 6.4979
L45.0631 6.5169
" />
<path d="M45.0631 6.5169
L44.9107 6.5169
" />
<path d="M45.3869 6.3074
L45.4631 6.3074
" />
<path d="M45.4631 6.3074
L45.5012 6.3264
" />
<path d="M45.5012 6.3264
L45.5393 6.3645
" />
<path d="M45.5393 6.3645
L45.5583 6.4407
" />
<path d="M45.5583 6.4407
L45.5583 6.5741
" />
<path d="M45.5583 6.5741
L45.5393 6.6503
" />
<path d="M45.5393 6.6503
L45.5012 6.6883
" />
<path d="M45.5012 6.6883
L45.4631 6.7074
" />
<path d="M45.4631 6.7074
L45.3869 6.7074
" />
<path d="M45.3869 6.7074
L45.3488 6.6883
" />
<path d="M45.3488 6.6883
L45.3107 6.6503
" />
<path d="M45.3107 6.6503
L45.2917 6.5741
" />
<path d="M45.2917 6.5741
L45.2917 6.4407
" />
<path d="M45.2917 6.4407
L45.3107 6.3645
" />
<path d="M45.3107 6.3645
L45.3488 6.3264
" />
<path d="M45.3488 6.3264
L45.3869 6.3074
" />
<path d="M45.7298 6.3074
L45.7298 6.6312
" />
<path d="M45.7298 6.6312
L45.7488 6.6693
" />
<path d="M45.7488 6.6693
L45.7679 6.6883
" />
<path d="M45.7679 6.6883
L45.8060 6.7074
" />
<path d="M45.8060 6.7074
L45.8821 6.7074
" />
<path d="M45.8821 6.7074
L45.9202 6.6883
" />
<path d="M45.9202 6.6883
L45.9393 6.6693
" />
<path d="M45.9393 6.6693
L45.9583 6.6312
" />
<path d="M45.9583 6.6312
L45.9583 6.3074
" />
<path d="M46.0917 6.3074
L46.3202 6.3074
" />
<path d="M46.2060 6.7074
L46.2060 6.3074
" />
</g><text x="35.0250" y="6.7250"
textLength="2.7397" font-size="0.5333" lengthAdjust="spacingAndGlyphs"
text-anchor="middle" opacity="0" stroke-opacity="0">KEEPOUT</text>
<g class="stroked-text"><desc>KEEPOUT</desc>
<path d="M33.7869 6.7074
L33.7869 6.3074
" />
<path d="M34.0155 6.7074
L33.8440 6.4788
" />
<path d="M34.0155 6.3074
L33.7869 6.5360
" />
<path d="M34.1869 6.4979
L34.3202 6.4979
" />
<path d="M34.3774 6.7074
L34.1869 6.7074
" />
<path d="M34.1869 6.7074
L34.1869 6.3074
" />
<path d="M34.1869 6.3074
L34.3774 6.3074
" />
<path d="M34.5488 6.4979
L34.6821 6.4979
" />
<path d="M34.7393 6.7074
L34.5488 6.7074
" />
<path d="M34.5488 6.7074
L34.5488 6.3074
" />
<path d="M34.5488 6.3074
L34.7393 6.3074
" />
<path d="M34.9107 6.7074
L34.9107 6.3074
" />
<path d="M34.9107 6.3074
L35.0631 6.3074
" />
<path d="M35.0631 6.3074
L35.1012 6.3264
" />
<path d="M35.1012 6.3264
L35.1202 6.3455
" />
<path d="M35.1202 6.3455
L35.1393 6.3836
" />
<path d="M35.1393 6.3836
L35.1393 6.4407
" />
<path d="M35.1393 6.4407
L35.1202 6.4788
" />
<path d="M35.1202 6.4788
L35.1012 6.4979
" />
<path d="M35.1012 6.4979
L35.0631 6.5169
" />
<path d="M35.0631 6.5169
L34.9107 6.5169
" />
<path d="M35.3869 6.3074
L35.4631 6.3074
" />
<path d="M35.4631 6.3074
L35.5012 6.3264
" />
<path d="M35.5012 6.3264
L35.5393 6.3645
" />
<path d="M35.5393 6.3645
L35.5583 6.4407
" />
<path d="M35.5583 6.4407
L35.5583 6.5741
" />
<path d="M35.5583 6.5741
L35.5393 6.6503
" />
<path d="M35.5393 6.6503
L35.5012 6.6883
" />
<path d="M35.5012 6.6883
L35.4631 6.7074
" />
<path d="M35.4631 6.7074
L35.3869 6.7074
" />
<path d="M35.3869 6.7074
L35.3488 6.6883
" />
<path d="M35.3488 6.6883
L35.3107 6.6503
" />
<path d="M35.3107 6.6503
L35.2917 6.5741
" />
<path d="M35.2917 6.5741
L35.2917 6.4407
" />
<path d="M35.2917 6.4407
L35.3107 6.3645
" />
<path d="M35.3107 6.3645
L35.3488 6.3264
" />
<path d="M35.3488 6.3264
L35.3869 6.3074
" />
<path d="M35.7298 6.3074
L35.7298 6.6312
" />
<path d="M35.7298 6.6312
L35.7488 6.6693
" />
<path d="M35.7488 6.6693
L35.7679 6.6883
" />
<path d="M35.7679 6.6883
L35.8060 6.7074
" />
<path d="M35.8060 6.7074
L35.8821 6.7074
" />
<path d="M35.8821 6.7074
L35.9202 6.6883
" />
<path d="M35.9202 6.6883
L35.9393 6.6693
" />
<path d="M35.9393 6.6693
L35.9583 6.6312
" />
<path d="M35.9583 6.6312
L35.9583 6.3074
" />
<path d="M36.0917 6.3074
L36.3202 6.3074
" />
<path d="M36.2060 6.7074
L36.2060 6.3074
" />
</g><text x="25.0250" y="6.7250"
textLength="2.7397" font-size="0.5333" lengthAdjust="spacingAndGlyphs"
text-anchor="middle" opacity="0" stroke-opacity="0">KEEPOUT</text>
<g class="stroked-text"><desc>KEEPOUT</desc>
<path d="M23.7869 6.7074
L23.7869 6.3074
" />
<path d="M24.0155 6.7074
L23.8440 6.4788
" />
<path d="M24.0155 6.3074
L23.7869 6.5360
" />
<path d="M24.1869 6.4979
L24.3202 6.4979
" />
<path d="M24.3774 6.7074
L24.1869 6.7074
" />
<path d="M24.1869 6.7074
L24.1869 6.3074
" />
<path d="M24.1869 6.3074
L24.3774 6.3074
" />
<path d="M24.5488 6.4979
L24.6821 6.4979
" />
<path d="M24.7393 6.7074
L24.5488 6.7074
" />
<path d="M24.5488 6.7074
L24.5488 6.3074
" />
<path d="M24.5488 6.3074
L24.7393 6.3074
" />
<path d="M24.9107 6.7074
L24.9107 6.3074
" />
<path d="M24.9107 6.3074
L25.0631 6.3074
" />
<path d="M25.0631 6.3074
L25.1012 6.3264
" />
<path d="M25.1012 6.3264
L25.1202 6.3455
" />
<path d="M25.1202 6.3455
L25.1393 6.3836
" />
<path d="M25.1393 6.3836
L25.1393 6.4407
" />
<path d="M25.1393 6.4407
L25.1202 6.4788
" />
<path d="M25.1202 6.4788
L25.1012 6.4979
" />
<path d="M25.1012 6.4979
L25.0631 6.5169
" />
<path d="M25.0631 6.5169
L24.9107 6.5169
" />
<path d="M25.3869 6.3074
L25.4631 6.3074
" />
<path d="M25.4631 6.3074
L25.5012 6.3264
" />
<path d="M25.5012 6.3264
L25.5393 6.3645
" />
<path d="M25.5393 6.3645
L25.5583 6.4407
" />
<path d="M25.5583 6.4407
L25.5583 6.5741
" />
<path d="M25.5583 6.5741
L25.5393 6.6503
" />
<path d="M25.5393 6.6503
L25.5012 6.6883
" />
<path d="M25.5012 6.6883
L25.4631 6.7074
" />
<path d="M25.4631 6.7074
L25.3869 6.7074
" />
<path d="M25.3869 6.7074
L25.3488 6.6883
" />
<path d="M25.3488 6.6883
L25.3107 6.6503
" />
<path d="M25.3107 6.6503
L25.2917 6.5741
" />
<path d="M25.2917 6.5741
L25.2917 6.4407
" />
<path d="M25.2917 6.4407
L25.3107 6.3645
" />
<path d="M25.3107 6.3645
L25.3488 6.3264
" />
<path d="M25.3488 6.3264
L25.3869 6.3074
" />
<path d="M25.7298 6.3074
L25.7298 6.6312
" />
<path d="M25.7298 6.6312
L25.7488 6.6693
" />
<path d="M25.7488 6.6693
L25.7679 6.6883
" />
<path d="M25.7679 6.6883
L25.8060 6.7074
" />
<path d="M25.8060 6.7074
L25.8821 6.7074
" />
<path d="M25.8821 6.7074
L25.9202 6.6883
" />
<path d="M25.9202 6.6883
L25.9393 6.6693
" />
<path d="M25.9393 6.6693
L25.9583 6.6312
" />
<path d="M25.9583 6.6312
L25.9583 6.3074
" />
<path d="M26.0917 6.3074
L26.3202 6.3074
" />
<path d="M26.2060 6.7074
L26.2060 6.3074
" />
</g><text x="15.0250" y="6.7250"
textLength="2.7397" font-size="0.5333" lengthAdjust="spacingAndGlyphs"
text-anchor="middle" opacity="0" stroke-opacity="0">KEEPOUT</text>
<g class="stroked-text"><desc>KEEPOUT</desc>
<path d="M13.7869 6.7074
L13.7869 6.3074
" />
<path d="M14.0155 6.7074
L13.8440 6.4788
" />
<path d="M14.0155 6.3074
L13.7869 6.5360
" />
<path d="M14.1869 6.4979
L14.3202 6.4979
" />
<path d="M14.3774 6.7074
L14.1869 6.7074
" />
<path d="M14.1869 6.7074
L14.1869 6.3074
" />
<path d="M14.1869 6.3074
L14.3774 6.3074
" />
<path d="M14.5488 6.4979
L14.6821 6.4979
" />
<path d="M14.7393 6.7074
L14.5488 6.7074
" />
<path d="M14.5488 6.7074
L14.5488 6.3074
" />
<path d="M14.5488 6.3074
L14.7393 6.3074
" />
<path d="M14.9107 6.7074
L14.9107 6.3074
" />
<path d="M14.9107 6.3074
L15.0631 6.3074
" />
<path d="M15.0631 6.3074
L15.1012 6.3264
" />
<path d="M15.1012 6.3264
L15.1202 6.3455
" />
<path d="M15.1202 6.3455
L15.1393 6.3836
" />
<path d="M15.1393 6.3836
L15.1393 6.4407
" />
<path d="M15.1393 6.4407
L15.1202 6.4788
" />
<path d="M15.1202 6.4788
L15.1012 6.4979
" />
<path d="M15.1012 6.4979
L15.0631 6.5169
" />
<path d="M15.0631 6.5169
L14.9107 6.5169
" />
<path d="M15.3869 6.3074
L15.4631 6.3074
" />
<path d="M15.4631 6.3074
L15.5012 6.3264
" />
<path d="M15.5012 6.3264
L15.5393 6.3645
" />
<path d="M15.5393 6.3645
L15.5583 6.4407
" />
<path d="M15.5583 6.4407
L15.5583 6.5741
" />
<path d="M15.5583 6.5741
L15.5393 6.6503
" />
<path d="M15.5393 6.6503
L15.5012 6.6883
" />
<path d="M15.5012 6.6883
L15.4631 6.7074
" />
<path d="M15.4631 6.7074
L15.3869 6.7074
" />
<path d="M15.3869 6.7074
L15.3488 6.6883
" />
<path d="M15.3488 6.6883
L15.3107 6.6503
" />
<path d="M15.3107 6.6503
L15.2917 6.5741
" />
<path d="M15.2917 6.5741
L15.2917 6.4407
" />
<path d="M15.2917 6.4407
L15.3107 6.3645
" />
<path d="M15.3107 6.3645
L15.3488 6.3264
" />
<path d="M15.3488 6.3264
L15.3869 6.3074
" />
<path d="M15.7298 6.3074
L15.7298 6.6312
" />
<path d="M15.7298 6.6312
L15.7488 6.6693
" />
<path d="M15.7488 6.6693
L15.7679 6.6883
" />
<path d="M15.7679 6.6883
L15.8060 6.7074
" />
<path d="M15.8060 6.7074
L15.8821 6.7074
" />
<path d="M15.8821 6.7074
L15.9202 6.6883
" />
<path d="M15.9202 6.6883
L15.9393 6.6693
" />
<path d="M15.9393 6.6693
L15.9583 6.6312
" />
<path d="M15.9583 6.6312
L15.9583 6.3074
" />
<path d="M16.0917 6.3074
L16.3202 6.3074
" />
<path d="M16.2060 6.7074
L16.2060 6.3074
" />
</g><text x="5.0250" y="6.7250"
textLength="2.7397" font-size="0.5333" lengthAdjust="spacingAndGlyphs"
text-anchor="middle" opacity="0" stroke-opacity="0">KEEPOUT</text>
<g class="stroked-text"><desc>KEEPOUT</desc>
<path d="M3.7869 6.7074
L3.7869 6.3074
" />
<path d="M4.0155 6.7074
L3.8440 6.4788
" />
<path d="M4.0155 6.3074
L3.7869 6.5360
" />
<path d="M4.1869 6.4979
L4.3202 6.4979
" />
<path d="M4.3774 6.7074
L4.1869 6.7074
" />
<path d="M4.1869 6.7074
L4.1869 6.3074
" />
<path d="M4.1869 6.3074
L4.3774 6.3074
" />
<path d="M4.5488 6.4979
L4.6821 6.4979
" />
<path d="M4.7393 6.7074
L4.5488 6.7074
" />
<path d="M4.5488 6.7074
L4.5488 6.3074
" />
<path d="M4.5488 6.3074
L4.7393 6.3074
" />
<path d="M4.9107 6.7074
L4.9107 6.3074
" />
<path d="M4.9107 6.3074
L5.0631 6.3074
" />
<path d="M5.0631 6.3074
L5.1012 6.3264
" />
<path d="M5.1012 6.3264
L5.1202 6.3455
" />
<path d="M5.1202 6.3455
L5.1393 6.3836
" />
<path d="M5.1393 6.3836
L5.1393 6.4407
" />
<path d="M5.1393 6.4407
L5.1202 6.4788
" />
<path d="M5.1202 6.4788
L5.1012 6.4979
" />
<path d="M5.1012 6.4979
L5.0631 6.5169
" />
<path d="M5.0631 6.5169
L4.9107 6.5169
" />
<path d="M5.3869 6.3074
L5.4631 6.3074
" />
<path d="M5.4631 6.3074
L5.5012 6.3264
" />
<path d="M5.5012 6.3264
L5.5393 6.3645
" />
<path d="M5.5393 6.3645
L5.5583 6.4407
" />
<path d="M5.5583 6.4407
L5.5583 6.5741
" />
<path d="M5.5583 6.5741
L5.5393 6.6503
" />
<path d="M5.5393 6.6503
L5.5012 6.6883
" />
<path d="M5.5012 6.6883
L5.4631 6.7074
" />
<path d="M5.4631 6.7074
L5.3869 6.7074
" />
<path d="M5.3869 6.7074
L5.3488 6.6883
" />
<path d="M5.3488 6.6883
L5.3107 6.6503
" />
<path d="M5.3107 6.6503
L5.2917 6.5741
" />
<path d="M5.2917 6.5741
L5.2917 6.4407
" />
<path d="M5.2917 6.4407
L5.3107 6.3645
" />
<path d="M5.3107 6.3645
L5.3488 6.3264
" />
<path d="M5.3488 6.3264
L5.3869 6.3074
" />
<path d="M5.7298 6.3074
L5.7298 6.6312
" />
<path d="M5.7298 6.6312
L5.7488 6.6693
" />
<path d="M5.7488 6.6693
L5.7679 6.6883
" />
<path d="M5.7679 6.6883
L5.8060 6.7074
" />
<path d="M5.8060 6.7074
L5.8821 6.7074
" />
<path d="M5.8821 6.7074
L5.9202 6.6883
" />
<path d="M5.9202 6.6883
L5.9393 6.6693
" />
<path d="M5.9393 6.6693
L5.9583 6.6312
" />
<path d="M5.9583 6.6312
L5.9583 6.3074
" />
<path d="M6.0917 6.3074
L6.3202 6.3074
" />
<path d="M6.2060 6.7074
L6.2060 6.3074
" />
</g><text x="75.0250" y="6.7250"
textLength="2.7397" font-size="0.5333" lengthAdjust="spacingAndGlyphs"
text-anchor="middle" opacity="0" stroke-opacity="0">KEEPOUT</text>
<g class="stroked-text"><desc>KEEPOUT</desc>
<path d="M73.7869 6.7074
L73.7869 6.3074
" />
<path d="M74.0155 6.7074
L73.8440 6.4788
" />
<path d="M74.0155 6.3074
L73.7869 6.5360
" />
<path d="M74.1869 6.4979
L74.3202 6.4979
" />
<path d="M74.3774 6.7074
L74.1869 6.7074
" />
<path d="M74.1869 6.7074
L74.1869 6.3074
" />
<path d="M74.1869 6.3074
L74.3774 6.3074
" />
<path d="M74.5488 6.4979
L74.6821 6.4979
" />
<path d="M74.7393 6.7074
L74.5488 6.7074
" />
<path d="M74.5488 6.7074
L74.5488 6.3074
" />
<path d="M74.5488 6.3074
L74.7393 6.3074
" />
<path d="M74.9107 6.7074
L74.9107 6.3074
" />
<path d="M74.9107 6.3074
L75.0631 6.3074
" />
<path d="M75.0631 6.3074
L75.1012 6.3264
" />
<path d="M75.1012 6.3264
L75.1202 6.3455
" />
<path d="M75.1202 6.3455
L75.1393 6.3836
" />
<path d="M75.1393 6.3836
L75.1393 6.4407
" />
<path d="M75.1393 6.4407
L75.1202 6.4788
" />
<path d="M75.1202 6.4788
L75.1012 6.4979
" />
<path d="M75.1012 6.4979
L75.0631 6.5169
" />
<path d="M75.0631 6.5169
L74.9107 6.5169
" />
<path d="M75.3869 6.3074
L75.4631 6.3074
" />
<path d="M75.4631 6.3074
L75.5012 6.3264
" />
<path d="M75.5012 6.3264
L75.5393 6.3645
" />
<path d="M75.5393 6.3645
L75.5583 6.4407
" />
<path d="M75.5583 6.4407
L75.5583 6.5741
" />
<path d="M75.5583 6.5741
L75.5393 6.6503
" />
<path d="M75.5393 6.6503
L75.5012 6.6883
" />
<path d="M75.5012 6.6883
L75.4631 6.7074
" />
<path d="M75.4631 6.7074
L75.3869 6.7074
" />
<path d="M75.3869 6.7074
L75.3488 6.6883
" />
<path d="M75.3488 6.6883
L75.3107 6.6503
" />
<path d="M75.3107 6.6503
L75.2917 6.5741
" />
<path d="M75.2917 6.5741
L75.2917 6.4407
" />
<path d="M75.2917 6.4407
L75.3107 6.3645
" />
<path d="M75.3107 6.3645
L75.3488 6.3264
" />
<path d="M75.3488 6.3264
L75.3869 6.3074
" />
<path d="M75.7298 6.3074
L75.7298 6.6312
" />
<path d="M75.7298 6.6312
L75.7488 6.6693
" />
<path d="M75.7488 6.6693
L75.7679 6.6883
" />
<path d="M75.7679 6.6883
L75.8060 6.7074
" />
<path d="M75.8060 6.7074
L75.8821 6.7074
" />
<path d="M75.8821 6.7074
L75.9202 6.6883
" />
<path d="M75.9202 6.6883
L75.9393 6.6693
" />
<path d="M75.9393 6.6693
L75.9583 6.6312
" />
<path d="M75.9583 6.6312
L75.9583 6.3074
" />
<path d="M76.0917 6.3074
L76.3202 6.3074
" />
<path d="M76.2060 6.7074
L76.2060 6.3074
" />
</g><text x="65.0250" y="6.7250"
textLength="2.7397" font-size="0.5333" lengthAdjust="spacingAndGlyphs"
text-anchor="middle" opacity="0" stroke-opacity="0">KEEPOUT</text>
<g class="stroked-text"><desc>KEEPOUT</desc>
<path d="M63.7869 6.7074
L63.7869 6.3074
" />
<path d="M64.0155 6.7074
L63.8440 6.4788
" />
<path d="M64.0155 6.3074
L63.7869 6.5360
" />
<path d="M64.1869 6.4979
L64.3202 6.4979
" />
<path d="M64.3774 6.7074
L64.1869 6.7074
" />
<path d="M64.1869 6.7074
L64.1869 6.3074
" />
<path d="M64.1869 6.3074
L64.3774 6.3074
" />
<path d="M64.5488 6.4979
L64.6821 6.4979
" />
<path d="M64.7393 6.7074
L64.5488 6.7074
" />
<path d="M64.5488 6.7074
L64.5488 6.3074
" />
<path d="M64.5488 6.3074
L64.7393 6.3074
" />
<path d="M64.9107 6.7074
L64.9107 6.3074
" />
<path d="M64.9107 6.3074
L65.0631 6.3074
" />
<path d="M65.0631 6.3074
L65.1012 6.3264
" />
<path d="M65.1012 6.3264
L65.1202 6.3455
" />
<path d="M65.1202 6.3455
L65.1393 6.3836
" />
<path d="M65.1393 6.3836
L65.1393 6.4407
" />
<path d="M65.1393 6.4407
L65.1202 6.4788
" />
<path d="M65.1202 6.4788
L65.1012 6.4979
" />
<path d="M65.1012 6.4979
L65.0631 6.5169
" />
<path d="M65.0631 6.5169
L64.9107 6.5169
" />
<path d="M65.3869 6.3074
L65.4631 6.3074
" />
<path d="M65.4631 6.3074
L65.5012 6.3264
" />
<path d="M65.5012 6.3264
L65.5393 6.3645
" />
<path d="M65.5393 6.3645
L65.5583 6.4407
" />
<path d="M65.5583 6.4407
L65.5583 6.5741
" />
<path d="M65.5583 6.5741
L65.5393 6.6503
" />
<path d="M65.5393 6.6503
L65.5012 6.6883
" />
<path d="M65.5012 6.6883
L65.4631 6.7074
" />
<path d="M65.4631 6.7074
L65.3869 6.7074
" />
<path d="M65.3869 6.7074
L65.3488 6.6883
" />
<path d="M65.3488 6.6883
L65.3107 6.6503
" />
<path d="M65.3107 6.6503
L65.2917 6.5741
" />
<path d="M65.2917 6.5741
L65.2917 6.4407
" />
<path d="M65.2917 6.4407
L65.3107 6.3645
" />
<path d="M65.3107 6.3645
L65.3488 6.3264
" />
<path d="M65.3488 6.3264
L65.3869 6.3074
" />
<path d="M65.7298 6.3074
L65.7298 6.6312
" />
<path d="M65.7298 6.6312
L65.7488 6.6693
" />
<path d="M65.7488 6.6693
L65.7679 6.6883
" />
<path d="M65.7679 6.6883
L65.8060 6.7074
" />
<path d="M65.8060 6.7074
L65.8821 6.7074
" />
<path d="M65.8821 6.7074
L65.9202 6.6883
" />
<path d="M65.9202 6.6883
L65.9393 6.6693
" />
<path d="M65.9393 6.6693
L65.9583 6.6312
" />
<path d="M65.9583 6.6312
L65.9583 6.3074
" />
<path d="M66.0917 6.3074
L66.3202 6.3074
" />
<path d="M66.2060 6.7074
L66.2060 6.3074
" />
</g><text x="55.0250" y="6.7250"
textLength="2.7397" font-size="0.5333" lengthAdjust="spacingAndGlyphs"
text-anchor="middle" opacity="0" stroke-opacity="0">KEEPOUT</text>
<g class="stroked-text"><desc>KEEPOUT</desc>
<path d="M53.7869 6.7074
L53.7869 6.3074
" />
<path d="M54.0155 6.7074
L53.8440 6.4788
" />
<path d="M54.0155 6.3074
L53.7869 6.5360
" />
<path d="M54.1869 6.4979
L54.3202 6.4979
" />
<path d="M54.3774 6.7074
L54.1869 6.7074
" />
<path d="M54.1869 6.7074
L54.1869 6.3074
" />
<path d="M54.1869 6.3074
L54.3774 6.3074
" />
<path d="M54.5488 6.4979
L54.6821 6.4979
" />
<path d="M54.7393 6.7074
L54.5488 6.7074
" />
<path d="M54.5488 6.7074
L54.5488 6.3074
" />
<path d="M54.5488 6.3074
L54.7393 6.3074
" />
<path d="M54.9107 6.7074
L54.9107 6.3074
" />
<path d="M54.9107 6.3074
L55.0631 6.3074
" />
<path d="M55.0631 6.3074
L55.1012 6.3264
" />
<path d="M55.1012 6.3264
L55.1202 6.3455
" />
<path d="M55.1202 6.3455
L55.1393 6.3836
" />
<path d="M55.1393 6.3836
L55.1393 6.4407
" />
<path d="M55.1393 6.4407
L55.1202 6.4788
" />
<path d="M55.1202 6.4788
L55.1012 6.4979
" />
<path d="M55.1012 6.4979
L55.0631 6.5169
" />
<path d="M55.0631 6.5169
L54.9107 6.5169
" />
<path d="M55.3869 6.3074
L55.4631 6.3074
" />
<path d="M55.4631 6.3074
L55.5012 6.3264
" />
<path d="M55.5012 6.3264
L55.5393 6.3645
" />
<path d="M55.5393 6.3645
L55.5583 6.4407
" />
<path d="M55.5583 6.4407
L55.5583 6.5741
" />
<path d="M55.5583 6.5741
L55.5393 6.6503
" />
<path d="M55.5393 6.6503
L55.5012 6.6883
" />
<path d="M55.5012 6.6883
L55.4631 6.7074
" />
<path d="M55.4631 6.7074
L55.3869 6.7074
" />
<path d="M55.3869 6.7074
L55.3488 6.6883
" />
<path d="M55.3488 6.6883
L55.3107 6.6503
" />
<path d="M55.3107 6.6503
L55.2917 6.5741
" />
<path d="M55.2917 6.5741
L55.2917 6.4407
" />
<path d="M55.2917 6.4407
L55.3107 6.3645
" />
<path d="M55.3107 6.3645
L55.3488 6.3264
" />
<path d="M55.3488 6.3264
L55.3869 6.3074
" />
<path d="M55.7298 6.3074
L55.7298 6.6312
" />
<path d="M55.7298 6.6312
L55.7488 6.6693
" />
<path d="M55.7488 6.6693
L55.7679 6.6883
" />
<path d="M55.7679 6.6883
L55.8060 6.7074
" />
<path d="M55.8060 6.7074
L55.8821 6.7074
" />
<path d="M55.8821 6.7074
L55.9202 6.6883
" />
<path d="M55.9202 6.6883
L55.9393 6.6693
" />
<path d="M55.9393 6.6693
L55.9583 6.6312
" />
<path d="M55.9583 6.6312
L55.9583 6.3074
" />
<path d="M56.0917 6.3074
L56.3202 6.3074
" />
<path d="M56.2060 6.7074
L56.2060 6.3074
" />
</g></g>
<g style="fill:none; 
stroke:#5994DC; stroke-width:0.0254; stroke-opacity:1; 
stroke-linecap:round; stroke-linejoin:round;">
<circle cx="52.5250" cy="101.2500" r="4.6000" /> 
<circle cx="29.5250" cy="100.9750" r="4.6000" /> 
<circle cx="6.5250" cy="101.2500" r="4.6000" /> 
<circle cx="65.0250" cy="81.7500" r="4.6000" /> 
<circle cx="42.0250" cy="81.4750" r="4.6000" /> 
<circle cx="19.0250" cy="81.7500" r="4.6000" /> 
<circle cx="52.5250" cy="62.2500" r="4.6000" /> 
<circle cx="29.5250" cy="61.9750" r="4.6000" /> 
<circle cx="6.5250" cy="62.2500" r="4.6000" /> 
<circle cx="64.5250" cy="42.7500" r="4.6000" /> 
<circle cx="41.5250" cy="42.4750" r="4.6000" /> 
<circle cx="18.5250" cy="42.7500" r="4.6000" /> 
<circle cx="45.0250" cy="6.5250" r="3.1750" /> 
<circle cx="35.0250" cy="6.5250" r="3.1750" /> 
<circle cx="25.0250" cy="6.5250" r="3.1750" /> 
<circle cx="15.0250" cy="6.5250" r="3.1750" /> 
<circle cx="29.5250" cy="22.9750" r="4.6000" /> 
<circle cx="74.0250" cy="23.0000" r="4.6000" /> 
<circle cx="52.5250" cy="23.2500" r="4.6000" /> 
<circle cx="6.5250" cy="23.2500" r="4.6000" /> 
<circle cx="5.0250" cy="6.5250" r="3.1750" /> 
<circle cx="75.0250" cy="6.5250" r="3.1750" /> 
<circle cx="65.0250" cy="6.5250" r="3.1750" /> 
<circle cx="55.0250" cy="6.5250" r="3.1750" /> 
</g> 
</svg>
